<?xml version="1.0" standalone="no"?>
<!DOCTYPE svg PUBLIC "-//W3C//DTD SVG 1.1//EN" "http://www.w3.org/Graphics/SVG/1.1/DTD/svg11.dtd" >
<svg xmlns="http://www.w3.org/2000/svg" xmlns:xlink="http://www.w3.org/1999/xlink" version="1.1">
<metadata></metadata>
<defs>
<font id="authenticsignature" horiz-adv-x="692" >
<font-face units-per-em="2048" ascent="1638" descent="-410" />
<missing-glyph horiz-adv-x="499" />
<glyph horiz-adv-x="0" />
<glyph unicode="&#xd;" horiz-adv-x="682" />
<glyph unicode=" "  horiz-adv-x="499" />
<glyph unicode="&#x09;" horiz-adv-x="499" />
<glyph unicode="&#xa0;" horiz-adv-x="499" />
<glyph unicode="!" horiz-adv-x="501" d="M-4 -14q0 32 29 46q11 5 22 5q32 0 46 -29q5 -11 5 -22q0 -32 -29 -46q-11 -5 -22 -5q-32 0 -46 29q-5 11 -5 22zM67 184l452 1169q4 6 12 7q23 0 47 -27q15 -17 11 -29l-452 -1170q-4 -6 -11 -6q-22 0 -47 26q-16 18 -12 30z" />
<glyph unicode="&#x22;" horiz-adv-x="364" d="M53 1151q1 6 4 9q66 61 71 135q0 5 -1 13q-1 10 -1 14q2 10 11 11q23 0 47 -25q11 -12 13 -23q3 -16 3 -29q0 -85 -72 -148q-3 -3 -6 -5q-5 -3 -10 -3q-23 0 -47 28q-11 13 -12 23zM179 1126q1 6 4 9q53 48 55 127q0 28 -8 53q-2 6 -2 7q2 10 12 11q24 0 47 -25 q9 -10 12 -19q10 -31 10 -67q0 -92 -58 -142q-2 -1 -3 -2q-5 -3 -10 -3q-23 0 -47 28q-11 13 -12 23z" />
<glyph unicode="#" horiz-adv-x="911" d="M115 390q2 8 10 10q43 6 126 20l60 153l-79 -11h-3q-25 0 -49 29q-9 13 -10 22q2 9 10 11q2 0 160 22l57 148q4 6 12 7q22 0 47 -26q16 -18 12 -30l-34 -87q90 12 180 20l45 116q4 6 12 7q23 0 47 -27q15 -17 11 -29l-23 -60q13 1 39 1q51 -1 75 -16q28 -19 30 -39v-5 q-5 -9 -39 -3q-9 1 -26 1q-40 0 -105 -6l-61 -156q32 2 57 2q61 0 89 -18q28 -19 30 -39v-5q-3 -10 -32 -4q-6 2 -8 2q-14 1 -40 1q-45 0 -122 -6l-90 -230q-4 -6 -11 -7q-22 0 -47 26q-16 18 -12 30l67 171q-74 -9 -182 -25l-77 -195q-4 -6 -11 -7q-22 0 -47 26 q-16 18 -12 30l51 132q-9 -1 -26 -4q-15 -2 -19 -3q-1 0 -4 -1q-25 0 -48 30q-10 13 -10 22zM346 434q102 15 181 22l60 152q-138 -16 -181 -22z" />
<glyph unicode="$" horiz-adv-x="983" d="M90 121q0 114 98 251q32 45 66 79q12 12 42 -10q3 -3 5 -4q27 -23 21 -39q-1 -2 -2 -3q-46 -45 -100 -141q-63 -111 -63 -178q2 -62 57 -74l274 718q-125 144 -125 307q0 145 93 249q85 96 199 104h16q33 0 66 -9l39 101q4 6 11 7q22 0 47 -26q16 -18 12 -30l-34 -90 q73 -60 73 -167q0 -103 -66 -245q-4 -6 -11 -6q-22 0 -47 27q-12 14 -13 24q1 3 2 5q65 141 65 237q0 49 -20 82l-228 -597q130 -148 139 -331q1 -12 1 -24q0 -166 -99 -279q-109 -123 -286 -123q-28 0 -43 1l-34 -87q-4 -6 -11 -7q-22 0 -47 25q-16 19 -12 31l22 59 q-106 50 -107 163zM303 1q149 17 248 136q94 114 94 259q-1 142 -95 253zM431 982q1 -122 75 -217l210 551q-128 -9 -211 -116q-74 -96 -74 -218z" />
<glyph unicode="%" horiz-adv-x="921" d="M41 -66q0 3 2 7l750 1347h-9q-19 0 -79 2q-86 4 -125 4q-73 0 -91 -10q53 -59 53 -119q0 -65 -54 -98q-28 -18 -61 -18q-48 1 -86 37q-29 28 -29 63q1 51 73 125q5 4 10 4q23 0 47 -28q11 -13 12 -23q-1 -6 -3 -9q-67 -71 -68 -109q2 -3 4 -4q19 0 49 29q35 35 36 73 q-1 42 -43 79q-18 18 -19 30q1 43 227 43q35 0 99 -1q45 -1 62 -1q26 0 38 2q1 0 3 1h3q25 0 48 -29q9 -13 10 -22q0 -4 -1 -6l-787 -1414q-4 -5 -11 -5q-22 0 -47 26q-12 14 -13 24zM380 107q1 51 73 125q5 4 11 4q23 0 47 -28q11 -13 12 -23q-1 -4 -4 -8q-67 -68 -68 -110 q2 -2 3 -2q18 0 48 28q37 35 38 73q-1 42 -42 79q-26 24 -19 38l3 3q14 11 45 -14l3 -3q79 -72 80 -146q0 -64 -54 -97q-29 -18 -61 -18q-49 1 -86 37q-29 28 -29 62z" />
<glyph unicode="&#x26;" horiz-adv-x="1183" d="M106 358q0 83 29 153q75 180 295 276q69 31 149 51q-134 143 -134 264q0 108 99 173q74 49 165 49q112 0 166 -71q35 -46 35 -113q0 -50 -21 -114q47 17 78 23q1 0 2.5 0.5t2.5 0.5q25 0 48 -30q10 -13 10 -22q-2 -8 -9 -10q-54 -11 -109 -36.5t-82 -45.5l-28 -21 q-5 -3 -10 -3q-23 0 -47 28q-11 13 -12 23q1 6 4 9q46 37 80 128q22 61 22 109q-1 44 -18 67q-14 19 -58 19q-78 0 -153 -48q-94 -61 -95 -154q1 -110 135 -239q24 -23 16 -36q-3 -4 -8 -5q-307 -71 -425 -267q-16 -27 -28 -54q-26 -62 -26 -155q0 -138 61 -193 q30 -27 71 -27q74 0 208 89q136 90 201 184q36 52 36 90q0 12 -5 25q-3 4 -11 5q-41 0 -246 -96q-4 -2 -8 -2q-23 0 -48 29q-10 14 -11 23q0 6 6 9q338 161 526 161q83 -1 128 -35q32 -26 33 -35q-2 -5 -11 -5q-10 0 -56 11q-17 4 -42 4q-80 0 -223 -45q21 -22 32 -47 q7 -17 7 -38q0 -94 -136 -215q-116 -102 -241 -152q-57 -23 -94 -23q-127 0 -197 123q-53 92 -53 211z" />
<glyph unicode="'" horiz-adv-x="303" d="M86 1151q1 6 4 9q66 61 71 135q0 5 -1 13q-2 10 -2 14q2 10 12 11q23 0 47 -25q11 -12 13 -23t2 -29q0 -86 -71 -148q-4 -3 -6 -5q-5 -3 -10 -3q-23 0 -47 28q-11 13 -12 23z" />
<glyph unicode="(" horiz-adv-x="401" d="M106 338q1 575 531 1069q7 4 10 4q23 0 47 -28q11 -13 12 -23q-1 -6 -3 -9q-524 -491 -525 -1053q0 -36 18 -154q9 -63 9 -104q-2 -10 -12 -11q-23 0 -46 24q-11 12 -14 23q-27 135 -27 262z" />
<glyph unicode=")" horiz-adv-x="602" d="M-12 80q1 5 3 8q523 490 524 1053q0 35 -17 156q-9 63 -9 103q2 9 12 10q23 0 46 -24q11 -12 14 -23q26 -130 26 -262q-1 -576 -530 -1069q-5 -3 -10 -3q-23 0 -47 28q-11 13 -12 23z" />
<glyph unicode="*" horiz-adv-x="598" d="M119 1222q1 7 7 10l129 42l-64 77q-11 14 -11 23q2 9 14 10q28 -1 49 -27l46 -58l30 81q4 7 12 7q22 0 47 -25q16 -19 12 -31l-6 -15l67 21q3 1 6 1q24 0 48 -28q10 -14 11 -23q-1 -7 -8 -10l-158 -52v-1l71 -86q10 -13 10 -23q-2 -9 -13 -10q-27 1 -49 28l-36 45 l-30 -81q-4 -7 -12 -7q-22 0 -47 25q-16 19 -12 31l18 46l-66 -21q-3 -1 -7 -1q-24 0 -48 30q-9 13 -10 22z" />
<glyph unicode="+" horiz-adv-x="577" d="M127 563q2 10 13 11h160l47 124q4 7 12 7q22 0 47 -25q16 -18 12 -30l-29 -76h78q27 0 49 -30q10 -13 10 -22q-2 -10 -13 -11h-147l-53 -141q-4 -7 -12 -7q-22 0 -47 25q-16 19 -12 31l35 92h-91q-27 0 -49 30q-10 13 -10 22z" />
<glyph unicode="," horiz-adv-x="303" d="M78 409q1 6 4 9q66 61 71 135q0 5 -1 13q-2 10 -2 14q2 10 12 11q23 0 47 -25q11 -12 13 -23t2 -29q0 -86 -71 -148q-4 -3 -6 -5q-5 -3 -10 -3q-23 0 -47 28q-11 13 -12 23z" />
<glyph unicode="-" horiz-adv-x="571" d="M135 563q2 10 13 11h327q27 0 49 -30q10 -13 10 -22q-2 -10 -13 -11h-327q-27 0 -49 30q-10 13 -10 22z" />
<glyph unicode="." horiz-adv-x="309" d="M136 483q0 32 29 46q11 5 22 5q32 0 46 -29q5 -11 5 -22q0 -32 -29 -46q-11 -5 -22 -5q-32 0 -46 29q-5 11 -5 22z" />
<glyph unicode="/" horiz-adv-x="610" d="M-29 82q0 3 2 6l783 1392q4 5 11 6q22 0 47 -27q12 -14 13 -24q0 -3 -2 -7l-783 -1391q-4 -5 -11 -6q-22 0 -47 27q-12 14 -13 24z" />
<glyph unicode="0" horiz-adv-x="946" d="M111 314q0 212 87 456t216 419q70 94 139 145q67 50 135 50q43 -1 80 -20q126 -21 146 -222q3 -34 3 -72q0 -46 -7 -113q-26 -247 -126 -528q-107 -304 -239 -449q-86 -92 -171 -93q-69 1 -134 60q-129 119 -129 367zM177 262q1 -203 97 -292q27 -25 60 -25q64 1 144 89 q146 161 259 509q80 249 102 457q8 72 8 146q-1 151 -48 158q-12 2 -25 9q-20 11 -42 11q-51 -1 -115 -48q-133 -97 -256 -339q-132 -260 -172 -521q-12 -82 -12 -154z" />
<glyph unicode="1" horiz-adv-x="557" d="M34 -48l485 1268q-62 -55 -108 -56q-42 1 -79 38q-23 23 -13 36q2 2 4 3q17 8 45 -17l4 -4q2 -1 4 -1q18 0 125 101q71 68 88 78q4 2 8 2q23 0 47 -27q11 -14 12 -24q0 -4 -1 -5l-551 -1441q-4 -6 -11 -7q-22 0 -47 26q-16 18 -12 30z" />
<glyph unicode="2" horiz-adv-x="1114" d="M-20 -53q2 28 62 70q618 426 851 792q117 184 117 323q0 120 -82 168q-40 23 -89 23q-109 0 -207 -97q-101 -100 -149 -267q-4 -7 -11 -8q-23 0 -47 26q-12 14 -13 25q0 167 161 279q99 69 202 86q19 3 33 3q123 0 197 -85q64 -75 64 -190q0 -226 -242 -517 q-200 -240 -545 -494q58 8 120 8q218 0 352 -74q40 -22 68 -50q16 -17 17 -28q-2 -11 -15 -12q-20 1 -42 22q-82 81 -288 81q-181 0 -333 -55q-39 -15 -68 -31q-57 -31 -80 -31q-18 1 -27 13q-6 9 -6 20z" />
<glyph unicode="3" horiz-adv-x="942" d="M49 69q0 114 121 330q1 3 6 11q4 5 11 6q22 0 46 -26q12 -15 13 -25q0 -5 -1 -7q-63 -110 -104 -226q-26 -73 -26 -114q1 -27 13 -39q15 -13 37 -13q81 0 236 109q168 119 278 263q103 135 103 235q-1 46 -22 81q-68 105 -384 116q-25 -1 -49 29q-10 14 -11 23q1 7 7 10 q118 36 243 145q142 124 175 245l2 6q7 30 7 53q-2 59 -52 60q-69 0 -180 -87t-158 -175q-3 -6 -5 -11q-4 -5 -11 -6q-22 0 -47 26q-12 14 -13 24q0 3 2 6q50 107 154 189q105 82 200 82q96 -1 156 -86q25 -36 25 -80q0 -117 -158 -270q-92 -89 -174 -135q246 -40 331 -171 q31 -51 31 -111q0 -141 -148 -312q-128 -147 -292 -236q-125 -67 -216 -67q-66 1 -103 36q-43 41 -43 112z" />
<glyph unicode="4" horiz-adv-x="1056" d="M152 546q1 5 3 8q13 13 41 49t65 87t81 114t90 129t91.5 131.5t85 123t70 102.5t47.5 71l18 26q4 5 11 5q22 0 47 -27q12 -14 13 -24q0 -4 -2 -7l-311 -451q-122 -175 -194 -273q148 33 363 33q12 0 117 -3q28 77 94 252q142 376 186 516q4 7 12 8q22 0 46 -26 q12 -14 13 -25q0 -118 -126 -407q-15 -36 -47 -107q-69 -154 -91 -215l96 -8q26 -3 46 -29q3 -3 4 -5q14 -22 -1 -27q-5 -1 -9 -1h-3q-74 7 -155 11q-175 -481 -175 -655q0 -6 1 -16t1 -15q-2 -10 -12 -11q-23 0 -47 25q-12 14 -13 25q-2 20 -2 31q0 172 160 619h-25 q-18 1 -26 1q-347 0 -496 -84q-3 -2 -9 -2q-22 0 -46 27q-11 14 -12 24z" />
<glyph unicode="5" horiz-adv-x="1171" d="M147 104q0 120 111 322q4 5 11 5q23 0 47 -27q11 -13 12 -23q0 -5 -1 -7q-106 -191 -107 -303q2 -93 81 -114q10 -2 17 -2q86 0 228 162q139 158 233 348q75 152 75 240q-1 60 -37 80q-35 18 -85 18q-113 -1 -316 -79l-36 13q-30 16 -31 32q1 6 3 11q144 242 194 394 q24 73 34 140q-28 2 -49 33q-8 11 -8 19q2 9 11 11h2q112 11 220 11q330 -1 363 -105q2 -6 2 -7q-2 -17 -24 -18q-29 0 -43 23q-3 4 -4 8q-10 33 -207 37q-23 1 -47 1q-64 0 -142 -6q3 -6 3 -11q-18 -177 -137 -405q-19 -37 -43 -79q121 36 210 36q77 0 128 -28 q105 -58 106 -179q0 -25 -5 -56q-20 -116 -137 -308q-130 -212 -263 -322q-91 -74 -159 -75q-14 0 -26 3q-183 46 -184 207z" />
<glyph unicode="6" horiz-adv-x="892" d="M123 224q0 297 346 807q134 198 278 368q6 5 11 5q22 0 47 -28q11 -13 12 -23q-1 -5 -3 -8q-264 -312 -419 -587q96 59 179 59q116 0 174 -109q37 -71 40 -175v-7q1 -5 1 -7q0 -153 -76 -322q-82 -185 -199 -255q-58 -34 -117 -34q-87 1 -172 73q-102 87 -102 243z M196 169q1 -112 57 -161q52 -43 106 -43q110 0 215 164q91 141 129 315q14 67 14 118q0 171 -88 193q-13 3 -25 3q-110 -1 -301 -182q-91 -204 -105 -363q-2 -24 -2 -44z" />
<glyph unicode="7" horiz-adv-x="851" d="M160 1368q2 10 12 11l685 33h3q13 0 23 -6t15.5 -14t9.5 -16.5t6 -14.5l2 -6l-3 -6q-135 -254 -264 -509q39 0 88 -23q37 -18 38 -36q-1 -4 -4 -11q-7 -11 -21 -1q-15 10 -24 10l-111 -8q-347 -691 -370 -845q-3 -8 -12 -9q-22 0 -47 26q-12 14 -13 25q0 98 210 528 q27 55 128 258l-95 -21q-1 0 -2 -1h-3q-24 0 -48 29q-10 14 -11 23q2 8 9 10l129 27q32 6 60 10q157 313 264 514l-594 -28h-2q-26 0 -48 29q-10 13 -10 22z" />
<glyph unicode="8" horiz-adv-x="974" d="M131 200q1 235 274 578q-74 143 -74 253q1 106 62 203q79 125 211 166q50 15 100 15h7q143 -3 213 -112q45 -70 45 -162q0 -69 -23 -130q-73 -196 -325 -400q-5 -3 -10 -3q-23 0 -47 29q-11 13 -12 23q1 5 4 8q248 200 319 392q25 67 25 131q0 123 -90 153q-25 7 -53 8 h-7q-130 0 -231 -98q-33 -33 -58 -72q-57 -90 -57 -189q0 -78 38 -170q3 3 9 11t9 11q5 4 11 4q22 0 47 -28q11 -13 12 -23q-1 -4 -3 -7q-30 -36 -44 -53q19 -35 116 -181q113 -172 141 -276q12 -47 12 -89q-1 -89 -56 -163q-78 -105 -214 -122q-22 -3 -44 -3 q-129 0 -217 81q-65 62 -84 151q-6 31 -6 64zM203 163q0 -38 5 -60q22 -109 123 -134q26 -6 53 -6q100 0 187 63q35 26 58 56q49 66 49 148q0 116 -114 295q-18 29 -55 83q-41 61 -58 89q-248 -319 -248 -534z" />
<glyph unicode="9" horiz-adv-x="1036" d="M139 2q2 11 13 12q11 -1 26 -10q42 -26 87 -26q186 0 381 464q106 251 189 568q-108 -208 -181 -310q-127 -176 -217 -177q-22 1 -43 12q-75 42 -80 186v17q0 47 10 108q33 189 125 344q138 215 313 221q48 0 101 -18q27 -9 42 -34q2 -4 3 -7q1 3 4 10q6 13 9 19 q4 5 12 6q23 0 47 -26q12 -14 13 -25q0 -126 -83 -418q-116 -414 -271 -690q-174 -308 -334 -309q-68 1 -134 42q-31 20 -32 41zM380 650q0 -58 14 -68q8 -2 12 -2q94 0 336 445q95 174 157 308q-9 0 -14 2q-40 14 -81 14q-160 0 -284 -210q-88 -147 -122 -321q-2 -9 -3 -17 q-15 -90 -15 -151z" />
<glyph unicode=":" horiz-adv-x="387" d="M160 454q0 32 29 46q11 5 22 5q32 0 46 -29q5 -11 5 -22q0 -32 -29 -46q-11 -5 -22 -5q-32 0 -46 29q-5 11 -5 22zM160 736q0 33 30 47q10 5 21 5q32 0 46 -31q5 -10 5 -21q0 -32 -29 -46q-11 -5 -22 -5q-32 0 -46 29q-5 11 -5 22z" />
<glyph unicode=";" horiz-adv-x="325" d="M82 353q1 6 4 9q66 61 71 135q0 5 -1 13q-2 10 -2 14q2 9 12 10q23 0 47 -25q11 -12 13 -23t2 -28q0 -85 -72 -148q-3 -3 -6 -5q-5 -3 -9 -3q-23 0 -47 28q-11 13 -12 23zM148 736q0 33 30 47q10 5 21 5q32 0 46 -31q5 -10 5 -21q0 -32 -29 -46q-11 -5 -22 -5 q-32 0 -46 29q-5 11 -5 22z" />
<glyph unicode="&#x3c;" horiz-adv-x="684" d="M115 606q0 14 3 20q5 14 23 29.5t43 29.5t56 29t64 27.5t65.5 24.5t61.5 21.5t51.5 16.5t35.5 10l13 4q3 1 6 1q24 0 48 -29q10 -14 11 -23q-2 -7 -8 -10l-135 -43q-241 -83 -264 -138q-2 -4 -2 -6q0 -11 13.5 -25t34.5 -28.5t47 -29t52 -27t47.5 -22.5t34.5 -16l14 -5 q32 -13 41 -39q2 -5 2 -9q-2 -10 -11 -11q-8 1 -17 4q-8 0 -93 42q-225 112 -236 194q-1 4 -1 8z" />
<glyph unicode="=" horiz-adv-x="575" d="M119 475q2 10 13 11h327q27 0 49 -30q10 -13 10 -22q-2 -9 -13 -10h-327q-27 0 -49 29q-10 13 -10 22zM119 658q2 9 13 10h327q27 0 49 -30q10 -13 10 -22q-2 -9 -13 -10h-327q-27 0 -49 30q-10 13 -10 22z" />
<glyph unicode="&#x3e;" horiz-adv-x="655" d="M94 410q2 7 8 10l135 43q241 83 264 138q1 3 1 6q0 11 -13.5 25t-34.5 28.5t-47 29t-51.5 27t-47 22.5t-34.5 15l-14 6q-31 13 -41 39q-2 6 -2 10q2 9 11 10q8 -1 17 -4q8 0 93 -42q225 -112 236 -194q1 -4 1 -8q0 -11 -4 -19q-5 -14 -23 -29.5t-43 -29.5t-56 -29 t-63.5 -28t-65.5 -25t-61.5 -21.5t-51 -16.5t-35.5 -11l-13 -3q0 -1 -3 -1l-3 1q-24 0 -48 28q-10 14 -11 23z" />
<glyph unicode="?" horiz-adv-x="819" d="M78 -14q0 32 29 46q11 5 22 5q32 0 46 -29q5 -11 5 -22q0 -32 -29 -46q-11 -5 -22 -5q-32 0 -46 29q-5 11 -5 22zM102 191q0 150 128 316q86 111 221 215q97 67 173 199q77 135 77 246q-1 122 -100 169q-35 17 -83 17q-106 0 -209 -74q-102 -74 -123 -169q-4 -20 -4 -38 q1 -51 32 -99q7 -11 7 -18q-2 -9 -13 -10q-27 0 -49 27q-2 3 -3 5q-45 66 -45 135q1 78 57 151q73 93 193 132q56 18 109 19h3q64 0 118 -25q150 -69 170 -258q3 -28 3 -57q0 -161 -143 -315q-50 -53 -187 -170q-134 -114 -187 -184q-79 -105 -79 -212q0 -11 4 -35 q4 -25 4 -37q-2 -10 -12 -11q-23 0 -46 24q-11 12 -14 23q0 2 -2 34z" />
<glyph unicode="@" horiz-adv-x="1191" d="M57 416q0 192 121 387q112 182 276 278q119 69 238 76q12 1 33 1q210 0 318 -137q78 -100 78 -240q0 -170 -110 -315q-38 -51 -86 -92q-65 -54 -131 -54q-77 0 -113 67q-17 33 -20 75q-70 -81 -97 -106q-69 -62 -118 -63q-42 1 -72 47q-17 29 -17 72q0 96 55 203 q51 100 108 114q2 1 4 1q15 3 41 3q95 -1 133 -88l38 52q8 9 19 10q23 0 45 -32q9 -14 9 -23q-1 -6 -4 -8q-58 -91 -77 -183q-5 -24 -5 -42q1 -47 32 -48q37 1 105 59q115 98 167 249q27 80 27 154q0 153 -110 221q-69 42 -174 42q-20 0 -30 -1q-222 -12 -392 -203 q-136 -152 -189 -356q-23 -91 -23 -171q0 -168 93 -235q39 -27 91 -33q11 -1 32 -1q153 1 373 130q15 9 44 -14l5 -5q25 -24 16 -37l-3 -3q-226 -133 -391 -133q-153 1 -247 112q-92 109 -92 270zM429 362q79 41 228 230q-8 9 -20 44q-10 30 -33 33q-4 1 -9 1t-17 -2 q-53 -10 -102 -114q-47 -103 -47 -189v-3z" />
<glyph unicode="A" horiz-adv-x="1404" d="M-147 424q2 8 7 10l7 2q212 60 439 107q362 646 551 859q-51 -22 -112 -50t-96 -44l-35 -16q-4 -2 -8 -2q-23 0 -48 29q-10 14 -11 23q1 6 7 9l221 100q198 86 233 86q26 0 51 -25q12 -14 13 -26q-1 -9 -7 -17q-14 -15 -58 -45q-167 -112 -579 -837q470 639 696 800 q23 16 42 27q38 21 75 21q72 0 112 -75q13 -25 20 -55q6 -26 6 -71q0 -182 -150 -604q83 -8 122 -47q10 -11 11 -18q-2 -7 -13 -8q-5 0 -8 1q-54 9 -133 14q-5 -14 -24 -63q-141 -372 -141 -448v-9q-3 -11 -20 -13q-31 0 -44 37q-5 16 -5 36q0 26 11 68q23 86 136 395h-7 q-264 0 -639 -70q-36 -49 -72.5 -99.5t-68 -95t-62 -88.5t-56 -80.5t-48 -69.5t-39.5 -58t-29.5 -43.5t-19.5 -28.5l-6 -10q-4 -5 -11 -5q-23 0 -47 27q-11 13 -12 23q0 5 1 7q1 1 10 20q126 240 245 456q-56 -13 -112 -26.5t-96 -24t-71.5 -19t-47.5 -12.5l-16 -5 q0 -1 -3 -1l-3 1q-24 0 -48 29q-9 13 -10 22zM535 586q310 51 535 51q26 0 73 -2q143 393 163 601q3 28 3 50q-1 72 -26 95q-5 4 -12 4q-82 0 -482 -482q-177 -213 -254 -317z" />
<glyph unicode="B" horiz-adv-x="1343" d="M-156 912q0 136 223 290q17 13 35 24q226 144 524 223q212 56 388 56q121 0 215 -28q150 -45 227 -152q42 -57 52 -122q4 -28 4 -43q0 -137 -124 -255q-23 -21 -48 -40q-166 -123 -491 -241q136 -35 195 -116q42 -58 42 -119q0 -135 -192 -266q-112 -77 -232 -118 q-164 -55 -305 -55q-90 0 -162 24q-193 68 -194 249q0 221 271 576q133 174 263 298q76 73 125 106q37 26 72 26q44 0 64 -37q6 -11 6 -21q-2 -16 -15 -17q-3 0 -10 2q-62 -54 -340 -762q-104 -264 -119 -301q-4 -6 -12 -6q-22 0 -46 25q-12 14 -13 25q0 4 1 6 q40 95 133 331q178 446 247 593q-180 -164 -334 -378q-220 -308 -221 -503v-14q6 -132 160 -158q35 -6 76 -6q171 0 372 88q191 84 275 193q26 34 37 66q15 45 15 79q-1 148 -256 148h-28h-2q-25 0 -49 29q-9 13 -10 22q1 7 8 10q415 138 605 280q122 92 155 210q9 34 9 67 q0 19 -3 37q-23 131 -182 181q-86 26 -201 26q-261 0 -574 -120q-177 -68 -315 -156q-169 -108 -226 -213q-23 -43 -23 -82q0 -7 2 -22q15 -69 128 -116q32 -13 41 -39q2 -5 2 -9q-2 -10 -12 -11q-8 1 -16 4q-189 79 -214 204q-3 15 -3 28z" />
<glyph unicode="C" horiz-adv-x="1124" d="M0 235q0 212 171 518q152 274 362 485q217 219 383 252q7 1 12 2q29 4 61 4q82 -1 138 -39q78 -57 78 -149q0 -62 -36 -145q-76 -172 -262 -338q-120 -107 -262 -188q-7 -2 -8 -2q-23 0 -48 29q-10 14 -11 23q0 6 6 9q251 142 411 346q68 88 104 170q31 78 34 146 q-1 44 -22 61q-23 16 -69 16q-33 0 -61 -5q-173 -27 -396 -261q-204 -214 -355 -494q-157 -301 -161 -491q1 -159 124 -190q27 -7 59 -7q69 0 156.5 33t166.5 80.5t169 116t153 123t130 118.5t88.5 86t39.5 41l1 1q4 3 9 4q19 0 40 -30q11 -17 11 -28q-1 -5 -4 -10l-1 -1 q-158 -167 -347 -317q-352 -277 -573 -278q-37 0 -67 7q-116 28 -178 128q-33 52 -42 112q-4 26 -4 62z" />
<glyph unicode="D" horiz-adv-x="1396" d="M-143 912q0 20 2 30q23 126 227 264q145 98 340 174q302 118 565 126h32q81 0 150 -13q254 -47 329 -238q17 -45 17 -97q0 -66 -29 -154q-76 -226 -317 -504q-223 -257 -472 -427q-134 -91 -247 -135q-82 -32 -166 -32q-143 0 -224 85q-66 69 -66 173q0 50 14 100 q64 235 369 587q157 180 313 319q24 40 38 48q9 5 20 5q30 0 52 -35q8 -13 8 -23q-1 -6 -4 -9q-18 -14 -49 -42q-108 -186 -265 -598q-135 -353 -164 -423q-5 -14 -31 -1q-7 3 -12 7q-29 21 -28 40q1 3 1 4q43 103 141 350q129 323 185 452q-307 -320 -438 -570 q-46 -87 -65 -158q-15 -56 -15 -97q0 -120 104 -148q29 -8 62 -8q73 0 162 34q217 84 481 323q255 231 416 481q88 136 126 250q28 84 28 149q0 207 -269 236q-42 4 -88 4q-225 0 -504 -86q-56 -18 -101 -35q-282 -110 -438 -250q-101 -92 -116 -173q-3 -14 -3 -26 q0 -72 92 -119q18 -9 38 -17q28 -12 40 -36q2 -3 3 -6q4 -16 -12 -17q-8 1 -16 4q-148 62 -197 156q-19 37 -19 76z" />
<glyph unicode="E" horiz-adv-x="1200" d="M0 73q0 29 11 65q65 204 469 496q80 57 165 113h-15q-195 0 -255 85q-14 21 -19 46q-2 10 -2 28q0 115 158 247q139 116 310 179q98 35 167 36h2q70 0 110 -42q18 -20 24 -43q2 -12 2 -18q0 -73 -108 -179q-29 -28 -55 -48q-5 -3 -10 -3q-23 0 -47 28q-11 13 -12 23 q1 6 4 9q68 52 117 119q41 56 40 91q-8 1 -23 1q-120 0 -294 -98q-166 -94 -254 -206q-59 -75 -59 -135q0 -9 2 -22q9 -37 131 -37q118 0 215 19l2 1h3q24 0 48 -30q9 -13 10 -22q-1 -7 -5 -9q-192 -113 -391 -270q-367 -293 -371 -457q0 -17 5 -35q11 -31 64 -31 q111 0 354 109q31 14 47 22q325 167 693 486q12 11 40 -9q5 -3 8 -6q26 -23 19 -38q-1 -2 -2 -3q-371 -322 -697 -489q-248 -127 -410 -127q-56 0 -94 17q-96 44 -97 137z" />
<glyph unicode="F" horiz-adv-x="1069" d="M-303 1099q1 31 30 59q104 97 557 176q421 74 833 85q51 1 97 1q235 0 323 -32q28 -10 41 -35q2 -4 3 -7q6 -19 -13 -18q-6 1 -12 3q-78 29 -291 29q-357 0 -799 -67q-479 -72 -637 -164q-23 -14 -37 -27q-23 -22 -24 -42q1 -10 9 -19q16 -17 17 -30q-2 -10 -13 -11 q-23 1 -50 29q-34 38 -34 70zM1 559q2 40 327 98q162 445 213 529q15 24 25 30t21 6q29 -2 53 -45q12 -22 -5 -25q-6 0 -12 1q-42 -42 -201 -481q271 42 430 42q70 0 97 -10q59 -24 60 -55q0 -7 -3 -15q-4 -6 -11 -7q-21 1 -45 24q-29 4 -72 4q-133 0 -452 -52 q-21 -3 -31 -5q-17 -46 -50 -138q-58 -159 -88 -238q-9 -51 -30 -115q-43 -137 -85 -206q-9 -13 -13 -16q-5 -2 -13 -2q-27 0 -45 29q-8 15 -8 30q0 6 2 15q17 57 91 239q19 45 30 75q13 73 13 107q-2 111 -77 117q-120 8 -121 64zM135 546q76 -27 111 -98q2 -5 3 -8 q9 24 26 70q18 48 26 71q-107 -19 -166 -35z" />
<glyph unicode="G" horiz-adv-x="1146" d="M0 565v11q0 16 2 49q17 200 145 402q125 198 297 297q63 36 126 55q65 19 129 19q146 0 238 -86q83 -78 83 -191q-1 -88 -50 -179q-4 -5 -11 -6q-22 0 -47 27q-12 14 -13 24q0 3 2 6q49 90 49 169v9q-1 6 -1 9q-10 126 -137 151q-29 6 -61 6q-61 0 -124 -18 q-183 -53 -337 -241q-145 -176 -197 -382q-14 -59 -19 -113q-2 -36 -2 -52q1 -143 64 -209q30 -31 86 -31q129 0 349 154q169 119 277 244q50 59 64 97q9 9 21 10q26 0 45 -25q8 -12 8 -22q-1 -6 -3 -11q-89 -238 -101 -269q-3 -6 -5 -11q148 75 309 139q3 1 7 1 q23 0 46 -29q11 -14 12 -23q-2 -7 -6 -9q-216 -86 -420 -197q-97 -216 -222 -399q-179 -265 -305 -265q-18 0 -35 6q-77 26 -110 84q-11 21 -14 42q-1 6 -1 15q0 148 325 384q144 104 295 188q36 81 60 141q-177 -167 -351 -250q-117 -56 -206 -56q-90 1 -166 76 q-91 93 -95 259zM199 -211q2 -35 42 -50q11 -3 21 -3q106 0 296 291q80 123 138 237q-98 -60 -242 -177q-254 -207 -255 -298z" />
<glyph unicode="H" horiz-adv-x="1683" d="M0 962q1 153 158 238q148 80 398 101q50 4 149 9q229 13 334 37q2 1 3 1q31 62 46 73q9 5 18 5q31 0 56 -33q15 -20 15 -40q0 -43 -68 -62q-1 -1 -2 -1q-46 -99 -198 -531q-2 -6 -4 -11q233 11 386 11q95 0 136 -2q21 58 43 118t41.5 113t38.5 105t35.5 95.5t31.5 82.5 t26 69t19.5 52t13.5 34l4 11q4 6 12 7q22 0 47 -25q16 -19 12 -31l-179 -474q-30 -84 -59 -163q71 -7 98 -16q63 -25 64 -57q0 -7 -3 -14q-4 -6 -11 -7q-21 1 -47 26q-40 9 -121 12q-301 -834 -301 -973q0 -28 -32 -12q-1 1 -2 1q-36 20 -37 50q0 144 285 936h-48 q-188 0 -476 -15q-135 -384 -176 -489q-44 -113 -87 -206q-7 -2 -10 -2q-32 0 -54 21q-9 10 -10 20q0 28 30 174q30 151 30 234q-1 186 -114 194q-109 7 -110 58q2 30 435 57q142 405 193 530q-26 -3 -285 -23q-291 -22 -435 -77q-38 -15 -70 -32q-146 -80 -147 -219 q1 -93 67 -218q4 -8 4 -14q-2 -9 -12 -10q-25 0 -47 25q-6 6 -9 12q-75 140 -75 245zM552 661q116 -70 116 -292q0 -15 -2 -44q61 164 127 352q-200 -13 -241 -16z" />
<glyph unicode="I" horiz-adv-x="841" d="M0 -41q2 8 10 10l11 2q158 23 284 38q28 225 420 1163q38 91 73 173q-37 -5 -76 -10t-68.5 -9.5t-53.5 -8t-37 -5.5l-13 -2h-4q-25 0 -49 30q-9 13 -10 22q2 8 10 10l8 1q181 28 323 44q13 27 26 28q14 -1 36 -22q110 11 172 11q33 0 46 -2q50 -6 73 -41q7 -11 7 -18 q-2 -9 -9 -11h-2q-3 0 -11 2q-31 8 -61 8h-3q-83 -2 -209 -16q-361 -843 -477 -1223q-21 -68 -31 -114q119 13 190 13q25 0 51 -4q43 -7 66 -47q7 -11 7 -18q-1 -4 -3 -5l-4 2q-19 9 -77 9q-66 0 -240 -19q-2 -24 -16 -25q-16 1 -36 19q-38 -5 -79 -10.5t-72 -9.5t-56.5 -8 t-39.5 -6l-14 -2h-2l-2 -1q-25 0 -48 30q-10 13 -10 22z" />
<glyph unicode="J" horiz-adv-x="1232" d="M0 799q0 218 173 402q151 161 373 236q22 7 42 13q91 26 173 26q159 -1 247 -92q62 -67 62 -209q0 -220 -133 -558q-23 -59 -45 -106q205 82 377 82q27 0 50 -31q10 -12 10 -21q-2 -9 -13 -10q-224 -3 -476 -130q-167 -362 -323 -541q-102 -116 -183 -129q-14 -2 -21 -2 q-70 0 -109 63q-24 39 -24 87q1 45 20 83q74 148 342 345q140 103 231 150q69 139 141 358q88 269 88 419q-1 96 -37 136q-47 47 -147 47q-79 0 -173 -27q-203 -59 -361 -202q-184 -166 -210 -366q-4 -31 -4 -61q1 -124 65 -243q11 -21 -5 -24q-4 -1 -11 0q-28 6 -46 34 l-2 4q-71 134 -71 267zM249 -174q0 -17 5 -24q7 -9 19 -9q35 0 92 41q8 6 12 10q116 109 275 384q28 49 54 98q-178 -112 -309 -250q-95 -100 -132 -185q-16 -38 -16 -65z" />
<glyph unicode="K" horiz-adv-x="1882" d="M0 962q1 5 2 7q85 119 247 222q209 131 394 137h14q121 -1 206 -61q103 -75 103 -231q0 -172 -134 -465q470 429 835 660q258 163 406 185h1l2 1q25 0 49 -30q9 -13 10 -22q-2 -8 -10 -10q-243 -36 -761 -443q-260 -204 -531 -456q3 0 9 0.5t9 0.5q120 0 208 -108 q25 -31 93 -138q43 -68 74 -102q53 -57 122 -57q161 1 493 300q7 4 10 4q23 0 47 -29q11 -13 12 -23q-1 -4 -4 -8q-332 -299 -525 -299q-111 1 -201 101q-35 39 -102 142q-57 90 -100 120q-44 31 -99 31q-68 -1 -163 -47q-148 -264 -298 -428q-24 -28 -46 -48 q-69 -64 -113 -65q-36 1 -62 39q-5 9 -5 19q1 39 63 120q124 159 388 413l1 1l1 1l1 1l2 2q109 194 183 401q66 184 66 295q-1 99 -51 135q-59 41 -142 41q-160 0 -371 -129q-159 -98 -246 -204q-10 -12 -17 -22q-4 -5 -11 -5q-22 0 -46 26q-12 15 -13 25z" />
<glyph unicode="L" horiz-adv-x="708" d="M-418 -51q2 7 8 10l6 2q215 59 444 104q34 147 162.5 485t211 535t143.5 341l5 11q4 6 12 7q22 0 46 -26q12 -15 13 -25q0 -4 -1 -5l-5 -12q-386 -901 -495 -1272q-3 -12 -6 -22q338 60 589 60q205 0 345 -41q30 -9 45 -38q4 -8 4 -13q-2 -9 -12 -10q-4 0 -11 2 q-127 38 -327 38q-275 0 -651 -73q-8 -42 -8 -63v-7q-2 -10 -12 -11q-23 0 -46 24q-13 14 -14 26v15q-45 -9 -90.5 -19.5t-82 -19t-70 -17t-58 -15.5t-43 -12t-28.5 -8l-9 -2q-3 -1 -6 -1q-24 0 -48 29q-10 14 -11 23z" />
<glyph unicode="M" horiz-adv-x="1548" d="M-270 738q0 9 1 13q14 75 137 181q133 114 272 165q67 25 118 25q30 0 54 -9q34 -14 61 -42q63 -68 63 -171q-1 -136 -107 -355q142 184 259 210q21 5 41 5q60 -1 111 -36q94 -67 152 -228q71 37 211 291q32 58 98 183q149 283 214 375q49 68 85 90q13 8 28 8 q32 -2 57 -44q7 -12 7 -39q0 -116 -145 -577q-10 -31 -14 -45q-118 -386 -129 -425q-58 -206 -84 -354q-12 -78 -12 -120q0 -15 3 -19t5.5 -8t4 -8t1.5 -7t-1 -5t-3.5 -4t-5.5 -2h-6q-39 0 -60 60q-9 27 -9 50q0 136 140 606q23 77 76 242q122 384 158 557q4 18 7 34 q-58 -70 -212 -353q-170 -313 -237 -414q-80 -120 -126 -136q-17 -6 -31 -6q-55 0 -85 85q-1 1 -1 2q-48 136 -100 172q-24 16 -52 16q-93 0 -229 -151q-14 -16 -27 -31q-151 -185 -298 -491q-20 -43 -22 -49q-2 0 -17 -1q-80 5 -83 74q0 19 4 36q17 74 129 274 q130 231 170 318q72 159 72 256q-1 75 -42 121q-16 9 -38 9q-85 0 -243 -105q-141 -95 -212 -187q-29 -39 -35 -66q24 0 51 4h4q25 0 48 -29q9 -13 10 -22q-2 -9 -10 -11q-32 -5 -52 -5q-53 1 -91 31q-32 28 -33 62z" />
<glyph unicode="N" horiz-adv-x="1683" d="M0 739q0 23 14.5 50t27.5 42.5t36 41.5q102 108 242 185q120 66 201 66q12 0 18 -1q59 -7 103 -52q62 -67 62 -171q0 -158 -152 -444q-27 -51 -78 -143q-30 -54 -44 -79q502 763 798 1069q54 56 98 93q90 76 161 76q67 -2 100 -77q24 -56 24 -143q0 -206 -151 -653 q-26 -77 -77 -223q-9 -24 -29 -80q-105 -290 -119 -393q-4 -25 -4 -44q0 -5 9 -51q1 -7 1 -11q-1 -9 -7 -11h-6q-39 0 -60 59q-9 28 -9 53q0 102 114 419q5 14 15 40q17 47 24 68q143 404 187 586q42 170 42 278q0 76 -21 127h-3q-75 0 -307 -261q-36 -41 -66 -77 q-293 -353 -676 -940q-99 -152 -101 -159q-2 0 -17 -1q-80 5 -83 74q0 19 4 36q14 63 120 251q5 10 14 26q239 435 240 603q-2 85 -66 93q-7 1 -17 1q-126 0 -321 -162q-112 -92 -165 -165q-15 -21 -16 -29q1 -2 1 -3q1 -1 59 9h1h1h5q25 0 48 -29q9 -13 10 -22 q-2 -9 -10 -11q-23 -4 -48 -4q-60 1 -96 31q-31 27 -31 62z" />
<glyph unicode="O" horiz-adv-x="1425" d="M0 672q0 235 216 441q169 161 404 250q77 29 149 44q54 49 106 81q108 67 205 67q103 -1 198 -76q23 -20 24 -34q-2 -12 -14 -13q-15 1 -35 16q-57 45 -128 45q-86 -1 -186 -62q17 1 46 1q264 0 328 -240q22 -83 22 -195q0 -203 -96 -455q-112 -293 -287 -464 q-170 -164 -358 -165h-1q-167 1 -261 118q-52 65 -70 155q-11 57 -11 117q0 16 2 47q-155 50 -218 174q-35 68 -35 148zM72 631q2 -186 185 -234q29 269 189 574q99 189 219 329q-191 -70 -351 -214q-205 -184 -237 -387q-5 -35 -5 -68zM322 252q0 -265 208 -277h17h1 q229 0 423 253q155 202 238 490q54 186 54 329q0 225 -95 291q-52 35 -139 35q-76 0 -199 -26q-188 -171 -334 -465q-131 -265 -164 -497q29 -3 62 -3q131 0 294 41q1 0 2 1h3q24 0 48 -29q10 -14 11 -23q-2 -8 -9 -10q-163 -40 -292 -40q-66 0 -125 11q-4 -54 -4 -81z" />
<glyph unicode="P" horiz-adv-x="1617" d="M0 824v5q1 4 1 6q15 153 364 330q238 122 510 203q32 9 58 16l5 4q119 113 222 165q4 2 8 2q23 0 48 -29q10 -14 11 -23q0 -6 -6 -9q-51 -26 -111 -71q148 26 260 26q306 -1 406 -174q36 -64 36 -129q0 -186 -277 -367q-36 -24 -75 -46q-260 -147 -582 -217 q-98 -21 -189 -31q-258 -357 -373 -463q-60 -55 -99 -55q-22 0 -45 23q-7 6 -10 7h-1q-18 20 -18 60q0 128 168 449q-98 30 -141 84q-22 28 -22 56q1 31 24 61q50 65 204 139q18 8 47 -18l2 -2q24 -23 15 -36q-2 -2 -4 -3q-181 -88 -211 -157q-5 -12 -5 -22q0 -34 110 -54 q3 -1 5 -1q188 354 419 636q39 47 76 88q-101 -33 -293 -125q-400 -190 -462 -318q-11 -22 -11 -41q1 -27 22 -50q24 -25 10 -35q-2 -1 -3 -2q-3 -1 -6 -1q-27 0 -57 38q-30 39 -30 81zM210 45q105 73 316 362q8 11 25 34q18 25 26 36h-37q-79 0 -143 10 q-155 -289 -184 -428q-2 -8 -3 -14zM426 541q24 -2 71 -2q64 0 129 6q60 84 126.5 179t118 170.5t94.5 139.5t67 100l24 35q4 5 11 5q23 0 47 -27q11 -13 12 -23q0 -4 -2 -7l-10 -15q-201 -302 -371 -541q209 36 449 133q366 149 492 330q44 65 54 130q3 21 3 40 q0 184 -290 194h-30q-191 0 -423 -61q-286 -273 -555 -755q-9 -16 -17 -31z" />
<glyph unicode="Q" horiz-adv-x="1454" d="M0 672q0 235 216 441q169 161 404 250q77 29 149 44q54 49 106 81q108 67 205 67q103 -1 198 -76q23 -20 24 -34q-2 -12 -14 -13q-15 1 -35 16q-57 45 -128 45q-86 -1 -186 -62q17 1 46 1q264 0 328 -240q22 -83 22 -195q0 -203 -95 -454q-85 -224 -211 -381 q204 -2 332 -52q30 -12 41 -38q3 -7 3 -11q-2 -10 -11 -11q-5 0 -16 4q-120 47 -321 47q-30 0 -83 -2q-178 -185 -380 -186h-1q-167 1 -261 118q-52 65 -70 155q-11 57 -11 117q0 16 2 47q-155 50 -218 174q-35 68 -35 148zM72 632q2 -187 185 -235q29 269 189 574 q99 189 219 329q-191 -71 -351 -214q-206 -184 -237 -389q-5 -33 -5 -65zM322 252q0 -265 208 -277h17h1q153 1 291 114q-32 -3 -63.5 -7.5t-54 -8t-40.5 -6.5t-27 -5l-10 -2h-4q-25 0 -49 30q-9 13 -10 22q2 8 9 10l3 1q158 29 321 37q167 181 269 476q80 231 80 411 q0 223 -93 290q-52 36 -141 36q-76 0 -199 -26q-188 -171 -334 -465q-131 -265 -164 -497q29 -3 62 -3q131 0 294 41q1 0 2 1h3q24 0 48 -29q10 -14 11 -23q-2 -8 -9 -10q-163 -40 -292 -40q-66 0 -125 11q-4 -54 -4 -81z" />
<glyph unicode="R" horiz-adv-x="1413" d="M0 781q0 162 328 363q195 120 403 200q14 5 25 9q74 75 152 133q61 44 107 67q4 2 8 2q23 0 48 -29q10 -14 11 -23q0 -6 -6 -9q-60 -31 -127 -83q142 35 249 35q181 -1 271 -97q72 -78 72 -177q0 -61 -31 -134q-55 -127 -200 -253q-168 -147 -339 -188q-53 -13 -101 -13 q-74 0 -136 31q1 -26 50 -69q188 -161 575 -274q253 -74 472 -94q29 -3 49 -34q7 -10 7 -18q-2 -9 -12 -10h-3q-298 28 -614 138q-327 114 -503 265q-92 81 -93 135q-350 -527 -501 -637q-27 -19 -45 -24q-10 -2 -14 -2q-40 0 -68 39q-5 6 -8 12q-6 13 -6 34q0 111 128 379 q55 116 124 236q173 303 364 529q-193 -89 -350 -204q-212 -158 -213 -278q1 -38 22 -61q24 -25 10 -35q-2 -1 -3 -2q-19 -6 -46 19l-4 4q-52 55 -52 118zM88 68q56 38 147 145.5t180.5 234.5t171 248.5t131.5 201.5l51 81q4 5 11 6q22 0 46 -26q12 -15 13 -25q0 -3 -2 -7 q0 -6 -140 -220q-7 -10 -13 -20q14 -2 31 -14q47 -35 114 -35q142 0 332 141q146 108 234 232q30 42 45 77q30 70 30 129q0 118 -104 151q-8 2 -15 4q-48 12 -108 12q-175 0 -422 -88q-238 -241 -470 -642q-5 -8 -9 -15q-177 -308 -237 -500q-13 -43 -17 -71z" />
<glyph unicode="S" horiz-adv-x="864" d="M-78 103q2 9 12 10q24 0 47 -25q6 -8 10 -15q16 -30 69 -40q21 -4 49 -4q130 0 280 79q148 78 205 178q26 47 26 91q0 88 -108 145q-43 22 -188 74q-163 57 -233 113q-42 33 -67 72q-25 40 -25 82q0 132 215 293q37 28 76 53q232 149 494 214q29 7 57 13q98 19 143 19 q87 -1 132 -42q25 -24 25 -58q0 -68 -89 -158l-10 -10q-5 -3 -10 -3q-23 0 -47 28q-11 13 -12 23q1 5 3 8q105 99 106 131q-2 21 -43 21q-49 0 -143 -20q-255 -51 -497 -196q-24 -14 -46 -28q-163 -106 -238 -210q-45 -64 -45 -116q0 -13 3 -23q12 -61 125 -109 q22 -10 177 -64q173 -61 243 -126q74 -70 74 -166q0 -115 -138 -222q-125 -98 -286 -134q-62 -14 -115 -14q-28 0 -57 5q-122 22 -170 119q-4 10 -4 12z" />
<glyph unicode="T" d="M-406 1219q2 8 10 10l30 4q581 88 1044 142l27 62q4 6 12 7q22 0 46 -26q12 -15 13 -25q0 -4 -1 -5l-1 -2q531 59 774 59q126 0 180 -16q30 -9 45 -36q4 -8 4 -14q-2 -10 -12 -11q-3 0 -10 2q-49 14 -165 14q-257 0 -846 -69q-362 -847 -468 -1208q-34 -116 -34 -163v-4 q1 -2 1 -3q-2 -10 -12 -11q-26 0 -48 27q-12 15 -12 30q0 174 406 1152q36 86 71 169q-141 -17 -295.5 -37.5t-273 -37.5t-216.5 -31.5t-152 -22.5l-54 -8h-4q-25 0 -49 30q-9 13 -10 22z" />
<glyph unicode="U" horiz-adv-x="1605" d="M0 1116q1 67 80 132q83 69 245 129q157 57 273 57q117 -1 162 -62q18 -26 18 -69q0 -92 -89 -342q-11 -29 -28 -77q-79 -218 -101 -288q-73 -237 -73 -372q1 -144 83 -166q17 -4 36 -4q219 0 639 650q93 144 247 403q120 202 154 240q19 20 30 21h2q57 -11 58 -61 q0 -6 -2 -17q-12 -75 -137 -351q-159 -347 -208 -474q-99 -254 -99 -382q1 -85 41 -120q28 -25 19 -39l-2 -2q-14 -11 -43 12q-3 2 -5 4q-74 67 -74 202q0 229 222 691q17 35 47 97q32 64 43 88q-262 -440 -431 -658q-283 -364 -464 -365q-23 0 -44 6q-179 50 -180 282 q0 186 128 533q7 20 21 56q16 44 23 63q100 281 116 361q5 28 5 47q0 22 -7 32q-14 18 -54 18q-104 0 -316 -94q-139 -63 -190 -105q-73 -62 -74 -108q0 -51 87 -86q1 -1 2 -1q30 -12 41 -38q2 -6 2 -10q-2 -10 -11 -11q-8 1 -16 4q-142 56 -170 139q-6 18 -6 35z" />
<glyph unicode="V" horiz-adv-x="1069" d="M-336 1119q0 99 176 193q152 82 333 114q62 11 107 11q24 0 42 -3q67 -14 103 -62q18 -26 18 -82q0 -117 -97 -458q-9 -34 -26 -92q-1 -5 -9 -31q-137 -443 -137 -587q1 -66 30 -67q10 1 15 3q170 73 408 350q239 280 416 608q196 362 196 572q0 2 -1 6v5q2 10 12 11 q23 0 46 -24q13 -14 14 -26v-12q0 -215 -196 -581q-178 -330 -419 -612q-239 -278 -413 -355q-2 -1 -3 -1q-31 -13 -53 -13q-46 1 -83 42q-32 36 -32 124q0 146 105 518q12 43 33 117q110 383 125 495q4 29 4 49q0 26 -6 38q-21 8 -58 8q-118 0 -294 -70q-188 -74 -256 -159 q-29 -36 -29 -67q0 -9 4 -22q13 -33 85 -62q30 -13 41 -36q1 -3 2 -5q5 -18 -13 -17q-6 0 -13 3q-142 58 -171 142q-6 18 -6 35z" />
<glyph unicode="W" horiz-adv-x="1232" d="M-57 1177l14 35q33 59 81 60q39 -1 85 -40q38 -34 38 -129q0 -91 -48 -338q-48 -251 -49 -344q0 -62 14 -97q110 27 383 457q96 153 131 217q4 5 11 6q22 0 46 -26q12 -14 13 -25q0 -4 -52 -202q-126 -478 -126 -715q0 -47 7 -96q9 -63 23 -75q10 -9 25 -9q18 0 43 10 q148 56 308 361q96 184 172 414q77 232 111 443q15 96 15 163q0 74 -20 111q-25 9 -41 34q-6 9 -6 16q2 9 13 9q29 0 67 -34q15 -14 25 -28q31 -49 31 -154q0 -208 -108 -557q-8 -27 -16 -51q-125 -374 -283 -597q-109 -152 -209 -190q-33 -12 -61 -12q-84 0 -132 90 q-21 41 -29 91q-7 51 -7 98q0 223 100 629q-270 -417 -383 -440q-6 -1 -14 -1q-49 0 -85 49q-2 3 -3 4q-30 45 -30 151q0 133 63 452q41 210 41 256q0 26 -7 32q-10 8 -21 8q-16 0 -30.5 -20.5t-21.5 -41.5l-7 -21q-4 -8 -11 -8q-22 0 -47 25q-16 18 -13 30z" />
<glyph unicode="X" horiz-adv-x="1265" d="M0 -194q0 4 2 7q279 415 639 824q3 4 6 7q-148 343 -245 749q-10 42 -11 47q-1 14 12 15q24 0 46 -24q10 -12 13 -23q0 -16 48 -191q79 -292 174 -531q505 564 870 760q4 2 9 2q23 0 46 -29q11 -14 12 -23q-1 -7 -5 -9q-373 -201 -895 -790q157 -360 317 -491 q101 -83 206 -83q65 1 131 32q4 2 8 2q23 0 48 -29q10 -14 11 -23q0 -6 -6 -9q-75 -36 -151 -36q-249 0 -484 383q-60 98 -115 215q-352 -403 -616 -798q-4 -5 -11 -5q-22 0 -46 26q-12 15 -13 25z" />
<glyph unicode="Y" horiz-adv-x="1171" d="M-565 1117q0 86 142 176q142 89 321 124q71 14 130 14q124 -1 167 -59q22 -32 22 -80q0 -71 -58 -243q-61 -178 -73 -246q-6 -38 -6 -68q2 -128 119 -160q26 -7 53 -7q191 0 454 356q57 77 204 302q91 138 117 150q4 2 7 2h1q58 -11 59 -66q0 -7 -2 -22 q-27 -169 -118 -482q-28 -97 -58 -188q111 46 200 67q1 0 2 1h3q25 0 49 -30q9 -13 10 -22q-2 -8 -9 -10q-128 -29 -289 -108q-270 -779 -532 -810q-10 -1 -20 -1t-27 2q-83 13 -149 73q-24 21 -38 44q-25 40 -25 85q0 172 334 421q186 138 378 235q6 3 11 6 q106 309 177 619q-137 -215 -207 -309q-281 -375 -496 -376q-29 0 -60 8q-217 59 -218 262q0 107 71 306q56 157 64 198q6 27 6 47q-1 30 -11 45q-12 15 -51 15q-99 0 -271 -67q-200 -79 -277 -167q-35 -40 -35 -75q0 -8 1 -11q8 -39 88 -71q30 -13 41 -36q1 -3 2 -5 q5 -17 -12 -17q-7 0 -15 3q-160 65 -175 160q-1 6 -1 15zM164 -129q0 -80 90 -99l12 -2q8 -1 21 -1q167 0 359 390q64 130 128 302q-242 -134 -413 -290q-123 -112 -172 -208q-25 -50 -25 -92z" />
<glyph unicode="Z" horiz-adv-x="1105" d="M-74 -25q0 47 276 316q70 68 238 228l-134 -36h-7q-24 0 -48 29q-9 13 -10 22q2 7 8 10l8 2q157 44 285 71q454 434 598 611q94 118 95 164q0 7 -1 10q-34 15 -105 15q-245 0 -834 -168q-107 -30 -185 -55q-3 -1 -6 -1q-24 0 -48 29q-10 14 -11 23q1 7 8 10 q422 132 676 182q199 38 330 38q211 -1 244 -98q2 -6 2 -15q0 -117 -466 -577q-66 -66 -145 -142q51 7 92 7q26 0 47 -3q54 -10 81 -50q8 -13 8 -21q-2 -7 -8 -8h-5q-72 17 -111 17q-62 0 -194 -28q-49 -47 -156 -145q-247 -228 -352 -344q-37 -41 -67 -78q31 5 105 19 q367 68 567 78q44 2 85 2q308 -1 431 -120q16 -17 17 -28q-2 -11 -15 -12q-20 1 -41 21q-80 78 -313 78q-206 0 -624 -73q-189 -33 -236 -39q-6 -1 -15 -1q-48 0 -61 38q-3 11 -3 22z" />
<glyph unicode="[" horiz-adv-x="475" d="M1 175l424 1132q5 8 81 8q27 0 74 -1q17 -1 21 -1q27 0 49 -30q10 -13 10 -22q-2 -9 -13 -10h-154l-402 -1071l137 -4q27 -1 49 -31q10 -12 10 -21q-2 -9 -14 -10l-215 6q-25 1 -47 28q-13 17 -10 27z" />
<glyph unicode="\" horiz-adv-x="815" d="M-37 1475q2 9 13 10q25 0 48 -27q4 -5 7 -10l783 -1392q5 -10 5 -14q-2 -9 -12 -10q-27 0 -49 26q-4 5 -7 10l-783 1392q-5 10 -5 15z" />
<glyph unicode="]" horiz-adv-x="460" d="M-82 165q2 10 13 11h155l401 1071l-137 4q-27 1 -49 32q-9 12 -9 20q2 9 13 10l215 -6q25 -1 48 -29q13 -17 10 -27l-424 -1131q-5 -8 -81 -8q-27 0 -75 1q-17 1 -21 1q-27 0 -49 29q-10 13 -10 22z" />
<glyph unicode="^" horiz-adv-x="532" d="M78 1172q1 6 3 9l243 216q5 3 10 4q23 0 46 -26q12 -14 13 -25l27 -215q0 -12 -11 -13q-23 0 -47 24q-11 13 -13 24l-15 121l-187 -166q-7 -4 -10 -4q-23 0 -47 28q-11 13 -12 23z" />
<glyph unicode="_" horiz-adv-x="626" d="M61 328q2 9 13 10h461q27 0 49 -30q10 -13 10 -22q-2 -9 -13 -10h-461q-27 0 -49 30q-10 13 -10 22z" />
<glyph unicode="`" horiz-adv-x="278" d="M66 911q-1 10 11 10q7 0 14 -4q25 -14 28 -33q4 -31 16 -49q1 -2 9 -5q21 -12 29 -24q11 -18 -4 -19h-6q-55 9 -84 73q-10 26 -13 51z" />
<glyph unicode="a" d="M0 496q0 83 97 159q57 44 115 61q14 4 30 4q42 -1 69 -33q19 -25 10 -47q-8 -17 -43 6q-6 4 -10 8q-78 -22 -141 -85q-55 -56 -56 -110q0 -12 3 -22q38 3 106 56t99.5 85t56.5 59l1 1q7 8 17 8q24 0 46 -33q8 -12 8 -20q-1 -3 -2 -4q-6 -44 -6 -76q0 -30 7 -54 q6 -12 22 -13q66 0 299 145q4 3 9 3q22 0 44 -28q10 -14 11 -24q-1 -7 -6 -10q-12 -8 -39 -25q-141 -90 -211 -111q-35 -11 -64 -11q-12 0 -31 4q-94 24 -110 121q-144 -134 -220 -135h-9q-51 6 -83 55q-10 16 -15 33q-4 15 -4 33z" />
<glyph unicode="b" horiz-adv-x="591" d="M-66 261q0 119 387 1117l4 9q4 6 12 7q22 0 47 -26q16 -18 12 -30l-186 -496q-104 -284 -156 -442q12 18 35 53q137 207 195 267q47 48 75 49q5 0 7 -1q103 -28 117 -127q2 -14 2 -27q0 -11 -2 -30q18 3 36.5 6t33.5 5.5t29 4.5t24.5 3t18.5 2t12 1l4 1q1 0 3 1 q26 0 48 -30q10 -13 10 -22q0 -8 -8 -10h-2q-27 0 -185 -26q-22 -3 -42 -7q-40 -107 -118 -167q-53 -41 -108 -41q-60 1 -114 47q-93 -138 -121 -150q-3 -1 -6 -1q-55 0 -63 47q-1 7 -1 13zM148 387q18 -22 46 -23q43 1 89 38q42 34 78 91q-123 -26 -177 -53q-6 -9 -18 -26z M240 525q65 23 157 42q17 51 17 95q-1 39 -20 46h-1l-1 1q-27 -2 -152 -184z" />
<glyph unicode="c" horiz-adv-x="522" d="M-37 421q0 84 79 187q76 97 160 128q27 9 50 9q54 -1 85 -48q10 -16 10 -34q0 -15 -17 -64q-2 -5 -3 -8q-5 -10 -14 -11q-22 0 -46 30q-14 18 -11 29l14 41q-57 -11 -133 -95q-86 -94 -101 -176q-3 -14 -3 -26q1 -25 12 -43q13 -3 25 -3q97 0 337 158q21 13 61 40 q65 44 89 58q5 3 8 3q23 0 48 -29q10 -14 11 -23q-1 -7 -5 -9q-26 -16 -93 -61q-192 -128 -287 -168q-75 -31 -128 -31q-10 0 -25 2q-65 11 -101 70q-17 28 -21 59q-1 6 -1 15z" />
<glyph unicode="d" horiz-adv-x="618" d="M5 479q0 47 19 99q47 124 140 171q44 22 92 22q44 0 90 -19q147 265 306 620l2 3q4 6 12 7q22 0 47 -24q16 -16 12 -27q-154 -384 -291 -800q-140 -427 -140 -555q0 -6 2 -15q1 -8 1 -12q-2 -9 -12 -10q-23 0 -47 24q-11 12 -13 23q-2 10 -2 32q0 135 162 590 q11 30 23 63q-1 1 -4 3q-2 1 -3 2q-4 -8 -16 -30q-114 -211 -193 -279q-46 -39 -84 -39q-26 1 -46 15q-56 45 -57 136zM69 423q0 -21 6 -36q76 23 246 320q-12 2 -18 2q-87 0 -162 -101q-62 -84 -71 -167q-1 -10 -1 -18z" />
<glyph unicode="e" horiz-adv-x="518" d="M-33 416q0 91 78 193q71 93 148 118q17 5 32 6h4q47 0 80 -41q21 -27 21 -55q-1 -20 -10 -37q-10 -18 -30.5 -37t-45 -35t-52 -31t-52.5 -27t-45.5 -21t-32.5 -13l-13 -5q-16 -8 -16 -45q1 -35 20 -42q19 -6 41 -6q126 0 354 167q59 43 104 83q4 3 8 3q20 0 41 -30 q11 -16 11 -27q-1 -6 -4 -10q-24 -24 -106 -83q-227 -163 -366 -164q-18 0 -26 1q-127 17 -141 116q-2 11 -2 22zM105 542q135 69 152 126q-59 -18 -132 -102q-11 -12 -20 -24z" />
<glyph unicode="f" horiz-adv-x="563" d="M-191 -251q0 203 145 626q132 386 276 649q42 76 77 125q70 96 123 97q8 0 11 -1q44 -9 76 -54l4 -6q16 -27 16 -64q0 -124 -160 -330q-115 -148 -230 -238q-23 -17 -41 -29q-57 -151 -93 -262q276 65 508 259q42 35 79 72q5 4 12 4q23 0 45 -26q9 -12 10 -21 q-1 -6 -3 -9q-235 -230 -504 -321q-47 -16 -92 -26q39 -74 39 -198q0 -162 -55 -293q-40 -95 -89 -115q-20 -7 -32 -7q-56 0 -95 65q-25 42 -27 86v17zM-114 -279v-15q0 -26 5 -49q4 -12 26 7q40 34 74 133q44 134 44 258q0 110 -38 158q-105 -329 -111 -492zM179 704 q86 86 174 216q108 160 109 243v6q-1 4 -1 6q-84 -40 -242 -382q-22 -46 -40 -89z" />
<glyph unicode="g" horiz-adv-x="630" d="M-171 -385q-82 71 -82 161q0 228 528 576q11 8 36 24q49 146 70 232q-135 -180 -225 -211q-26 -9 -47 -9q-53 0 -80 53q-8 18 -13 39q-5 20 -5 39q0 73 66 132q73 66 175 73q31 1 58 -3q16 -4 34 -18q14 19 32 47q9 13 22 13q16 0 40 -22q12 -12 19 -22q8 -12 8 -40 q0 -63 -40 -209q-4 -14 -8 -27q92 57 186 112q43 25 61 36q15 9 44 -13l5 -5q25 -24 17 -38l-3 -3q-22 -14 -61 -36q-180 -106 -287 -176q-118 -356 -252 -566q-45 -72 -88 -117q-61 -63 -119 -63q-46 0 -91 41zM-162 -169q-24 -50 -24 -92q0 -57 46 -98l4 -4q8 -4 16 -4 q28 0 69 36q12 11 24 23q129 136 276 512q8 20 15 39q-341 -240 -426 -412zM84 475q0 -14 3 -27q1 -3 4 -3q25 0 184 173q34 38 40 45h-11q-75 0 -144 -53q-76 -60 -76 -135z" />
<glyph unicode="h" horiz-adv-x="700" d="M-61 271q0 55 97.5 335t195.5 533l97 253q4 6 12 7q22 0 47 -26q16 -18 12 -30l-186 -495q-112 -304 -163 -464q10 14 34 49q124 180 181 231q9 7 17 13q20 15 38 15q13 -1 31 -10q60 -34 71 -108q2 -13 3 -40q5 -58 16 -83h4q69 0 295 146q5 3 9 3q23 0 45 -29 q10 -13 10 -22q-1 -7 -5 -10q-10 -7 -34 -23q-137 -92 -211 -114q-34 -10 -62 -10q-52 1 -86 34q-45 45 -51 156q0 3 -2 42q-71 -44 -192 -219q-105 -151 -115 -165q-14 -18 -25 -30q-10 -6 -20 -6q-30 0 -52 34q-11 17 -11 33z" />
<glyph unicode="i" horiz-adv-x="350" d="M0 419q0 106 98 311q4 6 11 7q22 0 47 -27q12 -14 13 -24q0 -3 -2 -6q-87 -184 -96 -286q-1 -9 -1 -17q0 -14 4 -29h2q83 0 246 167q42 44 72 80q3 4 8 4q17 0 36 -30q10 -16 10 -28q-1 -5 -4 -11q-202 -240 -325 -244q-11 0 -28 4q-48 14 -74 57q-17 28 -17 72zM139 820 q0 3 2 7l83 133q4 5 12 5q23 0 47 -27q11 -13 12 -23q0 -3 -2 -7l-84 -133q-4 -5 -11 -6q-22 0 -46 26q-12 15 -13 25z" />
<glyph unicode="j" horiz-adv-x="335" d="M-463 -383q-62 59 -62 136q0 133 187 321q113 114 295 245q17 54 49 171q50 181 79 259q7 17 39 -3.5t33 -39.5q0 -4 -1 -6q-20 -52 -71 -240q-11 -39 -19 -65q96 66 308 196q9 5 37 -8q29 -13 29 -30q0 -11 -12 -23q-9 -8 -21 -16q-232 -143 -381 -249q-3 -10 -12 -38 q-125 -409 -240 -559q-73 -95 -143 -95q-48 0 -94 44zM-446 -218q-11 -33 -11 -61q0 -49 32 -85q9 -7 20 -7q29 0 73 47q111 117 243 503q-301 -235 -357 -397zM124 877q0 3 1 5l48 124q7 17 39 -4q33 -21 32 -40q0 -3 -1 -5l-48 -124q-7 -17 -39 4q-33 21 -32 40z" />
<glyph unicode="k" horiz-adv-x="583" d="M-66 261q0 118 401 1115l4 11q4 6 12 7q22 0 47 -26q16 -18 12 -30l-165 -414q-131 -338 -190 -520q120 183 126 191q103 148 148 171q9 5 21 5q33 0 57 -33q9 -12 9 -20q-1 -5 -4 -7q-3 -1 -7 0q-15 1 -41 -24q-44 -42 -136 -178v-5q-1 -8 -1 -13q1 -75 26 -93 q14 -9 32 -9q79 0 234 116q71 53 101 87q3 4 8 4q19 0 40 -30q11 -17 11 -28q-1 -6 -3 -10q-85 -95 -193 -152q-84 -45 -151 -45q-52 1 -93 28q-39 27 -61 75q-108 -164 -141 -202q-27 -30 -40 -31q-53 0 -62 45q-1 8 -1 15z" />
<glyph unicode="l" horiz-adv-x="405" d="M-88 143q0 186 336 998q10 26 25 61q66 158 75 185q4 7 11 7q23 0 47 -25q12 -14 13 -25q0 -21 -47 -127q-18 -40 -29 -65q-252 -612 -323 -859q-35 -124 -36 -186q69 46 222 224q158 184 202 229q17 18 32 32q5 3 10 3q21 0 42 -29q11 -14 11 -24q-1 -8 -3 -10 q-49 -36 -216 -225q-173 -197 -228 -243q-34 -29 -50 -30h-7q-86 2 -87 109z" />
<glyph unicode="m" horiz-adv-x="940" d="M-68 329q0 14 9.5 43t24 65.5t32.5 77t36 78t33 68.5t25 49l9 19q4 5 12 6q22 0 46 -26q12 -15 13 -25q0 -4 -1 -6l-9 -19q-64 -128 -101 -210q215 244 295 308q30 24 47 30q10 3 17 3q39 0 64 -45q13 -25 13 -49q0 -43 -30 -138q77 61 123 62q41 -1 71 -41 q24 -33 24 -76q0 -9 -9 -81q-1 -11 -2 -19q65 4 225 129q69 54 76 59q4 3 8 3q20 0 41 -30q11 -16 11 -27q-1 -6 -5 -11q-9 -6 -31 -24q-158 -124 -237 -150q-28 -10 -50 -10q-11 0 -16 1q-41 8 -71 42q-22 27 -22 63q0 7 9 71q3 21 2 35q-74 -27 -216 -180q-5 -5 -12 -5 q-23 0 -47 27q-11 14 -12 24q0 4 1 5l3 7q75 179 91 270q-45 -32 -204 -205q-160 -173 -205 -206q-20 -14 -29 -14h-3q-31 10 -45 35q-4 9 -4 17z" />
<glyph unicode="n" horiz-adv-x="710" d="M-96 325q0 21 198 402q4 5 11 6q22 0 47 -27q12 -14 13 -24q0 -3 -2 -6q-1 -2 -104 -204q193 187 262 216q8 3 14 5q13 3 23 3q47 -1 79 -39q26 -31 26 -104q0 -23 -11 -124q-1 -11 -1 -16q0 -6 2 -8q2 -1 3 -1q35 0 247 159q28 21 36 28q3 2 7 2q18 0 38 -32 q10 -17 10 -29q-1 -7 -5 -12q-100 -82 -140 -108q-93 -60 -155 -60q-36 1 -63 20q-47 38 -47 118q0 23 4 69q4 43 4 62v11q-59 -15 -233 -183q-136 -131 -157 -149q-34 -28 -46 -29q-57 5 -60 54z" />
<glyph unicode="o" horiz-adv-x="479" d="M-61 413q0 79 82 169q20 22 40 38q0 2 -1 6v5q0 60 66 83q27 10 58 10q72 -1 111 -39q41 -40 41 -104q0 -38 -17 -78q114 22 199 91q4 3 9 3q21 0 42 -28q10 -13 11 -23q-1 -6 -5 -9q-124 -100 -260 -100q-19 0 -28 1q-90 -146 -211 -146q-52 0 -83 22q-2 3 -3 4 q-51 37 -51 95zM9 354q14 -6 29 -6q62 0 135 81q14 16 26 32q-62 29 -101 77q-69 -74 -86 -141q-2 -11 -3 -20q-1 -18 0 -23zM134 572q16 -53 92 -70q40 72 40 126q0 21 -7 33q-3 3 -12 3q-45 0 -84 -21q-13 -8 -19 -16q23 -20 24 -31q0 -7 -19 -16q-11 -5 -15 -8z" />
<glyph unicode="p" horiz-adv-x="526" d="M-264 -259q0 5 2 14q5 19 21.5 68t40 116.5t52.5 149.5t60.5 168t62.5 170.5t58.5 159.5t48.5 132.5t34 91.5l12 34q4 7 12 7q22 0 47 -25q16 -19 12 -31q-1 3 -115 -310q6 4 17 9q1 1 10 19q113 216 157 248q11 7 23 7q40 0 86 -46q15 -15 22 -27q20 -35 20 -82 q0 -11 -2 -30q18 3 36.5 6t33.5 5.5t29 4.5t24.5 3t18.5 2t12 1l4 1q1 0 3 1q26 0 48 -30q10 -13 10 -22q-2 -8 -10 -10q-27 0 -185 -26q-22 -3 -42 -7q-38 -101 -111 -162q-56 -46 -114 -46q-35 0 -66 15q-80 -163 -184 -384q-91 -192 -115 -225v-2l-4 -4q-11 -13 -18 -12 q-51 13 -51 48zM130 365q65 0 136 88q17 20 29 40q-61 -13 -114 -29q-7 -14 -22 -42q-20 -38 -29 -57zM221 540q47 13 110 27q17 48 17 94q-1 35 -15 45h-1q-16 0 -107 -160q-3 -4 -4 -6z" />
<glyph unicode="q" horiz-adv-x="606" d="M23 571q22 73 91 119q54 36 108 36l70 -15q4 -2 7 -4q35 -18 68 -51q40 45 54 77q7 18 39 -3q33 -21 32 -40q0 -3 -1 -5q-15 -41 -96 -214q-23 -49 -37 -83q143 87 281 199q15 12 41 -16.5t16 -43.5q-1 -2 -2 -3q-212 -173 -383 -254l-9 -24q-7 -17 -10 -25 q72 -81 73 -247q0 -143 -49 -238q-36 -68 -83 -68h-6q-43 5 -80 51q-32 41 -32 122q0 127 80 355q2 4 10 27q-9 2 -45 3q-13 0 -22 2q-25 9 -46 34q-16 24 4 27q34 3 63 0q33 11 84 36q40 101 71 173q-104 -71 -165 -77q-8 -1 -15 -1q-43 0 -77 25q-41 32 -41 81q0 21 7 45z M86 481q73 0 202 103q30 23 52 44q-7 4 -16 13q-12 12 -20 16q-19 10 -41 10q-43 0 -93 -41q-61 -50 -79 -113q-5 -18 -5 -32zM195 -270q57 13 84 154q14 73 14 139q0 50 -8 95q-5 29 -13 47q-88 -252 -88 -369q0 -41 11 -66z" />
<glyph unicode="r" horiz-adv-x="499" d="M-30 685q11 63 57 97q15 11 30 15q9 3 19 3q31 0 60 -31q21 -23 27 -48q2 -9 2 -19q0 -40 -26 -93q8 2 29 10q50 18 64 18q47 -4 66 -49q1 -4 1 -9q0 -39 -71 -171q-83 -155 -98 -192q-8 -22 -11 -36q67 31 264 245q129 141 149 161q14 13 40 -14t16 -42q-2 -1 -2 -2 q-8 -7 -134 -146q-220 -241 -304 -264q-19 -4 -32 0q-33 12 -54 42q-9 13 -9 36q0 74 94 245q9 17 28 50q25 45 33 61q-55 -16 -99 -16q-54 0 -91 25q-51 35 -51 94q0 14 3 30zM35 614q-1 -11 1 -14q47 72 56 124q-23 -19 -40 -56q-11 -22 -17 -54z" />
<glyph unicode="s" horiz-adv-x="397" d="M-96 317q1 71 184 159q-49 94 -57 117q-11 32 -11 57q2 89 138 169q4 2 8 2q23 0 48 -28q10 -14 11 -23q-1 -7 -5 -9q-99 -58 -117 -111q-6 -17 -6 -35q1 -44 38 -118q143 61 299 97h5q25 0 49 -30q9 -13 10 -22q-2 -8 -9 -10q-183 -42 -324 -107q5 -19 5 -33 q0 -74 -124 -131q-1 -1 -2 -1q-45 -20 -65 -20q-40 2 -68 50q-7 13 -7 27zM13 333q40 22 61 44q-33 -21 -61 -44z" />
<glyph unicode="t" horiz-adv-x="284" d="M-449 908q0 2 0.5 3.5t2 3t3 2.5t3.5 1l10 2q311 64 604 99q33 101 67 201.5t51 149.5l17 49q6 16 36 -1l6 -3q28 -19 29 -39q-1 -3 -1 -5l-10 -29q-58 -167 -106 -313q205 20 365 20q287 0 431 -65q29 -13 38 -38q1 -3 2 -5q3 -15 -13 -15q-8 1 -17 5q-128 58 -390 58 q-186 0 -438 -29q-23 -71 -76 -227q-187 -560 -232 -751q-24 -106 -24 -157v-14q1 -17 -21 -12q-7 2 -13 5q-29 14 -37 38q-1 4 -1 6v12q0 126 160 622q26 79 79 239q52 156 75 228q-82 -11 -167 -24.5t-148.5 -25t-114.5 -21.5t-79 -16l-27 -5q-20 -5 -46 21l-5 5 q-2 3 -4.5 5.5t-4 5.5l-2.5 5t-1.5 4.5t-0.5 4.5z" />
<glyph unicode="u" horiz-adv-x="714" d="M0 450q0 115 127 296q4 5 11 5q22 0 46 -26q12 -15 13 -25q0 -4 -2 -7q-80 -113 -113 -213q-14 -42 -14 -72q0 -7 2 -18q81 28 242 238q34 44 59 80q8 10 19 11q24 0 44 -30q9 -14 9 -23q-1 -5 -3 -8q-27 -82 -42 -178q-5 -32 -5 -53q1 -29 10 -35q8 -5 23 -5 q68 0 217 110q79 59 107 93q6 5 10 5q21 0 43 -27q10 -14 11 -23q-1 -5 -3 -8q-59 -72 -158 -136q-109 -70 -189 -70q-42 1 -72 20q-68 46 -68 140v14q-124 -149 -196 -176q-2 0 -4 -1q-9 -3 -19 -3q-40 1 -75 39q-30 35 -30 86z" />
<glyph unicode="v" horiz-adv-x="544" d="M2 405q0 19 2.5 42t6.5 45.5t9.5 46t12 44.5t12.5 41t11.5 36t9.5 28l6 18l3 7q4 7 12 8q22 0 44 -25q10 -13 11 -24q0 -4 -1 -6l-35 -102q-36 -122 -36 -193q0 -19 3 -36q63 24 172 169q10 14 19 26q45 63 71 115l12 57q3 6 4 6q4 7 12 7q24 0 44 -26q14 -18 13 -37 q-15 -45 -15 -49q-1 -5 -1 -9q0 -12 1 -19q10 -6 31 -6q60 0 149 27q3 1 7 1q23 0 44 -29q9 -12 9 -21q-2 -8 -9 -11q-86 -28 -146 -28q-73 1 -116 40q-66 -110 -149 -197q-78 -80 -125 -81h-2q-50 0 -79 57q-11 22 -15 45q-2 11 -2 33z" />
<glyph unicode="w" horiz-adv-x="980" d="M-4 451q0 114 127 295q4 5 10 5q22 0 47 -27q12 -14 13 -24q0 -4 -2 -7q-86 -125 -117 -226q-11 -36 -11 -61q0 -12 1 -17q45 16 127 101q81 84 175 218q8 10 18 10q24 0 45 -32q8 -14 8 -22q0 -3 -2 -6q-56 -179 -59 -280q0 -18 3 -33q78 10 167 143q73 109 95 202 q1 5 2 8q0 1 0.5 4t1 7t1.5 9t1.5 10.5t1.5 10.5t1.5 10t1.5 9t2 6v3q4 5 13 5q28 0 46 -25q10 -16 10 -34q0 -11 -4 -40q-5 -45 -5 -71q1 -66 25 -79q18 -7 41 -7q84 0 233 76q3 1 8 1q23 0 48 -28q10 -14 11 -23q-1 -7 -6 -10q-150 -77 -246 -77q-46 0 -78 15 q-48 22 -76 62q-43 -93 -116 -169q-77 -79 -140 -79q-31 1 -60 23q-51 42 -51 130q0 25 5 58q-125 -146 -192 -167q-7 -2 -17 -2t-21 3t-20 7.5t-15.5 9t-10.5 8t-3 3.5q-37 36 -37 94z" />
<glyph unicode="x" horiz-adv-x="561" d="M-164 101q0 77 191 297q24 28 66 75q-9 27 -12 57q-24 0 -48 28q-10 13 -11 23q1 3 2 5l61 113q4 5 11 5q22 0 46 -25q12 -15 13 -26q0 -20 -3 -55q-2 -31 -2 -44v-18q98 107 192 198l1 1q4 3 11 3q23 0 47 -28q11 -13 12 -23q-1 -4 -4 -8q-154 -155 -241 -251 q7 -16 16 -19q3 -1 6 -1q5 -1 14 -1q84 0 315 148q90 57 92 58q4 2 8 2q23 0 47 -28q11 -13 12 -23q-1 -6 -5 -9q-17 -11 -60 -38q-188 -121 -279 -153q-51 -18 -87 -18q-14 0 -20 1q-52 9 -89 47q-209 -238 -230 -336q-3 -7 -12 -8q-23 0 -47 26q-12 14 -13 25z" />
<glyph unicode="y" horiz-adv-x="632" d="M-167 -383q-62 59 -62 135q0 134 189 323q112 113 294 244q17 54 49 169q-17 -18 -27 -25h-1q-87 -79 -149 -98q-14 -4 -28 -4q-35 0 -68 30q-18 16 -27 36q-8 17 -8 40q0 12 2 26q15 92 119 240q11 15 44 -10q31 -23 26 -40q-1 -2 -2 -3q-120 -176 -118 -255 q58 16 143 94q93 86 146 177q16 29 24 53q4 9 19 6q25 -4 46 -30q11 -15 8 -25q-20 -51 -69 -235l-20 -70q96 66 308 196q9 5 37 -8q29 -13 29 -30q0 -11 -12 -23q-9 -8 -21 -16q-232 -143 -381 -249q-3 -10 -12 -37q-127 -414 -243 -563q-72 -91 -141 -91q-48 0 -94 43z M-149 -218q-11 -33 -11 -61q0 -49 32 -85q9 -7 20 -7q29 0 73 47q111 117 243 503q-301 -235 -357 -397z" />
<glyph unicode="z" horiz-adv-x="536" d="M-145 -1q0 10 2 16q31 95 414 370q-11 6 -35 6q-51 0 -82 -10h-1q-2 -1 -3 -1q-24 0 -48 28q-10 13 -11 23q1 4 3 7q59 74 112 166q5 8 9 15q-57 -34 -120 -87q-5 -3 -9 -3q-23 0 -47 28q-11 13 -12 23q1 6 4 9l73 56q75 52 113 62q7 2 18 2q26 -1 49 -19q23 -19 23 -50 q0 -54 -81 -167q-11 -14 -14 -19q63 -4 100 -40q39 28 80 56t71.5 48t55.5 35.5t39 24.5l13 8q18 11 41 -5q5 -3 8 -6q25 -24 17 -38l-3 -3l-13 -9q-153 -102 -279 -192q-9 -85 -140 -223q-108 -113 -200 -164q-19 -11 -34 -16q-11 -4 -25 -4q-45 0 -73 34q-15 19 -15 39z M-43 14q107 66 217 194q-161 -125 -217 -194z" />
<glyph unicode="{" horiz-adv-x="450" d="M0 69q0 74 80 216q74 130 83 150q29 61 29 99q-2 55 -57 77q-32 11 -44 38q-3 7 -3 11q2 10 12 11h4q22 -2 31 -2q127 0 200 157q33 70 82 254q46 175 83 239q51 85 126 86q14 0 21 -1q29 -4 48 -34q7 -11 7 -18q-2 -9 -12 -10h-5q-6 1 -16 1q-74 0 -122 -117 q-21 -50 -67 -224q-51 -197 -105 -279q-64 -99 -159 -114q46 -44 46 -107q0 -81 -87 -230q-77 -132 -80 -137q-33 -64 -33 -100q1 -25 16 -41q8 -8 28 -8t50 7t50 13l21 7q4 2 7 2q24 0 48 -29q10 -14 11 -23q-1 -7 -8 -10l-53 -14q-36 -7 -68 -7q-83 1 -128 46 q-36 37 -36 91z" />
<glyph unicode="}" horiz-adv-x="593" d="M-123 -20q2 9 13 10h1h7q6 -1 8 -1q119 0 174 123q26 56 58 209q33 156 69 219q55 94 155 102q-40 50 -40 123q0 25 2 38q6 53 83 236q77 184 82 236q1 6 1 11q-1 17 -7 25q-13 15 -55 15q-16 0 -35.5 -2t-30.5 -4l-12 -2h-2q-2 -1 -3 -1q-25 0 -48 30q-10 13 -10 22 q2 8 9 10l52 6h13q115 -1 171 -66q27 -32 27 -80q0 -68 -67 -216.5t-81 -196.5q-11 -37 -15 -66q-2 -15 -2 -38q1 -67 38 -84q25 -9 41 -33q15 -23 -2 -27h-8q-13 2 -34 2q-114 0 -168 -120q-24 -55 -56 -206q-33 -157 -70 -221q-62 -105 -183 -106h-17q-27 1 -49 32 q-9 13 -9 21z" />
<glyph unicode="~" horiz-adv-x="292" d="M0 817q1 3 2 5q40 44 72 45q25 0 61 -34l3 -3q11 -10 17 -10q17 2 48 35q3 2 7 2q16 0 32 -20q5 -7 5 -12q-1 -3 -2 -5q-36 -40 -67 -40q-25 0 -61 34l-3 3q-11 9 -18 10q-19 -2 -52 -39q-3 -2 -7 -2q-16 0 -32 19q-5 7 -5 12z" />
<glyph unicode="&#xa8;" horiz-adv-x="360" d="M78 808q0 30 30 42q9 4 19 4q30 0 38 -26q1 -6 1 -11q0 -30 -30 -42q-9 -4 -19 -4q-30 0 -38 26q-1 6 -1 11zM201 808q0 30 30 42q9 4 19 4q30 0 38 -26q1 -6 1 -11q0 -30 -30 -42q-9 -4 -19 -4q-30 0 -38 26q-1 6 -1 11z" />
<glyph unicode="&#xad;" horiz-adv-x="571" d="M135 563q2 10 13 11h327q27 0 49 -30q10 -13 10 -22q-2 -10 -13 -11h-327q-27 0 -49 30q-10 13 -10 22z" />
<glyph unicode="&#xb4;" horiz-adv-x="288" d="M86 795q1 6 4 11q8 13 32 25q4 3 5 4q12 18 16 49q3 18 29 33q20 11 25 -2v-4q-6 -63 -50 -101q-22 -19 -48 -23q-14 -2 -13 8z" />
<glyph unicode="&#xb8;" horiz-adv-x="196" d="M20 189q0 18 23 5q21 -12 23 -27q33 -8 46 18q1 3 2 5q2 9 2 11q0 30 -45 50q-7 2 -12 4q-3 1 -3 6q0 11 29 71q1 1 1 2q2 4 7 4q15 0 30 -19q8 -10 6 -17l-22 -48q54 -36 55 -77q-1 -24 -20 -39q-16 -11 -35 -11q-42 0 -72 30q-14 16 -15 32z" />
<glyph unicode="&#xc0;" horiz-adv-x="1404" d="M-147 424q2 8 7 10l7 2q212 60 439 107q362 646 551 859q-51 -22 -112 -50t-96 -44l-35 -16q-4 -2 -8 -2q-23 0 -48 29q-10 14 -11 23q1 6 7 9l221 100q198 86 233 86q26 0 51 -25q12 -14 13 -26q-1 -9 -7 -17q-14 -15 -58 -45q-167 -112 -579 -837q470 639 696 800 q23 16 42 27q38 21 75 21q72 0 112 -75q13 -25 20 -55q6 -26 6 -71q0 -182 -150 -604q83 -8 122 -47q10 -11 11 -18q-2 -7 -13 -8q-5 0 -8 1q-54 9 -133 14q-5 -14 -24 -63q-141 -372 -141 -448v-9q-3 -11 -20 -13q-31 0 -44 37q-5 16 -5 36q0 26 11 68q23 86 136 395h-7 q-264 0 -639 -70q-36 -49 -72.5 -99.5t-68 -95t-62 -88.5t-56 -80.5t-48 -69.5t-39.5 -58t-29.5 -43.5t-19.5 -28.5l-6 -10q-4 -5 -11 -5q-23 0 -47 27q-11 13 -12 23q0 5 1 7q1 1 10 20q126 240 245 456q-56 -13 -112 -26.5t-96 -24t-71.5 -19t-47.5 -12.5l-16 -5 q0 -1 -3 -1l-3 1q-24 0 -48 29q-9 13 -10 22zM535 586q310 51 535 51q26 0 73 -2q143 393 163 601q3 28 3 50q-1 72 -26 95q-5 4 -12 4q-82 0 -482 -482q-177 -213 -254 -317zM1155 1786q-1 10 11 10q7 0 14 -4q25 -14 28 -33q4 -31 16 -49q1 -2 9 -5q21 -12 29 -24 q11 -18 -4 -19h-6q-55 9 -84 73q-10 26 -13 51z" />
<glyph unicode="&#xc1;" horiz-adv-x="1404" d="M-147 424q2 8 7 10l7 2q212 60 439 107q362 646 551 859q-51 -22 -112 -50t-96 -44l-35 -16q-4 -2 -8 -2q-23 0 -48 29q-10 14 -11 23q1 6 7 9l221 100q198 86 233 86q26 0 51 -25q12 -14 13 -26q-1 -9 -7 -17q-14 -15 -58 -45q-167 -112 -579 -837q470 639 696 800 q23 16 42 27q38 21 75 21q72 0 112 -75q13 -25 20 -55q6 -26 6 -71q0 -182 -150 -604q83 -8 122 -47q10 -11 11 -18q-2 -7 -13 -8q-5 0 -8 1q-54 9 -133 14q-5 -14 -24 -63q-141 -372 -141 -448v-9q-3 -11 -20 -13q-31 0 -44 37q-5 16 -5 36q0 26 11 68q23 86 136 395h-7 q-264 0 -639 -70q-36 -49 -72.5 -99.5t-68 -95t-62 -88.5t-56 -80.5t-48 -69.5t-39.5 -58t-29.5 -43.5t-19.5 -28.5l-6 -10q-4 -5 -11 -5q-23 0 -47 27q-11 13 -12 23q0 5 1 7q1 1 10 20q126 240 245 456q-56 -13 -112 -26.5t-96 -24t-71.5 -19t-47.5 -12.5l-16 -5 q0 -1 -3 -1l-3 1q-24 0 -48 29q-9 13 -10 22zM535 586q310 51 535 51q26 0 73 -2q143 393 163 601q3 28 3 50q-1 72 -26 95q-5 4 -12 4q-82 0 -482 -482q-177 -213 -254 -317zM1218 1682q1 6 4 11q8 13 32 25q4 3 5 4q12 18 16 49q3 18 29 33q20 11 25 -2v-4 q-6 -63 -50 -101q-22 -19 -48 -23q-14 -2 -13 8z" />
<glyph unicode="&#xc2;" horiz-adv-x="1404" d="M-147 424q2 8 7 10l7 2q212 60 439 107q362 646 551 859q-51 -22 -112 -50t-96 -44l-35 -16q-4 -2 -8 -2q-23 0 -48 29q-10 14 -11 23q1 6 7 9l221 100q198 86 233 86q26 0 51 -25q12 -14 13 -26q-1 -9 -7 -17q-14 -15 -58 -45q-167 -112 -579 -837q470 639 696 800 q23 16 42 27q38 21 75 21q72 0 112 -75q13 -25 20 -55q6 -26 6 -71q0 -182 -150 -604q83 -8 122 -47q10 -11 11 -18q-2 -7 -13 -8q-5 0 -8 1q-54 9 -133 14q-5 -14 -24 -63q-141 -372 -141 -448v-9q-3 -11 -20 -13q-31 0 -44 37q-5 16 -5 36q0 26 11 68q23 86 136 395h-7 q-264 0 -639 -70q-36 -49 -72.5 -99.5t-68 -95t-62 -88.5t-56 -80.5t-48 -69.5t-39.5 -58t-29.5 -43.5t-19.5 -28.5l-6 -10q-4 -5 -11 -5q-23 0 -47 27q-11 13 -12 23q0 5 1 7q1 1 10 20q126 240 245 456q-56 -13 -112 -26.5t-96 -24t-71.5 -19t-47.5 -12.5l-16 -5 q0 -1 -3 -1l-3 1q-24 0 -48 29q-9 13 -10 22zM535 586q310 51 535 51q26 0 73 -2q143 393 163 601q3 28 3 50q-1 72 -26 95q-5 4 -12 4q-82 0 -482 -482q-177 -213 -254 -317zM1231 1697q1 3 2 5l60 55q58 48 86 56q9 2 10 2q29 0 47 -29q4 -7 6 -14q2 -10 2 -16 q0 -16 -5.5 -39t-11.5 -37l-6 -15q-2 -4 -7 -4q-16 0 -31 19q-7 10 -5 16l17 53q3 11 4 20q-21 -12 -52.5 -37.5t-51.5 -45.5l-21 -19q-3 -2 -6 -2q-17 0 -32 20q-5 7 -5 12z" />
<glyph unicode="&#xc3;" horiz-adv-x="1404" d="M-147 424q2 8 7 10l7 2q212 60 439 107q362 646 551 859q-51 -22 -112 -50t-96 -44l-35 -16q-4 -2 -8 -2q-23 0 -48 29q-10 14 -11 23q1 6 7 9l221 100q198 86 233 86q26 0 51 -25q12 -14 13 -26q-1 -9 -7 -17q-14 -15 -58 -45q-167 -112 -579 -837q470 639 696 800 q23 16 42 27q38 21 75 21q72 0 112 -75q13 -25 20 -55q6 -26 6 -71q0 -182 -150 -604q83 -8 122 -47q10 -11 11 -18q-2 -7 -13 -8q-5 0 -8 1q-54 9 -133 14q-5 -14 -24 -63q-141 -372 -141 -448v-9q-3 -11 -20 -13q-31 0 -44 37q-5 16 -5 36q0 26 11 68q23 86 136 395h-7 q-264 0 -639 -70q-36 -49 -72.5 -99.5t-68 -95t-62 -88.5t-56 -80.5t-48 -69.5t-39.5 -58t-29.5 -43.5t-19.5 -28.5l-6 -10q-4 -5 -11 -5q-23 0 -47 27q-11 13 -12 23q0 5 1 7q1 1 10 20q126 240 245 456q-56 -13 -112 -26.5t-96 -24t-71.5 -19t-47.5 -12.5l-16 -5 q0 -1 -3 -1l-3 1q-24 0 -48 29q-9 13 -10 22zM535 586q310 51 535 51q26 0 73 -2q143 393 163 601q3 28 3 50q-1 72 -26 95q-5 4 -12 4q-82 0 -482 -482q-177 -213 -254 -317zM1089 1715q0 3 1 5q32 44 64 45q25 0 67 -34q2 -2 4 -3q12 -10 18 -10q17 2 42 35q3 2 7 2 q16 0 35 -20q7 -7 8 -12q-1 -3 -2 -5q-29 -40 -60 -40q-25 0 -67 34l-3 3q-13 9 -20 10q-18 -2 -45 -39q-3 -2 -7 -2q-16 0 -35 19q-6 7 -7 12z" />
<glyph unicode="&#xc4;" horiz-adv-x="1404" d="M-147 424q2 8 7 10l7 2q212 60 439 107q362 646 551 859q-51 -22 -112 -50t-96 -44l-35 -16q-4 -2 -8 -2q-23 0 -48 29q-10 14 -11 23q1 6 7 9l221 100q198 86 233 86q26 0 51 -25q12 -14 13 -26q-1 -9 -7 -17q-14 -15 -58 -45q-167 -112 -579 -837q470 639 696 800 q23 16 42 27q38 21 75 21q72 0 112 -75q13 -25 20 -55q6 -26 6 -71q0 -182 -150 -604q83 -8 122 -47q10 -11 11 -18q-2 -7 -13 -8q-5 0 -8 1q-54 9 -133 14q-5 -14 -24 -63q-141 -372 -141 -448v-9q-3 -11 -20 -13q-31 0 -44 37q-5 16 -5 36q0 26 11 68q23 86 136 395h-7 q-264 0 -639 -70q-36 -49 -72.5 -99.5t-68 -95t-62 -88.5t-56 -80.5t-48 -69.5t-39.5 -58t-29.5 -43.5t-19.5 -28.5l-6 -10q-4 -5 -11 -5q-23 0 -47 27q-11 13 -12 23q0 5 1 7q1 1 10 20q126 240 245 456q-56 -13 -112 -26.5t-96 -24t-71.5 -19t-47.5 -12.5l-16 -5 q0 -1 -3 -1l-3 1q-24 0 -48 29q-9 13 -10 22zM535 586q310 51 535 51q26 0 73 -2q143 393 163 601q3 28 3 50q-1 72 -26 95q-5 4 -12 4q-82 0 -482 -482q-177 -213 -254 -317zM1151 1718q0 30 30 42q9 4 19 4q30 0 38 -26q1 -6 1 -11q0 -30 -30 -42q-9 -4 -19 -4 q-30 0 -38 26q-1 6 -1 11zM1274 1718q0 30 30 42q9 4 19 4q30 0 38 -26q1 -6 1 -11q0 -30 -30 -42q-9 -4 -19 -4q-30 0 -38 26q-1 6 -1 11z" />
<glyph unicode="&#xc5;" horiz-adv-x="1404" d="M-147 424q2 8 7 10l7 2q212 60 439 107q362 646 551 859q-51 -22 -112 -50t-96 -44l-35 -16q-4 -2 -8 -2q-23 0 -48 29q-10 14 -11 23q1 6 7 9l221 100q198 86 233 86q26 0 51 -25q12 -14 13 -26q-1 -9 -7 -17q-14 -15 -58 -45q-167 -112 -579 -837q470 639 696 800 q23 16 42 27q38 21 75 21q72 0 112 -75q13 -25 20 -55q6 -26 6 -71q0 -182 -150 -604q83 -8 122 -47q10 -11 11 -18q-2 -7 -13 -8q-5 0 -8 1q-54 9 -133 14q-5 -14 -24 -63q-141 -372 -141 -448v-9q-3 -11 -20 -13q-31 0 -44 37q-5 16 -5 36q0 26 11 68q23 86 136 395h-7 q-264 0 -639 -70q-36 -49 -72.5 -99.5t-68 -95t-62 -88.5t-56 -80.5t-48 -69.5t-39.5 -58t-29.5 -43.5t-19.5 -28.5l-6 -10q-4 -5 -11 -5q-23 0 -47 27q-11 13 -12 23q0 5 1 7q1 1 10 20q126 240 245 456q-56 -13 -112 -26.5t-96 -24t-71.5 -19t-47.5 -12.5l-16 -5 q0 -1 -3 -1l-3 1q-24 0 -48 29q-9 13 -10 22zM535 586q310 51 535 51q26 0 73 -2q143 393 163 601q3 28 3 50q-1 72 -26 95q-5 4 -12 4q-82 0 -482 -482q-177 -213 -254 -317zM1196 1633q0 40 45 66q24 13 49 13q6 0 15 -2q35 -8 51 -38q6 -11 6 -26q0 -42 -34 -73 q-22 -20 -47 -20q-32 1 -63 33q-22 24 -22 47zM1242 1619q-3 -18 3 -24q6 -5 11 -5q23 0 47 40q14 25 14 42q-35 -2 -62 -30q-10 -12 -13 -23z" />
<glyph unicode="&#xc6;" horiz-adv-x="2158" d="M-193 281q1 7 8 10l9 3q216 65 443 121q393 710 595 936q-50 -23 -112 -51t-98 -44l-35 -17q-3 -1 -8 -1q-24 0 -47 29q-10 13 -11 22q1 7 6 10l14 6q347 160 434 177q7 2 10 2q26 0 49 -26q11 -13 11 -25q-1 -11 -8 -19q-10 -10 -57 -42q-166 -112 -579 -838 q562 761 766 841q31 12 57 12q103 0 122 -180q3 -34 3 -70q0 -49 -6 -99q95 142 259 238q164 95 318 97h2q79 0 116 -48q19 -25 19 -56q-1 -30 -16 -61q-40 -78 -130 -152q-8 -7 -16 -13q-5 -3 -10 -3q-23 0 -47 28q-11 13 -12 23q1 6 5 9q32 26 90 92q66 76 67 104 q0 15 -21 15q-175 0 -355 -126q-151 -107 -230 -248q-21 -39 -21 -64q2 -67 131 -67q69 0 214 26h2l2 1q24 0 48 -29q10 -14 11 -23q0 -6 -6 -9l-336 -226q32 -16 38 -41q1 -3 1 -5q-2 -9 -13 -10h-5q-52 8 -82 10q-148 -118 -239 -222q-18 -49 -110 -282q30 -19 76 -19 q203 0 687 331q231 158 379 284q3 2 5 4q5 3 10 3q23 0 47 -28q11 -13 12 -23q-1 -5 -4 -8q-435 -376 -793 -534q-94 -42 -173 -63q-84 -22 -147 -22q-138 0 -172 92q-9 26 -9 55q0 111 107 243q8 10 16 19q42 116 60 168q-297 -21 -724 -120q-32 -44 -64 -88.5t-59.5 -84 t-54 -77.5t-48 -69.5t-41 -60t-34 -50t-25 -37t-16.5 -23.5l-5 -9q-4 -5 -11 -5q-22 0 -46 26q-12 15 -13 25q0 3 2 7q72 144 210 396q-57 -15 -113.5 -30.5t-97 -27t-72.5 -20.5t-48 -14l-16 -5q-3 -1 -6 -1q-24 0 -48 28q-10 14 -11 23zM488 466q402 86 682 98 q143 431 143 637q0 63 -13 102q-8 20 -28 21q-104 0 -522 -519q-165 -204 -262 -339zM1223 465q15 14 44 39h-15q-10 -1 -16 -1q-2 -8 -8 -23q-4 -11 -5 -15zM1256 566q44 0 84 -3q120 94 266 190h-15q-196 1 -256 90q-29 -118 -79 -277z" />
<glyph unicode="&#xc7;" horiz-adv-x="1124" d="M0 235q0 212 171 518q152 274 362 485q217 219 383 252q7 1 12 2q29 4 61 4q82 -1 138 -39q78 -57 78 -149q0 -62 -36 -145q-76 -172 -262 -338q-120 -107 -262 -188q-7 -2 -8 -2q-23 0 -48 29q-10 14 -11 23q0 6 6 9q251 142 411 346q68 88 104 170q31 78 34 146 q-1 44 -22 61q-23 16 -69 16q-33 0 -61 -5q-173 -27 -396 -261q-204 -214 -355 -494q-157 -301 -161 -491q1 -159 124 -190q27 -7 59 -7q69 0 156.5 33t166.5 80.5t169 116t153 123t130 118.5t88.5 86t39.5 41l1 1q4 3 9 4q19 0 40 -30q11 -17 11 -28q-1 -5 -4 -10l-1 -1 q-158 -167 -347 -317q-352 -277 -573 -278q-37 0 -67 7q-116 28 -178 128q-33 52 -42 112q-4 26 -4 62zM147 -216q0 18 23 5q21 -12 23 -27q33 -8 46 18q1 3 2 5q2 9 2 11q0 30 -45 50q-7 2 -12 4q-3 1 -3 6q0 11 29 71q1 1 1 2q2 4 7 4q15 0 30 -19q8 -10 6 -17l-22 -48 q54 -36 55 -77q-1 -24 -20 -39q-16 -11 -35 -11q-42 0 -72 30q-14 16 -15 32z" />
<glyph unicode="&#xc8;" horiz-adv-x="1200" d="M0 73q0 29 11 65q65 204 469 496q80 57 165 113h-15q-195 0 -255 85q-14 21 -19 46q-2 10 -2 28q0 115 158 247q139 116 310 179q98 35 167 36h2q70 0 110 -42q18 -20 24 -43q2 -12 2 -18q0 -73 -108 -179q-29 -28 -55 -48q-5 -3 -10 -3q-23 0 -47 28q-11 13 -12 23 q1 6 4 9q68 52 117 119q41 56 40 91q-8 1 -23 1q-120 0 -294 -98q-166 -94 -254 -206q-59 -75 -59 -135q0 -9 2 -22q9 -37 131 -37q118 0 215 19l2.5 0.5l2.5 0.5q24 0 48 -30q9 -13 10 -22q-1 -7 -5 -9q-192 -113 -391 -270q-367 -293 -371 -457q0 -17 5 -35q11 -31 64 -31 q111 0 354 109q31 14 47 22q325 167 693 486q12 11 40 -9q5 -3 8 -6q26 -23 19 -38q-1 -2 -2 -3q-371 -322 -697 -489q-248 -127 -410 -127q-56 0 -94 17q-96 44 -97 137zM1013 1802q-1 10 11 10q7 0 14 -4q25 -14 28 -33q4 -31 16 -49q1 -2 9 -5q21 -12 29 -24 q11 -18 -4 -19h-6q-55 9 -84 73q-10 26 -13 51z" />
<glyph unicode="&#xc9;" horiz-adv-x="1200" d="M0 73q0 29 11 65q65 204 469 496q80 57 165 113h-15q-195 0 -255 85q-14 21 -19 46q-2 10 -2 28q0 115 158 247q139 116 310 179q98 35 167 36h2q70 0 110 -42q18 -20 24 -43q2 -12 2 -18q0 -73 -108 -179q-29 -28 -55 -48q-5 -3 -10 -3q-23 0 -47 28q-11 13 -12 23 q1 6 4 9q68 52 117 119q41 56 40 91q-8 1 -23 1q-120 0 -294 -98q-166 -94 -254 -206q-59 -75 -59 -135q0 -9 2 -22q9 -37 131 -37q118 0 215 19l2.5 0.5l2.5 0.5q24 0 48 -30q9 -13 10 -22q-1 -7 -5 -9q-192 -113 -391 -270q-367 -293 -371 -457q0 -17 5 -35q11 -31 64 -31 q111 0 354 109q31 14 47 22q325 167 693 486q12 11 40 -9q5 -3 8 -6q26 -23 19 -38q-1 -2 -2 -3q-371 -322 -697 -489q-248 -127 -410 -127q-56 0 -94 17q-96 44 -97 137zM1097 1686q1 6 4 11q8 13 32 25q4 3 5 4q12 18 16 49q3 18 29 33q20 11 25 -2v-4q-6 -63 -50 -101 q-22 -19 -48 -23q-14 -2 -13 8z" />
<glyph unicode="&#xca;" horiz-adv-x="1200" d="M0 73q0 29 11 65q65 204 469 496q80 57 165 113h-15q-195 0 -255 85q-14 21 -19 46q-2 10 -2 28q0 115 158 247q139 116 310 179q98 35 167 36h2q70 0 110 -42q18 -20 24 -43q2 -12 2 -18q0 -73 -108 -179q-29 -28 -55 -48q-5 -3 -10 -3q-23 0 -47 28q-11 13 -12 23 q1 6 4 9q68 52 117 119q41 56 40 91q-8 1 -23 1q-120 0 -294 -98q-166 -94 -254 -206q-59 -75 -59 -135q0 -9 2 -22q9 -37 131 -37q118 0 215 19l2.5 0.5l2.5 0.5q24 0 48 -30q9 -13 10 -22q-1 -7 -5 -9q-192 -113 -391 -270q-367 -293 -371 -457q0 -17 5 -35q11 -31 64 -31 q111 0 354 109q31 14 47 22q325 167 693 486q12 11 40 -9q5 -3 8 -6q26 -23 19 -38q-1 -2 -2 -3q-371 -322 -697 -489q-248 -127 -410 -127q-56 0 -94 17q-96 44 -97 137zM1024 1713q1 3 2 5l60 55q58 48 86 56q9 2 10 2q29 0 47 -29q4 -7 6 -14q2 -10 2 -16q0 -16 -5.5 -39 t-11.5 -37l-6 -15q-2 -4 -7 -4q-16 0 -31 19q-7 10 -5 16l17 53q3 11 4 20q-21 -12 -52.5 -37.5t-51.5 -45.5l-21 -19q-3 -2 -6 -2q-17 0 -32 20q-5 7 -5 12z" />
<glyph unicode="&#xcb;" horiz-adv-x="1200" d="M0 73q0 29 11 65q65 204 469 496q80 57 165 113h-15q-195 0 -255 85q-14 21 -19 46q-2 10 -2 28q0 115 158 247q139 116 310 179q98 35 167 36h2q70 0 110 -42q18 -20 24 -43q2 -12 2 -18q0 -73 -108 -179q-29 -28 -55 -48q-5 -3 -10 -3q-23 0 -47 28q-11 13 -12 23 q1 6 4 9q68 52 117 119q41 56 40 91q-8 1 -23 1q-120 0 -294 -98q-166 -94 -254 -206q-59 -75 -59 -135q0 -9 2 -22q9 -37 131 -37q118 0 215 19l2.5 0.5l2.5 0.5q24 0 48 -30q9 -13 10 -22q-1 -7 -5 -9q-192 -113 -391 -270q-367 -293 -371 -457q0 -17 5 -35q11 -31 64 -31 q111 0 354 109q31 14 47 22q325 167 693 486q12 11 40 -9q5 -3 8 -6q26 -23 19 -38q-1 -2 -2 -3q-371 -322 -697 -489q-248 -127 -410 -127q-56 0 -94 17q-96 44 -97 137zM1021 1714q0 30 30 42q9 4 19 4q30 0 38 -26q1 -6 1 -11q0 -30 -30 -42q-9 -4 -19 -4q-30 0 -38 26 q-1 6 -1 11zM1144 1714q0 30 30 42q9 4 19 4q30 0 38 -26q1 -6 1 -11q0 -30 -30 -42q-9 -4 -19 -4q-30 0 -38 26q-1 6 -1 11z" />
<glyph unicode="&#xcc;" horiz-adv-x="841" d="M0 -41q2 8 10 10l11 2q158 23 284 38q28 225 420 1163q38 91 73 173q-37 -5 -76 -10t-68.5 -9.5t-53.5 -8t-37 -5.5l-13 -2h-4q-25 0 -49 30q-9 13 -10 22q2 8 10 10l8 1q181 28 323 44q13 27 26 28q14 -1 36 -22q110 11 172 11q33 0 46 -2q50 -6 73 -41q7 -11 7 -18 q-2 -9 -9 -11h-2q-3 0 -11 2q-31 8 -61 8h-3q-83 -2 -209 -16q-361 -843 -477 -1223q-21 -68 -31 -114q119 13 190 13q25 0 51 -4q43 -7 66 -47q7 -11 7 -18q-1 -4 -3 -5l-4 2q-19 9 -77 9q-66 0 -240 -19q-2 -24 -16 -25q-16 1 -36 19q-38 -5 -79 -10.5t-72 -9.5t-56.5 -8 t-39.5 -6l-14 -2h-2l-2 -1q-25 0 -48 30q-10 13 -10 22zM848 1802q-1 10 11 10q7 0 14 -4q25 -14 28 -33q4 -31 16 -49q1 -2 9 -5q21 -12 29 -24q11 -18 -4 -19h-6q-55 9 -84 73q-10 26 -13 51z" />
<glyph unicode="&#xcd;" horiz-adv-x="841" d="M0 -41q2 8 10 10l11 2q158 23 284 38q28 225 420 1163q38 91 73 173q-37 -5 -76 -10t-68.5 -9.5t-53.5 -8t-37 -5.5l-13 -2h-4q-25 0 -49 30q-9 13 -10 22q2 8 10 10l8 1q181 28 323 44q13 27 26 28q14 -1 36 -22q110 11 172 11q33 0 46 -2q50 -6 73 -41q7 -11 7 -18 q-2 -9 -9 -11h-2q-3 0 -11 2q-31 8 -61 8h-3q-83 -2 -209 -16q-361 -843 -477 -1223q-21 -68 -31 -114q119 13 190 13q25 0 51 -4q43 -7 66 -47q7 -11 7 -18q-1 -4 -3 -5l-4 2q-19 9 -77 9q-66 0 -240 -19q-2 -24 -16 -25q-16 1 -36 19q-38 -5 -79 -10.5t-72 -9.5t-56.5 -8 t-39.5 -6l-14 -2h-2l-2 -1q-25 0 -48 30q-10 13 -10 22zM932 1686q1 6 4 11q8 13 32 25q4 3 5 4q12 18 16 49q3 18 29 33q20 11 25 -2v-4q-6 -63 -50 -101q-22 -19 -48 -23q-14 -2 -13 8z" />
<glyph unicode="&#xce;" horiz-adv-x="841" d="M0 -41q2 8 10 10l11 2q158 23 284 38q28 225 420 1163q38 91 73 173q-37 -5 -76 -10t-68.5 -9.5t-53.5 -8t-37 -5.5l-13 -2h-4q-25 0 -49 30q-9 13 -10 22q2 8 10 10l8 1q181 28 323 44q13 27 26 28q14 -1 36 -22q110 11 172 11q33 0 46 -2q50 -6 73 -41q7 -11 7 -18 q-2 -9 -9 -11h-2q-3 0 -11 2q-31 8 -61 8h-3q-83 -2 -209 -16q-361 -843 -477 -1223q-21 -68 -31 -114q119 13 190 13q25 0 51 -4q43 -7 66 -47q7 -11 7 -18q-1 -4 -3 -5l-4 2q-19 9 -77 9q-66 0 -240 -19q-2 -24 -16 -25q-16 1 -36 19q-38 -5 -79 -10.5t-72 -9.5t-56.5 -8 t-39.5 -6l-14 -2h-2l-2 -1q-25 0 -48 30q-10 13 -10 22zM858 1713q1 3 2 5l60 55q58 48 86 56q9 2 10 2q29 0 47 -29q4 -7 6 -14q2 -10 2 -16q0 -16 -5.5 -39t-11.5 -37l-6 -15q-2 -4 -7 -4q-16 0 -31 19q-7 10 -5 16l17 53q3 11 4 20q-21 -12 -52.5 -37.5t-51.5 -45.5 l-21 -19q-3 -2 -6 -2q-17 0 -32 20q-5 7 -5 12z" />
<glyph unicode="&#xcf;" horiz-adv-x="841" d="M0 -41q2 8 10 10l11 2q158 23 284 38q28 225 420 1163q38 91 73 173q-37 -5 -76 -10t-68.5 -9.5t-53.5 -8t-37 -5.5l-13 -2h-4q-25 0 -49 30q-9 13 -10 22q2 8 10 10l8 1q181 28 323 44q13 27 26 28q14 -1 36 -22q110 11 172 11q33 0 46 -2q50 -6 73 -41q7 -11 7 -18 q-2 -9 -9 -11h-2q-3 0 -11 2q-31 8 -61 8h-3q-83 -2 -209 -16q-361 -843 -477 -1223q-21 -68 -31 -114q119 13 190 13q25 0 51 -4q43 -7 66 -47q7 -11 7 -18q-1 -4 -3 -5l-4 2q-19 9 -77 9q-66 0 -240 -19q-2 -24 -16 -25q-16 1 -36 19q-38 -5 -79 -10.5t-72 -9.5t-56.5 -8 t-39.5 -6l-14 -2h-2l-2 -1q-25 0 -48 30q-10 13 -10 22zM856 1714q0 30 30 42q9 4 19 4q30 0 38 -26q1 -6 1 -11q0 -30 -30 -42q-9 -4 -19 -4q-30 0 -38 26q-1 6 -1 11zM979 1714q0 30 30 42q9 4 19 4q30 0 38 -26q1 -6 1 -11q0 -30 -30 -42q-9 -4 -19 -4q-30 0 -38 26 q-1 6 -1 11z" />
<glyph unicode="&#xd0;" horiz-adv-x="1396" d="M-143 912q0 20 2 30q23 126 227 264q145 98 340 174q302 118 565 126h32q81 0 150 -13q254 -47 329 -238q17 -45 17 -97q0 -66 -29 -154q-76 -226 -317 -504q-223 -257 -472 -427q-134 -91 -247 -135q-82 -32 -166 -32q-143 0 -224 85q-66 69 -66 173q0 50 14 100 q43 157 203 378h-26q-27 0 -49 30q-10 13 -10 22q2 10 13 11h119q183 238 410 445q12 11 22 20q24 40 38 48q9 5 20 5q30 0 52 -35q8 -13 8 -23q-1 -6 -4 -9q-18 -14 -49 -42q-89 -153 -191 -407h93q27 0 49 -30q10 -13 10 -22q-2 -9 -13 -10l-164 -1q-29 -74 -85 -223 q-86 -227 -128 -328q-5 -14 -31 -1q-7 3 -12 7q-29 21 -28 40q1 3 1 4q43 101 202 501l-138 -1q-194 -253 -241 -426q-15 -56 -15 -97q0 -120 104 -148q29 -8 62 -8q73 0 162 34q217 84 481 323q255 231 416 481q88 136 126 250q28 84 28 149q0 207 -269 236q-42 4 -88 4 q-225 0 -504 -86q-56 -18 -101 -35q-282 -110 -438 -250q-101 -92 -116 -173q-3 -14 -3 -26q0 -72 92 -119q18 -9 38 -17q28 -12 40 -36q2 -3 3 -6q4 -16 -12 -17q-8 1 -16 4q-148 62 -197 156q-19 37 -19 76zM373 706h114q67 166 99 239q-116 -120 -213 -239z" />
<glyph unicode="&#xd1;" horiz-adv-x="1683" d="M0 739q0 23 14.5 50t27.5 42.5t36 41.5q102 108 242 185q120 66 201 66q12 0 18 -1q59 -7 103 -52q62 -67 62 -171q0 -158 -152 -444q-27 -51 -78 -143q-30 -54 -44 -79q502 763 798 1069q54 56 98 93q90 76 161 76q67 -2 100 -77q24 -56 24 -143q0 -206 -151 -653 q-26 -77 -77 -223q-9 -24 -29 -80q-105 -290 -119 -393q-4 -25 -4 -44q0 -5 9 -51q1 -7 1 -11q-1 -9 -7 -11h-6q-39 0 -60 59q-9 28 -9 53q0 102 114 419q5 14 15 40q17 47 24 68q143 404 187 586q42 170 42 278q0 76 -21 127h-3q-75 0 -307 -261q-36 -41 -66 -77 q-293 -353 -676 -940q-99 -152 -101 -159q-2 0 -17 -1q-80 5 -83 74q0 19 4 36q14 63 120 251q5 10 14 26q239 435 240 603q-2 85 -66 93q-7 1 -17 1q-126 0 -321 -162q-112 -92 -165 -165q-15 -21 -16 -29q1 -2 1 -3q1 -1 59 9h1h1h5q25 0 48 -29q9 -13 10 -22 q-2 -9 -10 -11q-23 -4 -48 -4q-60 1 -96 31q-31 27 -31 62zM1461 1715q0 3 1 5q32 44 64 45q25 0 67 -34q2 -2 4 -3q12 -10 18 -10q17 2 42 35q3 2 7 2q16 0 35 -20q7 -7 8 -12q-1 -3 -2 -5q-29 -40 -60 -40q-25 0 -67 34l-3 3q-13 9 -20 10q-18 -2 -45 -39q-3 -2 -7 -2 q-16 0 -35 19q-6 7 -7 12z" />
<glyph unicode="&#xd2;" horiz-adv-x="1425" d="M0 672q0 235 216 441q169 161 404 250q77 29 149 44q54 49 106 81q108 67 205 67q103 -1 198 -76q23 -20 24 -34q-2 -12 -14 -13q-15 1 -35 16q-57 45 -128 45q-86 -1 -186 -62q17 1 46 1q264 0 328 -240q22 -83 22 -195q0 -203 -96 -455q-112 -293 -287 -464 q-170 -164 -358 -165h-1q-167 1 -261 118q-52 65 -70 155q-11 57 -11 117q0 16 2 47q-155 50 -218 174q-35 68 -35 148zM72 631q2 -186 185 -234q29 269 189 574q99 189 219 329q-191 -70 -351 -214q-205 -184 -237 -387q-5 -35 -5 -68zM322 252q0 -265 208 -277h17h1 q229 0 423 253q155 202 238 490q54 186 54 329q0 225 -95 291q-52 35 -139 35q-76 0 -199 -26q-188 -171 -334 -465q-131 -265 -164 -497q29 -3 62 -3q131 0 294 41q1 0 2 1h3q24 0 48 -29q10 -14 11 -23q-2 -8 -9 -10q-163 -40 -292 -40q-66 0 -125 11q-4 -54 -4 -81z M1031 1802q-1 10 11 10q7 0 14 -4q25 -14 28 -33q4 -31 16 -49q1 -2 9 -5q21 -12 29 -24q11 -18 -4 -19h-6q-55 9 -84 73q-10 26 -13 51z" />
<glyph unicode="&#xd3;" horiz-adv-x="1425" d="M0 672q0 235 216 441q169 161 404 250q77 29 149 44q54 49 106 81q108 67 205 67q103 -1 198 -76q23 -20 24 -34q-2 -12 -14 -13q-15 1 -35 16q-57 45 -128 45q-86 -1 -186 -62q17 1 46 1q264 0 328 -240q22 -83 22 -195q0 -203 -96 -455q-112 -293 -287 -464 q-170 -164 -358 -165h-1q-167 1 -261 118q-52 65 -70 155q-11 57 -11 117q0 16 2 47q-155 50 -218 174q-35 68 -35 148zM72 631q2 -186 185 -234q29 269 189 574q99 189 219 329q-191 -70 -351 -214q-205 -184 -237 -387q-5 -35 -5 -68zM322 252q0 -265 208 -277h17h1 q229 0 423 253q155 202 238 490q54 186 54 329q0 225 -95 291q-52 35 -139 35q-76 0 -199 -26q-188 -171 -334 -465q-131 -265 -164 -497q29 -3 62 -3q131 0 294 41q1 0 2 1h3q24 0 48 -29q10 -14 11 -23q-2 -8 -9 -10q-163 -40 -292 -40q-66 0 -125 11q-4 -54 -4 -81z M1115 1686q1 6 4 11q8 13 32 25q4 3 5 4q12 18 16 49q3 18 29 33q20 11 25 -2v-4q-6 -63 -50 -101q-22 -19 -48 -23q-14 -2 -13 8z" />
<glyph unicode="&#xd4;" horiz-adv-x="1425" d="M0 672q0 235 216 441q169 161 404 250q77 29 149 44q54 49 106 81q108 67 205 67q103 -1 198 -76q23 -20 24 -34q-2 -12 -14 -13q-15 1 -35 16q-57 45 -128 45q-86 -1 -186 -62q17 1 46 1q264 0 328 -240q22 -83 22 -195q0 -203 -96 -455q-112 -293 -287 -464 q-170 -164 -358 -165h-1q-167 1 -261 118q-52 65 -70 155q-11 57 -11 117q0 16 2 47q-155 50 -218 174q-35 68 -35 148zM72 631q2 -186 185 -234q29 269 189 574q99 189 219 329q-191 -70 -351 -214q-205 -184 -237 -387q-5 -35 -5 -68zM322 252q0 -265 208 -277h17h1 q229 0 423 253q155 202 238 490q54 186 54 329q0 225 -95 291q-52 35 -139 35q-76 0 -199 -26q-188 -171 -334 -465q-131 -265 -164 -497q29 -3 62 -3q131 0 294 41q1 0 2 1h3q24 0 48 -29q10 -14 11 -23q-2 -8 -9 -10q-163 -40 -292 -40q-66 0 -125 11q-4 -54 -4 -81z M1041 1713q1 3 2 5l60 55q58 48 86 56q9 2 10 2q29 0 47 -29q4 -7 6 -14q2 -10 2 -16q0 -16 -5.5 -39t-11.5 -37l-6 -15q-2 -4 -7 -4q-16 0 -31 19q-7 10 -5 16l17 53q3 11 4 20q-21 -12 -52.5 -37.5t-51.5 -45.5l-21 -19q-3 -2 -6 -2q-17 0 -32 20q-5 7 -5 12z" />
<glyph unicode="&#xd5;" horiz-adv-x="1425" d="M0 672q0 235 216 441q169 161 404 250q77 29 149 44q54 49 106 81q108 67 205 67q103 -1 198 -76q23 -20 24 -34q-2 -12 -14 -13q-15 1 -35 16q-57 45 -128 45q-86 -1 -186 -62q17 1 46 1q264 0 328 -240q22 -83 22 -195q0 -203 -96 -455q-112 -293 -287 -464 q-170 -164 -358 -165h-1q-167 1 -261 118q-52 65 -70 155q-11 57 -11 117q0 16 2 47q-155 50 -218 174q-35 68 -35 148zM72 631q2 -186 185 -234q29 269 189 574q99 189 219 329q-191 -70 -351 -214q-205 -184 -237 -387q-5 -35 -5 -68zM322 252q0 -265 208 -277h17h1 q229 0 423 253q155 202 238 490q54 186 54 329q0 225 -95 291q-52 35 -139 35q-76 0 -199 -26q-188 -171 -334 -465q-131 -265 -164 -497q29 -3 62 -3q131 0 294 41q1 0 2 1h3q24 0 48 -29q10 -14 11 -23q-2 -8 -9 -10q-163 -40 -292 -40q-66 0 -125 11q-4 -54 -4 -81z M1022 1715q0 3 1 5q32 44 64 45q25 0 67 -34q2 -2 4 -3q12 -10 18 -10q17 2 42 35q3 2 7 2q16 0 35 -20q7 -7 8 -12q-1 -3 -2 -5q-29 -40 -60 -40q-25 0 -67 34l-3 3q-13 9 -20 10q-18 -2 -45 -39q-3 -2 -7 -2q-16 0 -35 19q-6 7 -7 12z" />
<glyph unicode="&#xd6;" horiz-adv-x="1425" d="M0 672q0 235 216 441q169 161 404 250q77 29 149 44q54 49 106 81q108 67 205 67q103 -1 198 -76q23 -20 24 -34q-2 -12 -14 -13q-15 1 -35 16q-57 45 -128 45q-86 -1 -186 -62q17 1 46 1q264 0 328 -240q22 -83 22 -195q0 -203 -96 -455q-112 -293 -287 -464 q-170 -164 -358 -165h-1q-167 1 -261 118q-52 65 -70 155q-11 57 -11 117q0 16 2 47q-155 50 -218 174q-35 68 -35 148zM72 631q2 -186 185 -234q29 269 189 574q99 189 219 329q-191 -70 -351 -214q-205 -184 -237 -387q-5 -35 -5 -68zM322 252q0 -265 208 -277h17h1 q229 0 423 253q155 202 238 490q54 186 54 329q0 225 -95 291q-52 35 -139 35q-76 0 -199 -26q-188 -171 -334 -465q-131 -265 -164 -497q29 -3 62 -3q131 0 294 41q1 0 2 1h3q24 0 48 -29q10 -14 11 -23q-2 -8 -9 -10q-163 -40 -292 -40q-66 0 -125 11q-4 -54 -4 -81z M1039 1714q0 30 30 42q9 4 19 4q30 0 38 -26q1 -6 1 -11q0 -30 -30 -42q-9 -4 -19 -4q-30 0 -38 26q-1 6 -1 11zM1162 1714q0 30 30 42q9 4 19 4q30 0 38 -26q1 -6 1 -11q0 -30 -30 -42q-9 -4 -19 -4q-30 0 -38 26q-1 6 -1 11z" />
<glyph unicode="&#xd9;" horiz-adv-x="1605" d="M0 1116q1 67 80 132q83 69 245 129q157 57 273 57q117 -1 162 -62q18 -26 18 -69q0 -92 -89 -342q-11 -29 -28 -77q-79 -218 -101 -288q-73 -237 -73 -372q1 -144 83 -166q17 -4 36 -4q219 0 639 650q93 144 247 403q120 202 154 240q19 20 30 21h2q57 -11 58 -61 q0 -6 -2 -17q-12 -75 -137 -351q-159 -347 -208 -474q-99 -254 -99 -382q1 -85 41 -120q28 -25 19 -39l-2 -2q-14 -11 -43 12q-3 2 -5 4q-74 67 -74 202q0 229 222 691q17 35 47 97q32 64 43 88q-262 -440 -431 -658q-283 -364 -464 -365q-23 0 -44 6q-179 50 -180 282 q0 186 128 533q7 20 21 56q16 44 23 63q100 281 116 361q5 28 5 47q0 22 -7 32q-14 18 -54 18q-104 0 -316 -94q-139 -63 -190 -105q-73 -62 -74 -108q0 -51 87 -86q1 -1 2 -1q30 -12 41 -38q2 -6 2 -10q-2 -10 -11 -11q-8 1 -16 4q-142 56 -170 139q-6 18 -6 35zM1382 1818 q-1 10 11 10q7 0 14 -4q25 -14 28 -33q4 -31 16 -49q1 -2 9 -5q21 -12 29 -24q11 -18 -4 -19h-6q-55 9 -84 73q-10 26 -13 51z" />
<glyph unicode="&#xda;" horiz-adv-x="1605" d="M0 1116q1 67 80 132q83 69 245 129q157 57 273 57q117 -1 162 -62q18 -26 18 -69q0 -92 -89 -342q-11 -29 -28 -77q-79 -218 -101 -288q-73 -237 -73 -372q1 -144 83 -166q17 -4 36 -4q219 0 639 650q93 144 247 403q120 202 154 240q19 20 30 21h2q57 -11 58 -61 q0 -6 -2 -17q-12 -75 -137 -351q-159 -347 -208 -474q-99 -254 -99 -382q1 -85 41 -120q28 -25 19 -39l-2 -2q-14 -11 -43 12q-3 2 -5 4q-74 67 -74 202q0 229 222 691q17 35 47 97q32 64 43 88q-262 -440 -431 -658q-283 -364 -464 -365q-23 0 -44 6q-179 50 -180 282 q0 186 128 533q7 20 21 56q16 44 23 63q100 281 116 361q5 28 5 47q0 22 -7 32q-14 18 -54 18q-104 0 -316 -94q-139 -63 -190 -105q-73 -62 -74 -108q0 -51 87 -86q1 -1 2 -1q30 -12 41 -38q2 -6 2 -10q-2 -10 -11 -11q-8 1 -16 4q-142 56 -170 139q-6 18 -6 35zM1410 1698 q1 6 4 11q8 13 32 25q4 3 5 4q12 18 16 49q3 18 29 33q20 11 25 -2v-4q-6 -63 -50 -101q-22 -19 -48 -23q-14 -2 -13 8z" />
<glyph unicode="&#xdb;" horiz-adv-x="1605" d="M0 1116q1 67 80 132q83 69 245 129q157 57 273 57q117 -1 162 -62q18 -26 18 -69q0 -92 -89 -342q-11 -29 -28 -77q-79 -218 -101 -288q-73 -237 -73 -372q1 -144 83 -166q17 -4 36 -4q219 0 639 650q93 144 247 403q120 202 154 240q19 20 30 21h2q57 -11 58 -61 q0 -6 -2 -17q-12 -75 -137 -351q-159 -347 -208 -474q-99 -254 -99 -382q1 -85 41 -120q28 -25 19 -39l-2 -2q-14 -11 -43 12q-3 2 -5 4q-74 67 -74 202q0 229 222 691q17 35 47 97q32 64 43 88q-262 -440 -431 -658q-283 -364 -464 -365q-23 0 -44 6q-179 50 -180 282 q0 186 128 533q7 20 21 56q16 44 23 63q100 281 116 361q5 28 5 47q0 22 -7 32q-14 18 -54 18q-104 0 -316 -94q-139 -63 -190 -105q-73 -62 -74 -108q0 -51 87 -86q1 -1 2 -1q30 -12 41 -38q2 -6 2 -10q-2 -10 -11 -11q-8 1 -16 4q-142 56 -170 139q-6 18 -6 35zM1344 1701 q1 3 2 5l60 55q58 48 86 56q9 2 10 2q29 0 47 -29q4 -7 6 -14q2 -10 2 -16q0 -16 -5.5 -39t-11.5 -37l-6 -15q-2 -4 -7 -4q-16 0 -31 19q-7 10 -5 16l17 53q3 11 4 20q-21 -12 -52.5 -37.5t-51.5 -45.5l-21 -19q-3 -2 -6 -2q-17 0 -32 20q-5 7 -5 12z" />
<glyph unicode="&#xdc;" horiz-adv-x="1605" d="M0 1116q1 67 80 132q83 69 245 129q157 57 273 57q117 -1 162 -62q18 -26 18 -69q0 -92 -89 -342q-11 -29 -28 -77q-79 -218 -101 -288q-73 -237 -73 -372q1 -144 83 -166q17 -4 36 -4q219 0 639 650q93 144 247 403q120 202 154 240q19 20 30 21h2q57 -11 58 -61 q0 -6 -2 -17q-12 -75 -137 -351q-159 -347 -208 -474q-99 -254 -99 -382q1 -85 41 -120q28 -25 19 -39l-2 -2q-14 -11 -43 12q-3 2 -5 4q-74 67 -74 202q0 229 222 691q17 35 47 97q32 64 43 88q-262 -440 -431 -658q-283 -364 -464 -365q-23 0 -44 6q-179 50 -180 282 q0 186 128 533q7 20 21 56q16 44 23 63q100 281 116 361q5 28 5 47q0 22 -7 32q-14 18 -54 18q-104 0 -316 -94q-139 -63 -190 -105q-73 -62 -74 -108q0 -51 87 -86q1 -1 2 -1q30 -12 41 -38q2 -6 2 -10q-2 -10 -11 -11q-8 1 -16 4q-142 56 -170 139q-6 18 -6 35zM1301 1722 q0 30 30 42q9 4 19 4q30 0 38 -26q1 -6 1 -11q0 -30 -30 -42q-9 -4 -19 -4q-30 0 -38 26q-1 6 -1 11zM1424 1722q0 30 30 42q9 4 19 4q30 0 38 -26q1 -6 1 -11q0 -30 -30 -42q-9 -4 -19 -4q-30 0 -38 26q-1 6 -1 11z" />
<glyph unicode="&#xdd;" horiz-adv-x="1171" d="M-565 1117q0 86 142 176q142 89 321 124q71 14 130 14q124 -1 167 -59q22 -32 22 -80q0 -71 -58 -243q-61 -178 -73 -246q-6 -38 -6 -68q2 -128 119 -160q26 -7 53 -7q191 0 454 356q57 77 204 302q91 138 117 150q4 2 7 2h1q58 -11 59 -66q0 -7 -2 -22 q-27 -169 -118 -482q-28 -97 -58 -188q111 46 200 67q1 0 2 1h3q25 0 49 -30q9 -13 10 -22q-2 -8 -9 -10q-128 -29 -289 -108q-270 -779 -532 -810q-10 -1 -20 -1t-27 2q-83 13 -149 73q-24 21 -38 44q-25 40 -25 85q0 172 334 421q186 138 378 235q6 3 11 6 q106 309 177 619q-137 -215 -207 -309q-281 -375 -496 -376q-29 0 -60 8q-217 59 -218 262q0 107 71 306q56 157 64 198q6 27 6 47q-1 30 -11 45q-12 15 -51 15q-99 0 -271 -67q-200 -79 -277 -167q-35 -40 -35 -75q0 -8 1 -11q8 -39 88 -71q30 -13 41 -36q1 -3 2 -5 q5 -17 -12 -17q-7 0 -15 3q-160 65 -175 160q-1 6 -1 15zM164 -129q0 -80 90 -99l12 -2q8 -1 21 -1q167 0 359 390q64 130 128 302q-242 -134 -413 -290q-123 -112 -172 -208q-25 -50 -25 -92zM904 1680q1 6 4 11q8 13 32 25q4 3 5 4q12 18 16 49q3 18 29 33q20 11 25 -2v-4 q-6 -63 -50 -101q-22 -19 -48 -23q-14 -2 -13 8z" />
<glyph unicode="&#xde;" horiz-adv-x="958" d="M1 -57l542 1467q4 7 11 8q22 0 47 -25q16 -19 12 -31l-84 -228q216 -11 300 -156q43 -75 43 -172q0 -161 -105 -315q-114 -166 -296 -236q-103 -39 -216 -39q-10 0 -30 1q-22 2 -32 2q-2 0 -120 -319q-1 -4 -2 -6q-4 -7 -11 -7q-22 0 -47 25q-16 19 -12 31zM213 278 q212 2 383 153q133 118 186 274q24 71 24 134q0 142 -110 201q-62 33 -153 33q-24 0 -37 -1z" />
<glyph unicode="&#xdf;" horiz-adv-x="997" d="M-49 -51l70 248q216 726 407 1024q77 119 144 157q31 18 72 18q80 0 143 -62q59 -58 60 -131q0 -13 -1 -19q-14 -117 -139 -253q-55 -60 -112 -100q150 -42 246 -149q88 -99 88 -214q0 -65 -31 -132q-43 -91 -169 -187q-147 -110 -279 -132q-26 -4 -49 -4q-47 0 -81 17 q-94 49 -96 158q0 83 47 149q32 41 61 42h3q28 -2 49 -33q8 -11 8 -19q-2 -10 -13 -11h-1l-2 1h-1q-31 0 -58 -77q-21 -59 -21 -109q1 -40 17 -49q24 -11 51 -11q103 0 258 107q127 87 187 175q13 18 20 33q30 65 30 126q0 126 -123 207q-93 61 -217 72l-7 4q-52 29 -53 45 q2 7 9 11q101 49 196 162q35 42 60 83q54 90 54 149q0 71 -80 88h-2q-6 1 -15 1q-160 0 -401 -629q-141 -369 -251 -774l-7 -28q-3 -7 -11 -8q-22 0 -47 25q-16 17 -13 29z" />
<glyph unicode="&#xe0;" d="M0 496q0 83 97 159q57 44 115 61q14 4 30 4q42 -1 69 -33q19 -25 10 -47q-8 -17 -43 6q-6 4 -10 8q-78 -22 -141 -85q-55 -56 -56 -110q0 -12 3 -22q38 3 106 56t99.5 85t56.5 59l1 1q7 8 17 8q24 0 46 -33q8 -12 8 -20q-1 -3 -2 -4q-6 -44 -6 -76q0 -30 7 -54 q6 -12 22 -13q66 0 299 145q4 3 9 3q22 0 44 -28q10 -14 11 -24q-1 -7 -6 -10q-12 -8 -39 -25q-141 -90 -211 -111q-35 -11 -64 -11q-12 0 -31 4q-94 24 -110 121q-144 -134 -220 -135h-9q-51 6 -83 55q-10 16 -15 33q-4 15 -4 33zM195 971q-1 10 11 10q7 0 14 -4 q25 -14 28 -33q4 -31 16 -49q1 -2 9 -5q21 -12 29 -24q11 -18 -4 -19h-6q-55 9 -84 73q-10 26 -13 51z" />
<glyph unicode="&#xe1;" d="M0 496q0 83 97 159q57 44 115 61q14 4 30 4q42 -1 69 -33q19 -25 10 -47q-8 -17 -43 6q-6 4 -10 8q-78 -22 -141 -85q-55 -56 -56 -110q0 -12 3 -22q38 3 106 56t99.5 85t56.5 59l1 1q7 8 17 8q24 0 46 -33q8 -12 8 -20q-1 -3 -2 -4q-6 -44 -6 -76q0 -30 7 -54 q6 -12 22 -13q66 0 299 145q4 3 9 3q22 0 44 -28q10 -14 11 -24q-1 -7 -6 -10q-12 -8 -39 -25q-141 -90 -211 -111q-35 -11 -64 -11q-12 0 -31 4q-94 24 -110 121q-144 -134 -220 -135h-9q-51 6 -83 55q-10 16 -15 33q-4 15 -4 33zM279 855q1 6 4 11q8 13 32 25q4 3 5 4 q12 18 16 49q3 18 29 33q20 11 25 -2v-4q-6 -63 -50 -101q-22 -19 -48 -23q-14 -2 -13 8z" />
<glyph unicode="&#xe2;" d="M0 496q0 83 97 159q57 44 115 61q14 4 30 4q42 -1 69 -33q19 -25 10 -47q-8 -17 -43 6q-6 4 -10 8q-78 -22 -141 -85q-55 -56 -56 -110q0 -12 3 -22q38 3 106 56t99.5 85t56.5 59l1 1q7 8 17 8q24 0 46 -33q8 -12 8 -20q-1 -3 -2 -4q-6 -44 -6 -76q0 -30 7 -54 q6 -12 22 -13q66 0 299 145q4 3 9 3q22 0 44 -28q10 -14 11 -24q-1 -7 -6 -10q-12 -8 -39 -25q-141 -90 -211 -111q-35 -11 -64 -11q-12 0 -31 4q-94 24 -110 121q-144 -134 -220 -135h-9q-51 6 -83 55q-10 16 -15 33q-4 15 -4 33zM205 882q1 3 2 5l60 55q58 48 86 56 q9 2 10 2q29 0 47 -29q4 -7 6 -14q2 -10 2 -16q0 -16 -5.5 -39t-11.5 -37l-6 -15q-2 -4 -7 -4q-16 0 -31 19q-7 10 -5 16l17 53q3 11 4 20q-21 -12 -52.5 -37.5t-51.5 -45.5l-21 -19q-3 -2 -6 -2q-17 0 -32 20q-5 7 -5 12z" />
<glyph unicode="&#xe3;" d="M0 496q0 83 97 159q57 44 115 61q14 4 30 4q42 -1 69 -33q19 -25 10 -47q-8 -17 -43 6q-6 4 -10 8q-78 -22 -141 -85q-55 -56 -56 -110q0 -12 3 -22q38 3 106 56t99.5 85t56.5 59l1 1q7 8 17 8q24 0 46 -33q8 -12 8 -20q-1 -3 -2 -4q-6 -44 -6 -76q0 -30 7 -54 q6 -12 22 -13q66 0 299 145q4 3 9 3q22 0 44 -28q10 -14 11 -24q-1 -7 -6 -10q-12 -8 -39 -25q-141 -90 -211 -111q-35 -11 -64 -11q-12 0 -31 4q-94 24 -110 121q-144 -134 -220 -135h-9q-51 6 -83 55q-10 16 -15 33q-4 15 -4 33zM186 884q0 3 1 5q32 44 64 45q25 0 67 -34 q2 -2 4 -3q12 -10 18 -10q17 2 42 35q3 2 7 2q16 0 35 -20q7 -7 8 -12q-1 -3 -2 -5q-29 -40 -60 -40q-25 0 -67 34l-3 3q-13 9 -20 10q-18 -2 -45 -39q-3 -2 -7 -2q-16 0 -35 19q-6 7 -7 12z" />
<glyph unicode="&#xe4;" d="M0 496q0 83 97 159q57 44 115 61q14 4 30 4q42 -1 69 -33q19 -25 10 -47q-8 -17 -43 6q-6 4 -10 8q-78 -22 -141 -85q-55 -56 -56 -110q0 -12 3 -22q38 3 106 56t99.5 85t56.5 59l1 1q7 8 17 8q24 0 46 -33q8 -12 8 -20q-1 -3 -2 -4q-6 -44 -6 -76q0 -30 7 -54 q6 -12 22 -13q66 0 299 145q4 3 9 3q22 0 44 -28q10 -14 11 -24q-1 -7 -6 -10q-12 -8 -39 -25q-141 -90 -211 -111q-35 -11 -64 -11q-12 0 -31 4q-94 24 -110 121q-144 -134 -220 -135h-9q-51 6 -83 55q-10 16 -15 33q-4 15 -4 33zM203 883q0 30 30 42q9 4 19 4q30 0 38 -26 q1 -6 1 -11q0 -30 -30 -42q-9 -4 -19 -4q-30 0 -38 26q-1 6 -1 11zM326 883q0 30 30 42q9 4 19 4q30 0 38 -26q1 -6 1 -11q0 -30 -30 -42q-9 -4 -19 -4q-30 0 -38 26q-1 6 -1 11z" />
<glyph unicode="&#xe5;" d="M0 496q0 83 97 159q57 44 115 61q14 4 30 4q42 -1 69 -33q19 -25 10 -47q-8 -17 -43 6q-6 4 -10 8q-78 -22 -141 -85q-55 -56 -56 -110q0 -12 3 -22q38 3 106 56t99.5 85t56.5 59l1 1q7 8 17 8q24 0 46 -33q8 -12 8 -20q-1 -3 -2 -4q-6 -44 -6 -76q0 -30 7 -54 q6 -12 22 -13q66 0 299 145q4 3 9 3q22 0 44 -28q10 -14 11 -24q-1 -7 -6 -10q-12 -8 -39 -25q-141 -90 -211 -111q-35 -11 -64 -11q-12 0 -31 4q-94 24 -110 121q-144 -134 -220 -135h-9q-51 6 -83 55q-10 16 -15 33q-4 15 -4 33zM243 926q0 40 45 66q24 13 49 13 q6 0 15 -2q35 -8 51 -38q6 -11 6 -26q0 -42 -34 -73q-22 -20 -47 -20q-32 1 -63 33q-22 24 -22 47zM289 912q-3 -18 3 -24q6 -5 11 -5q23 0 47 40q14 25 14 42q-35 -2 -62 -30q-10 -12 -13 -23z" />
<glyph unicode="&#xe6;" horiz-adv-x="774" d="M-33 458q0 85 101 173q65 56 130 79q13 4 28 4q45 0 70 -30q10 -14 10 -28q0 -8 -3 -16q-6 -15 -35 1q-8 4 -13 8q-72 -25 -141 -93q-74 -73 -75 -135q0 -12 1 -18q79 9 261 201q19 24 26 31q84 88 149 98q5 1 12 1q49 0 80 -43q19 -26 19 -53q0 -17 -7 -31 q-18 -39 -130 -108q-109 -68 -150 -68h-2q-7 -21 -7 -51q1 -25 10 -31q22 -12 50 -12q117 0 343 162q70 50 115 90q9 7 18 7q25 0 44 -30q8 -13 8 -22q-1 -6 -5 -11q-169 -150 -324 -216q-89 -38 -157 -38q-53 1 -95 24q-71 41 -78 107v4q-93 -73 -147 -73q-8 0 -11 1 q-50 9 -79 56q-8 14 -12 28t-4 32zM361 542q139 71 154 126q-54 -16 -125 -94q-5 -5 -14 -15q-10 -12 -15 -17z" />
<glyph unicode="&#xe7;" horiz-adv-x="522" d="M-37 421q0 84 79 187q76 97 160 128q27 9 50 9q54 -1 85 -48q10 -16 10 -34q0 -15 -17 -64q-2 -5 -3 -8q-5 -10 -14 -11q-22 0 -46 30q-14 18 -11 29l14 41q-57 -11 -133 -95q-86 -94 -101 -176q-3 -14 -3 -26q1 -25 12 -43q13 -3 25 -3q97 0 337 158q21 13 61 40 q65 44 89 58q5 3 8 3q23 0 48 -29q10 -14 11 -23q-1 -7 -5 -9q-26 -16 -93 -61q-192 -128 -287 -168q-75 -31 -128 -31q-10 0 -25 2q-65 11 -101 70q-17 28 -21 59q-1 6 -1 15zM-33 133q0 18 23 5q21 -12 23 -27q33 -8 46 18q1 3 2 5q2 9 2 11q0 30 -45 50q-7 2 -12 4 q-3 1 -3 6q0 11 29 71q1 1 1 2q2 4 7 4q15 0 30 -19q8 -10 6 -17l-22 -48q54 -36 55 -77q-1 -24 -20 -39q-16 -11 -35 -11q-42 0 -72 30q-14 16 -15 32z" />
<glyph unicode="&#xe8;" horiz-adv-x="518" d="M-33 416q0 91 78 193q71 93 148 118q17 5 32 6h4q47 0 80 -41q21 -27 21 -55q-1 -20 -10 -37q-10 -18 -30.5 -37t-45 -35t-52 -31t-52.5 -27t-45.5 -21t-32.5 -13l-13 -5q-16 -8 -16 -45q1 -35 20 -42q19 -6 41 -6q126 0 354 167q59 43 104 83q4 3 8 3q20 0 41 -30 q11 -16 11 -27q-1 -6 -4 -10q-24 -24 -106 -83q-227 -163 -366 -164q-18 0 -26 1q-127 17 -141 116q-2 11 -2 22zM105 542q135 69 152 126q-59 -18 -132 -102q-11 -12 -20 -24zM178 980q-1 10 11 10q7 0 14 -4q25 -14 28 -33q4 -31 16 -49q1 -2 9 -5q21 -12 29 -24 q11 -18 -4 -19h-6q-55 9 -84 73q-10 26 -13 51z" />
<glyph unicode="&#xe9;" horiz-adv-x="518" d="M-33 416q0 91 78 193q71 93 148 118q17 5 32 6h4q47 0 80 -41q21 -27 21 -55q-1 -20 -10 -37q-10 -18 -30.5 -37t-45 -35t-52 -31t-52.5 -27t-45.5 -21t-32.5 -13l-13 -5q-16 -8 -16 -45q1 -35 20 -42q19 -6 41 -6q126 0 354 167q59 43 104 83q4 3 8 3q20 0 41 -30 q11 -16 11 -27q-1 -6 -4 -10q-24 -24 -106 -83q-227 -163 -366 -164q-18 0 -26 1q-127 17 -141 116q-2 11 -2 22zM105 542q135 69 152 126q-59 -18 -132 -102q-11 -12 -20 -24zM263 864q1 6 4 11q8 13 32 25q4 3 5 4q12 18 16 49q3 18 29 33q20 11 25 -2v-4q-6 -63 -50 -101 q-22 -19 -48 -23q-14 -2 -13 8z" />
<glyph unicode="&#xea;" horiz-adv-x="518" d="M-33 416q0 91 78 193q71 93 148 118q17 5 32 6h4q47 0 80 -41q21 -27 21 -55q-1 -20 -10 -37q-10 -18 -30.5 -37t-45 -35t-52 -31t-52.5 -27t-45.5 -21t-32.5 -13l-13 -5q-16 -8 -16 -45q1 -35 20 -42q19 -6 41 -6q126 0 354 167q59 43 104 83q4 3 8 3q20 0 41 -30 q11 -16 11 -27q-1 -6 -4 -10q-24 -24 -106 -83q-227 -163 -366 -164q-18 0 -26 1q-127 17 -141 116q-2 11 -2 22zM105 542q135 69 152 126q-59 -18 -132 -102q-11 -12 -20 -24zM189 892q1 3 2 5l60 55q58 48 86 56q9 2 10 2q29 0 47 -29q4 -7 6 -14q2 -10 2 -16 q0 -16 -5.5 -39t-11.5 -37l-6 -15q-2 -4 -7 -4q-16 0 -31 19q-7 10 -5 16l17 53q3 11 4 20q-21 -12 -52.5 -37.5t-51.5 -45.5l-21 -19q-3 -2 -6 -2q-17 0 -32 20q-5 7 -5 12z" />
<glyph unicode="&#xeb;" horiz-adv-x="518" d="M-33 416q0 91 78 193q71 93 148 118q17 5 32 6h4q47 0 80 -41q21 -27 21 -55q-1 -20 -10 -37q-10 -18 -30.5 -37t-45 -35t-52 -31t-52.5 -27t-45.5 -21t-32.5 -13l-13 -5q-16 -8 -16 -45q1 -35 20 -42q19 -6 41 -6q126 0 354 167q59 43 104 83q4 3 8 3q20 0 41 -30 q11 -16 11 -27q-1 -6 -4 -10q-24 -24 -106 -83q-227 -163 -366 -164q-18 0 -26 1q-127 17 -141 116q-2 11 -2 22zM105 542q135 69 152 126q-59 -18 -132 -102q-11 -12 -20 -24zM187 893q0 30 30 42q9 4 19 4q30 0 38 -26q1 -6 1 -11q0 -30 -30 -42q-9 -4 -19 -4 q-30 0 -38 26q-1 6 -1 11zM310 893q0 30 30 42q9 4 19 4q30 0 38 -26q1 -6 1 -11q0 -30 -30 -42q-9 -4 -19 -4q-30 0 -38 26q-1 6 -1 11z" />
<glyph unicode="&#xec;" horiz-adv-x="350" d="M-6 419q0 108 97 311q4 6 12 7q22 0 46 -26q12 -15 13 -25q0 -4 -1 -6q-87 -184 -96 -286q-1 -9 -1 -17q0 -14 4 -29h2q83 0 246 167q42 44 72 80q4 4 9 4q19 0 41 -29q11 -16 11 -27q-1 -5 -3 -8q-143 -174 -257 -228q-43 -21 -77 -21q-10 0 -27 4q-49 14 -75 57 q-16 26 -16 72zM99 968q-1 10 11 10q7 0 14 -4q25 -14 28 -33q4 -31 16 -49q1 -2 9 -5q21 -12 29 -24q11 -18 -4 -19h-6q-55 9 -84 73q-10 26 -13 51z" />
<glyph unicode="&#xed;" horiz-adv-x="350" d="M-6 419q0 108 97 311q4 6 12 7q22 0 46 -26q12 -15 13 -25q0 -4 -1 -6q-87 -184 -96 -286q-1 -9 -1 -17q0 -14 4 -29h2q83 0 246 167q42 44 72 80q4 4 9 4q19 0 41 -29q11 -16 11 -27q-1 -5 -3 -8q-143 -174 -257 -228q-43 -21 -77 -21q-10 0 -27 4q-49 14 -75 57 q-16 26 -16 72zM146 847q1 6 4 11q8 13 32 25q4 3 5 4q12 18 16 49q3 18 29 33q20 11 25 -2v-4q-6 -63 -50 -101q-22 -19 -48 -23q-14 -2 -13 8z" />
<glyph unicode="&#xee;" horiz-adv-x="350" d="M-6 419q0 108 97 311q4 6 12 7q22 0 46 -26q12 -15 13 -25q0 -4 -1 -6q-87 -184 -96 -286q-1 -9 -1 -17q0 -14 4 -29h2q83 0 246 167q42 44 72 80q4 4 9 4q19 0 41 -29q11 -16 11 -27q-1 -5 -3 -8q-143 -174 -257 -228q-43 -21 -77 -21q-10 0 -27 4q-49 14 -75 57 q-16 26 -16 72zM43 887q1 3 2 5l60 55q58 48 86 56q9 2 10 2q29 0 47 -29q4 -7 6 -14q2 -10 2 -16q0 -16 -5.5 -39t-11.5 -37l-6 -15q-2 -4 -7 -4q-16 0 -31 19q-7 10 -5 16l17 53q3 11 4 20q-21 -12 -52.5 -37.5t-51.5 -45.5l-21 -19q-3 -2 -6 -2q-17 0 -32 20q-5 7 -5 12z " />
<glyph unicode="&#xef;" horiz-adv-x="350" d="M-6 419q0 108 97 311q4 6 12 7q22 0 46 -26q12 -15 13 -25q0 -4 -1 -6q-87 -184 -96 -286q-1 -9 -1 -17q0 -14 4 -29h2q83 0 246 167q42 44 72 80q4 4 9 4q19 0 41 -29q11 -16 11 -27q-1 -5 -3 -8q-143 -174 -257 -228q-43 -21 -77 -21q-10 0 -27 4q-49 14 -75 57 q-16 26 -16 72zM74 888q0 30 30 42q9 4 19 4q30 0 38 -26q1 -6 1 -11q0 -30 -30 -42q-9 -4 -19 -4q-30 0 -38 26q-1 6 -1 11zM197 888q0 30 30 42q9 4 19 4q30 0 38 -26q1 -6 1 -11q0 -30 -30 -42q-9 -4 -19 -4q-30 0 -38 26q-1 6 -1 11z" />
<glyph unicode="&#xf0;" horiz-adv-x="618" d="M5 479q0 47 19 99q47 124 140 171q44 22 92 22q44 0 90 -19q46 82 97 181h-46q-27 0 -49 30q-10 13 -10 22q2 9 13 10h123q29 57 58 117t50 105t38 82t26 57l8 19q4 6 12 7q22 0 46 -25q12 -15 13 -26q0 -48 -61 -198q-40 -98 -54 -138h68q27 0 49 -30q10 -13 10 -22 q-2 -9 -13 -10h-137q-206 -570 -260 -776q-33 -124 -33 -181q0 -6 2 -15q1 -8 1 -12q-2 -9 -12 -10q-23 0 -47 24q-11 12 -13 23q-2 10 -2 32q0 135 162 590q11 30 23 63q-1 1 -4 3q-2 1 -3 2q-4 -8 -16 -30q-114 -211 -193 -279q-46 -39 -84 -39q-26 1 -46 15 q-56 45 -57 136zM69 423q0 -21 6 -36q76 23 246 320q-12 2 -18 2q-87 0 -162 -101q-62 -84 -71 -167q-1 -10 -1 -18z" />
<glyph unicode="&#xf1;" horiz-adv-x="710" d="M-153 325q-4 21 127 402q3 5 10 6q22 0 52 -27q14 -14 17 -24q0 -3 -1 -6q-1 -2 -68 -204q160 187 224 216q7 3 13 5q12 3 22 3q47 -1 86 -39q32 -31 44 -104q5 -23 11 -124q1 -11 2 -16q1 -6 4 -8q2 -1 3 -1q35 0 219 159q24 21 31 28q2 2 6 2q18 0 44 -32 q13 -17 15 -29q0 -7 -3 -12q-85 -82 -121 -108q-82 -60 -144 -60q-36 1 -67 20q-53 38 -67 118q-4 23 -9 69q-3 43 -7 62l-1 11q-57 -15 -201 -183q-113 -131 -131 -149q-29 -28 -41 -29q-58 5 -69 54zM91 793v5q24 44 56 45q25 0 73 -34q3 -2 4 -3q15 -10 21 -10 q16 2 35 35q3 2 7 2q16 0 39 -20q7 -7 9 -12v-5q-22 -40 -53 -40q-25 0 -73 34q-3 2 -4 3q-14 9 -22 10q-18 -2 -38 -39q-2 -2 -6 -2q-16 0 -39 19q-8 7 -9 12z" />
<glyph unicode="&#xf2;" horiz-adv-x="479" d="M-61 413q0 79 82 169q20 22 40 38q0 2 -1 6v5q0 60 66 83q27 10 58 10q72 -1 111 -39q41 -40 41 -104q0 -38 -17 -78q114 22 199 91q4 3 9 3q21 0 42 -28q10 -13 11 -23q-1 -6 -5 -9q-124 -100 -260 -100q-19 0 -28 1q-90 -146 -211 -146q-52 0 -83 22q-2 3 -3 4 q-51 37 -51 95zM9 354q14 -6 29 -6q62 0 135 81q14 16 26 32q-62 29 -101 77q-69 -74 -86 -141q-2 -11 -3 -20q-1 -18 0 -23zM134 572q16 -53 92 -70q40 72 40 126q0 21 -7 33q-3 3 -12 3q-45 0 -84 -21q-13 -8 -19 -16q23 -20 24 -31q0 -7 -19 -16q-11 -5 -15 -8zM136 971 q-1 10 11 10q7 0 14 -4q25 -14 28 -33q4 -31 16 -49q1 -2 9 -5q21 -12 29 -24q11 -18 -4 -19h-6q-55 9 -84 73q-10 26 -13 51z" />
<glyph unicode="&#xf3;" horiz-adv-x="479" d="M-61 413q0 79 82 169q20 22 40 38q0 2 -1 6v5q0 60 66 83q27 10 58 10q72 -1 111 -39q41 -40 41 -104q0 -38 -17 -78q114 22 199 91q4 3 9 3q21 0 42 -28q10 -13 11 -23q-1 -6 -5 -9q-124 -100 -260 -100q-19 0 -28 1q-90 -146 -211 -146q-52 0 -83 22q-2 3 -3 4 q-51 37 -51 95zM9 354q14 -6 29 -6q62 0 135 81q14 16 26 32q-62 29 -101 77q-69 -74 -86 -141q-2 -11 -3 -20q-1 -18 0 -23zM134 572q16 -53 92 -70q40 72 40 126q0 21 -7 33q-3 3 -12 3q-45 0 -84 -21q-13 -8 -19 -16q23 -20 24 -31q0 -7 -19 -16q-11 -5 -15 -8zM220 855 q1 6 4 11q8 13 32 25q4 3 5 4q12 18 16 49q3 18 29 33q20 11 25 -2v-4q-6 -63 -50 -101q-22 -19 -48 -23q-14 -2 -13 8z" />
<glyph unicode="&#xf4;" horiz-adv-x="479" d="M-61 413q0 79 82 169q20 22 40 38q0 2 -1 6v5q0 60 66 83q27 10 58 10q72 -1 111 -39q41 -40 41 -104q0 -38 -17 -78q114 22 199 91q4 3 9 3q21 0 42 -28q10 -13 11 -23q-1 -6 -5 -9q-124 -100 -260 -100q-19 0 -28 1q-90 -146 -211 -146q-52 0 -83 22q-2 3 -3 4 q-51 37 -51 95zM9 354q14 -6 29 -6q62 0 135 81q14 16 26 32q-62 29 -101 77q-69 -74 -86 -141q-2 -11 -3 -20q-1 -18 0 -23zM134 572q16 -53 92 -70q40 72 40 126q0 21 -7 33q-3 3 -12 3q-45 0 -84 -21q-13 -8 -19 -16q23 -20 24 -31q0 -7 -19 -16q-11 -5 -15 -8zM146 882 q1 3 2 5l60 55q58 48 86 56q9 2 10 2q29 0 47 -29q4 -7 6 -14q2 -10 2 -16q0 -16 -5.5 -39t-11.5 -37l-6 -15q-2 -4 -7 -4q-16 0 -31 19q-7 10 -5 16l17 53q3 11 4 20q-21 -12 -52.5 -37.5t-51.5 -45.5l-21 -19q-3 -2 -6 -2q-17 0 -32 20q-5 7 -5 12z" />
<glyph unicode="&#xf5;" horiz-adv-x="479" d="M-61 413q0 79 82 169q20 22 40 38q0 2 -1 6v5q0 60 66 83q27 10 58 10q72 -1 111 -39q41 -40 41 -104q0 -38 -17 -78q114 22 199 91q4 3 9 3q21 0 42 -28q10 -13 11 -23q-1 -6 -5 -9q-124 -100 -260 -100q-19 0 -28 1q-90 -146 -211 -146q-52 0 -83 22q-2 3 -3 4 q-51 37 -51 95zM9 354q14 -6 29 -6q62 0 135 81q14 16 26 32q-62 29 -101 77q-69 -74 -86 -141q-2 -11 -3 -20q-1 -18 0 -23zM127 884q0 3 1 5q32 44 64 45q25 0 67 -34q2 -2 4 -3q12 -10 18 -10q17 2 42 35q3 2 7 2q16 0 35 -20q7 -7 8 -12q-1 -3 -2 -5q-29 -40 -60 -40 q-25 0 -67 34l-3 3q-13 9 -20 10q-18 -2 -45 -39q-3 -2 -7 -2q-16 0 -35 19q-6 7 -7 12zM134 572q16 -53 92 -70q40 72 40 126q0 21 -7 33q-3 3 -12 3q-45 0 -84 -21q-13 -8 -19 -16q23 -20 24 -31q0 -7 -19 -16q-11 -5 -15 -8z" />
<glyph unicode="&#xf6;" horiz-adv-x="479" d="M-61 413q0 79 82 169q20 22 40 38q0 2 -1 6v5q0 60 66 83q27 10 58 10q72 -1 111 -39q41 -40 41 -104q0 -38 -17 -78q114 22 199 91q4 3 9 3q21 0 42 -28q10 -13 11 -23q-1 -6 -5 -9q-124 -100 -260 -100q-19 0 -28 1q-90 -146 -211 -146q-52 0 -83 22q-2 3 -3 4 q-51 37 -51 95zM9 354q14 -6 29 -6q62 0 135 81q14 16 26 32q-62 29 -101 77q-69 -74 -86 -141q-2 -11 -3 -20q-1 -18 0 -23zM134 572q16 -53 92 -70q40 72 40 126q0 21 -7 33q-3 3 -12 3q-45 0 -84 -21q-13 -8 -19 -16q23 -20 24 -31q0 -7 -19 -16q-11 -5 -15 -8zM144 883 q0 30 30 42q9 4 19 4q30 0 38 -26q1 -6 1 -11q0 -30 -30 -42q-9 -4 -19 -4q-30 0 -38 26q-1 6 -1 11zM267 883q0 30 30 42q9 4 19 4q30 0 38 -26q1 -6 1 -11q0 -30 -30 -42q-9 -4 -19 -4q-30 0 -38 26q-1 6 -1 11z" />
<glyph unicode="&#xf8;" horiz-adv-x="466" d="M-61 411q0 80 83 170q20 20 39 36q0 2 -1 5v6q0 60 66 83q27 10 58 10q39 0 73 -14l33 55q6 7 23 -5q16 -12 12 -21l-32 -52l2 -2q41 -40 41 -104q0 -38 -17 -78q86 17 180 92q5 3 10 3q23 0 47 -29q11 -13 12 -23q-1 -5 -4 -8q-125 -101 -250 -101q-18 0 -27 1 q-90 -144 -211 -145q-16 0 -23 1l-61 -99q-6 -6 -22 5q-15 13 -12 21l51 85q-4 1 -7 3t-5.5 3.5t-4 2.5t-2.5 2v1q-51 37 -51 96zM9 351q13 -6 26 -6l96 157q-22 19 -33 33q-69 -74 -86 -141q-2 -11 -3 -20q-1 -18 0 -23zM96 363q57 33 103 96q-16 7 -33 17zM134 569 q6 -17 19 -32l74 122q-63 -9 -83 -35q23 -20 24 -30q0 -7 -20 -17q-10 -5 -14 -8zM188 512q13 -6 38 -12q40 72 40 125q0 10 -1 14z" />
<glyph unicode="&#xf9;" horiz-adv-x="714" d="M0 450q0 115 127 296q4 5 11 5q22 0 46 -26q12 -15 13 -25q0 -4 -2 -7q-80 -113 -113 -213q-14 -42 -14 -72q0 -7 2 -18q81 28 242 238q34 44 59 80q8 10 19 11q24 0 44 -30q9 -14 9 -23q-1 -5 -3 -8q-27 -82 -42 -178q-5 -32 -5 -53q1 -29 10 -35q8 -5 23 -5 q68 0 217 110q79 59 107 93q6 5 10 5q21 0 43 -27q10 -14 11 -23q-1 -5 -3 -8q-59 -72 -158 -136q-109 -70 -189 -70q-42 1 -72 20q-68 46 -68 140v14q-124 -149 -196 -176q-2 0 -4 -1q-9 -3 -19 -3q-40 1 -75 39q-30 35 -30 86zM286 978q-1 10 11 10q7 0 14 -4 q25 -14 28 -33q4 -31 16 -49q1 -2 9 -5q21 -12 29 -24q11 -18 -4 -19h-6q-55 9 -84 73q-10 26 -13 51z" />
<glyph unicode="&#xfa;" horiz-adv-x="714" d="M0 450q0 115 127 296q4 5 11 5q22 0 46 -26q12 -15 13 -25q0 -4 -2 -7q-80 -113 -113 -213q-14 -42 -14 -72q0 -7 2 -18q81 28 242 238q34 44 59 80q8 10 19 11q24 0 44 -30q9 -14 9 -23q-1 -5 -3 -8q-27 -82 -42 -178q-5 -32 -5 -53q1 -29 10 -35q8 -5 23 -5 q68 0 217 110q79 59 107 93q6 5 10 5q21 0 43 -27q10 -14 11 -23q-1 -5 -3 -8q-59 -72 -158 -136q-109 -70 -189 -70q-42 1 -72 20q-68 46 -68 140v14q-124 -149 -196 -176q-2 0 -4 -1q-9 -3 -19 -3q-40 1 -75 39q-30 35 -30 86zM321 854q1 6 4 11q8 13 32 25q4 3 5 4 q12 18 16 49q3 18 29 33q20 11 25 -2v-4q-6 -63 -50 -101q-22 -19 -48 -23q-14 -2 -13 8z" />
<glyph unicode="&#xfb;" horiz-adv-x="714" d="M0 450q0 115 127 296q4 5 11 5q22 0 46 -26q12 -15 13 -25q0 -4 -2 -7q-80 -113 -113 -213q-14 -42 -14 -72q0 -7 2 -18q81 28 242 238q34 44 59 80q8 10 19 11q24 0 44 -30q9 -14 9 -23q-1 -5 -3 -8q-27 -82 -42 -178q-5 -32 -5 -53q1 -29 10 -35q8 -5 23 -5 q68 0 217 110q79 59 107 93q6 5 10 5q21 0 43 -27q10 -14 11 -23q-1 -5 -3 -8q-59 -72 -158 -136q-109 -70 -189 -70q-42 1 -72 20q-68 46 -68 140v14q-124 -149 -196 -176q-2 0 -4 -1q-9 -3 -19 -3q-40 1 -75 39q-30 35 -30 86zM259 901q1 3 2 5l60 55q58 48 86 56 q9 2 10 2q29 0 47 -29q4 -7 6 -14q2 -10 2 -16q0 -16 -5.5 -39t-11.5 -37l-6 -15q-2 -4 -7 -4q-16 0 -31 19q-7 10 -5 16l17 53q3 11 4 20q-21 -12 -52.5 -37.5t-51.5 -45.5l-21 -19q-3 -2 -6 -2q-17 0 -32 20q-5 7 -5 12z" />
<glyph unicode="&#xfc;" horiz-adv-x="714" d="M0 450q0 115 127 296q4 5 11 5q22 0 46 -26q12 -15 13 -25q0 -4 -2 -7q-80 -113 -113 -213q-14 -42 -14 -72q0 -7 2 -18q81 28 242 238q34 44 59 80q8 10 19 11q24 0 44 -30q9 -14 9 -23q-1 -5 -3 -8q-27 -82 -42 -178q-5 -32 -5 -53q1 -29 10 -35q8 -5 23 -5 q68 0 217 110q79 59 107 93q6 5 10 5q21 0 43 -27q10 -14 11 -23q-1 -5 -3 -8q-59 -72 -158 -136q-109 -70 -189 -70q-42 1 -72 20q-68 46 -68 140v14q-124 -149 -196 -176q-2 0 -4 -1q-9 -3 -19 -3q-40 1 -75 39q-30 35 -30 86zM290 906q0 30 30 42q9 4 19 4q30 0 38 -26 q1 -6 1 -11q0 -30 -30 -42q-9 -4 -19 -4q-30 0 -38 26q-1 6 -1 11zM413 906q0 30 30 42q9 4 19 4q30 0 38 -26q1 -6 1 -11q0 -30 -30 -42q-9 -4 -19 -4q-30 0 -38 26q-1 6 -1 11z" />
<glyph unicode="&#xfd;" horiz-adv-x="632" d="M-167 -383q-170 161 127 458q112 113 294 244q17 54 49 169q-17 -18 -27 -25h-1q-87 -79 -149 -98q-51 -16 -96 26q-18 16 -27 36q-12 25 -6 66q15 92 119 240q11 15 44 -10q31 -23 26 -40q-1 -2 -2 -3q-120 -176 -118 -255q58 16 143 94q93 86 146 177q16 29 24 53 q4 9 19 6q25 -4 46 -30q11 -15 8 -25q-20 -51 -69 -235l-20 -70q96 66 308 196q9 5 37 -8q48 -22 17 -53q-9 -8 -21 -16q-232 -143 -381 -249q-3 -10 -12 -37q-127 -414 -243 -563q-122 -154 -235 -48zM-149 -218q-29 -89 21 -146q32 -24 93 40q111 117 243 503 q-301 -235 -357 -397zM426 888q1 6 4 11q8 13 32 25q4 3 5 4q12 18 16 49q3 18 29 33q20 11 25 -2v-4q-6 -63 -50 -101q-22 -19 -48 -23q-14 -2 -13 8z" />
<glyph unicode="&#xfe;" horiz-adv-x="442" d="M-213 -100q0 6 2 15q6 24 35.5 108.5t71.5 200t91.5 249.5t98 264t88 236t64.5 172l25 66q4 6 12 7q23 0 47 -26q15 -17 11 -29q-7 -14 -268 -720q143 269 194 304q10 7 23 7q39 0 86 -46q5 -5 8 -9q33 -40 33 -103q0 -98 -66 -193q-69 -99 -156 -111q-12 -2 -22 -2 q-39 1 -74 20q-6 -11 -31 -62q-191 -395 -221 -396h-1q-50 15 -51 48zM113 351q6 -1 13 -1q87 0 158 125q52 91 59 171q1 9 1 15q-1 29 -13 30q-11 -1 -28 -20q-57 -65 -190 -320z" />
<glyph unicode="&#xff;" horiz-adv-x="632" d="M-167 -383q-170 161 127 458q112 113 294 244q17 54 49 169q-17 -18 -27 -25h-1q-87 -79 -149 -98q-51 -16 -96 26q-18 16 -27 36q-12 25 -6 66q15 92 119 240q11 15 44 -10q31 -23 26 -40q-1 -2 -2 -3q-120 -176 -118 -255q58 16 143 94q93 86 146 177q16 29 24 53 q4 9 19 6q25 -4 46 -30q11 -15 8 -25q-20 -51 -69 -235l-20 -70q96 66 308 196q9 5 37 -8q48 -22 17 -53q-9 -8 -21 -16q-232 -143 -381 -249q-3 -10 -12 -37q-127 -414 -243 -563q-122 -154 -235 -48zM-149 -218q-29 -89 21 -146q32 -24 93 40q111 117 243 503 q-301 -235 -357 -397zM231 916q0 30 30 42q9 4 19 4q30 0 38 -26q1 -6 1 -11q0 -30 -30 -42q-9 -4 -19 -4q-30 0 -38 26q-1 6 -1 11zM354 916q0 30 30 42q9 4 19 4q30 0 38 -26q1 -6 1 -11q0 -30 -30 -42q-9 -4 -19 -4q-30 0 -38 26q-1 6 -1 11z" />
<glyph unicode="&#x152;" horiz-adv-x="2086" d="M0 619q0 236 216 443q168 160 403 249q77 29 149 44q164 147 311 147q106 -1 199 -75q23 -20 24 -35q-2 -11 -14 -12q-15 1 -35 16q-56 44 -128 44q-88 -1 -187 -62q30 2 45 2q244 0 318 -210q16 -46 25 -101q67 89 202 178q191 126 338 126q54 0 100 -21q56 -27 57 -78 q0 -78 -120 -191q-24 -22 -47 -40q-5 -3 -9 -3q-23 0 -47 28q-11 13 -12 23q1 6 4 9q28 21 87 86q71 79 72 109q-2 15 -22 16q-176 0 -357 -127q-150 -107 -229 -247q-9 -17 -13 -82q-1 -13 -2 -20q30 -25 121 -25q20 0 43 1t43.5 3t40.5 4.5t36 5t28.5 4.5t19.5 3l7 1 q1 0 3 0.5l2 0.5q24 0 48 -30q9 -13 10 -22q-1 -7 -5 -9q-303 -172 -522 -372q-101 -220 -238 -359q-3 -9 4 -35q3 -10 7 -14q32 -24 82 -24q201 0 687 338q233 162 381 290q5 3 9 3q20 0 40 -27q10 -13 10 -23q-1 -6 -4 -10q-229 -198 -481 -363q-396 -259 -609 -260 q-119 1 -174 81q-159 -137 -323 -137h-1q-207 1 -293 170q-48 95 -48 226q0 28 1 42q-154 49 -218 173q-35 68 -35 148zM72 579q2 -186 185 -234q29 271 189 575q99 188 219 328q-191 -70 -351 -214q-205 -184 -237 -387q-5 -35 -5 -68zM322 202q2 -277 225 -279h1 q179 1 346 167q12 154 240 362q95 209 121 414q-7 19 -7 37q0 30 15 63v35q0 222 -106 285q-53 32 -139 32q-81 0 -189 -23l-37 -37q-180 -182 -315 -468q-115 -245 -145 -458q20 -2 61 -2q132 0 295 41q20 5 46 -20l5 -5q2 -3 4.5 -5.5t4 -5.5t2.5 -5.5t1.5 -4.5t0.5 -4 t-0.5 -4t-2 -3.5t-3 -2.5t-3.5 -1q-163 -40 -292 -40q-71 0 -125 10q-4 -52 -4 -78zM1267 564q125 98 270 190h-6q-139 0 -209 39q-16 -109 -55 -229z" />
<glyph unicode="&#x153;" horiz-adv-x="778" d="M-66 407q0 80 82 169q21 21 41 38q-1 5 -1 12q0 63 72 85q26 8 55 8q25 0 49 -7q60 -18 87 -71l4 -10q77 84 144 99q12 3 22 3q13 0 19 -2q46 -13 69 -55q4 -7 6 -13q4 -11 4 -23q0 -80 -188 -169q-47 -22 -93 -39q-16 -7 -17 -40q1 -38 24 -48q16 -5 39 -5 q135 0 382 189q52 40 75 61q7 4 10 4q23 0 47 -29q11 -13 12 -23q-1 -5 -4 -8q-24 -24 -107 -84q-235 -170 -377 -171q-28 0 -50 7q-63 18 -98 67q-5 8 -9 15q-77 -83 -157 -84q-36 1 -72 19q-69 39 -70 105zM-3 361q1 -7 5 -10q17 -8 31 -8q61 0 137 83q15 16 25 30 q-62 29 -101 77q-29 -33 -69 -103q-28 -49 -28 -69zM130 568q16 -55 92 -70q38 74 41 128q0 16 -6 27q-4 3 -24 3q-67 -1 -93 -34q26 -22 21 -39q-2 -8 -14 -7q-7 -1 -17 -8zM256 655zM361 542q141 74 154 128q-55 -16 -132 -102q-13 -14 -22 -26z" />
<glyph unicode="&#x2c6;" horiz-adv-x="348" d="M74 809q1 3 2 5l60 55q58 48 86 56q9 2 10 2q29 0 47 -29q4 -7 6 -14q2 -10 2 -16q0 -16 -5.5 -39t-11.5 -37l-6 -15q-2 -4 -7 -4q-16 0 -31 19q-7 10 -5 16l17 53q3 11 4 20q-21 -12 -52.5 -37.5t-51.5 -45.5l-21 -19q-3 -2 -6 -2q-17 0 -32 20q-5 7 -5 12z" />
<glyph unicode="&#x2dc;" horiz-adv-x="499" d="M-201 160q0 3 1 5q32 44 64 45q25 0 67 -34q2 -2 4 -3q12 -10 18 -10q17 2 42 35q3 2 7 2q16 0 35 -20q7 -7 8 -12q-1 -3 -2 -5q-29 -40 -60 -40q-25 0 -67 34l-3 3q-13 9 -20 10q-18 -2 -45 -39q-3 -2 -7 -2q-16 0 -35 19q-6 7 -7 12z" />
<glyph unicode="&#x2000;" horiz-adv-x="915" />
<glyph unicode="&#x2001;" horiz-adv-x="1831" />
<glyph unicode="&#x2002;" horiz-adv-x="915" />
<glyph unicode="&#x2003;" horiz-adv-x="1831" />
<glyph unicode="&#x2004;" horiz-adv-x="610" />
<glyph unicode="&#x2005;" horiz-adv-x="457" />
<glyph unicode="&#x2006;" horiz-adv-x="305" />
<glyph unicode="&#x2007;" horiz-adv-x="305" />
<glyph unicode="&#x2008;" horiz-adv-x="228" />
<glyph unicode="&#x2009;" horiz-adv-x="366" />
<glyph unicode="&#x200a;" horiz-adv-x="101" />
<glyph unicode="&#x2010;" horiz-adv-x="571" d="M135 563q2 10 13 11h327q27 0 49 -30q10 -13 10 -22q-2 -10 -13 -11h-327q-27 0 -49 30q-10 13 -10 22z" />
<glyph unicode="&#x2011;" horiz-adv-x="571" d="M135 563q2 10 13 11h327q27 0 49 -30q10 -13 10 -22q-2 -10 -13 -11h-327q-27 0 -49 30q-10 13 -10 22z" />
<glyph unicode="&#x2012;" horiz-adv-x="571" d="M135 563q2 10 13 11h327q27 0 49 -30q10 -13 10 -22q-2 -10 -13 -11h-327q-27 0 -49 30q-10 13 -10 22z" />
<glyph unicode="&#x2013;" horiz-adv-x="1196" d="M135 563q5 10 33 11h840q69 0 125 -30q26 -13 26 -22q-5 -10 -33 -11h-840q-69 0 -125 30q-26 13 -26 22z" />
<glyph unicode="&#x2014;" horiz-adv-x="2220" d="M135 563q10 10 67 11h1678q139 0 252 -30q51 -13 51 -22q-10 -10 -67 -11h-1678q-139 0 -252 30q-51 13 -51 22z" />
<glyph unicode="&#x202f;" horiz-adv-x="366" />
<glyph unicode="&#x205f;" horiz-adv-x="457" />
<glyph unicode="&#x25fc;" horiz-adv-x="740" d="M0 0v740h740v-740h-740z" />
</font>
</defs>
</svg>
