<?xml version="1.0" standalone="no"?>
<!DOCTYPE svg PUBLIC "-//W3C//DTD SVG 1.1//EN" "http://www.w3.org/Graphics/SVG/1.1/DTD/svg11.dtd" >
<svg xmlns="http://www.w3.org/2000/svg" xmlns:xlink="http://www.w3.org/1999/xlink" version="1.1">
<metadata>
Created by FontForge 20170731 at Sun Oct  4 22:03:11 2020
 By Aleksey,,,
Copyright (c) 2018 Monotype Imaging Inc. All rights reserved.
</metadata>
<defs>
<font id="Walbaum60pt-Regular" horiz-adv-x="561" >
  <font-face 
    font-family="Walbaum 60pt"
    font-weight="400"
    font-stretch="normal"
    units-per-em="1000"
    panose-1="2 7 5 3 9 7 3 2 3 3"
    ascent="800"
    descent="-200"
    x-height="478"
    cap-height="704"
    bbox="-242 -290 1464 1165"
    underline-thickness="50"
    underline-position="-175"
    unicode-range="U+000D-FEFF"
  />
<missing-glyph horiz-adv-x="500" 
d="M12 665h475v-665h-475v665zM278 333l162 -243v485zM88 618l162 -243l161 243h-323zM88 48h323l-161 242zM60 91l161 242l-161 242v-484z" />
    <glyph glyph-name="f_f" unicode="ff" horiz-adv-x="526" 
d="M18 477h65q5 0 5 6v102q0 76 38 108t116 32q86 0 125 -39q36 39 123 39q69 0 108.5 -26t39.5 -73q0 -25 -12 -39t-36 -14q-22 0 -34.5 11.5t-12.5 33.5q0 13 2.5 22.5t2.5 21.5q0 23 -15.5 35t-42.5 12q-35 0 -49.5 -19.5t-14.5 -67.5v-139q0 -6 6 -6h77q5 0 5 -8t-5 -8
h-77q-6 0 -6 -6v-425q0 -14 14 -14l70 -1q5 0 5 -9q0 -8 -5 -8q-30 1 -48.5 1.5t-31.5 0.5h-23h-23h-23.5t-20 -0.5t-25.5 -1t-39 -1.5q-5 0 -5 9q0 8 6 8l43 1q16 0 16 16v424q0 6 -6 6h-146q-5 0 -5 -6v-424q0 -16 15 -16l48 -1q5 0 5 -8q0 -9 -5 -9q-22 1 -36.5 1.5
t-26 1t-21.5 0.5h-25h-20.5t-20.5 -0.5t-29 -1t-45 -1.5q-6 0 -6 9q0 8 6 8l56 1q14 0 14 14v426q0 6 -5 6h-65q-6 0 -6 8t6 8zM179 483q0 -6 5 -6h146q6 0 6 6v90q-19 2 -30 13.5t-11 31.5q0 13 3 22.5t3 21.5q0 23 -15.5 35t-42.5 12q-35 0 -49.5 -19.5t-14.5 -67.5v-139z
" />
    <glyph glyph-name="f_f_i" unicode="ffi" horiz-adv-x="759" 
d="M12 469q0 8 6 8h65q5 0 5 6v102q0 76 38 108t116 32q93 0 129 -44q23 23 58 33.5t84 10.5q36 0 65.5 -7t51.5 -20t34 -32t12 -43q0 -23 -12 -37t-36 -14q-21 0 -34 11.5t-13 33.5q0 13 3 22.5t3 21.5q0 23 -18 35.5t-57 12.5q-45 0 -65.5 -23.5t-20.5 -81.5v-121
q0 -6 6 -6h84h80t77 2q4 0 4 -3v-445q0 -16 15 -16l49 -1q5 0 5 -8t-4 -8q-24 1 -39.5 1.5t-26.5 0.5h-20.5h-22.5h-23.5t-20 -0.5t-25 -1t-38.5 -1.5q-5 0 -5 9q0 8 5 8l45 1q15 0 15 16v414q0 16 -15 16h-139q-6 0 -6 -6v-424q0 -16 16 -16l49 -1q5 0 5 -8q0 -9 -5 -9
q-22 1 -36.5 1.5t-25.5 1t-21 0.5h-25h-22.5t-20 -0.5t-25.5 -1t-39 -1.5q-5 0 -5 9q0 8 6 8l43 1q16 0 16 16v424q0 6 -6 6h-146q-5 0 -5 -6v-424q0 -16 15 -16l48 -1q5 0 5 -8q0 -9 -5 -9q-22 1 -36.5 1.5t-26 1t-21.5 0.5h-25h-20.5t-20.5 -0.5t-29 -1t-45 -1.5
q-6 0 -6 9q0 8 6 8l56 1q14 0 14 14v426q0 6 -5 6h-65q-6 0 -6 8zM179 622v-139q0 -6 5 -6h146q6 0 6 6v90q-19 2 -30 13.5t-11 31.5q0 13 3 22.5t3 21.5q0 23 -15.5 35t-42.5 12q-35 0 -49.5 -19.5t-14.5 -67.5z" />
    <glyph glyph-name="f_f_l" unicode="ffl" horiz-adv-x="758" 
d="M18 477h65q5 0 5 6v102q0 76 38 108t116 32q87 0 125 -40q20 21 51.5 30.5t77.5 9.5q17 0 33.5 -1.5t28.5 -5.5q26 0 55.5 0.5t60.5 2.5q5 0 5 -4v-686q0 -16 15 -16l49 -1q5 0 5 -8t-4 -8q-24 1 -39 1.5t-26.5 0.5h-21h-22.5h-24t-21.5 -0.5t-26.5 -1t-39 -1.5
q-5 0 -5 9q0 8 5 8l49 1q16 0 16 16v543q-35 8 -35 44q0 13 3 22.5t3 21.5q0 48 -64 48q-38 0 -54 -20t-16 -69v-138q0 -6 6 -6h77q5 0 5 -8t-5 -8h-77q-6 0 -6 -6v-424q0 -16 16 -16l50 -1q5 0 5 -8q0 -9 -5 -9q-23 1 -37.5 1.5t-25.5 1t-21.5 0.5h-25.5h-21t-19.5 -0.5
t-26 -1t-39.5 -1.5q-5 0 -5 9q0 8 6 8l43 1q16 0 16 16v424q0 6 -6 6h-146q-5 0 -5 -6v-424q0 -16 15 -16l48 -1q5 0 5 -8q0 -9 -5 -9q-22 1 -36.5 1.5t-26 1t-21.5 0.5h-25h-20.5t-20.5 -0.5t-29 -1t-45 -1.5q-6 0 -6 9q0 8 6 8l56 1q14 0 14 14v426q0 6 -5 6h-65
q-6 0 -6 8t6 8zM184 477h146q6 0 6 6v90q-19 2 -30 13.5t-11 31.5q0 13 3 22.5t3 21.5q0 23 -15.5 35t-42.5 12q-35 0 -49.5 -19.5t-14.5 -67.5v-139q0 -6 5 -6z" />
    <glyph glyph-name="fi" unicode="fi" horiz-adv-x="512" 
d="M12 469q0 8 6 8h65q5 0 5 6v84q0 88 44.5 123t132.5 35q72 0 118 -27t46 -75q0 -23 -12 -37t-37 -14q-20 0 -33 11.5t-13 33.5q0 13 2.5 22.5t2.5 21.5q0 23 -17.5 35.5t-57.5 12.5q-45 0 -65 -23.5t-20 -81.5v-121q0 -6 5 -6h84q46 0 81 0.5t76 1.5q4 0 4 -3v-445
q0 -16 16 -16l49 -1q5 0 5 -8t-5 -8q-24 1 -39 1.5t-26 0.5h-20.5h-22.5h-23.5t-20 -0.5t-25.5 -1t-39 -1.5q-4 0 -4 9q0 8 5 8l44 1q16 0 16 16v414q0 16 -16 16h-139q-5 0 -5 -6v-424q0 -16 15 -16l49 -1q5 0 5 -8q0 -9 -5 -9q-22 1 -36.5 1.5t-26 1t-22 0.5h-25.5h-20.5
t-20.5 -0.5t-29 -1t-45 -1.5q-6 0 -6 9q0 8 6 8l56 1q14 0 14 14v426q0 6 -5 6h-65q-6 0 -6 8z" />
    <glyph glyph-name="fl" unicode="fl" horiz-adv-x="510" 
d="M12 469q0 8 6 8h65q5 0 5 6v102q0 77 39.5 108.5t120.5 31.5q17 0 34 -1.5t28 -5.5q26 0 56 0.5t61 2.5q5 0 5 -4v-686q0 -16 15 -16l49 -1q5 0 5 -8t-5 -8q-24 1 -39 1.5t-26 0.5h-20.5h-22.5h-24t-21.5 -0.5t-27 -1t-39.5 -1.5q-4 0 -4 9q0 8 5 8l48 1q16 0 16 16v543
q-34 8 -34 44q0 13 3 22.5t3 21.5q0 48 -64 48q-39 0 -54.5 -20t-15.5 -69v-138q0 -6 5 -6h77q6 0 6 -8t-6 -8h-77q-5 0 -5 -6v-424q0 -16 15 -16l49 -1q5 0 5 -8q0 -9 -5 -9q-22 1 -36.5 1.5t-26 1t-22 0.5h-25.5h-20.5t-20.5 -0.5t-29 -1t-45 -1.5q-6 0 -6 9q0 8 6 8l56 1
q14 0 14 14v426q0 6 -5 6h-65q-6 0 -6 8z" />
    <glyph glyph-name=".notdef" horiz-adv-x="500" 
d="M12 665h475v-665h-475v665zM278 333l162 -243v485zM88 618l162 -243l161 243h-323zM88 48h323l-161 242zM60 91l161 242l-161 242v-484z" />
    <glyph glyph-name=".null" horiz-adv-x="0" 
 />
    <glyph glyph-name=".null" horiz-adv-x="0" 
 />
    <glyph glyph-name="uni000D" unicode="&#xd;" horiz-adv-x="234" 
 />
    <glyph glyph-name="space" unicode=" " horiz-adv-x="234" 
 />
    <glyph glyph-name="exclam" unicode="!" horiz-adv-x="199" 
d="M100 726q23 0 36.5 -13.5t13.5 -36.5q0 -22 -6.5 -68.5t-14.5 -112t-14.5 -146.5t-6.5 -171q0 -4 -8 -4t-8 4q0 90 -6.5 171t-14.5 146.5t-14.5 112t-6.5 68.5q0 23 13.5 36.5t36.5 13.5zM99 98q23 0 38.5 -15.5t15.5 -37.5q0 -23 -15.5 -39t-38.5 -16t-38 16t-15 39
q0 22 15 37.5t38 15.5z" />
    <glyph glyph-name="quotedbl" unicode="&#x22;" horiz-adv-x="326" 
d="M85 723q17 0 28 -11t11 -29q0 -14 -4.5 -45t-10 -69t-10.5 -79t-6 -74q-1 -7 -8 -7q-8 0 -8 7q-1 33 -6.5 74t-10.5 79t-9.5 69t-4.5 45q0 18 10.5 29t28.5 11zM241 723q18 0 28.5 -11t10.5 -29q0 -14 -4.5 -45t-10 -69t-10.5 -79t-6 -74q0 -7 -8 -7t-8 7q-1 33 -6 74
t-10.5 79t-10 69t-4.5 45q0 18 10.5 29t28.5 11z" />
    <glyph glyph-name="numbersign" unicode="#" horiz-adv-x="649" 
d="M174 241l38 220h-139v21h143l39 220h21l-39 -220h220l39 220h22l-39 -220h140v-21h-144l-38 -220h139v-21h-143l-39 -220h-21l39 220h-220l-39 -220h-22l39 220h-140v21h144zM415 241l39 220h-220l-39 -220h220z" />
    <glyph glyph-name="dollar" unicode="$" horiz-adv-x="516" 
d="M39 260q8 0 9 -7q8 -44 21.5 -85.5t37.5 -74t60 -52t87 -19.5v298q-37 12 -72 29.5t-62.5 42t-44 57.5t-16.5 77q0 36 13 67t38 54t61.5 36.5t82.5 14.5v101q0 4 5 4h12q4 0 4 -4v-101q35 -2 76 -8t79 -25q8 -4 9 -11l3 -142q0 -6 -8 -6q-7 0 -9 6q-8 32 -18.5 61
t-27 51.5t-41.5 37t-63 18.5v-253l10 -4q44 -18 80.5 -38t63 -45.5t41.5 -58t15 -74.5q0 -39 -13 -73.5t-39 -61.5t-65.5 -44t-92.5 -21v-102q0 -4 -4 -4h-12q-5 0 -5 4v101h-7q-44 0 -96.5 10t-105.5 30q-6 3 -7.5 5t-1.5 8l-5 195q0 6 8 6zM275 23q69 5 106.5 42.5
t37.5 95.5q0 25 -8 44.5t-25.5 37t-44.5 33.5t-66 34v-287zM254 436v245q-60 -1 -95 -29.5t-35 -79.5q0 -47 34.5 -77.5t95.5 -58.5z" />
    <glyph glyph-name="percent" unicode="%" horiz-adv-x="1026" 
d="M30 509q0 51 14.5 91.5t41.5 69t65 43.5t84 15q94 0 148.5 -58.5t54.5 -160.5q0 -51 -14.5 -91.5t-40.5 -69t-63.5 -44t-84.5 -15.5t-85 15.5t-64.5 44t-41 69t-14.5 91.5zM793 430q94 0 148.5 -58.5t54.5 -160.5q0 -51 -14.5 -91.5t-40.5 -69t-63.5 -44t-84.5 -15.5
t-85 15.5t-64.5 44t-41 69t-14.5 91.5t14.5 91.5t41.5 69t65 43.5t84 15zM125 488q0 -98 27.5 -140t83.5 -42q53 0 80 42t27 140v41q0 99 -27 141t-81 42q-55 0 -82.5 -42t-27.5 -141v-41zM683 190q0 -98 27.5 -140t83.5 -42q53 0 80 42t27 140v41q0 99 -27 141t-81 42
q-55 0 -82.5 -42t-27.5 -141v-41zM226 -30l540 761h34l-541 -761h-33z" />
    <glyph glyph-name="ampersand" unicode="&#x26;" horiz-adv-x="755" 
d="M217 392l12 6q-17 46 -27.5 89t-10.5 78t11.5 63t32 48t49 31t63.5 11q62 0 97 -31t35 -85q0 -47 -31.5 -87t-103.5 -76l-24 -12q23 -54 56.5 -120.5t79.5 -149.5q8 -14 14.5 -25.5t14.5 -22.5q34 41 54 94.5t20 113.5q0 46 -15.5 63.5t-47.5 18.5l-44 1q-6 0 -6 9t6 9
q26 -1 42.5 -1.5t29 -0.5h23.5h26h26h23.5t29 0.5t40.5 1.5q6 0 6 -9t-6 -9l-23 -1q-18 -1 -29.5 -4t-18.5 -10.5t-11 -19.5t-7 -32q-11 -71 -38.5 -131.5t-70.5 -106.5q28 -39 53.5 -56.5t56.5 -17.5q27 0 48 12t36.5 32t25.5 47t16 58q3 3 7 3q9 0 10 -7
q-18 -85 -60.5 -132.5t-121.5 -47.5q-38 0 -71 12.5t-64 42.5q-77 -51 -173 -51q-51 0 -91 13.5t-67.5 38.5t-42.5 59t-15 75q0 66 41 117.5t135 98.5zM310 23q29 0 56 8t52 22q-25 27 -52 69t-51.5 88.5t-45.5 92t-34 78.5l-3 -1q-47 -16 -68 -57.5t-21 -101.5
q0 -45 11.5 -81.5t33 -62.5t52.5 -40t70 -14zM274 600q0 -62 40 -158l6 3q54 27 79 66t25 92q0 46 -18.5 72t-53.5 26q-32 0 -55 -24.5t-23 -76.5z" />
    <glyph glyph-name="quotesingle" unicode="'" horiz-adv-x="260" 
d="M130 723q18 0 28.5 -11t10.5 -29q0 -14 -4.5 -45t-10 -69t-10.5 -79t-6 -74q0 -7 -8 -7q-7 0 -8 7q-1 33 -6 74t-10.5 79t-10 69t-4.5 45q0 18 11 29t28 11z" />
    <glyph glyph-name="parenleft" unicode="(" horiz-adv-x="313" 
d="M41 242q0 149 56.5 270.5t171.5 212.5q11 0 11 -11q-43 -45 -74.5 -99t-51.5 -114.5t-30 -125.5t-10 -133q0 -135 39.5 -258t126.5 -214q0 -10 -11 -10q-115 91 -171.5 212.5t-56.5 269.5z" />
    <glyph glyph-name="parenright" unicode=")" horiz-adv-x="313" 
d="M34 714q0 11 11 11q115 -91 171 -212.5t56 -270.5q0 -148 -56 -269.5t-171 -212.5q-11 0 -11 10q87 91 126.5 214t39.5 258q0 68 -10 133t-30 125.5t-51.5 114.5t-74.5 99z" />
    <glyph glyph-name="asterisk" unicode="*" horiz-adv-x="389" 
d="M44 511q8 5 22.5 9t32.5 8.5t38.5 10.5t40.5 15v3q-20 8 -40.5 14t-38.5 11t-33 9.5t-23 8.5q-19 10 -19 28q0 14 10.5 27.5t25.5 13.5q10 0 20 -6q8 -4 18.5 -14.5l24 -24t29 -28t32.5 -27.5l4 2q-2 21 -7 42t-10.5 39t-9.5 32.5t-4 24.5q0 35 37 35t37 -36
q0 -9 -3.5 -23.5t-8.5 -33t-10 -39t-8 -41.5l3 -2q17 13 32.5 28t29 28.5l24 24t18.5 14.5q9 5 19 5q14 0 26 -13.5t12 -27.5q0 -18 -20 -28q-8 -5 -22.5 -9t-33 -9t-38.5 -10.5t-40 -13.5v-5q20 -8 40 -14t38.5 -10.5t33 -9t22.5 -9.5q19 -9 19 -28q0 -14 -9.5 -28
t-25.5 -14q-10 0 -21 6q-8 5 -18.5 15.5t-23.5 24t-28.5 28.5t-32.5 28l-4 -2q2 -21 7 -42t10 -39t9 -32.5t4 -24.5q0 -36 -37 -36t-37 36q0 9 3.5 24t9 33t10.5 39t8 42l-4 2q-34 -27 -60.5 -55.5t-43.5 -39.5q-10 -6 -20 -6q-14 0 -25 13.5t-11 27.5q0 18 20 29z" />
    <glyph glyph-name="plus" unicode="+" horiz-adv-x="600" 
d="M35 240v21h254v254h21v-254h255v-21h-255v-255h-21v255h-254z" />
    <glyph glyph-name="comma" unicode="," horiz-adv-x="253" 
d="M48 47q0 28 18 43t46 15q41 0 63.5 -31.5t22.5 -79.5q0 -18 -4.5 -41.5t-18.5 -49t-38.5 -52t-65.5 -49.5q-8 0 -8 11q54 34 81 77.5t27 86.5q0 14 -4 30t-16 27h-2q-2 -21 -15 -31.5t-33 -10.5q-23 0 -38 14.5t-15 40.5z" />
    <glyph glyph-name="hyphen" unicode="-" horiz-adv-x="320" 
d="M51 285h218q6 0 6 -6v-56q0 -5 -6 -5h-218q-5 0 -5 5v56q0 6 5 6z" />
    <glyph glyph-name="period" unicode="." horiz-adv-x="215" 
d="M46 53q0 26 17 43t44 17t44.5 -17t17.5 -43q0 -28 -17.5 -45.5t-44.5 -17.5t-44 17.5t-17 45.5z" />
    <glyph glyph-name="slash" unicode="/" horiz-adv-x="384" 
d="M350 730h24l-340 -934h-24z" />
    <glyph glyph-name="zero" unicode="0" horiz-adv-x="625" 
d="M43 351q0 82 20 149t56 114.5t86 73.5t110 26q59 0 108 -26t84.5 -73.5t55 -114.5t19.5 -149t-19.5 -149t-55 -114.5t-84.5 -73.5t-108 -26q-60 0 -110 26t-86 73.5t-56 114.5t-20 149zM316 4q83 0 125 80t42 247v40q0 167 -42 247t-125 80q-87 0 -130.5 -80t-43.5 -247
v-40q0 -167 43.5 -247t130.5 -80z" />
    <glyph glyph-name="one" unicode="1" horiz-adv-x="346" 
d="M35 6q0 7 5 8l79 2q7 1 10.5 3t3.5 11v640q0 10 -4 13t-12 3h-74q-5 0 -5 8t5 8h57h56.5t54.5 2q12 0 12 -12v-663q0 -8 3.5 -10t9.5 -3l76 -2q5 -2 5 -8q0 -8 -5 -8q-31 1 -50.5 1.5t-33.5 0.5h-25h-25h-25.5h-25.5t-34.5 -0.5t-52.5 -1.5q-5 0 -5 8z" />
    <glyph glyph-name="two" unicode="2" horiz-adv-x="568" 
d="M37 510q0 50 18 88t49.5 64t73 39.5t88.5 13.5q50 0 92 -14t72 -40.5t47 -65t17 -87.5t-15.5 -86t-42.5 -67.5t-63 -57.5t-76 -56.5t-82.5 -65.5t-83.5 -83q0 -4 3 -4q30 2 57 2.5t53 1.5t53.5 1h60.5q36 0 61 4t44 16t32.5 35t26.5 61q1 4 7 4q9 0 9 -6l-83 -204
q-2 -5 -9 -5q-35 1 -61.5 1.5t-49 0.5h-42h-39.5h-39t-37.5 -0.5t-49 -1.5t-73.5 -3q-6 0 -11 8.5t-5 13.5q0 6 5 12q18 23 36.5 43t38 39.5t41 39t45.5 41.5q43 40 77.5 77.5t58.5 75.5t37 77.5t13 83.5v4q0 46 -12.5 79.5t-34 55.5t-50.5 32.5t-62 10.5q-39 0 -72 -13
t-57 -36.5t-37 -56.5t-13 -72q0 -46 21 -86.5t62 -68.5q0 -3 -2 -7.5t-7 -4.5q-1 0 -2 0.5t-6 3.5q-46 31 -64 74.5t-18 88.5z" />
    <glyph glyph-name="three" unicode="3" horiz-adv-x="532" 
d="M36 150q0 3 3 5t5 2q3 0 6 -3q18 -66 69 -107.5t128 -41.5t113 49t36 159v17q0 104 -34 154t-102 50q-18 0 -35 -4.5t-36 -16.5t-42 -33.5t-54 -54.5q-13 0 -13 12l292 283l-1 2h-99t-106 -2q-31 -1 -46 -6.5t-27 -30.5l-27 -57q-3 -4 -6 -4q-10 0 -10 7l71 165q4 8 13 8
h66.5t84.5 0.5t92 1.5t89 3q2 0 4.5 -3t2.5 -6t-3 -6l-261 -252l2 -1q15 6 33 10t41 4q44 0 82.5 -15.5t67.5 -44.5t45.5 -71.5t16.5 -95.5q0 -54 -17.5 -98t-49.5 -75t-77 -48t-100 -17q-81 0 -140 42t-77 120z" />
    <glyph glyph-name="four" unicode="4" horiz-adv-x="514" 
d="M14 252l332 456q5 8 9.5 9.5t9.5 1.5h6q11 0 11 -11q-1 -102 -1 -217.5v-227.5q0 -6 6 -6h40q23 0 33.5 11t10.5 41v18q0 5 9 5q7 0 7 -5q-2 -32 -2 -47.5v-29.5v-28.5t2 -44.5q0 -5 -8 -5t-8 5v14q0 27 -10.5 38t-33.5 11h-40q-6 0 -6 -6v-114t1 -114q0 -6 -5 -6h-79
q-6 0 -6 6v228q0 6 -6 6h-263q-3 0 -6 3.5t-3 8.5zM37 257h249q6 0 6 6v344z" />
    <glyph glyph-name="five" unicode="5" horiz-adv-x="519" 
d="M27 195q0 6 9 6q5 0 7 -4q5 -45 21 -80t40.5 -59t56 -36.5t67.5 -12.5q77 0 115 52.5t38 164.5v31q0 101 -34 149.5t-103 48.5q-56 0 -93 -33t-68 -94q-2 -5 -8 -5q-10 0 -12 9l98 361q2 6 4.5 7.5t7.5 1.5h180q44 0 65.5 15.5t34.5 55.5q1 4 6 4q3 0 6.5 -2t3.5 -5
l-5 -15q-8 -37 -20.5 -63t-31.5 -42.5t-45.5 -24.5t-62.5 -8q-31 0 -61.5 0.5t-75.5 2.5q-9 0 -12 -10l-61 -222h2q17 27 37.5 44.5t43 27.5t46.5 14t46 4q51 0 91 -17t67.5 -47.5t41.5 -73.5t14 -95q0 -55 -16 -101.5t-46.5 -81t-75.5 -54t-103 -19.5q-86 0 -144 51.5
t-71 154.5z" />
    <glyph glyph-name="six" unicode="6" horiz-adv-x="551" 
d="M43 306q0 84 21.5 158.5t60 129.5t91.5 87t117 32q33 0 62 -8.5t50.5 -24t33.5 -36.5t12 -46q0 -38 -42 -38q-18 0 -29.5 8t-11.5 24q0 14 3.5 26t3.5 26q0 27 -22 40t-60 13q-48 0 -84 -23t-59.5 -67t-35.5 -107.5t-14 -144.5l1 -1q11 36 29.5 60.5t40.5 39.5t46 21.5
t48 6.5q46 0 83.5 -17t64 -48t41 -74.5t14.5 -97.5q0 -56 -16.5 -103.5t-46.5 -81.5t-71.5 -53t-92.5 -19q-53 0 -97 22t-75.5 63.5t-48.5 100.5t-17 132zM282 5q31 0 54.5 12.5t39.5 39.5t24 70t8 105v24q0 108 -32.5 156t-86.5 48q-31 0 -57.5 -14t-46 -37t-30.5 -53
t-11 -63v-36q0 -131 34.5 -191.5t103.5 -60.5z" />
    <glyph glyph-name="seven" unicode="7" horiz-adv-x="502" 
d="M87 695q3 7 10 7h204h24h30t47 0.5t76 1.5q11 -4 12 -15q-9 -19 -22 -40t-27 -39q-80 -106 -157.5 -211t-154.5 -211q-28 -38 -38.5 -65t-10.5 -48q0 -35 26 -48h1q2 29 16 43t36 14t34 -12t12 -32q0 -24 -16.5 -37.5t-44.5 -13.5q-36 0 -59.5 22t-23.5 61q0 28 14 57
t45 74q149 207 306 414l-1 2h-340q-7 0 -10 -3t-7 -11l-35 -82q-2 -2 -6 -2q-10 0 -10 7z" />
    <glyph glyph-name="eight" unicode="8" horiz-adv-x="547" 
d="M38 185q0 63 36.5 112.5t122.5 71.5q-63 29 -95 70.5t-32 102.5q0 79 55 125.5t155 46.5q45 0 83 -10t65.5 -29.5t42.5 -48.5t15 -67q0 -51 -31.5 -91.5t-106.5 -61.5q85 -36 123 -86t38 -122q0 -97 -62 -153.5t-174 -56.5q-54 0 -97 13.5t-74 39t-47.5 62t-16.5 82.5z
M110 185q0 -92 43 -136.5t121 -44.5q81 0 122 43t41 112q0 63 -37.5 103.5t-111.5 68.5l-61 25q-4 2 -6 2q-54 -17 -82.5 -59.5t-28.5 -113.5zM144 576q0 -51 29.5 -81.5t95.5 -56.5l56 -22q93 37 93 140q0 69 -36 105.5t-104 36.5q-63 0 -98.5 -32.5t-35.5 -89.5z" />
    <glyph glyph-name="nine" unicode="9" horiz-adv-x="551" 
d="M43 456q0 56 16.5 103.5t46.5 81.5t71.5 53t92.5 19q53 0 97 -22t75.5 -63.5t48.5 -100t17 -132.5q0 -84 -21.5 -158.5t-60 -129.5t-92 -87t-116.5 -32q-33 0 -62 8.5t-50.5 24t-33.5 36.5t-12 46q0 38 41 38q19 0 30.5 -8t11.5 -24q0 -14 -3.5 -26t-3.5 -26
q0 -27 22 -40t60 -13q48 0 83.5 23t59.5 67t36.5 107.5t13.5 144.5l-1 1q-12 -36 -30 -60.5t-40 -39.5t-46.5 -21.5t-47.5 -6.5q-46 0 -83.5 17t-64 48t-41 74.5t-14.5 97.5zM142 469v-24q0 -108 32.5 -156t87.5 -48q31 0 57.5 14t46 37t30.5 53t11 63v36q0 131 -34.5 191.5
t-103.5 60.5q-31 0 -54.5 -12.5t-39.5 -39.5t-24.5 -70t-8.5 -105z" />
    <glyph glyph-name="colon" unicode=":" horiz-adv-x="215" 
d="M46 387q0 27 17 44t44 17t44.5 -17t17.5 -44t-17.5 -45t-44.5 -18t-44 18t-17 45zM107 113q27 0 44.5 -17t17.5 -43q0 -28 -17.5 -45.5t-44.5 -17.5t-44 17.5t-17 45.5q0 26 17 43t44 17z" />
    <glyph glyph-name="semicolon" unicode=";" horiz-adv-x="253" 
d="M112 105q41 0 63.5 -31.5t22.5 -79.5q0 -18 -4.5 -41.5t-18.5 -49t-38.5 -52t-65.5 -49.5q-8 0 -8 11q54 34 81 77.5t27 86.5q0 14 -4 30t-16 27h-2q-2 -21 -15 -31.5t-33 -10.5q-23 0 -38 14.5t-15 40.5q0 28 18 43t46 15zM46 387q0 27 17 44t44 17t44.5 -17t17.5 -44
t-17.5 -45t-44.5 -18t-44 18t-17 45z" />
    <glyph glyph-name="less" unicode="&#x3c;" horiz-adv-x="600" 
d="M565 461v-21l-509 -190l509 -190v-21l-530 199v24z" />
    <glyph glyph-name="equal" unicode="=" horiz-adv-x="600" 
d="M35 367h530v-21h-530v21zM565 155v-21h-530v21h530z" />
    <glyph glyph-name="greater" unicode="&#x3e;" horiz-adv-x="600" 
d="M35 440v21l530 -199v-24l-530 -199v21l509 190z" />
    <glyph glyph-name="question" unicode="?" horiz-adv-x="421" 
d="M19 621q0 43 41 72.5t112 29.5q49 0 89.5 -14.5t69.5 -41t45 -64t16 -82.5q0 -72 -37 -116t-111 -73q-17 -7 -27.5 -10t-24.5 -8q-36 -13 -48 -31t-12 -53v-52q0 -4 -4 -4h-9q-4 0 -4 4v53q0 40 14.5 61.5t54.5 37.5q33 14 55.5 28.5t36.5 35.5t20 51t6 75q0 52 -7.5 88
t-23 58t-39 31.5t-55.5 9.5q-10 0 -22 -2t-21.5 -7t-16 -14t-6.5 -23q0 -11 3 -20t3 -20q0 -24 -13.5 -37.5t-36.5 -13.5t-35.5 13.5t-12.5 37.5zM128 97q23 0 38 -15t15 -38t-15 -38.5t-38 -15.5t-38.5 15.5t-15.5 38.5t15.5 38t38.5 15z" />
    <glyph glyph-name="at" unicode="@" horiz-adv-x="796" 
d="M44 220q0 77 26.5 145t76.5 119t122 80.5t163 29.5q80 0 139.5 -21t99.5 -57t60 -84t20 -103q0 -59 -21.5 -108t-56 -84t-78.5 -54.5t-89 -19.5q-74 0 -74 52q0 23 14 58h-2q-48 -64 -88 -86.5t-77 -22.5q-42 0 -66.5 22t-24.5 73q0 48 22.5 99t58.5 93.5t81.5 70
t91.5 27.5q69 0 81 -59q13 31 23 48q3 5 4.5 6.5t6.5 1.5h48q6 0 6 -5q0 -2 -0.5 -4.5t-4.5 -11.5l-91 -234q-9 -24 -15 -44.5t-6 -35.5q0 -12 6 -20t29 -8q30 0 61 17t56 48.5t41 76.5t16 101q0 63 -20 110t-55.5 78.5t-85 47t-109.5 15.5q-76 0 -138 -27t-106 -75
t-68.5 -113.5t-24.5 -141.5q0 -78 24 -134.5t65.5 -93t98 -53.5t121.5 -17q79 0 132.5 18.5t85.5 37.5q8 -3 8 -14q-13 -9 -34.5 -19t-50.5 -18.5t-65.5 -14.5t-79.5 -6q-83 0 -149 22t-112.5 63t-71 99t-24.5 130zM253 142q0 -57 45 -57q20 0 43 12.5t46 33.5t43 48t34 56
q22 47 34 82.5t12 53.5q0 27 -16 43.5t-41 16.5q-24 0 -48 -15.5t-46 -40t-41.5 -56t-34 -63.5t-22.5 -62t-8 -52z" />
    <glyph glyph-name="A" unicode="A" horiz-adv-x="652" 
d="M2 7q0 6 5 8l77 1q14 0 18 12l225 682q3 7 8 7h5q6 0 9 -8l217 -678q2 -8 7 -10.5t23 -3.5l49 -2q6 0 6 -8t-6 -8q-26 0 -43 0.5t-30 0.5h-24.5h-26.5h-31h-28t-36.5 -0.5t-55.5 -1.5q-5 0 -5 8t5 8l83 2q14 1 14 11q0 2 -0.5 3.5l-1.5 4.5l-62 202q-2 5 -6 5h-204
q-3 0 -5 -5l-66 -203q-2 -6 -2 -9q0 -9 14 -9l81 -2q5 0 5 -8t-5 -8q-27 1 -44.5 1.5t-28.5 0.5h-19h-16h-16h-19.5t-26.5 -0.5t-38 -1.5q-5 0 -5 9zM197 262q0 -5 4 -5h189q5 0 5 5v2t-2 6l-94 305l-101 -307q-1 -4 -1 -6z" />
    <glyph glyph-name="B" unicode="B" horiz-adv-x="638" 
d="M31 7q0 6 5 8l82 2q5 0 10 2.5t5 12.5v641q0 8 -4 10.5t-9 2.5l-80 1q-5 0 -5 8t5 8q37 0 59 -0.5t36.5 -0.5h25h23.5h19h17t20 0.5t27 0.5q19 0 32.5 0.5t25.5 0.5h24.5h30.5q79 0 121 -39.5t42 -113.5q0 -39 -10.5 -66.5t-31 -47t-50.5 -31.5t-69 -18v-2
q111 -5 164.5 -51.5t53.5 -140.5q0 -90 -47.5 -143t-151.5 -53h-30.5h-24t-24.5 0.5t-31 0.5q-20 0 -34 0.5t-26 0.5h-24h-27h-30.5h-31t-36 -0.5t-46.5 -0.5q-5 0 -5 8zM244 17q14 -1 30 -1h47q49 0 82 10.5t53 32.5t28.5 56.5t8.5 82.5v2q0 46 -8.5 79t-28 54t-52.5 31
t-81 10h-86q-7 0 -7 -7v-337q0 -8 3.5 -10.5t10.5 -2.5zM237 390h57q45 0 74.5 8t47.5 26t25.5 46t7.5 68v3q0 78 -31.5 112.5t-109.5 34.5h-19.5t-21.5 -1q-18 0 -27.5 -2.5t-9.5 -10.5v-277q0 -7 7 -7z" />
    <glyph glyph-name="C" unicode="C" horiz-adv-x="706" 
d="M44 348q0 85 24.5 154t69.5 117.5t108.5 74.5t141.5 26q65 0 127 -18t111 -43q7 -3 7 -13v-156q0 -5 -8 -5t-9 8q-7 47 -17.5 80t-28.5 56q-31 40 -77 57.5t-103 17.5q-119 0 -175 -82.5t-56 -263.5v-1q0 -96 13 -164t41 -111t71 -62.5t104 -19.5q68 0 116.5 24t74.5 68
q16 27 24 67t15 81q1 7 8 7q8 0 8 -5l-2 -177q0 -6 -1.5 -8.5t-5.5 -4.5q-55 -33 -115 -50.5t-122 -17.5q-79 0 -142.5 25.5t-108.5 73t-69 114.5t-24 151z" />
    <glyph glyph-name="D" unicode="D" horiz-adv-x="777" 
d="M31 695q0 9 5 9q30 -1 48 -1.5t32 -0.5h27h31h29h27.5t31.5 0.5t41 0.5q26 0 45 0.5t34.5 0.5h30h31.5q140 0 214.5 -87.5t74.5 -255.5q0 -181 -85.5 -272.5t-237.5 -91.5q-28 0 -55 0.5t-68 1.5q-19 0 -34 0.5t-28 0.5h-25h-26h-31.5h-27.5t-32 -0.5t-47 -1.5q-5 0 -5 9
q0 8 5 8l73 2q6 0 11 3.5t5 11.5v638q0 15 -16 15l-73 2q-5 0 -5 8zM221 671v-640q0 -14 14 -14q40 -2 79.5 -2.5t79.5 -0.5q60 0 104 18.5t72.5 58.5t42 103t13.5 151v10q0 170 -52 251.5t-160 81.5l-100 -1q-22 0 -34.5 -0.5t-20 -0.5t-12.5 -0.5t-12 -0.5q-14 0 -14 -14z
" />
    <glyph glyph-name="E" unicode="E" horiz-adv-x="680" 
d="M31 6q0 8 4 8l82 2q7 0 11.5 4.5t4.5 10.5v639q0 6 -4.5 10.5t-11.5 4.5l-78 2q-4 0 -4 8t4 8q33 0 53.5 -0.5t35.5 -0.5h26.5h26.5h62h52.5h52.5t61.5 0.5t80 1t108.5 0.5q6 0 6 -6v-185q0 -5 -8 -5t-8 5q0 54 -8.5 88t-29.5 52.5t-56 25.5t-88 7h-162q-5 0 -10 -3.5
t-5 -12.5v-294q0 -6 6 -6h45q50 0 80 2.5t46.5 14.5t22 38t6.5 74q0 5 8 5t8 -5q-1 -45 -1 -75v-62v-64.5t1 -77.5q0 -5 -8 -5t-8 5q-1 49 -6.5 76t-21.5 40t-46.5 15.5t-80.5 2.5h-45q-6 0 -6 -6v-316q0 -16 15 -16h173q61 0 100.5 9t63 31.5t32.5 62t9 99.5q0 4 8 4
q9 0 9 -4l-3 -214q0 -6 -5 -6q-68 0 -117 0.5t-85.5 1t-64.5 0.5h-54.5h-54.5h-65h-35h-31.5t-37 -0.5t-51.5 -1.5q-4 0 -4 8z" />
    <glyph glyph-name="F" unicode="F" horiz-adv-x="642" 
d="M31 696q0 8 5 8q28 0 48 -0.5t36.5 -1t31.5 -0.5h34h61.5h51h51.5t61.5 0.5t81 1t111.5 0.5q6 0 6 -6v-192q0 -5 -8 -5q-7 0 -9 5q-1 42 -9.5 81.5t-25.5 59.5q-20 23 -57.5 31t-94.5 8h-163q-13 0 -13 -14v-300q0 -6 6 -6h49q48 0 78 3.5t46.5 17.5t22.5 41t6 75
q0 5 8 5q9 0 9 -5v-284q0 -4 -9 -4q-8 0 -8 4q0 48 -6.5 74t-24 38.5t-47 15t-75.5 2.5h-49q-6 0 -6 -5v-315q0 -14 14 -14l96 -1q4 0 4 -8t-4 -8q-36 1 -58 1.5t-37.5 0.5h-29h-32.5h-33h-31.5t-36 -0.5t-47.5 -0.5q-4 0 -4 8t4 8h86q5 1 9 3.5t4 10.5v643q0 14 -15 14
l-83 2q-5 0 -5 8z" />
    <glyph glyph-name="G" unicode="G" horiz-adv-x="764" 
d="M44 346q0 87 24.5 156t70 117.5t110.5 74t146 25.5q134 0 222 -45q7 -3 7 -13v-175q0 -5 -8 -5t-8 7q-5 103 -56.5 159t-158.5 56q-58 0 -102 -19t-73.5 -61.5t-44 -110.5t-14.5 -165v-1q0 -172 54 -257t173 -85q36 0 67.5 7.5t55.5 21.5t37.5 33.5t13.5 44.5v194
q0 10 -5 12.5t-11 2.5l-82 2q-4 0 -4 8t4 8q32 -1 52 -1.5t34.5 -0.5h27.5h30h30.5h26t31 0.5t44.5 1.5q5 0 5 -8t-5 -8l-67 -2q-6 0 -10.5 -2.5t-4.5 -12.5v-217q0 -7 -6 -12q-37 -28 -71 -45t-66 -27t-64 -13.5t-65 -3.5q-83 0 -146.5 25t-106.5 71.5t-65 113t-22 149.5z
" />
    <glyph glyph-name="H" unicode="H" horiz-adv-x="795" 
d="M31 695q0 8 5 8q29 0 48.5 -0.5t35 -0.5h29h30.5h33h31t35.5 0.5t47.5 1.5q5 0 5 -8t-5 -8l-83 -1q-15 0 -15 -16v-299q0 -6 6 -6h324q6 0 6 6v301q0 14 -16 14l-82 1q-5 0 -5 8t5 8q32 -1 53 -1.5t37 -0.5h29h29h30.5h29t35 0.5t48.5 0.5q4 0 4 -8t-4 -8h-82
q-15 0 -15 -14v-642q0 -16 16 -16h83q5 0 5 -7q0 -9 -5 -9q-26 0 -45.5 0.5t-36 0.5h-31h-31.5h-27.5h-28t-36.5 -0.5t-54 -1.5q-5 0 -5 8q0 9 5 9l80 1q15 0 15 14v313q0 6 -6 6h-324q-6 0 -6 -6v-314q0 -13 14 -13l85 -1q4 0 4 -8q0 -9 -4 -9q-31 1 -51 1.5t-35.5 0.5
h-29.5h-32h-30h-27.5t-34.5 -0.5t-51 -0.5q-5 0 -5 8t5 8l82 1q14 1 14 14v644q0 13 -14 13h-82q-5 0 -5 8z" />
    <glyph glyph-name="I" unicode="I" horiz-adv-x="368" 
d="M36 704q34 -1 55.5 -1.5t36.5 -0.5h27.5h27.5h33.5h31.5t36 0.5t47 1.5q6 0 6 -9q0 -8 -6 -8h-85q-14 0 -14 -14v-645q0 -8 3.5 -10.5t8.5 -2.5h87q5 0 5 -8t-5 -8q-32 0 -52 0.5t-35 0.5h-28.5h-32.5h-31h-28.5t-35.5 -0.5t-51 -0.5q-5 0 -5 8t5 8l83 1q6 0 11 2.5
t5 12.5v643q0 8 -4 10.5t-9 2.5l-87 1q-5 0 -5 8t5 8z" />
    <glyph glyph-name="J" unicode="J" horiz-adv-x="457" 
d="M71 140q24 0 39.5 -16t15.5 -40q0 -21 -12.5 -36.5t-35.5 -20.5q29 -23 76 -23q35 0 53.5 16.5t18.5 54.5v595q0 10 -4 12.5t-10 2.5l-85 2q-4 1 -4 9q0 7 4 7q30 0 50 -0.5t35 -0.5h29h32h31.5h28.5t34.5 0.5t49.5 0.5q5 0 5 -8q0 -6 -5 -8l-79 -2q-6 0 -11 -2.5
t-5 -12.5v-560q0 -122 -160 -122q-65 0 -106 24.5t-41 68.5q0 27 16 43t40 16z" />
    <glyph glyph-name="K" unicode="K" horiz-adv-x="695" 
d="M31 7q0 8 5 8h85q13 1 13 14v643q0 15 -14 15h-83q-5 0 -5 8t5 8q30 0 49.5 -0.5t34 -0.5h28h31.5h29h26.5t33 0.5t47.5 1.5q5 0 5 -7q0 -9 -5 -9l-72 -1q-14 0 -14 -15v-271q0 -6 6 -6h53l186 271q5 10 5 12q0 8 -12 9l-64 1q-5 0 -5 8t5 8q23 -1 37.5 -1.5t24.5 -0.5
h17.5h14.5h38t49 1q5 0 5 -8t-5 -8l-67 -2q-12 0 -18 -9l-149 -217l250 -433q5 -9 19 -9l65 -2q5 0 5 -8t-5 -8q-30 0 -48.5 0.5t-32 0.5h-24h-24.5h-26.5h-26.5t-36.5 -0.5t-56.5 -1.5q-5 0 -5 8t5 8l68 1q12 0 12 7q0 4 -5 12l-191 342q-3 4 -7 4h-51q-6 0 -6 -5v-346
q0 -14 14 -14l82 -1q5 0 5 -9q0 -7 -5 -7q-31 1 -51 1.5t-35 0.5h-28.5h-31.5h-29h-26.5t-35 -0.5t-53.5 -0.5q-5 0 -5 8z" />
    <glyph glyph-name="L" unicode="L" horiz-adv-x="672" 
d="M31 7q0 8 5 8l88 2q13 0 13 13v641q0 10 -5 13t-10 3h-83q-5 0 -5 8t5 8q32 0 51.5 -0.5t34.5 -0.5h28h31h30h28t35.5 0.5t53.5 1.5q6 0 6 -8t-6 -8l-82 -2q-6 0 -11 -3t-5 -13v-640q0 -14 14 -14h165q58 0 96.5 7.5t59.5 30.5q25 26 36 69.5t18 111.5q2 5 9 5q8 0 8 -5
v-229q0 -8 -7 -8q-72 0 -123 0.5t-88.5 1t-65.5 0.5h-53.5h-53h-63.5h-31.5h-28.5t-35.5 -0.5t-53.5 -0.5q-5 0 -5 8z" />
    <glyph glyph-name="M" unicode="M" horiz-adv-x="930" 
d="M36 704q25 -1 40.5 -1.5t26.5 -0.5h19h18h41.5t51.5 2q6 0 8 -5l230 -578l221 579q1 4 7 4q23 -1 38 -1.5t26 -0.5h19h17h15.5h17.5t24.5 0.5t37.5 0.5q5 0 5 -8t-5 -8l-83 -2q-13 0 -13 -11v-646q0 -11 14 -11l82 -2q4 0 4 -8t-4 -8q-35 0 -57 0.5t-37 0.5h-26h-24h-24
h-25.5t-36.5 -0.5t-57 -1.5q-5 0 -5 8t5 8l81 3q6 0 9.5 2t3.5 10v644h-2l-256 -674q-3 -7 -9 -7h-4q-6 0 -10 7l-270 672h-2v-643q0 -8 3.5 -10.5t8.5 -2.5l83 -1q5 0 5 -8t-5 -8q-24 1 -40 1.5t-27 0.5h-19h-18h-21h-19.5t-23.5 -0.5t-32 -0.5q-4 0 -4 8t4 8h76q5 0 9 2.5
t4 10.5v642q0 9 -4.5 11.5t-11.5 3.5l-80 2q-5 0 -5 8q0 9 5 9z" />
    <glyph glyph-name="N" unicode="N" horiz-adv-x="759" 
d="M36 704q23 -1 38 -1.5t25.5 -0.5h18h15.5h17h19t26.5 0.5t39.5 0.5q3 0 5 -1t6 -6l377 -548h1v524q0 14 -14 14l-80 2q-5 0 -5 8t5 8q25 -1 40.5 -1.5t26.5 -0.5h19h17h17h18.5t25.5 0.5t39 0.5q5 0 5 -7q0 -9 -5 -9l-78 -1q-14 0 -14 -14v-672q0 -10 -9 -10h-5
q-8 0 -14 10l-459 665h-2v-636q0 -14 14 -14l81 -1q5 0 5 -8t-5 -8q-25 1 -41.5 1.5t-27 0.5h-18h-16.5h-17h-18.5t-26 -0.5t-40.5 -0.5q-5 0 -5 8t5 8h80q14 0 14 13v642q0 10 -4.5 12.5t-10.5 2.5l-85 2q-5 0 -5 8q0 9 5 9z" />
    <glyph glyph-name="O" unicode="O" horiz-adv-x="742" 
d="M44 347q0 84 23.5 152.5t67 117t104 75t133.5 26.5t133 -25.5t103 -72.5t66.5 -114t23.5 -150q0 -84 -23.5 -152.5t-66.5 -117t-103 -75.5t-133 -27t-133.5 25.5t-104 73t-67 114.5t-23.5 150zM373 0q110 0 161.5 82t51.5 265v2q0 182 -53 267.5t-160 85.5
q-112 0 -164.5 -82t-52.5 -265v-1q0 -185 52.5 -269.5t164.5 -84.5z" />
    <glyph glyph-name="P" unicode="P" horiz-adv-x="602" 
d="M37 703q34 0 55 -0.5t36 -0.5h27h28h20.5h19t20.5 0.5t26 0.5q16 0 27.5 0.5t21.5 1t19.5 0.5h20.5q106 0 157 -46t51 -149q0 -193 -208 -193h-126q-4 0 -4 -4v-284q0 -14 13 -14l81 -1q6 0 6 -8t-6 -8q-32 1 -52.5 1.5t-35 0.5h-27h-28.5h-31.5h-28t-33 -0.5t-48.5 -0.5
q-5 0 -5 8t5 8h80q13 1 13 14v642q0 16 -15 16h-79q-6 0 -6 8t6 8zM228 337q0 -3 4 -3h100q69 0 99.5 38.5t30.5 130.5v3q0 52 -8 87t-24 56t-41 30t-59 9q-23 0 -48.5 -0.5t-41.5 -1.5q-12 0 -12 -12v-337z" />
    <glyph glyph-name="Q" unicode="Q" horiz-adv-x="774" 
d="M44 341q0 83 24.5 151.5t69.5 118t108.5 77t140.5 27.5t140 -26t108 -74t69.5 -116t24.5 -151q0 -81 -24.5 -148t-69.5 -115t-108.5 -74t-140.5 -26q-8 0 -23 0.5t-33 3.5v-1q8 -7 17 -11t23 -9q38 -14 53.5 -42t16.5 -87q2 -54 22 -74.5t72 -20.5h23q6 0 6 -8t-6 -8h-63
q-79 0 -113 26.5t-34 92.5v32q0 56 -16 83.5t-52 37.5q-53 14 -96.5 43.5t-74 73t-47.5 100t-17 124.5zM386 1q59 0 102 19.5t71 61.5t41.5 107t13.5 156v1q0 186 -55 269.5t-172 83.5q-60 0 -102.5 -20t-70.5 -62.5t-41 -109.5t-13 -160v-1q0 -92 13 -157.5t40.5 -107
t70.5 -61t102 -19.5z" />
    <glyph glyph-name="R" unicode="R" horiz-adv-x="672" 
d="M36 15l88 2q13 0 13 14v641q0 14 -13 14l-84 1q-6 0 -6 8t6 8q26 0 46 -0.5t36.5 -0.5h32h33.5h168q91 0 139.5 -41t48.5 -117q0 -69 -42.5 -112.5t-130.5 -59.5v-1q102 -5 147 -40.5t52 -106.5l15 -148q4 -37 21 -51.5t59 -14.5h14.5t17.5 1q6 0 6 -8t-10 -9t-23.5 -1.5
l-27 -1t-26.5 -0.5h-23q-61 0 -88 23t-30 80l-7 125q-4 72 -37 106t-102 34h-90q-5 0 -5 -5v-322q0 -16 15 -16l80 -1q5 0 5 -9q0 -8 -5 -8q-29 1 -49.5 1.5t-36.5 0.5h-29.5h-27.5h-28.5h-32t-39 -0.5t-50.5 -0.5q-5 0 -5 8t5 8zM233 381q0 -6 6 -6h55q77 0 111 35t34 125
v3q0 74 -29.5 111t-83.5 37h-48t-33 -1q-12 0 -12 -13v-291z" />
    <glyph glyph-name="S" unicode="S" horiz-adv-x="529" 
d="M42 260q8 0 9 -8q8 -48 21 -92.5t37.5 -79t62.5 -55.5t95 -21q81 0 123.5 40.5t42.5 105.5q0 29 -10 52t-31 43.5t-54 39.5t-79 40q-40 18 -74.5 37.5t-59.5 44t-39 55.5t-14 71t13.5 73.5t39.5 58t64 38t86 13.5q37 0 81 -8t86 -26q9 -5 10 -13l3 -153q0 -6 -8 -6t-9 7
q-6 36 -17.5 68.5t-31.5 58t-49 40.5t-70 15q-62 0 -97.5 -31.5t-35.5 -85.5q0 -28 11 -50t32 -40.5t51 -34.5t68 -33q43 -19 79.5 -39.5t63 -47t41.5 -59.5t15 -76q0 -45 -14.5 -84t-44 -68t-74.5 -45.5t-107 -16.5q-45 0 -101 10.5t-109 31.5q-6 3 -7.5 5t-2.5 8l-4 211
q0 6 8 6z" />
    <glyph glyph-name="T" unicode="T" horiz-adv-x="634" 
d="M13 697q0 7 8 7q53 -1 92.5 -1.5t72.5 -0.5h64h67h67h64t72.5 0.5t93.5 1.5q7 0 7 -8v-198q0 -5 -8 -5t-8 5q-7 59 -16.5 91t-26.5 55q-18 25 -48.5 33t-78.5 8h-56q-13 0 -13 -13v-640q0 -16 15 -16l87 -2q6 0 6 -8t-6 -8q-47 2 -81.5 2h-69.5h-32.5t-33 -0.5t-38.5 -1
t-50 -1.5q-5 0 -5 9q0 7 5 7l93 3q13 0 13 13v643q0 14 -13 14h-54q-53 0 -84.5 -12t-49.5 -35.5t-25.5 -59.5t-12.5 -84q-2 -5 -8 -5q-9 0 -9 5v202z" />
    <glyph glyph-name="U" unicode="U" horiz-adv-x="783" 
d="M40 703q34 0 55 -0.5t36 -0.5h27h28h29.5h28t38.5 0.5t60 1.5q6 0 6 -8t-6 -8l-95 -1q-6 0 -10 -3t-4 -12v-506q0 -43 10.5 -72.5t33 -48t59.5 -26.5t89 -8q109 0 159 41t50 136v484q0 9 -4 11.5t-10 2.5l-81 2q-5 0 -5 8t5 8q25 -1 41 -1.5t27 -0.5h19h18h18.5h19
t25.5 0.5t38 0.5q6 0 6 -7q0 -9 -6 -9l-79 -1q-7 0 -11 -2.5t-4 -11.5v-482q0 -54 -14 -92t-44.5 -62t-79 -35t-116.5 -11q-132 0 -196 38.5t-64 122.5v521q0 9 -3.5 11.5t-10.5 3.5h-83q-5 0 -5 9q0 7 5 7z" />
    <glyph glyph-name="V" unicode="V" horiz-adv-x="638" 
d="M7 704q27 -1 44.5 -1.5t31 -0.5h25h26.5h28.5h27.5t35.5 0.5t52.5 1.5q6 0 6 -8t-6 -8l-81 -3q-13 0 -13 -8q0 -2 0.5 -3.5t1.5 -5.5l179 -533h2l159 534q2 5 2.5 7t0.5 4q0 5 -10 7l-81 1q-5 0 -5 8t5 8q22 -1 36.5 -1.5t25 -0.5h20h22.5h17.5h17t22.5 0.5t32 0.5
q5 0 5 -7q0 -9 -5 -9h-68q-8 -1 -12 -3t-6 -10l-202 -673q-3 -11 -11 -11h-3q-9 0 -12 10q-48 169 -108 334.5t-126 340.5q-4 10 -15 11l-61 2q-5 0 -5 8t5 8z" />
    <glyph glyph-name="W" unicode="W" horiz-adv-x="1069" 
d="M2 695q0 8 5 8q28 0 45.5 -0.5t30.5 -0.5h24h26h28h27.5t38 0.5t58.5 1.5q5 0 5 -8t-5 -8l-83 -1q-4 -1 -7 -1.5t-3 -5.5q0 -2 0.5 -3.5t2.5 -8.5l176 -530l159 531q2 5 2 6.5v2.5q0 8 -12 9l-84 1q-5 0 -5 9q0 7 5 7q31 -1 50.5 -1.5t34 -0.5h26h26.5h27.5h25t31.5 0.5
t46 1.5q5 0 5 -8t-5 -8l-77 -1q-4 0 -8 -1.5t-4 -6.5q0 -4 2 -9l175 -533l163 528q2 8 3 10t1 3q0 8 -12 9l-81 1q-5 0 -5 8t5 8q24 -1 39.5 -1.5t26.5 -0.5h20h20h18.5h18t22.5 0.5t32 0.5q5 0 5 -8q0 -9 -5 -9h-70q-14 0 -18 -13l-210 -676q-2 -6 -4 -7.5t-5 -1.5h-5
q-4 0 -5.5 1.5t-3.5 7.5l-207 630l-188 -631q-2 -8 -9 -8h-4q-4 0 -6 1.5t-4 7.5l-233 677q-2 7 -5.5 9t-12.5 2l-65 2q-5 0 -5 8z" />
    <glyph glyph-name="X" unicode="X" horiz-adv-x="655" 
d="M2 6q0 9 5 9h79q8 1 11 3t6 9l182 317l-180 330q-7 13 -18 13h-61q-6 0 -6 9q0 7 6 7q29 0 47.5 -0.5t32 -0.5h24.5h25h33h29t33 0.5t44 1.5q6 0 6 -7q0 -9 -6 -9l-74 -1q-3 0 -7 -1.5t-4 -5.5q0 -2 5 -12l127 -231l131 231q4 9 4 11q0 5 -3.5 6.5t-6.5 1.5l-73 1
q-5 0 -5 8t5 8q28 -1 45 -1.5t28 -0.5h17h12h43.5t53.5 1q6 0 6 -8t-6 -8h-82q-6 0 -9 -3t-8 -10l-142 -255l214 -389q4 -8 8 -10.5t12 -2.5l63 -2q5 0 5 -8t-5 -8q-29 0 -48 0.5t-33 0.5h-25.5h-24.5h-30t-28 -0.5t-36 -1t-55 -1.5q-5 0 -5 9q0 7 5 7l80 2q4 0 7.5 1t3.5 6
q0 3 -4 11l-161 294l-168 -293q-5 -9 -5 -13q0 -6 8 -6l82 -1q5 0 5 -8t-5 -8q-24 1 -40 1.5t-27 0.5h-19.5h-18.5h-19.5h-19t-25 -0.5t-35.5 -0.5q-5 0 -5 7z" />
    <glyph glyph-name="Y" unicode="Y" horiz-adv-x="630" 
d="M2 695q0 9 5 9q26 -1 44 -1.5t32 -0.5h27h28h32h30t37 0.5t53 1.5q5 0 5 -7q0 -9 -5 -9l-72 -1q-15 -2 -15 -10q0 -2 0.5 -3.5t2.5 -5.5l154 -266l149 267q2 4 2.5 6t0.5 3q0 8 -12 9l-77 1q-5 0 -5 9q0 7 5 7q23 -1 38.5 -1.5t26.5 -0.5h20h20h21h19.5t23 0.5t31.5 0.5
q6 0 6 -8t-6 -8l-73 -1q-8 0 -11.5 -2.5t-8.5 -9.5l-162 -291v-354q0 -13 14 -13l87 -3q5 0 5 -7q0 -9 -5 -9q-33 1 -53.5 1.5t-35.5 1t-28.5 0.5h-31.5h-29.5t-27.5 -0.5t-36 -1t-54 -1.5q-5 0 -5 8t5 8l89 3q13 0 13 13v315q0 11 -1.5 18t-7.5 16l-177 297q-5 8 -8 9.5
t-12 2.5h-62q-5 0 -5 8z" />
    <glyph glyph-name="Z" unicode="Z" horiz-adv-x="662" 
d="M451 685q-43 1 -94.5 1h-105.5q-55 0 -89 -12t-52.5 -36.5t-25.5 -62t-9 -88.5q0 -5 -9 -5q-8 0 -8 5l2 209q0 8 7 8q39 -1 70.5 -1.5t60 -0.5h55.5h57h60h56.5t60.5 0.5t71 1.5q6 -4 6 -12l-412 -674q52 -2 110.5 -2h112.5q72 0 111.5 10.5t63.5 38.5q23 26 37 71.5
t20 106.5q0 5 9 5q8 0 8 -5l-12 -239q0 -6 -6 -6q-43 1 -78.5 1.5t-67.5 0.5h-64h-69h-144.5t-142.5 -2q-4 2 -4.5 4.5t-0.5 4.5z" />
    <glyph glyph-name="bracketleft" unicode="[" horiz-adv-x="357" 
d="M90 721l229 -2q5 0 5 -8q0 -7 -5 -7l-161 -2q-8 0 -8 -8v-905q0 -8 8 -8l161 -2q5 0 5 -7q0 -8 -5 -8l-229 -2q-10 0 -10 10v939q0 10 10 10z" />
    <glyph glyph-name="backslash" unicode="\" horiz-adv-x="384" 
d="M350 -204l-340 934h24l340 -934h-24z" />
    <glyph glyph-name="bracketright" unicode="]" horiz-adv-x="357" 
d="M34 711q0 8 4 8l229 2q10 0 10 -10v-939q0 -10 -10 -10l-229 2q-4 0 -4 8q0 7 4 7l161 2q8 0 8 8v905q0 8 -8 8l-161 2q-4 0 -4 7z" />
    <glyph glyph-name="asciicircum" unicode="^" horiz-adv-x="510" 
d="M243 628h24l199 -530h-21l-190 509l-190 -509h-21z" />
    <glyph glyph-name="underscore" unicode="_" horiz-adv-x="500" 
d="M5 -105h490v-21h-490v21z" />
    <glyph glyph-name="grave" unicode="`" horiz-adv-x="500" 
d="M123 734h63q11 0 16 -10l81 -180q0 -4 -3.5 -6.5t-6.5 -2.5t-8 4l-142 167q-8 8 -9.5 11.5t-1.5 6.5q0 10 11 10z" />
    <glyph glyph-name="a" unicode="a" horiz-adv-x="505" 
d="M34 129q0 62 30 92.5t87 41.5q33 6 57 11t43 10t34.5 10.5t29.5 12.5v66q0 50 -20.5 75.5t-67.5 25.5q-38 0 -57 -16t-19 -40q0 -7 1.5 -11.5l3 -9t3 -9.5t1.5 -13q0 -21 -13 -31.5t-33 -10.5q-21 0 -33.5 10.5t-12.5 32.5q0 52 46 83t127 31q166 0 166 -143v-61t-1 -62
v-137q0 -41 9.5 -57t27.5 -16q14 0 25.5 6.5t23.5 19.5q10 0 10 -12q-18 -21 -40 -29t-54 -8q-45 0 -67 17.5t-24 58.5v32h-2q-22 -55 -56 -82t-96 -27q-63 0 -96 35t-33 104zM199 16q38 0 62 23.5t38 58.5q10 24 13.5 49t3.5 59v81l-1 2q-19 -9 -40 -15t-46 -11
q-29 -8 -48.5 -17.5t-31.5 -24.5t-17 -36.5t-5 -53.5q0 -60 19.5 -87.5t52.5 -27.5z" />
    <glyph glyph-name="b" unicode="b" 
d="M17 719h43h37t36 0.5t40 1.5q4 0 4 -4v-251v-33.5t-1 -35.5h2q47 92 155 92q96 0 147 -63.5t51 -178.5q0 -60 -14 -108t-40.5 -81.5t-64.5 -51.5t-86 -18q-56 0 -92.5 25t-56.5 69l-2 -1q1 -17 1 -34v-43q0 -4 -3 -4h-82q-4 0 -4 4v687q0 12 -12 12h-58q-5 0 -5 8t5 8z
M308 9q63 0 92 58.5t29 175.5v4q0 112 -30.5 166.5t-88.5 54.5q-27 0 -51 -11.5t-42.5 -30.5t-29 -42t-10.5 -47v-187q0 -26 9.5 -51.5t26.5 -45.5t41 -32t54 -12z" />
    <glyph glyph-name="c" unicode="c" horiz-adv-x="486" 
d="M253 -14q-50 0 -91 16t-70.5 47t-45.5 77t-16 105q0 60 16 107.5t46 81.5t72.5 52t96.5 18q42 0 76.5 -11t59 -29t38.5 -42t14 -50q0 -25 -14.5 -36.5t-34.5 -11.5q-18 0 -30.5 10.5t-12.5 32.5q0 19 3.5 30.5t0.5 27.5q-4 30 -32 46t-67 16q-35 0 -60.5 -12.5t-42 -40
t-24.5 -71.5t-8 -106v-13q0 -121 36.5 -172t108.5 -51q23 0 47.5 6.5t48 23t42.5 45t29 71.5q2 3 5 3q10 0 10 -7q-18 -78 -70 -120.5t-131 -42.5z" />
    <glyph glyph-name="d" unicode="d" horiz-adv-x="558" 
d="M30 241q0 57 13.5 102.5t38 78t60.5 49.5t81 17q115 0 159 -96h1q-1 26 -1 44.5v35.5v215q0 16 -15 16h-74q-5 0 -5 8t5 8h89.5t86.5 2q3 0 3 -4v-685q0 -16 16 -16l52 -2q4 -1 4 -8q0 -8 -4 -8q-26 1 -42.5 1.5t-27 0.5h-17.5h-16h-24.5t-26.5 -1q-3 0 -3 3v36.5t2 46.5
h-1q-22 -48 -58 -72.5t-95 -24.5q-96 0 -148.5 65.5t-52.5 187.5zM250 7q30 0 54.5 12.5t42 33t26.5 46t9 52.5v177q0 26 -10.5 51t-28.5 44.5t-42.5 31.5t-52.5 12q-119 0 -119 -220v-4q0 -121 29 -178.5t92 -57.5z" />
    <glyph glyph-name="e" unicode="e" horiz-adv-x="502" 
d="M30 239q0 59 16 105.5t45.5 79.5t71.5 50.5t94 17.5q48 0 88 -15.5t68.5 -43.5t44 -67.5t15.5 -88.5q0 -6 -5 -6h-331q-6 0 -6 -6v-45q0 -105 40 -158t112 -53q33 0 57 10t43 27t33.5 40t27.5 50q2 3 6 3q9 0 9 -8q-23 -68 -73.5 -105.5t-128.5 -37.5q-51 0 -92.5 16.5
t-71.5 49t-46.5 79t-16.5 106.5zM138 287h230q6 0 6 6v5q0 81 -29.5 129.5t-91.5 48.5q-37 0 -60.5 -16.5t-37 -42t-18.5 -57t-5 -62.5v-5q0 -6 6 -6z" />
    <glyph glyph-name="f" unicode="f" horiz-adv-x="278" 
d="M12 469q0 8 6 8h65q5 0 5 6v102q0 76 38 108t116 32q70 0 109 -26t39 -73q0 -25 -12 -39t-35 -14q-22 0 -35 11.5t-13 34.5q0 13 3 21t3 22q0 23 -15.5 35t-42.5 12q-35 0 -49.5 -19.5t-14.5 -67.5v-139q0 -6 5 -6h77q6 0 6 -8t-6 -8h-77q-5 0 -5 -6v-425q0 -14 13 -14
l70 -1q6 0 6 -9q0 -8 -6 -8q-30 1 -48.5 1.5t-31.5 0.5h-23h-24h-21.5t-21.5 -0.5t-29 -1t-45 -1.5q-6 0 -6 9q0 8 6 8l56 1q14 0 14 14v426q0 6 -5 6h-65q-6 0 -6 8z" />
    <glyph glyph-name="g" unicode="g" horiz-adv-x="523" 
d="M16 -112q0 15 4.5 31.5t17.5 32t38 28t65 19.5v2q-36 7 -59.5 19t-38 28t-20 34.5t-5.5 37.5q0 44 24 72t72 38q-33 39 -33 96q0 36 12.5 65.5t35 51t54 33t70.5 11.5q80 0 125 -47q20 27 35.5 35.5t32.5 8.5q25 0 40.5 -14t15.5 -46q0 -35 -26 -35q-14 0 -20.5 11
t-6.5 28q0 14 -4.5 23t-15.5 9q-8 0 -18 -6.5t-23 -25.5q31 -39 31 -95q0 -36 -12 -65.5t-34.5 -51t-54 -33t-70.5 -11.5q-75 0 -122 44q-38 -5 -58 -22.5t-20 -46.5q0 -63 100 -63h15t14.5 0.5t16.5 1t22 1.5q41 2 64 3t41 1q82 0 124 -39.5t42 -114.5q0 -88 -61 -138
t-176 -50q-51 0 -94 9t-74 27t-48.5 44t-17.5 59zM255 -235q45 0 81.5 10t62.5 28t40.5 44t14.5 58q0 45 -31 70t-105 25q-51 0 -82 -1t-57 -5q-52 -8 -75 -33t-23 -66q0 -63 46 -96.5t128 -33.5zM161 324q0 -78 23.5 -107t65.5 -29t65.5 29t23.5 107v6q0 40 -6 67
t-17.5 43.5t-27.5 23.5t-37 7t-38 -7t-28.5 -23.5t-17.5 -43.5t-6 -67v-6z" />
    <glyph glyph-name="h" unicode="h" horiz-adv-x="576" 
d="M12 711q0 8 4 8h76t78 2q5 0 5 -3v-250q0 -26 -0.5 -51.5t-2.5 -65.5l1 -1q14 40 33 67t42.5 43t51 23t57.5 7q68 0 101 -28t33 -94v-337q0 -15 16 -15l52 -2q4 0 4 -8t-4 -8q-23 1 -37.5 1.5t-26 0.5h-21.5h-23h-25h-23t-27.5 -0.5t-39.5 -1.5q-5 0 -5 8t5 8l49 2
q16 0 16 22v327q0 52 -20 76t-58 24q-35 0 -62.5 -18t-46.5 -46t-29 -61.5t-10 -64.5v-240q0 -19 16 -19l52 -2q5 0 5 -8t-5 -8q-24 1 -39.5 1.5t-27 0.5h-21.5h-23h-23h-22t-28.5 -0.5t-42.5 -1.5q-4 0 -4 8t4 8l53 2q16 0 16 26v645q0 16 -16 16h-53q-4 0 -4 8z" />
    <glyph glyph-name="i" unicode="i" horiz-adv-x="261" 
d="M19 477q44 0 79 0.5t76 1.5q5 0 5 -3v-445q0 -16 15 -16l49 -1q5 0 5 -8t-5 -8q-24 1 -39 1.5t-26.5 0.5h-21h-22.5h-22.5h-21.5t-28 -0.5t-42 -1.5q-4 0 -4 8t5 8l51 1q16 0 16 16v414q0 16 -15 16h-54q-5 0 -5 8t5 8zM78 657q0 22 14.5 36.5t37.5 14.5t37.5 -14.5
t14.5 -36.5q0 -23 -14.5 -38t-37.5 -15t-37.5 15t-14.5 38z" />
    <glyph glyph-name="j" unicode="j" horiz-adv-x="260" 
d="M-12 -224q0 2 0.5 3t5.5 2q28 10 47 23t30 32.5t16 48.5t5 73q0 101 -0.5 227t-2.5 257q-1 16 -11 16h-83q-4 0 -4 8t4 8h89.5t89.5 2q5 0 5 -3v-541q0 -34 -10 -58.5t-32 -43t-57 -34t-85 -31.5q-2 0 -4.5 3.5t-2.5 7.5zM83 654q0 22 14.5 36.5t37.5 14.5t37.5 -14.5
t14.5 -36.5q0 -23 -14.5 -38t-37.5 -15t-37.5 15t-14.5 38z" />
    <glyph glyph-name="k" unicode="k" horiz-adv-x="538" 
d="M16 719q38 0 76.5 0.5t79.5 2.5q5 0 5 -4v-462q0 -5 4 -5h43l127 193q5 8 5 12q0 6 -8 6l-68 1q-4 0 -4 8t4 8q21 -1 34.5 -1.5t23 -0.5h17h16.5h18h17.5t22 0.5t31.5 1.5q5 0 5 -8t-5 -8l-67 -2q-5 0 -9.5 -1.5t-9.5 -9.5l-95 -146l195 -275q5 -7 9 -9.5t12 -2.5l38 -3
q5 0 5 -8t-5 -8q-21 1 -35 1.5t-25 0.5h-22h-26h-25.5h-22.5t-28 -0.5t-41 -1.5q-4 0 -4 8t5 8l54 1q10 2 10 7q0 4 -5 11l-137 198q-4 5 -9 5h-41q-4 0 -4 -5v-203q0 -12 12 -12l48 -2q5 0 5 -8t-5 -8q-21 1 -35 1.5t-24.5 0.5h-20.5h-24h-25h-23t-27.5 -0.5t-39.5 -1.5
q-5 0 -5 8t5 8l55 1q13 0 13 13v658q0 16 -16 16h-53q-5 0 -5 9q0 8 4 8z" />
    <glyph glyph-name="l" unicode="l" horiz-adv-x="260" 
d="M17 719h35.5t33.5 0.5t37.5 1t48.5 1.5q5 0 5 -5v-687q0 -14 14 -14l54 -2q5 0 5 -8t-5 -8q-23 1 -38 1.5t-27 0.5h-23h-25h-25h-22.5t-27 -0.5t-38.5 -1.5q-4 0 -4 8t4 8l53 2q14 0 14 14v659q0 14 -14 14h-55q-5 0 -5 8t5 8z" />
    <glyph glyph-name="m" unicode="m" horiz-adv-x="884" 
d="M20 477h75t79 2q5 0 5 -4q0 -26 -0.5 -56t-2.5 -71h1q14 42 33.5 69t43 43.5t51 23t56.5 6.5q69 0 97.5 -29t32.5 -95q13 36 31.5 60t41 38.5t48.5 20t53 5.5q69 0 102 -28.5t33 -94.5v-336q0 -15 16 -15l51 -2q4 0 4 -8t-4 -8q-23 1 -37.5 1.5t-25.5 0.5h-20.5h-23.5
h-24.5h-22.5t-28 -0.5t-41 -1.5q-5 0 -5 8t5 8l51 2q15 0 15 15v336q0 52 -19 75.5t-59 23.5q-33 0 -58.5 -16.5t-43.5 -42.5t-27.5 -57.5t-9.5 -62.5v-256q0 -15 15 -15l51 -2q5 0 5 -8t-5 -8q-22 1 -36.5 1.5t-25.5 0.5h-21h-23h-25.5h-22.5t-28 -0.5t-41 -1.5q-5 0 -5 8
t5 8l51 2q16 0 16 15v331q0 104 -78 104q-32 0 -58.5 -17.5t-46 -45.5t-30.5 -62t-11 -67v-243q0 -15 15 -15l49 -2q5 0 5 -8t-5 -8q-24 1 -38.5 1.5t-25.5 0.5h-20.5h-22.5h-22.5h-21t-27.5 -0.5t-42 -1.5q-5 0 -5 8t5 8l50 2q16 0 16 15v412q0 18 -16 18h-53q-4 0 -4 8
t4 8z" />
    <glyph glyph-name="n" unicode="n" horiz-adv-x="580" 
d="M16 469q0 8 4 8h76t78 2q4 0 4 -4v-23.5v-26t-0.5 -32.5t-1.5 -42l1 -1q14 40 33 67t42.5 43t50.5 23t57 7q68 0 101.5 -29t33.5 -94v-336q0 -15 16 -15l51 -2q5 0 5 -8t-5 -8q-22 1 -37 1.5t-26 0.5h-21h-23h-25.5h-22.5t-27.5 -0.5t-39.5 -1.5q-5 0 -5 8t5 8l49 2
q15 0 15 22v327q0 52 -19.5 76t-57.5 24q-35 0 -62.5 -18t-46.5 -46t-29 -61.5t-10 -64.5v-240q0 -19 16 -19l52 -2q5 0 5 -8t-5 -8q-25 1 -40.5 1.5t-26.5 0.5h-21h-23h-23h-22t-28.5 -0.5t-42.5 -1.5q-4 0 -4 8t4 8l53 2q16 0 16 26v403q0 16 -16 16h-53q-4 0 -4 8z" />
    <glyph glyph-name="o" unicode="o" horiz-adv-x="517" 
d="M30 240q0 58 16.5 104.5t46.5 78.5t72 49.5t93 17.5t93 -17.5t72.5 -49.5t47 -78.5t16.5 -104.5q0 -59 -16.5 -106t-47 -80t-72.5 -50.5t-93 -17.5t-93 17.5t-72 50.5t-46.5 80t-16.5 106zM260 2q47 0 73 23t38 57.5t14.5 74.5t2.5 74v31q0 36 -2.5 73.5t-14.5 68
t-38 50.5t-74 20q-45 0 -71 -20.5t-39 -52.5t-16.5 -69.5t-3.5 -72.5v-32q0 -35 2.5 -74.5t15.5 -73t39 -55.5t74 -22z" />
    <glyph glyph-name="p" unicode="p" horiz-adv-x="556" 
d="M11 -226q0 5 1.5 6t3.5 2l55 2q15 1 15 15v646q0 16 -15 16h-54q-5 0 -5 8t5 8h74t82 2q4 0 4 -4v-27v-20t-0.5 -17t-1.5 -19h2q24 50 62.5 73t92.5 23q92 0 143 -64t51 -180q0 -119 -52 -187t-149 -68q-59 0 -95 24.5t-53 68.5h-2q2 -15 2 -33.5v-44.5v-205
q0 -14 15 -15l56 -2q5 -1 5 -8q0 -9 -5 -9q-24 1 -39.5 1.5t-27.5 1t-23 0.5h-26h-25.5t-22.5 -0.5t-27.5 -1t-40.5 -1.5q-5 0 -5 9zM175 317v-149q0 -31 9 -60t25.5 -51t41 -35.5t55.5 -13.5q61 0 90.5 55.5t29.5 178.5v4q0 114 -30.5 167.5t-87.5 53.5q-28 0 -52.5 -13
t-42.5 -34t-28 -48t-10 -55z" />
    <glyph glyph-name="q" unicode="q" 
d="M30 239q0 57 14.5 103.5t41.5 78.5t65 49.5t84 17.5q107 0 150 -94h2q-2 22 -2 44v39q0 3 4 3q22 -2 42.5 -2h40.5q3 0 3 -4v-679q0 -12 13 -12l59 -1q5 -2 5 -9q0 -8 -5 -8q-23 1 -39 1.5t-28.5 1t-23.5 0.5h-25h-24.5t-24.5 -0.5t-30 -1t-42 -1.5q-5 0 -5 8q0 7 5 9
l63 1q12 0 12 12v207v35t2 45l-1 1q-21 -46 -57 -71t-94 -25q-97 0 -151 67t-54 185zM131 243q0 -124 29 -181t91 -57q32 0 56.5 13.5t42 34t26.5 45.5t9 49v179q0 28 -10.5 54t-28.5 45.5t-42.5 31t-52.5 11.5q-59 0 -89.5 -54.5t-30.5 -166.5v-4z" />
    <glyph glyph-name="r" unicode="r" horiz-adv-x="419" 
d="M20 477h73.5t83.5 2q3 0 3 -3v-59t-1 -61h1q12 43 27.5 68.5t32.5 39.5t34.5 18.5t33.5 4.5q45 0 69 -22.5t24 -65.5q0 -56 -43 -56q-21 0 -33 13.5t-12 36.5q0 11 2 21t2 18q0 14 -8 22.5t-24 8.5q-19 0 -35.5 -13.5t-30 -36t-23 -51.5t-14.5 -61v-259q0 -26 16 -26
l63 -2q5 0 5 -8t-5 -8q-25 1 -41 1.5t-28 0.5h-23h-28h-30.5h-24.5t-26.5 -0.5t-35.5 -1.5q-5 0 -5 8t5 8l52 2q16 0 16 26v403q0 16 -16 16h-56q-4 0 -4 8t4 8z" />
    <glyph glyph-name="s" unicode="s" horiz-adv-x="409" 
d="M35 169q0 6 8 6t9 -8q6 -36 17 -67t29.5 -53.5t47 -35.5t69.5 -13q55 0 89 26t34 71q0 33 -19.5 53t-64.5 37l-68 25q-61 23 -93 55.5t-32 89.5q0 66 41.5 102t113.5 36q29 0 59.5 -5t63.5 -22q7 -3 7 -11v-108q0 -5 -9 -5q-7 0 -9 7q-6 27 -15 50t-24 40.5t-36.5 27
t-51.5 9.5q-42 0 -65.5 -21t-23.5 -56q0 -29 18.5 -50t63.5 -38l52 -19q71 -28 104 -61.5t33 -87.5q0 -74 -47.5 -118t-131.5 -44q-35 0 -79 9.5t-86 29.5q-5 3 -5 8z" />
    <glyph glyph-name="t" unicode="t" horiz-adv-x="356" 
d="M17 477h82q6 0 6 6v102q0 3 3 3h84q4 0 4 -3v-102q0 -6 5 -6h111q4 0 4 -8t-4 -8h-112q-5 0 -5 -6v-382q0 -27 12.5 -45t43.5 -18q20 0 39.5 9t42.5 31q4 0 7.5 -2.5t3.5 -8.5q-27 -29 -57.5 -40.5t-68.5 -11.5q-113 0 -113 89v379q0 6 -6 6h-82q-5 0 -5 8t5 8z" />
    <glyph glyph-name="u" unicode="u" horiz-adv-x="570" 
d="M11 469q0 8 5 8h74t81 2q4 0 4 -4v-377q0 -43 18 -65t58 -22q21 0 44.5 10.5t44.5 33t36.5 58t20.5 84.5v244q0 20 -19 20h-50q-5 0 -5 8t5 8h76.5t78.5 2q5 0 5 -4v-440q0 -19 15 -19h49q5 0 5 -7q0 -9 -5 -9h-34.5t-32 -0.5t-36.5 -1t-48 -1.5q-4 0 -4 4q0 29 0.5 61.5
t2.5 67.5l-1 1q-26 -80 -72.5 -112t-112.5 -32q-129 0 -129 109v349q0 16 -16 16h-53q-5 0 -5 8z" />
    <glyph glyph-name="v" unicode="v" horiz-adv-x="494" 
d="M6 479q21 -1 35 -1.5t26 -0.5h23h24h30.5h27t29.5 0.5t40 1.5q5 0 5 -8t-5 -8l-63 -3q-13 0 -13 -10v-3t2 -6l126 -331l114 329q4 11 4 13q0 6 -4 7.5t-9 1.5l-69 2q-5 0 -5 8t5 8q18 -1 31 -1.5t23 -0.5h19h19h26.5t41.5 2q5 0 5 -8t-5 -8l-45 -2q-12 0 -16 -12
l-157 -455q-2 -5 -4 -6t-5 -1h-4q-2 0 -4 1t-4 6l-182 455q-5 12 -17 12l-45 2q-5 0 -5 8t5 8z" />
    <glyph glyph-name="w" unicode="w" horiz-adv-x="793" 
d="M1 471q0 8 4 8q18 -1 32 -1.5t26.5 -0.5h24.5h26h27h23t27.5 0.5t41.5 1.5q4 0 4 -8t-4 -8l-60 -1q-12 -2 -12 -9v-4t2 -7l114 -330l111 331q2 5 2 7v4q0 7 -11 7l-74 2q-5 0 -5 8t5 8q24 -1 40.5 -1.5t29.5 -0.5h25.5h27.5h29.5h26.5t32 0.5t44 1.5q4 0 4 -8t-4 -8
l-63 -2q-13 -2 -13 -10q0 -1 2 -9l113 -329l107 330q3 8 3 10q0 5 -3 6t-8 2l-67 2q-5 0 -5 8t5 8q18 -1 29.5 -1.5t20 -0.5h16.5h18h33.5t39.5 2q4 0 4 -8t-4 -8l-47 -2q-6 -1 -9 -2.5t-5 -8.5l-153 -459q-2 -7 -8 -7h-4q-6 0 -8 7l-155 436l-145 -436q-2 -7 -9 -7h-4
q-6 0 -8 7l-167 458q-3 8 -6.5 10t-11.5 3l-43 1q-4 0 -4 8z" />
    <glyph glyph-name="x" unicode="x" horiz-adv-x="520" 
d="M6 14l64 1q4 0 8.5 2t9.5 9l131 196l-143 225q-5 9 -9.5 11.5t-12.5 2.5l-44 2q-5 0 -5 8t5 8q38 -1 61 -1.5t51 -0.5h25h23.5t28 0.5t38.5 0.5q5 0 5 -7q0 -8 -5 -8l-49 -2q-5 0 -9 -1.5t-4 -6.5q0 -4 5 -12l95 -148l102 150q4 5 4 10q0 8 -11 8l-56 2q-4 0 -4 8t4 8
q29 -2 46 -2h38h36.5t45.5 2q5 0 5 -8t-5 -8l-60 -2q-5 0 -9.5 -2.5t-10.5 -11.5l-116 -169l159 -249q5 -7 8 -9.5t11 -2.5l53 -3q5 0 5 -8t-5 -8q-25 1 -41.5 1.5t-28.5 0.5h-22h-23h-24.5h-23.5t-32 -0.5t-52 -1.5q-5 0 -5 8t5 8l63 1q5 1 8.5 2.5t3.5 6.5q0 2 -1 5t-5 8
l-108 170l-117 -175q-5 -6 -5 -11q0 -6 9 -6l68 -1q4 0 4 -8t-4 -8q-22 1 -35.5 1.5t-23 0.5h-16.5h-16h-17.5h-17t-21.5 -0.5t-31 -1.5q-5 0 -5 8t5 8z" />
    <glyph glyph-name="y" unicode="y" horiz-adv-x="519" 
d="M5 479q29 -1 46 -1.5t29.5 -0.5h22.5h24h28.5h26t31 0.5t43.5 1.5q5 0 5 -8t-5 -8l-68 -1q-4 -1 -7.5 -2.5t-3.5 -6.5v-4.5t2 -6.5l133 -331l108 329q4 11 4 14q0 5 -3.5 6t-7.5 2l-78 1q-4 0 -4 8t4 8q20 -1 33 -1.5t23.5 -0.5h20h21.5q17 0 33.5 0.5t47.5 1.5q5 0 5 -8
t-5 -8l-56 -2q-7 0 -11 -2t-6 -10l-193 -588q-17 -53 -43 -76.5t-71 -23.5t-70 20.5t-25 55.5q0 22 12 34t31 12q17 0 29 -12t12 -40q0 -26 8 -37t27 -11q47 0 74 82l39 120l-192 464q-4 12 -17 12l-57 2q-4 0 -4 8t4 8z" />
    <glyph glyph-name="z" unicode="z" horiz-adv-x="455" 
d="M310 460q-26 1 -50 1h-44q-51 0 -80 -5t-45.5 -20.5t-25 -43.5t-17.5 -74q-1 -6 -8 -6q-8 0 -8 6l6 153q0 6 5 6q42 0 68 -0.5t44.5 -0.5h35.5h42h79.5t97.5 2q5 -1 5 -8l-291 -454q34 -1 61.5 -1h57.5q51 0 82.5 6.5t50 23.5t28 48t15.5 80q0 6 8 6t8 -6l-6 -169
q0 -6 -7 -6q-46 1 -73.5 1.5t-47 0.5h-36.5h-42h-46h-43t-48 -0.5t-62 -1.5q-6 2 -6 10z" />
    <glyph glyph-name="braceleft" unicode="{" horiz-adv-x="342" 
d="M25 248q36 1 60.5 10.5t39 25t20.5 36t6 44.5q0 26 -5 49.5t-13 48.5q-8 24 -13 48t-5 51q0 28 8.5 54.5t30 48t58 36.5t92.5 21q5 0 5 -10q0 -3 -1.5 -4t-7.5 -2q-63 -8 -87.5 -34t-24.5 -70q0 -23 4.5 -45t11.5 -45q8 -25 13 -51.5t5 -55.5q0 -31 -8 -59t-25.5 -50
t-46 -36.5t-69.5 -17.5v-2q41 -4 69.5 -18.5t46 -37t25.5 -50.5t8 -59q0 -29 -5 -55.5t-13 -51.5q-7 -23 -11.5 -45t-4.5 -45q0 -42 24.5 -68.5t87.5 -34.5q6 -1 7.5 -2.5t1.5 -4.5q0 -10 -5 -10q-56 6 -92.5 21t-58 37t-30 48t-8.5 54q0 27 5.5 51t12.5 49q7 24 12.5 48
t5.5 49q0 24 -6 44.5t-20.5 36.5t-39 25.5t-60.5 10.5q-5 0 -5 9q0 8 5 8z" />
    <glyph glyph-name="bar" unicode="|" horiz-adv-x="121" 
d="M50 730h21v-965h-21v965z" />
    <glyph glyph-name="braceright" unicode="}" horiz-adv-x="342" 
d="M34 711q0 10 5 10q56 -6 92.5 -21t57.5 -36.5t29.5 -48t8.5 -54.5q0 -27 -4.5 -51t-12.5 -48q-8 -25 -13 -48.5t-5 -49.5q0 -24 6 -44.5t20 -36t38.5 -25t60.5 -10.5q5 0 5 -8q0 -9 -5 -9q-36 -1 -60.5 -10.5t-38.5 -25.5t-20 -36.5t-6 -44.5q0 -25 5.5 -49t12.5 -48
q7 -25 12 -49t5 -51q0 -28 -8.5 -54t-29.5 -48t-57.5 -37t-92.5 -21q-5 0 -5 10q0 3 1 4.5t7 2.5q63 8 87.5 34.5t24.5 68.5q0 23 -4.5 45t-10.5 45q-8 25 -13 51.5t-5 55.5q0 31 8 59t25.5 50.5t46 37t69.5 18.5v2q-41 3 -69.5 17.5t-46 36.5t-25.5 50t-8 59q0 29 5 55.5
t13 51.5q6 23 10.5 45t4.5 45q0 44 -24.5 70t-87.5 34q-6 1 -7 2t-1 4z" />
    <glyph glyph-name="asciitilde" unicode="~" horiz-adv-x="600" 
d="M147 319q40 0 79 -17.5t80 -43.5q40 -26 77 -42t71 -16q18 0 35.5 6t31 19.5t22 36.5t8.5 57h21q0 -39 -9.5 -65.5t-26 -43t-38 -24t-45.5 -7.5q-40 0 -79 17.5t-80 43.5q-40 26 -77 42t-71 16q-18 0 -35.5 -6t-31 -20t-22 -37t-8.5 -57h-21q0 39 9.5 65.5t26 43.5
t38 24.5t45.5 7.5z" />
    <glyph glyph-name="uni00A0" unicode="&#xa0;" horiz-adv-x="234" 
 />
    <glyph glyph-name="exclamdown" unicode="&#xa1;" horiz-adv-x="199" 
d="M49 -202q0 22 6.5 68.5t14.5 112t14.5 146.5t6.5 171q0 4 8 4t8 -4q0 -90 6.5 -171t14.5 -146.5t14.5 -112t6.5 -68.5q0 -23 -13.5 -36.5t-36.5 -13.5t-36.5 13.5t-13.5 36.5zM46 430q0 23 15 38.5t38 15.5t38.5 -15.5t15.5 -38.5t-15.5 -38t-38.5 -15t-38 15t-15 38z
" />
    <glyph glyph-name="cent" unicode="&#xa2;" horiz-adv-x="486" 
d="M31 351q0 58 15.5 105t44 80.5t69.5 52.5t92 21v98q0 4 5 4h12q4 0 4 -4v-98q39 -1 72 -12.5t56 -29.5t36 -41.5t13 -48.5t-14.5 -37t-34.5 -12q-18 0 -30.5 11t-12.5 33q0 19 3.5 30.5t0.5 27.5q-4 28 -29 44t-60 18v-466q45 0 86 33t81 113q2 3 5 3q10 0 10 -7
q-17 -74 -63.5 -116t-118.5 -47v-112q0 -4 -4 -4h-12q-5 0 -5 4v111q-50 0 -90.5 16.5t-69.5 48t-45 77t-16 104.5zM252 128v465q-65 -4 -94.5 -57.5t-29.5 -172.5v-13q0 -112 31 -163.5t93 -58.5z" />
    <glyph glyph-name="sterling" unicode="&#xa3;" horiz-adv-x="575" 
d="M531 187q-10 -60 -26 -98.5t-36 -61t-43.5 -31t-50.5 -8.5q-25 0 -45.5 6t-37 16t-30.5 22t-27 25q-20 -27 -48 -41.5t-61 -14.5q-39 0 -60.5 20t-21.5 49q0 30 22.5 49t63.5 19q24 0 46 -7t47 -16l16 -6q6 20 6 44q0 52 -23.5 94t-52.5 82l-8 11h-108q-6 0 -6 8t6 8h97
q-26 36 -44 76t-18 90q0 48 18.5 84t48.5 60t68.5 36t79.5 12q37 0 67.5 -9t52 -24.5t33 -35.5t11.5 -43q0 -28 -16.5 -42t-39.5 -14q-25 0 -40 15t-15 39q0 27 17 41t41 18q-19 17 -44.5 27.5t-60.5 10.5q-40 0 -64.5 -14t-38.5 -35.5t-19 -47t-5 -48.5q0 -48 12.5 -96.5
t29.5 -97.5q0 -1 1 -2h197q6 -1 6 -8q0 -8 -6 -8h-192q15 -44 26 -86t11 -84q0 -38 -10 -67q25 -8 54 -13.5t64 -5.5q66 0 98 23.5t42 81.5zM127 17q29 0 54 13.5t41 39.5q-20 20 -42.5 34.5t-54.5 14.5q-30 0 -47 -13.5t-17 -36.5q0 -22 17 -37t49 -15z" />
    <glyph glyph-name="currency" unicode="&#xa4;" horiz-adv-x="558" 
d="M113 199q-28 30 -43.5 68.5t-15.5 82.5t15.5 82.5t43.5 68.5l-100 100l15 14l100 -99q30 28 68.5 43.5t82.5 15.5t82.5 -15.5t68.5 -43.5l99 99l15 -14l-99 -100q28 -30 43.5 -68.5t15.5 -82.5t-15.5 -82.5t-43.5 -68.5l99 -100l-15 -14l-99 99q-30 -28 -68.5 -43.5
t-82.5 -15.5t-82.5 15.5t-68.5 43.5l-100 -99l-15 14zM279 146q42 0 79.5 16t65 43.5t43.5 65t16 79.5t-16 79.5t-43.5 65t-65 43.5t-79.5 16t-79.5 -16t-65 -43.5t-43.5 -65t-16 -79.5t16 -79.5t43.5 -65t65 -43.5t79.5 -16z" />
    <glyph glyph-name="yen" unicode="&#xa5;" horiz-adv-x="689" 
d="M36 704q26 -1 44 -1.5t32.5 -0.5h27h27.5h33h30t36.5 0.5t52.5 1.5q5 0 5 -7q0 -9 -5 -9l-72 -1q-15 -2 -15 -10q0 -2 0.5 -3.5t2.5 -5.5l154 -266l149 267q2 4 2.5 6t0.5 3q0 8 -12 9l-77 1q-5 0 -5 9q0 7 5 7q23 -1 38.5 -1.5t26.5 -0.5h20h20h21h19.5t23.5 0.5t32 0.5
q5 0 5 -8t-5 -8l-73 -1q-8 0 -12 -2.5t-8 -9.5l-163 -291v-64h188q6 -1 6 -9t-6 -8h-188v-97h188q6 0 6 -8t-6 -8h-188v-160q0 -13 14 -13l88 -3q5 0 5 -7q0 -9 -5 -9q-33 1 -53.5 1.5t-35.5 1t-28.5 0.5h-31.5h-30t-28 -0.5t-36 -1t-54 -1.5q-5 0 -5 8t5 8l89 3q14 0 14 13
v160h-172q-6 0 -6 8t6 8h172v97h-172q-6 0 -6 8q0 9 6 9h172v25q0 11 -2 18t-8 16l-177 297q-4 8 -7.5 9.5t-11.5 2.5h-63q-5 0 -5 8q0 9 5 9z" />
    <glyph glyph-name="brokenbar" unicode="&#xa6;" horiz-adv-x="121" 
d="M50 730h21v-376h-21v376zM71 141v-376h-21v376h21z" />
    <glyph glyph-name="section" unicode="&#xa7;" horiz-adv-x="411" 
d="M34 270q0 54 30 93.5t93 54.5q-49 22 -79.5 57.5t-30.5 95.5q0 69 44 108.5t115 39.5q29 0 61 -6t64 -23q5 -2 5 -6v-116q0 -4 -9 -4q-8 0 -9 7q-4 27 -13.5 50.5t-24.5 41.5t-37 28t-52 10q-42 0 -67 -24t-25 -64q0 -37 21 -60t65 -41l73 -30q58 -24 89 -59t31 -94
q0 -56 -30 -97.5t-91 -58.5q65 -29 93.5 -66.5t28.5 -92.5q0 -80 -47.5 -128t-129.5 -48q-34 0 -77.5 7.5t-83.5 33.5q-3 2 -3 6l1 146q0 6 8 6t9 -7q7 -35 16.5 -67t26 -56t43.5 -38t69 -14q51 0 84.5 28.5t33.5 79.5q0 41 -21.5 67t-66.5 45l-81 34q-60 26 -93 62.5
t-33 98.5zM79 309q0 -30 18 -53t57 -40l79 -33q49 9 74.5 35t25.5 64q0 62 -73 93l-79 33q-48 -8 -75 -34t-27 -65z" />
    <glyph glyph-name="dieresis" unicode="&#xa8;" horiz-adv-x="500" 
d="M350 705q22 0 36 -13.5t14 -35.5t-14 -36t-36 -14q-23 0 -36.5 14t-13.5 36t13.5 35.5t36.5 13.5zM101 656q0 22 13.5 35.5t36.5 13.5q22 0 36 -13.5t14 -35.5t-14 -36t-36 -14q-23 0 -36.5 14t-13.5 36z" />
    <glyph glyph-name="copyright" unicode="&#xa9;" horiz-adv-x="758" 
d="M31 328q0 77 26 140.5t72.5 109.5t110 71.5t139.5 25.5t139.5 -25.5t110 -71.5t72.5 -109.5t26 -140.5t-26 -141t-72.5 -110t-110 -71.5t-139.5 -25.5t-139.5 25.5t-110 71.5t-72.5 110t-26 141zM54 328q0 -71 24 -131t67 -103.5t103 -68t131 -24.5t131 24.5t103 68
t67 103.5t24 131t-24 130.5t-67 103t-103 68t-131 24.5t-131 -24.5t-103 -68t-67 -103t-24 -130.5zM394 529q39 0 74 -9t69 -20q4 -1 4 -5v-108q0 -3 -7 -3q-6 0 -7 4q-3 61 -35.5 94t-95.5 33q-65 0 -101.5 -46t-36.5 -139v-4q0 -94 37 -139.5t99 -45.5q35 0 59 11t40 30.5
t24 46.5t11 58q0 4 6 4q7 0 7 -3v-117q0 -3 -4 -6q-35 -23 -70.5 -30.5t-76.5 -7.5q-98 0 -155 52.5t-57 147.5q0 97 58 149.5t158 52.5z" />
    <glyph glyph-name="ordfeminine" unicode="&#xaa;" horiz-adv-x="413" 
d="M134 480q-47 0 -73.5 22.5t-26.5 68.5q0 50 25 68t73 22q41 4 73.5 12t48.5 22v46q0 21 -12.5 34.5t-45.5 13.5q-32 0 -46 -12t-14 -27q0 -5 3 -13q2 -6 2.5 -8t0.5 -5q0 -11 -11 -17.5t-34 -6.5t-31.5 6.5t-8.5 19.5q0 36 34 57.5t108 21.5q79 0 112.5 -23.5t33.5 -69.5
v-87v-92q0 -15 7.5 -22t19.5 -7q9 0 15.5 3t12.5 8q3 2 4 2q2 0 4 -4t2 -8q0 -2 -3 -4q-11 -8 -27.5 -14.5t-47.5 -6.5q-42 0 -60 13t-18 37v24h-1q-11 -30 -42.5 -52t-76.5 -22zM177 516q20 0 34.5 9.5t24 24t14 32.5t4.5 35v56l-1 1q-18 -10 -35.5 -15t-36.5 -8
q-32 -5 -44 -18.5t-12 -45.5q0 -43 16 -57t36 -14z" />
    <glyph glyph-name="guillemotleft" unicode="&#xab;" horiz-adv-x="519" 
d="M34 230q0 2 0.5 4.5t4.5 5.5l220 190q11 0 11 -10l-143 -190l143 -191q0 -9 -11 -9l-220 190q-4 3 -4.5 5.5t-0.5 4.5zM242 230q0 5 6 10l220 190q10 0 10 -10l-142 -190l142 -191q0 -9 -10 -9l-220 190q-6 5 -6 10z" />
    <glyph glyph-name="logicalnot" unicode="&#xac;" horiz-adv-x="600" 
d="M565 104h-21v271h-509v21h530v-292z" />
    <glyph glyph-name="uni00AD" unicode="&#xad;" horiz-adv-x="320" 
d="M51 285h218q6 0 6 -6v-56q0 -5 -6 -5h-218q-5 0 -5 5v56q0 6 5 6z" />
    <glyph glyph-name="registered" unicode="&#xae;" horiz-adv-x="758" 
d="M31 328q0 77 26 140.5t72.5 109.5t110 71.5t139.5 25.5t139.5 -25.5t110 -71.5t72.5 -109.5t26 -140.5t-26 -141t-72.5 -110t-110 -71.5t-139.5 -25.5t-139.5 25.5t-110 71.5t-72.5 110t-26 141zM379 1q71 0 131 24.5t103 68t67 103.5t24 131t-24 130.5t-67 103t-103 68
t-131 24.5t-131 -24.5t-103 -68t-67 -103t-24 -130.5t24 -131t67 -103.5t103 -68t131 -24.5zM193 527q21 0 35 -0.5t24.5 -0.5h19.5h19h100q128 0 128 -90q0 -41 -27.5 -63.5t-86.5 -30.5v-2q33 -1 55 -5.5t36 -14.5t21 -27t11 -42l8 -52q3 -25 12 -34.5t29 -9.5h21
q5 0 5 -8t-5 -8h-54q-46 0 -64 12.5t-21 46.5l-6 66q-4 38 -23.5 52t-71.5 14h-32q-5 0 -5 -4v-155q0 -12 13 -12l42 -1q5 0 5 -8q0 -9 -5 -9q-20 1 -33 1.5t-22 0.5h-17h-19h-18h-17.5t-22.5 -0.5t-33 -1.5q-5 0 -5 9q0 8 5 8l41 1q13 0 13 12v326q0 14 -12 14h-42
q-5 0 -5 9q0 7 4 7zM321 505v-154q0 -5 5 -5h33q40 0 63 19.5t23 63.5v9q0 38 -18.5 55t-58.5 17h-41q-6 0 -6 -5z" />
    <glyph glyph-name="macron" unicode="&#xaf;" horiz-adv-x="500" 
d="M115 604h270q5 0 5 -5v-32q0 -5 -5 -5h-270q-5 0 -5 5v32q0 5 5 5z" />
    <glyph glyph-name="degree" unicode="&#xb0;" horiz-adv-x="373" 
d="M34 563q0 33 11.5 61t31.5 48.5t48 32t61 11.5t61.5 -11.5t49 -32t32 -48.5t11.5 -61t-11.5 -61t-32 -48.5t-49 -32t-61.5 -11.5t-61 11.5t-48 31.5t-31.5 48.5t-11.5 61.5zM55 563q0 -59 36.5 -95.5t94.5 -36.5t95 36.5t37 95.5q0 58 -37 95t-95 37t-94.5 -36.5
t-36.5 -95.5z" />
    <glyph glyph-name="plusminus" unicode="&#xb1;" horiz-adv-x="600" 
d="M35 280h255v202h21v-202h254v-20h-254v-202h-21v202h-255v20zM35 18h530v-20h-530v20z" />
    <glyph glyph-name="twosuperior" unicode="&#xb2;" horiz-adv-x="436" 
d="M56 295q-5 0 -10 7.5t-5 12.5t10 16t25 25.5t33 31t34.5 30.5t29 25t17.5 14q27 22 45 40t28.5 34.5t14.5 33t4 35.5v3q0 51 -30 77.5t-83 26.5q-54 0 -88.5 -26.5t-34.5 -74.5q0 -45 34 -76q4 -3 4.5 -3.5t0.5 -2.5q0 -4 -4 -6.5t-6 -2.5q-3 0 -7 4q-38 38 -38 87
q0 38 16 61.5t41.5 37t57 18.5t62.5 5q87 0 131.5 -30t44.5 -84q0 -37 -24.5 -66.5t-89.5 -63.5q-54 -28 -80 -47.5t-44 -38.5q-4 -4 -4 -7q0 -5 8 -5q22 1 38.5 1.5t33.5 0.5h38.5h53.5q16 0 26 1t18.5 7.5t15.5 20.5t17 39q1 3 5 3t7.5 -1.5t3.5 -4.5l-47 -151
q-2 -5 -8 -5q-27 0 -47 0.5t-36.5 0.5h-30.5h-30h-33.5t-30 -0.5t-36 -1t-51.5 -1.5z" />
    <glyph glyph-name="threesuperior" unicode="&#xb3;" horiz-adv-x="427" 
d="M211 289q-78 0 -121 28t-57 76q-3 8 -3 11q0 4 3.5 5.5t5.5 1.5q4 0 7 -9q12 -42 47 -67t88 -25q57 0 87 30.5t30 84.5v6q0 51 -27 80t-78 29q-27 0 -52 -10.5t-54 -36.5q-4 -4 -7 -4q-4 0 -7.5 4t-3.5 6t0.5 2.5t4.5 3.5l193 148l-1 2q-31 0 -64 -0.5t-77 -1.5
q-25 0 -36 -6t-21 -27l-11 -20q-3 -5 -3.5 -6t-1.5 -1q-2 0 -7 2t-5 6q0 1 0.5 2.5t3.5 6.5q6 11 10.5 20.5t10 21t12 27t15.5 37.5q2 5 7 5h63h69.5t70.5 0.5t65 1.5q2 0 4 -3t2 -6q0 -2 -2 -5l-208 -155l1 -1q17 7 33.5 10t36.5 3q76 0 119.5 -35t43.5 -101
q0 -67 -48 -104t-138 -37z" />
    <glyph glyph-name="acute" unicode="&#xb4;" horiz-adv-x="500" 
d="M206 544l82 180q5 10 16 10h62q11 0 11 -10q0 -3 -1.5 -6.5t-9.5 -11.5l-142 -167q-5 -4 -8 -4t-6.5 2.5t-3.5 6.5z" />
    <glyph glyph-name="uni00B5" unicode="&#xb5;" horiz-adv-x="579" 
d="M11 469q0 8 5 8h74t81 2q4 0 4 -4v-371q0 -46 17.5 -70t62.5 -24q48 0 89 42.5t61 126.5v262q0 20 -19 20h-50q-5 0 -5 8t5 8h76.5t79.5 2q4 0 4 -4v-440q0 -19 16 -19h49q4 0 4 -7q0 -9 -4 -9h-34.5t-32 -0.5t-36.5 -1t-49 -1.5q-4 0 -4 4q0 29 0.5 58.5t3.5 59.5l-2 1
q-18 -40 -38.5 -65.5t-43.5 -40.5t-48 -21t-52 -6q-90 0 -123 52q1 -39 4 -65.5t10 -47.5t17.5 -40t26.5 -43q8 -15 12 -25t4 -20q0 -21 -12 -33t-34 -12q-20 0 -32.5 12.5t-12.5 38.5v641q0 16 -16 16h-53q-5 0 -5 8z" />
    <glyph glyph-name="paragraph" unicode="&#xb6;" horiz-adv-x="521" 
d="M30 497q0 107 49 156t156 49h247q9 0 9 -8v-5q0 -8 -9 -8h-62q-9 0 -9 -9v-753q0 -9 -9 -9h-6q-8 0 -8 9v753q0 9 -9 9h-82q-9 0 -9 -9v-753q0 -9 -9 -9h-6q-8 0 -8 9v364q0 9 -9 9h-21q-107 0 -156 49t-49 156z" />
    <glyph glyph-name="periodcentered" unicode="&#xb7;" horiz-adv-x="215" 
d="M46 261q0 27 17 44t44 17t44.5 -17t17.5 -44q0 -28 -17.5 -45.5t-44.5 -17.5t-44 17.5t-17 45.5z" />
    <glyph glyph-name="cedilla" unicode="&#xb8;" horiz-adv-x="500" 
d="M168 -105q0 20 15.5 35.5t46.5 15.5q7 0 11 -1v63h16v-66q30 -8 46 -32.5t16 -55.5q0 -21 -8.5 -42.5t-25 -39t-41.5 -28t-59 -10.5q-5 0 -5 8t5 8q27 0 46.5 8t32.5 21t19.5 28t6.5 30q0 16 -7.5 28.5t-22.5 17.5l-2 -1q-4 -14 -15.5 -23t-30.5 -9q-20 0 -32 13t-12 32z
" />
    <glyph glyph-name="onesuperior" unicode="&#xb9;" horiz-adv-x="257" 
d="M19 720q43 0 77.5 0.5t75.5 2.5q4 0 4 -4v-390q0 -16 16 -16l47 -1q5 0 5 -8t-5 -8q-22 1 -36.5 1.5t-26 0.5h-21h-23.5h-23h-22t-27.5 -0.5t-39.5 -1.5q-4 0 -4 8t5 8l49 1q16 0 16 16v359q0 16 -16 16h-51q-5 0 -5 8t5 8z" />
    <glyph glyph-name="ordmasculine" unicode="&#xba;" horiz-adv-x="408" 
d="M30 647q0 75 45.5 117.5t128.5 42.5t128.5 -42.5t45.5 -117.5q0 -78 -45.5 -121.5t-128.5 -43.5t-128.5 43.5t-45.5 121.5zM204 498q26 0 42.5 9.5t25.5 25t12.5 35.5t3.5 41v70q0 22 -3 42t-12 35.5t-25.5 25t-43.5 9.5q-26 0 -42.5 -9.5t-25.5 -25.5t-12.5 -36
t-3.5 -41v-69q0 -22 3 -42t12 -35.5t25.5 -25t43.5 -9.5z" />
    <glyph glyph-name="guillemotright" unicode="&#xbb;" horiz-adv-x="519" 
d="M242 39l143 191l-143 190q0 10 11 10l220 -190q4 -3 4.5 -5.5t0.5 -4.5t-0.5 -4.5t-4.5 -5.5l-220 -190q-11 0 -11 9zM34 420q0 10 10 10l220 -190q6 -5 6 -10t-6 -10l-220 -190q-10 0 -10 9l142 191z" />
    <glyph glyph-name="onequarter" unicode="&#xbc;" horiz-adv-x="860" 
d="M419 150q0 2 0.5 3t3.5 5l212 264q6 7 13 7h70q8 0 8 -8q0 -26 -0.5 -57.5t-0.5 -65v-68v-67.5q0 -6 6 -6h12q24 0 31.5 8.5t7.5 29.5v12q0 6 9 6q7 0 7 -6q-2 -20 -2 -32v-22v-23t2 -35q0 -5 -8 -5t-8 5v9q0 20 -7.5 28t-31.5 8h-12q-6 0 -6 -5v-65t1 -64q0 -6 -5 -6
h-82q-6 0 -6 6v130q0 4 -3 4h-204q-3 0 -5 3.5t-2 6.5zM67 720q43 0 77.5 0.5t75.5 2.5q5 0 5 -4v-390q0 -16 15 -16l47 -1q5 0 5 -8t-5 -8q-22 1 -36.5 1.5t-26 0.5h-21h-23.5h-23h-22t-27.5 -0.5t-39.5 -1.5q-4 0 -4 8t5 8l49 1q16 0 16 16v359q0 16 -16 16h-51q-5 0 -5 8
t5 8zM131 -30l540 761h34l-541 -761h-33zM445 159q0 -2 3 -2h180q5 0 5 5v223q0 4 -2 4t-3 -0.5t-3 -4.5l-177 -219q-3 -4 -3 -6z" />
    <glyph glyph-name="onehalf" unicode="&#xbd;" horiz-adv-x="965" 
d="M527 308q0 38 16 61.5t41.5 37t57 18.5t62.5 5q87 0 131.5 -30t44.5 -84q0 -18 -5.5 -34.5t-19 -32t-35.5 -31t-54 -32.5q-27 -14 -46 -26t-33 -22t-25 -19.5t-20 -18.5q-4 -4 -4 -7q0 -5 8 -5q22 1 38.5 1.5t33.5 0.5h38.5h53.5q16 0 26.5 1t19 7.5t15.5 20.5t16 39
q1 3 5 3t7.5 -1.5t3.5 -4.5l-47 -151q-2 -5 -8 -5q-27 0 -47 0.5t-36.5 0.5h-30.5h-30h-33t-30 -0.5t-36.5 -1t-51.5 -1.5q-5 0 -10 7.5t-5 12.5q0 4 10 15.5t25 26t33 30.5t34.5 30.5t29.5 25t17 14.5q27 23 45 41t28.5 34.5t14.5 32.5t4 35v3q0 51 -30 77.5t-83 26.5
q-54 0 -88.5 -26.5t-34.5 -74.5q0 -22 8.5 -42t25.5 -34q4 -3 4.5 -3.5t0.5 -2.5q0 -4 -4 -6.5t-6 -2.5q-1 0 -2.5 0.5t-4.5 3.5q-18 18 -28 40.5t-10 46.5zM62 712q0 8 5 8q43 0 77.5 0.5t75.5 2.5q5 0 5 -4v-390q0 -16 15 -16l47 -1q5 0 5 -8t-5 -8q-22 1 -36.5 1.5
t-26 0.5h-21h-23.5h-23h-22t-27.5 -0.5t-39.5 -1.5q-4 0 -4 8t5 8l49 1q16 0 16 16v359q0 16 -16 16h-51q-5 0 -5 8zM671 731h34l-541 -761h-33z" />
    <glyph glyph-name="threequarters" unicode="&#xbe;" horiz-adv-x="966" 
d="M777 731h34l-541 -761h-33zM243 289q-78 0 -121 28t-57 76q-3 8 -3 11q0 4 3.5 5.5t5.5 1.5q4 0 7 -9q12 -42 47 -67t88 -25q57 0 87 30.5t30 84.5v6q0 51 -27 80t-78 29q-27 0 -52 -10.5t-54 -36.5q-4 -4 -7 -4q-4 0 -7.5 4t-3.5 6t0.5 2.5t4.5 3.5l193 148l-1 2
q-31 0 -64 -0.5t-78 -1.5q-24 0 -35 -6t-22 -27l-10 -20q-2 -5 -3 -6t-2 -1q-2 0 -7 2t-5 6q0 1 0.5 2.5t3.5 6.5q6 11 10.5 20.5t10 21t12 27t15.5 37.5q2 5 7 5h63h69.5t70.5 0.5t65 1.5q2 0 4 -3t2 -6q0 -2 -2 -5l-208 -155l1 -1q17 7 33.5 10t36.5 3q76 0 119.5 -35
t43.5 -101q0 -67 -48 -104t-138 -37zM745 0q-6 0 -6 6v130q0 4 -4 4h-203q-3 0 -5 3.5t-2 6.5q0 2 0.5 3l2.5 5l213 264q6 7 13 7h70q8 0 8 -8q0 -26 -0.5 -57.5t-0.5 -65v-68v-67.5q0 -6 6 -6h12q24 0 31.5 8.5t7.5 29.5v12q0 6 9 6q7 0 7 -6q-2 -20 -2 -32v-22v-23t2 -35
q0 -5 -8 -5t-8 5v9q0 20 -7.5 28t-31.5 8h-12q-6 0 -6 -5v-65t1 -64q0 -6 -5 -6h-82zM734 157q5 0 5 5v223q0 4 -2 4t-3 -0.5t-4 -4.5l-176 -219q-3 -4 -3 -6t3 -2h180z" />
    <glyph glyph-name="questiondown" unicode="&#xbf;" horiz-adv-x="421" 
d="M29 59q0 72 37.5 115.5t111.5 73.5q17 7 27 10t24 8q36 14 48.5 31.5t12.5 52.5v52q0 4 3 4h10q3 0 3 -4v-53q0 -20 -3 -35t-11 -26.5t-21.5 -20.5t-33.5 -17q-33 -13 -55.5 -27.5t-36.5 -35.5t-20 -51.5t-6 -75.5q0 -52 7.5 -88t23 -58t39 -31.5t55.5 -9.5q11 0 22.5 2
t21.5 7t16 14t6 23q0 11 -3 20t-3 20q0 24 13.5 37.5t36.5 13.5t36 -13.5t13 -37.5q0 -43 -41.5 -72.5t-112.5 -29.5q-49 0 -89.5 14.5t-69.5 41t-45 64t-16 82.5zM294 590q23 0 38 -15.5t15 -38.5t-15 -38t-38 -15t-38.5 15t-15.5 38t15.5 38.5t38.5 15.5z" />
    <glyph glyph-name="Agrave" unicode="&#xc0;" horiz-adv-x="652" 
d="M2 7q0 6 5 8l77 1q14 0 18 12l225 682q3 7 8 7h5q6 0 9 -8l217 -678q2 -8 7 -10.5t23 -3.5l49 -2q6 0 6 -8t-6 -8q-26 0 -43 0.5t-30 0.5h-24.5h-26.5h-31h-28t-36.5 -0.5t-55.5 -1.5q-5 0 -5 8t5 8l83 2q14 1 14 11q0 2 -0.5 3.5l-1.5 4.5l-62 202q-2 5 -6 5h-204
q-3 0 -5 -5l-66 -203q-2 -6 -2 -9q0 -9 14 -9l81 -2q5 0 5 -8t-5 -8q-27 1 -44.5 1.5t-28.5 0.5h-19h-16h-16h-19.5t-26.5 -0.5t-38 -1.5q-5 0 -5 9zM197 262q0 -5 4 -5h189q5 0 5 5v2t-2 6l-94 305l-101 -307q-1 -4 -1 -6zM198 949q0 10 11 10h63q11 0 16 -10l81 -180
q0 -4 -3.5 -6.5t-6.5 -2.5t-8 4l-142 167q-8 8 -9.5 11.5t-1.5 6.5z" />
    <glyph glyph-name="Aacute" unicode="&#xc1;" horiz-adv-x="652" 
d="M2 7q0 6 5 8l77 1q14 0 18 12l225 682q3 7 8 7h5q6 0 9 -8l217 -678q2 -8 7 -10.5t23 -3.5l49 -2q6 0 6 -8t-6 -8q-26 0 -43 0.5t-30 0.5h-24.5h-26.5h-31h-28t-36.5 -0.5t-55.5 -1.5q-5 0 -5 8t5 8l83 2q14 1 14 11q0 2 -0.5 3.5l-1.5 4.5l-62 202q-2 5 -6 5h-204
q-3 0 -5 -5l-66 -203q-2 -6 -2 -9q0 -9 14 -9l81 -2q5 0 5 -8t-5 -8q-27 1 -44.5 1.5t-28.5 0.5h-19h-16h-16h-19.5t-26.5 -0.5t-38 -1.5q-5 0 -5 9zM197 262q0 -5 4 -5h189q5 0 5 5v2t-2 6l-94 305l-101 -307q-1 -4 -1 -6zM292 769l82 180q5 10 16 10h62q11 0 11 -10
q0 -3 -1.5 -6.5t-9.5 -11.5l-142 -167q-5 -4 -8 -4t-6.5 2.5t-3.5 6.5z" />
    <glyph glyph-name="Acircumflex" unicode="&#xc2;" horiz-adv-x="652" 
d="M348 942q5 0 6.5 -1.5t5.5 -6.5l118 -164q5 -6 6 -7.5t1 -3.5q0 -4 -6 -4h-8q-3 0 -4.5 0.5t-6.5 4.5l-135 110q-5 4 -6 4.5t-3 0.5q-1 0 -2.5 -0.5t-5.5 -5.5l-89 -108q-5 -6 -9 -6h-6q-5 0 -5 4v3t5 7l121 166q4 5 6 6t6 1h11zM7 -2q-5 0 -5 9q0 6 5 8l77 1q14 0 18 12
l225 682q3 7 8 7h5q6 0 9 -8l217 -678q2 -8 7 -10.5t23 -3.5l49 -2q6 0 6 -8t-6 -8q-26 0 -43 0.5t-30 0.5h-24.5h-26.5h-31h-28t-36.5 -0.5t-55.5 -1.5q-5 0 -5 8t5 8l83 2q14 1 14 11q0 2 -0.5 3.5l-1.5 4.5l-62 202q-2 5 -6 5h-204q-3 0 -5 -5l-66 -203q-2 -6 -2 -9
q0 -9 14 -9l81 -2q5 0 5 -8t-5 -8q-27 1 -44.5 1.5t-28.5 0.5h-19h-16h-16h-19.5t-26.5 -0.5t-38 -1.5zM390 257q5 0 5 5v2t-2 6l-94 305l-101 -307q-1 -4 -1 -6q0 -5 4 -5h189z" />
    <glyph glyph-name="Atilde" unicode="&#xc3;" horiz-adv-x="652" 
d="M7 15l77 1q14 0 18 12l225 682q3 7 8 7h5q6 0 9 -8l217 -678q2 -8 7 -10.5t23 -3.5l49 -2q6 0 6 -8t-6 -8q-26 0 -43 0.5t-30 0.5h-24.5h-26.5h-31h-28t-36.5 -0.5t-55.5 -1.5q-5 0 -5 8t5 8l83 2q14 1 14 11q0 2 -0.5 3.5l-1.5 4.5l-62 202q-2 5 -6 5h-204q-3 0 -5 -5
l-66 -203q-2 -6 -2 -9q0 -9 14 -9l81 -2q5 0 5 -8t-5 -8q-27 1 -44.5 1.5t-28.5 0.5h-19h-16h-16h-19.5t-26.5 -0.5t-38 -1.5q-5 0 -5 9q0 6 5 8zM197 262q0 -5 4 -5h189q5 0 5 5v2t-2 6l-94 305l-101 -307q-1 -4 -1 -6zM161 775q0 65 27 98t70 33q31 0 55 -13t41 -27
q19 -14 38 -24.5t42 -10.5q29 0 44.5 18.5t17.5 51.5q1 4 8 4t7 -4q0 -65 -27 -98t-70 -33q-31 0 -54.5 13t-41.5 27q-19 14 -38 24.5t-42 10.5q-29 0 -44.5 -18.5t-17.5 -51.5q-1 -4 -8 -4t-7 4z" />
    <glyph glyph-name="Adieresis" unicode="&#xc4;" horiz-adv-x="652" 
d="M7 15l77 1q14 0 18 12l225 682q3 7 8 7h5q6 0 9 -8l217 -678q2 -8 7 -10.5t23 -3.5l49 -2q6 0 6 -8t-6 -8q-26 0 -43 0.5t-30 0.5h-24.5h-26.5h-31h-28t-36.5 -0.5t-55.5 -1.5q-5 0 -5 8t5 8l83 2q14 1 14 11q0 2 -0.5 3.5l-1.5 4.5l-62 202q-2 5 -6 5h-204q-3 0 -5 -5
l-66 -203q-2 -6 -2 -9q0 -9 14 -9l81 -2q5 0 5 -8t-5 -8q-27 1 -44.5 1.5t-28.5 0.5h-19h-16h-16h-19.5t-26.5 -0.5t-38 -1.5q-5 0 -5 9q0 6 5 8zM197 262q0 -5 4 -5h189q5 0 5 5v2t-2 6l-94 305l-101 -307q-1 -4 -1 -6zM436 871q22 0 36 -14t14 -35q0 -23 -14 -36.5
t-36 -13.5q-23 0 -36.5 13.5t-13.5 36.5q0 21 13.5 35t36.5 14zM237 871q22 0 36 -14t14 -35q0 -23 -14 -36.5t-36 -13.5q-23 0 -36.5 13.5t-13.5 36.5q0 21 13.5 35t36.5 14z" />
    <glyph glyph-name="Aring" unicode="&#xc5;" horiz-adv-x="652" 
d="M7 15l77 1q14 0 18 12l225 682q3 7 8 7h5q6 0 9 -8l217 -678q2 -8 7 -10.5t23 -3.5l49 -2q6 0 6 -8t-6 -8q-26 0 -43 0.5t-30 0.5h-24.5h-26.5h-31h-28t-36.5 -0.5t-55.5 -1.5q-5 0 -5 8t5 8l83 2q14 1 14 11q0 2 -0.5 3.5l-1.5 4.5l-62 202q-2 5 -6 5h-204q-3 0 -5 -5
l-66 -203q-2 -6 -2 -9q0 -9 14 -9l81 -2q5 0 5 -8t-5 -8q-27 1 -44.5 1.5t-28.5 0.5h-19h-16h-16h-19.5t-26.5 -0.5t-38 -1.5q-5 0 -5 9q0 6 5 8zM336 939q45 0 71.5 -26t26.5 -70q0 -45 -26.5 -72t-71.5 -27t-71.5 27t-26.5 72q0 44 26.5 70t71.5 26zM197 262q0 -5 4 -5
h189q5 0 5 5v2t-2 6l-94 305l-101 -307q-1 -4 -1 -6zM336 767q33 0 53 21t20 55q0 33 -20 53.5t-53 20.5t-53 -20.5t-20 -53.5q0 -34 20 -55t53 -21z" />
    <glyph glyph-name="AE" unicode="&#xc6;" horiz-adv-x="1044" 
d="M2 6q0 7 5 7l78 2q8 0 11.5 3.5t7.5 9.5l385 635q4 7 4 12t-2 7.5t-10 2.5l-78 3q-4 0 -4 8t4 8q33 -1 53.5 -1.5t35.5 -0.5h26.5h26.5h62h52.5h52.5t61.5 0.5t80 1t108.5 0.5q6 0 6 -6v-185q0 -5 -8 -5t-8 5q0 54 -8.5 88t-29.5 52.5t-56 25.5t-88 7h-162q-5 0 -10 -3.5
t-5 -12.5v-294q0 -6 6 -6h45q48 0 78 2t47 14.5t23.5 38.5t6.5 74q0 5 8 5t8 -5q-1 -45 -1 -75v-62v-64.5t1 -77.5q0 -5 -8 -5t-8 5q0 49 -6 76t-22.5 40t-47 15.5t-79.5 2.5h-45q-6 0 -6 -6v-316q0 -16 15 -16h173q61 0 100.5 9t63 31.5t32.5 62t10 99.5q0 4 8 4t8 -4
l-3 -214q0 -6 -5 -6q-68 0 -117 0.5t-85.5 1t-64.5 0.5h-54.5h-54.5h-65h-35t-31.5 -0.5t-37 -1t-51.5 -1.5q-4 0 -4 8t4 8l82 3q7 0 11.5 4.5t4.5 10.5v252q0 9 -9 9h-201q-4 0 -7 -6l-152 -250q-4 -7 -4 -12q0 -9 15 -9l80 -1q6 0 6 -8t-6 -8q-28 1 -45.5 1.5t-29.5 0.5
h-19.5h-15.5q-17 0 -38 -0.5t-64 -2.5q-5 0 -5 9zM296 312q0 -4 5 -4h187q9 0 9 9v324l-2 1l-196 -323l-2.5 -5t-0.5 -2z" />
    <glyph glyph-name="Ccedilla" unicode="&#xc7;" horiz-adv-x="706" 
d="M44 348q0 85 24.5 154t69.5 117.5t108.5 74.5t141.5 26q65 0 127 -18t111 -43q7 -3 7 -13v-156q0 -5 -8 -5t-9 8q-7 47 -17.5 80t-28.5 56q-31 40 -77 57.5t-103 17.5q-119 0 -175 -82.5t-56 -263.5v-1q0 -96 13 -164t41 -111t71 -62.5t104 -19.5q68 0 116.5 24t74.5 68
q16 27 24 67t15 81q1 7 8 7q8 0 8 -5l-2 -177q0 -6 -1.5 -8.5t-5.5 -4.5q-54 -32 -112 -49.5t-118 -18.5v-56q30 -8 46 -32.5t16 -55.5q0 -21 -8.5 -42.5t-25 -39t-41.5 -28t-59 -10.5q-5 0 -5 8t5 8q27 0 46.5 8t32.5 21t19.5 28t6.5 30q0 16 -7.5 28.5t-22.5 17.5l-2 -1
q-4 -14 -15.5 -23t-30.5 -9q-20 0 -32 13t-12 32q0 20 15.5 35.5t46.5 15.5q7 0 11 -1v53q-77 1 -139 27.5t-105.5 73.5t-67 114t-23.5 149z" />
    <glyph glyph-name="Egrave" unicode="&#xc8;" horiz-adv-x="680" 
d="M35 14l82 2q7 0 11.5 4.5t4.5 10.5v639q0 6 -4.5 10.5t-11.5 4.5l-78 2q-4 0 -4 8t4 8q33 0 53.5 -0.5t35.5 -0.5h26.5h26.5h62h52.5h52.5t61.5 0.5t80 1t108.5 0.5q6 0 6 -6v-185q0 -5 -8 -5t-8 5q0 54 -8.5 88t-29.5 52.5t-56 25.5t-88 7h-162q-5 0 -10 -3.5t-5 -12.5
v-294q0 -6 6 -6h45q50 0 80 2.5t46.5 14.5t22 38t6.5 74q0 5 8 5t8 -5q-1 -45 -1 -75v-62v-64.5t1 -77.5q0 -5 -8 -5t-8 5q-1 49 -6.5 76t-21.5 40t-46.5 15.5t-80.5 2.5h-45q-6 0 -6 -6v-316q0 -16 15 -16h173q61 0 100.5 9t63 31.5t32.5 62t9 99.5q0 4 8 4q9 0 9 -4
l-3 -214q0 -6 -5 -6q-68 0 -117 0.5t-85.5 1t-64.5 0.5h-54.5h-54.5h-65h-35h-31.5t-37 -0.5t-51.5 -1.5q-4 0 -4 8t4 8zM228 959h63q11 0 16 -10l81 -180q0 -4 -3.5 -6.5t-6.5 -2.5t-8 4l-142 167q-8 8 -9.5 11.5t-1.5 6.5q0 10 11 10z" />
    <glyph glyph-name="Eacute" unicode="&#xc9;" horiz-adv-x="680" 
d="M31 6q0 8 4 8l82 2q7 0 11.5 4.5t4.5 10.5v639q0 6 -4.5 10.5t-11.5 4.5l-78 2q-4 0 -4 8t4 8q33 0 53.5 -0.5t35.5 -0.5h26.5h26.5h62h52.5h52.5t61.5 0.5t80 1t108.5 0.5q6 0 6 -6v-185q0 -5 -8 -5t-8 5q0 54 -8.5 88t-29.5 52.5t-56 25.5t-88 7h-162q-5 0 -10 -3.5
t-5 -12.5v-294q0 -6 6 -6h45q50 0 80 2.5t46.5 14.5t22 38t6.5 74q0 5 8 5t8 -5q-1 -45 -1 -75v-62v-64.5t1 -77.5q0 -5 -8 -5t-8 5q-1 49 -6.5 76t-21.5 40t-46.5 15.5t-80.5 2.5h-45q-6 0 -6 -6v-316q0 -16 15 -16h173q61 0 100.5 9t63 31.5t32.5 62t9 99.5q0 4 8 4
q9 0 9 -4l-3 -214q0 -6 -5 -6q-68 0 -117 0.5t-85.5 1t-64.5 0.5h-54.5h-54.5h-65h-35h-31.5t-37 -0.5t-51.5 -1.5q-4 0 -4 8zM311 769l82 180q5 10 16 10h62q11 0 11 -10q0 -3 -1.5 -6.5t-9.5 -11.5l-142 -167q-5 -4 -8 -4t-6.5 2.5t-3.5 6.5z" />
    <glyph glyph-name="Ecircumflex" unicode="&#xca;" horiz-adv-x="680" 
d="M367 942q5 0 6.5 -1.5t5.5 -6.5l118 -164q5 -6 6 -7.5t1 -3.5q0 -4 -6 -4h-8q-3 0 -4.5 0.5t-6.5 4.5l-135 110q-5 4 -6 4.5t-3 0.5q-1 0 -2.5 -0.5t-5.5 -5.5l-89 -108q-5 -6 -9 -6h-6q-5 0 -5 4v3t5 7l121 166q4 5 6 6t6 1h11zM35 -2q-4 0 -4 8t4 8l82 2q7 0 11.5 4.5
t4.5 10.5v639q0 6 -4.5 10.5t-11.5 4.5l-78 2q-4 0 -4 8t4 8q33 0 53.5 -0.5t35.5 -0.5h26.5h26.5h62h52.5h52.5t61.5 0.5t80 1t108.5 0.5q6 0 6 -6v-185q0 -5 -8 -5t-8 5q0 54 -8.5 88t-29.5 52.5t-56 25.5t-88 7h-162q-5 0 -10 -3.5t-5 -12.5v-294q0 -6 6 -6h45q49 0 79 2
t46.5 14t22.5 38.5t7 74.5q0 5 8 5t8 -5q-1 -45 -1 -75v-62v-64.5t1 -77.5q0 -5 -8 -5t-8 5q-1 50 -6.5 77t-22 39.5t-46.5 15t-80 2.5h-45q-6 0 -6 -6v-316q0 -16 15 -16h173q61 0 100.5 9t63 31.5t32.5 62t9 99.5q0 4 8 4q9 0 9 -4l-3 -214q0 -6 -5 -6q-68 0 -117 0.5
t-85.5 1t-64.5 0.5h-54.5h-54.5h-65h-35h-31.5t-37 -0.5t-51.5 -1.5z" />
    <glyph glyph-name="Edieresis" unicode="&#xcb;" horiz-adv-x="680" 
d="M35 14l82 2q7 0 11.5 4.5t4.5 10.5v639q0 6 -4.5 10.5t-11.5 4.5l-78 2q-4 0 -4 8t4 8q33 0 53.5 -0.5t35.5 -0.5h26.5h26.5h62h52.5h52.5t61.5 0.5t80 1t108.5 0.5q6 0 6 -6v-185q0 -5 -8 -5t-8 5q0 54 -8.5 88t-29.5 52.5t-56 25.5t-88 7h-162q-5 0 -10 -3.5t-5 -12.5
v-294q0 -6 6 -6h45q50 0 80 2.5t46.5 14.5t22 38t6.5 74q0 5 8 5t8 -5q-1 -45 -1 -75v-62v-64.5t1 -77.5q0 -5 -8 -5t-8 5q-1 49 -6.5 76t-21.5 40t-46.5 15.5t-80.5 2.5h-45q-6 0 -6 -6v-316q0 -16 15 -16h173q61 0 100.5 9t63 31.5t32.5 62t9 99.5q0 4 8 4q9 0 9 -4
l-3 -214q0 -6 -5 -6q-68 0 -117 0.5t-85.5 1t-64.5 0.5h-54.5h-54.5h-65h-35h-31.5t-37 -0.5t-51.5 -1.5q-4 0 -4 8t4 8zM405 822q0 21 13.5 35t36.5 14q22 0 36 -14t14 -35q0 -23 -14 -36.5t-36 -13.5q-23 0 -36.5 13.5t-13.5 36.5zM206 822q0 21 13.5 35t36.5 14
q22 0 36 -14t14 -35q0 -23 -14 -36.5t-36 -13.5q-23 0 -36.5 13.5t-13.5 36.5z" />
    <glyph glyph-name="Igrave" unicode="&#xcc;" horiz-adv-x="368" 
d="M36 704q34 -1 55.5 -1.5t36.5 -0.5h27.5h27.5h33.5h31.5t36 0.5t47 1.5q6 0 6 -9q0 -8 -6 -8h-85q-14 0 -14 -14v-645q0 -8 3.5 -10.5t8.5 -2.5h87q5 0 5 -8t-5 -8q-32 0 -52 0.5t-35 0.5h-28.5h-32.5h-31h-28.5t-35.5 -0.5t-51 -0.5q-5 0 -5 8t5 8l83 1q6 0 11 2.5
t5 12.5v643q0 8 -4 10.5t-9 2.5l-87 1q-5 0 -5 8t5 8zM48 949q0 10 11 10h63q11 0 16 -10l81 -180q0 -4 -3.5 -6.5t-6.5 -2.5t-8 4l-142 167q-8 8 -9.5 11.5t-1.5 6.5z" />
    <glyph glyph-name="Iacute" unicode="&#xcd;" horiz-adv-x="368" 
d="M31 696q0 8 5 8q34 -1 55.5 -1.5t36.5 -0.5h27.5h27.5h33.5h31.5t36 0.5t47 1.5q6 0 6 -9q0 -8 -6 -8h-85q-14 0 -14 -14v-645q0 -8 3.5 -10.5t8.5 -2.5h87q5 0 5 -8t-5 -8q-32 0 -52 0.5t-35 0.5h-28.5h-32.5h-31h-28.5t-35.5 -0.5t-51 -0.5q-5 0 -5 8t5 8l83 1
q6 0 11 2.5t5 12.5v643q0 8 -4 10.5t-9 2.5l-87 1q-5 0 -5 8zM224 949q5 10 16 10h62q11 0 11 -10q0 -3 -1.5 -6.5t-9.5 -11.5l-142 -167q-5 -4 -8 -4t-6.5 2.5t-3.5 6.5z" />
    <glyph glyph-name="Icircumflex" unicode="&#xce;" horiz-adv-x="368" 
d="M198 942q5 0 6.5 -1.5t5.5 -6.5l118 -164q5 -6 6 -7.5t1 -3.5q0 -4 -6 -4h-8q-3 0 -4.5 0.5t-6.5 4.5l-135 110q-5 4 -6 4.5t-3 0.5q-1 0 -2.5 -0.5t-5.5 -5.5l-89 -108q-5 -6 -9 -6h-6q-5 0 -5 4v3t5 7l121 166q4 5 6 6t6 1h11zM37 -1q-5 0 -5 8t5 8l83 1q6 0 11 2.5
t5 12.5v643q0 8 -4 10.5t-9 2.5l-87 1q-5 0 -5 8t5 8q34 -1 55.5 -1.5t36.5 -0.5h27.5h27.5h33.5h31.5t36 0.5t47 1.5q6 0 6 -9q0 -8 -6 -8h-85q-14 0 -14 -14v-645q0 -8 3.5 -10.5t8.5 -2.5h87q5 0 5 -8t-5 -8q-32 0 -52 0.5t-35 0.5h-28.5h-32.5h-31h-28.5t-35.5 -0.5
t-51 -0.5z" />
    <glyph glyph-name="Idieresis" unicode="&#xcf;" horiz-adv-x="368" 
d="M31 696q0 8 5 8q34 -1 55.5 -1.5t36.5 -0.5h27.5h27.5h33.5h31.5t36 0.5t47 1.5q6 0 6 -9q0 -8 -6 -8h-85q-14 0 -14 -14v-645q0 -8 3.5 -10.5t8.5 -2.5h87q5 0 5 -8t-5 -8q-32 0 -52 0.5t-35 0.5h-28.5h-32.5h-31h-28.5t-35.5 -0.5t-51 -0.5q-5 0 -5 8t5 8l83 1
q6 0 11 2.5t5 12.5v643q0 8 -4 10.5t-9 2.5l-87 1q-5 0 -5 8zM236 822q0 21 13.5 35t36.5 14q22 0 36 -14t14 -35q0 -23 -14 -36.5t-36 -13.5q-23 0 -36.5 13.5t-13.5 36.5zM37 822q0 21 13.5 35t36.5 14q22 0 36 -14t14 -35q0 -23 -14 -36.5t-36 -13.5q-23 0 -36.5 13.5
t-13.5 36.5z" />
    <glyph glyph-name="Eth" unicode="&#xd0;" horiz-adv-x="777" 
d="M36 -3q-5 0 -5 9q0 8 5 8l73 3q6 0 11 3.5t5 11.5v306q0 16 -16 16h-73q-5 0 -5 8q0 9 5 9h73q16 0 16 15v284q0 15 -16 15l-73 3q-5 0 -5 8q0 9 5 9q30 -1 48 -1.5t32 -1t27 -0.5h31h29h27.5t31.5 0.5t41 0.5q26 0 45 0.5t34.5 0.5h30h31.5q140 0 214.5 -87.5
t74.5 -255.5q0 -181 -85.5 -272.5t-237.5 -91.5q-28 0 -55 0.5t-68 1.5q-19 0 -34 0.5t-28 0.5h-25h-26h-31.5t-27.5 -0.5t-32 -1t-47 -1.5zM394 14q60 0 104 18.5t72.5 58.5t42 103t13.5 151v10q0 170 -52 251.5t-160 81.5l-100 -1q-22 0 -34.5 -0.5t-20 -0.5t-12.5 -0.5
t-12 -0.5q-14 0 -14 -14v-285q0 -15 16 -15h123q5 0 5 -9q0 -8 -5 -8h-123q-16 0 -16 -16v-307q0 -14 14 -14q40 -2 79.5 -2.5t79.5 -0.5z" />
    <glyph glyph-name="Ntilde" unicode="&#xd1;" horiz-adv-x="759" 
d="M36 704q23 -1 38 -1.5t25.5 -0.5h18h15.5h17h19t26.5 0.5t39.5 0.5q3 0 5 -1t6 -6l377 -548h1v524q0 14 -14 14l-80 2q-5 0 -5 8t5 8q25 -1 40.5 -1.5t26.5 -0.5h19h17h17h18.5t25.5 0.5t39 0.5q5 0 5 -7q0 -9 -5 -9l-78 -1q-14 0 -14 -14v-672q0 -10 -9 -10h-5
q-8 0 -14 10l-459 665h-2v-636q0 -14 14 -14l81 -1q5 0 5 -8t-5 -8q-25 1 -41.5 1.5t-27 0.5h-18h-16.5h-17h-18.5t-26 -0.5t-40.5 -0.5q-5 0 -5 8t5 8h80q14 0 14 13v642q0 10 -4.5 12.5t-10.5 2.5l-85 2q-5 0 -5 8q0 9 5 9zM218 775q0 65 27 98t70 33q31 0 55 -13t41 -27
q19 -14 38 -24.5t42 -10.5q29 0 44.5 18.5t17.5 51.5q1 4 8 4t7 -4q0 -65 -27 -98t-70 -33q-31 0 -54.5 13t-41.5 27q-19 14 -38 24.5t-42 10.5q-29 0 -44.5 -18.5t-17.5 -51.5q-1 -4 -8 -4t-7 4z" />
    <glyph glyph-name="Ograve" unicode="&#xd2;" horiz-adv-x="742" 
d="M44 347q0 84 23.5 152.5t67 117t104 75t133.5 26.5t133 -25.5t103 -72.5t66.5 -114t23.5 -150q0 -84 -23.5 -152.5t-66.5 -117t-103 -75.5t-133 -27t-133.5 25.5t-104 73t-67 114.5t-23.5 150zM373 0q110 0 161.5 82t51.5 265v2q0 182 -53 267.5t-160 85.5
q-112 0 -164.5 -82t-52.5 -265v-1q0 -185 52.5 -269.5t164.5 -84.5zM236 949q0 10 11 10h63q11 0 16 -10l81 -180q0 -4 -3.5 -6.5t-6.5 -2.5t-8 4l-142 167q-8 8 -9.5 11.5t-1.5 6.5z" />
    <glyph glyph-name="Oacute" unicode="&#xd3;" horiz-adv-x="742" 
d="M44 347q0 84 23.5 152.5t67 117t104 75t133.5 26.5t133 -25.5t103 -72.5t66.5 -114t23.5 -150q0 -84 -23.5 -152.5t-66.5 -117t-103 -75.5t-133 -27t-133.5 25.5t-104 73t-67 114.5t-23.5 150zM156 354q0 -185 52.5 -269.5t164.5 -84.5q110 0 161.5 82t51.5 265v2
q0 182 -53 267.5t-160 85.5q-112 0 -164.5 -82t-52.5 -265v-1zM412 949q5 10 16 10h62q11 0 11 -10q0 -3 -1.5 -6.5t-9.5 -11.5l-142 -167q-5 -4 -8 -4t-6.5 2.5t-3.5 6.5z" />
    <glyph glyph-name="Ocircumflex" unicode="&#xd4;" horiz-adv-x="742" 
d="M386 942q5 0 6.5 -1.5t5.5 -6.5l118 -164q5 -6 6 -7.5t1 -3.5q0 -4 -6 -4h-8q-3 0 -4.5 0.5t-6.5 4.5l-135 110q-5 4 -6 4.5t-3 0.5q-1 0 -2.5 -0.5t-5.5 -5.5l-89 -108q-5 -6 -9 -6h-6q-5 0 -5 4v3t5 7l121 166q4 5 6 6t6 1h11zM372 -16q-73 0 -133.5 25.5t-104 73
t-67 114.5t-23.5 150q0 84 23.5 152.5t67 117t104 75t133.5 26.5t133 -25.5t103 -72.5t66.5 -114t23.5 -150q0 -84 -23.5 -152.5t-66.5 -117t-103 -75.5t-133 -27zM373 0q110 0 161.5 82t51.5 265v2q0 182 -53 267.5t-160 85.5q-112 0 -164.5 -82t-52.5 -265v-1
q0 -185 52.5 -269.5t164.5 -84.5z" />
    <glyph glyph-name="Otilde" unicode="&#xd5;" horiz-adv-x="742" 
d="M44 347q0 84 23.5 152.5t67 117t104 75t133.5 26.5t133 -25.5t103 -72.5t66.5 -114t23.5 -150q0 -84 -23.5 -152.5t-66.5 -117t-103 -75.5t-133 -27t-133.5 25.5t-104 73t-67 114.5t-23.5 150zM156 355v-1q0 -185 52.5 -269.5t164.5 -84.5q110 0 161.5 82t51.5 265v2
q0 182 -53 267.5t-160 85.5q-112 0 -164.5 -82t-52.5 -265zM199 775q0 65 27 98t70 33q31 0 55 -13t41 -27q19 -14 38 -24.5t42 -10.5q29 0 44.5 18.5t17.5 51.5q1 4 8 4t7 -4q0 -65 -27 -98t-70 -33q-31 0 -54.5 13t-41.5 27q-19 14 -38 24.5t-42 10.5q-29 0 -44.5 -18.5
t-17.5 -51.5q-1 -4 -8 -4t-7 4z" />
    <glyph glyph-name="Odieresis" unicode="&#xd6;" horiz-adv-x="742" 
d="M44 347q0 84 23.5 152.5t67 117t104 75t133.5 26.5t133 -25.5t103 -72.5t66.5 -114t23.5 -150q0 -84 -23.5 -152.5t-66.5 -117t-103 -75.5t-133 -27t-133.5 25.5t-104 73t-67 114.5t-23.5 150zM156 355v-1q0 -185 52.5 -269.5t164.5 -84.5q110 0 161.5 82t51.5 265v2
q0 182 -53 267.5t-160 85.5q-112 0 -164.5 -82t-52.5 -265zM474 871q22 0 36 -14t14 -35q0 -23 -14 -36.5t-36 -13.5q-23 0 -36.5 13.5t-13.5 36.5q0 21 13.5 35t36.5 14zM225 822q0 21 13.5 35t36.5 14q22 0 36 -14t14 -35q0 -23 -14 -36.5t-36 -13.5q-23 0 -36.5 13.5
t-13.5 36.5z" />
    <glyph glyph-name="multiply" unicode="&#xd7;" horiz-adv-x="600" 
d="M71 37l214 214l-213 214l15 14l213 -213l213 213l15 -15l-213 -213l214 -214l-15 -15l-214 213l-215 -213z" />
    <glyph glyph-name="Oslash" unicode="&#xd8;" horiz-adv-x="748" 
d="M44 347q0 84 23.5 152.5t67 117t104 75t133.5 26.5q74 0 133.5 -25t102.5 -73l69 76q4 5 5 5.5t3 0.5h15q4 0 4 -2t-1 -3.5t-6 -6.5l-76 -84q37 -47 57 -109.5t20 -140.5q0 -84 -23.5 -152.5t-66.5 -117t-103 -75.5t-133 -27q-72 0 -130 23.5t-102 68.5l-63 -70
q-4 -5 -5 -5.5t-3 -0.5h-15q-3 0 -3 2t0.5 3.5t5.5 6.5l71 78q-41 48 -62.5 112t-21.5 145zM180 148l377 416q-24 71 -70 104.5t-114 33.5q-112 0 -164.5 -82t-52.5 -265v-1q0 -126 24 -206zM373 0q110 0 161.5 82t51.5 265v2q0 119 -22 194l-377 -415q26 -66 71.5 -97
t114.5 -31z" />
    <glyph glyph-name="Ugrave" unicode="&#xd9;" horiz-adv-x="783" 
d="M35 696q0 7 5 7q34 0 55 -0.5t36 -0.5h27h28h29.5h28t38.5 0.5t60 1.5q6 0 6 -8t-6 -8l-95 -1q-6 0 -10 -3t-4 -12v-506q0 -43 10.5 -72.5t33 -48t59.5 -26.5t89 -8q109 0 159 41t50 136v484q0 9 -4 11.5t-10 2.5l-81 2q-5 0 -5 8t5 8q25 -1 41 -1.5t27 -0.5h19h18h18.5
h19t25.5 0.5t38 0.5q6 0 6 -7q0 -9 -6 -9l-79 -1q-7 0 -11 -2.5t-4 -11.5v-482q0 -54 -14 -92t-44.5 -62t-79 -35t-116.5 -11q-132 0 -196 38.5t-64 122.5v521q0 9 -3.5 11.5t-10.5 3.5h-83q-5 0 -5 9zM278 949q0 10 11 10h63q11 0 16 -10l81 -180q0 -4 -3.5 -6.5t-6.5 -2.5
t-8 4l-142 167q-8 8 -9.5 11.5t-1.5 6.5z" />
    <glyph glyph-name="Uacute" unicode="&#xda;" horiz-adv-x="783" 
d="M35 696q0 7 5 7q34 0 55 -0.5t36 -0.5h27h28h29.5h28t38.5 0.5t60 1.5q6 0 6 -8t-6 -8l-95 -1q-6 0 -10 -3t-4 -12v-506q0 -43 10.5 -72.5t33 -48t59.5 -26.5t89 -8q109 0 159 41t50 136v484q0 9 -4 11.5t-10 2.5l-81 2q-5 0 -5 8t5 8q25 -1 41 -1.5t27 -0.5h19h18h18.5
h19t25.5 0.5t38 0.5q6 0 6 -7q0 -9 -6 -9l-79 -1q-7 0 -11 -2.5t-4 -11.5v-482q0 -54 -14 -92t-44.5 -62t-79 -35t-116.5 -11q-132 0 -196 38.5t-64 122.5v521q0 9 -3.5 11.5t-10.5 3.5h-83q-5 0 -5 9zM454 949q5 10 16 10h62q11 0 11 -10q0 -3 -1.5 -6.5t-9.5 -11.5
l-142 -167q-5 -4 -8 -4t-6.5 2.5t-3.5 6.5z" />
    <glyph glyph-name="Ucircumflex" unicode="&#xdb;" horiz-adv-x="783" 
d="M428 942q5 0 6.5 -1.5t5.5 -6.5l118 -164q5 -6 6 -7.5t1 -3.5q0 -4 -6 -4h-8q-3 0 -4.5 0.5t-6.5 4.5l-135 110q-5 4 -6 4.5t-3 0.5q-1 0 -2.5 -0.5t-5.5 -5.5l-89 -108q-5 -6 -9 -6h-6q-5 0 -5 4v3t5 7l121 166q4 5 6 6t6 1h11zM397 -10q-132 0 -196 38.5t-64 122.5v521
q0 9 -3.5 11.5t-10.5 3.5h-83q-5 0 -5 9q0 7 5 7q34 0 55 -0.5t36 -0.5h27h28h29.5h28t38.5 0.5t60 1.5q6 0 6 -8t-6 -8l-95 -1q-6 0 -10 -3t-4 -12v-506q0 -43 10.5 -72.5t33 -48t59.5 -26.5t89 -8q109 0 159 41t50 136v484q0 9 -4 11.5t-10 2.5l-81 2q-5 0 -5 8t5 8
q25 -1 41 -1.5t27 -0.5h19h18h18.5h19t25.5 0.5t38 0.5q6 0 6 -7q0 -9 -6 -9l-79 -1q-7 0 -11 -2.5t-4 -11.5v-482q0 -54 -14 -92t-44.5 -62t-79 -35t-116.5 -11z" />
    <glyph glyph-name="Udieresis" unicode="&#xdc;" horiz-adv-x="783" 
d="M40 703q34 0 55 -0.5t36 -0.5h27h28h29.5h28t38.5 0.5t60 1.5q6 0 6 -8t-6 -8l-95 -1q-6 0 -10 -3t-4 -12v-506q0 -43 10.5 -72.5t33 -48t59.5 -26.5t89 -8q109 0 159 41t50 136v484q0 9 -4 11.5t-10 2.5l-81 2q-5 0 -5 8t5 8q25 -1 41 -1.5t27 -0.5h19h18h18.5h19
t25.5 0.5t38 0.5q6 0 6 -7q0 -9 -6 -9l-79 -1q-7 0 -11 -2.5t-4 -11.5v-482q0 -54 -14 -92t-44.5 -62t-79 -35t-116.5 -11q-132 0 -196 38.5t-64 122.5v521q0 9 -3.5 11.5t-10.5 3.5h-83q-5 0 -5 9q0 7 5 7zM516 871q22 0 36 -14t14 -35q0 -23 -14 -36.5t-36 -13.5
q-23 0 -36.5 13.5t-13.5 36.5q0 21 13.5 35t36.5 14zM267 822q0 21 13.5 35t36.5 14q22 0 36 -14t14 -35q0 -23 -14 -36.5t-36 -13.5q-23 0 -36.5 13.5t-13.5 36.5z" />
    <glyph glyph-name="Yacute" unicode="&#xdd;" horiz-adv-x="630" 
d="M2 695q0 9 5 9q26 -1 44 -1.5t32 -0.5h27h28h32h30t37 0.5t53 1.5q5 0 5 -7q0 -9 -5 -9l-72 -1q-15 -2 -15 -10q0 -2 0.5 -3.5t2.5 -5.5l154 -266l149 267q2 4 2.5 6t0.5 3q0 8 -12 9l-77 1q-5 0 -5 9q0 7 5 7q23 -1 38.5 -1.5t26.5 -0.5h20h20h21h19.5t23 0.5t31.5 0.5
q6 0 6 -8t-6 -8l-73 -1q-8 0 -11.5 -2.5t-8.5 -9.5l-162 -291v-354q0 -13 14 -13l87 -3q5 0 5 -7q0 -9 -5 -9q-33 1 -53.5 1.5t-35.5 1t-28.5 0.5h-31.5h-29.5t-27.5 -0.5t-36 -1t-54 -1.5q-5 0 -5 8t5 8l89 3q13 0 13 13v315q0 11 -1.5 18t-7.5 16l-177 297q-5 8 -8 9.5
t-12 2.5h-62q-5 0 -5 8zM382 949q5 10 16 10h62q11 0 11 -10q0 -3 -1.5 -6.5t-9.5 -11.5l-142 -167q-5 -4 -8 -4t-6.5 2.5t-3.5 6.5z" />
    <glyph glyph-name="Thorn" unicode="&#xde;" horiz-adv-x="606" 
d="M36 705q34 -1 55.5 -1.5t36.5 -1t27.5 -0.5h27.5h33.5t31.5 0.5t36 1t47 1.5q6 0 6 -9q0 -8 -6 -8l-85 -1q-14 0 -14 -14v-107q0 -10 10 -10h120q106 0 157 -45.5t51 -148.5q0 -193 -208 -193h-126q-4 0 -4 -4v-136q0 -14 14 -14l80 -1q6 0 6 -8t-6 -8q-32 1 -52.5 1.5
t-35 0.5h-26.5h-28h-31.5h-28t-33.5 -0.5t-48 -1.5q-6 0 -6 8t6 8l79 2q14 0 14 13v645q0 8 -4 10.5t-9 2.5l-87 2q-5 0 -5 8t5 8zM236 185h100q69 0 99.5 39t30.5 130v3q0 52 -7.5 87t-23.5 56.5t-41 30.5t-59 9h-49t-42 -2q-12 -1 -12 -13v-336q0 -4 4 -4z" />
    <glyph glyph-name="germandbls" unicode="&#xdf;" horiz-adv-x="587" 
d="M12 1v9q0 4 4 4l49 3q16 0 16 15v436q0 127 57 192t172 65q91 0 136.5 -39t45.5 -110q0 -63 -38.5 -102t-132.5 -50v-2q120 -5 178 -58.5t58 -160.5q0 -99 -46.5 -156t-131.5 -57q-73 0 -107 41.5t-34 126.5q0 6 11 6q6 0 6 -6q0 -74 26.5 -111t76.5 -37q57 0 79.5 48
t22.5 138q0 60 -10 101t-33.5 66.5t-62 37t-95.5 11.5q-4 0 -4 4v9q0 3 4 3q73 0 108.5 39t35.5 114q0 64 -27 95.5t-78 31.5q-64 0 -95.5 -47.5t-31.5 -147.5v-481q0 -15 15 -15l47 -2q4 0 4 -4v-9q0 -4 -4 -4q-31 2 -53 2h-52q-40 0 -112 -3q-4 0 -4 4z" />
    <glyph glyph-name="agrave" unicode="&#xe0;" horiz-adv-x="505" 
d="M34 129q0 62 30 92.5t87 41.5q33 6 57 11t43 10t34.5 10.5t29.5 12.5v66q0 50 -20.5 75.5t-67.5 25.5q-38 0 -57 -16t-19 -40q0 -7 1.5 -11.5l3 -9t3 -9.5t1.5 -13q0 -21 -13 -31.5t-33 -10.5q-21 0 -33.5 10.5t-12.5 32.5q0 52 46 83t127 31q166 0 166 -143v-61t-1 -62
v-137q0 -41 9.5 -57t27.5 -16q14 0 25.5 6.5t23.5 19.5q10 0 10 -12q-18 -21 -40 -29t-54 -8q-45 0 -67 17.5t-24 58.5v32h-2q-22 -55 -56 -82t-96 -27q-63 0 -96 35t-33 104zM199 16q38 0 62 23.5t38 58.5q10 24 13.5 49t3.5 59v81l-1 2q-19 -9 -40 -15t-46 -11
q-29 -8 -48.5 -17.5t-31.5 -24.5t-17 -36.5t-5 -53.5q0 -60 19.5 -87.5t52.5 -27.5zM101 724q0 10 11 10h63q11 0 16 -10l81 -180q0 -4 -3.5 -6.5t-6.5 -2.5t-8 4l-142 167q-8 8 -9.5 11.5t-1.5 6.5z" />
    <glyph glyph-name="aacute" unicode="&#xe1;" horiz-adv-x="505" 
d="M151 263q33 6 57 11t43 10t34.5 10.5t29.5 12.5v66q0 50 -20.5 75.5t-67.5 25.5q-38 0 -57 -16t-19 -40q0 -7 1.5 -11.5l3 -9t3 -9.5t1.5 -13q0 -21 -13 -31.5t-33 -10.5q-21 0 -33.5 10.5t-12.5 32.5q0 52 46 83t127 31q166 0 166 -143v-61t-1 -62v-137q0 -41 9.5 -57
t27.5 -16q14 0 25.5 6.5t23.5 19.5q10 0 10 -12q-18 -21 -40 -29t-54 -8q-45 0 -67 17.5t-24 58.5v32h-2q-22 -55 -56 -82t-96 -27q-63 0 -96 35t-33 104q0 62 30 92.5t87 41.5zM127 131q0 -60 19.5 -87.5t52.5 -27.5q38 0 62 23.5t38 58.5q10 24 13.5 49t3.5 59v81l-1 2
q-19 -9 -40 -15t-46 -11q-29 -8 -48.5 -17.5t-31.5 -24.5t-17 -36.5t-5 -53.5zM277 724q5 10 16 10h62q11 0 11 -10q0 -3 -1.5 -6.5t-9.5 -11.5l-142 -167q-5 -4 -8 -4t-6.5 2.5t-3.5 6.5z" />
    <glyph glyph-name="acircumflex" unicode="&#xe2;" horiz-adv-x="505" 
d="M251 717q5 0 6.5 -1.5t5.5 -6.5l118 -164q5 -6 6 -7.5t1 -3.5q0 -4 -6 -4h-8q-3 0 -4.5 0.5t-6.5 4.5l-135 110q-5 4 -6 4.5t-3 0.5q-1 0 -2.5 -0.5t-5.5 -5.5l-89 -108q-5 -6 -9 -6h-6q-5 0 -5 4v3t5 7l121 166q4 5 6 6t6 1h11zM163 -10q-63 0 -96 35t-33 104
q0 62 30 92.5t87 41.5q33 6 57 11t43 10t34.5 10.5t29.5 12.5v66q0 50 -20.5 75.5t-67.5 25.5q-38 0 -57 -16t-19 -40q0 -7 1.5 -11.5l3 -9t3 -9.5t1.5 -13q0 -21 -13 -31.5t-33 -10.5q-21 0 -33.5 10.5t-12.5 32.5q0 52 46 83t127 31q166 0 166 -143v-61t-1 -62v-137
q0 -41 9.5 -57t27.5 -16q14 0 25.5 6.5t23.5 19.5q10 0 10 -12q-18 -21 -40 -29t-54 -8q-45 0 -67 17.5t-24 58.5v32h-2q-22 -55 -56 -82t-96 -27zM199 16q38 0 62 23.5t38 58.5q10 24 13.5 49t3.5 59v81l-1 2q-19 -9 -40 -15t-46 -11q-29 -8 -48.5 -17.5t-31.5 -24.5
t-17 -36.5t-5 -53.5q0 -60 19.5 -87.5t52.5 -27.5z" />
    <glyph glyph-name="atilde" unicode="&#xe3;" horiz-adv-x="505" 
d="M34 129q0 62 30 92.5t87 41.5q33 6 57 11t43 10t34.5 10.5t29.5 12.5v66q0 50 -20.5 75.5t-67.5 25.5q-38 0 -57 -16t-19 -40q0 -7 1.5 -11.5l3 -9t3 -9.5t1.5 -13q0 -21 -13 -31.5t-33 -10.5q-21 0 -33.5 10.5t-12.5 32.5q0 52 46 83t127 31q166 0 166 -143v-61t-1 -62
v-137q0 -41 9.5 -57t27.5 -16q14 0 25.5 6.5t23.5 19.5q10 0 10 -12q-18 -21 -40 -29t-54 -8q-45 0 -67 17.5t-24 58.5v32h-2q-22 -55 -56 -82t-96 -27q-63 0 -96 35t-33 104zM199 16q38 0 62 23.5t38 58.5q10 24 13.5 49t3.5 59v81l-1 2q-19 -9 -40 -15t-46 -11
q-29 -8 -48.5 -17.5t-31.5 -24.5t-17 -36.5t-5 -53.5q0 -60 19.5 -87.5t52.5 -27.5zM64 550q0 65 27 98t70 33q31 0 55 -13t41 -27q19 -14 38 -24.5t42 -10.5q29 0 44.5 18.5t17.5 51.5q1 4 8 4t7 -4q0 -65 -27 -98t-70 -33q-31 0 -54.5 13t-41.5 27q-19 14 -38 24.5
t-42 10.5q-29 0 -44.5 -18.5t-17.5 -51.5q-1 -4 -8 -4t-7 4z" />
    <glyph glyph-name="adieresis" unicode="&#xe4;" horiz-adv-x="505" 
d="M34 129q0 62 30 92.5t87 41.5q33 6 57 11t43 10t34.5 10.5t29.5 12.5v66q0 50 -20.5 75.5t-67.5 25.5q-38 0 -57 -16t-19 -40q0 -7 1.5 -11.5l3 -9t3 -9.5t1.5 -13q0 -21 -13 -31.5t-33 -10.5q-21 0 -33.5 10.5t-12.5 32.5q0 52 46 83t127 31q166 0 166 -143v-61t-1 -62
v-137q0 -41 9.5 -57t27.5 -16q14 0 25.5 6.5t23.5 19.5q10 0 10 -12q-18 -21 -40 -29t-54 -8q-45 0 -67 17.5t-24 58.5v32h-2q-22 -55 -56 -82t-96 -27q-63 0 -96 35t-33 104zM127 131q0 -60 19.5 -87.5t52.5 -27.5q38 0 62 23.5t38 58.5q10 24 13.5 49t3.5 59v81l-1 2
q-19 -9 -40 -15t-46 -11q-29 -8 -48.5 -17.5t-31.5 -24.5t-17 -36.5t-5 -53.5zM289 656q0 22 13.5 35.5t36.5 13.5q22 0 36 -13.5t14 -35.5t-14 -36t-36 -14q-23 0 -36.5 14t-13.5 36zM90 656q0 22 13.5 35.5t36.5 13.5q22 0 36 -13.5t14 -35.5t-14 -36t-36 -14
q-23 0 -36.5 14t-13.5 36z" />
    <glyph glyph-name="aring" unicode="&#xe5;" horiz-adv-x="505" 
d="M151 263q33 6 57 11t43 10t34.5 10.5t29.5 12.5v66q0 50 -20.5 75.5t-67.5 25.5q-38 0 -57 -16t-19 -40q0 -7 1.5 -11.5l3 -9t3 -9.5t1.5 -13q0 -21 -13 -31.5t-33 -10.5q-21 0 -33.5 10.5t-12.5 32.5q0 52 46 83t127 31q166 0 166 -143v-61t-1 -62v-137q0 -41 9.5 -57
t27.5 -16q14 0 25.5 6.5t23.5 19.5q10 0 10 -12q-18 -21 -40 -29t-54 -8q-45 0 -67 17.5t-24 58.5v32h-2q-22 -55 -56 -82t-96 -27q-63 0 -96 35t-33 104q0 62 30 92.5t87 41.5zM199 16q38 0 62 23.5t38 58.5q10 24 13.5 49t3.5 59v81l-1 2q-19 -9 -40 -15t-46 -11
q-29 -8 -48.5 -17.5t-31.5 -24.5t-17 -36.5t-5 -53.5q0 -60 19.5 -87.5t52.5 -27.5zM141 618q0 44 26.5 70t71.5 26t71.5 -26t26.5 -70q0 -45 -26.5 -72t-71.5 -27t-71.5 27t-26.5 72zM239 542q33 0 53 21t20 55q0 33 -20 53.5t-53 20.5t-53 -20.5t-20 -53.5q0 -34 20 -55
t53 -21z" />
    <glyph glyph-name="ae" unicode="&#xe6;" horiz-adv-x="796" 
d="M34 122q0 39 9 64t26.5 40.5t43 23.5t59.5 13q23 3 39 5.5t33 6.5q20 5 37.5 10.5t32.5 15.5v74q0 96 -85 96q-35 0 -53.5 -14.5t-18.5 -39.5q0 -15 4 -23.5t4 -23.5q0 -23 -13.5 -33.5t-36.5 -10.5q-22 0 -34.5 11.5t-12.5 34.5q0 53 44.5 84.5t126.5 31.5
q106 0 141 -65q29 33 72 51t97 18q49 0 89 -15t68.5 -43t44.5 -67.5t16 -89.5q0 -6 -5 -6h-339q-6 0 -6 -6v-45q0 -105 40.5 -158t117.5 -53q33 0 58 9.5t43.5 26.5t33.5 40.5t28 50.5q2 3 6 3q9 0 9 -8q-23 -68 -73.5 -105.5t-130.5 -37.5q-83 0 -141 42t-80 120h-1
q-19 -159 -154 -159q-69 0 -104 33.5t-35 97.5zM424 287h238q6 0 6 6v5q0 38 -7 70.5t-22.5 56.5t-39.5 37.5t-58 13.5q-37 0 -61 -16t-37.5 -41.5t-19 -57.5t-5.5 -63v-5q0 -6 6 -6zM130 130q0 -58 19.5 -84.5t54.5 -26.5q54 0 82.5 47t28.5 133v80l-2 1q-16 -8 -38.5 -14
t-45.5 -11q-58 -14 -78.5 -43.5t-20.5 -81.5z" />
    <glyph glyph-name="ccedilla" unicode="&#xe7;" horiz-adv-x="486" 
d="M30 231q0 60 16 107.5t46 81.5t72.5 52t96.5 18q42 0 76.5 -11t59 -29t38.5 -42t14 -50q0 -25 -14.5 -36.5t-34.5 -11.5q-18 0 -30.5 10.5t-12.5 32.5q0 19 3.5 30.5t0.5 27.5q-4 30 -32 46t-67 16q-35 0 -60.5 -12.5t-42 -40t-24.5 -71.5t-8 -106v-13q0 -121 36.5 -172
t108.5 -51q45 0 86 33t81 113q2 3 5 3q10 0 10 -7q-17 -76 -67 -118.5t-126 -44.5v-58q30 -8 46 -32.5t16 -55.5q0 -21 -8.5 -42.5t-25 -39t-41.5 -28t-59 -10.5q-5 0 -5 8t5 8q27 0 46.5 8t32.5 21t19.5 28t6.5 30q0 16 -7.5 28.5t-22.5 17.5l-2 -1q-4 -14 -15.5 -23
t-30.5 -9q-20 0 -32 13t-12 32q0 20 15.5 35.5t46.5 15.5q7 0 11 -1v55q-98 3 -156.5 65.5t-58.5 179.5z" />
    <glyph glyph-name="egrave" unicode="&#xe8;" horiz-adv-x="502" 
d="M30 239q0 59 16 105.5t45.5 79.5t71.5 50.5t94 17.5q48 0 88 -15.5t68.5 -43.5t44 -67.5t15.5 -88.5q0 -6 -5 -6h-331q-6 0 -6 -6v-45q0 -105 40 -158t112 -53q33 0 57 10t43 27t33.5 40t27.5 50q2 3 6 3q9 0 9 -8q-23 -68 -73.5 -105.5t-128.5 -37.5q-51 0 -92.5 16.5
t-71.5 49t-46.5 79t-16.5 106.5zM132 298v-5q0 -6 6 -6h230q6 0 6 6v5q0 81 -29.5 129.5t-91.5 48.5q-37 0 -60.5 -16.5t-37 -42t-18.5 -57t-5 -62.5zM113 724q0 10 11 10h63q11 0 16 -10l81 -180q0 -4 -3.5 -6.5t-6.5 -2.5t-8 4l-142 167q-8 8 -9.5 11.5t-1.5 6.5z" />
    <glyph glyph-name="eacute" unicode="&#xe9;" horiz-adv-x="502" 
d="M257 492q48 0 88 -15.5t68.5 -43.5t44 -67.5t15.5 -88.5q0 -6 -5 -6h-331q-6 0 -6 -6v-45q0 -105 40 -158t112 -53q33 0 57 10t43 27t33.5 40t27.5 50q2 3 6 3q9 0 9 -8q-23 -68 -73.5 -105.5t-128.5 -37.5q-51 0 -92.5 16.5t-71.5 49t-46.5 79t-16.5 106.5
q0 59 16 105.5t45.5 79.5t71.5 50.5t94 17.5zM138 287h230q6 0 6 6v5q0 81 -29.5 129.5t-91.5 48.5q-37 0 -60.5 -16.5t-37 -42t-18.5 -57t-5 -62.5v-5q0 -6 6 -6zM289 724q5 10 16 10h62q11 0 11 -10q0 -3 -1.5 -6.5t-9.5 -11.5l-142 -167q-5 -4 -8 -4t-6.5 2.5t-3.5 6.5z
" />
    <glyph glyph-name="ecircumflex" unicode="&#xea;" horiz-adv-x="502" 
d="M263 717q5 0 6.5 -1.5t5.5 -6.5l118 -164q5 -6 6 -7.5t1 -3.5q0 -4 -6 -4h-8q-3 0 -4.5 0.5t-6.5 4.5l-135 110q-5 4 -6 4.5t-3 0.5q-1 0 -2.5 -0.5t-5.5 -5.5l-89 -108q-5 -6 -9 -6h-6q-5 0 -5 4v3t5 7l121 166q4 5 6 6t6 1h11zM257 -12q-51 0 -92.5 16.5t-71.5 49
t-46.5 79t-16.5 106.5q0 59 16 105.5t45.5 79.5t71.5 50.5t94 17.5q48 0 88 -15.5t68.5 -43.5t44 -67.5t15.5 -88.5q0 -6 -5 -6h-331q-6 0 -6 -6v-45q0 -105 40 -158t112 -53q60 0 100.5 36.5t60.5 90.5q2 3 6 3q9 0 9 -8q-23 -68 -73.5 -105.5t-128.5 -37.5zM368 287
q6 0 6 6v5q0 81 -29.5 129.5t-91.5 48.5q-37 0 -60.5 -16.5t-37 -42t-18.5 -57t-5 -62.5v-5q0 -6 6 -6h230z" />
    <glyph glyph-name="edieresis" unicode="&#xeb;" horiz-adv-x="502" 
d="M257 492q48 0 88 -15.5t68.5 -43.5t44 -67.5t15.5 -88.5q0 -6 -5 -6h-331q-6 0 -6 -6v-45q0 -105 40 -158t112 -53q33 0 57 10t43 27t33.5 40t27.5 50q2 3 6 3q9 0 9 -8q-23 -68 -73.5 -105.5t-128.5 -37.5q-51 0 -92.5 16.5t-71.5 49t-46.5 79t-16.5 106.5
q0 59 16 105.5t45.5 79.5t71.5 50.5t94 17.5zM132 293q0 -6 6 -6h230q6 0 6 6v5q0 81 -29.5 129.5t-91.5 48.5q-37 0 -60.5 -16.5t-37 -42t-18.5 -57t-5 -62.5v-5zM301 656q0 22 13.5 35.5t36.5 13.5q22 0 36 -13.5t14 -35.5t-14 -36t-36 -14q-23 0 -36.5 14t-13.5 36z
M102 656q0 22 13.5 35.5t36.5 13.5q22 0 36 -13.5t14 -35.5t-14 -36t-36 -14q-23 0 -36.5 14t-13.5 36z" />
    <glyph glyph-name="igrave" unicode="&#xec;" horiz-adv-x="261" 
d="M19 477q44 0 79 0.5t76 1.5q5 0 5 -3v-445q0 -16 15 -16l49 -1q5 0 5 -8t-5 -8q-24 1 -39 1.5t-26.5 0.5h-21h-22.5h-22.5h-21.5t-28 -0.5t-42 -1.5q-4 0 -4 8t5 8l51 1q16 0 16 16v414q0 16 -15 16h-54q-5 0 -5 8t5 8zM2 734h63q11 0 16 -10l81 -180q0 -4 -3.5 -6.5
t-6.5 -2.5t-8 4l-142 167q-8 8 -9.5 11.5t-1.5 6.5q0 10 11 10z" />
    <glyph glyph-name="iacute" unicode="&#xed;" horiz-adv-x="261" 
d="M19 477q44 0 79 0.5t76 1.5q5 0 5 -3v-445q0 -16 15 -16l49 -1q5 0 5 -8t-5 -8q-24 1 -39 1.5t-26.5 0.5h-21h-22.5h-22.5h-21.5t-28 -0.5t-42 -1.5q-4 0 -4 8t5 8l51 1q16 0 16 16v414q0 16 -15 16h-54q-5 0 -5 8t5 8zM85 544l82 180q5 10 16 10h62q11 0 11 -10
q0 -3 -1.5 -6.5t-9.5 -11.5l-142 -167q-5 -4 -8 -4t-6.5 2.5t-3.5 6.5z" />
    <glyph glyph-name="icircumflex" unicode="&#xee;" horiz-adv-x="261" 
d="M141 717q5 0 6.5 -1.5t5.5 -6.5l118 -164q5 -6 6 -7.5t1 -3.5q0 -4 -6 -4h-8q-3 0 -4.5 0.5t-6.5 4.5l-135 110q-5 4 -6 4.5t-3 0.5q-1 0 -2.5 -0.5t-5.5 -5.5l-89 -108q-5 -6 -9 -6h-6q-5 0 -5 4v3t5 7l121 166q4 5 6 6t6 1h11zM20 -2q-4 0 -4 8t5 8l51 1q16 0 16 16
v414q0 16 -15 16h-54q-5 0 -5 8t5 8q44 0 79 0.5t76 1.5q5 0 5 -3v-445q0 -16 15 -16l49 -1q5 0 5 -8t-5 -8q-24 1 -39 1.5t-26.5 0.5h-21h-22.5h-22.5h-21.5t-28 -0.5t-42 -1.5z" />
    <glyph glyph-name="idieresis" unicode="&#xef;" horiz-adv-x="261" 
d="M14 469q0 8 5 8q44 0 79 0.5t76 1.5q5 0 5 -3v-445q0 -16 15 -16l49 -1q5 0 5 -8t-5 -8q-24 1 -39 1.5t-26.5 0.5h-21h-22.5h-22.5h-21.5t-28 -0.5t-42 -1.5q-4 0 -4 8t5 8l51 1q16 0 16 16v414q0 16 -15 16h-54q-5 0 -5 8zM229 705q22 0 36 -13.5t14 -35.5t-14 -36
t-36 -14q-23 0 -36.5 14t-13.5 36t13.5 35.5t36.5 13.5zM-20 656q0 22 13.5 35.5t36.5 13.5q22 0 36 -13.5t14 -35.5t-14 -36t-36 -14q-23 0 -36.5 14t-13.5 36z" />
    <glyph glyph-name="eth" unicode="&#xf0;" horiz-adv-x="515" 
d="M30 239q0 54 16.5 99t46.5 77t71.5 50t91.5 18q62 0 103 -37l1 1q-29 86 -90 150l-154 -66l-6 16l146 63q-32 30 -71 59t-93 43q-4 1 -4 5q0 2 2.5 6t4.5 4q117 -43 198 -101l139 60l7 -16l-130 -56q92 -69 134 -156.5t42 -193.5q0 -130 -60.5 -203t-167.5 -73
q-51 0 -93 18t-71.5 51t-46 79.5t-16.5 102.5zM259 5q45 0 70 23.5t37.5 58t15.5 74.5t3 73v20q0 35 -2.5 72.5t-15 68.5t-38 51t-71.5 20q-44 0 -69.5 -21t-38 -52.5t-16 -69.5t-3.5 -73v-20q0 -35 2.5 -74.5t15 -73t38.5 -55.5t72 -22z" />
    <glyph glyph-name="ntilde" unicode="&#xf1;" horiz-adv-x="580" 
d="M20 477h76t78 2q4 0 4 -4v-23.5v-26t-0.5 -32.5t-1.5 -42l1 -1q14 40 33 67t42.5 43t50.5 23t57 7q68 0 101.5 -29t33.5 -94v-336q0 -15 16 -15l51 -2q5 0 5 -8t-5 -8q-22 1 -37 1.5t-26 0.5h-21h-23h-25.5h-22.5t-27.5 -0.5t-39.5 -1.5q-5 0 -5 8t5 8l49 2q15 0 15 22
v327q0 52 -19.5 76t-57.5 24q-35 0 -62.5 -18t-46.5 -46t-29 -61.5t-10 -64.5v-240q0 -19 16 -19l52 -2q5 0 5 -8t-5 -8q-25 1 -40.5 1.5t-26.5 0.5h-21h-23h-23h-22t-28.5 -0.5t-42.5 -1.5q-4 0 -4 8t4 8l53 2q16 0 16 26v403q0 16 -16 16h-53q-4 0 -4 8t4 8zM221 678
q31 0 55 -13t41 -27q19 -14 38 -24.5t42 -10.5q29 0 44.5 18.5t17.5 51.5q1 4 8 4t7 -4q0 -65 -27 -98t-70 -33q-31 0 -54.5 13t-41.5 27q-19 14 -38 24.5t-42 10.5q-29 0 -44.5 -18.5t-17.5 -51.5q-1 -4 -8 -4t-7 4q0 65 27 98t70 33z" />
    <glyph glyph-name="ograve" unicode="&#xf2;" horiz-adv-x="517" 
d="M30 240q0 58 16.5 104.5t46.5 78.5t72 49.5t93 17.5t93 -17.5t72.5 -49.5t47 -78.5t16.5 -104.5q0 -59 -16.5 -106t-47 -80t-72.5 -50.5t-93 -17.5t-93 17.5t-72 50.5t-46.5 80t-16.5 106zM129 259v-32q0 -35 2.5 -74.5t15.5 -73t39 -55.5t74 -22q47 0 73 23t38 57.5
t14.5 74.5t2.5 74v31q0 36 -2.5 73.5t-14.5 68t-38 50.5t-74 20q-45 0 -71 -20.5t-39 -52.5t-16.5 -69.5t-3.5 -72.5zM133 734h63q11 0 16 -10l81 -180q0 -4 -3.5 -6.5t-6.5 -2.5t-8 4l-142 167q-8 8 -9.5 11.5t-1.5 6.5q0 10 11 10z" />
    <glyph glyph-name="oacute" unicode="&#xf3;" horiz-adv-x="517" 
d="M258 490q51 0 93 -17.5t72.5 -49.5t47 -78.5t16.5 -104.5q0 -59 -16.5 -106t-47 -80t-72.5 -50.5t-93 -17.5t-93 17.5t-72 50.5t-46.5 80t-16.5 106q0 58 16.5 104.5t46.5 78.5t72 49.5t93 17.5zM260 2q47 0 73 23t38 57.5t14.5 74.5t2.5 74v31q0 36 -2.5 73.5t-14.5 68
t-38 50.5t-74 20q-45 0 -71 -20.5t-39 -52.5t-16.5 -69.5t-3.5 -72.5v-32q0 -35 2.5 -74.5t15.5 -73t39 -55.5t74 -22zM298 724q5 10 16 10h62q11 0 11 -10q0 -3 -1.5 -6.5t-9.5 -11.5l-142 -167q-5 -4 -8 -4t-6.5 2.5t-3.5 6.5z" />
    <glyph glyph-name="ocircumflex" unicode="&#xf4;" horiz-adv-x="517" 
d="M272 717q5 0 6.5 -1.5t5.5 -6.5l118 -164q5 -6 6 -7.5t1 -3.5q0 -4 -6 -4h-8q-3 0 -4.5 0.5t-6.5 4.5l-135 110q-5 4 -6 4.5t-3 0.5q-1 0 -2.5 -0.5t-5.5 -5.5l-89 -108q-5 -6 -9 -6h-6q-5 0 -5 4v3t5 7l121 166q4 5 6 6t6 1h11zM258 -14q-51 0 -93 17.5t-72 50.5
t-46.5 80t-16.5 106q0 58 16.5 104.5t46.5 78.5t72 49.5t93 17.5t93 -17.5t72.5 -49.5t47 -78.5t16.5 -104.5q0 -59 -16.5 -106t-47 -80t-72.5 -50.5t-93 -17.5zM260 2q47 0 73 23t38 57.5t14.5 74.5t2.5 74v31q0 36 -2.5 73.5t-14.5 68t-38 50.5t-74 20q-45 0 -71 -20.5
t-39 -52.5t-16.5 -69.5t-3.5 -72.5v-32q0 -35 2.5 -74.5t15.5 -73t39 -55.5t74 -22z" />
    <glyph glyph-name="otilde" unicode="&#xf5;" horiz-adv-x="517" 
d="M258 490q51 0 93 -17.5t72.5 -49.5t47 -78.5t16.5 -104.5q0 -59 -16.5 -106t-47 -80t-72.5 -50.5t-93 -17.5t-93 17.5t-72 50.5t-46.5 80t-16.5 106q0 58 16.5 104.5t46.5 78.5t72 49.5t93 17.5zM129 227q0 -35 2.5 -74.5t15.5 -73t39 -55.5t74 -22q47 0 73 23t38 57.5
t14.5 74.5t2.5 74v31q0 36 -2.5 73.5t-14.5 68t-38 50.5t-74 20q-45 0 -71 -20.5t-39 -52.5t-16.5 -69.5t-3.5 -72.5v-32zM85 550q0 65 27 98t70 33q31 0 55 -13t41 -27q19 -14 38 -24.5t42 -10.5q29 0 44.5 18.5t17.5 51.5q1 4 8 4t7 -4q0 -65 -27 -98t-70 -33
q-31 0 -54.5 13t-41.5 27q-19 14 -38 24.5t-42 10.5q-29 0 -44.5 -18.5t-17.5 -51.5q-1 -4 -8 -4t-7 4z" />
    <glyph glyph-name="odieresis" unicode="&#xf6;" horiz-adv-x="517" 
d="M30 240q0 58 16.5 104.5t46.5 78.5t72 49.5t93 17.5t93 -17.5t72.5 -49.5t47 -78.5t16.5 -104.5q0 -59 -16.5 -106t-47 -80t-72.5 -50.5t-93 -17.5t-93 17.5t-72 50.5t-46.5 80t-16.5 106zM129 259v-32q0 -35 2.5 -74.5t15.5 -73t39 -55.5t74 -22q47 0 73 23t38 57.5
t14.5 74.5t2.5 74v31q0 36 -2.5 73.5t-14.5 68t-38 50.5t-74 20q-45 0 -71 -20.5t-39 -52.5t-16.5 -69.5t-3.5 -72.5zM310 656q0 22 13.5 35.5t36.5 13.5q22 0 36 -13.5t14 -35.5t-14 -36t-36 -14q-23 0 -36.5 14t-13.5 36zM111 656q0 22 13.5 35.5t36.5 13.5q22 0 36 -13.5
t14 -35.5t-14 -36t-36 -14q-23 0 -36.5 14t-13.5 36z" />
    <glyph glyph-name="divide" unicode="&#xf7;" horiz-adv-x="600" 
d="M35 240v21h530v-21h-530zM255 425q0 20 12.5 32.5t32.5 12.5t32.5 -12.5t12.5 -32.5t-12.5 -33t-32.5 -13t-32.5 13t-12.5 33zM300 121q20 0 32.5 -12.5t12.5 -31.5q0 -20 -12.5 -33.5t-32.5 -13.5t-32.5 13.5t-12.5 33.5q0 19 12.5 31.5t32.5 12.5z" />
    <glyph glyph-name="oslash" unicode="&#xf8;" horiz-adv-x="520" 
d="M432 413q26 -32 40.5 -75.5t14.5 -97.5q0 -59 -16.5 -106t-47 -80t-72.5 -50.5t-93 -17.5q-48 0 -87.5 15t-68.5 44l-35 -39q-4 -5 -5.5 -5.5t-3.5 -0.5h-14q-4 0 -4 2t1 3.5t6 6.5l42 47q-28 32 -43.5 78t-15.5 103q0 58 16.5 104.5t46.5 78.5t72 49.5t93 17.5
q101 0 162 -63l39 44q4 5 5.5 5.5t3.5 0.5h14q4 0 4 -3q0 -2 -1 -3l-6 -6zM129 227q0 -36 2 -64.5t6 -50.5l242 270q-12 43 -43 67.5t-77 24.5q-45 0 -71 -20.5t-39 -52.5t-16.5 -69.5t-3.5 -72.5v-32zM388 262q0 29 -1 52.5t-4 43.5l-241 -268q15 -38 44.5 -63t73.5 -25
q47 0 73 23t38 57.5t14.5 74.5t2.5 74v31z" />
    <glyph glyph-name="ugrave" unicode="&#xf9;" horiz-adv-x="570" 
d="M11 469q0 8 5 8h74t81 2q4 0 4 -4v-377q0 -43 18 -65t58 -22q21 0 44.5 10.5t44.5 33t36.5 58t20.5 84.5v244q0 20 -19 20h-50q-5 0 -5 8t5 8h76.5t78.5 2q5 0 5 -4v-440q0 -19 15 -19h49q5 0 5 -7q0 -9 -5 -9h-34.5t-32 -0.5t-36.5 -1t-48 -1.5q-4 0 -4 4q0 29 0.5 61.5
t2.5 67.5l-1 1q-26 -80 -72.5 -112t-112.5 -32q-129 0 -129 109v349q0 16 -16 16h-53q-5 0 -5 8zM141 724q0 10 11 10h63q11 0 16 -10l81 -180q0 -4 -3.5 -6.5t-6.5 -2.5t-8 4l-142 167q-8 8 -9.5 11.5t-1.5 6.5z" />
    <glyph glyph-name="uacute" unicode="&#xfa;" horiz-adv-x="570" 
d="M16 477h74t81 2q4 0 4 -4v-377q0 -43 18 -65t58 -22q21 0 44.5 10.5t44.5 33t36.5 58t20.5 84.5v244q0 20 -19 20h-50q-5 0 -5 8t5 8h76.5t78.5 2q5 0 5 -4v-440q0 -19 15 -19h49q5 0 5 -7q0 -9 -5 -9h-34.5t-32 -0.5t-36.5 -1t-48 -1.5q-4 0 -4 4q0 29 0.5 61.5
t2.5 67.5l-1 1q-26 -80 -72.5 -112t-112.5 -32q-129 0 -129 109v349q0 16 -16 16h-53q-5 0 -5 8t5 8zM235 544l82 180q5 10 16 10h62q11 0 11 -10q0 -3 -1.5 -6.5t-9.5 -11.5l-142 -167q-5 -4 -8 -4t-6.5 2.5t-3.5 6.5z" />
    <glyph glyph-name="ucircumflex" unicode="&#xfb;" horiz-adv-x="570" 
d="M291 717q5 0 6.5 -1.5t5.5 -6.5l118 -164q5 -6 6 -7.5t1 -3.5q0 -4 -6 -4h-8q-3 0 -4.5 0.5t-6.5 4.5l-135 110q-5 4 -6 4.5t-3 0.5q-1 0 -2.5 -0.5t-5.5 -5.5l-89 -108q-5 -6 -9 -6h-6q-5 0 -5 4v3t5 7l121 166q4 5 6 6t6 1h11zM214 -13q-129 0 -129 109v349
q0 16 -16 16h-53q-5 0 -5 8t5 8h74t81 2q4 0 4 -4v-377q0 -43 18 -65t58 -22q21 0 44.5 10.5t44.5 33t36.5 58t20.5 84.5v244q0 20 -19 20h-50q-5 0 -5 8t5 8h76.5t78.5 2q5 0 5 -4v-440q0 -19 15 -19h49q5 0 5 -7q0 -9 -5 -9h-34.5t-32 -0.5t-36.5 -1t-48 -1.5q-4 0 -4 4
q0 29 0.5 61.5t2.5 67.5l-1 1q-26 -80 -72.5 -112t-112.5 -32z" />
    <glyph glyph-name="udieresis" unicode="&#xfc;" horiz-adv-x="570" 
d="M16 477h74t81 2q4 0 4 -4v-377q0 -43 18 -65t58 -22q21 0 44.5 10.5t44.5 33t36.5 58t20.5 84.5v244q0 20 -19 20h-50q-5 0 -5 8t5 8h76.5t78.5 2q5 0 5 -4v-440q0 -19 15 -19h49q5 0 5 -7q0 -9 -5 -9h-34.5t-32 -0.5t-36.5 -1t-48 -1.5q-4 0 -4 4q0 29 0.5 61.5
t2.5 67.5l-1 1q-26 -80 -72.5 -112t-112.5 -32q-129 0 -129 109v349q0 16 -16 16h-53q-5 0 -5 8t5 8zM329 656q0 22 13.5 35.5t36.5 13.5q22 0 36 -13.5t14 -35.5t-14 -36t-36 -14q-23 0 -36.5 14t-13.5 36zM130 656q0 22 13.5 35.5t36.5 13.5q22 0 36 -13.5t14 -35.5
t-14 -36t-36 -14q-23 0 -36.5 14t-13.5 36z" />
    <glyph glyph-name="yacute" unicode="&#xfd;" horiz-adv-x="519" 
d="M1 471q0 8 4 8q29 -1 46 -1.5t29.5 -0.5h22.5h24h28.5h26t31 0.5t43.5 1.5q5 0 5 -8t-5 -8l-68 -1q-4 -1 -7.5 -2.5t-3.5 -6.5v-4.5t2 -6.5l133 -331l108 329q4 11 4 14q0 5 -3.5 6t-7.5 2l-78 1q-4 0 -4 8t4 8q20 -1 33 -1.5t23.5 -0.5h20h21.5q17 0 33.5 0.5t47.5 1.5
q5 0 5 -8t-5 -8l-56 -2q-7 0 -11 -2t-6 -10l-193 -588q-17 -53 -43 -76.5t-71 -23.5t-70 20.5t-25 55.5q0 22 12 34t31 12q17 0 29 -12t12 -40q0 -26 8 -37t27 -11q47 0 74 82l39 120l-192 464q-4 12 -17 12l-57 2q-4 0 -4 8zM311 724q5 10 16 10h62q11 0 11 -10
q0 -3 -1.5 -6.5t-9.5 -11.5l-142 -167q-5 -4 -8 -4t-6.5 2.5t-3.5 6.5z" />
    <glyph glyph-name="thorn" unicode="&#xfe;" 
d="M12 711q0 8 5 8h43h37t36 0.5t40 1.5q4 0 4 -4v-251v-33.5t-1 -35.5h2q47 92 155 92q96 0 147 -63.5t51 -178.5q0 -60 -14 -108t-40.5 -81.5t-64.5 -51.5t-86 -18q-56 0 -92.5 25t-56.5 69l-2 -1q1 -17 1 -34v-43v-205q0 -13 16 -15l56 -2q2 -1 3.5 -2t1.5 -6q0 -9 -5 -9
q-24 1 -39.5 1.5t-27.5 1t-23 0.5h-26h-25.5t-22 -0.5t-27 -1t-40.5 -1.5q-5 0 -5 9q0 5 1.5 6t3.5 2l55 2q15 1 15 15v892q0 12 -12 12h-58q-5 0 -5 8zM308 9q63 0 92 58.5t29 175.5v4q0 112 -30.5 166.5t-88.5 54.5q-27 0 -51 -11.5t-42.5 -30.5t-29 -42t-10.5 -47v-187
q0 -26 9.5 -51.5t26.5 -45.5t41 -32t54 -12z" />
    <glyph glyph-name="ydieresis" unicode="&#xff;" horiz-adv-x="519" 
d="M1 471q0 8 4 8q29 -1 46 -1.5t29.5 -0.5h22.5h24h28.5h26t31 0.5t43.5 1.5q5 0 5 -8t-5 -8l-68 -1q-4 -1 -7.5 -2.5t-3.5 -6.5v-4.5t2 -6.5l133 -331l108 329q4 11 4 14q0 5 -3.5 6t-7.5 2l-78 1q-4 0 -4 8t4 8q20 -1 33 -1.5t23.5 -0.5h20h21.5q17 0 33.5 0.5t47.5 1.5
q5 0 5 -8t-5 -8l-56 -2q-7 0 -11 -2t-6 -10l-193 -588q-17 -53 -43 -76.5t-71 -23.5t-70 20.5t-25 55.5q0 22 12 34t31 12q17 0 29 -12t12 -40q0 -26 8 -37t27 -11q47 0 74 82l39 120l-192 464q-4 12 -17 12l-57 2q-4 0 -4 8zM373 705q22 0 36 -13.5t14 -35.5t-14 -36
t-36 -14q-23 0 -36.5 14t-13.5 36t13.5 35.5t36.5 13.5zM124 656q0 22 13.5 35.5t36.5 13.5q22 0 36 -13.5t14 -35.5t-14 -36t-36 -14q-23 0 -36.5 14t-13.5 36z" />
    <glyph glyph-name="Amacron" unicode="&#x100;" horiz-adv-x="652" 
d="M2 7q0 6 5 8l77 1q14 0 18 12l225 682q3 7 8 7h5q6 0 9 -8l217 -678q2 -8 7 -10.5t23 -3.5l49 -2q6 0 6 -8t-6 -8q-26 0 -43 0.5t-30 0.5h-24.5h-26.5h-31h-28t-36.5 -0.5t-55.5 -1.5q-5 0 -5 8t5 8l83 2q14 1 14 11q0 2 -0.5 3.5l-1.5 4.5l-62 202q-2 5 -6 5h-204
q-3 0 -5 -5l-66 -203q-2 -6 -2 -9q0 -9 14 -9l81 -2q5 0 5 -8t-5 -8q-27 1 -44.5 1.5t-28.5 0.5h-19h-16h-16h-19.5t-26.5 -0.5t-38 -1.5q-5 0 -5 9zM197 262q0 -5 4 -5h189q5 0 5 5v2t-2 6l-94 305l-101 -307q-1 -4 -1 -6zM196 792v32q0 5 5 5h270q5 0 5 -5v-32q0 -5 -5 -5
h-270q-5 0 -5 5z" />
    <glyph glyph-name="amacron" unicode="&#x101;" horiz-adv-x="505" 
d="M34 129q0 62 30 92.5t87 41.5q33 6 57 11t43 10t34.5 10.5t29.5 12.5v66q0 50 -20.5 75.5t-67.5 25.5q-38 0 -57 -16t-19 -40q0 -7 1.5 -11.5l3 -9t3 -9.5t1.5 -13q0 -21 -13 -31.5t-33 -10.5q-21 0 -33.5 10.5t-12.5 32.5q0 52 46 83t127 31q166 0 166 -143v-61t-1 -62
v-137q0 -41 9.5 -57t27.5 -16q14 0 25.5 6.5t23.5 19.5q10 0 10 -12q-18 -21 -40 -29t-54 -8q-45 0 -67 17.5t-24 58.5v32h-2q-22 -55 -56 -82t-96 -27q-63 0 -96 35t-33 104zM127 131q0 -60 19.5 -87.5t52.5 -27.5q38 0 62 23.5t38 58.5q10 24 13.5 49t3.5 59v81l-1 2
q-19 -9 -40 -15t-46 -11q-29 -8 -48.5 -17.5t-31.5 -24.5t-17 -36.5t-5 -53.5zM99 599q0 5 5 5h270q5 0 5 -5v-32q0 -5 -5 -5h-270q-5 0 -5 5v32z" />
    <glyph glyph-name="Abreve" unicode="&#x102;" horiz-adv-x="652" 
d="M7 15l77 1q14 0 18 12l225 682q3 7 8 7h5q6 0 9 -8l217 -678q2 -8 7 -10.5t23 -3.5l49 -2q6 0 6 -8t-6 -8q-26 0 -43 0.5t-30 0.5h-24.5h-26.5h-31h-28t-36.5 -0.5t-55.5 -1.5q-5 0 -5 8t5 8l83 2q14 1 14 11q0 2 -0.5 3.5l-1.5 4.5l-62 202q-2 5 -6 5h-204q-3 0 -5 -5
l-66 -203q-2 -6 -2 -9q0 -9 14 -9l81 -2q5 0 5 -8t-5 -8q-27 1 -44.5 1.5t-28.5 0.5h-19h-16h-16h-19.5t-26.5 -0.5t-38 -1.5q-5 0 -5 9q0 6 5 8zM197 262q0 -5 4 -5h189q5 0 5 5v2t-2 6l-94 305l-101 -307q-1 -4 -1 -6zM198 917q0 4 7 4q6 0 7 -4q11 -43 39 -63.5t85 -20.5
t85 20.5t39 63.5q1 4 7 4q7 0 7 -4q-4 -75 -37.5 -110t-100.5 -35t-100.5 35t-37.5 110z" />
    <glyph glyph-name="abreve" unicode="&#x103;" horiz-adv-x="505" 
d="M34 129q0 62 30 92.5t87 41.5q33 6 57 11t43 10t34.5 10.5t29.5 12.5v66q0 50 -20.5 75.5t-67.5 25.5q-38 0 -57 -16t-19 -40q0 -7 1.5 -11.5l3 -9t3 -9.5t1.5 -13q0 -21 -13 -31.5t-33 -10.5q-21 0 -33.5 10.5t-12.5 32.5q0 52 46 83t127 31q166 0 166 -143v-61t-1 -62
v-137q0 -41 9.5 -57t27.5 -16q14 0 25.5 6.5t23.5 19.5q10 0 10 -12q-18 -21 -40 -29t-54 -8q-45 0 -67 17.5t-24 58.5v32h-2q-22 -55 -56 -82t-96 -27q-63 0 -96 35t-33 104zM199 16q38 0 62 23.5t38 58.5q10 24 13.5 49t3.5 59v81l-1 2q-19 -9 -40 -15t-46 -11
q-29 -8 -48.5 -17.5t-31.5 -24.5t-17 -36.5t-5 -53.5q0 -60 19.5 -87.5t52.5 -27.5zM101 692q0 4 7 4q6 0 7 -4q11 -43 39 -63.5t85 -20.5t85 20.5t39 63.5q1 4 7 4q7 0 7 -4q-4 -75 -37.5 -110t-100.5 -35t-100.5 35t-37.5 110z" />
    <glyph glyph-name="Aogonek" unicode="&#x104;" horiz-adv-x="652" 
d="M7 15l77 1q14 0 18 12l225 682q3 7 8 7h5q6 0 9 -8l217 -678q2 -8 7 -10.5t23 -3.5l49 -2q6 0 6 -8t-6 -8q-23 0 -39 0.5t-28 0.5h-22h-21q-61 -25 -90 -61.5t-29 -78.5q0 -32 17 -50.5t46 -18.5q11 0 25 3t35 14q7 -4 7 -13q-24 -14 -48.5 -20.5t-51.5 -6.5
q-51 0 -81.5 22.5t-30.5 64.5q0 47 39.5 82t134.5 63h-25.5h-26.5t-35 -0.5t-51 -1.5q-5 0 -5 8t5 8l83 2q14 1 14 11q0 2 -0.5 3.5l-1.5 4.5l-62 202q-2 5 -6 5h-204q-3 0 -5 -5l-66 -203q-2 -6 -2 -9q0 -9 14 -9l81 -2q5 0 5 -8t-5 -8q-27 1 -44.5 1.5t-28.5 0.5h-19h-16
h-16h-19.5t-26.5 -0.5t-38 -1.5q-5 0 -5 9q0 6 5 8zM197 262q0 -5 4 -5h189q5 0 5 5v2t-2 6l-94 305l-101 -307q-1 -4 -1 -6z" />
    <glyph glyph-name="aogonek" unicode="&#x105;" horiz-adv-x="505" 
d="M34 129q0 62 30 92.5t87 41.5q33 6 57 11t43 10t34.5 10.5t29.5 12.5v66q0 50 -20.5 75.5t-67.5 25.5q-38 0 -57 -16t-19 -40q0 -7 1.5 -11.5l3 -9t3 -9.5t1.5 -13q0 -21 -13 -31.5t-33 -10.5q-21 0 -33.5 10.5t-12.5 32.5q0 52 46 83t127 31q166 0 166 -143v-61t-1 -62
v-137q0 -41 9.5 -57t27.5 -16q14 0 25.5 6.5t23.5 19.5q10 0 10 -12q-20 -23 -43 -30q-57 -25 -84.5 -61t-27.5 -76q0 -32 17 -50.5t46 -18.5q11 0 25 3t35 14q7 -4 7 -13q-24 -14 -48.5 -20.5t-51.5 -6.5q-51 0 -81.5 22.5t-30.5 64.5q0 43 32.5 76t109.5 59
q-44 0 -66 17.5t-24 58.5v32h-2q-22 -55 -56 -82t-96 -27q-63 0 -96 35t-33 104zM199 16q38 0 62 23.5t38 58.5q10 24 13.5 49t3.5 59v81l-1 2q-19 -9 -40 -15t-46 -11q-29 -8 -48.5 -17.5t-31.5 -24.5t-17 -36.5t-5 -53.5q0 -60 19.5 -87.5t52.5 -27.5z" />
    <glyph glyph-name="Cacute" unicode="&#x106;" horiz-adv-x="706" 
d="M44 348q0 85 24.5 154t69.5 117.5t108.5 74.5t141.5 26q65 0 127 -18t111 -43q7 -3 7 -13v-156q0 -5 -8 -5t-9 8q-7 47 -17.5 80t-28.5 56q-31 40 -77 57.5t-103 17.5q-119 0 -175 -82.5t-56 -263.5v-1q0 -96 13 -164t41 -111t71 -62.5t104 -19.5q68 0 116.5 24t74.5 68
q16 27 24 67t15 81q1 7 8 7q8 0 8 -5l-2 -177q0 -6 -1.5 -8.5t-5.5 -4.5q-55 -33 -115 -50.5t-122 -17.5q-79 0 -142.5 25.5t-108.5 73t-69 114.5t-24 151zM426 949q5 10 16 10h62q11 0 11 -10q0 -3 -1.5 -6.5t-9.5 -11.5l-142 -167q-5 -4 -8 -4t-6.5 2.5t-3.5 6.5z" />
    <glyph glyph-name="cacute" unicode="&#x107;" horiz-adv-x="486" 
d="M30 231q0 60 16 107.5t46 81.5t72.5 52t96.5 18q42 0 76.5 -11t59 -29t38.5 -42t14 -50q0 -25 -14.5 -36.5t-34.5 -11.5q-18 0 -30.5 10.5t-12.5 32.5q0 19 3.5 30.5t0.5 27.5q-4 30 -32 46t-67 16q-35 0 -60.5 -12.5t-42 -40t-24.5 -71.5t-8 -106v-13q0 -121 36.5 -172
t108.5 -51q45 0 86 33t81 113q2 3 5 3q10 0 10 -7q-18 -78 -70 -120.5t-131 -42.5q-50 0 -91 16t-70.5 47t-45.5 77t-16 105zM285 721q5 10 16 10h62q11 0 11 -10q0 -3 -1.5 -6.5t-9.5 -11.5l-142 -167q-5 -4 -8 -4t-6.5 2.5t-3.5 6.5z" />
    <glyph glyph-name="Ccircumflex" unicode="&#x108;" horiz-adv-x="706" 
d="M400 942q5 0 6.5 -1.5t5.5 -6.5l118 -164q5 -6 6 -7.5t1 -3.5q0 -4 -6 -4h-8q-3 0 -4.5 0.5t-6.5 4.5l-135 110q-5 4 -6 4.5t-3 0.5q-1 0 -2.5 -0.5t-5.5 -5.5l-89 -108q-5 -6 -9 -6h-6q-5 0 -5 4v3t5 7l121 166q4 5 6 6t6 1h11zM388 -16q-79 0 -142.5 25.5t-108.5 73
t-69 114.5t-24 151q0 85 24.5 154t69.5 117.5t108.5 74.5t141.5 26q65 0 127.5 -16.5t110.5 -44.5q7 -3 7 -13v-156q0 -5 -8 -5t-9 8q-7 47 -17.5 80t-28.5 56q-31 40 -77 57.5t-103 17.5q-119 0 -175 -82.5t-56 -263.5v-1q0 -96 13 -164t41 -111t71 -62.5t104 -19.5
q68 0 116.5 24t74.5 68q16 27 25 67t14 81q1 7 8 7q8 0 8 -5l-2 -177q0 -6 -1.5 -8.5t-5.5 -4.5q-55 -33 -115 -50.5t-122 -17.5z" />
    <glyph glyph-name="ccircumflex" unicode="&#x109;" horiz-adv-x="486" 
d="M259 714q5 0 6.5 -1.5t5.5 -6.5l118 -164q5 -6 6 -7.5t1 -3.5q0 -4 -6 -4h-8q-3 0 -4.5 0.5t-6.5 4.5l-135 110q-5 4 -6 4.5t-3 0.5q-1 0 -2.5 -0.5t-5.5 -5.5l-89 -108q-5 -6 -9 -6h-6q-5 0 -5 4v3t5 7l121 166q4 5 6 6t6 1h11zM253 -14q-50 0 -91 16t-70.5 47t-45.5 77
t-16 105q0 60 16 107.5t46 81.5t72.5 52t96.5 18q42 0 76.5 -11t59 -29t38.5 -42t14 -50q0 -25 -14.5 -36.5t-34.5 -11.5q-18 0 -30.5 10.5t-12.5 32.5q0 19 3.5 30.5t0.5 27.5q-4 30 -32 46t-67 16q-35 0 -60.5 -12.5t-42 -40t-24.5 -71.5t-8 -106v-13q0 -121 36.5 -172
t108.5 -51q23 0 47.5 6.5t48 23t42.5 45t29 71.5q2 3 5 3q10 0 10 -7q-18 -78 -70 -120.5t-131 -42.5z" />
    <glyph glyph-name="Cdotaccent" unicode="&#x10a;" horiz-adv-x="706" 
d="M44 348q0 85 24.5 154t69.5 117.5t108.5 74.5t141.5 26q65 0 127 -18t111 -43q7 -3 7 -13v-156q0 -5 -8 -5t-9 8q-7 47 -17.5 80t-28.5 56q-31 40 -77 57.5t-103 17.5q-119 0 -175 -82.5t-56 -263.5v-1q0 -96 13 -164t41 -111t71 -62.5t104 -19.5q68 0 116.5 24t74.5 68
q16 27 24 67t15 81q1 7 8 7q8 0 8 -5l-2 -177q0 -6 -1.5 -8.5t-5.5 -4.5q-55 -33 -115 -50.5t-122 -17.5q-79 0 -142.5 25.5t-108.5 73t-69 114.5t-24 151zM338 839q0 22 14 35.5t36 13.5t36 -13.5t14 -35.5t-14 -36t-36 -14t-36 14t-14 36z" />
    <glyph glyph-name="cdotaccent" unicode="&#x10b;" horiz-adv-x="486" 
d="M30 231q0 60 16 107.5t46 81.5t72.5 52t96.5 18q42 0 76.5 -11t59 -29t38.5 -42t14 -50q0 -25 -14.5 -36.5t-34.5 -11.5q-18 0 -30.5 10.5t-12.5 32.5q0 19 3.5 30.5t0.5 27.5q-4 30 -32 46t-67 16q-35 0 -60.5 -12.5t-42 -40t-24.5 -71.5t-8 -106v-13q0 -121 36.5 -172
t108.5 -51q45 0 86 33t81 113q2 3 5 3q10 0 10 -7q-18 -78 -70 -120.5t-131 -42.5q-50 0 -91 16t-70.5 47t-45.5 77t-16 105zM197 653q0 22 14 35.5t36 13.5t36 -13.5t14 -35.5t-14 -36t-36 -14t-36 14t-14 36z" />
    <glyph glyph-name="Ccaron" unicode="&#x10c;" horiz-adv-x="706" 
d="M380 753q-6 0 -11 8l-119 164q-5 6 -5.5 7.5t-0.5 3.5q0 4 6 4h7q5 0 11 -5l136 -110q4 -4 5.5 -4.5t2.5 -0.5q2 0 3 0.5t5 5.5l90 108q5 6 9 6h5q6 0 6 -4q0 -2 -0.5 -3t-5.5 -7l-121 -166q-6 -7 -12 -7h-11zM388 -16q-79 0 -142.5 25.5t-108.5 73t-69 114.5t-24 151
q0 85 24.5 154t69.5 117.5t108.5 74.5t141.5 26q65 0 127.5 -16.5t110.5 -44.5q7 -3 7 -13v-156q0 -5 -8 -5t-9 8q-7 47 -17.5 80t-28.5 56q-31 40 -77 57.5t-103 17.5q-119 0 -175 -82.5t-56 -263.5v-1q0 -96 13 -164t41 -111t71 -62.5t104 -19.5q68 0 116.5 24t74.5 68
q16 27 25 67t14 81q1 7 8 7q8 0 8 -5l-2 -177q0 -6 -1.5 -8.5t-5.5 -4.5q-55 -33 -115 -50.5t-122 -17.5z" />
    <glyph glyph-name="ccaron" unicode="&#x10d;" horiz-adv-x="486" 
d="M239 525q-6 0 -11 8l-119 164q-5 6 -5.5 7.5t-0.5 3.5q0 4 6 4h7q5 0 11 -5l136 -110q4 -4 5.5 -4.5t2.5 -0.5q2 0 3 0.5t5 5.5l90 108q5 6 9 6h5q6 0 6 -4q0 -2 -0.5 -3t-5.5 -7l-121 -166q-6 -7 -12 -7h-11zM253 -14q-50 0 -91 16t-70.5 47t-45.5 77t-16 105
q0 60 16 107.5t46 81.5t72.5 52t96.5 18q42 0 76.5 -11t59 -29t38.5 -42t14 -50q0 -25 -14.5 -36.5t-34.5 -11.5q-18 0 -30.5 10.5t-12.5 32.5q0 19 3.5 30.5t0.5 27.5q-4 30 -32 46t-67 16q-35 0 -60.5 -12.5t-42 -40t-24.5 -71.5t-8 -106v-13q0 -121 36.5 -172t108.5 -51
q23 0 47.5 6.5t48 23t42.5 45t29 71.5q2 3 5 3q10 0 10 -7q-18 -78 -70 -120.5t-131 -42.5z" />
    <glyph glyph-name="Dcaron" unicode="&#x10e;" horiz-adv-x="777" 
d="M361 753q-6 0 -11 8l-119 164q-5 6 -5.5 7.5t-0.5 3.5q0 4 6 4h7q5 0 11 -5l136 -110q4 -4 5.5 -4.5t2.5 -0.5q2 0 3 0.5t5 5.5l90 108q5 6 9 6h5q6 0 6 -4q0 -2 -0.5 -3t-5.5 -7l-121 -166q-6 -7 -12 -7h-11zM36 -2q-5 0 -5 9q0 8 5 8l73 2q6 0 11 3.5t5 11.5v638
q0 15 -16 15l-73 2q-5 0 -5 8q0 9 5 9q30 -1 48 -1.5t32 -0.5h27h31h29h27.5t31.5 0.5t41 0.5q26 0 45 0.5t34.5 0.5h30h31.5q140 0 214.5 -87.5t74.5 -255.5q0 -181 -85.5 -272.5t-237.5 -91.5q-28 0 -55 0.5t-68 1.5q-19 0 -34 0.5t-28 0.5h-25h-26h-31.5h-27.5t-32 -0.5
t-47 -1.5zM394 14q60 0 104 18.5t72.5 58.5t42 103t13.5 151v10q0 170 -52 251.5t-160 81.5l-100 -1q-22 0 -34.5 -0.5t-20 -0.5t-12.5 -0.5t-12 -0.5q-14 0 -14 -14v-640q0 -14 14 -14q40 -2 79.5 -2.5t79.5 -0.5z" />
    <glyph glyph-name="dcaron" unicode="&#x10f;" horiz-adv-x="705" 
d="M30 241q0 57 13.5 102.5t38 78t60.5 49.5t81 17q115 0 159 -96h1q-1 26 -1 44.5v35.5v215q0 16 -15 16h-74q-5 0 -5 8t5 8h89.5t86.5 2q3 0 3 -4v-685q0 -16 16 -16l52 -2q4 -1 4 -8q0 -8 -4 -8q-26 1 -42.5 1.5t-27 0.5h-17.5h-16h-24.5t-26.5 -1q-3 0 -3 3v36.5t2 46.5
h-1q-22 -48 -58 -72.5t-95 -24.5q-96 0 -148.5 65.5t-52.5 187.5zM250 7q30 0 54.5 12.5t42 33t26.5 46t9 52.5v177q0 26 -10.5 51t-28.5 44.5t-42.5 31.5t-52.5 12q-119 0 -119 -220v-4q0 -121 29 -178.5t92 -57.5zM542 524l31 182q3 13 13 13h57q12 0 12 -9q0 -3 -1 -5.5
t-7 -13.5l-89 -179q-3 -7 -5 -8.5t-4 -1.5t-6 1t-4 5q0 1 0.5 3t2.5 13z" />
    <glyph glyph-name="Dcroat" unicode="&#x110;" horiz-adv-x="777" 
d="M36 -3q-5 0 -5 9q0 8 5 8l73 3q6 0 11 3.5t5 11.5v306q0 16 -16 16h-73q-5 0 -5 8q0 9 5 9h73q16 0 16 15v284q0 15 -16 15l-73 3q-5 0 -5 8q0 9 5 9q30 -1 48 -1.5t32 -1t27 -0.5h31h29h27.5t31.5 0.5t41 0.5q26 0 45 0.5t34.5 0.5h30h31.5q140 0 214.5 -87.5
t74.5 -255.5q0 -181 -85.5 -272.5t-237.5 -91.5q-28 0 -55 0.5t-68 1.5q-19 0 -34 0.5t-28 0.5h-25h-26h-31.5t-27.5 -0.5t-32 -1t-47 -1.5zM394 14q60 0 104 18.5t72.5 58.5t42 103t13.5 151v10q0 170 -52 251.5t-160 81.5l-100 -1q-22 0 -34.5 -0.5t-20 -0.5t-12.5 -0.5
t-12 -0.5q-14 0 -14 -14v-285q0 -15 16 -15h123q5 0 5 -9q0 -8 -5 -8h-123q-16 0 -16 -16v-307q0 -14 14 -14q40 -2 79.5 -2.5t79.5 -0.5z" />
    <glyph glyph-name="dcroat" unicode="&#x111;" horiz-adv-x="558" 
d="M30 241q0 57 13.5 102.5t38 78t60.5 49.5t81 17q115 0 159 -96h1q-1 26 -1 44.5v35.5v96q0 16 -16 16h-113q-6 0 -6 8t6 8h113q16 0 16 16v71q0 16 -15 16h-74q-5 0 -5 8t5 8h89.5t86.5 2q3 0 3 -4v-101q0 -16 16 -16h51q6 0 6 -8t-6 -8h-51q-16 0 -16 -16v-536
q0 -16 16 -16l52 -2q4 -1 4 -8q0 -8 -4 -8q-26 1 -42.5 1.5t-27 0.5h-17.5h-16h-24.5t-26.5 -1q-3 0 -3 3v36.5t2 46.5h-1q-22 -48 -58 -72.5t-95 -24.5q-96 0 -148.5 65.5t-52.5 187.5zM250 7q30 0 54.5 12.5t42 33t26.5 46t9 52.5v177q0 26 -10.5 51t-28.5 44.5
t-42.5 31.5t-52.5 12q-119 0 -119 -220v-4q0 -121 29 -178.5t92 -57.5z" />
    <glyph glyph-name="Emacron" unicode="&#x112;" horiz-adv-x="680" 
d="M31 6q0 8 4 8l82 2q7 0 11.5 4.5t4.5 10.5v639q0 6 -4.5 10.5t-11.5 4.5l-78 2q-4 0 -4 8t4 8q33 0 53.5 -0.5t35.5 -0.5h26.5h26.5h62h52.5h52.5t61.5 0.5t80 1t108.5 0.5q6 0 6 -6v-185q0 -5 -8 -5t-8 5q0 54 -8.5 88t-29.5 52.5t-56 25.5t-88 7h-162q-5 0 -10 -3.5
t-5 -12.5v-294q0 -6 6 -6h45q50 0 80 2.5t46.5 14.5t22 38t6.5 74q0 5 8 5t8 -5q-1 -45 -1 -75v-62v-64.5t1 -77.5q0 -5 -8 -5t-8 5q-1 49 -6.5 76t-21.5 40t-46.5 15.5t-80.5 2.5h-45q-6 0 -6 -6v-316q0 -16 15 -16h173q61 0 100.5 9t63 31.5t32.5 62t9 99.5q0 4 8 4
q9 0 9 -4l-3 -214q0 -6 -5 -6q-68 0 -117 0.5t-85.5 1t-64.5 0.5h-54.5h-54.5h-65h-35h-31.5t-37 -0.5t-51.5 -1.5q-4 0 -4 8zM215 824q0 5 5 5h270q5 0 5 -5v-32q0 -5 -5 -5h-270q-5 0 -5 5v32z" />
    <glyph glyph-name="emacron" unicode="&#x113;" horiz-adv-x="502" 
d="M257 492q48 0 88 -15.5t68.5 -43.5t44 -67.5t15.5 -88.5q0 -6 -5 -6h-331q-6 0 -6 -6v-45q0 -105 40 -158t112 -53q33 0 57 10t43 27t33.5 40t27.5 50q2 3 6 3q9 0 9 -8q-23 -68 -73.5 -105.5t-128.5 -37.5q-51 0 -92.5 16.5t-71.5 49t-46.5 79t-16.5 106.5
q0 59 16 105.5t45.5 79.5t71.5 50.5t94 17.5zM138 287h230q6 0 6 6v5q0 81 -29.5 129.5t-91.5 48.5q-37 0 -60.5 -16.5t-37 -42t-18.5 -57t-5 -62.5v-5q0 -6 6 -6zM111 567v32q0 5 5 5h270q5 0 5 -5v-32q0 -5 -5 -5h-270q-5 0 -5 5z" />
    <glyph glyph-name="Ebreve" unicode="&#x114;" horiz-adv-x="680" 
d="M35 14l82 2q7 0 11.5 4.5t4.5 10.5v639q0 6 -4.5 10.5t-11.5 4.5l-78 2q-4 0 -4 8t4 8q33 0 53.5 -0.5t35.5 -0.5h26.5h26.5h62h52.5h52.5t61.5 0.5t80 1t108.5 0.5q6 0 6 -6v-185q0 -5 -8 -5t-8 5q0 54 -8.5 88t-29.5 52.5t-56 25.5t-88 7h-162q-5 0 -10 -3.5t-5 -12.5
v-294q0 -6 6 -6h45q50 0 80 2.5t46.5 14.5t22 38t6.5 74q0 5 8 5t8 -5q-1 -45 -1 -75v-62v-64.5t1 -77.5q0 -5 -8 -5t-8 5q-1 49 -6.5 76t-21.5 40t-46.5 15.5t-80.5 2.5h-45q-6 0 -6 -6v-316q0 -16 15 -16h173q61 0 100.5 9t63 31.5t32.5 62t9 99.5q0 4 8 4q9 0 9 -4
l-3 -214q0 -6 -5 -6q-68 0 -117 0.5t-85.5 1t-64.5 0.5h-54.5h-54.5h-65h-35h-31.5t-37 -0.5t-51.5 -1.5q-4 0 -4 8t4 8zM217 917q0 4 7 4q6 0 7 -4q11 -43 39 -63.5t85 -20.5t85 20.5t39 63.5q1 4 7 4q7 0 7 -4q-4 -75 -37.5 -110t-100.5 -35t-100.5 35t-37.5 110z" />
    <glyph glyph-name="ebreve" unicode="&#x115;" horiz-adv-x="502" 
d="M30 239q0 59 16 105.5t45.5 79.5t71.5 50.5t94 17.5q48 0 88 -15.5t68.5 -43.5t44 -67.5t15.5 -88.5q0 -6 -5 -6h-331q-6 0 -6 -6v-45q0 -105 40 -158t112 -53q33 0 57 10t43 27t33.5 40t27.5 50q2 3 6 3q9 0 9 -8q-23 -68 -73.5 -105.5t-128.5 -37.5q-51 0 -92.5 16.5
t-71.5 49t-46.5 79t-16.5 106.5zM132 293q0 -6 6 -6h230q6 0 6 6v5q0 81 -29.5 129.5t-91.5 48.5q-37 0 -60.5 -16.5t-37 -42t-18.5 -57t-5 -62.5v-5zM113 692q0 4 7 4q6 0 7 -4q11 -43 39 -63.5t85 -20.5t85 20.5t39 63.5q1 4 7 4q7 0 7 -4q-4 -75 -37.5 -110t-100.5 -35
t-100.5 35t-37.5 110z" />
    <glyph glyph-name="Edotaccent" unicode="&#x116;" horiz-adv-x="680" 
d="M31 6q0 8 4 8l82 2q7 0 11.5 4.5t4.5 10.5v639q0 6 -4.5 10.5t-11.5 4.5l-78 2q-4 0 -4 8t4 8q33 0 53.5 -0.5t35.5 -0.5h26.5h26.5h62h52.5h52.5t61.5 0.5t80 1t108.5 0.5q6 0 6 -6v-185q0 -5 -8 -5t-8 5q0 54 -8.5 88t-29.5 52.5t-56 25.5t-88 7h-162q-5 0 -10 -3.5
t-5 -12.5v-294q0 -6 6 -6h45q50 0 80 2.5t46.5 14.5t22 38t6.5 74q0 5 8 5t8 -5q-1 -45 -1 -75v-62v-64.5t1 -77.5q0 -5 -8 -5t-8 5q-1 49 -6.5 76t-21.5 40t-46.5 15.5t-80.5 2.5h-45q-6 0 -6 -6v-316q0 -16 15 -16h173q61 0 100.5 9t63 31.5t32.5 62t9 99.5q0 4 8 4
q9 0 9 -4l-3 -214q0 -6 -5 -6q-68 0 -117 0.5t-85.5 1t-64.5 0.5h-54.5h-54.5h-65h-35h-31.5t-37 -0.5t-51.5 -1.5q-4 0 -4 8zM355 888q22 0 36 -13.5t14 -35.5t-14 -36t-36 -14t-36 14t-14 36t14 35.5t36 13.5z" />
    <glyph glyph-name="edotaccent" unicode="&#x117;" horiz-adv-x="502" 
d="M257 492q48 0 88 -15.5t68.5 -43.5t44 -67.5t15.5 -88.5q0 -6 -5 -6h-331q-6 0 -6 -6v-45q0 -105 40 -158t112 -53q33 0 57 10t43 27t33.5 40t27.5 50q2 3 6 3q9 0 9 -8q-23 -68 -73.5 -105.5t-128.5 -37.5q-51 0 -92.5 16.5t-71.5 49t-46.5 79t-16.5 106.5
q0 59 16 105.5t45.5 79.5t71.5 50.5t94 17.5zM132 293q0 -6 6 -6h230q6 0 6 6v5q0 81 -29.5 129.5t-91.5 48.5q-37 0 -60.5 -16.5t-37 -42t-18.5 -57t-5 -62.5v-5zM201 656q0 22 14 35.5t36 13.5t36 -13.5t14 -35.5t-14 -36t-36 -14t-36 14t-14 36z" />
    <glyph glyph-name="Eogonek" unicode="&#x118;" horiz-adv-x="680" 
d="M35 14l82 2q7 0 11.5 4.5t4.5 10.5v639q0 6 -4.5 10.5t-11.5 4.5l-78 2q-4 0 -4 8t4 8q33 0 53.5 -0.5t35.5 -0.5h26.5h26.5h62h52.5h52.5t61.5 0.5t80 1t108.5 0.5q6 0 6 -6v-185q0 -5 -8 -5t-8 5q0 54 -8.5 88t-29.5 52.5t-56 25.5t-88 7h-162q-5 0 -10 -3.5t-5 -12.5
v-294q0 -6 6 -6h45q50 0 80 2.5t46.5 14.5t22 38t6.5 74q0 5 8 5t8 -5q-1 -45 -1 -75v-62v-64.5t1 -77.5q0 -5 -8 -5t-8 5q-1 49 -6.5 76t-21.5 40t-46.5 15.5t-80.5 2.5h-45q-6 0 -6 -6v-316q0 -16 15 -16h173q61 0 100.5 9t63 31.5t32.5 62t9 99.5q0 4 8 4q9 0 9 -4
l-3 -214q0 -6 -5 -6q-31 0 -58 0.5t-50 0.5q-60 -25 -88 -61.5t-28 -77.5q0 -32 17 -50.5t46 -18.5q11 0 25 3t35 14q7 -4 7 -13q-24 -14 -48.5 -20.5t-51.5 -6.5q-51 0 -81.5 22.5t-30.5 64.5q0 46 39 81t131 63q-56 0 -94 0.5t-70 0.5h-64.5h-76.5h-35h-31.5t-37 -0.5
t-51.5 -1.5q-4 0 -4 8t4 8z" />
    <glyph glyph-name="eogonek" unicode="&#x119;" horiz-adv-x="502" 
d="M30 239q0 59 16 105.5t45.5 79.5t71.5 50.5t94 17.5q48 0 88 -15.5t68.5 -43.5t44 -67.5t15.5 -88.5q0 -6 -5 -6h-331q-6 0 -6 -6v-45q0 -105 40 -158t112 -53q33 0 57 10t43 27t33.5 40t27.5 50q2 3 6 3q9 0 9 -8q-17 -51 -49.5 -85t-80.5 -48q-58 -25 -86 -61t-28 -77
q0 -32 17 -50.5t46 -18.5q11 0 25 3t35 14q7 -4 7 -13q-24 -14 -48.5 -20.5t-51.5 -6.5q-51 0 -81.5 22.5t-30.5 64.5t31 74.5t106 58.5h-13q-51 0 -92.5 16.5t-71.5 49t-46.5 79t-16.5 106.5zM132 293q0 -6 6 -6h230q6 0 6 6v5q0 81 -29.5 129.5t-91.5 48.5
q-37 0 -60.5 -16.5t-37 -42t-18.5 -57t-5 -62.5v-5z" />
    <glyph glyph-name="Ecaron" unicode="&#x11a;" horiz-adv-x="680" 
d="M347 753q-6 0 -11 8l-119 164q-5 6 -5.5 7.5t-0.5 3.5q0 4 6 4h7q5 0 11 -5l136 -110q4 -4 5.5 -4.5t2.5 -0.5q2 0 3 0.5t5 5.5l90 108q5 6 9 6h5q6 0 6 -4q0 -2 -0.5 -3t-5.5 -7l-121 -166q-6 -7 -12 -7h-11zM35 -2q-4 0 -4 8t4 8l82 2q7 0 11.5 4.5t4.5 10.5v639
q0 6 -4.5 10.5t-11.5 4.5l-78 2q-4 0 -4 8t4 8q33 0 53.5 -0.5t35.5 -0.5h26.5h26.5h62h52.5h52.5t61.5 0.5t80 1t108.5 0.5q6 0 6 -6v-185q0 -5 -8 -5t-8 5q0 54 -8.5 88t-29.5 52.5t-56 25.5t-88 7h-162q-5 0 -10 -3.5t-5 -12.5v-294q0 -6 6 -6h45q49 0 79 2t46.5 14
t22.5 38.5t7 74.5q0 5 8 5t8 -5q-1 -45 -1 -75v-62v-64.5t1 -77.5q0 -5 -8 -5t-8 5q-1 50 -6.5 77t-22 39.5t-46.5 15t-80 2.5h-45q-6 0 -6 -6v-316q0 -16 15 -16h173q61 0 100.5 9t63 31.5t32.5 62t9 99.5q0 4 8 4q9 0 9 -4l-3 -214q0 -6 -5 -6q-68 0 -117 0.5t-85.5 1
t-64.5 0.5h-54.5h-54.5h-65h-35h-31.5t-37 -0.5t-51.5 -1.5z" />
    <glyph glyph-name="ecaron" unicode="&#x11b;" horiz-adv-x="502" 
d="M243 528q-6 0 -11 8l-119 164q-5 6 -5.5 7.5t-0.5 3.5q0 4 6 4h7q5 0 11 -5l136 -110q4 -4 5.5 -4.5t2.5 -0.5q2 0 3 0.5t5 5.5l90 108q5 6 9 6h5q6 0 6 -4q0 -2 -0.5 -3t-5.5 -7l-121 -166q-6 -7 -12 -7h-11zM257 -12q-51 0 -92.5 16.5t-71.5 49t-46.5 79t-16.5 106.5
q0 59 16 105.5t45.5 79.5t71.5 50.5t94 17.5q48 0 88 -15.5t68.5 -43.5t44 -67.5t15.5 -88.5q0 -6 -5 -6h-331q-6 0 -6 -6v-45q0 -105 40 -158t112 -53q60 0 100.5 36.5t60.5 90.5q2 3 6 3q9 0 9 -8q-23 -68 -73.5 -105.5t-128.5 -37.5zM368 287q6 0 6 6v5q0 81 -29.5 129.5
t-91.5 48.5q-37 0 -60.5 -16.5t-37 -42t-18.5 -57t-5 -62.5v-5q0 -6 6 -6h230z" />
    <glyph glyph-name="Gcircumflex" unicode="&#x11c;" horiz-adv-x="764" 
d="M399 942q5 0 6.5 -1.5t5.5 -6.5l118 -164q5 -6 6 -7.5t1 -3.5q0 -4 -6 -4h-8q-3 0 -4.5 0.5t-6.5 4.5l-135 110q-5 4 -6 4.5t-3 0.5q-1 0 -2.5 -0.5t-5.5 -5.5l-89 -108q-5 -6 -9 -6h-6q-5 0 -5 4v3t5 7l121 166q4 5 6 6t6 1h11zM384 -13q-83 0 -146.5 25t-106.5 71.5
t-65 113t-22 149.5q0 87 24.5 156t70 117.5t110.5 74t146 25.5q68 0 122 -12.5t100 -32.5q7 -3 7 -13v-175q0 -5 -8 -5t-8 7q-5 103 -56.5 159t-158.5 56q-58 0 -102 -19t-73.5 -61.5t-44 -110.5t-14.5 -165v-1q0 -172 54 -257t173 -85q36 0 67.5 7.5t55.5 21.5t37.5 33.5
t13.5 44.5v194q0 10 -5 12.5t-11 2.5l-82 2q-4 0 -4 8t4 8q32 -1 52 -1.5t34.5 -0.5h27.5h30h30.5h26t31 0.5t44.5 1.5q5 0 5 -8t-5 -8l-67 -2q-6 0 -10.5 -2.5t-4.5 -12.5v-217q0 -7 -6 -12q-37 -28 -71 -45t-66 -27t-64 -13.5t-65 -3.5z" />
    <glyph glyph-name="gcircumflex" unicode="&#x11d;" horiz-adv-x="523" 
d="M119 527q-5 0 -5 4v3t5 7l121 166q4 5 6 6t6 1h11q5 0 6.5 -1.5t5.5 -6.5l118 -164q5 -6 6 -7.5t1 -3.5q0 -4 -6 -4h-8q-3 0 -4.5 0.5t-6.5 4.5l-135 110q-5 4 -6 4.5t-3 0.5q-1 0 -2.5 -0.5t-5.5 -5.5l-89 -108q-5 -6 -9 -6h-6zM429 460q-8 0 -18 -6.5t-23 -25.5
q31 -39 31 -95q0 -36 -12 -65.5t-34.5 -51t-54 -33t-70.5 -11.5q-75 0 -122 44q-38 -5 -58 -22.5t-20 -46.5q0 -63 100 -63h15t14.5 0.5t16.5 1t22 1.5q41 2 64 3t41 1q82 0 124 -39.5t42 -114.5q0 -88 -61 -138t-176 -50q-51 0 -94 9t-74 27t-48.5 44t-17.5 59
q0 15 4.5 31.5t17.5 32t38 28t65 19.5v2q-36 7 -59.5 19t-38 28t-20 34.5t-5.5 37.5q0 44 24 72t72 38q-33 39 -33 96q0 36 12.5 65.5t35 51t54 33t70.5 11.5q80 0 125 -47q20 27 35.5 35.5t32.5 8.5q25 0 40.5 -14t15.5 -46q0 -35 -26 -35q-14 0 -20.5 11t-6.5 28
q0 14 -4.5 23t-15.5 9zM339 330q0 40 -6 67t-17.5 43.5t-27.5 23.5t-37 7t-38 -7t-28.5 -23.5t-17.5 -43.5t-6 -67v-6q0 -78 23.5 -107t65.5 -29t65.5 29t23.5 107v6zM179 -6q-52 -7 -75 -32.5t-23 -66.5q0 -63 46 -96.5t128 -33.5q45 0 81.5 10t62.5 28t40.5 44t14.5 58
q0 45 -31 70t-105 25q-51 0 -82 -1.5t-57 -4.5z" />
    <glyph glyph-name="Gbreve" unicode="&#x11e;" horiz-adv-x="764" 
d="M44 346q0 87 24.5 156t70 117.5t110.5 74t146 25.5q134 0 222 -45q7 -3 7 -13v-175q0 -5 -8 -5t-8 7q-5 103 -56.5 159t-158.5 56q-58 0 -102 -19t-73.5 -61.5t-44 -110.5t-14.5 -165v-1q0 -172 54 -257t173 -85q36 0 67.5 7.5t55.5 21.5t37.5 33.5t13.5 44.5v194
q0 10 -5 12.5t-11 2.5l-82 2q-4 0 -4 8t4 8q32 -1 52 -1.5t34.5 -0.5h27.5h30h30.5h26t31 0.5t44.5 1.5q5 0 5 -8t-5 -8l-67 -2q-6 0 -10.5 -2.5t-4.5 -12.5v-217q0 -7 -6 -12q-37 -28 -71 -45t-66 -27t-64 -13.5t-65 -3.5q-83 0 -146.5 25t-106.5 71.5t-65 113t-22 149.5z
M249 917q0 4 7 4q6 0 7 -4q11 -43 39 -63.5t85 -20.5t85 20.5t39 63.5q1 4 7 4q7 0 7 -4q-4 -75 -37.5 -110t-100.5 -35t-100.5 35t-37.5 110z" />
    <glyph glyph-name="gbreve" unicode="&#x11f;" horiz-adv-x="523" 
d="M16 -112q0 15 4.5 31.5t17.5 32t38 28t65 19.5v2q-36 7 -59.5 19t-38 28t-20 34.5t-5.5 37.5q0 44 24 72t72 38q-33 39 -33 96q0 36 12.5 65.5t35 51t54 33t70.5 11.5q80 0 125 -47q20 27 35.5 35.5t32.5 8.5q25 0 40.5 -14t15.5 -46q0 -35 -26 -35q-14 0 -20.5 11
t-6.5 28q0 14 -4.5 23t-15.5 9q-8 0 -18 -6.5t-23 -25.5q31 -39 31 -95q0 -36 -12 -65.5t-34.5 -51t-54 -33t-70.5 -11.5q-75 0 -122 44q-38 -5 -58 -22.5t-20 -46.5q0 -63 100 -63h15t14.5 0.5t16.5 1t22 1.5q41 2 64 3t41 1q82 0 124 -39.5t42 -114.5q0 -88 -61 -138
t-176 -50q-51 0 -94 9t-74 27t-48.5 44t-17.5 59zM255 -235q45 0 81.5 10t62.5 28t40.5 44t14.5 58q0 45 -31 70t-105 25q-51 0 -82 -1t-57 -5q-52 -8 -75 -33t-23 -66q0 -63 46 -96.5t128 -33.5zM250 188q42 0 65.5 29t23.5 107v6q0 40 -6 67t-17.5 43.5t-27.5 23.5t-37 7
t-38 -7t-28.5 -23.5t-17.5 -43.5t-6 -67v-6q0 -78 23.5 -107t65.5 -29zM113 689q0 4 7 4q6 0 7 -4q11 -43 39 -63.5t85 -20.5t85 20.5t39 63.5q1 4 7 4q7 0 7 -4q-4 -75 -37.5 -110t-100.5 -35t-100.5 35t-37.5 110z" />
    <glyph glyph-name="Gdotaccent" unicode="&#x120;" horiz-adv-x="764" 
d="M44 346q0 87 24.5 156t70 117.5t110.5 74t146 25.5q134 0 222 -45q7 -3 7 -13v-175q0 -5 -8 -5t-8 7q-5 103 -56.5 159t-158.5 56q-58 0 -102 -19t-73.5 -61.5t-44 -110.5t-14.5 -165v-1q0 -172 54 -257t173 -85q36 0 67.5 7.5t55.5 21.5t37.5 33.5t13.5 44.5v194
q0 10 -5 12.5t-11 2.5l-82 2q-4 0 -4 8t4 8q32 -1 52 -1.5t34.5 -0.5h27.5h30h30.5h26t31 0.5t44.5 1.5q5 0 5 -8t-5 -8l-67 -2q-6 0 -10.5 -2.5t-4.5 -12.5v-217q0 -7 -6 -12q-37 -28 -71 -45t-66 -27t-64 -13.5t-65 -3.5q-83 0 -146.5 25t-106.5 71.5t-65 113t-22 149.5z
M337 839q0 22 14 35.5t36 13.5t36 -13.5t14 -35.5t-14 -36t-36 -14t-36 14t-14 36z" />
    <glyph glyph-name="gdotaccent" unicode="&#x121;" horiz-adv-x="523" 
d="M16 -112q0 15 4.5 31.5t17.5 32t38 28t65 19.5v2q-36 7 -59.5 19t-38 28t-20 34.5t-5.5 37.5q0 44 24 72t72 38q-33 39 -33 96q0 36 12.5 65.5t35 51t54 33t70.5 11.5q80 0 125 -47q20 27 35.5 35.5t32.5 8.5q25 0 40.5 -14t15.5 -46q0 -35 -26 -35q-14 0 -20.5 11
t-6.5 28q0 14 -4.5 23t-15.5 9q-8 0 -18 -6.5t-23 -25.5q31 -39 31 -95q0 -36 -12 -65.5t-34.5 -51t-54 -33t-70.5 -11.5q-75 0 -122 44q-38 -5 -58 -22.5t-20 -46.5q0 -63 100 -63h15t14.5 0.5t16.5 1t22 1.5q41 2 64 3t41 1q82 0 124 -39.5t42 -114.5q0 -88 -61 -138
t-176 -50q-51 0 -94 9t-74 27t-48.5 44t-17.5 59zM255 -235q45 0 81.5 10t62.5 28t40.5 44t14.5 58q0 45 -31 70t-105 25q-51 0 -82 -1t-57 -5q-52 -8 -75 -33t-23 -66q0 -63 46 -96.5t128 -33.5zM161 324q0 -78 23.5 -107t65.5 -29t65.5 29t23.5 107v6q0 40 -6 67
t-17.5 43.5t-27.5 23.5t-37 7t-38 -7t-28.5 -23.5t-17.5 -43.5t-6 -67v-6zM201 653q0 22 14 35.5t36 13.5t36 -13.5t14 -35.5t-14 -36t-36 -14t-36 14t-14 36z" />
    <glyph glyph-name="uni0122" unicode="&#x122;" horiz-adv-x="764" 
d="M44 346q0 87 24.5 156t70 117.5t110.5 74t146 25.5q134 0 222 -45q7 -3 7 -13v-175q0 -5 -8 -5t-8 7q-5 103 -56.5 159t-158.5 56q-58 0 -102 -19t-73.5 -61.5t-44 -110.5t-14.5 -165v-1q0 -172 54 -257t173 -85q36 0 67.5 7.5t55.5 21.5t37.5 33.5t13.5 44.5v194
q0 10 -5 12.5t-11 2.5l-82 2q-4 0 -4 8t4 8q32 -1 52 -1.5t34.5 -0.5h27.5h30h30.5h26t31 0.5t44.5 1.5q5 0 5 -8t-5 -8l-67 -2q-6 0 -10.5 -2.5t-4.5 -12.5v-217q0 -7 -6 -12q-37 -28 -71 -45t-66 -27t-64 -13.5t-65 -3.5q-83 0 -146.5 25t-106.5 71.5t-65 113t-22 149.5z
M314 -93q0 22 15 34.5t37 12.5q34 0 54 -26.5t20 -69.5q0 -31 -11 -56.5t-28 -43.5t-38.5 -28t-41.5 -10q-5 0 -5 8q0 3 1 5t7 3q23 3 39.5 13.5t27.5 25.5t16.5 32t5.5 34t-4.5 30t-11.5 21h-2q-2 -12 -12 -20.5t-27 -8.5q-20 0 -31 12.5t-11 31.5z" />
    <glyph glyph-name="uni0123" unicode="&#x123;" horiz-adv-x="523" 
d="M16 -112q0 15 4.5 31.5t17.5 32t38 28t65 19.5v2q-36 7 -59.5 19t-38 28t-20 34.5t-5.5 37.5q0 44 24 72t72 38q-33 39 -33 96q0 36 12.5 65.5t35 51t54 33t70.5 11.5q80 0 125 -47q20 27 35.5 35.5t32.5 8.5q25 0 40.5 -14t15.5 -46q0 -35 -26 -35q-14 0 -20.5 11
t-6.5 28q0 14 -4.5 23t-15.5 9q-8 0 -18 -6.5t-23 -25.5q31 -39 31 -95q0 -36 -12 -65.5t-34.5 -51t-54 -33t-70.5 -11.5q-75 0 -122 44q-38 -5 -58 -22.5t-20 -46.5q0 -63 100 -63h15t14.5 0.5t16.5 1t22 1.5q41 2 64 3t41 1q82 0 124 -39.5t42 -114.5q0 -88 -61 -138
t-176 -50q-51 0 -94 9t-74 27t-48.5 44t-17.5 59zM255 -235q45 0 81.5 10t62.5 28t40.5 44t14.5 58q0 45 -31 70t-105 25q-51 0 -82 -1t-57 -5q-52 -8 -75 -33t-23 -66q0 -63 46 -96.5t128 -33.5zM250 188q42 0 65.5 29t23.5 107v6q0 40 -6 67t-17.5 43.5t-27.5 23.5t-37 7
t-38 -7t-28.5 -23.5t-17.5 -43.5t-6 -67v-6q0 -78 23.5 -107t65.5 -29zM179 639q0 31 10.5 56t27.5 42.5t38 28t43 11.5q5 0 5 -8q0 -3 -1 -4.5t-7 -3.5q-45 -7 -67 -38.5t-22 -65.5q0 -17 5 -30.5t11 -20.5h2q2 12 12 20t27 8q20 0 31 -12t11 -31q0 -23 -15 -35t-37 -12
q-34 0 -54 26t-20 69z" />
    <glyph glyph-name="Hcircumflex" unicode="&#x124;" horiz-adv-x="795" 
d="M409 942q5 0 6.5 -1.5t5.5 -6.5l118 -164q5 -6 6 -7.5t1 -3.5q0 -4 -6 -4h-8q-3 0 -4.5 0.5t-6.5 4.5l-135 110q-5 4 -6 4.5t-3 0.5q-1 0 -2.5 -0.5t-5.5 -5.5l-89 -108q-5 -6 -9 -6h-6q-5 0 -5 4v3t5 7l121 166q4 5 6 6t6 1h11zM36 -1q-5 0 -5 8t5 8l82 1q14 1 14 14
v644q0 13 -14 13h-82q-5 0 -5 8t5 8q29 0 48.5 -0.5t35 -0.5h29h30.5h33h31t35.5 0.5t47.5 1.5q5 0 5 -8t-5 -8l-83 -1q-15 0 -15 -16v-299q0 -6 6 -6h324q6 0 6 6v301q0 14 -16 14l-82 1q-5 0 -5 8t5 8q32 -1 53 -1.5t37 -0.5h29h29h30.5h29t35 0.5t48.5 0.5q4 0 4 -8
t-4 -8h-82q-15 0 -15 -14v-642q0 -16 16 -16h83q5 0 5 -7q0 -9 -5 -9q-26 0 -45.5 0.5t-36 0.5h-31h-31.5h-27.5h-28t-36.5 -0.5t-54 -1.5q-5 0 -5 8q0 9 5 9l80 1q15 0 15 14v313q0 6 -6 6h-324q-6 0 -6 -6v-314q0 -13 14 -13l85 -1q4 0 4 -8q0 -9 -4 -9q-31 1 -51 1.5
t-35.5 0.5h-29.5h-32h-30h-27.5t-34.5 -0.5t-51 -0.5z" />
    <glyph glyph-name="hcircumflex" unicode="&#x125;" horiz-adv-x="576" 
d="M161 954q5 0 6.5 -1t5.5 -6l118 -164q5 -7 6 -8.5t1 -3.5q0 -3 -6 -3h-8q-3 0 -4.5 0.5t-5.5 4.5l-136 109q-5 4 -6 4.5t-3 0.5q-1 0 -2 -0.5t-5 -5.5l-90 -108q-3 -4 -5 -4.5t-4 -0.5h-6q-5 0 -5 3v3t5 7l122 166q3 5 5 6t6 1h11zM16 -2q-4 0 -4 8t4 8l53 2q16 0 16 26
v645q0 16 -16 16h-53q-4 0 -4 8t4 8h76t78 2q5 0 5 -3v-250q0 -26 -0.5 -51.5t-2.5 -65.5l1 -1q14 40 33 67t42.5 43t51 23t57.5 7q68 0 101 -28t33 -94v-337q0 -15 16 -15l52 -2q4 0 4 -8t-4 -8q-23 1 -37.5 1.5t-26 0.5h-21.5h-23h-25h-23t-27.5 -0.5t-39.5 -1.5
q-5 0 -5 8t5 8l49 2q16 0 16 22v327q0 52 -20 76t-58 24q-35 0 -62.5 -18t-46.5 -46t-29 -61.5t-10 -64.5v-240q0 -19 16 -19l52 -2q5 0 5 -8t-5 -8q-24 1 -39.5 1.5t-27 0.5h-21.5h-23h-23h-22t-28.5 -0.5t-42.5 -1.5z" />
    <glyph glyph-name="Hbar" unicode="&#x126;" horiz-adv-x="797" 
d="M33 6q0 8 5 8l82 2q14 1 14 14v469q0 15 -16 15h-73q-5 0 -5 8t5 8h73q16 0 16 16v128q0 13 -14 13l-82 1q-4 0 -4 8t4 8q30 -1 49.5 -1.5t34.5 -0.5h28.5h30.5h33h31t35.5 0.5t47.5 1.5q6 0 6 -8t-6 -8l-83 -1q-15 0 -15 -16v-125q0 -16 16 -16h305q15 0 15 16v127
q0 14 -15 14l-83 1q-5 0 -5 8t5 8q33 -1 54 -1.5t36.5 -0.5h29h29.5h30.5h28.5t34 0.5t48 1.5q6 0 6 -8t-6 -8l-81 -1q-14 0 -14 -14v-127q0 -16 15 -16h73q6 0 6 -8t-6 -8h-73q-15 0 -15 -15v-468q0 -16 15 -16l83 -1q5 0 5 -7q0 -9 -5 -9q-26 1 -45.5 1.5t-35.5 0.5h-31
h-32h-27.5h-28t-36.5 -0.5t-54 -1.5q-5 0 -5 8q0 9 5 9l81 1q14 0 14 14v313q0 6 -6 6h-324q-6 0 -6 -6v-314q0 -13 14 -13l85 -1q5 0 5 -8q0 -9 -5 -9q-31 1 -51 1.5t-35.5 0.5h-29.5h-32h-30h-27.5t-34 -0.5t-51.5 -1.5q-5 0 -5 8zM230 499v-127q0 -6 6 -6h324q6 0 6 6
v127q0 15 -15 15h-305q-16 0 -16 -15z" />
    <glyph glyph-name="hbar" unicode="&#x127;" horiz-adv-x="576" 
d="M12 711q0 8 4 8h76t78 2q5 0 5 -4v-101q0 -16 15 -16h114q5 0 5 -8t-5 -8h-114q-15 0 -15 -16v-100q0 -26 -0.5 -51.5t-2.5 -65.5l1 -1q14 40 33 67t42.5 43t51 23t57.5 7q68 0 101 -28t33 -94v-337q0 -15 16 -15l52 -2q4 0 4 -8t-4 -8q-23 1 -37.5 1.5t-26 0.5h-21.5
h-23h-25h-23t-27.5 -0.5t-39.5 -1.5q-5 0 -5 8t5 8l49 2q16 0 16 22v327q0 52 -20 76t-58 24q-35 0 -62.5 -18t-46.5 -46t-29 -61.5t-10 -64.5v-240q0 -19 16 -19l52 -2q5 0 5 -8t-5 -8q-24 1 -39.5 1.5t-27 0.5h-21.5h-23h-23h-22t-28.5 -0.5t-42.5 -1.5q-4 0 -4 8t4 8
l53 2q16 0 16 26v526q0 16 -16 16h-52q-5 0 -5 8t5 8h52q16 0 16 16v71q0 16 -16 16h-53q-4 0 -4 8z" />
    <glyph glyph-name="Itilde" unicode="&#x128;" horiz-adv-x="368" 
d="M31 696q0 8 5 8q34 -1 55.5 -1.5t36.5 -0.5h27.5h27.5h33.5h31.5t36 0.5t47 1.5q6 0 6 -9q0 -8 -6 -8h-85q-14 0 -14 -14v-645q0 -8 3.5 -10.5t8.5 -2.5h87q5 0 5 -8t-5 -8q-32 0 -52 0.5t-35 0.5h-28.5h-32.5h-31h-28.5t-35.5 -0.5t-51 -0.5q-5 0 -5 8t5 8l83 1
q6 0 11 2.5t5 12.5v643q0 8 -4 10.5t-9 2.5l-87 1q-5 0 -5 8zM11 775q0 65 27 98t70 33q31 0 55 -13t41 -27q19 -14 38 -24.5t42 -10.5q29 0 44.5 18.5t17.5 51.5q1 4 8 4t7 -4q0 -65 -27 -98t-70 -33q-31 0 -54.5 13t-41.5 27q-19 14 -38 24.5t-42 10.5q-29 0 -44.5 -18.5
t-17.5 -51.5q-1 -4 -8 -4t-7 4z" />
    <glyph glyph-name="itilde" unicode="&#x129;" horiz-adv-x="261" 
d="M14 469q0 8 5 8q44 0 79 0.5t76 1.5q5 0 5 -3v-445q0 -16 15 -16l49 -1q5 0 5 -8t-5 -8q-24 1 -39 1.5t-26.5 0.5h-21h-22.5h-22.5h-21.5t-28 -0.5t-42 -1.5q-4 0 -4 8t5 8l51 1q16 0 16 16v414q0 16 -15 16h-54q-5 0 -5 8zM-46 550q0 65 27 98t70 33q31 0 55 -13t41 -27
q19 -14 38 -24.5t42 -10.5q29 0 44.5 18.5t17.5 51.5q1 4 8 4t7 -4q0 -65 -27 -98t-70 -33q-31 0 -54.5 13t-41.5 27q-19 14 -38 24.5t-42 10.5q-29 0 -44.5 -18.5t-17.5 -51.5q-1 -4 -8 -4t-7 4z" />
    <glyph glyph-name="Imacron" unicode="&#x12a;" horiz-adv-x="368" 
d="M31 696q0 8 5 8q34 -1 55.5 -1.5t36.5 -0.5h27.5h27.5h33.5h31.5t36 0.5t47 1.5q6 0 6 -9q0 -8 -6 -8h-85q-14 0 -14 -14v-645q0 -8 3.5 -10.5t8.5 -2.5h87q5 0 5 -8t-5 -8q-32 0 -52 0.5t-35 0.5h-28.5h-32.5h-31h-28.5t-35.5 -0.5t-51 -0.5q-5 0 -5 8t5 8l83 1
q6 0 11 2.5t5 12.5v643q0 8 -4 10.5t-9 2.5l-87 1q-5 0 -5 8zM46 824q0 5 5 5h270q5 0 5 -5v-32q0 -5 -5 -5h-270q-5 0 -5 5v32z" />
    <glyph glyph-name="imacron" unicode="&#x12b;" horiz-adv-x="261" 
d="M19 477q44 0 79 0.5t76 1.5q5 0 5 -3v-445q0 -16 15 -16l49 -1q5 0 5 -8t-5 -8q-24 1 -39 1.5t-26.5 0.5h-21h-22.5h-22.5h-21.5t-28 -0.5t-42 -1.5q-4 0 -4 8t5 8l51 1q16 0 16 16v414q0 16 -15 16h-54q-5 0 -5 8t5 8zM-6 604h270q5 0 5 -5v-32q0 -5 -5 -5h-270
q-5 0 -5 5v32q0 5 5 5z" />
    <glyph glyph-name="Ibreve" unicode="&#x12c;" horiz-adv-x="368" 
d="M36 704q34 -1 55.5 -1.5t36.5 -0.5h27.5h27.5h33.5h31.5t36 0.5t47 1.5q6 0 6 -9q0 -8 -6 -8h-85q-14 0 -14 -14v-645q0 -8 3.5 -10.5t8.5 -2.5h87q5 0 5 -8t-5 -8q-32 0 -52 0.5t-35 0.5h-28.5h-32.5h-31h-28.5t-35.5 -0.5t-51 -0.5q-5 0 -5 8t5 8l83 1q6 0 11 2.5
t5 12.5v643q0 8 -4 10.5t-9 2.5l-87 1q-5 0 -5 8t5 8zM47 917q0 4 7 4q6 0 7 -4q11 -43 39 -63.5t85 -20.5t85 20.5t39 63.5q1 4 7 4q7 0 7 -4q-4 -75 -37.5 -110t-100.5 -35t-100.5 35t-37.5 110z" />
    <glyph glyph-name="ibreve" unicode="&#x12d;" horiz-adv-x="261" 
d="M14 469q0 8 5 8q44 0 79 0.5t76 1.5q5 0 5 -3v-445q0 -16 15 -16l49 -1q5 0 5 -8t-5 -8q-24 1 -39 1.5t-26.5 0.5h-21h-22.5h-22.5h-21.5t-28 -0.5t-42 -1.5q-4 0 -4 8t5 8l51 1q16 0 16 16v414q0 16 -15 16h-54q-5 0 -5 8zM-9 692q0 4 7 4q6 0 7 -4q11 -43 39 -63.5
t85 -20.5t85 20.5t39 63.5q1 4 7 4q7 0 7 -4q-4 -75 -37.5 -110t-100.5 -35t-100.5 35t-37.5 110z" />
    <glyph glyph-name="Iogonek" unicode="&#x12e;" horiz-adv-x="368" 
d="M31 696q0 8 5 8q34 -1 55.5 -1.5t36.5 -0.5h27.5h27.5h33.5h31.5t36 0.5t47 1.5q6 0 6 -9q0 -8 -6 -8h-85q-14 0 -14 -14v-645q0 -8 3.5 -10.5t8.5 -2.5h87q5 0 5 -8t-5 -8q-35 1 -56 1h-37q-61 -25 -90 -61.5t-29 -78.5q0 -32 17 -50.5t46 -18.5q11 0 25 3t35 14
q7 -4 7 -13q-24 -14 -48.5 -20.5t-51.5 -6.5q-51 0 -81.5 22.5t-30.5 64.5q0 47 39.5 82t134.5 63h-28h-31h-28.5t-35.5 -0.5t-51 -0.5q-5 0 -5 8t5 8l83 1q6 0 11 2.5t5 12.5v643q0 8 -4 10.5t-9 2.5l-87 1q-5 0 -5 8z" />
    <glyph glyph-name="iogonek" unicode="&#x12f;" horiz-adv-x="261" 
d="M3 -145q0 47 39 82t134 63h-42h-22.5h-21.5t-28 -0.5t-42 -1.5q-4 0 -4 8t5 8l51 1q16 0 16 16v414q0 16 -15 16h-54q-5 0 -5 8t5 8q44 0 79 0.5t76 1.5q5 0 5 -3v-445q0 -16 15 -16l49 -1q5 0 5 -8t-5 -8q-13 1 -23 1h-18q-60 -25 -88.5 -61t-28.5 -78q0 -32 17 -50.5
t46 -18.5q11 0 25 3t35 14q7 -4 7 -13q-24 -14 -48.5 -20.5t-51.5 -6.5q-51 0 -81.5 22.5t-30.5 64.5zM78 657q0 22 14.5 36.5t37.5 14.5t37.5 -14.5t14.5 -36.5q0 -23 -14.5 -38t-37.5 -15t-37.5 15t-14.5 38z" />
    <glyph glyph-name="Idotaccent" unicode="&#x130;" horiz-adv-x="368" 
d="M36 704q34 -1 55.5 -1.5t36.5 -0.5h27.5h27.5h33.5h31.5t36 0.5t47 1.5q6 0 6 -9q0 -8 -6 -8h-85q-14 0 -14 -14v-645q0 -8 3.5 -10.5t8.5 -2.5h87q5 0 5 -8t-5 -8q-32 0 -52 0.5t-35 0.5h-28.5h-32.5h-31h-28.5t-35.5 -0.5t-51 -0.5q-5 0 -5 8t5 8l83 1q6 0 11 2.5
t5 12.5v643q0 8 -4 10.5t-9 2.5l-87 1q-5 0 -5 8t5 8zM186 888q22 0 36 -13.5t14 -35.5t-14 -36t-36 -14t-36 14t-14 36t14 35.5t36 13.5z" />
    <glyph glyph-name="dotlessi" unicode="&#x131;" horiz-adv-x="261" 
d="M19 477q44 0 79 0.5t76 1.5q5 0 5 -3v-445q0 -16 15 -16l49 -1q5 0 5 -8t-5 -8q-24 1 -39 1.5t-26.5 0.5h-21h-22.5h-22.5h-21.5t-28 -0.5t-42 -1.5q-4 0 -4 8t5 8l51 1q16 0 16 16v414q0 16 -15 16h-54q-5 0 -5 8t5 8z" />
    <glyph glyph-name="IJ" unicode="&#x132;" horiz-adv-x="817" 
d="M375 81q0 27 16 43t40 16t39.5 -16t15.5 -40q0 -21 -12.5 -36.5t-35.5 -20.5q29 -23 76 -23q35 0 53.5 16.5t18.5 54.5v595q0 10 -4 12.5t-10 2.5l-85 2q-4 1 -4 9q0 7 4 7q30 0 50 -0.5t35 -0.5h29h32h31.5h28.5t34.5 0.5t49.5 0.5q5 0 5 -8q0 -6 -5 -8l-79 -2
q-6 0 -11 -2.5t-5 -12.5v-560q0 -122 -160 -122q-65 0 -106 24.5t-41 68.5zM36 704q34 -1 55.5 -1.5t36.5 -0.5h27.5h27.5h33.5h31.5t36 0.5t47 1.5q6 0 6 -9q0 -8 -6 -8h-85q-14 0 -14 -14v-645q0 -8 3.5 -10.5t8.5 -2.5h87q5 0 5 -8t-5 -8q-32 0 -52 0.5t-35 0.5h-28.5
h-32.5h-31h-28.5t-35.5 -0.5t-51 -0.5q-5 0 -5 8t5 8l83 1q6 0 11 2.5t5 12.5v643q0 8 -4 10.5t-9 2.5l-87 1q-5 0 -5 8t5 8z" />
    <glyph glyph-name="ij" unicode="&#x133;" horiz-adv-x="519" 
d="M247 -224q0 2 0.5 3t5.5 2q28 10 47 23t30 32.5t16 48.5t5 73q0 101 -0.5 227t-2.5 257q-1 16 -11 16h-83q-4 0 -4 8t4 8h89.5t89.5 2q5 0 5 -3v-541q0 -34 -10 -58.5t-32 -43t-57 -34t-85 -31.5q-2 0 -4.5 3.5t-2.5 7.5zM14 469q0 8 5 8q44 0 79 0.5t76 1.5q5 0 5 -3
v-445q0 -16 15 -16l49 -1q5 0 5 -8t-5 -8q-24 1 -39 1.5t-26.5 0.5h-21h-22.5h-22.5h-21.5t-28 -0.5t-42 -1.5q-4 0 -4 8t5 8l51 1q16 0 16 16v414q0 16 -15 16h-54q-5 0 -5 8zM394 705q23 0 37.5 -14.5t14.5 -36.5q0 -23 -14.5 -38t-37.5 -15t-37.5 15t-14.5 38
q0 22 14.5 36.5t37.5 14.5zM130 708q23 0 37.5 -14.5t14.5 -36.5q0 -23 -14.5 -38t-37.5 -15t-37.5 15t-14.5 38q0 22 14.5 36.5t37.5 14.5z" />
    <glyph glyph-name="Jcircumflex" unicode="&#x134;" horiz-adv-x="457" 
d="M122 755q-5 0 -5 4v3t5 7l121 166q4 5 6 6t6 1h11q5 0 6.5 -1.5t5.5 -6.5l118 -164q5 -6 6 -7.5t1 -3.5q0 -4 -6 -4h-8q-3 0 -4.5 0.5t-6.5 4.5l-135 110q-5 4 -6 4.5t-3 0.5q-1 0 -2.5 -0.5t-5.5 -5.5l-89 -108q-5 -6 -9 -6h-6zM417 703q5 0 5 -8q0 -6 -5 -8l-79 -2
q-6 0 -11 -2.5t-5 -12.5v-560q0 -122 -160 -122q-65 0 -106 24.5t-41 68.5q0 27 16 43t40 16t39.5 -16t15.5 -40q0 -21 -12.5 -36.5t-35.5 -20.5q29 -23 76 -23q35 0 53.5 16.5t18.5 54.5v595q0 10 -4 12.5t-10 2.5l-85 2q-4 1 -4 9q0 7 4 7q30 0 50 -0.5t35 -0.5h29h32
h31.5h28.5t34.5 0.5t49.5 0.5z" />
    <glyph glyph-name="jcircumflex" unicode="&#x135;" horiz-adv-x="260" 
d="M146 714q5 0 6.5 -1.5t5.5 -6.5l118 -164q5 -6 6 -7.5t1 -3.5q0 -4 -6 -4h-8q-3 0 -4.5 0.5t-6.5 4.5l-135 110q-5 4 -6 4.5t-3 0.5q-1 0 -2.5 -0.5t-5.5 -5.5l-89 -108q-5 -6 -9 -6h-6q-5 0 -5 4v3t5 7l121 166q4 5 6 6t6 1h11zM-5 -235q-2 0 -4.5 3.5t-2.5 7.5
q0 2 0.5 3t5.5 2q28 10 47 23t30 32.5t16 48.5t5 73q0 101 -0.5 227t-2.5 257q-1 16 -11 16h-83q-4 0 -4 8t4 8h89.5t89.5 2q5 0 5 -3v-541q0 -34 -10 -58.5t-32 -43t-57 -34t-85 -31.5z" />
    <glyph glyph-name="uni0136" unicode="&#x136;" horiz-adv-x="695" 
d="M36 15h85q13 1 13 14v643q0 15 -14 15h-83q-5 0 -5 8t5 8q30 0 49.5 -0.5t34 -0.5h28h31.5h29h26.5t33 0.5t47.5 1.5q5 0 5 -7q0 -9 -5 -9l-72 -1q-14 0 -14 -15v-271q0 -6 6 -6h53l186 271q5 10 5 12q0 8 -12 9l-64 1q-5 0 -5 8t5 8q23 -1 37.5 -1.5t24.5 -0.5h17.5
h14.5h38t49 1q5 0 5 -8t-5 -8l-67 -2q-12 0 -18 -9l-149 -217l250 -433q5 -9 19 -9l65 -2q5 0 5 -8t-5 -8q-30 0 -48.5 0.5t-32 0.5h-24h-24.5h-26.5h-26.5t-36.5 -0.5t-56.5 -1.5q-5 0 -5 8t5 8l68 1q12 0 12 7q0 4 -5 12l-191 342q-3 4 -7 4h-51q-6 0 -6 -5v-346
q0 -14 14 -14l82 -1q5 0 5 -9q0 -7 -5 -7q-31 1 -51 1.5t-35 0.5h-28.5h-31.5h-29h-26.5t-35 -0.5t-53.5 -0.5q-5 0 -5 8t5 8zM280 -85q0 22 15 34.5t37 12.5q34 0 54 -26.5t20 -69.5q0 -31 -11 -56.5t-28 -43.5t-38.5 -28t-41.5 -10q-5 0 -5 8q0 3 1 5t7 3q23 3 39.5 13.5
t27.5 25.5t16.5 32t5.5 34t-4.5 30t-11.5 21h-2q-2 -12 -12 -20.5t-27 -8.5q-20 0 -31 12.5t-11 31.5z" />
    <glyph glyph-name="uni0137" unicode="&#x137;" horiz-adv-x="538" 
d="M12 711q0 8 4 8q38 0 76.5 0.5t79.5 2.5q5 0 5 -4v-462q0 -5 4 -5h43l127 193q5 8 5 12q0 6 -8 6l-68 1q-4 0 -4 8t4 8q21 -1 34.5 -1.5t23 -0.5h17h16.5h18h17.5t22 0.5t31.5 1.5q5 0 5 -8t-5 -8l-67 -2q-5 0 -9.5 -1.5t-9.5 -9.5l-95 -146l195 -275q5 -7 9 -9.5
t12 -2.5l38 -3q5 0 5 -8t-5 -8q-21 1 -35 1.5t-25 0.5h-22h-26h-25.5h-22.5t-28 -0.5t-41 -1.5q-4 0 -4 8t5 8l54 1q10 2 10 7q0 4 -5 11l-137 198q-4 5 -9 5h-41q-4 0 -4 -5v-203q0 -12 12 -12l48 -2q5 0 5 -8t-5 -8q-21 1 -35 1.5t-24.5 0.5h-20.5h-24h-25h-23t-27.5 -0.5
t-39.5 -1.5q-5 0 -5 8t5 8l55 1q13 0 13 13v658q0 16 -16 16h-53q-5 0 -5 9zM274 -38q34 0 54 -26.5t20 -69.5q0 -31 -11 -56.5t-28 -43.5t-38.5 -28t-41.5 -10q-5 0 -5 8q0 3 1 5t7 3q23 3 39.5 13.5t27.5 25.5t16.5 32t5.5 34t-4.5 30t-11.5 21h-2q-2 -12 -12 -20.5
t-27 -8.5q-20 0 -31 12.5t-11 31.5q0 22 15 34.5t37 12.5z" />
    <glyph glyph-name="kgreenlandic" unicode="&#x138;" horiz-adv-x="542" 
d="M20 477q37 0 76 0.5t80 2.5q4 0 4 -4v-220q0 -5 5 -5h43l126 193q6 7 6 12q0 6 -8 6l-68 1q-5 0 -5 8t5 8q21 -1 34.5 -1.5t23 -0.5h17h16.5h17h17.5t22.5 0.5t32 1.5q4 0 4 -8t-4 -8l-67 -2q-5 0 -9.5 -1.5t-9.5 -9.5l-96 -146l196 -275q5 -7 9 -9.5t12 -2.5l38 -3
q5 0 5 -8t-5 -8q-21 1 -35 1.5t-25 0.5h-22h-26h-26h-23t-27.5 -0.5t-40.5 -1.5q-5 0 -5 8t5 8l55 1q3 1 6.5 2t3.5 5t-5 11l-137 198q-5 5 -9 5h-41q-5 0 -5 -5v-203q0 -12 13 -12l48 -2q5 0 5 -8t-5 -8q-21 1 -35 1.5t-24.5 0.5h-21h-24.5h-24.5h-22.5t-27.5 -0.5
t-39.5 -1.5q-5 0 -5 8t5 8l55 1q13 0 13 13v416q0 16 -16 16h-54q-4 0 -4 9q0 8 4 8z" />
    <glyph glyph-name="Lacute" unicode="&#x139;" horiz-adv-x="672" 
d="M31 7q0 8 5 8l88 2q13 0 13 13v641q0 10 -5 13t-10 3h-83q-5 0 -5 8t5 8q32 0 51.5 -0.5t34.5 -0.5h28h31h30h28t35.5 0.5t53.5 1.5q6 0 6 -8t-6 -8l-82 -2q-6 0 -11 -3t-5 -13v-640q0 -14 14 -14h165q58 0 96.5 7.5t59.5 30.5q25 26 36 69.5t18 111.5q2 5 9 5q8 0 8 -5
v-229q0 -8 -7 -8q-72 0 -123 0.5t-88.5 1t-65.5 0.5h-53.5h-53h-63.5h-31.5h-28.5t-35.5 -0.5t-53.5 -0.5q-5 0 -5 8zM223 949q5 10 16 10h62q11 0 11 -10q0 -3 -1.5 -6.5t-9.5 -11.5l-142 -167q-5 -4 -8 -4t-6.5 2.5t-3.5 6.5z" />
    <glyph glyph-name="lacute" unicode="&#x13a;" horiz-adv-x="260" 
d="M17 719h35.5t33.5 0.5t37.5 1t48.5 1.5q5 0 5 -5v-687q0 -14 14 -14l54 -2q5 0 5 -8t-5 -8q-23 1 -38 1.5t-27 0.5h-23h-25h-25h-22.5t-27 -0.5t-38.5 -1.5q-4 0 -4 8t4 8l53 2q14 0 14 14v659q0 14 -14 14h-55q-5 0 -5 8t5 8zM160 962q5 10 16 10h62q11 0 11 -10
q0 -3 -1.5 -6.5t-9.5 -11.5l-142 -167q-5 -4 -8 -4t-6.5 2.5t-3.5 6.5z" />
    <glyph glyph-name="uni013B" unicode="&#x13b;" horiz-adv-x="672" 
d="M31 7q0 8 5 8l88 2q13 0 13 13v641q0 10 -5 13t-10 3h-83q-5 0 -5 8t5 8q32 0 51.5 -0.5t34.5 -0.5h28h31h30h28t35.5 0.5t53.5 1.5q6 0 6 -8t-6 -8l-82 -2q-6 0 -11 -3t-5 -13v-640q0 -14 14 -14h165q58 0 96.5 7.5t59.5 30.5q25 26 36 69.5t18 111.5q2 5 9 5q8 0 8 -5
v-229q0 -8 -7 -8q-72 0 -123 0.5t-88.5 1t-65.5 0.5h-53.5h-53h-63.5h-31.5h-28.5t-35.5 -0.5t-53.5 -0.5q-5 0 -5 8zM372 -38q34 0 54 -26.5t20 -69.5q0 -31 -11 -56.5t-28 -43.5t-38.5 -28t-41.5 -10q-5 0 -5 8q0 3 1 5t7 3q23 3 39.5 13.5t27.5 25.5t16.5 32t5.5 34
t-4.5 30t-11.5 21h-2q-2 -12 -12 -20.5t-27 -8.5q-20 0 -31 12.5t-11 31.5q0 22 15 34.5t37 12.5z" />
    <glyph glyph-name="uni013C" unicode="&#x13c;" horiz-adv-x="260" 
d="M12 711q0 8 5 8h35.5t33.5 0.5t37.5 1t48.5 1.5q5 0 5 -5v-687q0 -14 14 -14l54 -2q5 0 5 -8t-5 -8q-23 1 -38 1.5t-27 0.5h-23h-25h-25h-22.5t-27 -0.5t-38.5 -1.5q-4 0 -4 8t4 8l53 2q14 0 14 14v659q0 14 -14 14h-55q-5 0 -5 8zM71 -85q0 22 15 34.5t37 12.5
q34 0 54 -26.5t20 -69.5q0 -31 -11 -56.5t-28 -43.5t-38.5 -28t-41.5 -10q-5 0 -5 8q0 3 1 5t7 3q23 3 39.5 13.5t27.5 25.5t16.5 32t5.5 34t-4.5 30t-11.5 21h-2q-2 -12 -12 -20.5t-27 -8.5q-20 0 -31 12.5t-11 31.5z" />
    <glyph glyph-name="Lcaron" unicode="&#x13d;" horiz-adv-x="672" 
d="M31 7q0 8 5 8l88 2q13 0 13 13v641q0 10 -5 13t-10 3h-83q-5 0 -5 8t5 8q32 0 51.5 -0.5t34.5 -0.5h28h31h30h28t35.5 0.5t53.5 1.5q6 0 6 -8t-6 -8l-82 -2q-6 0 -11 -3t-5 -13v-640q0 -14 14 -14h165q58 0 96.5 7.5t59.5 30.5q25 26 36 69.5t18 111.5q2 5 9 5q8 0 8 -5
v-229q0 -8 -7 -8q-72 0 -123 0.5t-88.5 1t-65.5 0.5h-53.5h-53h-63.5h-31.5h-28.5t-35.5 -0.5t-53.5 -0.5q-5 0 -5 8zM482 491q0 1 0.5 3.5t2.5 13.5l31 181q3 13 13 13h57q12 0 12 -9q0 -2 -1 -5t-7 -14l-89 -179q-3 -7 -5 -8.5t-4 -1.5t-6 1t-4 5z" />
    <glyph glyph-name="lcaron" unicode="&#x13e;" horiz-adv-x="260" 
d="M17 719h35.5t33.5 0.5t37.5 1t48.5 1.5q5 0 5 -5v-687q0 -14 14 -14l54 -2q5 0 5 -8t-5 -8q-23 1 -38 1.5t-27 0.5h-23h-25h-25h-22.5t-27 -0.5t-38.5 -1.5q-4 0 -4 8t4 8l53 2q14 0 14 14v659q0 14 -14 14h-55q-5 0 -5 8t5 8zM243 524l31 182q3 13 13 13h57q12 0 12 -9
q0 -3 -1 -5.5t-7 -13.5l-89 -179q-3 -7 -5 -8.5t-4 -1.5t-5.5 1t-3.5 5z" />
    <glyph glyph-name="Ldot" unicode="&#x13f;" horiz-adv-x="672" 
d="M31 7q0 8 5 8l88 2q13 0 13 13v641q0 10 -5 13t-10 3h-83q-5 0 -5 8t5 8q32 0 51.5 -0.5t34.5 -0.5h28h31h30h28t35.5 0.5t53.5 1.5q6 0 6 -8t-6 -8l-82 -2q-6 0 -11 -3t-5 -13v-640q0 -14 14 -14h165q58 0 96.5 7.5t59.5 30.5q25 26 36 69.5t18 111.5q2 5 9 5q8 0 8 -5
v-229q0 -8 -7 -8q-72 0 -123 0.5t-88.5 1t-65.5 0.5h-53.5h-53h-63.5h-31.5h-28.5t-35.5 -0.5t-53.5 -0.5q-5 0 -5 8zM404 320q0 26 17 43.5t45 17.5q27 0 44 -17.5t17 -43.5q0 -28 -17 -45.5t-44 -17.5q-28 0 -45 17.5t-17 45.5z" />
    <glyph glyph-name="ldot" unicode="&#x140;" horiz-adv-x="260" 
d="M17 719h35.5t33.5 0.5t37.5 1t48.5 1.5q5 0 5 -5v-687q0 -14 14 -14l54 -2q5 0 5 -8t-5 -8q-23 1 -38 1.5t-27 0.5h-23h-25h-25h-22.5t-27 -0.5t-38.5 -1.5q-4 0 -4 8t4 8l53 2q14 0 14 14v659q0 14 -14 14h-55q-5 0 -5 8t5 8zM245 352q0 27 17 44t45 17q27 0 44.5 -17
t17.5 -44t-17.5 -45t-44.5 -18q-28 0 -45 18t-17 45z" />
    <glyph glyph-name="Lslash" unicode="&#x141;" horiz-adv-x="672" 
d="M31 7q0 8 5 8l88 2q13 0 13 13v299l-80 -40q-6 -4 -7.5 -4.5t-3.5 -0.5q-3 0 -5 5t-2 7q0 4 7 7l91 46v322q0 10 -5 13t-10 3h-83q-5 0 -5 8t5 8q32 0 51.5 -0.5t34.5 -0.5h28h31h30h28t35.5 0.5t53.5 1.5q6 0 6 -8t-6 -8l-82 -2q-6 0 -11 -3t-5 -13v-273l122 62
q7 3 8.5 3.5t2.5 0.5q3 0 5 -5t2 -7q0 -3 -7 -7l-133 -67v-347q0 -14 14 -14h165q58 0 96.5 7.5t59.5 30.5q25 26 36 69.5t18 111.5q2 5 9 5q8 0 8 -5v-229q0 -8 -7 -8q-72 0 -123 0.5t-88.5 1t-65.5 0.5h-53.5h-53h-63.5h-31.5h-28.5t-35.5 -0.5t-53.5 -0.5q-5 0 -5 8z" />
    <glyph glyph-name="lslash" unicode="&#x142;" horiz-adv-x="263" 
d="M12 322q0 4 7 7l70 35v325q0 14 -14 14h-55q-5 0 -5 8t5 8h35t33.5 0.5t38 1t48.5 1.5q4 0 4 -5v-307l54 27q6 3 7.5 3.5t3.5 0.5q3 0 5 -5t2 -7q0 -3 -7 -7l-65 -32v-360q0 -14 14 -14l55 -2q5 0 5 -8t-5 -8q-23 1 -38 1.5t-27 0.5h-23h-26h-24.5h-22t-27 -0.5
t-38.5 -1.5q-5 0 -5 8t5 8l53 2q14 0 14 14v315l-59 -30q-7 -4 -8.5 -4.5t-2.5 -0.5q-3 0 -5 5t-2 7z" />
    <glyph glyph-name="Nacute" unicode="&#x143;" horiz-adv-x="759" 
d="M36 704q23 -1 38 -1.5t25.5 -0.5h18h15.5h17h19t26.5 0.5t39.5 0.5q3 0 5 -1t6 -6l377 -548h1v524q0 14 -14 14l-80 2q-5 0 -5 8t5 8q25 -1 40.5 -1.5t26.5 -0.5h19h17h17h18.5t25.5 0.5t39 0.5q5 0 5 -7q0 -9 -5 -9l-78 -1q-14 0 -14 -14v-672q0 -10 -9 -10h-5
q-8 0 -14 10l-459 665h-2v-636q0 -14 14 -14l81 -1q5 0 5 -8t-5 -8q-25 1 -41.5 1.5t-27 0.5h-18h-16.5h-17h-18.5t-26 -0.5t-40.5 -0.5q-5 0 -5 8t5 8h80q14 0 14 13v642q0 10 -4.5 12.5t-10.5 2.5l-85 2q-5 0 -5 8q0 9 5 9zM431 949q5 10 16 10h62q11 0 11 -10
q0 -3 -1.5 -6.5t-9.5 -11.5l-142 -167q-5 -4 -8 -4t-6.5 2.5t-3.5 6.5z" />
    <glyph glyph-name="nacute" unicode="&#x144;" horiz-adv-x="580" 
d="M20 14l53 2q16 0 16 26v403q0 16 -16 16h-53q-4 0 -4 8t4 8h76t78 2q4 0 4 -4v-23.5v-26t-0.5 -32.5t-1.5 -42l1 -1q14 40 33 67t42.5 43t50.5 23t57 7q68 0 101.5 -29t33.5 -94v-336q0 -15 16 -15l51 -2q5 0 5 -8t-5 -8q-22 1 -37 1.5t-26 0.5h-21h-23h-25.5h-22.5
t-27.5 -0.5t-39.5 -1.5q-5 0 -5 8t5 8l49 2q15 0 15 22v327q0 52 -19.5 76t-57.5 24q-35 0 -62.5 -18t-46.5 -46t-29 -61.5t-10 -64.5v-240q0 -19 16 -19l52 -2q5 0 5 -8t-5 -8q-25 1 -40.5 1.5t-26.5 0.5h-21h-23h-23h-22t-28.5 -0.5t-42.5 -1.5q-4 0 -4 8t4 8zM337 721
q5 10 16 10h62q11 0 11 -10q0 -3 -1.5 -6.5t-9.5 -11.5l-142 -167q-5 -4 -8 -4t-6.5 2.5t-3.5 6.5z" />
    <glyph glyph-name="uni0145" unicode="&#x145;" horiz-adv-x="759" 
d="M31 695q0 9 5 9q23 -1 38 -1.5t25.5 -0.5h18h15.5h17h19t26.5 0.5t39.5 0.5q3 0 5 -1t6 -6l377 -548h1v524q0 14 -14 14l-80 2q-5 0 -5 8t5 8q25 -1 40.5 -1.5t26.5 -0.5h19h17h17h18.5t25.5 0.5t39 0.5q5 0 5 -7q0 -9 -5 -9l-78 -1q-14 0 -14 -14v-672q0 -10 -9 -10h-5
q-8 0 -14 10l-459 665h-2v-636q0 -14 14 -14l81 -1q5 0 5 -8t-5 -8q-25 1 -41.5 1.5t-27 0.5h-18h-16.5h-17h-18.5t-26 -0.5t-40.5 -0.5q-5 0 -5 8t5 8h80q14 0 14 13v642q0 10 -4.5 12.5t-10.5 2.5l-85 2q-5 0 -5 8zM394 -38q34 0 54 -26.5t20 -69.5q0 -31 -11 -56.5
t-28 -43.5t-38.5 -28t-41.5 -10q-5 0 -5 8q0 3 1 5t7 3q23 3 39.5 13.5t27.5 25.5t16.5 32t5.5 34t-4.5 30t-11.5 21h-2q-2 -12 -12 -20.5t-27 -8.5q-20 0 -31 12.5t-11 31.5q0 22 15 34.5t37 12.5z" />
    <glyph glyph-name="uni0146" unicode="&#x146;" horiz-adv-x="580" 
d="M16 469q0 8 4 8h76t78 2q4 0 4 -4v-23.5v-26t-0.5 -32.5t-1.5 -42l1 -1q14 40 33 67t42.5 43t50.5 23t57 7q68 0 101.5 -29t33.5 -94v-336q0 -15 16 -15l51 -2q5 0 5 -8t-5 -8q-22 1 -37 1.5t-26 0.5h-21h-23h-25.5h-22.5t-27.5 -0.5t-39.5 -1.5q-5 0 -5 8t5 8l49 2
q15 0 15 22v327q0 52 -19.5 76t-57.5 24q-35 0 -62.5 -18t-46.5 -46t-29 -61.5t-10 -64.5v-240q0 -19 16 -19l52 -2q5 0 5 -8t-5 -8q-25 1 -40.5 1.5t-26.5 0.5h-21h-23h-23h-22t-28.5 -0.5t-42.5 -1.5q-4 0 -4 8t4 8l53 2q16 0 16 26v403q0 16 -16 16h-53q-4 0 -4 8z
M298 -38q34 0 54 -26.5t20 -69.5q0 -31 -11 -56.5t-28 -43.5t-38.5 -28t-41.5 -10q-5 0 -5 8q0 3 1 5t7 3q23 3 39.5 13.5t27.5 25.5t16.5 32t5.5 34t-4.5 30t-11.5 21h-2q-2 -12 -12 -20.5t-27 -8.5q-20 0 -31 12.5t-11 31.5q0 22 15 34.5t37 12.5z" />
    <glyph glyph-name="Ncaron" unicode="&#x147;" horiz-adv-x="759" 
d="M385 753q-6 0 -11 8l-119 164q-5 6 -5.5 7.5t-0.5 3.5q0 4 6 4h7q5 0 11 -5l136 -110q4 -4 5.5 -4.5t2.5 -0.5q2 0 3 0.5t5 5.5l90 108q5 6 9 6h5q6 0 6 -4q0 -2 -0.5 -3t-5.5 -7l-121 -166q-6 -7 -12 -7h-11zM42 -1q-5 0 -5 8t5 8h80q14 0 14 13v642q0 10 -4.5 12.5
t-10.5 2.5l-85 2q-5 0 -5 8q0 9 5 9q23 -1 38 -1.5t25.5 -0.5h18h15.5h17h19t26.5 0.5t39.5 0.5q3 0 5 -1t6 -6l377 -548h1v524q0 14 -14 14l-80 2q-5 0 -5 8t5 8q25 -1 40.5 -1.5t26.5 -0.5h19h17h17h18.5t25.5 0.5t39 0.5q5 0 5 -7q0 -9 -5 -9l-78 -1q-14 0 -14 -14v-672
q0 -10 -9 -10h-5q-8 0 -14 10l-459 665h-2v-636q0 -14 14 -14l81 -1q5 0 5 -8t-5 -8q-25 1 -41.5 1.5t-27 0.5h-18h-16.5h-17h-18.5t-26 -0.5t-40.5 -0.5z" />
    <glyph glyph-name="ncaron" unicode="&#x148;" horiz-adv-x="580" 
d="M291 525q-6 0 -11 8l-119 164q-5 6 -5.5 7.5t-0.5 3.5q0 4 6 4h7q5 0 11 -5l136 -110q4 -4 5.5 -4.5t2.5 -0.5q2 0 3 0.5t5 5.5l90 108q5 6 9 6h5q6 0 6 -4q0 -2 -0.5 -3t-5.5 -7l-121 -166q-6 -7 -12 -7h-11zM20 -2q-4 0 -4 8t4 8l53 2q16 0 16 26v403q0 16 -16 16h-53
q-4 0 -4 8t4 8h76t78 2q4 0 4 -4v-23.5v-26t-0.5 -32.5t-1.5 -42l1 -1q14 40 33 67t42.5 43t50.5 23t57 7q68 0 101.5 -29t33.5 -94v-336q0 -15 16 -15l51 -2q5 0 5 -8t-5 -8q-22 1 -37 1.5t-26 0.5h-21h-23h-25.5h-22.5t-27.5 -0.5t-39.5 -1.5q-5 0 -5 8t5 8l49 2
q15 0 15 22v327q0 52 -19.5 76t-57.5 24q-35 0 -62.5 -18t-46.5 -46t-29 -61.5t-10 -64.5v-240q0 -19 16 -19l52 -2q5 0 5 -8t-5 -8q-25 1 -40.5 1.5t-26.5 0.5h-21h-23h-23h-22t-28.5 -0.5t-42.5 -1.5z" />
    <glyph glyph-name="napostrophe" unicode="&#x149;" horiz-adv-x="782" 
d="M217 469q0 8 5 8h75t78 2q5 0 5 -4v-23.5t-0.5 -26t-1 -32.5t-1.5 -42l1 -1q14 40 33.5 67t43 43t50.5 23t57 7q67 0 100.5 -29t33.5 -94v-336q0 -15 16 -15l52 -2q4 0 4 -8t-4 -8q-22 1 -37 1.5t-26 0.5h-21h-24h-25h-23t-27.5 -0.5t-39.5 -1.5q-5 0 -5 8t5 8l49 2
q16 0 16 22v327q0 52 -20 76t-58 24q-35 0 -62.5 -18t-46 -46t-28.5 -61.5t-10 -64.5v-240q0 -19 15 -19l53 -2q4 0 4 -8t-4 -8q-25 1 -40.5 1.5t-27 0.5h-21.5h-23h-23h-22t-28 -0.5t-42 -1.5q-5 0 -5 8t5 8l52 2q16 0 16 26v403q0 16 -16 16h-52q-5 0 -5 8zM112 740
q41 0 63.5 -31.5t22.5 -79.5q0 -18 -4.5 -41t-18.5 -48.5t-38.5 -52t-65.5 -49.5q-8 0 -8 11q54 34 81 77.5t27 86.5q0 14 -4 30t-16 26h-2q-2 -20 -15 -30.5t-33 -10.5q-23 0 -38 14.5t-15 40.5q0 27 18 42t46 15z" />
    <glyph glyph-name="Eng" unicode="&#x14a;" horiz-adv-x="759" 
d="M31 696q0 9 5 9q23 -1 38 -1.5t25.5 -1t18 -0.5h15.5h17h19t26.5 0.5t39.5 0.5q3 0 5 -1t6 -6l377 -548h1v524q0 14 -14 14l-80 2q-5 0 -5 8t5 8q25 -1 40.5 -1.5t26.5 -0.5h19h17h17h18.5t25.5 0.5t39 1.5q5 0 5 -7q0 -9 -5 -9l-78 -2q-14 0 -14 -14v-688
q0 -78 -43.5 -122t-126.5 -44q-36 0 -65.5 8t-51 22.5t-33 33.5t-11.5 41q0 28 16.5 44t40.5 16t39.5 -16t15.5 -40q0 -22 -13.5 -37.5t-37.5 -19.5q17 -17 42.5 -26.5t58.5 -9.5q70 0 108.5 34.5t38.5 91.5q0 17 -5.5 32t-18.5 34l-441 639h-2v-636q0 -14 14 -14l81 -1
q5 0 5 -8t-5 -8q-25 1 -41.5 1.5t-27 0.5h-18h-16.5h-17h-18.5t-26 -0.5t-40.5 -1.5q-5 0 -5 8t5 8l80 1q14 0 14 13v642q0 10 -4.5 12.5t-10.5 2.5l-85 3q-5 0 -5 8z" />
    <glyph glyph-name="eng" unicode="&#x14b;" horiz-adv-x="568" 
d="M16 469q0 8 4 8h76t78 2q4 0 4 -4v-23.5v-26t-0.5 -32.5t-1.5 -42l1 -1q14 40 33 67t42.5 43t50.5 23t57 7q68 0 101.5 -29t33.5 -94v-435q0 -34 -10.5 -58.5t-33 -43t-58.5 -34t-86 -31.5q-2 0 -4 3.5t-2 7.5t5 5q28 10 47 23t30 32.5t16 48.5t5 73v407q0 52 -19.5 76
t-57.5 24q-35 0 -62.5 -18t-46.5 -46t-29 -61.5t-10 -64.5v-240q0 -19 16 -19l52 -2q5 0 5 -8t-5 -8q-25 1 -40.5 1.5t-26.5 0.5h-21h-23h-23h-22t-28.5 -0.5t-42.5 -1.5q-4 0 -4 8t4 8l53 2q16 0 16 26v403q0 16 -16 16h-53q-4 0 -4 8z" />
    <glyph glyph-name="Omacron" unicode="&#x14c;" horiz-adv-x="742" 
d="M372 718q73 0 133 -25.5t103 -72.5t66.5 -114t23.5 -150q0 -84 -23.5 -152.5t-66.5 -117t-103 -75.5t-133 -27t-133.5 25.5t-104 73t-67 114.5t-23.5 150q0 84 23.5 152.5t67 117t104 75t133.5 26.5zM156 354q0 -185 52.5 -269.5t164.5 -84.5q110 0 161.5 82t51.5 265v2
q0 182 -53 267.5t-160 85.5q-112 0 -164.5 -82t-52.5 -265v-1zM234 824q0 5 5 5h270q5 0 5 -5v-32q0 -5 -5 -5h-270q-5 0 -5 5v32z" />
    <glyph glyph-name="omacron" unicode="&#x14d;" horiz-adv-x="517" 
d="M30 240q0 58 16.5 104.5t46.5 78.5t72 49.5t93 17.5t93 -17.5t72.5 -49.5t47 -78.5t16.5 -104.5q0 -59 -16.5 -106t-47 -80t-72.5 -50.5t-93 -17.5t-93 17.5t-72 50.5t-46.5 80t-16.5 106zM260 2q47 0 73 23t38 57.5t14.5 74.5t2.5 74v31q0 36 -2.5 73.5t-14.5 68
t-38 50.5t-74 20q-45 0 -71 -20.5t-39 -52.5t-16.5 -69.5t-3.5 -72.5v-32q0 -35 2.5 -74.5t15.5 -73t39 -55.5t74 -22zM120 599q0 5 5 5h270q5 0 5 -5v-32q0 -5 -5 -5h-270q-5 0 -5 5v32z" />
    <glyph glyph-name="Obreve" unicode="&#x14e;" horiz-adv-x="742" 
d="M44 347q0 84 23.5 152.5t67 117t104 75t133.5 26.5t133 -25.5t103 -72.5t66.5 -114t23.5 -150q0 -84 -23.5 -152.5t-66.5 -117t-103 -75.5t-133 -27t-133.5 25.5t-104 73t-67 114.5t-23.5 150zM156 355v-1q0 -185 52.5 -269.5t164.5 -84.5q110 0 161.5 82t51.5 265v2
q0 182 -53 267.5t-160 85.5q-112 0 -164.5 -82t-52.5 -265zM236 917q0 4 7 4q6 0 7 -4q11 -43 39 -63.5t85 -20.5t85 20.5t39 63.5q1 4 7 4q7 0 7 -4q-4 -75 -37.5 -110t-100.5 -35t-100.5 35t-37.5 110z" />
    <glyph glyph-name="obreve" unicode="&#x14f;" horiz-adv-x="517" 
d="M30 240q0 58 16.5 104.5t46.5 78.5t72 49.5t93 17.5t93 -17.5t72.5 -49.5t47 -78.5t16.5 -104.5q0 -59 -16.5 -106t-47 -80t-72.5 -50.5t-93 -17.5t-93 17.5t-72 50.5t-46.5 80t-16.5 106zM129 259v-32q0 -35 2.5 -74.5t15.5 -73t39 -55.5t74 -22q47 0 73 23t38 57.5
t14.5 74.5t2.5 74v31q0 36 -2.5 73.5t-14.5 68t-38 50.5t-74 20q-45 0 -71 -20.5t-39 -52.5t-16.5 -69.5t-3.5 -72.5zM122 692q0 4 7 4q6 0 7 -4q11 -43 39 -63.5t85 -20.5t85 20.5t39 63.5q1 4 7 4q7 0 7 -4q-4 -75 -37.5 -110t-100.5 -35t-100.5 35t-37.5 110z" />
    <glyph glyph-name="Ohungarumlaut" unicode="&#x150;" horiz-adv-x="742" 
d="M309 760q-3 0 -6.5 2t-3.5 5q0 2 0.5 4.5t3.5 19.5l30 155q2 8 5.5 10.5t10.5 2.5h61q11 0 11 -9q0 -3 -1 -6.5t-9 -16.5l-94 -160q-3 -5 -4.5 -6t-3.5 -1zM432 760q-3 0 -6.5 2.5t-3.5 5.5q0 2 1 4t6 13l74 164q5 10 16 10h63q11 0 11 -10q0 -3 -1.5 -6.5t-9.5 -11.5
l-141 -164l-6 -6t-3 -1zM372 -16q-73 0 -133.5 25.5t-104 73t-67 114.5t-23.5 150q0 84 23.5 152.5t67 117t104 75t133.5 26.5t133 -25.5t103 -72.5t66.5 -114t23.5 -150q0 -84 -23.5 -152.5t-66.5 -117t-103 -75.5t-133 -27zM373 0q110 0 161.5 82t51.5 265v2
q0 182 -53 267.5t-160 85.5q-112 0 -164.5 -82t-52.5 -265v-1q0 -185 52.5 -269.5t164.5 -84.5z" />
    <glyph glyph-name="ohungarumlaut" unicode="&#x151;" horiz-adv-x="517" 
d="M195 535q-3 0 -6.5 2t-3.5 5q0 2 0.5 4.5t3.5 19.5l30 155q2 8 5.5 10.5t10.5 2.5h61q11 0 11 -9q0 -3 -1 -6.5t-9 -16.5l-94 -160q-3 -5 -4.5 -6t-3.5 -1zM318 535q-3 0 -6.5 2.5t-3.5 5.5q0 2 1 4t6 13l74 164q5 10 16 10h63q11 0 11 -10q0 -3 -1.5 -6.5t-9.5 -11.5
l-141 -164l-6 -6t-3 -1zM258 -14q-51 0 -93 17.5t-72 50.5t-46.5 80t-16.5 106q0 58 16.5 104.5t46.5 78.5t72 49.5t93 17.5t93 -17.5t72.5 -49.5t47 -78.5t16.5 -104.5q0 -59 -16.5 -106t-47 -80t-72.5 -50.5t-93 -17.5zM260 2q47 0 73 23t38 57.5t14.5 74.5t2.5 74v31
q0 36 -2.5 73.5t-14.5 68t-38 50.5t-74 20q-45 0 -71 -20.5t-39 -52.5t-16.5 -69.5t-3.5 -72.5v-32q0 -35 2.5 -74.5t15.5 -73t39 -55.5t74 -22z" />
    <glyph glyph-name="OE" unicode="&#x152;" horiz-adv-x="1084" 
d="M44 347q0 86 24 154.5t68.5 116t108.5 73t144 25.5q28 0 53 -1.5t52 -5.5q28 -4 50 -5.5t44 -1.5h88h77t98 0.5t151 1.5q6 0 6 -6v-185q0 -5 -8 -5t-8 5q0 54 -8.5 88t-29.5 52.5t-56 25.5t-88 7h-161q-5 0 -10 -3.5t-5 -12.5v-294q0 -6 6 -6h45q58 0 91 4.5t47 25.5
q11 14 13.5 37t2.5 62q0 5 8 5t8 -5q-1 -45 -1 -75v-62v-64.5t1 -77.5q0 -5 -8 -5t-8 5q0 50 -6 77t-22.5 39.5t-46.5 15t-79 2.5h-45q-6 0 -6 -6v-316q0 -16 15 -16h173q60 0 100 9t63 31.5t32.5 62t9.5 99.5q0 4 8 4t8 -4l-3 -214q0 -6 -5 -6q-68 0 -116.5 0.5t-85 1
t-64.5 0.5h-53.5h-53h-63.5q-17 0 -30.5 -0.5t-26.5 -1t-26.5 -2t-29.5 -3.5q-29 -4 -50.5 -5.5t-47.5 -1.5q-80 0 -143.5 25t-108 72t-68.5 114t-24 150zM391 2q12 0 36.5 2.5t48.5 8.5t42.5 16.5t18.5 27.5v579q0 22 -17 34.5t-40.5 19t-48 8.5t-40.5 2
q-71 0 -116.5 -26.5t-72 -72.5t-36.5 -109t-10 -137v-1q0 -75 10 -139.5t36 -111.5t71.5 -74t117.5 -27z" />
    <glyph glyph-name="oe" unicode="&#x153;" horiz-adv-x="876" 
d="M30 240q0 56 16.5 102t47 79t73.5 51t95 18q62 0 107.5 -25t73.5 -70q27 46 73.5 71.5t111.5 25.5q100 0 158.5 -57.5t60.5 -157.5q0 -6 -5 -6h-340q-6 0 -6 -6v-47q0 -105 41 -157t118 -52q33 0 57.5 9.5t43.5 26.5t34 40.5t28 50.5q2 3 5 3q10 0 10 -8
q-24 -68 -74 -105.5t-130 -37.5q-63 0 -110 25t-74 72q-28 -47 -74 -73t-109 -26q-52 0 -95 18.5t-73.5 51.5t-47 80t-16.5 104zM264 2q48 0 75 22.5t39.5 56.5t15 74t2.5 76v31q0 38 -2 75.5t-14.5 68t-39.5 49.5t-77 19q-47 0 -73.5 -20t-40 -51.5t-17 -69.5t-3.5 -74v-32
q0 -37 2.5 -76.5t15.5 -72.5t40.5 -54.5t76.5 -21.5zM498 293q0 -6 6 -6h238q5 0 5 6v5q0 38 -7 70.5t-22 56.5t-39 37.5t-58 13.5q-37 0 -61 -16t-37.5 -41.5t-19 -57t-5.5 -63.5v-5z" />
    <glyph glyph-name="Racute" unicode="&#x154;" horiz-adv-x="672" 
d="M36 15l88 2q13 0 13 14v641q0 14 -13 14l-84 1q-6 0 -6 8t6 8q26 0 46 -0.5t36.5 -0.5h32h33.5h168q91 0 139.5 -41t48.5 -117q0 -69 -42.5 -112.5t-130.5 -59.5v-1q102 -5 147 -40.5t52 -106.5l15 -148q4 -37 21 -51.5t59 -14.5h14.5t17.5 1q6 0 6 -8t-10 -9t-23.5 -1.5
l-27 -1t-26.5 -0.5h-23q-61 0 -88 23t-30 80l-7 125q-4 72 -37 106t-102 34h-90q-5 0 -5 -5v-322q0 -16 15 -16l80 -1q5 0 5 -9q0 -8 -5 -8q-29 1 -49.5 1.5t-36.5 0.5h-29.5h-27.5h-28.5h-32t-39 -0.5t-50.5 -0.5q-5 0 -5 8t5 8zM233 381q0 -6 6 -6h55q77 0 111 35t34 125
v3q0 74 -29.5 111t-83.5 37h-48t-33 -1q-12 0 -12 -13v-291zM360 949q5 10 16 10h62q11 0 11 -10q0 -3 -1.5 -6.5t-9.5 -11.5l-142 -167q-5 -4 -8 -4t-6.5 2.5t-3.5 6.5z" />
    <glyph glyph-name="racute" unicode="&#x155;" horiz-adv-x="419" 
d="M20 477h73.5t83.5 2q3 0 3 -3v-59t-1 -61h1q12 43 27.5 68.5t32.5 39.5t34.5 18.5t33.5 4.5q45 0 69 -22.5t24 -65.5q0 -56 -43 -56q-21 0 -33 13.5t-12 36.5q0 11 2 21t2 18q0 14 -8 22.5t-24 8.5q-19 0 -35.5 -13.5t-30 -36t-23 -51.5t-14.5 -61v-259q0 -26 16 -26
l63 -2q5 0 5 -8t-5 -8q-25 1 -41 1.5t-28 0.5h-23h-28h-30.5h-24.5t-26.5 -0.5t-35.5 -1.5q-5 0 -5 8t5 8l52 2q16 0 16 26v403q0 16 -16 16h-56q-4 0 -4 8t4 8zM176 541l82 180q5 10 16 10h62q11 0 11 -10q0 -3 -1.5 -6.5t-9.5 -11.5l-142 -167q-5 -4 -8 -4t-6.5 2.5
t-3.5 6.5z" />
    <glyph glyph-name="uni0156" unicode="&#x156;" horiz-adv-x="672" 
d="M36 15l88 2q13 0 13 14v641q0 14 -13 14l-84 1q-6 0 -6 8t6 8q26 0 46 -0.5t36.5 -0.5h32h33.5h168q91 0 139.5 -41t48.5 -117q0 -69 -42.5 -112.5t-130.5 -59.5v-1q102 -5 147 -40.5t52 -106.5l15 -148q4 -37 21 -51.5t59 -14.5h14.5t17.5 1q6 0 6 -8t-10 -9t-23.5 -1.5
l-27 -1t-26.5 -0.5h-23q-61 0 -88 23t-30 80l-7 125q-4 72 -37 106t-102 34h-90q-5 0 -5 -5v-322q0 -16 15 -16l80 -1q5 0 5 -9q0 -8 -5 -8q-29 1 -49.5 1.5t-36.5 0.5h-29.5h-27.5h-28.5h-32t-39 -0.5t-50.5 -0.5q-5 0 -5 8t5 8zM239 375h55q77 0 111 35t34 125v3
q0 74 -29.5 111t-83.5 37h-48t-33 -1q-12 0 -12 -13v-291q0 -6 6 -6zM368 -38q34 0 54 -26.5t20 -69.5q0 -31 -11 -56.5t-28 -43.5t-38.5 -28t-41.5 -10q-5 0 -5 8q0 3 1 5t7 3q23 3 39.5 13.5t27.5 25.5t16.5 32t5.5 34t-4.5 30t-11.5 21h-2q-2 -12 -12 -20.5t-27 -8.5
q-20 0 -31 12.5t-11 31.5q0 22 15 34.5t37 12.5z" />
    <glyph glyph-name="uni0157" unicode="&#x157;" horiz-adv-x="419" 
d="M16 469q0 8 4 8h73.5t83.5 2q3 0 3 -3v-59t-1 -61h1q12 43 27.5 68.5t32.5 39.5t34.5 18.5t33.5 4.5q45 0 69 -22.5t24 -65.5q0 -56 -43 -56q-21 0 -33 13.5t-12 36.5q0 11 2 21t2 18q0 14 -8 22.5t-24 8.5q-19 0 -35.5 -13.5t-30 -36t-23 -51.5t-14.5 -61v-259
q0 -26 16 -26l63 -2q5 0 5 -8t-5 -8q-25 1 -41 1.5t-28 0.5h-23h-28h-30.5h-24.5t-26.5 -0.5t-35.5 -1.5q-5 0 -5 8t5 8l52 2q16 0 16 26v403q0 16 -16 16h-56q-4 0 -4 8zM135 -38q34 0 54 -26.5t20 -69.5q0 -31 -11 -56.5t-28 -43.5t-38.5 -28t-41.5 -10q-5 0 -5 8q0 3 1 5
t7 3q23 3 39.5 13.5t27.5 25.5t16.5 32t5.5 34t-4.5 30t-11.5 21h-2q-2 -12 -12 -20.5t-27 -8.5q-20 0 -31 12.5t-11 31.5q0 22 15 34.5t37 12.5z" />
    <glyph glyph-name="Rcaron" unicode="&#x158;" horiz-adv-x="672" 
d="M314 753q-6 0 -11 8l-119 164q-5 6 -5.5 7.5t-0.5 3.5q0 4 6 4h7q5 0 11 -5l136 -110q4 -4 5.5 -4.5t2.5 -0.5q2 0 3 0.5t5 5.5l90 108q5 6 9 6h5q6 0 6 -4q0 -2 -0.5 -3t-5.5 -7l-121 -166q-6 -7 -12 -7h-11zM593 -9q-61 0 -88 23t-30 80l-7 125q-4 72 -37 106t-102 34
h-90q-5 0 -5 -5v-322q0 -16 15 -16l80 -1q5 0 5 -9q0 -8 -5 -8q-29 1 -49.5 1.5t-36.5 0.5h-29.5h-27.5h-28.5h-32t-39 -0.5t-50.5 -0.5q-5 0 -5 8t5 8l88 2q13 0 13 14v641q0 14 -13 14l-84 1q-6 0 -6 8t6 8q26 0 46 -0.5t36.5 -0.5h32h33.5h168q91 0 139.5 -41t48.5 -117
q0 -69 -42.5 -112.5t-130.5 -59.5v-1q102 -5 147 -40.5t52 -106.5l15 -148q4 -37 21 -51.5t59 -14.5h14.5t17.5 1q6 0 6 -8t-10 -9t-23.5 -1.5l-27 -1t-26.5 -0.5h-23zM294 375q77 0 111 35t34 125v3q0 74 -29.5 111t-83.5 37h-48t-33 -1q-12 0 -12 -13v-291q0 -6 6 -6h55z
" />
    <glyph glyph-name="rcaron" unicode="&#x159;" horiz-adv-x="419" 
d="M212 525q-6 0 -11 8l-119 164q-5 6 -5.5 7.5t-0.5 3.5q0 4 6 4h7q5 0 11 -5l136 -110q4 -4 5.5 -4.5t2.5 -0.5q2 0 3 0.5t5 5.5l90 108q5 6 9 6h5q6 0 6 -4q0 -2 -0.5 -3t-5.5 -7l-121 -166q-6 -7 -12 -7h-11zM24 -2q-5 0 -5 8t5 8l52 2q16 0 16 26v403q0 16 -16 16h-56
q-4 0 -4 8t4 8h73.5t83.5 2q3 0 3 -3v-59t-1 -61h1q12 43 27.5 68.5t32.5 39.5t34.5 18.5t33.5 4.5q45 0 69 -22.5t24 -65.5q0 -56 -43 -56q-21 0 -33 13.5t-12 36.5q0 11 2 21t2 18q0 14 -8 22.5t-24 8.5q-19 0 -35.5 -13.5t-30 -36t-23 -51.5t-14.5 -61v-259q0 -26 16 -26
l63 -2q5 0 5 -8t-5 -8q-25 1 -41 1.5t-28 0.5h-23h-28h-30.5h-24.5t-26.5 -0.5t-35.5 -1.5z" />
    <glyph glyph-name="Sacute" unicode="&#x15a;" horiz-adv-x="529" 
d="M42 260q8 0 9 -8q8 -48 21 -92.5t37.5 -79t62.5 -55.5t95 -21q81 0 123.5 40.5t42.5 105.5q0 29 -10 52t-31 43.5t-54 39.5t-79 40q-40 18 -74.5 37.5t-59.5 44t-39 55.5t-14 71t13.5 73.5t39.5 58t64 38t86 13.5q37 0 81 -8t86 -26q9 -5 10 -13l3 -153q0 -6 -8 -6t-9 7
q-6 36 -17.5 68.5t-31.5 58t-49 40.5t-70 15q-62 0 -97.5 -31.5t-35.5 -85.5q0 -28 11 -50t32 -40.5t51 -34.5t68 -33q43 -19 79.5 -39.5t63 -47t41.5 -59.5t15 -76q0 -45 -14.5 -84t-44 -68t-74.5 -45.5t-107 -16.5q-45 0 -101 10.5t-109 31.5q-6 3 -7.5 5t-2.5 8l-4 211
q0 6 8 6zM217 769l82 180q5 10 16 10h62q11 0 11 -10q0 -3 -1.5 -6.5t-9.5 -11.5l-142 -167q-5 -4 -8 -4t-6.5 2.5t-3.5 6.5z" />
    <glyph glyph-name="sacute" unicode="&#x15b;" horiz-adv-x="409" 
d="M35 169q0 6 8 6t9 -8q6 -36 17 -67t29.5 -53.5t47 -35.5t69.5 -13q55 0 89 26t34 71q0 33 -19.5 53t-64.5 37l-68 25q-61 23 -93 55.5t-32 89.5q0 66 41.5 102t113.5 36q29 0 59.5 -5t63.5 -22q7 -3 7 -11v-108q0 -5 -9 -5q-7 0 -9 7q-6 27 -15 50t-24 40.5t-36.5 27
t-51.5 9.5q-42 0 -65.5 -21t-23.5 -56q0 -29 18.5 -50t63.5 -38l52 -19q71 -28 104 -61.5t33 -87.5q0 -74 -47.5 -118t-131.5 -44q-35 0 -79 9.5t-86 29.5q-5 3 -5 8zM162 545l82 180q5 10 16 10h62q11 0 11 -10q0 -3 -1.5 -6.5t-9.5 -11.5l-142 -167q-5 -4 -8 -4t-6.5 2.5
t-3.5 6.5z" />
    <glyph glyph-name="Scircumflex" unicode="&#x15c;" horiz-adv-x="529" 
d="M273 942q5 0 6.5 -1.5t5.5 -6.5l118 -164q5 -6 6 -7.5t1 -3.5q0 -4 -6 -4h-8q-3 0 -4.5 0.5t-6.5 4.5l-135 110q-5 4 -6 4.5t-3 0.5q-1 0 -2.5 -0.5t-5.5 -5.5l-89 -108q-5 -6 -9 -6h-6q-5 0 -5 4v3t5 7l121 166q4 5 6 6t6 1h11zM258 -12q-45 0 -101 10.5t-109 31.5
q-6 3 -7.5 5t-2.5 8l-4 211q0 6 8 6t9 -8q8 -48 21 -92.5t37.5 -79t62.5 -55.5t95 -21q81 0 123.5 40.5t42.5 105.5q0 29 -10 52t-31 43.5t-54 39.5t-79 40q-40 18 -74.5 37.5t-59.5 44t-39 55.5t-14 71t13.5 73.5t39.5 58t64 38t86 13.5q37 0 81 -8t86 -26q9 -5 10 -13
l3 -153q0 -6 -8 -6t-9 7q-6 36 -17.5 68.5t-31.5 58t-49 40.5t-70 15q-62 0 -97.5 -31.5t-35.5 -85.5q0 -28 11 -50t32 -40.5t51 -34.5t68 -33q43 -19 79.5 -39.5t63 -47t41.5 -59.5t15 -76q0 -45 -14.5 -84t-44 -68t-74.5 -45.5t-107 -16.5z" />
    <glyph glyph-name="scircumflex" unicode="&#x15d;" horiz-adv-x="409" 
d="M218 718q5 0 6.5 -1.5t5.5 -6.5l118 -164q5 -6 6 -7.5t1 -3.5q0 -4 -6 -4h-8q-3 0 -4.5 0.5t-6.5 4.5l-135 110q-5 4 -6 4.5t-3 0.5q-1 0 -2.5 -0.5t-5.5 -5.5l-89 -108q-5 -6 -9 -6h-6q-5 0 -5 4v3t5 7l121 166q4 5 6 6t6 1h11zM204 -19q-35 0 -79 9.5t-86 29.5
q-5 3 -5 8l1 141q0 6 8 6t9 -8q6 -36 17 -67t29.5 -53.5t47 -35.5t69.5 -13q55 0 89 26t34 71q0 33 -19.5 53t-64.5 37l-68 25q-61 23 -93 55.5t-32 89.5q0 66 41.5 102t113.5 36q29 0 59 -6.5t64 -20.5q7 -3 7 -11v-108q0 -5 -9 -5q-7 0 -9 7q-6 27 -15 50t-24 40.5
t-36.5 27t-51.5 9.5q-42 0 -65.5 -21t-23.5 -56q0 -29 18.5 -50t63.5 -38l52 -19q71 -28 104 -61.5t33 -87.5q0 -74 -47.5 -118t-131.5 -44z" />
    <glyph glyph-name="Scedilla" unicode="&#x15e;" horiz-adv-x="529" 
d="M42 260q8 0 9 -8q8 -48 21 -92.5t37.5 -79t62.5 -55.5t95 -21q81 0 123.5 40.5t42.5 105.5q0 29 -10 52t-31 43.5t-54 39.5t-79 40q-40 18 -74.5 37.5t-59.5 44t-39 55.5t-14 71t13.5 73.5t39.5 58t64 38t86 13.5q37 0 81 -8t86 -26q9 -5 10 -13l3 -153q0 -6 -8 -6t-9 7
q-6 36 -17.5 68.5t-31.5 58t-49 40.5t-70 15q-62 0 -97.5 -31.5t-35.5 -85.5q0 -28 11 -50t32 -40.5t51 -34.5t68 -33q43 -19 79.5 -39.5t63 -47t41.5 -59.5t15 -76q0 -44 -13.5 -82t-41.5 -67t-71 -46t-102 -19v-58q30 -8 46 -32.5t16 -55.5q0 -21 -8.5 -42.5t-25 -39
t-41.5 -28t-59 -10.5q-5 0 -5 8t5 8q27 0 46.5 8t32.5 21t19.5 28t6.5 30q0 16 -7.5 28.5t-22.5 17.5l-2 -1q-4 -14 -15.5 -23t-30.5 -9q-20 0 -32 13t-12 32q0 20 15.5 35.5t46.5 15.5q7 0 11 -1v55q-45 1 -100 11.5t-106 30.5q-6 3 -7.5 5t-2.5 8l-4 211q0 6 8 6z" />
    <glyph glyph-name="scedilla" unicode="&#x15f;" horiz-adv-x="409" 
d="M35 169q0 6 8 6t9 -8q6 -36 17 -67t29.5 -53.5t47 -35.5t69.5 -13q55 0 89 26t34 71q0 33 -19.5 53t-64.5 37l-68 25q-61 23 -93 55.5t-32 89.5q0 66 41.5 102t113.5 36q29 0 59.5 -5t63.5 -22q7 -3 7 -11v-108q0 -5 -9 -5q-7 0 -9 7q-6 27 -15 50t-24 40.5t-36.5 27
t-51.5 9.5q-42 0 -65.5 -21t-23.5 -56q0 -29 18.5 -50t63.5 -38l52 -19q71 -28 104 -61.5t33 -87.5q0 -72 -45 -115.5t-123 -46.5v-57q30 -8 46 -32.5t16 -55.5q0 -21 -8.5 -42.5t-25 -39t-41.5 -28t-59 -10.5q-5 0 -5 8t5 8q27 0 46.5 8t32.5 21t19.5 28t6.5 30
q0 16 -7.5 28.5t-22.5 17.5l-2 -1q-4 -14 -15.5 -23t-30.5 -9q-20 0 -32 13t-12 32q0 20 15.5 35.5t46.5 15.5q7 0 11 -1v54q-35 1 -77.5 10t-82.5 29q-5 3 -5 8z" />
    <glyph glyph-name="Scaron" unicode="&#x160;" horiz-adv-x="529" 
d="M253 753q-6 0 -11 8l-119 164q-5 6 -5.5 7.5t-0.5 3.5q0 4 6 4h7q5 0 11 -5l136 -110q4 -4 5.5 -4.5t2.5 -0.5q2 0 3 0.5t5 5.5l90 108q5 6 9 6h5q6 0 6 -4q0 -2 -0.5 -3t-5.5 -7l-121 -166q-6 -7 -12 -7h-11zM258 -12q-45 0 -101 10.5t-109 31.5q-6 3 -7.5 5t-2.5 8
l-4 211q0 6 8 6t9 -8q8 -48 21 -92.5t37.5 -79t62.5 -55.5t95 -21q81 0 123.5 40.5t42.5 105.5q0 29 -10 52t-31 43.5t-54 39.5t-79 40q-40 18 -74.5 37.5t-59.5 44t-39 55.5t-14 71t13.5 73.5t39.5 58t64 38t86 13.5q37 0 81 -8t86 -26q9 -5 10 -13l3 -153q0 -6 -8 -6t-9 7
q-6 36 -17.5 68.5t-31.5 58t-49 40.5t-70 15q-62 0 -97.5 -31.5t-35.5 -85.5q0 -28 11 -50t32 -40.5t51 -34.5t68 -33q43 -19 79.5 -39.5t63 -47t41.5 -59.5t15 -76q0 -45 -14.5 -84t-44 -68t-74.5 -45.5t-107 -16.5z" />
    <glyph glyph-name="scaron" unicode="&#x161;" horiz-adv-x="409" 
d="M198 529q-6 0 -11 8l-119 164q-5 6 -5.5 7.5t-0.5 3.5q0 4 6 4h7q5 0 11 -5l136 -110q4 -4 5.5 -4.5t2.5 -0.5q2 0 3 0.5t5 5.5l90 108q5 6 9 6h5q6 0 6 -4q0 -2 -0.5 -3t-5.5 -7l-121 -166q-6 -7 -12 -7h-11zM204 -19q-35 0 -79 9.5t-86 29.5q-5 3 -5 8l1 141q0 6 8 6
t9 -8q6 -36 17 -67t29.5 -53.5t47 -35.5t69.5 -13q55 0 89 26t34 71q0 33 -19.5 53t-64.5 37l-68 25q-61 23 -93 55.5t-32 89.5q0 66 41.5 102t113.5 36q29 0 59 -6.5t64 -20.5q7 -3 7 -11v-108q0 -5 -9 -5q-7 0 -9 7q-6 27 -15 50t-24 40.5t-36.5 27t-51.5 9.5
q-42 0 -65.5 -21t-23.5 -56q0 -29 18.5 -50t63.5 -38l52 -19q71 -28 104 -61.5t33 -87.5q0 -74 -47.5 -118t-131.5 -44z" />
    <glyph glyph-name="uni0162" unicode="&#x162;" horiz-adv-x="634" 
d="M13 495v202q0 7 8 7q53 -1 92.5 -1.5t72.5 -0.5h64h67h67h64t72.5 0.5t93.5 1.5q7 0 7 -8v-198q0 -5 -8 -5t-8 5q-7 59 -16.5 91t-26.5 55q-18 25 -48.5 33t-78.5 8h-56q-13 0 -13 -13v-640q0 -16 15 -16l87 -2q6 0 6 -8t-6 -8q-45 2 -78 2h-67v-58q30 -8 46 -32.5
t16 -55.5q0 -21 -8.5 -42.5t-25 -39t-41.5 -28t-59 -10.5q-5 0 -5 8t5 8q27 0 46.5 8t32.5 21t19.5 28t6.5 30q0 16 -7.5 28.5t-22.5 17.5l-2 -1q-4 -14 -15.5 -23t-30.5 -9q-20 0 -32 13t-12 32q0 20 15.5 35.5t46.5 15.5q7 0 11 -1v55h-29.5t-31 -0.5t-36.5 -1t-47 -1.5
q-5 0 -5 9q0 7 5 7l93 3q13 0 13 13v643q0 14 -13 14h-54q-53 0 -84.5 -12t-49.5 -35.5t-25.5 -59.5t-12.5 -84q-2 -5 -8 -5q-9 0 -9 5z" />
    <glyph glyph-name="uni0163" unicode="&#x163;" horiz-adv-x="356" 
d="M17 477h82q6 0 6 6v102q0 3 3 3h84q4 0 4 -3v-102q0 -6 5 -6h111q4 0 4 -8t-4 -8h-112q-5 0 -5 -6v-382q0 -27 12.5 -45t43.5 -18q20 0 39.5 9t42.5 31q4 0 7.5 -2.5t3.5 -8.5q-27 -29 -57.5 -40.5t-68.5 -11.5h-6v-49q30 -8 46 -32.5t16 -55.5q0 -21 -8.5 -42.5t-25 -39
t-41.5 -28t-59 -10.5q-5 0 -5 8t5 8q27 0 46.5 8t32.5 21t19.5 28t6.5 30q0 16 -7.5 28.5t-22.5 17.5l-2 -1q-4 -14 -15.5 -23t-30.5 -9q-20 0 -32 13t-12 32q0 20 15.5 35.5t46.5 15.5q7 0 11 -1v47q-91 7 -91 88v379q0 6 -6 6h-82q-5 0 -5 8t5 8z" />
    <glyph glyph-name="Tcaron" unicode="&#x164;" horiz-adv-x="634" 
d="M306 753q-6 0 -11 8l-119 164q-5 6 -5.5 7.5t-0.5 3.5q0 4 6 4h7q5 0 11 -5l136 -110q4 -4 5.5 -4.5t2.5 -0.5q2 0 3 0.5t5 5.5l90 108q5 6 9 6h5q6 0 6 -4q0 -2 -0.5 -3t-5.5 -7l-121 -166q-6 -7 -12 -7h-11zM163 -3q-5 0 -5 9q0 7 5 7l93 3q13 0 13 13v643q0 14 -13 14
h-54q-53 0 -84.5 -12t-49.5 -35.5t-25.5 -59.5t-12.5 -84q-2 -5 -8 -5q-9 0 -9 5v202q0 7 8 7q53 -1 92.5 -1.5t72.5 -0.5h64h67h67h64t72.5 0.5t93.5 1.5q7 0 7 -8v-198q0 -5 -8 -5t-8 5q-7 59 -17 91t-26 55q-17 25 -48 33t-79 8h-56q-13 0 -13 -13v-640q0 -16 15 -16
l87 -2q6 0 6 -8t-6 -8q-47 2 -81.5 2h-69.5h-32.5t-33 -0.5t-38.5 -1t-50 -1.5z" />
    <glyph glyph-name="tcaron" unicode="&#x165;" horiz-adv-x="372" 
d="M12 469q0 8 5 8h82q6 0 6 6v102q0 3 3 3h84q4 0 4 -3v-102q0 -6 5 -6h111q4 0 4 -8t-4 -8h-112q-5 0 -5 -6v-382q0 -27 12.5 -45t43.5 -18q20 0 39.5 9t42.5 31q4 0 7.5 -2.5t3.5 -8.5q-27 -29 -57.5 -40.5t-68.5 -11.5q-113 0 -113 89v379q0 6 -6 6h-82q-5 0 -5 8z
M237 543l31 181q3 13 13 13h57q12 0 12 -9q0 -2 -1 -5t-6 -14l-89 -179q-4 -7 -5.5 -8.5t-3.5 -1.5q-3 0 -6.5 1.5t-3.5 4.5z" />
    <glyph glyph-name="Tbar" unicode="&#x166;" horiz-adv-x="634" 
d="M13 697q0 7 8 7q53 -1 92.5 -1.5t72.5 -0.5h64h67h67h64t72.5 0.5t93.5 1.5q7 0 7 -8v-216q0 -5 -8 -5t-8 5q-7 67 -16.5 104t-26.5 60q-18 25 -48.5 33t-78.5 8h-56q-13 0 -13 -13v-286q0 -9 3 -12t12 -3h124q6 0 6 -8t-6 -8h-124q-9 0 -12 -3.5t-3 -12.5v-307
q0 -16 15 -16l87 -2q6 0 6 -8t-6 -8q-47 2 -81.5 2h-69.5h-32.5t-33 -0.5t-38.5 -1t-50 -1.5q-5 0 -5 9q0 7 5 7l93 3q13 0 13 13v310q0 16 -16 16h-124q-5 0 -5 8t5 8h124q9 0 12.5 3t3.5 12v286q0 14 -13 14h-54q-48 0 -78 -8t-49 -31q-10 -12 -17 -27t-12.5 -34.5t-9 -46
t-6.5 -62.5q-1 -5 -8 -5q-9 0 -9 5v220z" />
    <glyph glyph-name="tbar" unicode="&#x167;" horiz-adv-x="357" 
d="M12 469q0 8 5 8h82q6 0 6 6v102q0 3 3 3h84q4 0 4 -3v-102q0 -6 5 -6h111q5 0 5 -8t-5 -8h-111q-5 0 -5 -6v-150q0 -6 5 -6h111q5 0 5 -9q0 -8 -5 -8h-111q-5 0 -5 -6v-203q0 -27 12 -45t44 -18q20 0 39 9t42 31q4 0 7.5 -2.5t3.5 -8.5q-27 -29 -57.5 -40.5t-68.5 -11.5
q-113 0 -113 89v200q0 6 -6 6h-82q-5 0 -5 8q0 9 5 9h82q6 0 6 6v150q0 6 -6 6h-82q-5 0 -5 8z" />
    <glyph glyph-name="Utilde" unicode="&#x168;" horiz-adv-x="783" 
d="M35 696q0 7 5 7q34 0 55 -0.5t36 -0.5h27h28h29.5h28t38.5 0.5t60 1.5q6 0 6 -8t-6 -8l-95 -1q-6 0 -10 -3t-4 -12v-506q0 -43 10.5 -72.5t33 -48t59.5 -26.5t89 -8q109 0 159 41t50 136v484q0 9 -4 11.5t-10 2.5l-81 2q-5 0 -5 8t5 8q25 -1 41 -1.5t27 -0.5h19h18h18.5
h19t25.5 0.5t38 0.5q6 0 6 -7q0 -9 -6 -9l-79 -1q-7 0 -11 -2.5t-4 -11.5v-482q0 -54 -14 -92t-44.5 -62t-79 -35t-116.5 -11q-132 0 -196 38.5t-64 122.5v521q0 9 -3.5 11.5t-10.5 3.5h-83q-5 0 -5 9zM241 775q0 65 27 98t70 33q31 0 55 -13t41 -27q19 -14 38 -24.5
t42 -10.5q29 0 44.5 18.5t17.5 51.5q1 4 8 4t7 -4q0 -65 -27 -98t-70 -33q-31 0 -54.5 13t-41.5 27q-19 14 -38 24.5t-42 10.5q-29 0 -44.5 -18.5t-17.5 -51.5q-1 -4 -8 -4t-7 4z" />
    <glyph glyph-name="utilde" unicode="&#x169;" horiz-adv-x="570" 
d="M16 477h74t81 2q4 0 4 -4v-377q0 -43 18 -65t58 -22q21 0 44.5 10.5t44.5 33t36.5 58t20.5 84.5v244q0 20 -19 20h-50q-5 0 -5 8t5 8h76.5t78.5 2q5 0 5 -4v-440q0 -19 15 -19h49q5 0 5 -7q0 -9 -5 -9h-34.5t-32 -0.5t-36.5 -1t-48 -1.5q-4 0 -4 4q0 29 0.5 61.5
t2.5 67.5l-1 1q-26 -80 -72.5 -112t-112.5 -32q-129 0 -129 109v349q0 16 -16 16h-53q-5 0 -5 8t5 8zM104 550q0 65 27 98t70 33q31 0 55 -13t41 -27q19 -14 38 -24.5t42 -10.5q29 0 44.5 18.5t17.5 51.5q1 4 8 4t7 -4q0 -65 -27 -98t-70 -33q-31 0 -54.5 13t-41.5 27
q-19 14 -38 24.5t-42 10.5q-29 0 -44.5 -18.5t-17.5 -51.5q-1 -4 -8 -4t-7 4z" />
    <glyph glyph-name="Umacron" unicode="&#x16a;" horiz-adv-x="783" 
d="M40 703q34 0 55 -0.5t36 -0.5h27h28h29.5h28t38.5 0.5t60 1.5q6 0 6 -8t-6 -8l-95 -1q-6 0 -10 -3t-4 -12v-506q0 -43 10.5 -72.5t33 -48t59.5 -26.5t89 -8q109 0 159 41t50 136v484q0 9 -4 11.5t-10 2.5l-81 2q-5 0 -5 8t5 8q25 -1 41 -1.5t27 -0.5h19h18h18.5h19
t25.5 0.5t38 0.5q6 0 6 -7q0 -9 -6 -9l-79 -1q-7 0 -11 -2.5t-4 -11.5v-482q0 -54 -14 -92t-44.5 -62t-79 -35t-116.5 -11q-132 0 -196 38.5t-64 122.5v521q0 9 -3.5 11.5t-10.5 3.5h-83q-5 0 -5 9q0 7 5 7zM276 824q0 5 5 5h270q5 0 5 -5v-32q0 -5 -5 -5h-270q-5 0 -5 5v32
z" />
    <glyph glyph-name="umacron" unicode="&#x16b;" horiz-adv-x="570" 
d="M16 477h74t81 2q4 0 4 -4v-377q0 -43 18 -65t58 -22q21 0 44.5 10.5t44.5 33t36.5 58t20.5 84.5v244q0 20 -19 20h-50q-5 0 -5 8t5 8h76.5t78.5 2q5 0 5 -4v-440q0 -19 15 -19h49q5 0 5 -7q0 -9 -5 -9h-34.5t-32 -0.5t-36.5 -1t-48 -1.5q-4 0 -4 4q0 29 0.5 61.5
t2.5 67.5l-1 1q-26 -80 -72.5 -112t-112.5 -32q-129 0 -129 109v349q0 16 -16 16h-53q-5 0 -5 8t5 8zM139 599q0 5 5 5h270q5 0 5 -5v-32q0 -5 -5 -5h-270q-5 0 -5 5v32z" />
    <glyph glyph-name="Ubreve" unicode="&#x16c;" horiz-adv-x="783" 
d="M40 703q34 0 55 -0.5t36 -0.5h27h28h29.5h28t38.5 0.5t60 1.5q6 0 6 -8t-6 -8l-95 -1q-6 0 -10 -3t-4 -12v-506q0 -43 10.5 -72.5t33 -48t59.5 -26.5t89 -8q109 0 159 41t50 136v484q0 9 -4 11.5t-10 2.5l-81 2q-5 0 -5 8t5 8q25 -1 41 -1.5t27 -0.5h19h18h18.5h19
t25.5 0.5t38 0.5q6 0 6 -7q0 -9 -6 -9l-79 -1q-7 0 -11 -2.5t-4 -11.5v-482q0 -54 -14 -92t-44.5 -62t-79 -35t-116.5 -11q-132 0 -196 38.5t-64 122.5v521q0 9 -3.5 11.5t-10.5 3.5h-83q-5 0 -5 9q0 7 5 7zM278 917q0 4 7 4q6 0 7 -4q11 -43 39 -63.5t85 -20.5t85 20.5
t39 63.5q1 4 7 4q7 0 7 -4q-4 -75 -37.5 -110t-100.5 -35t-100.5 35t-37.5 110z" />
    <glyph glyph-name="ubreve" unicode="&#x16d;" horiz-adv-x="570" 
d="M16 477h74t81 2q4 0 4 -4v-377q0 -43 18 -65t58 -22q21 0 44.5 10.5t44.5 33t36.5 58t20.5 84.5v244q0 20 -19 20h-50q-5 0 -5 8t5 8h76.5t78.5 2q5 0 5 -4v-440q0 -19 15 -19h49q5 0 5 -7q0 -9 -5 -9h-34.5t-32 -0.5t-36.5 -1t-48 -1.5q-4 0 -4 4q0 29 0.5 61.5
t2.5 67.5l-1 1q-26 -80 -72.5 -112t-112.5 -32q-129 0 -129 109v349q0 16 -16 16h-53q-5 0 -5 8t5 8zM141 692q0 4 7 4q6 0 7 -4q11 -43 39 -63.5t85 -20.5t85 20.5t39 63.5q1 4 7 4q7 0 7 -4q-4 -75 -37.5 -110t-100.5 -35t-100.5 35t-37.5 110z" />
    <glyph glyph-name="Uring" unicode="&#x16e;" horiz-adv-x="783" 
d="M40 703q34 0 55 -0.5t36 -0.5h27h28h29.5h28t38.5 0.5t60 1.5q6 0 6 -8t-6 -8l-95 -1q-6 0 -10 -3t-4 -12v-506q0 -43 10.5 -72.5t33 -48t59.5 -26.5t89 -8q109 0 159 41t50 136v484q0 9 -4 11.5t-10 2.5l-81 2q-5 0 -5 8t5 8q25 -1 41 -1.5t27 -0.5h19h18h18.5h19
t25.5 0.5t38 0.5q6 0 6 -7q0 -9 -6 -9l-79 -1q-7 0 -11 -2.5t-4 -11.5v-482q0 -54 -14 -92t-44.5 -62t-79 -35t-116.5 -11q-132 0 -196 38.5t-64 122.5v521q0 9 -3.5 11.5t-10.5 3.5h-83q-5 0 -5 9q0 7 5 7zM318 843q0 44 26.5 70t71.5 26t71.5 -26t26.5 -70
q0 -45 -26.5 -72t-71.5 -27t-71.5 27t-26.5 72zM343 843q0 -34 20 -55t53 -21t53 21t20 55q0 33 -20 53.5t-53 20.5t-53 -20.5t-20 -53.5z" />
    <glyph glyph-name="uring" unicode="&#x16f;" horiz-adv-x="570" 
d="M11 469q0 8 5 8h74t81 2q4 0 4 -4v-377q0 -43 18 -65t58 -22q21 0 44.5 10.5t44.5 33t36.5 58t20.5 84.5v244q0 20 -19 20h-50q-5 0 -5 8t5 8h76.5t78.5 2q5 0 5 -4v-440q0 -19 15 -19h49q5 0 5 -7q0 -9 -5 -9h-34.5t-32 -0.5t-36.5 -1t-48 -1.5q-4 0 -4 4q0 29 0.5 61.5
t2.5 67.5l-1 1q-26 -80 -72.5 -112t-112.5 -32q-129 0 -129 109v349q0 16 -16 16h-53q-5 0 -5 8zM181 618q0 44 26.5 70t71.5 26t71.5 -26t26.5 -70q0 -45 -26.5 -72t-71.5 -27t-71.5 27t-26.5 72zM206 618q0 -34 20 -55t53 -21t53 21t20 55q0 33 -20 53.5t-53 20.5
t-53 -20.5t-20 -53.5z" />
    <glyph glyph-name="Uhungarumlaut" unicode="&#x170;" horiz-adv-x="783" 
d="M351 760q-3 0 -6.5 2t-3.5 5q0 2 0.5 4.5t3.5 19.5l30 155q2 8 5.5 10.5t10.5 2.5h61q11 0 11 -9q0 -3 -1 -6.5t-9 -16.5l-94 -160q-3 -5 -4.5 -6t-3.5 -1zM474 760q-3 0 -6.5 2.5t-3.5 5.5q0 2 1 4t6 13l74 164q5 10 16 10h63q11 0 11 -10q0 -3 -1.5 -6.5t-9.5 -11.5
l-141 -164l-6 -6t-3 -1zM397 -10q-132 0 -196 38.5t-64 122.5v521q0 9 -3.5 11.5t-10.5 3.5h-83q-5 0 -5 9q0 7 5 7q34 0 55 -0.5t36 -0.5h27h28h29.5h28t38.5 0.5t60 1.5q6 0 6 -8t-6 -8l-95 -1q-6 0 -10 -3t-4 -12v-506q0 -43 10.5 -72.5t33 -48t59.5 -26.5t89 -8
q109 0 159 41t50 136v484q0 9 -4 11.5t-10 2.5l-81 2q-5 0 -5 8t5 8q25 -1 41 -1.5t27 -0.5h19h18h18.5h19t25.5 0.5t38 0.5q6 0 6 -7q0 -9 -6 -9l-79 -1q-7 0 -11 -2.5t-4 -11.5v-482q0 -54 -14 -92t-44.5 -62t-79 -35t-116.5 -11z" />
    <glyph glyph-name="uhungarumlaut" unicode="&#x171;" horiz-adv-x="570" 
d="M214 535q-3 0 -6.5 2t-3.5 5q0 2 0.5 4.5t3.5 19.5l30 155q2 8 5.5 10.5t10.5 2.5h61q11 0 11 -9q0 -3 -1 -6.5t-9 -16.5l-94 -160q-3 -5 -4.5 -6t-3.5 -1zM337 535q-3 0 -6.5 2.5t-3.5 5.5q0 2 1 4t6 13l74 164q5 10 16 10h63q11 0 11 -10q0 -3 -1.5 -6.5t-9.5 -11.5
l-141 -164l-6 -6t-3 -1zM214 -13q-129 0 -129 109v349q0 16 -16 16h-53q-5 0 -5 8t5 8h74t81 2q4 0 4 -4v-377q0 -43 18 -65t58 -22q21 0 44.5 10.5t44.5 33t36.5 58t20.5 84.5v244q0 20 -19 20h-50q-5 0 -5 8t5 8h76.5t78.5 2q5 0 5 -4v-440q0 -19 15 -19h49q5 0 5 -7
q0 -9 -5 -9h-34.5t-32 -0.5t-36.5 -1t-48 -1.5q-4 0 -4 4q0 29 0.5 61.5t2.5 67.5l-1 1q-26 -80 -72.5 -112t-112.5 -32z" />
    <glyph glyph-name="Uogonek" unicode="&#x172;" horiz-adv-x="783" 
d="M35 696q0 7 5 7q34 0 55 -0.5t36 -0.5h27h28h29.5h28t38.5 0.5t60 1.5q6 0 6 -8t-6 -8l-95 -1q-6 0 -10 -3t-4 -12v-506q0 -43 10.5 -72.5t33 -48t59.5 -26.5t89 -8q109 0 159 41t50 136v484q0 9 -4 11.5t-10 2.5l-81 2q-5 0 -5 8t5 8q25 -1 41 -1.5t27 -0.5h19h18h18.5
h19t25.5 0.5t38 0.5q6 0 6 -7q0 -9 -6 -9l-79 -1q-7 0 -11 -2.5t-4 -11.5v-482q0 -89 -39 -135t-128 -59q-54 -26 -80 -61t-26 -74q0 -32 17 -50.5t46 -18.5q11 0 25 3t35 14q7 -4 7 -13q-24 -14 -48.5 -20.5t-51.5 -6.5q-51 0 -81.5 22.5t-30.5 64.5q0 43 32.5 76t109.5 59
q-10 -1 -20 -1h-21q-132 0 -196 38.5t-64 122.5v521q0 9 -3.5 11.5t-10.5 3.5h-83q-5 0 -5 9z" />
    <glyph glyph-name="uogonek" unicode="&#x173;" horiz-adv-x="570" 
d="M11 469q0 8 5 8h74t81 2q4 0 4 -4v-377q0 -43 18 -65t58 -22q21 0 44.5 10.5t44.5 33t36.5 58t20.5 84.5v244q0 20 -19 20h-50q-5 0 -5 8t5 8h76.5t78.5 2q5 0 5 -4v-440q0 -19 15 -19h49q5 0 5 -7q0 -9 -5 -9h-27q-61 -25 -90 -61.5t-29 -78.5q0 -32 17 -50.5t46 -18.5
q11 0 25 3t35 14q7 -4 7 -13q-24 -14 -48.5 -20.5t-51.5 -6.5q-51 0 -81.5 22.5t-30.5 64.5q0 47 39 82t134 63q-19 -1 -41 -1t-55 -2q-4 0 -4 4q0 29 0.5 61.5t2.5 67.5l-1 1q-26 -80 -72.5 -112t-112.5 -32q-129 0 -129 109v349q0 16 -16 16h-53q-5 0 -5 8z" />
    <glyph glyph-name="Wcircumflex" unicode="&#x174;" horiz-adv-x="1069" 
d="M435 755q-5 0 -5 4v3t5 7l121 166q4 5 6 6t6 1h11q5 0 6.5 -1.5t5.5 -6.5l118 -164q5 -6 6 -7.5t1 -3.5q0 -4 -6 -4h-8q-3 0 -4.5 0.5t-6.5 4.5l-135 110q-5 4 -6 4.5t-3 0.5q-1 0 -2.5 -0.5t-5.5 -5.5l-89 -108q-5 -6 -9 -6h-6zM1062 703q5 0 5 -8q0 -9 -5 -9h-70
q-14 0 -18 -13l-210 -676q-2 -6 -4 -7.5t-5 -1.5h-5q-4 0 -5.5 1.5t-3.5 7.5l-207 630l-188 -631q-2 -8 -9 -8h-4q-4 0 -6 1.5t-4 7.5l-233 677q-2 7 -5.5 9t-12.5 2l-65 2q-5 0 -5 8t5 8q28 0 45.5 -0.5t30.5 -0.5h24h26h28h27.5t38 0.5t58.5 1.5q5 0 5 -8t-5 -8l-83 -1
q-4 -1 -7 -1.5t-3 -5.5q0 -2 0.5 -3.5t2.5 -8.5l176 -530l159 531q2 5 2 6.5v2.5q0 8 -12 9l-84 1q-5 0 -5 9q0 7 5 7q31 -1 50.5 -1.5t34 -0.5h26h26.5h27.5h25t31.5 0.5t46 1.5q5 0 5 -8t-5 -8l-77 -1q-4 0 -8 -1.5t-4 -6.5q0 -4 2 -9l175 -533l163 528q2 8 3 10t1 3
q0 8 -12 9l-81 1q-5 0 -5 8t5 8q24 -1 39.5 -1.5t26.5 -0.5h20h20h18.5h18t22.5 0.5t32 0.5z" />
    <glyph glyph-name="wcircumflex" unicode="&#x175;" horiz-adv-x="793" 
d="M298 527q-5 0 -5 4v3t5 7l121 166q4 5 6 6t6 1h11q5 0 6.5 -1.5t5.5 -6.5l118 -164q5 -6 6 -7.5t1 -3.5q0 -4 -6 -4h-8q-3 0 -4.5 0.5t-6.5 4.5l-135 110q-5 4 -6 4.5t-3 0.5q-1 0 -2.5 -0.5t-5.5 -5.5l-89 -108q-5 -6 -9 -6h-6zM788 479q4 0 4 -8t-4 -8l-47 -2
q-6 -1 -9 -2.5t-5 -8.5l-153 -459q-2 -7 -8 -7h-4q-6 0 -8 7l-155 436l-145 -436q-2 -7 -9 -7h-4q-6 0 -8 7l-167 458q-3 8 -6.5 10t-11.5 3l-43 1q-4 0 -4 8t4 8q18 -1 32 -1.5t26.5 -0.5h24.5h26h27h23t27.5 0.5t41.5 1.5q4 0 4 -8t-4 -8l-60 -1q-12 -2 -12 -9v-4t2 -7
l114 -330l111 331q2 5 2 7v4q0 7 -11 7l-74 2q-5 0 -5 8t5 8q24 -1 40.5 -1.5t29.5 -0.5h25.5h27.5h29.5h26.5t32 0.5t44 1.5q4 0 4 -8t-4 -8l-63 -2q-13 -2 -13 -10q0 -1 2 -9l113 -329l107 330q3 8 3 10q0 5 -3 6t-8 2l-67 2q-5 0 -5 8t5 8q18 -1 29.5 -1.5t20 -0.5h16.5
h18h33.5t39.5 2z" />
    <glyph glyph-name="Ycircumflex" unicode="&#x176;" horiz-adv-x="630" 
d="M356 942q5 0 6.5 -1.5t5.5 -6.5l118 -164q5 -6 6 -7.5t1 -3.5q0 -4 -6 -4h-8q-3 0 -4.5 0.5t-6.5 4.5l-135 110q-5 4 -6 4.5t-3 0.5q-1 0 -2.5 -0.5t-5.5 -5.5l-89 -108q-5 -6 -9 -6h-6q-5 0 -5 4v3t5 7l121 166q4 5 6 6t6 1h11zM173 -3q-5 0 -5 8t5 8l89 3q13 0 13 13
v315q0 11 -1.5 18t-7.5 16l-177 297q-5 8 -8 9.5t-12 2.5h-62q-5 0 -5 8q0 9 5 9q26 -1 44 -1.5t32 -0.5h27h28h32h30t37 0.5t53 1.5q5 0 5 -7q0 -9 -5 -9l-72 -1q-15 -2 -15 -10q0 -2 0.5 -3.5t2.5 -5.5l154 -266l149 267q2 4 2.5 6t0.5 3q0 8 -12 9l-77 1q-5 0 -5 9
q0 7 5 7q23 -1 38.5 -1.5t26.5 -0.5h20h20h21h19.5t23 0.5t31.5 0.5q6 0 6 -8t-6 -8l-73 -1q-8 0 -11.5 -2.5t-8.5 -9.5l-162 -291v-354q0 -13 14 -13l87 -3q5 0 5 -7q0 -9 -5 -9q-33 1 -53.5 1.5t-35.5 1t-28.5 0.5h-31.5h-29.5t-27.5 -0.5t-36 -1t-54 -1.5z" />
    <glyph glyph-name="ycircumflex" unicode="&#x177;" horiz-adv-x="519" 
d="M141 530q-5 0 -5 4v3t5 7l121 166q4 5 6 6t6 1h11q5 0 6.5 -1.5t5.5 -6.5l118 -164q5 -6 6 -7.5t1 -3.5q0 -4 -6 -4h-8q-3 0 -4.5 0.5t-6.5 4.5l-135 110q-5 4 -6 4.5t-3 0.5q-1 0 -2.5 -0.5t-5.5 -5.5l-89 -108q-5 -6 -9 -6h-6zM514 479q5 0 5 -8t-5 -8l-56 -2
q-7 0 -11 -2t-6 -10l-193 -588q-17 -53 -43 -76.5t-71 -23.5t-70 20.5t-25 55.5q0 22 12 34t31 12q17 0 29 -12t12 -40q0 -26 8 -37t27 -11q47 0 74 82l39 120l-192 464q-4 12 -17 12l-57 2q-4 0 -4 8t4 8q29 -1 46 -1.5t29.5 -0.5h22.5h24h28.5h26t31 0.5t43.5 1.5
q5 0 5 -8t-5 -8l-68 -1q-4 -1 -7.5 -2.5t-3.5 -6.5v-4.5t2 -6.5l133 -331l108 329q4 11 4 14q0 5 -3.5 6t-7.5 2l-78 1q-4 0 -4 8t4 8q20 -1 33 -1.5t23.5 -0.5h20h21.5q17 0 33.5 0.5t47.5 1.5z" />
    <glyph glyph-name="Ydieresis" unicode="&#x178;" horiz-adv-x="630" 
d="M7 704q26 -1 44 -1.5t32 -0.5h27h28h32h30t37 0.5t53 1.5q5 0 5 -7q0 -9 -5 -9l-72 -1q-15 -2 -15 -10q0 -2 0.5 -3.5t2.5 -5.5l154 -266l149 267q2 4 2.5 6t0.5 3q0 8 -12 9l-77 1q-5 0 -5 9q0 7 5 7q23 -1 38.5 -1.5t26.5 -0.5h20h20h21h19.5t23 0.5t31.5 0.5q6 0 6 -8
t-6 -8l-73 -1q-8 0 -11.5 -2.5t-8.5 -9.5l-162 -291v-354q0 -13 14 -13l87 -3q5 0 5 -7q0 -9 -5 -9q-33 1 -53.5 1.5t-35.5 1t-28.5 0.5h-31.5h-29.5t-27.5 -0.5t-36 -1t-54 -1.5q-5 0 -5 8t5 8l89 3q13 0 13 13v315q0 11 -1.5 18t-7.5 16l-177 297q-5 8 -8 9.5t-12 2.5h-62
q-5 0 -5 8q0 9 5 9zM394 822q0 21 13.5 35t36.5 14q22 0 36 -14t14 -35q0 -23 -14 -36.5t-36 -13.5q-23 0 -36.5 13.5t-13.5 36.5zM195 822q0 21 13.5 35t36.5 14q22 0 36 -14t14 -35q0 -23 -14 -36.5t-36 -13.5q-23 0 -36.5 13.5t-13.5 36.5z" />
    <glyph glyph-name="Zacute" unicode="&#x179;" horiz-adv-x="662" 
d="M35 7l416 678q-43 1 -94.5 1h-105.5q-55 0 -89 -12t-52.5 -36.5t-25.5 -62t-9 -88.5q0 -5 -9 -5q-8 0 -8 5l2 209q0 8 7 8q39 -1 70.5 -1.5t60 -0.5h55.5h57h60h56.5t60.5 0.5t71 1.5q6 -4 6 -12l-412 -674q52 -2 110.5 -2h112.5q72 0 111.5 10.5t63.5 38.5
q23 26 37 71.5t20 106.5q0 5 9 5q8 0 8 -5l-12 -239q0 -6 -6 -6q-43 1 -78.5 1.5t-67.5 0.5h-64h-69h-144.5t-142.5 -2q-4 2 -4.5 4.5t-0.5 4.5zM351 949q5 10 16 10h62q11 0 11 -10q0 -3 -1.5 -6.5t-9.5 -11.5l-142 -167q-5 -4 -8 -4t-6.5 2.5t-3.5 6.5z" />
    <glyph glyph-name="zacute" unicode="&#x17a;" horiz-adv-x="455" 
d="M310 460q-26 1 -50 1h-44q-51 0 -80 -5t-45.5 -20.5t-25 -43.5t-17.5 -74q-1 -6 -8 -6q-8 0 -8 6l6 153q0 6 5 6q42 0 68 -0.5t44.5 -0.5h35.5h42h79.5t97.5 2q5 -1 5 -8l-291 -454q34 -1 61.5 -1h57.5q51 0 82.5 6.5t50 23.5t28 48t15.5 80q0 6 8 6t8 -6l-6 -169
q0 -6 -7 -6q-46 1 -73.5 1.5t-47 0.5h-36.5h-42h-46h-43t-48 -0.5t-62 -1.5q-6 2 -6 10zM263 721q5 10 16 10h62q11 0 11 -10q0 -3 -1.5 -6.5t-9.5 -11.5l-142 -167q-5 -4 -8 -4t-6.5 2.5t-3.5 6.5z" />
    <glyph glyph-name="Zdotaccent" unicode="&#x17b;" horiz-adv-x="662" 
d="M451 685q-43 1 -94.5 1h-105.5q-55 0 -89 -12t-52.5 -36.5t-25.5 -62t-9 -88.5q0 -5 -9 -5q-8 0 -8 5l2 209q0 8 7 8q39 -1 70.5 -1.5t60 -0.5h55.5h57h60h56.5t60.5 0.5t71 1.5q6 -4 6 -12l-412 -674q52 -2 110.5 -2h112.5q72 0 111.5 10.5t63.5 38.5q23 26 37 71.5
t20 106.5q0 5 9 5q8 0 8 -5l-12 -239q0 -6 -6 -6q-43 1 -78.5 1.5t-67.5 0.5h-64h-69h-144.5t-142.5 -2q-4 2 -4.5 4.5t-0.5 4.5zM263 839q0 22 14 35.5t36 13.5t36 -13.5t14 -35.5t-14 -36t-36 -14t-36 14t-14 36z" />
    <glyph glyph-name="zdotaccent" unicode="&#x17c;" horiz-adv-x="455" 
d="M310 460q-26 1 -50 1h-44q-51 0 -80 -5t-45.5 -20.5t-25 -43.5t-17.5 -74q-1 -6 -8 -6q-8 0 -8 6l6 153q0 6 5 6q42 0 68 -0.5t44.5 -0.5h35.5h42h79.5t97.5 2q5 -1 5 -8l-291 -454q34 -1 61.5 -1h57.5q51 0 82.5 6.5t50 23.5t28 48t15.5 80q0 6 8 6t8 -6l-6 -169
q0 -6 -7 -6q-46 1 -73.5 1.5t-47 0.5h-36.5h-42h-46h-43t-48 -0.5t-62 -1.5q-6 2 -6 10zM175 653q0 22 14 35.5t36 13.5t36 -13.5t14 -35.5t-14 -36t-36 -14t-36 14t-14 36z" />
    <glyph glyph-name="Zcaron" unicode="&#x17d;" horiz-adv-x="662" 
d="M305 753q-6 0 -11 8l-119 164q-5 6 -5.5 7.5t-0.5 3.5q0 4 6 4h7q5 0 11 -5l136 -110q4 -4 5.5 -4.5t2.5 -0.5q2 0 3 0.5t5 5.5l90 108q5 6 9 6h5q6 0 6 -4q0 -2 -0.5 -3t-5.5 -7l-121 -166q-6 -7 -12 -7h-11zM40 -2q-4 2 -4.5 4.5t-0.5 4.5l416 678q-43 1 -94.5 1
h-105.5q-55 0 -89 -12t-52.5 -36.5t-25.5 -62t-9 -88.5q0 -5 -9 -5q-8 0 -8 5l2 209q0 8 7 8q39 -1 70.5 -1.5t60 -0.5h55.5h57h60h56.5t60.5 0.5t71 1.5q6 -4 6 -12l-412 -674q52 -2 110.5 -2h112.5q72 0 111.5 10.5t63.5 38.5q23 26 37 71.5t20 106.5q0 5 9 5q8 0 8 -5
l-12 -239q0 -6 -6 -6q-43 1 -78.5 1.5t-67.5 0.5h-64h-69h-144.5t-142.5 -2z" />
    <glyph glyph-name="zcaron" unicode="&#x17e;" horiz-adv-x="455" 
d="M217 525q-6 0 -11 8l-119 164q-5 6 -5.5 7.5t-0.5 3.5q0 4 6 4h7q5 0 11 -5l136 -110q4 -4 5.5 -4.5t2.5 -0.5q2 0 3 0.5t5 5.5l90 108q5 6 9 6h5q6 0 6 -4q0 -2 -0.5 -3t-5.5 -7l-121 -166q-6 -7 -12 -7h-11zM24 -2q-6 2 -6 10l292 452q-26 1 -50 1h-44q-46 0 -76 -5
t-48.5 -20.5t-28 -43.5t-15.5 -74q-1 -6 -8 -6q-8 0 -8 6l6 153q0 6 5 6q42 0 68 -0.5t44.5 -0.5h35.5h42h79.5t97.5 2q5 -1 5 -8l-291 -454q34 -1 61.5 -1h57.5q51 0 82.5 6.5t50 23.5t28 48t15.5 80q0 6 8 6t8 -6l-6 -169q0 -6 -7 -6q-46 1 -73.5 1.5t-47 0.5h-36.5h-42
h-46h-43t-48 -0.5t-62 -1.5z" />
    <glyph glyph-name="longs" unicode="&#x17f;" horiz-adv-x="324" 
d="M16 6q0 8 5 8l57 1q14 0 14 14v556q0 76 38 108t116 32q69 0 108.5 -26t39.5 -73q0 -25 -12 -39t-36 -14q-22 0 -34.5 11.5t-12.5 32.5q0 13 2.5 22.5t2.5 22.5q0 23 -15.5 35t-42.5 12q-35 0 -49.5 -19.5t-14.5 -67.5v-592q0 -14 14 -14l70 -1q5 0 5 -9q0 -8 -5 -8
q-30 1 -49 1.5t-31.5 0.5h-22.5h-24h-21.5t-21.5 -0.5t-29.5 -1t-45.5 -1.5q-5 0 -5 9z" />
    <glyph glyph-name="uni018F" unicode="&#x18f;" horiz-adv-x="712" 
d="M52 306h495q9 0 9 10v83q0 146 -58 220.5t-171 74.5q-92 0 -155 -49t-96 -133q-3 -8 -4.5 -9.5t-4.5 -1.5t-6 2t-3 4t0.5 3.5t2.5 9.5q37 94 109 145t175 51q75 0 135 -25t101.5 -71.5t64 -113.5t22.5 -150q0 -84 -22 -152.5t-62.5 -116.5t-98 -74.5t-129.5 -26.5
q-71 0 -127.5 22.5t-96.5 63.5t-62.5 98.5t-24.5 127.5q0 8 7 8zM356 2q55 0 92.5 23t61 60t34 84t10.5 95v19q0 7 -9 7h-373q-8 0 -8 -9v-14q0 -134 49 -199.5t143 -65.5z" />
    <glyph glyph-name="florin" unicode="&#x192;" horiz-adv-x="473" 
d="M-76 -69q0 25 13.5 36.5t31.5 11.5q20 0 31.5 -12.5t11.5 -31.5q0 -18 -11 -29.5t-29 -16.5q19 -16 46 -16q32 0 47.5 23.5t24.5 81.5l57 372h-118q-5 0 -5 8t5 8h120l1 7q26 183 74 265.5t123 82.5q46 0 70.5 -21.5t24.5 -52.5q0 -25 -13.5 -36t-31.5 -11
q-20 0 -31.5 12t-11.5 32q0 17 11 28.5t29 16.5q-19 16 -46 16q-32 0 -47.5 -23.5t-24.5 -80.5l-36 -235h118q5 0 5 -8t-5 -8h-120l-22 -145q-28 -183 -75 -265.5t-122 -82.5q-46 0 -70.5 21.5t-24.5 52.5z" />
    <glyph glyph-name="Aringacute" unicode="&#x1fa;" horiz-adv-x="652" 
d="M2 7q0 6 5 8l77 1q14 0 18 12l225 682q3 7 8 7h5q6 0 9 -8l217 -678q2 -8 7 -10.5t23 -3.5l49 -2q6 0 6 -8t-6 -8q-26 0 -43 0.5t-30 0.5h-24.5h-26.5h-31h-28t-36.5 -0.5t-55.5 -1.5q-5 0 -5 8t5 8l83 2q14 1 14 11q0 2 -0.5 3.5l-1.5 4.5l-62 202q-2 5 -6 5h-204
q-3 0 -5 -5l-66 -203q-2 -6 -2 -9q0 -9 14 -9l81 -2q5 0 5 -8t-5 -8q-27 1 -44.5 1.5t-28.5 0.5h-19h-16h-16h-19.5t-26.5 -0.5t-38 -1.5q-5 0 -5 9zM336 939q45 0 71.5 -26t26.5 -70q0 -45 -26.5 -72t-71.5 -27t-71.5 27t-26.5 72q0 44 26.5 70t71.5 26zM201 257h189
q5 0 5 5v2t-2 6l-94 305l-101 -307q-1 -4 -1 -6q0 -5 4 -5zM263 843q0 -34 20 -55t53 -21t53 21t20 55q0 33 -20 53.5t-53 20.5t-53 -20.5t-20 -53.5zM374 1155q5 10 16 10h62q11 0 11 -10q0 -3 -1.5 -6.5t-9.5 -11.5l-142 -167q-5 -4 -8 -4t-6.5 2.5t-3.5 6.5z" />
    <glyph glyph-name="aringacute" unicode="&#x1fb;" horiz-adv-x="505" 
d="M151 263q33 6 57 11t43 10t34.5 10.5t29.5 12.5v66q0 50 -20.5 75.5t-67.5 25.5q-38 0 -57 -16t-19 -40q0 -7 1.5 -11.5l3 -9t3 -9.5t1.5 -13q0 -21 -13 -31.5t-33 -10.5q-21 0 -33.5 10.5t-12.5 32.5q0 52 46 83t127 31q166 0 166 -143v-61t-1 -62v-137q0 -41 9.5 -57
t27.5 -16q14 0 25.5 6.5t23.5 19.5q10 0 10 -12q-18 -21 -40 -29t-54 -8q-45 0 -67 17.5t-24 58.5v32h-2q-22 -55 -56 -82t-96 -27q-63 0 -96 35t-33 104q0 62 30 92.5t87 41.5zM199 16q38 0 62 23.5t38 58.5q10 24 13.5 49t3.5 59v81l-1 2q-19 -9 -40 -15t-46 -11
q-29 -8 -48.5 -17.5t-31.5 -24.5t-17 -36.5t-5 -53.5q0 -60 19.5 -87.5t52.5 -27.5zM239 714q45 0 71.5 -26t26.5 -70q0 -45 -26.5 -72t-71.5 -27t-71.5 27t-26.5 72q0 44 26.5 70t71.5 26zM239 542q33 0 53 21t20 55q0 33 -20 53.5t-53 20.5t-53 -20.5t-20 -53.5
q0 -34 20 -55t53 -21zM277 930q5 10 16 10h62q11 0 11 -10q0 -3 -1.5 -6.5t-9.5 -11.5l-142 -167q-5 -4 -8 -4t-6.5 2.5t-3.5 6.5z" />
    <glyph glyph-name="AEacute" unicode="&#x1fc;" horiz-adv-x="1044" 
d="M2 6q0 7 5 7l78 2q8 0 11.5 3.5t7.5 9.5l385 635q4 7 4 12t-2 7.5t-10 2.5l-78 3q-4 0 -4 8t4 8q33 -1 53.5 -1.5t35.5 -0.5h26.5h26.5h62h52.5h52.5t61.5 0.5t80 1t108.5 0.5q6 0 6 -6v-185q0 -5 -8 -5t-8 5q0 54 -8.5 88t-29.5 52.5t-56 25.5t-88 7h-162q-5 0 -10 -3.5
t-5 -12.5v-294q0 -6 6 -6h45q48 0 78 2t47 14.5t23.5 38.5t6.5 74q0 5 8 5t8 -5q-1 -45 -1 -75v-62v-64.5t1 -77.5q0 -5 -8 -5t-8 5q0 49 -6 76t-22.5 40t-47 15.5t-79.5 2.5h-45q-6 0 -6 -6v-316q0 -16 15 -16h173q61 0 100.5 9t63 31.5t32.5 62t10 99.5q0 4 8 4t8 -4
l-3 -214q0 -6 -5 -6q-68 0 -117 0.5t-85.5 1t-64.5 0.5h-54.5h-54.5h-65h-35t-31.5 -0.5t-37 -1t-51.5 -1.5q-4 0 -4 8t4 8l82 3q7 0 11.5 4.5t4.5 10.5v252q0 9 -9 9h-201q-4 0 -7 -6l-152 -250q-4 -7 -4 -12q0 -9 15 -9l80 -1q6 0 6 -8t-6 -8q-28 1 -45.5 1.5t-29.5 0.5
h-19.5h-15.5q-17 0 -38 -0.5t-64 -2.5q-5 0 -5 9zM301 308h187q9 0 9 9v324l-2 1l-196 -323l-2.5 -5t-0.5 -2q0 -4 5 -4zM622 949q5 10 16 10h62q11 0 11 -10q0 -3 -1.5 -6.5t-9.5 -11.5l-142 -167q-5 -4 -8 -4t-6.5 2.5t-3.5 6.5z" />
    <glyph glyph-name="aeacute" unicode="&#x1fd;" horiz-adv-x="796" 
d="M172 263q23 3 39 5.5t33 6.5q20 5 37.5 10.5t32.5 15.5v74q0 96 -85 96q-35 0 -53.5 -14.5t-18.5 -39.5q0 -15 4 -23.5t4 -23.5q0 -23 -13.5 -33.5t-36.5 -10.5q-22 0 -34.5 11.5t-12.5 34.5q0 53 44.5 84.5t126.5 31.5q106 0 141 -65q29 33 72 51t97 18q49 0 89 -15
t68.5 -43t44.5 -67.5t16 -89.5q0 -6 -5 -6h-339q-6 0 -6 -6v-45q0 -105 40.5 -158t117.5 -53q33 0 58 9.5t43.5 26.5t33.5 40.5t28 50.5q2 3 6 3q9 0 9 -8q-23 -68 -73.5 -105.5t-130.5 -37.5q-83 0 -141 42t-80 120h-1q-19 -159 -154 -159q-69 0 -104 33.5t-35 97.5
q0 39 9 64t26.5 40.5t43 23.5t59.5 13zM418 298v-5q0 -6 6 -6h238q6 0 6 6v5q0 38 -7 70.5t-22.5 56.5t-39.5 37.5t-58 13.5q-37 0 -61 -16t-37.5 -41.5t-19 -57.5t-5.5 -63zM204 19q54 0 82.5 47t28.5 133v80l-2 1q-16 -8 -38.5 -14t-45.5 -11q-58 -14 -78.5 -43.5
t-20.5 -81.5q0 -58 19.5 -84.5t54.5 -26.5zM430 724q5 10 16 10h62q11 0 11 -10q0 -3 -1.5 -6.5t-9.5 -11.5l-142 -167q-5 -4 -8 -4t-6.5 2.5t-3.5 6.5z" />
    <glyph glyph-name="Oslashacute" unicode="&#x1fe;" horiz-adv-x="748" 
d="M372 718q74 0 133.5 -25t102.5 -73l69 76q4 5 5 5.5t3 0.5h15q4 0 4 -2t-1 -3.5t-6 -6.5l-76 -84q37 -47 57 -109.5t20 -140.5q0 -84 -23.5 -152.5t-66.5 -117t-103 -75.5t-133 -27q-72 0 -130 23.5t-102 68.5l-63 -70q-4 -5 -5 -5.5t-3 -0.5h-15q-3 0 -3 2t0.5 3.5
t5.5 6.5l71 78q-41 48 -62.5 112t-21.5 145q0 84 23.5 152.5t67 117t104 75t133.5 26.5zM156 355v-1q0 -126 24 -206l377 416q-24 71 -70 104.5t-114 33.5q-112 0 -164.5 -82t-52.5 -265zM373 0q110 0 161.5 82t51.5 265v2q0 119 -22 194l-377 -415q26 -66 71.5 -97
t114.5 -31zM412 949q5 10 16 10h62q11 0 11 -10q0 -3 -1.5 -6.5t-9.5 -11.5l-142 -167q-5 -4 -8 -4t-6.5 2.5t-3.5 6.5z" />
    <glyph glyph-name="oslashacute" unicode="&#x1ff;" horiz-adv-x="520" 
d="M226 535q-3 0 -6.5 2.5t-3.5 6.5l82 180q5 10 16 10h62q11 0 11 -10q0 -3 -1.5 -6.5t-9.5 -11.5l-142 -167q-5 -4 -8 -4zM432 413q26 -32 40.5 -75.5t14.5 -97.5q0 -59 -16.5 -106t-47 -80t-72.5 -50.5t-93 -17.5q-48 0 -87.5 15t-68.5 44l-35 -39q-4 -5 -5.5 -5.5
t-3.5 -0.5h-14q-4 0 -4 2t1 3.5t6 6.5l42 47q-28 32 -43.5 78t-15.5 103q0 58 16.5 104.5t46.5 78.5t72 49.5t93 17.5q101 0 162 -63l39 44q4 5 5.5 5.5t3.5 0.5h14q4 0 4 -3q0 -2 -1 -3l-6 -6zM129 227q0 -36 2 -64.5t6 -50.5l242 270q-12 43 -43 67.5t-77 24.5
q-45 0 -71 -20.5t-39 -52.5t-16.5 -69.5t-3.5 -72.5v-32zM388 262q0 29 -1 52.5t-4 43.5l-241 -268q15 -38 44.5 -63t73.5 -25q47 0 73 23t38 57.5t14.5 74.5t2.5 74v31z" />
    <glyph glyph-name="uni0218" unicode="&#x218;" horiz-adv-x="529" 
d="M34 254q0 6 8 6t9 -8q8 -48 21 -92.5t37.5 -79t62.5 -55.5t95 -21q81 0 123.5 40.5t42.5 105.5q0 29 -10 52t-31 43.5t-54 39.5t-79 40q-40 18 -74.5 37.5t-59.5 44t-39 55.5t-14 71t13.5 73.5t39.5 58t64 38t86 13.5q37 0 81 -8t86 -26q9 -5 10 -13l3 -153q0 -6 -8 -6
t-9 7q-6 36 -17.5 68.5t-31.5 58t-49 40.5t-70 15q-62 0 -97.5 -31.5t-35.5 -85.5q0 -28 11 -50t32 -40.5t51 -34.5t68 -33q43 -19 79.5 -39.5t63 -47t41.5 -59.5t15 -76q0 -45 -14.5 -84t-44 -68t-74.5 -45.5t-107 -16.5q-45 0 -101 10.5t-109 31.5q-6 3 -7.5 5t-2.5 8z
M257 -50q34 0 54 -26.5t20 -69.5q0 -31 -11 -56.5t-28 -43.5t-38.5 -28t-41.5 -10q-5 0 -5 8q0 3 1 5t7 3q23 3 39.5 13.5t27.5 25.5t16.5 32t5.5 34t-4.5 30t-11.5 21h-2q-2 -12 -12 -20.5t-27 -8.5q-20 0 -31 12.5t-11 31.5q0 22 15 34.5t37 12.5z" />
    <glyph glyph-name="uni0219" unicode="&#x219;" horiz-adv-x="409" 
d="M35 169q0 6 8 6t9 -8q6 -36 17 -67t29.5 -53.5t47 -35.5t69.5 -13q55 0 89 26t34 71q0 33 -19.5 53t-64.5 37l-68 25q-61 23 -93 55.5t-32 89.5q0 66 41.5 102t113.5 36q29 0 59.5 -5t63.5 -22q7 -3 7 -11v-108q0 -5 -9 -5q-7 0 -9 7q-6 27 -15 50t-24 40.5t-36.5 27
t-51.5 9.5q-42 0 -65.5 -21t-23.5 -56q0 -29 18.5 -50t63.5 -38l52 -19q71 -28 104 -61.5t33 -87.5q0 -74 -47.5 -118t-131.5 -44q-35 0 -79 9.5t-86 29.5q-5 3 -5 8zM202 -56q34 0 54 -26.5t20 -69.5q0 -31 -11 -56.5t-28 -43.5t-38.5 -28t-41.5 -10q-5 0 -5 8q0 3 1 5t7 3
q23 3 39.5 13.5t27.5 25.5t16.5 32t5.5 34t-4.5 30t-11.5 21h-2q-2 -12 -12 -20.5t-27 -8.5q-20 0 -31 12.5t-11 31.5q0 22 15 34.5t37 12.5z" />
    <glyph glyph-name="uni021A" unicode="&#x21a;" horiz-adv-x="634" 
d="M13 495v202q0 7 8 7q53 -1 92.5 -1.5t72.5 -0.5h64h67h67h64t72.5 0.5t93.5 1.5q7 0 7 -8v-198q0 -5 -8 -5t-8 5q-7 59 -16.5 91t-26.5 55q-18 25 -48.5 33t-78.5 8h-56q-13 0 -13 -13v-640q0 -16 15 -16l87 -2q6 0 6 -8t-6 -8q-47 2 -81.5 2h-69.5h-32.5t-33 -0.5
t-38.5 -1t-50 -1.5q-5 0 -5 9q0 7 5 7l93 3q13 0 13 13v643q0 14 -13 14h-54q-53 0 -84.5 -12t-49.5 -35.5t-25.5 -59.5t-12.5 -84q-2 -5 -8 -5q-9 0 -9 5zM258 -85q0 22 15 34.5t37 12.5q34 0 54 -26.5t20 -69.5q0 -31 -11 -56.5t-28 -43.5t-38.5 -28t-41.5 -10q-5 0 -5 8
q0 3 1 5t7 3q23 3 39.5 13.5t27.5 25.5t16.5 32t5.5 34t-4.5 30t-11.5 21h-2q-2 -12 -12 -20.5t-27 -8.5q-20 0 -31 12.5t-11 31.5z" />
    <glyph glyph-name="uni021B" unicode="&#x21b;" horiz-adv-x="356" 
d="M17 477h82q6 0 6 6v102q0 3 3 3h84q4 0 4 -3v-102q0 -6 5 -6h111q4 0 4 -8t-4 -8h-112q-5 0 -5 -6v-382q0 -27 12.5 -45t43.5 -18q20 0 39.5 9t42.5 31q4 0 7.5 -2.5t3.5 -8.5q-27 -29 -57.5 -40.5t-68.5 -11.5q-113 0 -113 89v379q0 6 -6 6h-82q-5 0 -5 8t5 8zM147 -89
q0 22 15 34.5t37 12.5q34 0 54 -26.5t20 -69.5q0 -31 -11 -56.5t-28 -43.5t-38.5 -28t-41.5 -10q-5 0 -5 8q0 3 1 5t7 3q23 3 39.5 13.5t27.5 25.5t16.5 32t5.5 34t-4.5 30t-11.5 21h-2q-2 -12 -12 -20.5t-27 -8.5q-20 0 -31 12.5t-11 31.5z" />
    <glyph glyph-name="uni0237" unicode="&#x237;" horiz-adv-x="260" 
d="M-12 -224q0 2 0.5 3t5.5 2q28 10 47 23t30 32.5t16 48.5t5 73q0 101 -0.5 227t-2.5 257q-1 16 -11 16h-83q-4 0 -4 8t4 8h89.5t89.5 2q5 0 5 -3v-541q0 -34 -10 -58.5t-32 -43t-57 -34t-85 -31.5q-2 0 -4.5 3.5t-2.5 7.5z" />
    <glyph glyph-name="uni0259" unicode="&#x259;" horiz-adv-x="503" 
d="M34 206h331q6 0 6 6v45q0 105 -40 158t-112 53q-33 0 -57 -10t-43 -27t-33.5 -40t-27.5 -50q-1 -3 -6 -3q-9 0 -9 8q23 68 73.5 105.5t128.5 37.5q51 0 92.5 -16.5t71.5 -49t46.5 -79t16.5 -106.5q0 -58 -16 -105t-45.5 -80t-71.5 -50.5t-94 -17.5q-48 0 -88 15.5
t-68.5 43.5t-44 67.5t-15.5 88.5q0 6 5 6zM128 179q0 -81 29.5 -129.5t91.5 -48.5q37 0 60.5 16.5t37 42t18.5 57t5 62.5v5q0 6 -6 6h-230q-6 0 -6 -6v-5z" />
    <glyph glyph-name="circumflex" unicode="&#x2c6;" horiz-adv-x="500" 
d="M262 717q5 0 6.5 -1.5t5.5 -6.5l118 -164q5 -6 6 -7.5t1 -3.5q0 -4 -6 -4h-8q-3 0 -4.5 0.5t-6.5 4.5l-135 110q-5 4 -6 4.5t-3 0.5q-1 0 -2.5 -0.5t-5.5 -5.5l-89 -108q-5 -6 -9 -6h-6q-5 0 -5 4v3t5 7l121 166q4 5 6 6t6 1h11z" />
    <glyph glyph-name="caron" unicode="&#x2c7;" horiz-adv-x="500" 
d="M242 528q-6 0 -11 8l-119 164q-5 6 -5.5 7.5t-0.5 3.5q0 4 6 4h7q5 0 11 -5l136 -110q4 -4 5.5 -4.5t2.5 -0.5q2 0 3 0.5t5 5.5l90 108q5 6 9 6h5q6 0 6 -4q0 -2 -0.5 -3t-5.5 -7l-121 -166q-6 -7 -12 -7h-11z" />
    <glyph glyph-name="uni02C9" unicode="&#x2c9;" horiz-adv-x="500" 
d="M115 604h270q5 0 5 -5v-32q0 -5 -5 -5h-270q-5 0 -5 5v32q0 5 5 5z" />
    <glyph glyph-name="breve" unicode="&#x2d8;" horiz-adv-x="500" 
d="M112 692q0 4 7 4q6 0 7 -4q11 -43 39 -63.5t85 -20.5t85 20.5t39 63.5q1 4 7 4q7 0 7 -4q-4 -75 -37.5 -110t-100.5 -35t-100.5 35t-37.5 110z" />
    <glyph glyph-name="dotaccent" unicode="&#x2d9;" horiz-adv-x="500" 
d="M200 656q0 22 14 35.5t36 13.5t36 -13.5t14 -35.5t-14 -36t-36 -14t-36 14t-14 36z" />
    <glyph glyph-name="ring" unicode="&#x2da;" horiz-adv-x="500" 
d="M152 618q0 44 26.5 70t71.5 26t71.5 -26t26.5 -70q0 -45 -26.5 -72t-71.5 -27t-71.5 27t-26.5 72zM177 618q0 -34 20 -55t53 -21t53 21t20 55q0 33 -20 53.5t-53 20.5t-53 -20.5t-20 -53.5z" />
    <glyph glyph-name="ogonek" unicode="&#x2db;" horiz-adv-x="500" 
d="M48 -145q0 25 10.5 46.5t34.5 40t62 35t92 30.5l2 -7q-61 -25 -90 -61.5t-29 -78.5q0 -32 17 -50.5t46 -18.5q11 0 25 3t35 14q7 -4 7 -13q-24 -14 -48.5 -20.5t-51.5 -6.5q-51 0 -81.5 22.5t-30.5 64.5z" />
    </font>
</defs>
</svg>
