<?xml version="1.0" standalone="no"?>
<!DOCTYPE svg PUBLIC "-//W3C//DTD SVG 1.1//EN" "http://www.w3.org/Graphics/SVG/1.1/DTD/svg11.dtd" >
<svg xmlns="http://www.w3.org/2000/svg" xmlns:xlink="http://www.w3.org/1999/xlink" version="1.1">
<metadata>
Created by FontForge 20170731 at Sun Oct  4 22:00:45 2020
 By Aleksey,,,
Copyright (c) 2018 Monotype Imaging Inc. All rights reserved.
</metadata>
<defs>
<font id="Walbaum60pt-Light" horiz-adv-x="500" >
  <font-face 
    font-family="Walbaum 60pt Light"
    font-weight="300"
    font-stretch="normal"
    units-per-em="1000"
    panose-1="2 7 3 3 9 7 3 2 3 3"
    ascent="800"
    descent="-200"
    x-height="476"
    cap-height="704"
    bbox="-240 -283 1347 1166"
    underline-thickness="50"
    underline-position="-175"
    unicode-range="U+000D-FEFF"
  />
<missing-glyph 
d="M12 665h475v-665h-475v665zM278 333l162 -243v485zM88 618l162 -243l161 243h-323zM88 48h323l-161 242zM60 91l161 242l-161 242v-484z" />
    <glyph glyph-name="f_f" unicode="ff" horiz-adv-x="507" 
d="M20 475h69q6 0 6 6v114q0 70 35.5 100t105.5 30q84 0 117 -45q32 45 119 45q63 0 97 -25.5t34 -70.5q0 -44 -34 -44q-15 0 -24.5 9t-9.5 26q0 11 2 19t2 19q0 24 -17.5 37.5t-51.5 13.5q-41 0 -59.5 -21t-18.5 -72v-135q0 -6 6 -6h83q5 0 5 -7q0 -9 -5 -9h-83q-6 0 -6 -6
v-423q0 -14 14 -14l75 -2q5 0 5 -8t-5 -8q-28 1 -45.5 1.5t-29.5 0.5h-21h-21h-19t-18.5 -0.5t-25 -1t-38.5 -1.5q-4 0 -4 9q0 8 5 8l52 2q15 0 15 15v422q0 6 -6 6h-163q-5 0 -5 -6v-422q0 -15 14 -15l55 -2q5 0 5 -8q0 -9 -5 -9q-22 1 -36.5 1.5t-25 1t-19 0.5h-19.5
h-19.5t-19.5 -0.5t-26.5 -1t-40.5 -1.5q-5 0 -5 9q0 8 5 8l61 2q14 0 14 14v423q0 6 -6 6h-69q-5 0 -5 9q0 7 5 7zM162 475h163q6 0 6 6v104q-14 1 -23 9.5t-9 25.5q0 11 2.5 19t2.5 19q0 24 -18 37.5t-51 13.5q-42 0 -60 -21t-18 -72v-135q0 -6 5 -6z" />
    <glyph glyph-name="f_f_i" unicode="ffi" horiz-adv-x="723" 
d="M15 468q0 7 5 7h69q6 0 6 6v114q0 70 35.5 100t105.5 30q90 0 120 -50q19 27 52 38.5t78 11.5q68 0 107 -27t39 -73q0 -43 -36 -43q-14 0 -24 9t-10 26q0 11 2.5 19.5t2.5 19.5q0 23 -19 38t-63 15q-46 0 -69.5 -24t-23.5 -84v-120q0 -6 6 -6h97h36t31 0.5t30.5 1
t34.5 1.5q5 0 5 -4v-443q0 -15 15 -15l57 -2q5 0 5 -8t-5 -8q-25 1 -40 1.5t-25.5 0.5h-18.5h-17h-20.5t-19 -0.5t-25 -1t-38.5 -1.5q-5 0 -5 9q0 8 5 8l56 2q14 0 14 15v413q0 15 -14 15h-158q-6 0 -6 -6v-422q0 -15 15 -15l57 -2q5 0 5 -8q0 -9 -5 -9q-22 1 -36.5 1.5
t-24.5 1t-19 0.5h-21h-18.5t-18.5 -0.5t-24.5 -1t-38.5 -1.5q-4 0 -4 9q0 8 5 8l52 2q15 0 15 15v422q0 6 -6 6h-163q-5 0 -5 -6v-422q0 -15 14 -15l55 -2q5 0 5 -8q0 -9 -5 -9q-22 1 -36.5 1.5t-25 1t-19 0.5h-19.5h-19.5t-19.5 -0.5t-26.5 -1t-40.5 -1.5q-5 0 -5 9
q0 8 5 8l61 2q14 0 14 14v423q0 6 -6 6h-69q-5 0 -5 9zM157 616v-135q0 -6 5 -6h163q6 0 6 6v104q-14 1 -23 9.5t-9 25.5q0 11 2.5 19t2.5 19q0 24 -18 37.5t-51 13.5q-42 0 -60 -21t-18 -72z" />
    <glyph glyph-name="f_f_l" unicode="ffl" horiz-adv-x="722" 
d="M20 475h69q6 0 6 6v114q0 70 35.5 100t105.5 30q86 0 117 -46q18 25 49.5 35.5t76.5 10.5q40 0 65 -9q15 0 36 0.5t48 2.5q5 0 5 -4v-684q0 -15 15 -15l57 -2q5 0 5 -8t-5 -8q-25 1 -40 1.5t-25.5 0.5h-18.5h-17h-21t-20 -0.5t-25.5 -1t-38.5 -1.5q-5 0 -5 9q0 8 5 8
l58 2q14 0 14 15v556q-23 5 -23 33q0 11 2.5 19t2.5 19q0 24 -17.5 37.5t-57.5 13.5q-45 0 -65.5 -21t-20.5 -76v-131q0 -6 6 -6h83q5 0 5 -7q0 -9 -5 -9h-83q-6 0 -6 -6v-422q0 -15 15 -15l60 -2q5 0 5 -8q0 -9 -4 -9q-23 1 -38 1.5t-25.5 1t-20 0.5h-22.5h-17.5t-18 -0.5
t-25 -1t-38.5 -1.5q-4 0 -4 9q0 8 5 8l52 2q15 0 15 15v422q0 6 -6 6h-163q-5 0 -5 -6v-422q0 -15 14 -15l55 -2q5 0 5 -8q0 -9 -5 -9q-22 1 -36.5 1.5t-25 1t-19 0.5h-19.5h-19.5t-19.5 -0.5t-26.5 -1t-40.5 -1.5q-5 0 -5 9q0 8 5 8l61 2q14 0 14 14v423q0 6 -6 6h-69
q-5 0 -5 9q0 7 5 7zM162 475h163q6 0 6 6v104q-14 1 -23 9.5t-9 25.5q0 11 2.5 19t2.5 19q0 24 -18 37.5t-51 13.5q-42 0 -60 -21t-18 -72v-135q0 -6 5 -6z" />
    <glyph glyph-name="fi" unicode="fi" horiz-adv-x="487" 
d="M15 468q0 7 5 7h69q6 0 6 6v98q0 81 40.5 113.5t115.5 32.5q68 0 106.5 -27t38.5 -73q0 -43 -35 -43q-14 0 -24 9t-10 26q0 11 2.5 19.5t2.5 19.5q0 23 -19 38t-64 15t-68.5 -24t-23.5 -84v-120q0 -6 5 -6h98h36t31 0.5t30.5 1t34.5 1.5q4 0 4 -4v-443q0 -15 15 -15
l57 -2q5 0 5 -8t-5 -8q-24 1 -39.5 1.5t-25.5 0.5h-18h-17h-20.5t-19 -0.5t-25 -1t-38.5 -1.5q-5 0 -5 9q0 8 5 8l55 2q15 0 15 15v413q0 15 -15 15h-158q-5 0 -5 -6v-422q0 -15 14 -15l58 -2q5 0 5 -8q0 -9 -5 -9q-22 1 -36.5 1.5t-25 1t-20 0.5h-21.5h-19.5t-19.5 -0.5
t-26.5 -1t-40.5 -1.5q-5 0 -5 9q0 8 5 8l61 2q14 0 14 14v423q0 6 -6 6h-69q-5 0 -5 9z" />
    <glyph glyph-name="fl" unicode="fl" horiz-adv-x="487" 
d="M15 468q0 7 5 7h69q6 0 6 6v114q0 72 37 101t111 29q40 0 65 -9q16 0 36.5 0.5t48.5 2.5q4 0 4 -4v-684q0 -15 15 -15l57 -2q5 0 5 -8t-5 -8q-24 1 -39.5 1.5t-25.5 0.5h-18h-17h-21t-20 -0.5t-26 -1t-38 -1.5q-5 0 -5 9q0 8 5 8l57 2q15 0 15 15v556q-11 2 -17.5 10.5
t-6.5 22.5q0 11 2.5 19t2.5 19q0 24 -17 37.5t-58 13.5q-45 0 -65 -21t-20 -76v-131q0 -6 5 -6h83q5 0 5 -7q0 -9 -5 -9h-83q-5 0 -5 -6v-422q0 -15 14 -15l58 -2q5 0 5 -8q0 -9 -5 -9q-22 1 -36.5 1.5t-25 1t-20 0.5h-21.5h-19.5t-19.5 -0.5t-26.5 -1t-40.5 -1.5q-5 0 -5 9
q0 8 5 8l61 2q14 0 14 14v423q0 6 -6 6h-69q-5 0 -5 9z" />
    <glyph glyph-name=".notdef" 
d="M12 665h475v-665h-475v665zM278 333l162 -243v485zM88 618l162 -243l161 243h-323zM88 48h323l-161 242zM60 91l161 242l-161 242v-484z" />
    <glyph glyph-name=".null" horiz-adv-x="0" 
 />
    <glyph glyph-name=".null" horiz-adv-x="0" 
 />
    <glyph glyph-name="uni000D" unicode="&#xd;" horiz-adv-x="225" 
 />
    <glyph glyph-name="space" unicode=" " horiz-adv-x="225" 
 />
    <glyph glyph-name="exclam" unicode="!" horiz-adv-x="181" 
d="M91 726q17 0 27 -10.5t10 -28.5q0 -20 -4.5 -59.5t-10 -101.5t-10 -148t-4.5 -200q0 -4 -8 -4t-8 4q0 114 -4.5 200t-10 148t-10 101.5t-4.5 59.5q0 18 10 28.5t27 10.5zM90 78q19 0 31.5 -12.5t12.5 -31.5t-12.5 -31.5t-31.5 -12.5t-31.5 12.5t-12.5 31.5t12.5 31.5
t31.5 12.5z" />
    <glyph glyph-name="quotedbl" unicode="&#x22;" horiz-adv-x="296" 
d="M75 724q28 0 28 -30q0 -11 -3 -46.5t-6.5 -78t-7 -85.5t-3.5 -69q0 -6 -8 -6t-8 6q-1 26 -4 69t-7 85.5t-7 78t-3 46.5q0 14 8 22t21 8zM222 724q28 0 28 -30q0 -11 -3 -46.5t-6.5 -78t-7 -85.5t-3.5 -69q0 -6 -8 -6t-8 6q-1 26 -4 69t-6.5 85.5t-6.5 78t-3 46.5
q0 30 28 30z" />
    <glyph glyph-name="numbersign" unicode="#" horiz-adv-x="649" 
d="M174 241l38 220h-139v21h143l39 220h21l-39 -220h220l39 220h22l-39 -220h140v-21h-144l-38 -220h139v-21h-143l-39 -220h-21l39 220h-220l-39 -220h-22l39 220h-140v21h144zM415 241l39 220h-220l-39 -220h220z" />
    <glyph glyph-name="dollar" unicode="$" horiz-adv-x="510" 
d="M42 258q8 0 8 -6q7 -50 17 -92t31 -73t57 -48t95 -17v319h-1q-38 15 -72.5 32t-60.5 39.5t-41 52t-15 69.5q0 33 12 62t35.5 51t59 35.5t83.5 14.5v102q0 4 5 4h12q4 0 4 -4v-102q34 -2 71.5 -9t77.5 -22q10 -4 10 -12l4 -139q0 -6 -8 -6q-9 0 -9 6q-4 36 -12.5 65
t-25 51t-43 34.5t-65.5 15.5v-274q3 -2 9 -4q42 -14 78 -32t62.5 -43t41.5 -57t15 -73q0 -39 -13.5 -72.5t-39.5 -58.5t-64.5 -41t-88.5 -19v-102q0 -4 -4 -4h-12q-5 0 -5 4v101h-5q-47 0 -99 11.5t-97 31.5q-5 3 -7 5.5t-2 8.5l-6 189q0 6 8 6zM271 23q78 5 119 44.5
t41 101.5q0 30 -10.5 53.5t-31 42.5t-50 35t-68.5 32v-309zM250 415v266q-69 -2 -107 -34.5t-38 -86.5q0 -27 10 -48t29 -38t46 -31t60 -28z" />
    <glyph glyph-name="percent" unicode="%" horiz-adv-x="949" 
d="M30 509q0 50 13.5 90t37.5 68.5t58.5 44t76.5 15.5t75.5 -15.5t57.5 -44t37 -68.5t13 -90t-13 -90.5t-37 -69t-57.5 -44t-75.5 -15.5t-76.5 15.5t-58.5 44t-37.5 69t-13.5 90.5zM735 429q42 0 75.5 -15.5t57.5 -44t37 -68.5t13 -90t-13 -90.5t-37 -69t-57.5 -44
t-75.5 -15.5t-76.5 15.5t-58.5 44t-37.5 69t-13.5 90.5t13.5 90t37.5 68.5t58.5 44t76.5 15.5zM93 496q0 -95 32 -142t92 -47q58 0 88.5 46.5t30.5 142.5v26q0 96 -30.5 142.5t-88.5 46.5q-60 0 -92 -46.5t-32 -142.5v-26zM612 198q0 -95 32 -142t92 -47q58 0 88.5 46.5
t30.5 142.5v26q0 96 -30.5 142.5t-88.5 46.5q-60 0 -92 -46.5t-32 -142.5v-26zM189 -30l540 761h30l-541 -761h-29z" />
    <glyph glyph-name="ampersand" unicode="&#x26;" horiz-adv-x="739" 
d="M203 392l24 12q-18 47 -28.5 89.5t-10.5 78.5q0 67 40 106.5t105 39.5q59 0 93 -31.5t34 -85.5q0 -44 -29 -84t-101 -78l-40 -21q23 -56 57.5 -121.5t79.5 -143.5q20 -35 37 -58q38 42 60.5 101.5t22.5 128.5q0 44 -14 58.5t-43 15.5l-49 1q-5 0 -5 9t5 9
q23 -1 39.5 -1.5t29.5 -0.5h24.5h24.5h24.5h24.5t29 0.5t37 1.5q5 0 5 -9t-5 -9l-31 -1q-16 0 -26.5 -3t-17 -9.5t-10 -18t-5.5 -28.5q-8 -79 -36.5 -144.5t-74.5 -113.5q29 -37 55 -51.5t55 -14.5t51 12t37.5 33t25.5 49t16 61q2 3 6 3q8 0 10 -7q-17 -83 -55.5 -131
t-113.5 -48q-36 0 -67.5 13t-62.5 44q-37 -26 -80 -40.5t-92 -14.5q-50 0 -90.5 15t-68.5 41.5t-43 62t-15 77.5q0 63 38 113t124 93zM291 17q71 0 128 40q-16 18 -32.5 41.5t-33.5 53.5q-32 57 -64 117t-56 119l-12 -6q-50 -25 -81 -63.5t-31 -105.5q0 -42 12.5 -78
t35.5 -62t57 -41t77 -15zM284 434l23 12q58 30 84 66t26 88q0 46 -20 73.5t-62 27.5q-17 0 -33 -5.5t-28.5 -18.5t-20 -34t-7.5 -51q0 -65 38 -158z" />
    <glyph glyph-name="quotesingle" unicode="'" horiz-adv-x="242" 
d="M121 724q28 0 28 -30q0 -11 -3 -46.5t-6.5 -78t-6.5 -85.5t-4 -69q0 -6 -8 -6t-8 6q-1 26 -4 69t-6.5 85.5t-6.5 78t-3 46.5q0 30 28 30z" />
    <glyph glyph-name="parenleft" unicode="(" horiz-adv-x="304" 
d="M46 241q0 149 55 273t161 210q10 0 10 -11q-88 -87 -131 -207t-43 -265t43 -265t131 -208q0 -10 -10 -10q-106 86 -161 210t-55 273z" />
    <glyph glyph-name="parenright" unicode=")" horiz-adv-x="304" 
d="M32 713q0 11 11 11q106 -86 161 -210t55 -273t-55 -273t-161 -210q-11 0 -11 10q88 88 131 208t43 265t-43 265t-131 207z" />
    <glyph glyph-name="asterisk" unicode="*" horiz-adv-x="382" 
d="M22 478q0 14 15 22q13 7 51.5 18.5t86.5 34.5v4q-48 23 -86 35t-52 19q-15 8 -15 22q0 11 8.5 21.5t19.5 10.5q6 0 16 -5q6 -3 17 -12.5t25.5 -22t32.5 -27t40 -29.5l4 2q-4 52 -13.5 91.5t-9.5 54.5q0 27 29 27t29 -27q0 -7 -2.5 -21t-6 -33.5t-7.5 -42.5t-6 -49l4 -2
q21 15 39.5 29.5t32.5 27.5t25 22t17 13q7 4 15 4q12 0 20 -10.5t8 -21.5q0 -14 -14 -22q-13 -8 -51.5 -19.5t-85.5 -33.5v-5q23 -11 45 -19t40.5 -14.5t32 -11t19.5 -8.5q15 -10 15 -23q0 -11 -8.5 -21.5t-19.5 -10.5q-6 0 -16 5q-6 3 -16.5 12.5t-25 22t-33 27.5t-39.5 30
l-4 -2q4 -53 13 -92t9 -54q0 -28 -29 -28t-29 28q0 14 9.5 54t13.5 92l-4 2q-43 -30 -72.5 -57t-42.5 -35q-10 -5 -16 -5q-12 0 -20 11t-8 22z" />
    <glyph glyph-name="plus" unicode="+" horiz-adv-x="600" 
d="M35 240v21h254v254h21v-254h255v-21h-255v-255h-21v255h-254z" />
    <glyph glyph-name="comma" unicode="," horiz-adv-x="229" 
d="M48 34q0 23 14.5 35.5t37.5 12.5q34 0 54 -26.5t20 -68.5q0 -15 -4 -35t-15 -42t-32 -45.5t-54 -45.5q-9 0 -9 10q47 33 69 71.5t22 73.5q0 14 -4 28t-14 24h-3q-1 -17 -11.5 -26.5t-27.5 -9.5q-20 0 -31.5 12t-11.5 32z" />
    <glyph glyph-name="hyphen" unicode="-" horiz-adv-x="324" 
d="M52 278h220q6 0 6 -5v-38q0 -5 -6 -5h-220q-6 0 -6 5v38q0 5 6 5z" />
    <glyph glyph-name="period" unicode="." horiz-adv-x="189" 
d="M46 38q0 21 13.5 34.5t34.5 13.5t34.5 -13.5t13.5 -34.5t-13.5 -34.5t-34.5 -13.5t-34.5 13.5t-13.5 34.5z" />
    <glyph glyph-name="slash" unicode="/" horiz-adv-x="383" 
d="M350 730h23l-340 -934h-23z" />
    <glyph glyph-name="zero" unicode="0" horiz-adv-x="614" 
d="M44 351q0 82 20 149t55 114.5t84 73.5t106 26t104.5 -26t82.5 -73.5t54.5 -114.5t19.5 -149t-19.5 -149t-54.5 -114.5t-82.5 -73.5t-104.5 -26t-106 26t-84 73.5t-55 114.5t-20 149zM311 5q89 0 141.5 85t52.5 248v26q0 163 -52.5 248t-141.5 85q-94 0 -147.5 -85
t-53.5 -248v-26q0 -163 53.5 -248t147.5 -85z" />
    <glyph glyph-name="one" unicode="1" horiz-adv-x="317" 
d="M36 6q0 7 5 8l79 2q6 1 10 3t4 11v640q0 16 -17 16h-74q-4 0 -4 8t5 8h47h39t53 2q11 0 11 -11v-664q0 -8 3.5 -10t8.5 -3l76 -2q6 -1 6 -8q0 -8 -6 -8q-27 1 -44.5 1.5t-29.5 0.5h-21.5h-21.5h-24.5h-23t-30.5 -0.5t-46 -1.5q-5 0 -5 8z" />
    <glyph glyph-name="two" unicode="2" horiz-adv-x="566" 
d="M263 715q50 0 91.5 -14t70.5 -40.5t45 -64t16 -84.5q0 -48 -15 -84.5t-41 -68t-62 -61t-77.5 -63.5t-87.5 -76.5t-93 -99.5q0 -3 3 -3q30 2 56 2.5t54.5 1.5t62.5 1h80q30 0 51 3t38 17.5t32 44.5t33 83q1 4 6 4q10 0 10 -7l-82 -203q-2 -5 -9 -5q-62 2 -102.5 2h-78.5
h-41t-40 -0.5t-48 -1.5t-66 -3q-6 0 -11 9t-5 14q0 3 1 5t3 5q35 44 79 89.5t110 105.5q40 36 72 70t54.5 68.5t34.5 70.5t12 77v4q0 42 -13 75t-36 56.5t-55 35.5t-70 12q-42 0 -77 -13t-60 -36.5t-39 -56.5t-14 -73q0 -42 17.5 -81t55.5 -67q0 -4 -2.5 -8t-6.5 -4
q-2 0 -3 0.5t-5 3.5q-38 30 -55 71t-17 85q0 48 18 86t48.5 63.5t71 39t86.5 13.5z" />
    <glyph glyph-name="three" unicode="3" horiz-adv-x="534" 
d="M39 150q0 3 3 5t6 2t5 -2q18 -67 70 -108.5t132 -41.5q85 0 130 52.5t45 155.5v16q0 97 -41.5 149.5t-119.5 52.5q-20 0 -39 -4t-39 -15.5t-43.5 -32t-53.5 -53.5q-5 0 -8.5 3t-3.5 9l310 308l-1 1h-102.5t-105.5 -1q-19 0 -32 -1.5t-23 -6.5t-18 -15t-16 -28l-23 -51
q-1 -2 -3 -2.5t-4 -0.5q-9 0 -9 6l62 148q2 7 10 7h69t86 0.5t91 1.5t85 2q3 0 5 -3t2 -6t-2 -6l-260 -256l1 -1q17 7 36 11t42 4q45 0 84 -16t67.5 -45t45 -71t16.5 -93q0 -54 -17 -97.5t-48 -74t-74.5 -47.5t-97.5 -17q-82 0 -141 41.5t-78 120.5z" />
    <glyph glyph-name="four" unicode="4" horiz-adv-x="505" 
d="M13 252l324 456q5 8 9 9.5t10 1.5h4q12 0 12 -11q-1 -43 -1.5 -97t-0.5 -113v-119v-116q0 -6 6 -6h40q23 0 33.5 10t10.5 42v18q0 5 9 5q8 0 8 -5q-2 -32 -2 -48.5v-30.5v-29t2 -42q0 -5 -9 -5q-8 0 -8 5v14q0 28 -10.5 38.5t-33.5 10.5h-40q-6 0 -6 -6v-114t2 -114
q0 -6 -6 -6h-49q-6 0 -6 6v228q0 6 -6 6h-283q-3 0 -6 3.5t-3 8.5zM37 257h268q6 0 6 6v382z" />
    <glyph glyph-name="five" unicode="5" horiz-adv-x="518" 
d="M27 195q0 7 8 7q5 0 8 -4q11 -91 63 -140.5t128 -49.5q87 0 131.5 58t44.5 169v17q0 100 -40 153t-120 53q-62 0 -109.5 -33.5t-64.5 -102.5q-1 -4 -8 -4q-3 0 -7 1.5t-5 6.5l100 367q2 6 4.5 7.5t7.5 1.5h182q23 0 39 3.5t27 11.5t19 21.5t15 34.5q1 3 5 3q10 0 10 -6
l-3 -12q-15 -61 -46 -87t-90 -26q-38 0 -73.5 0.5t-81.5 1.5q-7 0 -9.5 -3t-5.5 -12l-69 -250l2 -1q17 30 38.5 49t44.5 29.5t46.5 14.5t45.5 4q52 0 91.5 -17t66.5 -48t40.5 -74t13.5 -95q0 -56 -16 -102.5t-46 -80.5t-73 -52.5t-98 -18.5q-87 0 -145 52t-71 153z" />
    <glyph glyph-name="six" unicode="6" horiz-adv-x="541" 
d="M44 311q0 86 20 159t56.5 127t87.5 84.5t112 30.5q33 0 61.5 -8.5t49.5 -24t32.5 -36t11.5 -44.5q0 -17 -9.5 -24.5t-24.5 -7.5q-14 0 -23.5 7t-9.5 21q0 11 2.5 20.5t2.5 21.5q0 27 -25.5 43t-67.5 16q-49 0 -87.5 -25.5t-66 -72t-42.5 -112.5t-16 -148h2
q21 71 71 105.5t112 34.5q45 0 82.5 -16.5t64.5 -47t42 -75t15 -100.5q0 -55 -16 -101t-45.5 -79t-70 -51.5t-89.5 -18.5q-54 0 -97 22t-73 63.5t-46 101t-16 135.5zM277 5q72 0 113.5 56.5t41.5 169.5v16q0 107 -40 159.5t-107 52.5q-37 0 -68 -14.5t-53.5 -39t-35.5 -57
t-13 -68.5v-21q0 -126 42 -190t120 -64z" />
    <glyph glyph-name="seven" unicode="7" horiz-adv-x="488" 
d="M75 696q2 6 9 6h204h23.5h30t47.5 0.5t77 1.5q11 -5 11 -15q-6 -13 -15 -28t-20 -29q-79 -107 -154.5 -214t-150.5 -215q-35 -51 -47 -80.5t-12 -50.5q0 -23 10 -36.5t25 -17.5l1 1q1 24 12 36t29 12q17 0 27 -10t10 -26q0 -19 -13.5 -31t-39.5 -12q-35 0 -57.5 21.5
t-22.5 59.5q0 14 3.5 28.5t11.5 31.5t21 38.5t32 49.5q149 213 303 426l-1 2h-346q-11 0 -16 -12l-36 -83q-1 -3 -6 -3q-3 0 -6 2.5t-3 5.5z" />
    <glyph glyph-name="eight" unicode="8" horiz-adv-x="548" 
d="M39 184q0 69 40 119t125 71q-63 27 -98.5 67.5t-35.5 104.5q0 79 54.5 123.5t153.5 44.5q96 0 152.5 -40t56.5 -118q0 -24 -7 -48t-24.5 -45.5t-47.5 -39t-77 -29.5q44 -16 77.5 -35.5t56 -43.5t33.5 -54.5t11 -68.5q0 -95 -62 -149.5t-171 -54.5q-111 0 -174 51.5
t-63 144.5zM275 5q88 0 135 44t47 120q0 36 -11.5 62.5t-33 47t-52 36t-68.5 28.5l-62 21q-66 -15 -102.5 -61t-36.5 -118q0 -88 48.5 -134t135.5 -46zM123 564q0 -54 33.5 -87t106.5 -59l43 -15q66 20 98.5 56.5t32.5 95.5q0 71 -42.5 106.5t-117.5 35.5q-74 0 -114 -35.5
t-40 -97.5z" />
    <glyph glyph-name="nine" unicode="9" horiz-adv-x="541" 
d="M44 462q0 55 16 101t45.5 79t70 51.5t89.5 18.5q54 0 97 -22t73 -63.5t46 -101t16 -135.5q0 -85 -20 -158.5t-56.5 -127.5t-87.5 -84.5t-112 -30.5q-33 0 -61.5 8.5t-49 24t-32 36t-11.5 44.5q0 17 9 24.5t24 7.5t24 -7t9 -21q0 -11 -2.5 -20.5t-2.5 -21.5
q0 -27 25.5 -43t67.5 -16q49 0 87.5 25.5t66 72t42.5 112.5t16 148h-1q-22 -71 -72 -105.5t-112 -34.5q-45 0 -82.5 16.5t-64.5 47t-42 75t-15 100.5zM109 470v-16q0 -107 40.5 -159.5t106.5 -52.5q37 0 68 14.5t54 39t36 57t13 68.5v21q0 126 -42.5 190t-120.5 64
q-72 0 -113.5 -56.5t-41.5 -169.5z" />
    <glyph glyph-name="colon" unicode=":" horiz-adv-x="189" 
d="M46 381q0 21 13.5 34.5t34.5 13.5t34.5 -13.5t13.5 -34.5t-13.5 -35t-34.5 -14t-34.5 14t-13.5 35zM94 86q21 0 34.5 -13.5t13.5 -34.5t-13.5 -34.5t-34.5 -13.5t-34.5 13.5t-13.5 34.5t13.5 34.5t34.5 13.5z" />
    <glyph glyph-name="semicolon" unicode=";" horiz-adv-x="229" 
d="M100 82q34 0 54 -26.5t20 -68.5q0 -15 -4 -35t-15 -42t-32 -45.5t-54 -45.5q-9 0 -9 10q47 33 69 71.5t22 73.5q0 14 -4 28t-14 24h-3q-1 -17 -11.5 -26.5t-27.5 -9.5q-20 0 -31.5 12t-11.5 32q0 23 14.5 35.5t37.5 12.5zM46 381q0 21 13.5 34.5t34.5 13.5t34.5 -13.5
t13.5 -34.5t-13.5 -35t-34.5 -14t-34.5 14t-13.5 35z" />
    <glyph glyph-name="less" unicode="&#x3c;" horiz-adv-x="600" 
d="M565 461v-21l-509 -190l509 -190v-21l-530 199v24z" />
    <glyph glyph-name="equal" unicode="=" horiz-adv-x="600" 
d="M35 367h530v-21h-530v21zM565 155v-21h-530v21h530z" />
    <glyph glyph-name="greater" unicode="&#x3e;" horiz-adv-x="600" 
d="M35 440v21l530 -199v-24l-530 -199v21l509 190z" />
    <glyph glyph-name="question" unicode="?" horiz-adv-x="411" 
d="M17 616q0 21 10.5 40.5t30.5 34.5t49 23.5t65 8.5q46 0 84.5 -14t66.5 -40t43.5 -62.5t15.5 -82.5q0 -73 -34.5 -118t-107.5 -72q-14 -5 -21 -7t-18 -7q-18 -7 -30 -14t-19.5 -17t-11 -23.5t-3.5 -33.5v-54q0 -3 -4 -3h-9q-4 0 -4 3v55q0 41 15 64t59 40q35 14 59.5 29
t39.5 36t22 50t7 71q0 50 -11 85t-30.5 57t-46.5 32t-60 10q-37 0 -65 -15t-28 -45q0 -13 4 -19.5t4 -17.5q0 -17 -10 -27t-26 -10q-36 0 -36 43zM91 33q0 18 12 30.5t30 12.5q19 0 31 -12.5t12 -30.5t-12 -30.5t-31 -12.5q-18 0 -30 12.5t-12 30.5z" />
    <glyph glyph-name="at" unicode="@" horiz-adv-x="790" 
d="M47 217q0 77 26.5 145.5t75.5 120t120 82t159 30.5q77 0 136 -21t99 -57.5t60 -85.5t20 -104q0 -59 -20.5 -107.5t-54 -83t-76 -53.5t-86.5 -19q-70 0 -70 50q0 23 17 64l-2 1q-47 -63 -88.5 -88.5t-80.5 -25.5q-37 0 -63 22t-26 74q0 48 22.5 99.5t58.5 94t81.5 70.5
t92.5 28q33 0 55 -15.5t29 -46.5q7 16 12.5 28t10.5 22q2 5 4 6.5t7 1.5h30q6 0 6 -5q0 -2 -0.5 -4.5t-4.5 -12.5l-90 -225q-11 -26 -18 -48.5t-7 -40.5q0 -14 7.5 -22.5t31.5 -8.5q32 0 64.5 16.5t58.5 48t42.5 76.5t16.5 102q0 64 -21 112t-57.5 79.5t-86.5 47t-109 15.5
q-75 0 -137.5 -27.5t-107.5 -75.5t-70 -114t-25 -144q0 -76 23 -131.5t64 -92.5t98 -55t124 -18q79 0 132.5 19t85.5 37q5 -1 7 -4.5t2 -8.5q-35 -22 -93.5 -40.5t-137.5 -18.5q-81 0 -145 21.5t-109 62.5t-69 98.5t-24 129.5zM240 152q0 -34 15 -51.5t39 -17.5t50 15t51 39
t46.5 54.5t35.5 60.5q18 39 29.5 72t11.5 49q0 29 -17.5 46t-46.5 17q-25 0 -50.5 -14t-49.5 -37t-44.5 -52.5t-36 -61.5t-24.5 -63t-9 -56z" />
    <glyph glyph-name="A" unicode="A" horiz-adv-x="643" 
d="M1 7q0 8 5 8l74 1q8 0 12 3.5t6 9.5l223 681q2 6 7 6h5q4 0 7 -7l218 -679q2 -8 6 -10t17 -3l55 -2q6 0 6 -8t-6 -8q-25 0 -41 0.5t-27.5 0.5h-20.5h-21h-22h-23.5t-33 -0.5t-52.5 -1.5q-5 0 -5 8t5 8l85 2q13 1 13 10q0 4 -2 9l-63 200q-2 5 -5 5h-235q-3 0 -5 -5
l-66 -202q-2 -6 -2 -8q0 -9 12 -9l81 -2q5 0 5 -8t-5 -8q-27 1 -43.5 1.5t-27.5 0.5h-18.5h-16.5h-14h-17.5t-25.5 -0.5t-39 -0.5q-5 0 -5 8zM191 260q0 -4 4 -4h220q5 0 5 5v2.5t-2 6.5l-111 349l-114 -352q-2 -5 -2 -7z" />
    <glyph glyph-name="B" unicode="B" horiz-adv-x="625" 
d="M34 7q0 8 5 8l85 1q5 1 10 3.5t5 11.5v641q0 9 -4.5 11.5t-9.5 2.5l-84 1q-5 0 -5 8t5 8q32 0 52 -0.5t34 -0.5h25h26h18h17t20 0.5t26 0.5q16 0 28 0.5t22.5 0.5h21h23.5q85 0 129 -39.5t44 -115.5q0 -75 -39.5 -113.5t-114.5 -49.5v-1q103 -4 156.5 -50t53.5 -138
q0 -96 -49 -147.5t-157 -51.5h-24.5h-21t-22.5 0.5t-30 0.5q-19 0 -32.5 0.5t-24 0.5h-20.5h-23h-31h-30.5t-34.5 -0.5t-44 -0.5q-5 0 -5 8zM214 17q26 -1 53 -1h62q99 0 141 43t42 140v2q0 90 -44 131.5t-150 41.5h-110q-6 0 -6 -7v-340q0 -7 3.5 -8.5t8.5 -1.5zM208 390
h80q49 0 82.5 9t54.5 27.5t30.5 47t9.5 67.5v3q0 75 -35.5 109t-116.5 34h-21h-19t-21.5 -0.5t-26.5 -0.5q-11 0 -17 -1.5t-6 -8.5v-280q0 -6 6 -6z" />
    <glyph glyph-name="C" unicode="C" horiz-adv-x="705" 
d="M47 348q0 84 24.5 152.5t69.5 117t108 74.5t141 26q69 0 130.5 -16t107.5 -44q6 -4 6 -10v-161q0 -6 -8 -6t-9 7q-4 48 -11.5 84.5t-24.5 59.5q-28 37 -78.5 53.5t-111.5 16.5q-131 0 -200 -87t-69 -261v-2q0 -179 67.5 -265t200.5 -86q68 0 120 21.5t77 63.5
q8 12 13 30.5t8.5 40.5t6 45t3.5 45q0 6 8 6t8 -5l-1 -182q0 -5 -1 -6.5t-4 -3.5q-52 -38 -112.5 -54.5t-125.5 -16.5q-78 0 -141.5 25.5t-108.5 73t-69 114.5t-24 150z" />
    <glyph glyph-name="D" unicode="D" horiz-adv-x="781" 
d="M34 695q0 9 5 9q28 -1 45 -1.5t30 -0.5h25h28h31.5h30t33 0.5t41.5 0.5q26 0 45.5 0.5t36 0.5h31.5h30q140 0 213.5 -87t73.5 -254q0 -181 -84 -273t-239 -92h-56t-68 1q-39 1 -64 1h-55h-29t-27 -0.5t-31 -1t-41 -0.5q-5 0 -5 9q0 8 5 8l81 2q6 0 10.5 3.5t4.5 10.5v640
q0 14 -15 14l-81 2q-5 0 -5 8zM199 675v-647q0 -11 11 -11q93 -3 187 -3q135 0 200.5 81.5t65.5 256.5v8q0 328 -236 328l-114 -1q-27 0 -42.5 -0.5t-25 -0.5t-17 -0.5t-18.5 -0.5t-11 -10z" />
    <glyph glyph-name="E" unicode="E" horiz-adv-x="688" 
d="M34 6q0 8 4 8l86 2q6 0 10.5 4t4.5 10v641q0 14 -15 14l-82 2q-4 0 -4 8t4 8q30 0 49 -0.5t32.5 -0.5h24h23.5h60h50.5t51.5 0.5t62.5 0.5t83 0.5t113.5 1.5q6 0 6 -6v-188q0 -4 -8 -4t-8 4q-1 59 -6.5 94t-23.5 53t-53 23t-95 5h-187q-5 0 -9.5 -3.5t-4.5 -11.5v-295
q0 -6 6 -6h72q48 0 77.5 2.5t45 14.5t20.5 38t5 74q0 5 8 5t8 -5q-1 -40 -1 -72.5v-64.5v-66.5t1 -72.5q0 -5 -8 -5t-8 5q0 48 -5.5 74.5t-21 39t-44.5 15t-77 2.5h-72q-6 0 -6 -6v-317q0 -8 4.5 -11.5t9.5 -3.5h198q67 0 107 5.5t61 25.5t27.5 59t7.5 106q0 5 8 5t8 -5
l-1 -209q0 -6 -5 -6q-66 1 -114 1.5t-84.5 0.5t-64 0.5t-53.5 0.5h-54h-64h-38h-32.5t-36.5 -0.5t-49 -1.5q-4 0 -4 8z" />
    <glyph glyph-name="F" unicode="F" horiz-adv-x="642" 
d="M34 695q0 9 5 9q29 -1 48.5 -1.5t34.5 -0.5h28.5h31.5h62.5h51.5t51.5 0.5t60.5 0.5t79 0.5t108 1.5q6 0 6 -6v-194q0 -6 -8 -6t-8 6q-1 60 -6.5 96t-24 55t-54 24.5t-96.5 5.5h-187q-13 0 -13 -14v-304q0 -6 6 -6h74q49 0 77.5 3t44 16.5t20 40t5.5 73.5q0 5 8 5t8 -5
v-278q0 -5 -8 -5t-8 5q-1 47 -6 73t-21 38.5t-44.5 15t-75.5 2.5h-74q-6 0 -6 -6v-310q0 -14 14 -14l102 -2q4 0 4 -8t-4 -8q-33 1 -53 1.5t-35 0.5h-27.5h-29.5h-30.5h-28t-33 -0.5t-45.5 -0.5q-4 0 -4 8t4 8l89 1q13 0 13 14v642q0 14 -14 14l-87 1q-5 2 -5 8z" />
    <glyph glyph-name="G" unicode="G" horiz-adv-x="760" 
d="M47 347q0 86 24 154.5t69 116.5t109 74t144 26q71 0 126.5 -13.5t101.5 -36.5q5 -2 5.5 -4.5t0.5 -6.5v-172q0 -5 -8 -5q-9 0 -9 6q-1 49 -8.5 89t-30.5 66q-26 31 -73.5 45.5t-105.5 14.5q-134 0 -201.5 -86.5t-67.5 -266.5v-1q0 -169 66.5 -256.5t200.5 -87.5
q39 0 74 8t60.5 22.5t40.5 35.5t15 47v191q0 9 -4.5 12t-10.5 3l-86 2q-5 1 -5 9t5 8q29 -1 47 -1.5t31.5 -1t25.5 -0.5h28h28.5t24.5 0.5t29.5 1t43.5 1.5q5 0 5 -9q0 -7 -5 -8l-79 -2q-5 0 -9.5 -3t-4.5 -12v-228q0 -6 -5 -10q-63 -48 -124 -65.5t-127 -17.5
q-81 0 -144.5 25t-107 71.5t-66.5 113.5t-23 151z" />
    <glyph glyph-name="H" unicode="H" horiz-adv-x="791" 
d="M34 695q0 8 5 8q29 0 47.5 -0.5t32 -0.5h24.5h25h28.5h28.5t33.5 0.5t42.5 1.5q5 0 5 -8t-5 -8l-87 -1q-15 0 -15 -15v-303q0 -6 6 -6h379q6 0 6 6v305q0 13 -16 13l-86 1q-5 0 -5 8t5 8q30 -1 49.5 -1.5t33.5 -0.5h25.5h25.5h25.5h25t31.5 0.5t46 0.5q5 0 5 -8t-5 -8
h-84q-13 0 -13 -14v-643q0 -15 14 -15h86q4 0 4 -7q0 -9 -4 -9q-27 0 -45.5 0.5t-33 0.5h-26h-25.5h-24.5h-25t-33 -0.5t-49.5 -1.5q-5 0 -5 8q0 9 5 9l84 1q15 0 15 13v312q0 6 -6 6h-379q-6 0 -6 -6v-313q0 -12 14 -12l89 -1q4 0 4 -8q0 -9 -4 -9q-30 1 -49 1.5t-33.5 0.5
h-26h-26.5h-24h-24t-31.5 -0.5t-48.5 -0.5q-5 0 -5 8t5 8l83 1q14 1 14 14v645q0 12 -14 12h-83q-5 0 -5 8z" />
    <glyph glyph-name="I" unicode="I" horiz-adv-x="345" 
d="M34 696q0 8 5 8q30 -1 49 -1.5t32.5 -0.5h25h26.5h29.5h27t32.5 0.5t45 1.5q5 0 5 -9q0 -8 -5 -8l-88 -1q-5 0 -9.5 -3t-4.5 -11v-643q0 -8 4 -10.5t10 -2.5l88 -1q5 -1 5 -8q0 -8 -5 -8q-29 0 -47.5 0.5t-32 0.5h-25.5h-29h-28h-25.5t-32 -0.5t-47.5 -0.5q-5 0 -5 8t5 8
l87 1q5 0 10 2.5t5 12.5v641q0 9 -4 11.5t-10 2.5l-88 1q-5 1 -5 9z" />
    <glyph glyph-name="J" unicode="J" horiz-adv-x="443" 
d="M64 121q18 0 29.5 -12t11.5 -31q0 -16 -9.5 -27.5t-29.5 -15.5q28 -31 85 -31q45 0 64 20t19 59v588q0 9 -4 11.5t-9 2.5l-88 2q-5 1 -5 9q0 7 5 7q27 0 45 -0.5t32 -0.5h27h29h29h26t32 0.5t45 0.5q4 0 4 -7q0 -8 -4 -9l-85 -2q-6 0 -10.5 -2.5t-4.5 -11.5v-571
q0 -54 -35.5 -83t-107.5 -29q-63 0 -98.5 25t-35.5 61q0 21 11.5 34t31.5 13z" />
    <glyph glyph-name="K" unicode="K" horiz-adv-x="686" 
d="M39 15l88 1q13 0 13 13v643q0 14 -13 14l-88 1q-5 0 -5 9q0 7 5 7q27 0 44.5 -0.5t31.5 -0.5h26.5h28.5h28h25.5t30.5 0.5t44 1.5q5 0 5 -7q0 -9 -5 -9l-81 -2q-13 0 -13 -14v-267q0 -6 6 -6h76l194 269q5 8 5 10q0 8 -11 8l-65 2q-5 0 -5 8t5 8q23 -1 37.5 -1.5t24 -0.5
h16h13.5h18h17.5t21.5 0.5t30 0.5q5 0 5 -8t-5 -8l-64 -1q-12 -1 -18 -10l-177 -241l252 -408q5 -6 8.5 -8t14.5 -3l76 -1q5 0 5 -8t-5 -8q-28 0 -46 0.5t-30.5 0.5h-23.5h-26h-24.5h-24t-33 -0.5t-51.5 -1.5q-5 0 -5 8q0 6 5 8l74 2q12 0 12 7q0 3 -4 10l-211 347
q-2 4 -7 4h-75q-5 0 -5 -6v-349q0 -13 13 -13l87 -2q5 0 5 -8t-5 -8q-29 1 -47 1.5t-32 0.5h-26h-29h-27h-24.5t-31.5 -0.5t-48 -0.5q-5 0 -5 8t5 8z" />
    <glyph glyph-name="L" unicode="L" horiz-adv-x="667" 
d="M34 7q0 8 5 8l89 2q14 0 14 13v641q0 9 -5 12t-10 3l-87 1q-5 2 -5 8q0 8 5 8q29 0 47.5 -0.5t32 -0.5h25h27.5h28h25.5t32 0.5t48.5 1.5q5 0 5 -8t-5 -8l-86 -2q-6 -1 -10.5 -3.5t-4.5 -11.5v-641q0 -14 13 -14h191q70 0 109 7t59 29.5t26.5 64t10.5 110.5q0 5 8 5t8 -5
v-222q0 -7 -7 -7q-73 0 -124.5 0.5t-89.5 1t-66.5 0.5h-54.5h-53h-63h-28h-25.5t-32 -0.5t-47.5 -0.5q-5 0 -5 8z" />
    <glyph glyph-name="M" unicode="M" horiz-adv-x="910" 
d="M39 703q20 0 32.5 -0.5t21.5 -0.5h15h13h31.5t46.5 2q5 0 7 -4l256 -626l243 626q1 4 6 4q38 -1 53.5 -1.5t28.5 -0.5h12h14.5t20.5 0.5t31 0.5q5 0 5 -8t-5 -8l-84 -2q-5 0 -8.5 -2t-3.5 -10v-645q0 -11 14 -11l82 -2q5 0 5 -8t-5 -8q-31 0 -50.5 0.5t-33 0.5h-23.5h-21
h-21.5h-23t-32.5 -0.5t-50 -1.5q-5 0 -5 8t5 8l81 3q7 0 10.5 2t3.5 10v638h-2l-260 -671q-2 -5 -3.5 -5.5t-4.5 -0.5h-5q-2 0 -4.5 0.5t-4.5 5.5l-275 674h-2v-642q0 -8 3.5 -10.5t9.5 -2.5l83 -1q4 0 4 -8t-4 -8q-25 1 -40.5 1.5t-26.5 0.5h-19.5h-17.5h-21.5h-20
t-23 -0.5t-31.5 -0.5q-5 0 -5 8t5 8h75q6 0 9.5 2.5t3.5 10.5v641q0 10 -5 12.5t-11 3.5l-79 2q-5 0 -5 8t5 8z" />
    <glyph glyph-name="N" unicode="N" horiz-adv-x="760" 
d="M34 695q0 8 5 8q17 0 28.5 -0.5t20 -0.5h15.5h15h15.5h16.5t20.5 0.5t27.5 0.5q3 0 5 -1t6 -6l413 -601h2v575q0 10 -4.5 12.5t-11.5 3.5l-80 2q-5 0 -5 8t5 8q24 -1 39.5 -1.5t26.5 -0.5h19.5h18.5h19h18.5t25.5 0.5t39 0.5q5 0 5 -7q0 -9 -5 -9l-79 -1
q-6 -1 -10.5 -3.5t-4.5 -12.5v-672q0 -9 -8 -9h-5q-6 0 -11 7l-461 670h-2v-635q0 -9 4 -12t11 -3l81 -2q5 0 5 -8t-5 -8q-25 1 -41 1.5t-27 0.5h-19h-17h-18h-18.5t-26 -0.5t-40.5 -0.5q-5 0 -5 8t5 8l80 1q7 0 11 2.5t4 11.5v640q0 10 -5 12.5t-10 2.5l-83 1q-5 0 -5 9z
" />
    <glyph glyph-name="O" unicode="O" horiz-adv-x="741" 
d="M47 349q0 83 23.5 150.5t66 115.5t102.5 74.5t133 26.5q72 0 131.5 -25.5t102 -72.5t65.5 -113.5t23 -149.5t-23.5 -151t-66 -116.5t-102 -75t-131.5 -26.5q-73 0 -132.5 25.5t-102 73t-66 114.5t-23.5 150zM372 2q121 0 184.5 87t63.5 258v2q0 172 -64 261.5t-184 89.5
q-123 0 -187 -86.5t-64 -257.5v-1q0 -175 64 -264t187 -89z" />
    <glyph glyph-name="P" unicode="P" horiz-adv-x="591" 
d="M39 703q32 0 51.5 -0.5t33.5 -0.5h26.5h28.5h19.5h17.5t20 0.5t26 0.5q17 0 29 0.5t21.5 0.5h18.5h21q101 0 150.5 -45.5t49.5 -143.5q0 -94 -49 -142.5t-151 -48.5h-147q-3 0 -3 -3v-291q0 -14 14 -14l89 -2q6 0 6 -8t-6 -8q-30 1 -48.5 1.5t-32 0.5h-25h-27.5h-29
h-25.5t-31.5 -0.5t-46 -0.5q-5 0 -5 8t5 8l85 1q13 0 13 14v641q0 15 -14 15l-85 1q-5 0 -5 9q0 7 5 7zM202 343q0 -3 3 -3h129q78 0 113.5 40t35.5 130v4q0 94 -36.5 134t-113.5 40q-32 0 -63.5 -0.5t-57.5 -1.5q-10 0 -10 -10v-333z" />
    <glyph glyph-name="Q" unicode="Q" horiz-adv-x="771" 
d="M47 346q0 83 24.5 150.5t69 116.5t106.5 75.5t138 26.5t138.5 -26.5t106.5 -74.5t68.5 -115.5t24.5 -150.5q0 -81 -24.5 -148t-68.5 -114.5t-106.5 -73.5t-138.5 -26q-8 0 -18 0.5t-22 2.5v-1q5 -5 12.5 -8.5t21.5 -8.5q36 -14 48.5 -44.5t13.5 -91.5q0 -28 5.5 -46.5
t16.5 -29.5t30 -15.5t46 -4.5h23q5 0 5 -8q0 -9 -5 -9h-48q-73 0 -104.5 25t-31.5 85v40q0 58 -20.5 86t-64.5 39q-57 15 -102.5 45.5t-77.5 75t-49 102t-17 126.5zM385 2q127 0 194.5 86.5t67.5 256.5v2q0 174 -67.5 262.5t-194.5 88.5q-128 0 -195 -87.5t-67 -261.5v-1
q0 -172 67 -259t195 -87z" />
    <glyph glyph-name="R" unicode="R" horiz-adv-x="656" 
d="M39 15l89 2q13 0 13 13v642q0 14 -13 14l-87 1q-5 0 -5 9q0 7 5 7q27 0 46.5 -0.5t35.5 -0.5h29.5h28.5h159q92 0 142.5 -42.5t50.5 -120.5q0 -69 -39 -114t-120 -61v-2q92 -7 131.5 -41t46.5 -102l14 -140q4 -38 22.5 -54t60.5 -16q8 0 15.5 0.5t20.5 2.5q5 0 5 -8
q0 -10 -10 -10q-14 -1 -34.5 -1.5t-36.5 -0.5q-57 0 -82.5 21.5t-30.5 72.5l-11 131q-3 36 -13.5 61.5t-31 42t-52 24t-75.5 7.5h-103q-5 0 -5 -5v-316q0 -15 15 -15l89 -2q5 0 5 -8t-5 -8q-29 1 -49 1.5t-34.5 0.5h-26h-23.5h-26h-28.5t-35 -0.5t-47.5 -0.5q-5 0 -5 8t5 8z
M205 675v-302q0 -5 5 -5h91q78 0 120.5 37.5t42.5 127.5v3q0 74 -38 112t-106 38h-105q-10 -1 -10 -11z" />
    <glyph glyph-name="S" unicode="S" horiz-adv-x="521" 
d="M49 256q7 0 8 -7q11 -57 19.5 -104t30.5 -76q26 -35 69.5 -50t89.5 -15q89 0 135.5 43t46.5 112q0 35 -12.5 61.5t-35.5 47.5t-57 39.5t-77 36.5q-38 16 -72.5 33.5t-60.5 40.5t-41 53t-15 71q0 36 12.5 67.5t37 55t62 37t87.5 13.5q37 0 78 -7.5t83 -25.5q10 -4 10 -13
l4 -148q0 -7 -8 -7q-9 0 -9 7q-4 39 -12.5 71.5t-26.5 56t-47.5 36.5t-73.5 13q-72 0 -112 -34.5t-40 -92.5q0 -33 12.5 -57t36 -43t55.5 -35t71 -32q41 -17 77 -36.5t62.5 -44t42 -57t15.5 -75.5q0 -44 -15 -81.5t-44.5 -64.5t-72.5 -42t-100 -15q-24 0 -50.5 3t-53.5 8.5
t-53 14t-49 19.5q-6 3 -8 5.5t-2 9.5l-6 201q0 7 9 7z" />
    <glyph glyph-name="T" unicode="T" horiz-adv-x="619" 
d="M13 697q0 7 7 7q52 -1 90 -1.5t70 -0.5h63h68h67.5h62.5t70 0.5t90 1.5q6 0 6 -7v-198q0 -6 -8 -6t-8 6q-4 57 -10 93.5t-24 57.5t-52.5 28.5t-95.5 7.5h-52q-15 0 -15 -14v-641q0 -15 15 -15l89 -2q5 0 5 -8t-5 -8q-27 1 -46 1.5t-34 0.5h-28h-27h-27t-27 -0.5t-34.5 -1
t-49.5 -1.5q-5 0 -5 9q0 8 5 8l92 2q14 0 14 13v643q0 14 -14 14h-51q-62 0 -97.5 -7.5t-53.5 -28.5t-24.5 -57.5t-9.5 -95.5q0 -5 -8 -5t-8 5v200z" />
    <glyph glyph-name="U" unicode="U" horiz-adv-x="785" 
d="M43 703q32 0 51.5 -0.5t33.5 -0.5h26h28h29h26.5t35 0.5t53.5 1.5q5 0 5 -8t-5 -8l-101 -2q-7 0 -11 -3t-4 -12v-506q0 -42 11.5 -72t36 -48.5t64 -27t95.5 -8.5q108 0 161.5 39.5t53.5 133.5v489q0 9 -5 12t-11 3l-80 2q-6 0 -6 8t6 8q24 -1 39 -1.5t26 -0.5h20h20h19.5
h19t25.5 0.5t38 0.5q5 0 5 -8t-5 -8l-80 -1q-6 0 -10.5 -3t-4.5 -12v-488q0 -102 -58.5 -148t-186.5 -46q-133 0 -195 41t-62 129v512q0 9 -4 12t-11 3l-88 1q-5 0 -5 8t5 8z" />
    <glyph glyph-name="V" unicode="V" horiz-adv-x="639" 
d="M6 704q24 -1 40 -1.5t28 -0.5h22.5h23.5h27.5h25t32 0.5t47.5 1.5q6 0 6 -8t-6 -8l-87 -2q-13 -2 -13 -9q0 -3 2 -8l195 -582h2l176 582q2 5 2.5 7t0.5 4q0 6 -11 6l-80 2q-5 0 -5 8t5 8q24 -1 39 -1.5t26 -0.5h20h21h17.5h16.5t22 0.5t32 0.5q5 0 5 -8t-5 -8l-70 -1
q-14 0 -17 -12l-206 -677q-2 -5 -3 -6.5t-6 -1.5h-4q-5 0 -6 1.5t-3 6.5q-57 169 -112.5 337.5t-120.5 340.5q-2 6 -5 8t-11 3l-63 1q-5 2 -5 8q0 9 5 9z" />
    <glyph glyph-name="W" unicode="W" horiz-adv-x="1084" 
d="M1 695q0 8 5 8q25 0 40.5 -0.5t27 -0.5h22h23.5h24.5h24.5t34 0.5t53 1.5q6 0 6 -8t-6 -8l-87 -2q-13 0 -13 -7q0 -2 0.5 -3.5t2.5 -6.5l194 -582l177 582q2 5 2 6.5v3.5q0 7 -12 7l-81 2q-5 0 -5 9q0 7 5 7q28 -1 45.5 -1.5t30 -0.5h23.5h26h26h23t28 0.5t41 1.5
q5 0 5 -8t-5 -8l-78 -2q-3 0 -6.5 -0.5t-3.5 -5.5q0 -2 0.5 -3.5t1.5 -5.5l197 -585l179 581q2 7 2 8.5v2.5q0 8 -11 8l-80 2q-5 0 -5 8t5 8q25 -1 40.5 -1.5t26.5 -0.5h19.5h18.5h19h18t22.5 0.5t31.5 0.5q5 0 5 -8t-5 -8l-71 -1q-14 0 -17 -12l-210 -679q-2 -7 -8 -7h-6
q-5 0 -7 7l-219 654l-199 -655q-1 -6 -7 -6h-5q-6 0 -8 7l-232 679q-3 7 -6.5 9t-11.5 3l-65 1q-5 0 -5 8z" />
    <glyph glyph-name="X" unicode="X" horiz-adv-x="638" 
d="M1 7q0 8 5 8l76 1q8 0 11.5 3t7.5 9l191 335l-173 310q-5 8 -8.5 10.5t-11.5 2.5l-62 1q-5 2 -5 8q0 8 5 8q26 0 42 -0.5t27.5 -0.5h21.5h23h28h24.5t28 0.5t38.5 1.5q5 0 5 -7q0 -9 -5 -9l-68 -2q-5 0 -9.5 -1.5t-4.5 -5.5t5 -12l136 -243l138 243q3 5 3.5 7.5t0.5 4.5
q0 5 -3.5 6t-5.5 1l-75 2q-5 1 -5 8q0 8 5 8q27 -1 43.5 -1.5t27 -0.5h18h14.5h21.5h20t23.5 0.5t31 0.5q5 0 5 -8t-5 -8l-79 -1q-7 0 -10 -3t-8 -10l-150 -266l211 -378q5 -8 8.5 -10t11.5 -3l62 -1q5 0 5 -8t-5 -8q-26 0 -42.5 0.5t-28.5 0.5h-20.5h-18.5h-23t-23 -0.5
t-32.5 -1t-50.5 -1.5q-5 0 -5 9q0 6 5 8l74 1q5 1 8.5 2.5t3.5 6.5q0 2 -0.5 4t-2.5 6l-174 312l-178 -312q-5 -9 -5 -12q0 -6 8 -6l81 -2q5 0 5 -8t-5 -8q-25 1 -41 1.5t-27 0.5h-19h-18h-20h-19t-23.5 -0.5t-34.5 -0.5q-5 0 -5 8z" />
    <glyph glyph-name="Y" unicode="Y" horiz-adv-x="600" 
d="M6 704q23 -1 38.5 -1.5t28 -0.5h23.5h24h25h25t33.5 0.5t50.5 1.5q5 0 5 -7q0 -9 -5 -9l-74 -2q-15 0 -15 -9q0 -2 4 -10l158 -272l153 274q4 8 4 10q0 7 -12 7l-76 2q-5 0 -5 9q0 7 5 7q25 -1 40.5 -1.5t26 -0.5h19h18.5h21h18.5t22.5 0.5t32 0.5q5 0 5 -8t-5 -8l-73 -1
q-8 0 -11.5 -3t-7.5 -9l-167 -296v-348q0 -8 4 -10.5t10 -3.5l90 -2q5 0 5 -8q0 -9 -5 -9q-30 1 -48.5 1.5t-32 1t-25.5 0.5h-29h-28t-25.5 -0.5t-32.5 -1t-49 -1.5q-5 0 -5 8q0 9 5 9l91 2q6 1 9.5 3.5t3.5 10.5v323q0 8 -1 13t-6 13l-175 296q-5 7 -8 9t-11 2l-66 1
q-5 0 -5 8q0 9 5 9z" />
    <glyph glyph-name="Z" unicode="Z" horiz-adv-x="652" 
d="M38 7l440 678q-52 1 -108 1h-116t-92 -7.5t-51 -29.5q-9 -10 -15 -27.5t-9.5 -40t-5.5 -48t-2 -51.5q0 -5 -9 -5q-8 0 -8 5l1 215q0 7 6 7q68 -1 124 -1.5t119 -0.5q60 0 116 0.5t123 1.5q6 -2 6 -10l-439 -676q61 -2 125.5 -2h130.5q72 0 111 8.5t61 31.5
q21 23 33.5 74.5t17.5 115.5q0 5 8 5q9 0 9 -5l-13 -242q0 -6 -6 -6q-38 1 -72 1.5t-67 0.5h-67.5h-73.5h-136t-136 -2q-5 3 -5 9z" />
    <glyph glyph-name="bracketleft" unicode="[" horiz-adv-x="355" 
d="M90 719l229 -2q4 0 4 -7q0 -8 -4 -8l-182 -2q-8 0 -8 -8v-903q0 -8 8 -8l182 -2q4 0 4 -7q0 -8 -4 -8l-229 -2q-10 0 -10 10v937q0 10 10 10z" />
    <glyph glyph-name="backslash" unicode="\" horiz-adv-x="383" 
d="M350 -204l-340 934h23l340 -934h-23z" />
    <glyph glyph-name="bracketright" unicode="]" horiz-adv-x="355" 
d="M32 710q0 7 4 7l229 2q10 0 10 -10v-937q0 -10 -10 -10l-229 2q-4 0 -4 8q0 7 4 7l182 2q8 0 8 8v903q0 8 -8 8l-182 2q-4 0 -4 8z" />
    <glyph glyph-name="asciicircum" unicode="^" horiz-adv-x="510" 
d="M243 628h24l199 -530h-21l-190 509l-190 -509h-21z" />
    <glyph glyph-name="underscore" unicode="_" 
d="M5 -105h490v-21h-490v21z" />
    <glyph glyph-name="grave" unicode="`" 
d="M121 735h40q7 0 10 -1.5t7 -8.5l98 -181q0 -4 -3 -6t-6 -2q-4 0 -7 3l-140 168q-7 9 -8.5 12t-1.5 7q0 9 11 9z" />
    <glyph glyph-name="a" unicode="a" horiz-adv-x="499" 
d="M38 129q0 35 9 59.5t26 40t42 24.5t56 14q59 9 96.5 18t66.5 25v55q0 52 -24 80t-83 28q-55 0 -78.5 -21.5t-23.5 -46.5q0 -8 1.5 -12.5t3.5 -8.5t3.5 -8t1.5 -11q0 -14 -9 -22t-23 -8q-33 0 -33 35q0 54 43.5 86.5t121.5 32.5q160 0 160 -140v-275q0 -34 10 -48t30 -14
q15 0 26.5 6t24.5 18q9 -2 9 -13q-17 -17 -36 -24.5t-44 -7.5q-38 0 -58.5 17t-21.5 55v46h-2q-10 -26 -23.5 -48t-33 -37.5t-45.5 -24.5t-61 -9q-63 0 -97.5 34.5t-34.5 104.5zM191 13q39 0 66.5 18t44.5 46t25 62.5t8 67.5v82l-2 2q-26 -13 -57.5 -20t-65.5 -12
q-30 -6 -50.5 -14.5t-33.5 -22.5t-19 -36t-6 -54q0 -33 7 -56t19 -37t28.5 -20t35.5 -6z" />
    <glyph glyph-name="b" unicode="b" horiz-adv-x="549" 
d="M20 717h36.5t29.5 0.5t29.5 1t36.5 1.5q4 0 4 -4v-246v-39t-1 -39l1 -1q26 51 68.5 74t93.5 23q48 0 85 -17t63 -48t39.5 -75.5t13.5 -100.5q0 -60 -14.5 -107.5t-41 -81.5t-65 -52t-86.5 -18q-60 0 -99.5 26.5t-56.5 68.5h-2q1 -14 1 -32.5v-47.5q0 -3 -3 -3h-54
q-3 0 -3 3v685q0 13 -13 13h-62q-5 0 -5 8t5 8zM155 326v-174q0 -30 11 -56t30.5 -46t46.5 -31.5t58 -11.5q76 0 113.5 62t37.5 176v5q0 106 -39.5 162t-109.5 56q-31 0 -58 -12t-47 -32t-31.5 -45.5t-11.5 -52.5z" />
    <glyph glyph-name="c" unicode="c" horiz-adv-x="488" 
d="M30 233q0 57 15.5 103.5t45.5 80.5t72.5 52.5t96.5 18.5q45 0 80 -12t59 -31.5t36.5 -44t12.5 -49.5q0 -21 -10.5 -30t-25.5 -9q-14 0 -23 8t-9 24q0 14 4.5 22t2.5 22q-1 19 -11.5 34.5t-27.5 26t-39.5 16.5t-47.5 6q-86 0 -126.5 -57.5t-40.5 -171.5v-11
q0 -60 12.5 -102.5t35 -70t54 -40t68.5 -12.5q52 0 99 32t74 112q1 3 6 3q9 0 9 -6q-17 -79 -70.5 -119.5t-128.5 -40.5q-51 0 -92 17t-70.5 48.5t-45 77.5t-15.5 103z" />
    <glyph glyph-name="d" unicode="d" horiz-adv-x="546" 
d="M30 243q0 114 52.5 179t146.5 65q53 0 95.5 -23t68.5 -75h1q-2 23 -2 43.5v40.5v213q0 15 -14 15h-82q-5 0 -5 8t5 8q44 0 78.5 0.5t74.5 2.5q4 0 4 -4v-685q0 -14 15 -14l58 -3q5 0 5 -8t-5 -8q-21 1 -34 1.5t-22 0.5h-15h-12h-21t-26 -1q-3 0 -3 3v39t1 44h-1
q-19 -45 -58.5 -71t-99.5 -26q-97 0 -151 68t-54 187zM247 6q32 0 58.5 11.5t46 31.5t30.5 46.5t11 56.5v170q0 28 -11.5 54.5t-31.5 46.5t-47 32.5t-59 12.5q-72 0 -110 -55t-38 -163v-5q0 -116 38 -177.5t113 -61.5z" />
    <glyph glyph-name="e" unicode="e" 
d="M30 238q0 57 16 103.5t45.5 79.5t71.5 51t93 18q48 0 87 -16t67 -44.5t43.5 -68t15.5 -87.5q0 -6 -6 -6h-360q-6 0 -6 -7v-36q0 -108 47.5 -163t126.5 -55q62 0 105.5 35t63.5 92q3 3 6 3q10 0 10 -7q-22 -66 -74 -104t-127 -38q-50 0 -91.5 17t-71 49t-46 78.5
t-16.5 105.5zM105 284h292q5 0 5 6v3q0 39 -10 72t-28.5 57t-46.5 37.5t-64 13.5q-37 0 -66 -15t-48.5 -40t-29.5 -58t-10 -68v-3q0 -5 6 -5z" />
    <glyph glyph-name="f" unicode="f" horiz-adv-x="271" 
d="M15 468q0 7 5 7h69q6 0 6 6v114q0 70 35.5 100t105.5 30q63 0 97.5 -25.5t34.5 -70.5q0 -44 -35 -44q-15 0 -24.5 9t-9.5 26q0 11 2.5 19t2.5 19q0 24 -18 37.5t-51 13.5q-42 0 -60 -21t-18 -72v-135q0 -6 5 -6h83q5 0 5 -7q0 -9 -5 -9h-83q-5 0 -5 -6v-423q0 -14 13 -14
l76 -2q5 0 5 -8t-5 -8q-28 1 -45.5 1.5t-29.5 0.5h-21.5h-21.5h-20.5t-20 -0.5t-27 -1t-40.5 -1.5q-5 0 -5 9q0 8 5 8l61 2q14 0 14 14v423q0 6 -6 6h-69q-5 0 -5 9z" />
    <glyph glyph-name="g" unicode="g" horiz-adv-x="528" 
d="M139 10v2q-64 9 -91 40.5t-27 71.5q0 41 24 68.5t72 37.5q-30 39 -30 95q0 36 12 66t34.5 51.5t53.5 33t69 11.5q79 0 122 -48q21 29 37 38t33 9q25 0 41 -15t16 -48q0 -29 -22 -29t-22 31q0 21 -6.5 30t-19.5 9q-11 0 -21.5 -8.5t-24.5 -28.5q30 -41 30 -97
q0 -36 -12 -65.5t-34 -51t-53 -33t-69 -11.5q-77 0 -122 47q-38 -6 -59.5 -25t-21.5 -51q0 -37 28 -55t78 -18h17.5t16 0.5t19 1t25.5 1.5q20 1 34 2t24.5 1.5t18.5 0.5h16q80 0 120.5 -37.5t40.5 -105.5q0 -83 -63 -132t-175 -49q-51 0 -93 9.5t-72.5 28t-47.5 45.5t-17 61
q0 19 6 37t20 33.5t37 27t58 18.5zM252 -234q47 0 84.5 10.5t64.5 29t41.5 45.5t14.5 60q0 48 -32 75t-100 27h-40.5t-33.5 -1t-32.5 -2t-37.5 -4q-114 -15 -114 -108q0 -63 49.5 -97.5t135.5 -34.5zM143 323q0 -73 30.5 -105t79.5 -32q50 0 80.5 32t30.5 105v5
q0 76 -30.5 109.5t-79.5 33.5q-50 0 -80.5 -33.5t-30.5 -109.5v-5z" />
    <glyph glyph-name="h" unicode="h" horiz-adv-x="572" 
d="M15 709q0 8 4 8h34.5t30.5 0.5t31 1t35 1.5q4 0 4 -4v-249v-52.5t-1 -63.5l1 -1q32 77 80.5 107.5t105.5 30.5q71 0 105.5 -33t34.5 -105v-319q0 -15 15 -15l58 -2q5 0 5 -8t-5 -8q-23 1 -38 1.5t-26 0.5h-19.5h-18.5h-19h-20.5t-26.5 -0.5t-39 -1.5q-5 0 -5 8t5 8l57 2
q15 0 15 18v317q0 60 -23.5 87.5t-73.5 27.5q-39 0 -70 -18.5t-52 -47t-32.5 -63t-11.5 -65.5v-239q0 -17 15 -17l59 -2q4 0 4 -8t-4 -8q-24 1 -39.5 1.5t-26.5 0.5h-19h-18h-19h-20t-27 -0.5t-41 -1.5q-4 0 -4 8t4 8l59 2q16 0 16 20v650q0 6 -4 10.5t-11 4.5h-60
q-4 0 -4 8z" />
    <glyph glyph-name="i" unicode="i" horiz-adv-x="248" 
d="M21 475h35.5t30.5 0.5t30.5 1t34.5 1.5q5 0 5 -4v-443q0 -15 15 -15l57 -2q5 0 5 -8t-5 -8q-25 1 -40 1.5t-25.5 0.5h-18.5h-18h-18.5h-19.5t-26.5 -0.5t-41.5 -1.5q-4 0 -4 8t5 8l58 2q15 0 15 15v413q0 6 -4 10.5t-11 4.5h-59q-5 0 -5 8t5 8zM81 639q0 18 11 29.5
t29 11.5q17 0 28 -11.5t11 -29.5t-11 -29.5t-28 -11.5q-18 0 -29 11.5t-11 29.5z" />
    <glyph glyph-name="j" unicode="j" horiz-adv-x="247" 
d="M-13 -226q0 3 6 5q29 12 49 23t32 27.5t17.5 40.5t5.5 61v248t-1 264q-2 15 -13 15h-87q-4 0 -4 8t4 8h78t77 2q6 0 6 -3v-554q0 -33 -8.5 -57t-28 -41.5t-50.5 -31t-76 -26.5q-2 0 -4.5 3.5t-2.5 7.5zM86 638q0 18 11 29.5t29 11.5q17 0 28 -11.5t11 -29.5t-11 -29.5
t-28 -11.5q-18 0 -29 11.5t-11 29.5z" />
    <glyph glyph-name="k" unicode="k" horiz-adv-x="504" 
d="M15 709q0 8 4 8q35 0 64.5 0.5t67.5 2.5q4 0 4 -4v-461q0 -4 5 -4h51l123 192q5 8 5 10q0 7 -10 7l-64 1q-4 1 -4 9t4 8q21 -1 34 -1.5t23 -1t17 -0.5h16h17t17 0.5t20.5 1t28.5 1.5q4 0 4 -9q0 -8 -5 -8l-58 -2q-7 0 -12 -2t-10 -10l-107 -166l188 -252q6 -8 10.5 -10
t12.5 -2l38 -3q5 0 5 -8t-5 -8q-19 1 -31.5 1.5t-22 0.5h-19h-21.5h-21.5h-20t-25.5 -0.5t-38 -1.5q-5 0 -5 8t5 8l56 2q5 0 8.5 1.5t3.5 6.5t-5 10l-144 196q-5 5 -9 5h-50q-5 0 -5 -5v-200q0 -14 15 -14l56 -2q5 0 5 -8t-5 -8q-22 1 -36 1.5t-24.5 0.5h-19h-20.5h-21.5
h-21t-26 -0.5t-37.5 -1.5q-5 0 -5 8t5 8l60 2q14 0 14 14v655q0 16 -16 16h-58q-5 0 -5 8z" />
    <glyph glyph-name="l" unicode="l" horiz-adv-x="248" 
d="M16 709q0 8 5 8h33t28.5 0.5t30.5 1t39 1.5q5 0 5 -4v-686q0 -14 14 -14l60 -2q5 0 5 -8t-5 -8q-22 1 -36.5 1.5t-25 0.5h-20.5h-23h-23h-21t-25 -0.5t-36 -1.5q-5 0 -5 8t5 8l60 2q14 0 14 14v657q0 14 -14 14h-60q-5 0 -5 8z" />
    <glyph glyph-name="m" unicode="m" horiz-adv-x="878" 
d="M21 475q30 0 60.5 0.5t70.5 2.5q4 0 4 -4v-59.5t-2 -66.5h1q16 40 36.5 66.5t44.5 43t51 23.5t55 7q64 0 95.5 -27t39.5 -85q28 63 73.5 87.5t96.5 24.5q71 0 105 -33t34 -105v-319q0 -15 15 -15l58 -2q5 0 5 -8q0 -9 -5 -9q-24 1 -38.5 1.5t-25 1t-18.5 0.5h-19h-18
t-19 -0.5t-26.5 -1t-41.5 -1.5q-5 0 -5 9q0 8 5 8l58 2q15 0 15 15v321q0 60 -23.5 87.5t-74.5 27.5q-33 0 -60.5 -15t-47 -37.5t-30 -49.5t-10.5 -51v-283q0 -15 14 -15l59 -2q4 0 4 -8q0 -9 -4 -9q-24 1 -39 1.5t-25.5 1t-18.5 0.5h-18h-19.5t-19.5 -0.5t-26.5 -1
t-40.5 -1.5q-5 0 -5 9q0 8 5 8l58 2q15 0 15 15v319q0 59 -23.5 88t-74.5 29q-37 0 -67 -18.5t-52 -47t-34 -63t-12 -66.5v-241q0 -15 15 -15l57 -2q5 0 5 -8q0 -9 -5 -9q-24 1 -39 1.5t-25 1t-18 0.5h-17h-18t-19 -0.5t-27.5 -1t-42.5 -1.5q-4 0 -4 9q0 8 4 8l59 2
q14 0 14 15v412q0 16 -14 16h-60q-4 0 -4 8t4 8z" />
    <glyph glyph-name="n" unicode="n" horiz-adv-x="574" 
d="M17 467q0 8 4 8h34.5t30.5 0.5t31 1t35 1.5q4 0 4 -4v-53t-1 -70l1 -1q32 77 80.5 107.5t105.5 30.5q70 0 105 -33t35 -105v-319q0 -15 15 -15l58 -2q5 0 5 -8t-5 -8q-23 1 -38 1.5t-26 0.5h-19.5h-18.5h-19h-20.5t-26.5 -0.5t-39 -1.5q-5 0 -5 8t5 8l57 2q15 0 15 18
v317q0 60 -23.5 87.5t-73.5 27.5q-39 0 -70 -18.5t-52 -47t-32.5 -63t-11.5 -65.5v-239q0 -17 15 -17l59 -2q4 0 4 -8t-4 -8q-24 1 -39.5 1.5t-26.5 0.5h-19h-18h-19h-20t-27 -0.5t-41 -1.5q-4 0 -4 8t4 8l59 2q15 0 15 20v408q0 6 -4 10.5t-10 4.5h-60q-4 0 -4 8z" />
    <glyph glyph-name="o" unicode="o" horiz-adv-x="506" 
d="M30 240q0 57 16 103t45.5 78.5t70.5 50t91 17.5t91 -17.5t70 -50t45.5 -78.5t16.5 -103q0 -58 -16.5 -104.5t-46 -79.5t-70.5 -51t-91 -18q-49 0 -90 18t-70.5 51t-45.5 79.5t-16 104.5zM114 100q18 -46 54 -71.5t86 -25.5q51 0 86 26.5t52 71.5q8 23 13 54.5t5 79.5v19
q0 40 -6 79t-22.5 70t-47 50t-80.5 19q-49 0 -80 -19.5t-48 -51t-23.5 -70.5t-6.5 -79v-20q0 -46 5 -78t13 -54z" />
    <glyph glyph-name="p" unicode="p" horiz-adv-x="545" 
d="M12 467q0 8 5 8h32.5t31 0.5t32 1t37.5 1.5q3 0 3 -4v-29.5v-20.5t-0.5 -17t-0.5 -18h1q26 53 69 75.5t94 22.5q46 0 83 -17t62.5 -48.5t39.5 -76t14 -100.5q0 -59 -14 -106.5t-40.5 -81t-65 -51.5t-86.5 -18q-60 0 -100 26.5t-56 68.5h-1q1 -14 1 -32.5v-47.5v-204
q0 -13 15 -15l61 -2q5 0 5 -8q0 -9 -5 -9q-22 1 -36 1.5t-24.5 1t-21 0.5h-24.5h-23t-20.5 -0.5t-25 -1t-37.5 -1.5q-5 0 -5 9q0 8 5 8l60 2q15 1 15 15v645q0 15 -15 15h-60q-5 0 -5 8zM152 316v-155q0 -32 10.5 -60t30 -49t46 -33t59.5 -12q74 0 112 60t38 177v5
q0 107 -39.5 163t-108.5 56q-31 0 -58.5 -13t-47 -34t-31 -48.5t-11.5 -56.5z" />
    <glyph glyph-name="q" unicode="q" horiz-adv-x="548" 
d="M30 242q0 56 14.5 101.5t41 77.5t64.5 49t85 17q50 0 92 -23t67 -74h2q-2 21 -2 43v42q0 3 4 3q16 -2 29.5 -2h25.5q2 0 2 -3v-676q0 -13 14 -13l62 -2q5 0 5 -9q0 -8 -5 -8q-23 1 -38 1.5t-26 1t-20 0.5h-21h-19.5t-21 -0.5t-28 -1t-40.5 -1.5q-5 0 -5 8q0 9 5 9l64 2
q13 0 13 13v205v38t2 43h-2q-19 -43 -58 -69.5t-99 -26.5q-48 0 -86.5 18t-65 51t-41 80.5t-14.5 105.5zM97 245q0 -117 38 -178.5t113 -61.5q32 0 59 12t46.5 32.5t30.5 47t11 54.5v169q0 30 -11.5 56.5t-32 47t-47.5 32.5t-58 12q-71 0 -110 -56t-39 -162v-5z" />
    <glyph glyph-name="r" unicode="r" horiz-adv-x="401" 
d="M21 475q33 0 62 0.5t71 2.5q3 0 3 -4v-56.5t-1 -57.5h1q12 41 27.5 65.5t32 38.5t34 18.5t34.5 4.5q45 0 70 -24.5t25 -66.5q0 -46 -32 -46q-14 0 -23 9.5t-9 28.5q0 10 2 19.5t2 17.5q0 17 -11.5 29t-35.5 12q-22 0 -40.5 -12t-32.5 -33.5t-24.5 -50.5t-17.5 -62v-272
q0 -20 15 -20l71 -2q5 0 5 -8q0 -9 -5 -9q-23 1 -38 1.5t-26 1t-22 0.5h-26h-29t-23 -0.5t-24 -1t-33 -1.5q-5 0 -5 9q0 8 5 8l59 2q15 0 15 20v408q0 6 -4 10.5t-11 4.5h-61q-4 0 -4 8t4 8z" />
    <glyph glyph-name="s" unicode="s" horiz-adv-x="398" 
d="M36 174q0 5 8 5t9 -6q2 -51 12 -84t27 -50t48.5 -28t66.5 -11q57 0 93 27t36 77q0 38 -22.5 60t-72.5 42l-58 21q-59 23 -90 54t-31 84q0 61 40 94.5t106 33.5q31 0 61 -7t61 -20q6 -4 6 -11v-108q0 -6 -8 -6q-7 0 -9 7q-3 31 -9.5 54.5t-19.5 40t-35 25t-56 8.5
q-47 0 -73.5 -22.5t-26.5 -62.5q0 -33 20.5 -55.5t70.5 -41.5l47 -18q69 -26 100.5 -58.5t31.5 -84.5q0 -69 -46 -109.5t-123 -40.5q-37 0 -81 7t-79 30q-5 3 -5 8z" />
    <glyph glyph-name="t" unicode="t" horiz-adv-x="356" 
d="M21 475h88q6 0 6 6v101q0 3 3 3h56q3 0 3 -3v-101q0 -6 6 -6h115q5 0 5 -8t-5 -8h-116q-5 0 -5 -6v-379q0 -30 15 -48t48 -18q23 0 43.5 9t43.5 29q4 0 7.5 -3.5t3.5 -8.5q-27 -25 -56 -36t-62 -11q-105 0 -105 90v376q0 6 -6 6h-88q-4 0 -4 8t4 8z" />
    <glyph glyph-name="u" unicode="u" horiz-adv-x="562" 
d="M12 467q0 8 5 8q32 0 62.5 0.5t68.5 2.5q4 0 4 -4v-367q0 -50 23 -74.5t74 -24.5q26 0 51.5 11t47 34t38 58t23.5 84v247q0 17 -16 17h-62q-4 0 -4 8t4 8q35 0 67.5 0.5t68.5 2.5q4 0 4 -4v-441q0 -17 15 -17h57q5 0 5 -7q0 -9 -5 -9h-31.5t-27.5 -0.5t-30.5 -1
t-40.5 -1.5q-4 0 -4 4v61t2 65l-1 1q-27 -76 -75 -108t-107 -32q-137 0 -137 120v336q0 6 -4 10.5t-11 4.5h-59q-5 0 -5 8z" />
    <glyph glyph-name="v" unicode="v" horiz-adv-x="503" 
d="M7 478q18 -1 30.5 -1.5t23.5 -1t21.5 -0.5h22.5h27.5t24 0.5t28 1t39.5 1.5q5 0 5 -8q0 -9 -5 -9l-76 -2q-5 -1 -8.5 -2.5t-3.5 -6.5q0 -4 2 -9l143 -372l132 368q2 7 2.5 9t0.5 4q0 6 -3.5 7.5t-8.5 1.5l-78 2q-4 1 -4 9t4 8q20 -1 33.5 -1.5t24 -1t19.5 -0.5h21h15
t14.5 0.5t18 1t25.5 1.5q5 0 5 -8t-5 -9l-47 -2q-12 0 -16 -12l-162 -454q-4 -6 -7 -6h-7q-5 0 -7 6l-179 454q-5 12 -17 12l-49 2q-2 1 -3.5 2.5t-1.5 6.5q0 8 6 8z" />
    <glyph glyph-name="w" unicode="w" horiz-adv-x="784" 
d="M1 470q0 8 5 8q16 -1 28 -1.5t23 -1t22 -0.5h24h25t21.5 0.5t27 1t40.5 1.5q5 0 5 -8q0 -9 -5 -9l-73 -2q-12 0 -12 -8q0 -4 2 -9l126 -370l125 370q2 5 2 6.5v3.5q0 7 -11 7l-81 2q-5 1 -5 9t5 8q24 -1 40 -1.5t28.5 -1t24 -0.5h26.5h27.5t24.5 0.5t30 1t44 1.5
q5 0 5 -8q0 -7 -5 -9l-75 -2q-12 0 -12 -9q0 -2 0.5 -3.5l1.5 -4.5l124 -370l118 370q2 5 2 9q0 8 -11 8l-78 2q-4 0 -4 9q0 8 4 8q20 -1 33 -1.5t22.5 -1t18 -0.5h20.5q17 0 31.5 0.5t42.5 2.5q4 0 4 -8q0 -9 -4 -9l-46 -2q-12 0 -16 -11l-148 -457q-1 -5 -6 -5h-6
q-6 0 -7 6l-152 438l-147 -438q-2 -6 -7 -6h-6q-4 0 -8 6l-160 455q-3 8 -6.5 10t-11.5 2l-45 2q-5 2 -5 9z" />
    <glyph glyph-name="x" unicode="x" horiz-adv-x="505" 
d="M1 6q0 8 5 8l64 2q3 0 8 1.5t10 8.5l132 205l-142 215q-5 8 -9 10.5t-11 2.5l-49 2q-5 1 -5 9t5 8q18 -1 30.5 -1.5t23 -1t21 -0.5h22.5h20h20t25 0.5t36 1.5q5 0 5 -7q0 -8 -5 -9l-48 -1q-5 0 -9.5 -2t-4.5 -7q0 -3 6 -12l104 -159l104 162q4 4 4 9q0 9 -12 9l-54 2
q-5 0 -5 8t5 8q15 -1 26 -1.5t20 -1t17.5 -0.5h18.5h18t17 0.5t20 1t26 1.5q5 0 5 -8t-5 -9l-58 -1q-5 0 -9.5 -2.5t-10.5 -11.5l-117 -181l155 -236q5 -7 8.5 -9.5t13.5 -2.5l57 -3q4 0 4 -8t-4 -8q-23 1 -38 1.5t-25 0.5h-18h-18h-20h-21t-30.5 -0.5t-50.5 -1.5q-5 0 -5 8
t5 8l61 2q13 0 13 8q0 4 -6 14l-117 178l-116 -182q-5 -7 -5 -12q0 -4 3.5 -5t6.5 -1l67 -2q4 0 4 -8t-4 -8q-21 1 -34 1.5t-22.5 0.5h-17.5h-18h-17.5h-17t-21.5 -0.5t-31 -1.5q-5 0 -5 8z" />
    <glyph glyph-name="y" unicode="y" horiz-adv-x="517" 
d="M6 478q25 -1 40.5 -1.5t26.5 -1t21 -0.5h23h25t23 0.5t27 1t39 1.5q5 0 5 -8q0 -7 -5 -9l-73 -2q-13 0 -13 -9q0 -1 3 -10l147 -370l125 368q2 6 2.5 8.5t0.5 4.5q0 5 -3.5 6.5t-8.5 1.5l-79 2q-4 1 -4 9t4 8q20 -1 33.5 -1.5t24 -1t19.5 -0.5h21q18 0 33 0.5t47 2.5
q5 0 5 -8t-5 -9l-52 -2q-7 0 -11.5 -2t-6.5 -10l-199 -588q-17 -51 -41.5 -74t-66.5 -23q-40 0 -63 18.5t-23 49.5q0 19 9.5 28.5t24.5 9.5q14 0 23 -9.5t10 -32.5q0 -24 9 -34.5t27 -10.5q47 0 75 82l43 126l-188 458q-5 12 -17 12l-57 2q-5 2 -5 9q0 8 5 8z" />
    <glyph glyph-name="z" unicode="z" horiz-adv-x="452" 
d="M336 457q-32 1 -64 1h-52q-52 0 -82.5 -3t-48 -16.5t-25 -42t-12.5 -80.5q-1 -5 -8 -5q-9 0 -9 5l7 154q0 6 5 6q42 0 67.5 -0.5t44 -0.5h35h40.5h84t90 1q4 -1 4 -7l-315 -452q25 0 44.5 -0.5t36.5 -0.5h31.5h29.5q55 0 87.5 4.5t50.5 20.5t25 47.5t12 85.5q1 4 9 4
t8 -5l-7 -169q0 -6 -7 -6q-46 1 -73 1.5t-46.5 0.5h-36.5h-42h-44.5h-39.5t-45.5 -0.5t-63.5 -1.5q-6 2 -6 9z" />
    <glyph glyph-name="braceleft" unicode="{" horiz-adv-x="334" 
d="M26 244q38 1 63.5 11t41.5 26.5t22.5 38t6.5 46.5q0 26 -5.5 52t-13.5 52t-13 51t-5 51q0 29 9 54t30 44.5t54 32.5t81 18q2 0 3.5 -3.5t1.5 -7.5q0 -3 -1.5 -4t-8.5 -2q-64 -7 -91.5 -34.5t-27.5 -73.5q0 -22 4.5 -43.5t11.5 -45.5q8 -26 13.5 -53.5t5.5 -57.5
t-7.5 -57.5t-23.5 -49t-42 -35.5t-62 -18v-1q36 -4 62 -18.5t42 -36.5t23.5 -49.5t7.5 -57.5t-5.5 -57.5t-13.5 -53.5q-7 -23 -11.5 -44.5t-4.5 -43.5q0 -45 27.5 -73t91.5 -35q7 -1 8.5 -2t1.5 -4q0 -11 -5 -11q-96 10 -135 50.5t-39 98.5q0 26 5 51t13 51t13.5 51.5
t5.5 51.5q0 25 -6.5 47t-22.5 39t-41.5 27t-63.5 11q-6 0 -6 8q0 9 6 9z" />
    <glyph glyph-name="bar" unicode="|" horiz-adv-x="121" 
d="M50 730h21v-965h-21v965z" />
    <glyph glyph-name="braceright" unicode="}" horiz-adv-x="334" 
d="M32 710q0 4 1.5 7.5t3.5 3.5q48 -5 81 -18t54 -32.5t30 -44.5t9 -54q0 -26 -5 -51t-13 -51t-13.5 -52t-5.5 -52q0 -25 6.5 -46.5t22.5 -38t41.5 -26.5t63.5 -11q6 0 6 -9q0 -8 -6 -8q-38 -1 -63.5 -11t-41.5 -27t-22.5 -39t-6.5 -47q0 -26 6 -51.5t13 -51.5t12.5 -51
t5.5 -51q0 -58 -39 -98.5t-135 -50.5q-5 0 -5 11q0 3 1 4t9 2q64 7 91 35t27 73q0 22 -4 43.5t-11 44.5q-8 26 -13.5 53.5t-5.5 57.5t7.5 57.5t23.5 49.5t41.5 36.5t62.5 18.5v1q-37 4 -62.5 18t-41.5 35.5t-23.5 49t-7.5 57.5t5.5 57.5t13.5 53.5q7 24 11 45.5t4 43.5
q0 46 -27 73.5t-91 34.5q-8 1 -9 2t-1 4z" />
    <glyph glyph-name="asciitilde" unicode="~" horiz-adv-x="600" 
d="M147 319q40 0 79 -17.5t80 -43.5q40 -26 77 -42t71 -16q18 0 35.5 6t31 19.5t22 36.5t8.5 57h21q0 -39 -9.5 -65.5t-26 -43t-38 -24t-45.5 -7.5q-40 0 -79 17.5t-80 43.5q-40 26 -77 42t-71 16q-18 0 -35.5 -6t-31 -20t-22 -37t-8.5 -57h-21q0 39 9.5 65.5t26 43.5
t38 24.5t45.5 7.5z" />
    <glyph glyph-name="uni00A0" unicode="&#xa0;" horiz-adv-x="225" 
 />
    <glyph glyph-name="exclamdown" unicode="&#xa1;" horiz-adv-x="181" 
d="M53 -212q0 20 4.5 59.5t10 101.5t10 148t4.5 199q0 5 8 5t8 -5q0 -113 4.5 -199t10 -148t10 -101.5t4.5 -59.5q0 -18 -10 -28.5t-27 -10.5t-27 10.5t-10 28.5zM46 440q0 19 12.5 32t31.5 13t31.5 -13t12.5 -32q0 -18 -12.5 -31t-31.5 -13t-31.5 13t-12.5 31z" />
    <glyph glyph-name="cent" unicode="&#xa2;" horiz-adv-x="490" 
d="M34 353q0 55 14.5 100.5t42.5 79.5t68.5 53.5t91.5 21.5v100q0 4 4 4h13q4 0 4 -4v-100q43 -1 76 -13.5t56 -32t35 -43.5t12 -48q0 -21 -10 -30t-25 -9q-14 0 -23 7.5t-9 23.5q0 14 4 22.5t2 22.5q-2 37 -36 59t-82 24v-465q51 1 91 35t78 109q2 3 5 3q10 0 10 -7
q-17 -75 -66 -115t-118 -45v-112q0 -4 -4 -4h-13q-4 0 -4 4v112q-50 1 -90.5 18.5t-68.5 49.5t-43 77t-15 102zM251 127v464q-78 -5 -115.5 -62.5t-37.5 -166.5v-11q0 -57 11.5 -98t31.5 -68t48 -41t62 -17z" />
    <glyph glyph-name="sterling" unicode="&#xa3;" horiz-adv-x="577" 
d="M132 132q31 0 56.5 -11t51.5 -25q9 26 9 58q0 51 -21 95t-47 89h-121q-5 0 -5 8t5 8h112q-26 42 -45.5 86t-19.5 94q0 39 14.5 72t40.5 57t62 37.5t79 13.5q36 0 65 -9t50 -23t32 -32.5t11 -38.5q0 -22 -12.5 -34t-31.5 -12q-18 0 -29.5 11.5t-11.5 30.5q0 20 12 31
t32 13q-17 20 -46 33t-68 13t-65.5 -13t-42 -34t-22 -47t-6.5 -51q0 -48 13 -96.5t36 -95.5q2 -4 2 -6h205q5 -1 5 -8q0 -8 -5 -8h-198q17 -44 29.5 -87t12.5 -86q0 -42 -14 -78q27 -14 58 -24.5t71 -10.5q57 0 87.5 26t41.5 89l16 -3q-9 -52 -23.5 -85.5t-33 -53.5
t-41.5 -28t-49 -8q-25 0 -45.5 5.5t-37.5 15t-31 21.5t-28 25l-1 1q-20 -29 -48.5 -45.5t-63.5 -16.5q-39 0 -60 19.5t-21 48.5q0 30 22.5 49.5t62.5 19.5zM64 63q0 -21 16 -36.5t48 -15.5q31 0 56.5 15t42.5 42q-21 19 -44 32t-54 13t-48 -13.5t-17 -36.5z" />
    <glyph glyph-name="currency" unicode="&#xa4;" horiz-adv-x="554" 
d="M12 601l14 14l100 -99q30 28 68.5 43.5t82.5 15.5t82.5 -15.5t68.5 -43.5l100 99l14 -14l-99 -100q28 -30 43.5 -68.5t15.5 -82.5t-15.5 -82.5t-43.5 -68.5l99 -100l-14 -14l-100 99q-30 -28 -68.5 -43.5t-82.5 -15.5t-82.5 15.5t-68.5 43.5l-100 -99l-14 14l99 100
q-28 30 -43.5 68.5t-15.5 82.5t15.5 82.5t43.5 68.5zM73 350q0 -42 16 -79.5t43.5 -65t65 -43.5t79.5 -16t79.5 16t65 43.5t43.5 65t16 79.5t-16 79.5t-43.5 65t-65 43.5t-79.5 16t-79.5 -16t-65 -43.5t-43.5 -65t-16 -79.5z" />
    <glyph glyph-name="yen" unicode="&#xa5;" horiz-adv-x="666" 
d="M39 704q23 -1 38.5 -1.5t27.5 -0.5h23h25h25h25t33.5 0.5t50.5 1.5q5 0 5 -7q0 -9 -5 -9l-74 -2q-15 0 -15 -9q0 -2 4 -10l158 -272l153 274q2 5 2.5 6.5t0.5 3.5q0 7 -11 7l-76 2q-5 0 -5 9q0 7 5 7q25 -1 40.5 -1.5t26 -0.5h19h18.5h21h18.5t22.5 0.5t32 0.5q5 0 5 -8
t-5 -8l-73 -1q-8 0 -11.5 -3t-7.5 -9l-167 -296v-59h192q5 -2 5 -8q0 -9 -5 -9h-192v-95h192q5 -2 5 -8q0 -8 -5 -8h-192v-161q0 -8 4 -10.5t10 -3.5l90 -2q5 0 5 -8q0 -9 -5 -9q-30 1 -48.5 1.5t-32 1t-25.5 0.5h-29h-28t-25.5 -0.5t-32.5 -1t-49 -1.5q-5 0 -5 8q0 9 5 9
l90 2q7 1 10.5 3.5t3.5 10.5v161h-177q-5 0 -5 8t5 8h177v95h-177q-5 0 -5 8q0 9 5 9h177v34q0 8 -1 13t-6 13l-175 296q-5 7 -8.5 9t-11.5 2l-65 1q-5 0 -5 8q0 9 5 9z" />
    <glyph glyph-name="brokenbar" unicode="&#xa6;" horiz-adv-x="121" 
d="M50 730h21v-376h-21v376zM71 141v-376h-21v376h21z" />
    <glyph glyph-name="section" unicode="&#xa7;" horiz-adv-x="395" 
d="M160 430q-51 24 -79 58t-28 89q0 67 41.5 104t107.5 37q30 0 60.5 -9t62.5 -22q5 -2 5 -6v-122q0 -5 -8 -5q-7 0 -9 6q-4 45 -10.5 69t-20.5 38q-14 16 -37.5 24.5t-51.5 8.5q-47 0 -75.5 -26t-28.5 -72q0 -40 23.5 -65t71.5 -46l58 -24q61 -27 92.5 -61.5t31.5 -93.5
q0 -56 -29.5 -94t-87.5 -54q60 -27 88.5 -62.5t28.5 -90.5q0 -38 -12 -68.5t-34 -52.5t-53 -33.5t-68 -11.5q-36 0 -73.5 13.5t-79.5 27.5q-4 1 -4 6l1 159q0 6 8 6t8 -6q5 -62 13 -95.5t26 -52.5q17 -18 44.5 -29.5t62.5 -11.5q53 0 89 31t36 87q0 45 -23.5 72t-73.5 49
l-65 28q-64 28 -95.5 65t-31.5 96q0 53 29.5 90.5t89.5 49.5zM168 199l58 -25q53 9 80 37.5t27 71.5q0 42 -22 67.5t-68 45.5l-57 24q-53 -6 -83 -34.5t-30 -74.5q0 -37 22 -63.5t73 -48.5z" />
    <glyph glyph-name="dieresis" unicode="&#xa8;" 
d="M344 679q18 0 29 -11t11 -29t-11 -29.5t-29 -11.5q-17 0 -28 11.5t-11 29.5t11 29t28 11zM117 639q0 18 11 29t28 11q18 0 29 -11t11 -29t-11 -29.5t-29 -11.5q-17 0 -28 11.5t-11 29.5z" />
    <glyph glyph-name="copyright" unicode="&#xa9;" horiz-adv-x="764" 
d="M34 328q0 77 26 140.5t72.5 109.5t110 71.5t139.5 25.5t139.5 -25.5t110 -71.5t72.5 -109.5t26 -140.5t-26 -141t-72.5 -110t-110 -71.5t-139.5 -25.5t-139.5 25.5t-110 71.5t-72.5 110t-26 141zM57 328q0 -71 24 -131t67 -103.5t102.5 -68t131.5 -24.5q71 0 131 24.5
t103 68t67 103.5t24 131t-24 130.5t-67 103t-103 68t-131 24.5q-72 0 -131.5 -24.5t-102.5 -68t-67 -103t-24 -130.5zM395 530q42 0 78 -6.5t63 -24.5q4 -3 4 -7v-99q0 -4 -7 -4t-7 5q-2 29 -6.5 49t-15.5 33q-16 18 -44.5 28.5t-63.5 10.5q-73 0 -113.5 -47t-40.5 -137v-4
q0 -91 41 -137t112 -46q73 0 101.5 35t30.5 103q0 4 6 4q7 0 7 -3v-109q0 -3 -4 -6q-32 -22 -67 -31t-77 -9q-94 0 -150 53t-56 147q0 95 56 148.5t153 53.5z" />
    <glyph glyph-name="ordfeminine" unicode="&#xaa;" horiz-adv-x="369" 
d="M38 570q0 48 24 65t68 22q38 5 66 11.5t45 19.5v36q0 25 -14 40t-50 15q-35 0 -49 -12.5t-14 -27.5q0 -4 0.5 -6.5t1.5 -5.5q2 -5 2.5 -7t0.5 -5q0 -18 -32 -18q-28 0 -28 21q0 35 30 56t91 21q64 0 92.5 -22.5t28.5 -65.5v-170q0 -18 7 -25.5t20 -7.5q8 0 14 3t12 8l4 1
q2 0 4.5 -4t2.5 -8q0 -1 -3 -4q-18 -18 -59 -18q-62 0 -62 47v26h-2q-11 -29 -38 -51t-72 -22q-43 0 -67 21.5t-24 66.5zM154 510q29 0 48 17t28 40q6 13 8 26.5t2 25.5v48l-1 1q-17 -10 -37 -14t-42 -9q-31 -6 -46 -18q-14 -14 -14 -49q0 -39 15.5 -53.5t38.5 -14.5z" />
    <glyph glyph-name="guillemotleft" unicode="&#xab;" 
d="M236 230q0 5 5 10l205 191q11 0 11 -10l-153 -191l153 -190q0 -11 -11 -11l-205 192q-5 5 -5 9zM39 230q0 5 5 10l205 191q11 0 11 -10l-153 -191l153 -190q0 -11 -11 -11l-205 192q-5 5 -5 9z" />
    <glyph glyph-name="logicalnot" unicode="&#xac;" horiz-adv-x="600" 
d="M565 104h-21v271h-509v21h530v-292z" />
    <glyph glyph-name="uni00AD" unicode="&#xad;" horiz-adv-x="324" 
d="M52 278h220q6 0 6 -5v-38q0 -5 -6 -5h-220q-6 0 -6 5v38q0 5 6 5z" />
    <glyph glyph-name="registered" unicode="&#xae;" horiz-adv-x="764" 
d="M34 328q0 77 26 140.5t72.5 109.5t110 71.5t139.5 25.5t139.5 -25.5t110 -71.5t72.5 -109.5t26 -140.5t-26 -141t-72.5 -110t-110 -71.5t-139.5 -25.5t-139.5 25.5t-110 71.5t-72.5 110t-26 141zM382 1q71 0 131 24.5t103 68t67 103.5t24 131t-24 130.5t-67 103t-103 68
t-131 24.5q-72 0 -131.5 -24.5t-102.5 -68t-67 -103t-24 -130.5t24 -131t67 -103.5t102.5 -68t131.5 -24.5zM204 526q20 0 33.5 -0.5t22.5 -0.5h16.5h15.5h97q58 0 89 -23t31 -68q0 -78 -97 -94v-2q55 -3 77.5 -20.5t28.5 -61.5l7 -61q2 -23 12.5 -32t30.5 -9h23q5 0 5 -8
t-6 -8h-44q-38 0 -54 12t-19 44l-7 67q-4 38 -26 53t-78 15h-43q-5 0 -5 -5v-154q0 -12 13 -12l46 -1q6 0 6 -8t-6 -8q-20 0 -32.5 0.5t-21 0.5h-15h-14.5h-15.5h-15.5t-22 -0.5t-33 -0.5q-5 0 -5 8t5 8l47 1q12 0 12 12v326q0 13 -12 13l-47 1q-5 0 -5 8t5 8zM314 503v-153
q0 -5 5 -5h45q46 0 69 20t23 64v6q0 74 -83 74h-53q-6 0 -6 -6z" />
    <glyph glyph-name="macron" unicode="&#xaf;" 
d="M122 601h256q5 0 5 -5v-25q0 -5 -5 -5h-256q-5 0 -5 5v25q0 5 5 5z" />
    <glyph glyph-name="degree" unicode="&#xb0;" horiz-adv-x="370" 
d="M32 563q0 33 11.5 61t31.5 48.5t48 32t61 11.5t61.5 -11.5t49 -32t32 -48.5t11.5 -61t-11.5 -61t-32 -48.5t-49 -32t-61.5 -11.5t-61 11.5t-48 31.5t-31.5 48.5t-11.5 61.5zM54 563q0 -59 36 -95.5t94 -36.5t95 36.5t37 95.5q0 58 -37 95t-95 37t-94 -36.5t-36 -95.5z
" />
    <glyph glyph-name="plusminus" unicode="&#xb1;" horiz-adv-x="600" 
d="M35 280h255v202h21v-202h254v-20h-254v-202h-21v202h-255v20zM35 18h530v-20h-530v20z" />
    <glyph glyph-name="twosuperior" unicode="&#xb2;" horiz-adv-x="417" 
d="M30 605q0 35 14.5 58.5t38 38t53 20.5t59.5 6q81 0 122.5 -32t41.5 -86q0 -38 -22 -69t-81 -67q-31 -20 -52.5 -35t-37 -27t-28 -23.5t-24.5 -23.5q-4 -4 -4 -6q0 -4 6 -4q21 1 38.5 1.5t36 1t40.5 0.5h52q18 0 28.5 2t18.5 10t17 25t24 47q1 2 5 2t7.5 -1.5t3.5 -4.5
l-49 -137q-2 -4 -7 -4q-45 1 -75 1h-60h-33t-31 -0.5t-35 -1t-44 -1.5q-5 0 -8.5 6.5t-3.5 10.5t10 15.5t25.5 26t34 31t35.5 31t30.5 25t17.5 14.5q27 22 46 40.5t31 35.5t17 34.5t5 36.5v2q0 49 -31 76.5t-87 27.5q-57 0 -93 -27.5t-36 -76.5q0 -25 11.5 -45.5t31.5 -35.5
q4 -3 4 -5q0 -4 -3.5 -7t-5.5 -3q-4 0 -10 5q-22 17 -33 41t-11 51z" />
    <glyph glyph-name="threesuperior" unicode="&#xb3;" horiz-adv-x="399" 
d="M39 403q4 0 7 -8q13 -38 47.5 -62t87.5 -24q59 0 91 32t32 86v7q0 54 -29 84t-83 30q-29 0 -53.5 -12t-56.5 -38q-6 -5 -8 -5q-4 0 -7.5 4t-3.5 6q0 3 4 6l200 162l-1 2h-66t-80 -2q-20 0 -29.5 -5.5t-20.5 -26.5l-14 -26q-4 -6 -5 -6q-2 0 -7 2.5t-5 5.5q0 1 6.5 15
t14.5 31.5t15.5 33t9.5 19.5q3 6 8 6h54h62.5t65 0.5t62.5 1.5q2 0 4.5 -3t2.5 -6t-3 -5l-186 -148l1 -1q14 5 27.5 7.5t30.5 2.5q70 0 112.5 -35.5t42.5 -101.5t-45.5 -104t-126.5 -38q-68 0 -107.5 26.5t-56.5 68.5q-3 8 -3 11t3.5 5t5.5 2z" />
    <glyph glyph-name="acute" unicode="&#xb4;" 
d="M207 544l98 181q3 7 6.5 8.5t9.5 1.5h41q11 0 11 -9q0 -4 -2 -7t-9 -12l-140 -168q-2 -3 -6 -3q-3 0 -6 2t-3 6z" />
    <glyph glyph-name="uni00B5" unicode="&#xb5;" horiz-adv-x="566" 
d="M12 467q0 8 5 8q32 0 62.5 0.5t68.5 2.5q4 0 4 -4v-364q0 -51 22.5 -76.5t76.5 -25.5t98.5 43.5t64.5 134.5v256q0 17 -17 17h-61q-5 0 -5 8t5 8q34 0 66.5 0.5t68.5 2.5q4 0 4 -4v-441q0 -17 15 -17h57q5 0 5 -7q0 -9 -5 -9h-31.5t-27.5 -0.5t-30.5 -1t-40.5 -1.5
q-3 0 -3 4v59.5t1 60.5l-1 1q-32 -76 -79.5 -105t-101.5 -29q-92 0 -125 54q1 -46 3.5 -78.5t6.5 -56.5t10.5 -42.5t15.5 -36.5q5 -19 7 -26.5t2 -15.5q0 -14 -8 -22.5t-23 -8.5q-13 0 -22 9t-9 27v653q0 6 -4 10.5t-11 4.5h-59q-5 0 -5 8z" />
    <glyph glyph-name="paragraph" unicode="&#xb6;" horiz-adv-x="521" 
d="M30 497q0 107 49 156t156 49h247q9 0 9 -8v-5q0 -8 -9 -8h-62q-9 0 -9 -9v-753q0 -9 -9 -9h-6q-8 0 -8 9v753q0 9 -9 9h-82q-9 0 -9 -9v-753q0 -9 -9 -9h-6q-8 0 -8 9v364q0 9 -9 9h-21q-107 0 -156 49t-49 156z" />
    <glyph glyph-name="periodcentered" unicode="&#xb7;" horiz-adv-x="189" 
d="M46 260q0 20 13.5 33.5t34.5 13.5t34.5 -13.5t13.5 -33.5q0 -21 -13.5 -35t-34.5 -14t-34.5 14t-13.5 35z" />
    <glyph glyph-name="cedilla" unicode="&#xb8;" 
d="M178 -104q0 18 13 32t42 14h8v66h16v-69q30 -8 46 -32.5t16 -54.5q0 -21 -8 -42t-23.5 -38t-39 -27.5t-55.5 -10.5q-5 0 -5 8t5 8q25 0 44 8t31.5 21t18.5 28t6 30q0 18 -8.5 32t-24.5 19h-2q-3 -14 -13.5 -23t-27.5 -9t-28 11.5t-11 28.5z" />
    <glyph glyph-name="onesuperior" unicode="&#xb9;" horiz-adv-x="236" 
d="M21 720h32h28.5t30 0.5t34.5 1.5q5 0 5 -3v-390q0 -15 15 -15l51 -2q5 0 5 -8t-5 -8q-20 1 -33.5 1.5t-24 0.5h-19h-19.5h-20h-20t-25 -0.5t-35 -1.5q-4 0 -4 8t5 8l52 2q16 0 16 15v359q0 15 -15 15h-54q-5 0 -5 9q0 8 5 8z" />
    <glyph glyph-name="ordmasculine" unicode="&#xba;" horiz-adv-x="365" 
d="M30 643q0 72 40.5 113t112.5 41t112 -41t40 -113t-40.5 -115t-112.5 -43t-112 43t-40 115zM101 556q20 -55 82 -55q28 0 46 10.5t28 27.5t13.5 38.5t3.5 44.5v40q0 23 -4 44.5t-14 38t-27.5 26.5t-45.5 10q-27 0 -45 -10t-28.5 -26.5t-14.5 -38t-4 -44.5v-40
q0 -23 2.5 -38.5t7.5 -27.5z" />
    <glyph glyph-name="guillemotright" unicode="&#xbb;" 
d="M39 421q0 10 11 10l205 -191q5 -5 5 -10q0 -4 -5 -9l-205 -192q-11 0 -11 11l153 190zM236 40l154 190l-154 191q0 10 11 10l205 -191q4 -3 4.5 -5.5t0.5 -4.5t-0.5 -4t-4.5 -5l-205 -192q-11 0 -11 11z" />
    <glyph glyph-name="onequarter" unicode="&#xbc;" horiz-adv-x="822" 
d="M403 150q0 3 3 7l213 263q7 8 14 8h38q8 0 8 -8q0 -25 -0.5 -55.5t-0.5 -64.5v-69v-68q0 -6 6 -6h15q24 0 31.5 8.5t7.5 31.5v10q0 5 9 5q7 0 7 -5q-1 -20 -1 -32v-23v-23t1 -34q0 -5 -8 -5t-8 5v8q0 21 -7.5 29t-31.5 8h-15q-6 0 -6 -5v-65.5t2 -64.5q0 -5 -5 -5h-53
q-4 0 -4 5v131q0 4 -5 4h-203q-3 0 -5 3.5t-2 6.5zM68 712q0 8 4 8h32.5h29t30 0.5t34.5 1.5q5 0 5 -3v-390q0 -15 15 -15l51 -2q5 0 5 -8t-5 -8q-20 1 -33.5 1.5t-24 0.5h-19h-19.5h-20h-20t-25 -0.5t-35 -1.5q-5 0 -5 8t5 8l53 2q15 0 15 15v359q0 15 -15 15h-54
q-4 0 -4 9zM654 731h30l-540 -761h-30zM429 159q0 -2 3 -2h181q5 0 5 5v221q0 4 -3 4q-2 0 -6 -5l-177 -217q-3 -4 -3 -6z" />
    <glyph glyph-name="onehalf" unicode="&#xbd;" horiz-adv-x="931" 
d="M506 307q0 35 15 58.5t38.5 37.5t53 20.5t58.5 6.5q81 0 123 -32t42 -86q0 -37 -22.5 -68.5t-81.5 -67.5q-30 -20 -51.5 -34.5t-37 -27t-28 -23.5t-25.5 -24q-4 -4 -4 -6q0 -4 6 -4q22 1 39.5 1.5t36 1t40.5 0.5h52q18 0 28 1.5t18.5 10t17.5 25.5t24 47q1 2 5 2
q10 0 10 -6l-48 -137q-1 -4 -8 -4q-45 1 -75 1h-59h-33t-31 -0.5t-35 -1t-44 -1.5q-5 0 -9 6.5t-4 10.5t10 15.5t25.5 26t34 31t35.5 31t30.5 25t17.5 14.5q27 22 46 40.5t31 35.5t17.5 34.5t5.5 36.5v2q0 49 -31 76.5t-88 27.5t-92.5 -27.5t-35.5 -76.5q0 -25 10 -46.5
t32 -34.5q4 -2 4.5 -3t0.5 -2q0 -4 -3.5 -7t-6.5 -3q-2 0 -10 5q-23 15 -33.5 40t-10.5 52zM72 720h32.5h29t30 0.5t34.5 1.5q5 0 5 -3v-390q0 -15 15 -15l51 -2q5 0 5 -8t-5 -8q-20 1 -33.5 1.5t-24 0.5h-19h-19.5h-20h-20t-25 -0.5t-35 -1.5q-5 0 -5 8t5 8l53 2
q15 0 15 15v359q0 15 -15 15h-54q-4 0 -4 9q0 8 4 8zM114 -30l540 761h30l-540 -761h-30z" />
    <glyph glyph-name="threequarters" unicode="&#xbe;" horiz-adv-x="923" 
d="M508 157l213 263q4 5 6.5 6.5t7.5 1.5h37q9 0 9 -8q0 -25 -0.5 -55.5t-0.5 -64.5v-69v-68q0 -6 6 -6h14q24 0 32 8.5t8 31.5v10q0 5 8 5t8 -5q-2 -20 -2 -32v-23v-23t2 -34q0 -5 -8 -5t-8 5v8q0 21 -8 29t-32 8h-14q-6 0 -6 -5v-65.5t1 -64.5q0 -5 -4 -5h-53q-5 0 -5 5
v131q0 4 -4 4h-203q-3 0 -5.5 3.5t-2.5 6.5t4 7zM77 403q4 0 7 -8q13 -38 47 -62t87 -24q60 0 91.5 32t31.5 86v7q0 54 -29 84t-83 30q-29 0 -53 -12t-56 -38q-6 -5 -9 -5t-7 4t-4 6t5 6l200 162l-1 2h-67t-79 -2q-20 0 -30 -5.5t-21 -26.5l-13 -26q-4 -6 -6 -6t-6.5 2.5
t-4.5 5.5q12 29 23 53q9 20 17.5 36t13.5 16h54h62.5t65 0.5t61.5 1.5q3 0 5 -3t2 -6t-3 -5l-185 -148l1 -1q14 5 27.5 7.5t30.5 2.5q69 0 111.5 -35.5t42.5 -101.5t-45.5 -104t-126.5 -38q-67 0 -106.5 26.5t-56.5 68.5q-3 8 -3 11t3 5t6 2zM755 731h31l-541 -761h-29z
M530 159q0 -2 4 -2h180q5 0 5 5v221q0 4 -2 4t-7 -5l-176 -217q-4 -4 -4 -6z" />
    <glyph glyph-name="questiondown" unicode="&#xbf;" horiz-adv-x="411" 
d="M171 246q14 5 21 7t18 7q18 7 30.5 14.5t20 17t10.5 23t3 33.5v54q0 3 4 3h9q4 0 4 -3v-55q0 -41 -15 -64t-59 -40q-35 -13 -59.5 -28.5t-39.5 -36.5t-22 -50t-7 -71q0 -50 11 -85t30.5 -57t46.5 -32t60 -10q37 0 65 15t28 45q0 13 -4 19.5t-4 17.5q0 17 10 27t26 10
q36 0 36 -43q0 -21 -10.5 -40.5t-30.5 -34.5t-49 -23.5t-65 -8.5q-46 0 -84.5 14t-66.5 40t-43.5 62.5t-15.5 82.5q0 73 34.5 117.5t107.5 72.5zM235 547q0 18 12 30.5t31 12.5q18 0 30 -12.5t12 -30.5t-12 -30.5t-30 -12.5q-19 0 -31 12.5t-12 30.5z" />
    <glyph glyph-name="Agrave" unicode="&#xc0;" horiz-adv-x="643" 
d="M1 7q0 8 5 8l74 1q8 0 12 3.5t6 9.5l223 681q2 6 7 6h5q4 0 7 -7l218 -679q2 -8 6 -10t17 -3l55 -2q6 0 6 -8t-6 -8q-25 0 -41 0.5t-27.5 0.5h-20.5h-21h-22h-23.5t-33 -0.5t-52.5 -1.5q-5 0 -5 8t5 8l85 2q13 1 13 10q0 4 -2 9l-63 200q-2 5 -5 5h-235q-3 0 -5 -5
l-66 -202q-2 -6 -2 -8q0 -9 12 -9l81 -2q5 0 5 -8t-5 -8q-27 1 -43.5 1.5t-27.5 0.5h-18.5h-16.5h-14h-17.5t-25.5 -0.5t-39 -0.5q-5 0 -5 8zM195 256h220q5 0 5 5v2.5t-2 6.5l-111 349l-114 -352q-2 -5 -2 -7q0 -4 4 -4zM189 953q0 9 11 9h40q7 0 10 -1.5t7 -8.5l98 -181
q0 -4 -3 -6t-6 -2q-4 0 -7 3l-140 168q-7 9 -8.5 12t-1.5 7z" />
    <glyph glyph-name="Aacute" unicode="&#xc1;" horiz-adv-x="643" 
d="M1 7q0 8 5 8l74 1q8 0 12 3.5t6 9.5l223 681q2 6 7 6h5q4 0 7 -7l218 -679q2 -8 6 -10t17 -3l55 -2q6 0 6 -8t-6 -8q-25 0 -41 0.5t-27.5 0.5h-20.5h-21h-22h-23.5t-33 -0.5t-52.5 -1.5q-5 0 -5 8t5 8l85 2q13 1 13 10q0 4 -2 9l-63 200q-2 5 -5 5h-235q-3 0 -5 -5
l-66 -202q-2 -6 -2 -8q0 -9 12 -9l81 -2q5 0 5 -8t-5 -8q-27 1 -43.5 1.5t-27.5 0.5h-18.5h-16.5h-14h-17.5t-25.5 -0.5t-39 -0.5q-5 0 -5 8zM191 260q0 -4 4 -4h220q5 0 5 5v2.5t-2 6.5l-111 349l-114 -352q-2 -5 -2 -7zM286 771l98 181q3 7 6.5 8.5t9.5 1.5h41q11 0 11 -9
q0 -4 -2 -7t-9 -12l-140 -168q-2 -3 -6 -3q-3 0 -6 2t-3 6z" />
    <glyph glyph-name="Acircumflex" unicode="&#xc2;" horiz-adv-x="643" 
d="M338 940q5 0 6.5 -1.5t5.5 -6.5l117 -160q5 -7 5.5 -8t0.5 -3q0 -4 -5 -4h-7q-4 0 -10 5l-128 119q-6 6 -8 6t-7 -6l-97 -119q-5 -5 -9 -5h-5q-6 0 -6 4q0 2 0.5 3t5.5 6l122 163q6 7 12 7h7zM6 -1q-5 0 -5 8t5 8l74 1q8 0 12 3.5t6 9.5l223 681q2 6 7 6h5q4 0 7 -7
l218 -679q2 -8 6 -10t17 -3l55 -2q6 0 6 -8t-6 -8q-25 0 -41 0.5t-27.5 0.5h-20.5h-21h-22h-23.5t-33 -0.5t-52.5 -1.5q-5 0 -5 8t5 8l85 2q13 1 13 10q0 4 -2 9l-63 200q-2 5 -5 5h-235q-3 0 -5 -5l-66 -202q-2 -6 -2 -8q0 -9 12 -9l81 -2q5 0 5 -8t-5 -8q-27 1 -43.5 1.5
t-27.5 0.5h-18.5h-16.5h-14h-17.5t-25.5 -0.5t-39 -0.5zM415 256q5 0 5 5v2.5t-2 6.5l-111 349l-114 -352q-2 -5 -2 -7q0 -4 4 -4h220z" />
    <glyph glyph-name="Atilde" unicode="&#xc3;" horiz-adv-x="643" 
d="M6 15l74 1q8 0 12 3.5t6 9.5l223 681q2 6 7 6h5q4 0 7 -7l218 -679q2 -8 6 -10t17 -3l55 -2q6 0 6 -8t-6 -8q-25 0 -41 0.5t-27.5 0.5h-20.5h-21h-22h-23.5t-33 -0.5t-52.5 -1.5q-5 0 -5 8t5 8l85 2q13 1 13 10q0 4 -2 9l-63 200q-2 5 -5 5h-235q-3 0 -5 -5l-66 -202
q-2 -6 -2 -8q0 -9 12 -9l81 -2q5 0 5 -8t-5 -8q-27 1 -43.5 1.5t-27.5 0.5h-18.5h-16.5h-14h-17.5t-25.5 -0.5t-39 -0.5q-5 0 -5 8t5 8zM191 260q0 -4 4 -4h220q5 0 5 5v2.5t-2 6.5l-111 349l-114 -352q-2 -5 -2 -7zM157 776q0 60 25.5 93.5t67.5 33.5q31 0 53.5 -15.5
t39.5 -32.5q18 -17 36 -29.5t43 -12.5q29 0 46 22t18 62q1 4 8 4q8 0 8 -4q0 -60 -26 -93.5t-68 -33.5q-31 0 -52.5 15.5t-40.5 32.5q-17 16 -35 29t-43 13q-29 0 -46.5 -22t-18.5 -62q0 -5 -7 -5q-8 0 -8 5z" />
    <glyph glyph-name="Adieresis" unicode="&#xc4;" horiz-adv-x="643" 
d="M6 15l74 1q8 0 12 3.5t6 9.5l223 681q2 6 7 6h5q4 0 7 -7l218 -679q2 -8 6 -10t17 -3l55 -2q6 0 6 -8t-6 -8q-25 0 -41 0.5t-27.5 0.5h-20.5h-21h-22h-23.5t-33 -0.5t-52.5 -1.5q-5 0 -5 8t5 8l85 2q13 1 13 10q0 4 -2 9l-63 200q-2 5 -5 5h-235q-3 0 -5 -5l-66 -202
q-2 -6 -2 -8q0 -9 12 -9l81 -2q5 0 5 -8t-5 -8q-27 1 -43.5 1.5t-27.5 0.5h-18.5h-16.5h-14h-17.5t-25.5 -0.5t-39 -0.5q-5 0 -5 8t5 8zM191 260q0 -4 4 -4h220q5 0 5 5v2.5t-2 6.5l-111 349l-114 -352q-2 -5 -2 -7zM384 819q0 18 11 29t28 11q18 0 29 -11t11 -29t-11 -29.5
t-29 -11.5q-17 0 -28 11.5t-11 29.5zM196 819q0 18 11 29t28 11q18 0 29 -11t11 -29t-11 -29.5t-29 -11.5q-17 0 -28 11.5t-11 29.5z" />
    <glyph glyph-name="Aring" unicode="&#xc5;" horiz-adv-x="643" 
d="M6 15l74 1q8 0 12 3.5t6 9.5l223 681q2 6 7 6h5q4 0 7 -7l218 -679q2 -8 6 -10t17 -3l55 -2q6 0 6 -8t-6 -8q-25 0 -41 0.5t-27.5 0.5h-20.5h-21h-22h-23.5t-33 -0.5t-52.5 -1.5q-5 0 -5 8t5 8l85 2q13 1 13 10q0 4 -2 9l-63 200q-2 5 -5 5h-235q-3 0 -5 -5l-66 -202
q-2 -6 -2 -8q0 -9 12 -9l81 -2q5 0 5 -8t-5 -8q-27 1 -43.5 1.5t-27.5 0.5h-18.5h-16.5h-14h-17.5t-25.5 -0.5t-39 -0.5q-5 0 -5 8t5 8zM191 260q0 -4 4 -4h220q5 0 5 5v2.5t-2 6.5l-111 349l-114 -352q-2 -5 -2 -7zM329 940q45 0 71.5 -26.5t26.5 -69.5q0 -45 -26.5 -72
t-71.5 -27q-44 0 -71 27t-27 72q0 43 27 69.5t71 26.5zM329 767q33 0 53 21t20 55t-20 54t-53 20t-53 -20t-20 -54t20 -55t53 -21z" />
    <glyph glyph-name="AE" unicode="&#xc6;" horiz-adv-x="1044" 
d="M1 6q0 7 5 7l78 2q8 0 11.5 3.5t7.5 9.5l385 635q4 7 4 12t-2 7.5t-10 2.5l-81 3q-4 0 -4 8t4 8q30 -1 49 -1.5t32.5 -0.5h24h23.5h60h50.5t51.5 0.5t62.5 0.5t83 0.5t113.5 1.5q6 0 6 -6v-188q0 -4 -8 -4t-8 4q-1 59 -6.5 94t-23.5 53t-53 23t-95 5h-187q-5 0 -9.5 -3.5
t-4.5 -11.5v-295q0 -6 6 -6h72q48 0 77.5 2.5t45 14.5t20.5 38t5 74q0 5 8 5t8 -5q-1 -40 -1 -72.5v-64.5v-66.5t1 -72.5q0 -5 -8 -5t-8 5q0 48 -5.5 74.5t-21 39t-44.5 15t-77 2.5h-72q-6 0 -6 -6v-317q0 -8 4.5 -11.5t9.5 -3.5h198q67 0 107 5.5t61 25.5t27.5 59t7.5 106
q0 5 8 5t8 -5l-1 -209q0 -6 -6 -6q-99 1 -159 1.5t-102.5 1t-80 0.5h-91.5h-38t-32.5 -0.5t-36.5 -1t-49 -1.5q-4 0 -4 8t4 8l87 3q5 0 9.5 4t4.5 10v253q0 9 -9 9h-201q-4 0 -7 -6l-152 -250q-4 -7 -4 -12q0 -9 15 -9l80 -1q6 0 6 -8t-6 -8q-28 1 -45.5 1.5t-29 0.5h-19.5
h-16q-17 0 -37.5 -0.5t-64.5 -2.5q-5 0 -5 9zM295 312q0 -4 5 -4h187q9 0 9 9v324l-2 1l-196 -323l-2.5 -5t-0.5 -2z" />
    <glyph glyph-name="Ccedilla" unicode="&#xc7;" horiz-adv-x="705" 
d="M390 718q69 0 130.5 -16t107.5 -44q6 -4 6 -10v-161q0 -6 -8 -6t-9 7q-4 48 -11.5 84.5t-24.5 59.5q-28 37 -78.5 53.5t-111.5 16.5q-131 0 -200 -87t-69 -261v-2q0 -179 67.5 -265t200.5 -86q68 0 120 21.5t77 63.5q8 12 13 30.5t8.5 40.5t6 45t3.5 45q0 6 8 6t8 -5
l-1 -182q0 -5 -1 -6.5t-4 -3.5q-51 -38 -109.5 -54t-121.5 -17v-60q30 -8 46 -32.5t16 -54.5q0 -21 -8 -42t-23.5 -38t-39 -27.5t-55.5 -10.5q-5 0 -5 8t5 8q25 0 44 8t31.5 21t18.5 28t6 30q0 18 -8.5 32t-24.5 19h-2q-3 -14 -13.5 -23t-27.5 -9t-28 11.5t-11 28.5
q0 18 13 32t42 14h8v57q-76 1 -138 27.5t-105.5 73.5t-67 113.5t-23.5 148.5q0 84 24.5 152.5t69.5 117t108 74.5t141 26z" />
    <glyph glyph-name="Egrave" unicode="&#xc8;" horiz-adv-x="688" 
d="M38 14l86 2q6 0 10.5 4t4.5 10v641q0 14 -15 14l-82 2q-4 0 -4 8t4 8q30 0 49 -0.5t32.5 -0.5h24h23.5h60h50.5t51.5 0.5t62.5 0.5t83 0.5t113.5 1.5q6 0 6 -6v-188q0 -4 -8 -4t-8 4q-1 59 -6.5 94t-23.5 53t-53 23t-95 5h-187q-5 0 -9.5 -3.5t-4.5 -11.5v-295q0 -6 6 -6
h72q48 0 77.5 2.5t45 14.5t20.5 38t5 74q0 5 8 5t8 -5q-1 -40 -1 -72.5v-64.5v-66.5t1 -72.5q0 -5 -8 -5t-8 5q0 48 -5.5 74.5t-21 39t-44.5 15t-77 2.5h-72q-6 0 -6 -6v-317q0 -8 4.5 -11.5t9.5 -3.5h198q67 0 107 5.5t61 25.5t27.5 59t7.5 106q0 5 8 5t8 -5l-1 -209
q0 -6 -5 -6q-66 1 -114 1.5t-84.5 0.5t-64 0.5t-53.5 0.5h-54h-64h-38h-32.5t-36.5 -0.5t-49 -1.5q-4 0 -4 8t4 8zM227 962h40q7 0 10 -1.5t7 -8.5l98 -181q0 -4 -3 -6t-6 -2q-4 0 -7 3l-140 168q-7 9 -8.5 12t-1.5 7q0 9 11 9z" />
    <glyph glyph-name="Eacute" unicode="&#xc9;" horiz-adv-x="688" 
d="M34 6q0 8 4 8l86 2q6 0 10.5 4t4.5 10v641q0 14 -15 14l-82 2q-4 0 -4 8t4 8q30 0 49 -0.5t32.5 -0.5h24h23.5h60h50.5t51.5 0.5t62.5 0.5t83 0.5t113.5 1.5q6 0 6 -6v-188q0 -4 -8 -4t-8 4q-1 59 -6.5 94t-23.5 53t-53 23t-95 5h-187q-5 0 -9.5 -3.5t-4.5 -11.5v-295
q0 -6 6 -6h72q48 0 77.5 2.5t45 14.5t20.5 38t5 74q0 5 8 5t8 -5q-1 -40 -1 -72.5v-64.5v-66.5t1 -72.5q0 -5 -8 -5t-8 5q0 48 -5.5 74.5t-21 39t-44.5 15t-77 2.5h-72q-6 0 -6 -6v-317q0 -8 4.5 -11.5t9.5 -3.5h198q67 0 107 5.5t61 25.5t27.5 59t7.5 106q0 5 8 5t8 -5
l-1 -209q0 -6 -5 -6q-66 1 -114 1.5t-84.5 0.5t-64 0.5t-53.5 0.5h-54h-64h-38h-32.5t-36.5 -0.5t-49 -1.5q-4 0 -4 8zM313 771l98 181q3 7 6.5 8.5t9.5 1.5h41q11 0 11 -9q0 -4 -2 -7t-9 -12l-140 -168q-2 -3 -6 -3q-3 0 -6 2t-3 6z" />
    <glyph glyph-name="Ecircumflex" unicode="&#xca;" horiz-adv-x="688" 
d="M365 940q5 0 6.5 -1.5t5.5 -6.5l117 -160q5 -7 5.5 -8t0.5 -3q0 -4 -5 -4h-7q-4 0 -10 5l-128 119q-6 6 -8 6t-7 -6l-97 -119q-5 -5 -9 -5h-5q-6 0 -6 4q0 2 0.5 3t5.5 6l122 163q6 7 12 7h7zM38 -2q-4 0 -4 8t4 8l86 2q6 0 10.5 4t4.5 10v641q0 14 -15 14l-82 2
q-4 0 -4 8t4 8q30 0 49 -0.5t32.5 -0.5h24h23.5h60h50.5t51.5 0.5t62.5 0.5t83 0.5t113.5 1.5q6 0 6 -6v-188q0 -4 -8 -4t-8 4q-1 59 -6.5 94t-23.5 53t-53 23t-95 5h-187q-5 0 -9.5 -3.5t-4.5 -11.5v-295q0 -6 6 -6h72q48 0 77.5 2.5t45 14.5t20.5 38t5 74q0 5 8 5t8 -5
q-1 -40 -1 -72.5v-64.5v-66.5t1 -72.5q0 -5 -8 -5t-8 5q0 48 -5.5 74.5t-21 39t-44.5 15t-77 2.5h-72q-6 0 -6 -6v-317q0 -8 4.5 -11.5t9.5 -3.5h198q67 0 107 5.5t61 25.5t27.5 59t7.5 106q0 5 8 5t8 -5l-1 -209q0 -6 -5 -6q-66 1 -114 1.5t-84.5 0.5t-64 0.5t-53.5 0.5
h-54h-64h-38h-32.5t-36.5 -0.5t-49 -1.5z" />
    <glyph glyph-name="Edieresis" unicode="&#xcb;" horiz-adv-x="688" 
d="M34 6q0 8 4 8l86 2q6 0 10.5 4t4.5 10v641q0 14 -15 14l-82 2q-4 0 -4 8t4 8q30 0 49 -0.5t32.5 -0.5h24h23.5h60h50.5t51.5 0.5t62.5 0.5t83 0.5t113.5 1.5q6 0 6 -6v-188q0 -4 -8 -4t-8 4q-1 59 -6.5 94t-23.5 53t-53 23t-95 5h-187q-5 0 -9.5 -3.5t-4.5 -11.5v-295
q0 -6 6 -6h72q48 0 77.5 2.5t45 14.5t20.5 38t5 74q0 5 8 5t8 -5q-1 -40 -1 -72.5v-64.5v-66.5t1 -72.5q0 -5 -8 -5t-8 5q0 48 -5.5 74.5t-21 39t-44.5 15t-77 2.5h-72q-6 0 -6 -6v-317q0 -8 4.5 -11.5t9.5 -3.5h198q67 0 107 5.5t61 25.5t27.5 59t7.5 106q0 5 8 5t8 -5
l-1 -209q0 -6 -5 -6q-66 1 -114 1.5t-84.5 0.5t-64 0.5t-53.5 0.5h-54h-64h-38h-32.5t-36.5 -0.5t-49 -1.5q-4 0 -4 8zM411 819q0 18 11 29t28 11q18 0 29 -11t11 -29t-11 -29.5t-29 -11.5q-17 0 -28 11.5t-11 29.5zM262 859q18 0 29 -11t11 -29t-11 -29.5t-29 -11.5
q-17 0 -28 11.5t-11 29.5t11 29t28 11z" />
    <glyph glyph-name="Igrave" unicode="&#xcc;" horiz-adv-x="345" 
d="M39 704q30 -1 49 -1.5t32.5 -0.5h25h26.5h29.5h27t32.5 0.5t45 1.5q5 0 5 -9q0 -8 -5 -8l-88 -1q-5 0 -9.5 -3t-4.5 -11v-643q0 -8 4 -10.5t10 -2.5l88 -1q5 -1 5 -8q0 -8 -5 -8q-29 0 -47.5 0.5t-32 0.5h-25.5h-29h-28h-25.5t-32 -0.5t-47.5 -0.5q-5 0 -5 8t5 8l87 1
q5 0 10 2.5t5 12.5v641q0 9 -4 11.5t-10 2.5l-88 1q-5 1 -5 9t5 8zM44 962h40q7 0 10 -1.5t7 -8.5l98 -181q0 -4 -3 -6t-6 -2q-4 0 -7 3l-140 168q-7 9 -8.5 12t-1.5 7q0 9 11 9z" />
    <glyph glyph-name="Iacute" unicode="&#xcd;" horiz-adv-x="345" 
d="M39 15l87 1q5 0 10 2.5t5 12.5v641q0 9 -4 11.5t-10 2.5l-88 1q-5 1 -5 9t5 8q30 -1 49 -1.5t32.5 -0.5h25h26.5h29.5h27t32.5 0.5t45 1.5q5 0 5 -9q0 -8 -5 -8l-88 -1q-5 0 -9.5 -3t-4.5 -11v-643q0 -8 4 -10.5t10 -2.5l88 -1q5 -1 5 -8q0 -8 -5 -8q-29 0 -47.5 0.5
t-32 0.5h-25.5h-29h-28h-25.5t-32 -0.5t-47.5 -0.5q-5 0 -5 8t5 8zM228 952q3 7 6.5 8.5t9.5 1.5h41q11 0 11 -9q0 -4 -2 -7t-9 -12l-140 -168q-2 -3 -6 -3q-3 0 -6 2t-3 6z" />
    <glyph glyph-name="Icircumflex" unicode="&#xce;" horiz-adv-x="345" 
d="M182 940q5 0 6.5 -1.5t5.5 -6.5l117 -160q5 -7 5.5 -8t0.5 -3q0 -4 -5 -4h-7q-4 0 -10 5l-128 119q-6 6 -8 6t-7 -6l-97 -119q-5 -5 -9 -5h-5q-6 0 -6 4q0 2 0.5 3t5.5 6l122 163q6 7 12 7h7zM39 -1q-5 0 -5 8t5 8l87 1q5 0 10 2.5t5 12.5v641q0 9 -4 11.5t-10 2.5l-88 1
q-5 1 -5 9t5 8q30 -1 49 -1.5t32.5 -0.5h25h26.5h29.5h27t32.5 0.5t45 1.5q5 0 5 -9q0 -8 -5 -8l-88 -1q-5 0 -9.5 -3t-4.5 -11v-643q0 -8 4 -10.5t10 -2.5l88 -1q5 -1 5 -8q0 -8 -5 -8q-29 0 -47.5 0.5t-32 0.5h-25.5h-29h-28h-25.5t-32 -0.5t-47.5 -0.5z" />
    <glyph glyph-name="Idieresis" unicode="&#xcf;" horiz-adv-x="345" 
d="M34 696q0 8 5 8q30 -1 49 -1.5t32.5 -0.5h25h26.5h29.5h27t32.5 0.5t45 1.5q5 0 5 -9q0 -8 -5 -8l-88 -1q-5 0 -9.5 -3t-4.5 -11v-643q0 -8 4 -10.5t10 -2.5l88 -1q5 -1 5 -8q0 -8 -5 -8q-29 0 -47.5 0.5t-32 0.5h-25.5h-29h-28h-25.5t-32 -0.5t-47.5 -0.5q-5 0 -5 8t5 8
l87 1q5 0 10 2.5t5 12.5v641q0 9 -4 11.5t-10 2.5l-88 1q-5 1 -5 9zM228 819q0 18 11 29t28 11q18 0 29 -11t11 -29t-11 -29.5t-29 -11.5q-17 0 -28 11.5t-11 29.5zM40 819q0 18 11 29t28 11q18 0 29 -11t11 -29t-11 -29.5t-29 -11.5q-17 0 -28 11.5t-11 29.5z" />
    <glyph glyph-name="Eth" unicode="&#xd0;" horiz-adv-x="781" 
d="M39 -3q-5 0 -5 9q0 8 5 8l81 3q6 0 10.5 3.5t4.5 10.5v309q0 14 -15 14h-81q-5 0 -5 9q0 8 5 8h81q15 0 15 15v285q0 14 -15 14l-81 3q-5 0 -5 8q0 9 5 9q28 -1 45 -1.5t30 -1t25 -0.5h28h31.5h30t33 0.5t41.5 0.5q26 0 45.5 0.5t36 0.5h31.5h30q140 0 213.5 -87
t73.5 -254q0 -181 -84 -273t-239 -92h-56t-68 1q-39 1 -64 1h-55h-29t-27 -0.5t-31 -1t-41 -1.5zM397 14q135 0 200.5 81.5t65.5 256.5v8q0 328 -236 328l-114 -1q-27 0 -42.5 -0.5t-25 -0.5t-17 -0.5t-18.5 -0.5t-11 -10v-289q0 -15 15 -15h125q5 0 5 -8q0 -9 -5 -9h-125
q-15 0 -15 -14v-312q0 -11 11 -11q93 -3 187 -3z" />
    <glyph glyph-name="Ntilde" unicode="&#xd1;" horiz-adv-x="760" 
d="M34 695q0 8 5 8q17 0 28.5 -0.5t20 -0.5h15.5h15h15.5h16.5t20.5 0.5t27.5 0.5q3 0 5 -1t6 -6l413 -601h2v575q0 10 -4.5 12.5t-11.5 3.5l-80 2q-5 0 -5 8t5 8q24 -1 39.5 -1.5t26.5 -0.5h19.5h18.5h19h18.5t25.5 0.5t39 0.5q5 0 5 -7q0 -9 -5 -9l-79 -1
q-6 -1 -10.5 -3.5t-4.5 -12.5v-672q0 -9 -8 -9h-5q-6 0 -11 7l-461 670h-2v-635q0 -9 4 -12t11 -3l81 -2q5 0 5 -8t-5 -8q-25 1 -41 1.5t-27 0.5h-19h-17h-18h-18.5t-26 -0.5t-40.5 -0.5q-5 0 -5 8t5 8l80 1q7 0 11 2.5t4 11.5v640q0 10 -5 12.5t-10 2.5l-83 1q-5 0 -5 9z
M218 776q0 60 25.5 93.5t67.5 33.5q31 0 53.5 -15.5t39.5 -32.5q18 -17 36 -29.5t43 -12.5q29 0 46 22t18 62q1 4 8 4q8 0 8 -4q0 -60 -26 -93.5t-68 -33.5q-31 0 -52.5 15.5t-40.5 32.5q-17 16 -35 29t-43 13q-29 0 -46.5 -22t-18.5 -62q0 -5 -7 -5q-8 0 -8 5z" />
    <glyph glyph-name="Ograve" unicode="&#xd2;" horiz-adv-x="741" 
d="M47 349q0 83 23.5 150.5t66 115.5t102.5 74.5t133 26.5q72 0 131.5 -25.5t102 -72.5t65.5 -113.5t23 -149.5t-23.5 -151t-66 -116.5t-102 -75t-131.5 -26.5q-73 0 -132.5 25.5t-102 73t-66 114.5t-23.5 150zM121 356v-1q0 -175 64 -264t187 -89q121 0 184.5 87t63.5 258
v2q0 172 -64 261.5t-184 89.5q-123 0 -187 -86.5t-64 -257.5zM232 953q0 9 11 9h40q7 0 10 -1.5t7 -8.5l98 -181q0 -4 -3 -6t-6 -2q-4 0 -7 3l-140 168q-7 9 -8.5 12t-1.5 7z" />
    <glyph glyph-name="Oacute" unicode="&#xd3;" horiz-adv-x="741" 
d="M47 349q0 83 23.5 150.5t66 115.5t102.5 74.5t133 26.5q72 0 131.5 -25.5t102 -72.5t65.5 -113.5t23 -149.5t-23.5 -151t-66 -116.5t-102 -75t-131.5 -26.5q-73 0 -132.5 25.5t-102 73t-66 114.5t-23.5 150zM121 355q0 -175 64 -264t187 -89q121 0 184.5 87t63.5 258v2
q0 172 -64 261.5t-184 89.5q-123 0 -187 -86.5t-64 -257.5v-1zM427 952q3 7 6.5 8.5t9.5 1.5h41q11 0 11 -9q0 -4 -2 -7t-9 -12l-140 -168q-2 -3 -6 -3q-3 0 -6 2t-3 6z" />
    <glyph glyph-name="Ocircumflex" unicode="&#xd4;" horiz-adv-x="741" 
d="M381 940q5 0 6.5 -1.5t5.5 -6.5l117 -160q5 -7 5.5 -8t0.5 -3q0 -4 -5 -4h-7q-4 0 -10 5l-128 119q-6 6 -8 6t-7 -6l-97 -119q-5 -5 -9 -5h-5q-6 0 -6 4q0 2 0.5 3t5.5 6l122 163q6 7 12 7h7zM371 -14q-73 0 -132.5 25.5t-102 73t-66 114.5t-23.5 150t23.5 150.5
t66 115.5t102.5 74.5t133 26.5q72 0 131.5 -25.5t102 -72.5t65.5 -113.5t23 -149.5t-23.5 -151t-66 -116.5t-102 -75t-131.5 -26.5zM372 2q121 0 184.5 87t63.5 258v2q0 172 -64 261.5t-184 89.5q-123 0 -187 -86.5t-64 -257.5v-1q0 -175 64 -264t187 -89z" />
    <glyph glyph-name="Otilde" unicode="&#xd5;" horiz-adv-x="741" 
d="M47 349q0 83 23.5 150.5t66 115.5t102.5 74.5t133 26.5q72 0 131.5 -25.5t102 -72.5t65.5 -113.5t23 -149.5t-23.5 -151t-66 -116.5t-102 -75t-131.5 -26.5q-73 0 -132.5 25.5t-102 73t-66 114.5t-23.5 150zM121 356v-1q0 -175 64 -264t187 -89q121 0 184.5 87t63.5 258
v2q0 172 -64 261.5t-184 89.5q-123 0 -187 -86.5t-64 -257.5zM200 776q0 60 25.5 93.5t67.5 33.5q31 0 53.5 -15.5t39.5 -32.5q18 -17 36 -29.5t43 -12.5q29 0 46 22t18 62q1 4 8 4q8 0 8 -4q0 -60 -26 -93.5t-68 -33.5q-31 0 -52.5 15.5t-40.5 32.5q-17 16 -35 29t-43 13
q-29 0 -46.5 -22t-18.5 -62q0 -5 -7 -5q-8 0 -8 5z" />
    <glyph glyph-name="Odieresis" unicode="&#xd6;" horiz-adv-x="741" 
d="M47 349q0 83 23.5 150.5t66 115.5t102.5 74.5t133 26.5q72 0 131.5 -25.5t102 -72.5t65.5 -113.5t23 -149.5t-23.5 -151t-66 -116.5t-102 -75t-131.5 -26.5q-73 0 -132.5 25.5t-102 73t-66 114.5t-23.5 150zM121 356v-1q0 -175 64 -264t187 -89q121 0 184.5 87t63.5 258
v2q0 172 -64 261.5t-184 89.5q-123 0 -187 -86.5t-64 -257.5zM466 859q18 0 29 -11t11 -29t-11 -29.5t-29 -11.5q-17 0 -28 11.5t-11 29.5t11 29t28 11zM239 819q0 18 11 29t28 11q18 0 29 -11t11 -29t-11 -29.5t-29 -11.5q-17 0 -28 11.5t-11 29.5z" />
    <glyph glyph-name="multiply" unicode="&#xd7;" horiz-adv-x="600" 
d="M71 37l214 214l-213 214l15 14l213 -213l213 213l15 -15l-213 -213l214 -214l-15 -15l-214 213l-215 -213z" />
    <glyph glyph-name="Oslash" unicode="&#xd8;" horiz-adv-x="749" 
d="M47 349q0 83 23.5 150.5t66 115.5t102.5 74.5t133 26.5q72 0 131.5 -25t101.5 -73l72 80q3 3 4 3.5t3 0.5h14q4 0 4 -2t-1 -3.5t-7 -7.5l-77 -85q37 -47 57 -109.5t20 -139.5q0 -83 -23.5 -151t-66 -116.5t-102 -75t-131.5 -26.5q-69 0 -126.5 23t-100.5 67l-64 -72
q-4 -4 -7 -4h-15q-3 0 -3 2t1 3.5t6 7.5l69 77q-40 48 -62 113t-22 146zM164 127l409 455q-64 118 -201 118q-123 0 -187 -86.5t-64 -257.5v-1q0 -140 43 -228zM372 2q121 0 184.5 87t63.5 258v2q0 130 -38 215l-408 -455q63 -107 198 -107z" />
    <glyph glyph-name="Ugrave" unicode="&#xd9;" horiz-adv-x="785" 
d="M38 695q0 8 5 8q32 0 51.5 -0.5t33.5 -0.5h26h28h29h26.5t35 0.5t53.5 1.5q5 0 5 -8t-5 -8l-101 -2q-7 0 -11 -3t-4 -12v-506q0 -42 11.5 -72t36 -48.5t64 -27t95.5 -8.5q108 0 161.5 39.5t53.5 133.5v489q0 9 -5 12t-11 3l-80 2q-6 0 -6 8t6 8q24 -1 39 -1.5t26 -0.5h20
h20h19.5h19t25.5 0.5t38 0.5q5 0 5 -8t-5 -8l-80 -1q-6 0 -10.5 -3t-4.5 -12v-488q0 -102 -58.5 -148t-186.5 -46q-133 0 -195 41t-62 129v512q0 9 -4 12t-11 3l-88 1q-5 0 -5 8zM274 953q0 9 11 9h40q7 0 10 -1.5t7 -8.5l98 -181q0 -4 -3 -6t-6 -2q-4 0 -7 3l-140 168
q-7 9 -8.5 12t-1.5 7z" />
    <glyph glyph-name="Uacute" unicode="&#xda;" horiz-adv-x="785" 
d="M38 695q0 8 5 8q32 0 51.5 -0.5t33.5 -0.5h26h28h29h26.5t35 0.5t53.5 1.5q5 0 5 -8t-5 -8l-101 -2q-7 0 -11 -3t-4 -12v-506q0 -42 11.5 -72t36 -48.5t64 -27t95.5 -8.5q108 0 161.5 39.5t53.5 133.5v489q0 9 -5 12t-11 3l-80 2q-6 0 -6 8t6 8q24 -1 39 -1.5t26 -0.5h20
h20h19.5h19t25.5 0.5t38 0.5q5 0 5 -8t-5 -8l-80 -1q-6 0 -10.5 -3t-4.5 -12v-488q0 -102 -58.5 -148t-186.5 -46q-133 0 -195 41t-62 129v512q0 9 -4 12t-11 3l-88 1q-5 0 -5 8zM469 952q3 7 6.5 8.5t9.5 1.5h41q11 0 11 -9q0 -4 -2 -7t-9 -12l-140 -168q-2 -3 -6 -3
q-3 0 -6 2t-3 6z" />
    <glyph glyph-name="Ucircumflex" unicode="&#xdb;" horiz-adv-x="785" 
d="M423 940q5 0 6.5 -1.5t5.5 -6.5l117 -160q5 -7 5.5 -8t0.5 -3q0 -4 -5 -4h-7q-4 0 -10 5l-128 119q-6 6 -8 6t-7 -6l-97 -119q-5 -5 -9 -5h-5q-6 0 -6 4q0 2 0.5 3t5.5 6l122 163q6 7 12 7h7zM403 -11q-133 0 -195 41t-62 129v512q0 9 -4 12t-11 3l-88 1q-5 0 -5 8t5 8
q32 0 51.5 -0.5t33.5 -0.5h26h28h29h26.5t35 0.5t53.5 1.5q5 0 5 -8t-5 -8l-101 -2q-7 0 -11 -3t-4 -12v-506q0 -42 11.5 -72t36 -48.5t64 -27t95.5 -8.5q108 0 161.5 39.5t53.5 133.5v489q0 9 -5 12t-11 3l-80 2q-6 0 -6 8t6 8q24 -1 39 -1.5t26 -0.5h20h20h19.5h19
t25.5 0.5t38 0.5q5 0 5 -8t-5 -8l-80 -1q-6 0 -10.5 -3t-4.5 -12v-488q0 -102 -58.5 -148t-186.5 -46z" />
    <glyph glyph-name="Udieresis" unicode="&#xdc;" horiz-adv-x="785" 
d="M43 703q32 0 51.5 -0.5t33.5 -0.5h26h28h29h26.5t35 0.5t53.5 1.5q5 0 5 -8t-5 -8l-101 -2q-7 0 -11 -3t-4 -12v-506q0 -42 11.5 -72t36 -48.5t64 -27t95.5 -8.5q108 0 161.5 39.5t53.5 133.5v489q0 9 -5 12t-11 3l-80 2q-6 0 -6 8t6 8q24 -1 39 -1.5t26 -0.5h20h20h19.5
h19t25.5 0.5t38 0.5q5 0 5 -8t-5 -8l-80 -1q-6 0 -10.5 -3t-4.5 -12v-488q0 -102 -58.5 -148t-186.5 -46q-133 0 -195 41t-62 129v512q0 9 -4 12t-11 3l-88 1q-5 0 -5 8t5 8zM508 859q18 0 29 -11t11 -29t-11 -29.5t-29 -11.5q-17 0 -28 11.5t-11 29.5t11 29t28 11zM281 819
q0 18 11 29t28 11q18 0 29 -11t11 -29t-11 -29.5t-29 -11.5q-17 0 -28 11.5t-11 29.5z" />
    <glyph glyph-name="Yacute" unicode="&#xdd;" horiz-adv-x="600" 
d="M1 695q0 9 5 9q23 -1 38.5 -1.5t28 -0.5h23.5h24h25h25t33.5 0.5t50.5 1.5q5 0 5 -7q0 -9 -5 -9l-74 -2q-15 0 -15 -9q0 -2 4 -10l158 -272l153 274q4 8 4 10q0 7 -12 7l-76 2q-5 0 -5 9q0 7 5 7q25 -1 40.5 -1.5t26 -0.5h19h18.5h21h18.5t22.5 0.5t32 0.5q5 0 5 -8
t-5 -8l-73 -1q-8 0 -11.5 -3t-7.5 -9l-167 -296v-348q0 -8 4 -10.5t10 -3.5l90 -2q5 0 5 -8q0 -9 -5 -9q-30 1 -48.5 1.5t-32 1t-25.5 0.5h-29h-28t-25.5 -0.5t-32.5 -1t-49 -1.5q-5 0 -5 8q0 9 5 9l91 2q6 1 9.5 3.5t3.5 10.5v323q0 8 -1 13t-6 13l-175 296q-5 7 -8 9
t-11 2l-66 1q-5 0 -5 8zM378 952q3 7 6.5 8.5t9.5 1.5h41q11 0 11 -9q0 -4 -2 -7t-9 -12l-140 -168q-2 -3 -6 -3q-3 0 -6 2t-3 6z" />
    <glyph glyph-name="Thorn" unicode="&#xde;" horiz-adv-x="594" 
d="M34 697q0 8 5 8q30 -1 49 -1.5t32.5 -1t25 -0.5h26.5h29.5t27 0.5t32.5 1t45 1.5q5 0 5 -9q0 -8 -5 -8l-88 -2q-5 0 -9.5 -3t-4.5 -11v-110q0 -10 10 -10h140q101 0 151 -45.5t50 -143.5q0 -94 -49.5 -142.5t-151.5 -48.5h-146q-4 0 -4 -3v-139q0 -14 14 -14l90 -2
q5 0 5 -8t-5 -8q-30 1 -48.5 1.5t-32 0.5h-25h-27.5h-29.5h-26t-31 -0.5t-45.5 -1.5q-6 0 -6 8t6 8l84 2q14 0 14 14v642q0 9 -4 11.5t-10 2.5l-88 2q-5 1 -5 9zM208 188h128q78 0 114 40t36 130v4q0 94 -37 134t-114 40q-31 0 -62.5 -0.5t-57.5 -1.5q-11 0 -11 -10v-333
q0 -3 4 -3z" />
    <glyph glyph-name="germandbls" unicode="&#xdf;" horiz-adv-x="573" 
d="M15 1v9q0 4 4 4l58 3q15 0 15 14v453q0 119 53 180t156 61q85 0 131 -40.5t46 -109.5q0 -61 -36 -101t-116 -50v-2q107 -8 162 -59.5t55 -158.5q0 -48 -11 -87t-32 -67.5t-52.5 -44t-73.5 -15.5q-137 0 -137 166q0 7 10 7q7 0 7 -6q0 -77 28.5 -113t79.5 -36
q63 0 90 51.5t27 140.5q0 57 -12 97t-38.5 66t-68 38t-100.5 12q-4 0 -4 4v8q0 4 4 4q83 0 121 38t38 111q0 69 -35 99.5t-89 30.5q-71 0 -107.5 -47.5t-36.5 -141.5v-488q0 -14 15 -14l60 -3q4 0 4 -4v-8q0 -4 -4 -4q-17 1 -30 1.5t-24 0.5h-22.5h-26.5q-17 0 -40 -0.5
t-64 -2.5q-4 0 -4 4z" />
    <glyph glyph-name="agrave" unicode="&#xe0;" horiz-adv-x="499" 
d="M171 267q59 9 96.5 18t66.5 25v55q0 52 -24 80t-83 28q-55 0 -78.5 -21.5t-23.5 -46.5q0 -8 1.5 -12.5t3.5 -8.5t3.5 -8t1.5 -11q0 -14 -9 -22t-23 -8q-33 0 -33 35q0 54 43.5 86.5t121.5 32.5q160 0 160 -140v-275q0 -34 10 -48t30 -14q15 0 26.5 6t24.5 18q9 -2 9 -13
q-17 -17 -36 -24.5t-44 -7.5q-38 0 -58.5 17t-21.5 55v46h-2q-10 -26 -23.5 -48t-33 -37.5t-45.5 -24.5t-61 -9q-63 0 -97.5 34.5t-34.5 104.5q0 35 9 59.5t26 40.5t42 25t56 13zM191 13q39 0 66.5 18t44.5 46t25 62.5t8 67.5v82l-2 2q-26 -13 -57.5 -20t-65.5 -12
q-30 -6 -50.5 -14.5t-33.5 -22.5t-19 -36t-6 -54q0 -33 7 -56t19 -37t28.5 -20t35.5 -6zM107 735h40q7 0 10 -1.5t7 -8.5l98 -181q0 -4 -3 -6t-6 -2q-4 0 -7 3l-140 168q-7 9 -8.5 12t-1.5 7q0 9 11 9z" />
    <glyph glyph-name="aacute" unicode="&#xe1;" horiz-adv-x="499" 
d="M171 267q59 9 96.5 18t66.5 25v55q0 52 -24 80t-83 28q-55 0 -78.5 -21.5t-23.5 -46.5q0 -8 1.5 -12.5t3.5 -8.5t3.5 -8t1.5 -11q0 -14 -9 -22t-23 -8q-33 0 -33 35q0 54 43.5 86.5t121.5 32.5q160 0 160 -140v-275q0 -34 10 -48t30 -14q15 0 26.5 6t24.5 18q9 -2 9 -13
q-17 -17 -36 -24.5t-44 -7.5q-38 0 -58.5 17t-21.5 55v46h-2q-10 -26 -23.5 -48t-33 -37.5t-45.5 -24.5t-61 -9q-63 0 -97.5 34.5t-34.5 104.5q0 35 9 59.5t26 40.5t42 25t56 13zM191 13q39 0 66.5 18t44.5 46t25 62.5t8 67.5v82l-2 2q-26 -13 -57.5 -20t-65.5 -12
q-30 -6 -50.5 -14.5t-33.5 -22.5t-19 -36t-6 -54q0 -33 7 -56t19 -37t28.5 -20t35.5 -6zM291 725q3 7 6.5 8.5t9.5 1.5h41q11 0 11 -9q0 -4 -2 -7t-9 -12l-140 -168q-2 -3 -6 -3q-3 0 -6 2t-3 6z" />
    <glyph glyph-name="acircumflex" unicode="&#xe2;" horiz-adv-x="499" 
d="M245 713q5 0 6.5 -1.5t5.5 -6.5l117 -160q5 -7 5.5 -8t0.5 -3q0 -4 -5 -4h-7q-4 0 -10 5l-128 119q-6 6 -8 6t-7 -6l-97 -119q-5 -5 -9 -5h-5q-6 0 -6 4q0 2 0.5 3t5.5 6l122 163q6 7 12 7h7zM170 -10q-63 0 -97.5 34.5t-34.5 104.5q0 35 9 59.5t26 40.5t42 25t56 13
q59 8 96.5 17.5t66.5 25.5v55q0 52 -24 80t-83 28q-55 0 -78.5 -21.5t-23.5 -46.5q0 -8 1.5 -12.5t3.5 -8.5t3.5 -8t1.5 -11q0 -14 -9 -22t-23 -8q-33 0 -33 35q0 54 43.5 86.5t121.5 32.5q160 0 160 -140v-131v-144q0 -34 10 -48t30 -14q15 0 26.5 6t24.5 18q9 -2 9 -13
q-17 -17 -36 -24.5t-44 -7.5q-38 0 -58.5 17t-21.5 55v46h-2q-10 -26 -23.5 -48t-33 -37.5t-45.5 -24.5t-61 -9zM191 13q39 0 66 18t44.5 46.5t25.5 62.5t8 67v82l-2 2q-26 -13 -57.5 -20t-65.5 -12q-30 -6 -50.5 -14.5t-33.5 -23t-19 -36t-6 -53.5q0 -33 7 -56t19 -37
t28.5 -20t35.5 -6z" />
    <glyph glyph-name="atilde" unicode="&#xe3;" horiz-adv-x="499" 
d="M38 129q0 35 9 59.5t26 40t42 24.5t56 14q59 9 96.5 18t66.5 25v55q0 52 -24 80t-83 28q-55 0 -78.5 -21.5t-23.5 -46.5q0 -8 1.5 -12.5t3.5 -8.5t3.5 -8t1.5 -11q0 -14 -9 -22t-23 -8q-33 0 -33 35q0 54 43.5 86.5t121.5 32.5q160 0 160 -140v-275q0 -34 10 -48t30 -14
q15 0 26.5 6t24.5 18q9 -2 9 -13q-17 -17 -36 -24.5t-44 -7.5q-38 0 -58.5 17t-21.5 55v46h-2q-10 -26 -23.5 -48t-33 -37.5t-45.5 -24.5t-61 -9q-63 0 -97.5 34.5t-34.5 104.5zM101 132q0 -33 7 -56t19 -37t28.5 -20t35.5 -6q39 0 66.5 18t44.5 46t25 62.5t8 67.5v82l-2 2
q-26 -13 -57.5 -20t-65.5 -12q-30 -6 -50.5 -14.5t-33.5 -22.5t-19 -36t-6 -54zM64 549q0 60 25.5 93.5t67.5 33.5q31 0 53.5 -15.5t39.5 -32.5q18 -17 36 -29.5t43 -12.5q29 0 46 22t18 62q1 4 8 4q8 0 8 -4q0 -60 -26 -93.5t-68 -33.5q-31 0 -52.5 15.5t-40.5 32.5
q-17 16 -35 29t-43 13q-29 0 -46.5 -22t-18.5 -62q0 -5 -7 -5q-8 0 -8 5z" />
    <glyph glyph-name="adieresis" unicode="&#xe4;" horiz-adv-x="499" 
d="M171 267q59 9 96.5 18t66.5 25v55q0 52 -24 80t-83 28q-55 0 -78.5 -21.5t-23.5 -46.5q0 -8 1.5 -12.5t3.5 -8.5t3.5 -8t1.5 -11q0 -14 -9 -22t-23 -8q-33 0 -33 35q0 54 43.5 86.5t121.5 32.5q160 0 160 -140v-275q0 -34 10 -48t30 -14q15 0 26.5 6t24.5 18q9 -2 9 -13
q-17 -17 -36 -24.5t-44 -7.5q-38 0 -58.5 17t-21.5 55v46h-2q-10 -26 -23.5 -48t-33 -37.5t-45.5 -24.5t-61 -9q-63 0 -97.5 34.5t-34.5 104.5q0 35 9 59.5t26 40.5t42 25t56 13zM191 13q39 0 66.5 18t44.5 46t25 62.5t8 67.5v82l-2 2q-26 -13 -57.5 -20t-65.5 -12
q-30 -6 -50.5 -14.5t-33.5 -22.5t-19 -36t-6 -54q0 -33 7 -56t19 -37t28.5 -20t35.5 -6zM330 679q18 0 29 -11t11 -29t-11 -29.5t-29 -11.5q-17 0 -28 11.5t-11 29.5t11 29t28 11zM142 679q18 0 29 -11t11 -29t-11 -29.5t-29 -11.5q-17 0 -28 11.5t-11 29.5t11 29t28 11z
" />
    <glyph glyph-name="aring" unicode="&#xe5;" horiz-adv-x="499" 
d="M171 267q59 9 96.5 18t66.5 25v55q0 52 -24 80t-83 28q-55 0 -78.5 -21.5t-23.5 -46.5q0 -8 1.5 -12.5t3.5 -8.5t3.5 -8t1.5 -11q0 -14 -9 -22t-23 -8q-33 0 -33 35q0 54 43.5 86.5t121.5 32.5q160 0 160 -140v-275q0 -34 10 -48t30 -14q15 0 26.5 6t24.5 18q9 -2 9 -13
q-17 -17 -36 -24.5t-44 -7.5q-38 0 -58.5 17t-21.5 55v46h-2q-10 -26 -23.5 -48t-33 -37.5t-45.5 -24.5t-61 -9q-63 0 -97.5 34.5t-34.5 104.5q0 35 9 59.5t26 40.5t42 25t56 13zM191 13q39 0 66.5 18t44.5 46t25 62.5t8 67.5v82l-2 2q-26 -13 -57.5 -20t-65.5 -12
q-30 -6 -50.5 -14.5t-33.5 -22.5t-19 -36t-6 -54q0 -33 7 -56t19 -37t28.5 -20t35.5 -6zM138 617q0 43 27 69.5t71 26.5q45 0 71.5 -26.5t26.5 -69.5q0 -45 -26.5 -72t-71.5 -27q-44 0 -71 27t-27 72zM163 616q0 -34 20 -55t53 -21t53 21t20 55t-20 54t-53 20t-53 -20
t-20 -54z" />
    <glyph glyph-name="ae" unicode="&#xe6;" horiz-adv-x="808" 
d="M38 126q0 38 9.5 63.5t28 41t45 24t60.5 12.5q17 2 37.5 5t41 7.5t40 11.5t33.5 16v59q0 51 -24 78.5t-81 27.5q-54 0 -77 -21t-23 -47q0 -7 1.5 -12t3 -9.5l3 -9t1.5 -11.5q0 -30 -34 -30q-33 0 -33 36q0 55 42.5 87.5t121.5 32.5q124 0 147 -92q29 45 75.5 69.5
t107.5 24.5q48 0 87.5 -15.5t67 -44t43 -68.5t16.5 -88q0 -6 -6 -6h-364q-6 0 -6 -7v-36q0 -108 47.5 -163t128.5 -55q35 0 60.5 9t45.5 25.5t35.5 40t29.5 52.5q2 3 6 3q10 0 10 -7q-22 -66 -74 -104t-128 -38q-82 0 -139 42.5t-78 120.5h-1q-12 -78 -54.5 -119t-115.5 -41
q-66 0 -101.5 33.5t-35.5 101.5zM193 14q68 0 104.5 51t36.5 139v81l-2 2q-24 -13 -57 -20t-66 -12q-55 -10 -80.5 -37t-25.5 -86q0 -66 25.5 -92t64.5 -26zM410 285h295q6 0 6 5v3q0 38 -9.5 71t-29 57t-47.5 38t-66 14q-37 0 -66 -15t-49 -40t-30 -57.5t-10 -67.5v-4
q0 -4 6 -4z" />
    <glyph glyph-name="ccedilla" unicode="&#xe7;" horiz-adv-x="488" 
d="M30 233q0 57 15.5 103.5t45.5 80.5t72.5 52.5t96.5 18.5q45 0 80 -12t59 -31.5t36.5 -44t12.5 -49.5q0 -21 -10.5 -30t-25.5 -9q-14 0 -23 8t-9 24q0 14 4.5 22t2.5 22q-1 19 -11.5 34.5t-27.5 26t-39.5 16.5t-47.5 6q-86 0 -126.5 -57.5t-40.5 -171.5v-11
q0 -60 12.5 -102.5t35 -70t54 -40t68.5 -12.5q52 0 99 32t74 112q1 3 6 3q9 0 9 -6q-17 -77 -68 -117.5t-123 -42.5v-61q30 -8 46 -32.5t16 -54.5q0 -21 -8 -42t-23.5 -38t-39 -27.5t-55.5 -10.5q-5 0 -5 8t5 8q25 0 44 8t31.5 21t18.5 28t6 30q0 18 -8.5 32t-24.5 19h-2
q-3 -14 -13.5 -23t-27.5 -9t-28 11.5t-11 28.5q0 18 13 32t42 14h8v58q-49 1 -89 19t-68 49.5t-43 76.5t-15 101z" />
    <glyph glyph-name="egrave" unicode="&#xe8;" 
d="M256 490q48 0 87 -16t67 -44.5t43.5 -68t15.5 -87.5q0 -6 -6 -6h-360q-6 0 -6 -7v-36q0 -108 47.5 -163t126.5 -55q62 0 105.5 35t63.5 92q3 3 6 3q10 0 10 -7q-22 -66 -74 -104t-127 -38q-50 0 -91.5 17t-71 49t-46 78.5t-16.5 105.5q0 57 16 103.5t45.5 79.5t71.5 51
t93 18zM105 284h292q5 0 5 6v3q0 39 -10 72t-28.5 57t-46.5 37.5t-64 13.5q-37 0 -66 -15t-48.5 -40t-29.5 -58t-10 -68v-3q0 -5 6 -5zM107 726q0 9 11 9h40q7 0 10 -1.5t7 -8.5l98 -181q0 -4 -3 -6t-6 -2q-4 0 -7 3l-140 168q-7 9 -8.5 12t-1.5 7z" />
    <glyph glyph-name="eacute" unicode="&#xe9;" 
d="M256 490q48 0 87 -16t67 -44.5t43.5 -68t15.5 -87.5q0 -6 -6 -6h-360q-6 0 -6 -7v-36q0 -108 47.5 -163t126.5 -55q62 0 105.5 35t63.5 92q3 3 6 3q10 0 10 -7q-22 -66 -74 -104t-127 -38q-50 0 -91.5 17t-71 49t-46 78.5t-16.5 105.5q0 57 16 103.5t45.5 79.5t71.5 51
t93 18zM105 284h292q5 0 5 6v3q0 39 -10 72t-28.5 57t-46.5 37.5t-64 13.5q-37 0 -66 -15t-48.5 -40t-29.5 -58t-10 -68v-3q0 -5 6 -5zM302 725q3 7 6.5 8.5t9.5 1.5h41q11 0 11 -9q0 -4 -2 -7t-9 -12l-140 -168q-2 -3 -6 -3q-3 0 -6 2t-3 6z" />
    <glyph glyph-name="ecircumflex" unicode="&#xea;" 
d="M256 713q5 0 6.5 -1.5t5.5 -6.5l117 -160q5 -7 5.5 -8t0.5 -3q0 -4 -5 -4h-7q-4 0 -10 5l-128 119q-6 6 -8 6t-7 -6l-97 -119q-5 -5 -9 -5h-5q-6 0 -6 4q0 2 0.5 3t5.5 6l122 163q6 7 12 7h7zM255 -12q-50 0 -91.5 17t-71 49t-46 78.5t-16.5 105.5q0 57 16 103.5
t45.5 79.5t71.5 51t93 18q48 0 87 -16t67 -44.5t43.5 -68t15.5 -87.5q0 -6 -6 -6h-360q-6 0 -6 -7v-36q0 -108 47.5 -163t126.5 -55q62 0 105.5 35t63.5 92q3 3 6 3q10 0 10 -7q-22 -66 -74 -104t-127 -38zM397 284q5 0 5 6v3q0 39 -10 72t-28.5 57t-46.5 37.5t-64 13.5
q-37 0 -66 -15t-48.5 -40t-29.5 -58t-10 -68v-3q0 -5 6 -5h292z" />
    <glyph glyph-name="edieresis" unicode="&#xeb;" 
d="M256 490q48 0 87 -16t67 -44.5t43.5 -68t15.5 -87.5q0 -6 -6 -6h-360q-6 0 -6 -7v-36q0 -108 47.5 -163t126.5 -55q62 0 105.5 35t63.5 92q3 3 6 3q10 0 10 -7q-22 -66 -74 -104t-127 -38q-50 0 -91.5 17t-71 49t-46 78.5t-16.5 105.5q0 57 16 103.5t45.5 79.5t71.5 51
t93 18zM99 292v-3q0 -5 6 -5h292q5 0 5 6v3q0 39 -10 72t-28.5 57t-46.5 37.5t-64 13.5q-37 0 -66 -15t-48.5 -40t-29.5 -58t-10 -68zM302 639q0 18 11 29t28 11q18 0 29 -11t11 -29t-11 -29.5t-29 -11.5q-17 0 -28 11.5t-11 29.5zM114 639q0 18 11 29t28 11q18 0 29 -11
t11 -29t-11 -29.5t-29 -11.5q-17 0 -28 11.5t-11 29.5z" />
    <glyph glyph-name="igrave" unicode="&#xec;" horiz-adv-x="248" 
d="M21 475h35.5t30.5 0.5t30.5 1t34.5 1.5q5 0 5 -4v-443q0 -15 15 -15l57 -2q5 0 5 -8t-5 -8q-25 1 -40 1.5t-25.5 0.5h-18.5h-18h-18.5h-19.5t-26.5 -0.5t-41.5 -1.5q-4 0 -4 8t5 8l58 2q15 0 15 15v413q0 6 -4 10.5t-11 4.5h-59q-5 0 -5 8t5 8zM-9 735h40q7 0 10 -1.5
t7 -8.5l98 -181q0 -4 -3 -6t-6 -2q-4 0 -7 3l-140 168q-7 9 -8.5 12t-1.5 7q0 9 11 9z" />
    <glyph glyph-name="iacute" unicode="&#xed;" horiz-adv-x="248" 
d="M21 475h35.5t30.5 0.5t30.5 1t34.5 1.5q5 0 5 -4v-443q0 -15 15 -15l57 -2q5 0 5 -8t-5 -8q-25 1 -40 1.5t-25.5 0.5h-18.5h-18h-18.5h-19.5t-26.5 -0.5t-41.5 -1.5q-4 0 -4 8t5 8l58 2q15 0 15 15v413q0 6 -4 10.5t-11 4.5h-59q-5 0 -5 8t5 8zM175 725q3 7 6.5 8.5
t9.5 1.5h41q11 0 11 -9q0 -4 -2 -7t-9 -12l-140 -168q-2 -3 -6 -3q-3 0 -6 2t-3 6z" />
    <glyph glyph-name="icircumflex" unicode="&#xee;" horiz-adv-x="248" 
d="M129 713q5 0 6.5 -1.5t5.5 -6.5l117 -160q5 -7 5.5 -8t0.5 -3q0 -4 -5 -4h-7q-4 0 -10 5l-128 119q-6 6 -8 6t-7 -6l-97 -119q-5 -5 -9 -5h-5q-6 0 -6 4q0 2 0.5 3t5.5 6l122 163q6 7 12 7h7zM21 -2q-4 0 -4 8t5 8l58 2q15 0 15 15v413q0 6 -4 10.5t-11 4.5h-59
q-5 0 -5 8t5 8h35.5t30.5 0.5t30.5 1t34.5 1.5q5 0 5 -4v-443q0 -15 15 -15l57 -2q5 0 5 -8t-5 -8q-25 1 -40 1.5t-25.5 0.5h-18.5h-18h-18.5h-19.5t-26.5 -0.5t-41.5 -1.5z" />
    <glyph glyph-name="idieresis" unicode="&#xef;" horiz-adv-x="248" 
d="M16 467q0 8 5 8h35.5t30.5 0.5t30.5 1t34.5 1.5q5 0 5 -4v-443q0 -15 15 -15l57 -2q5 0 5 -8t-5 -8q-25 1 -40 1.5t-25.5 0.5h-18.5h-18h-18.5h-19.5t-26.5 -0.5t-41.5 -1.5q-4 0 -4 8t5 8l58 2q15 0 15 15v413q0 6 -4 10.5t-11 4.5h-59q-5 0 -5 8zM175 639q0 18 11 29
t28 11q18 0 29 -11t11 -29t-11 -29.5t-29 -11.5q-17 0 -28 11.5t-11 29.5zM-13 639q0 18 11 29t28 11q18 0 29 -11t11 -29t-11 -29.5t-29 -11.5q-17 0 -28 11.5t-11 29.5z" />
    <glyph glyph-name="eth" unicode="&#xf0;" horiz-adv-x="504" 
d="M252 485q82 0 130 -56l1 1q-20 51 -48.5 92t-65.5 76l-155 -67l-6 16l147 63q-35 30 -75.5 58t-93.5 45q-3 1 -3 5q0 2 2 6t5 4q117 -48 194 -105l146 63l6 -16l-137 -59q93 -73 134 -161t41 -192q0 -63 -15.5 -113t-44 -85t-70 -53.5t-92.5 -18.5q-49 0 -90 18.5
t-70.5 51.5t-45.5 79.5t-16 102.5q0 55 16 100t45.5 77.5t70.5 50t90 17.5zM254 5q48 0 78 21.5t47 55.5t23 74.5t6 79.5v14q0 60 -10 102t-34 68q-40 48 -111 48q-47 0 -77 -19.5t-47.5 -51t-24.5 -71t-7 -79.5v-13q0 -40 6.5 -80.5t24 -73.5t48 -54t78.5 -21z" />
    <glyph glyph-name="ntilde" unicode="&#xf1;" horiz-adv-x="574" 
d="M21 475h34.5t30.5 0.5t31 1t35 1.5q4 0 4 -4v-53t-1 -70l1 -1q32 77 80.5 107.5t105.5 30.5q70 0 105 -33t35 -105v-319q0 -15 15 -15l58 -2q5 0 5 -8t-5 -8q-23 1 -38 1.5t-26 0.5h-19.5h-18.5h-19h-20.5t-26.5 -0.5t-39 -1.5q-5 0 -5 8t5 8l57 2q15 0 15 18v317
q0 60 -23.5 87.5t-73.5 27.5q-39 0 -70 -18.5t-52 -47t-32.5 -63t-11.5 -65.5v-239q0 -17 15 -17l59 -2q4 0 4 -8t-4 -8q-24 1 -39.5 1.5t-26.5 0.5h-19h-18h-19h-20t-27 -0.5t-41 -1.5q-4 0 -4 8t4 8l59 2q15 0 15 20v408q0 6 -4 10.5t-10 4.5h-60q-4 0 -4 8t4 8zM213 675
q31 0 53.5 -15.5t39.5 -32.5q18 -17 36 -29.5t43 -12.5q29 0 46 22t18 62q1 4 8 4q8 0 8 -4q0 -60 -26 -93.5t-68 -33.5q-31 0 -52.5 15.5t-40.5 32.5q-17 16 -35 29t-43 13q-29 0 -46.5 -22t-18.5 -62q0 -5 -7 -5q-8 0 -8 5q0 60 25.5 93.5t67.5 33.5z" />
    <glyph glyph-name="ograve" unicode="&#xf2;" horiz-adv-x="506" 
d="M30 240q0 57 16 103t45.5 78.5t70.5 50t91 17.5t91 -17.5t70 -50t45.5 -78.5t16.5 -103q0 -58 -16.5 -104.5t-46 -79.5t-70.5 -51t-91 -18q-49 0 -90 18t-70.5 51t-45.5 79.5t-16 104.5zM96 232q0 -46 5 -78t13 -54q17 -46 53.5 -71.5t86.5 -25.5q51 0 86 26.5t52 71.5
q8 23 13 54.5t5 79.5v19q0 40 -6 79t-22.5 70t-47 50t-80.5 19q-49 0 -80 -19.5t-48 -51t-23.5 -70.5t-6.5 -79v-20zM114 726q0 9 11 9h40q7 0 10 -1.5t7 -8.5l98 -181q0 -4 -3 -6t-6 -2q-4 0 -7 3l-140 168q-7 9 -8.5 12t-1.5 7z" />
    <glyph glyph-name="oacute" unicode="&#xf3;" horiz-adv-x="506" 
d="M253 489q50 0 91 -17.5t70 -50t45.5 -78.5t16.5 -103q0 -58 -16.5 -104.5t-46 -79.5t-70.5 -51t-91 -18q-49 0 -90 18t-70.5 51t-45.5 79.5t-16 104.5q0 57 16 103t45.5 78.5t70.5 50t91 17.5zM114 100q18 -46 54 -71.5t86 -25.5q51 0 86 26.5t52 71.5q8 23 13 54.5
t5 79.5v19q0 40 -6 79t-22.5 70t-47 50t-80.5 19q-49 0 -80 -19.5t-48 -51t-23.5 -70.5t-6.5 -79v-20q0 -46 5 -78t13 -54zM309 725q3 7 6.5 8.5t9.5 1.5h41q11 0 11 -9q0 -4 -2 -7t-9 -12l-140 -168q-2 -3 -6 -3q-3 0 -6 2t-3 6z" />
    <glyph glyph-name="ocircumflex" unicode="&#xf4;" horiz-adv-x="506" 
d="M263 713q5 0 6.5 -1.5t5.5 -6.5l117 -160q5 -7 5.5 -8t0.5 -3q0 -4 -5 -4h-7q-4 0 -10 5l-128 119q-6 6 -8 6t-7 -6l-97 -119q-5 -5 -9 -5h-5q-6 0 -6 4q0 2 0.5 3t5.5 6l122 163q6 7 12 7h7zM252 -13q-49 0 -90 18t-70.5 51t-45.5 79.5t-16 104.5q0 57 16 103t45.5 78.5
t70.5 50t91 17.5t91 -17.5t70 -50t45.5 -78.5t16.5 -103q0 -58 -16.5 -104.5t-46 -79.5t-70.5 -51t-91 -18zM254 3q51 0 86 26.5t52 71.5q9 23 13.5 54.5t4.5 79.5v19q0 40 -6 79t-22.5 70t-47 50t-80.5 19q-49 0 -79.5 -19.5t-48 -51t-24 -71t-6.5 -78.5v-20q0 -46 5 -78
t13 -54q17 -46 53.5 -71.5t86.5 -25.5z" />
    <glyph glyph-name="otilde" unicode="&#xf5;" horiz-adv-x="506" 
d="M253 489q50 0 91 -17.5t70 -50t45.5 -78.5t16.5 -103q0 -58 -16.5 -104.5t-46 -79.5t-70.5 -51t-91 -18q-49 0 -90 18t-70.5 51t-45.5 79.5t-16 104.5q0 57 16 103t45.5 78.5t70.5 50t91 17.5zM96 232q0 -46 5 -78t13 -54q17 -46 53.5 -71.5t86.5 -25.5q51 0 86 26.5
t52 71.5q8 23 13 54.5t5 79.5v19q0 40 -6 79t-22.5 70t-47 50t-80.5 19q-49 0 -80 -19.5t-48 -51t-23.5 -70.5t-6.5 -79v-20zM82 549q0 60 25.5 93.5t67.5 33.5q31 0 53.5 -15.5t39.5 -32.5q18 -17 36 -29.5t43 -12.5q29 0 46 22t18 62q1 4 8 4q8 0 8 -4q0 -60 -26 -93.5
t-68 -33.5q-31 0 -52.5 15.5t-40.5 32.5q-17 16 -35 29t-43 13q-29 0 -46.5 -22t-18.5 -62q0 -5 -7 -5q-8 0 -8 5z" />
    <glyph glyph-name="odieresis" unicode="&#xf6;" horiz-adv-x="506" 
d="M30 240q0 57 16 103t45.5 78.5t70.5 50t91 17.5t91 -17.5t70 -50t45.5 -78.5t16.5 -103q0 -58 -16.5 -104.5t-46 -79.5t-70.5 -51t-91 -18q-49 0 -90 18t-70.5 51t-45.5 79.5t-16 104.5zM96 232q0 -46 5 -78t13 -54q17 -46 53.5 -71.5t86.5 -25.5q51 0 86 26.5t52 71.5
q8 23 13 54.5t5 79.5v19q0 40 -6 79t-22.5 70t-47 50t-80.5 19q-49 0 -80 -19.5t-48 -51t-23.5 -70.5t-6.5 -79v-20zM348 679q18 0 29 -11t11 -29t-11 -29.5t-29 -11.5q-17 0 -28 11.5t-11 29.5t11 29t28 11zM121 639q0 18 11 29t28 11q18 0 29 -11t11 -29t-11 -29.5
t-29 -11.5q-17 0 -28 11.5t-11 29.5z" />
    <glyph glyph-name="divide" unicode="&#xf7;" horiz-adv-x="600" 
d="M35 240v21h530v-21h-530zM262 432q0 17 10.5 27.5t27.5 10.5t28 -10.5t11 -27.5t-11 -28.5t-28 -11.5t-27.5 11.5t-10.5 28.5zM300 108q17 0 28 -11t11 -28t-11 -28t-28 -11t-27.5 11t-10.5 28t10.5 28t27.5 11z" />
    <glyph glyph-name="oslash" unicode="&#xf8;" horiz-adv-x="507" 
d="M30 240q0 57 16 103t45.5 78.5t70.5 50t91 17.5q96 0 156 -62l38 44q4 3 5 3.5t3 0.5h14q3 0 3 -2t-1 -3t-7 -8l-43 -49q26 -32 40.5 -75.5t14.5 -97.5q0 -58 -16.5 -104.5t-46 -79.5t-70.5 -51t-91 -18q-94 0 -152 60l-37 -42q-3 -4 -4 -4.5t-3 -0.5h-14q-4 0 -4 2
t1 3.5t7 7.5l42 47q-28 33 -43 78.5t-15 101.5zM114 100l3 -6l267 305q-21 38 -54.5 55.5t-75.5 17.5q-49 0 -80 -19.5t-48 -51t-23.5 -70.5t-6.5 -79v-20q0 -46 3.5 -78.5t14.5 -53.5zM254 3q51 0 86 26.5t52 71.5q8 23 13 54.5t5 79.5v19q0 42 -4.5 72.5t-12.5 53.5v1
l-268 -305q20 -35 53 -54t76 -19z" />
    <glyph glyph-name="ugrave" unicode="&#xf9;" horiz-adv-x="562" 
d="M12 467q0 8 5 8q32 0 62.5 0.5t68.5 2.5q4 0 4 -4v-367q0 -50 23 -74.5t74 -24.5q26 0 51.5 11t47 34t38 58t23.5 84v247q0 17 -16 17h-62q-4 0 -4 8t4 8q35 0 67.5 0.5t68.5 2.5q4 0 4 -4v-441q0 -17 15 -17h57q5 0 5 -7q0 -9 -5 -9h-31.5t-27.5 -0.5t-30.5 -1
t-40.5 -1.5q-4 0 -4 4v61t2 65l-1 1q-27 -76 -75 -108t-107 -32q-137 0 -137 120v336q0 6 -4 10.5t-11 4.5h-59q-5 0 -5 8zM133 726q0 9 11 9h40q7 0 10 -1.5t7 -8.5l98 -181q0 -4 -3 -6t-6 -2q-4 0 -7 3l-140 168q-7 9 -8.5 12t-1.5 7z" />
    <glyph glyph-name="uacute" unicode="&#xfa;" horiz-adv-x="562" 
d="M17 475q32 0 62.5 0.5t68.5 2.5q4 0 4 -4v-367q0 -50 23 -74.5t74 -24.5q26 0 51.5 11t47 34t38 58t23.5 84v247q0 17 -16 17h-62q-4 0 -4 8t4 8q35 0 67.5 0.5t68.5 2.5q4 0 4 -4v-441q0 -17 15 -17h57q5 0 5 -7q0 -9 -5 -9h-31.5t-27.5 -0.5t-30.5 -1t-40.5 -1.5
q-4 0 -4 4v61t2 65l-1 1q-27 -76 -75 -108t-107 -32q-137 0 -137 120v336q0 6 -4 10.5t-11 4.5h-59q-5 0 -5 8t5 8zM328 725q3 7 6.5 8.5t9.5 1.5h41q11 0 11 -9q0 -4 -2 -7t-9 -12l-140 -168q-2 -3 -6 -3q-3 0 -6 2t-3 6z" />
    <glyph glyph-name="ucircumflex" unicode="&#xfb;" horiz-adv-x="562" 
d="M282 713q5 0 6.5 -1.5t5.5 -6.5l117 -160q5 -7 5.5 -8t0.5 -3q0 -4 -5 -4h-7q-4 0 -10 5l-128 119q-6 6 -8 6t-7 -6l-97 -119q-5 -5 -9 -5h-5q-6 0 -6 4q0 2 0.5 3t5.5 6l122 163q6 7 12 7h7zM228 -12q-137 0 -137 120v336q0 6 -4 10.5t-11 4.5h-59q-5 0 -5 8t5 8
q32 0 62.5 0.5t68.5 2.5q4 0 4 -4v-367q0 -50 23 -74.5t74 -24.5q26 0 51.5 11t47 34t38 58t23.5 84v247q0 17 -16 17h-62q-4 0 -4 8t4 8q35 0 67.5 0.5t68.5 2.5q4 0 4 -4v-441q0 -17 15 -17h57q5 0 5 -7q0 -9 -5 -9h-31.5t-27.5 -0.5t-30.5 -1t-40.5 -1.5q-4 0 -4 4v61
t2 65l-1 1q-27 -76 -75 -108t-107 -32z" />
    <glyph glyph-name="udieresis" unicode="&#xfc;" horiz-adv-x="562" 
d="M17 475q32 0 62.5 0.5t68.5 2.5q4 0 4 -4v-367q0 -50 23 -74.5t74 -24.5q26 0 51.5 11t47 34t38 58t23.5 84v247q0 17 -16 17h-62q-4 0 -4 8t4 8q35 0 67.5 0.5t68.5 2.5q4 0 4 -4v-441q0 -17 15 -17h57q5 0 5 -7q0 -9 -5 -9h-31.5t-27.5 -0.5t-30.5 -1t-40.5 -1.5
q-4 0 -4 4v61t2 65l-1 1q-27 -76 -75 -108t-107 -32q-137 0 -137 120v336q0 6 -4 10.5t-11 4.5h-59q-5 0 -5 8t5 8zM328 639q0 18 11 29t28 11q18 0 29 -11t11 -29t-11 -29.5t-29 -11.5q-17 0 -28 11.5t-11 29.5zM140 639q0 18 11 29t28 11q18 0 29 -11t11 -29t-11 -29.5
t-29 -11.5q-17 0 -28 11.5t-11 29.5z" />
    <glyph glyph-name="yacute" unicode="&#xfd;" horiz-adv-x="517" 
d="M6 478q25 -1 40.5 -1.5t26.5 -1t21 -0.5h23h25t23 0.5t27 1t39 1.5q5 0 5 -8q0 -7 -5 -9l-73 -2q-13 0 -13 -9q0 -1 3 -10l147 -370l125 368q2 6 2.5 8.5t0.5 4.5q0 5 -3.5 6.5t-8.5 1.5l-79 2q-4 1 -4 9t4 8q20 -1 33.5 -1.5t24 -1t19.5 -0.5h21q18 0 33 0.5t47 2.5
q5 0 5 -8t-5 -9l-52 -2q-7 0 -11.5 -2t-6.5 -10l-199 -588q-17 -51 -41.5 -74t-66.5 -23q-40 0 -63 18.5t-23 49.5q0 19 9.5 28.5t24.5 9.5q14 0 23 -9.5t10 -32.5q0 -24 9 -34.5t27 -10.5q47 0 75 82l43 126l-188 458q-5 12 -17 12l-57 2q-5 2 -5 9q0 8 5 8zM324 725
q3 7 6.5 8.5t9.5 1.5h41q11 0 11 -9q0 -4 -2 -7t-9 -12l-140 -168q-2 -3 -6 -3q-3 0 -6 2t-3 6z" />
    <glyph glyph-name="thorn" unicode="&#xfe;" horiz-adv-x="549" 
d="M15 709q0 8 5 8h36.5t29.5 0.5t29.5 1t36.5 1.5q4 0 4 -4v-246v-39t-1 -39l1 -1q26 51 68.5 74t93.5 23q48 0 85 -17t63 -48t39.5 -75.5t13.5 -100.5q0 -60 -14.5 -107.5t-41 -81.5t-65 -52t-86.5 -18q-60 0 -99.5 26.5t-56.5 68.5h-2q1 -14 1 -32.5v-47.5v-204
q0 -13 15 -15l61 -2q5 0 5 -8q0 -9 -5 -9q-21 1 -35 1.5t-25 1t-21.5 0.5h-24.5h-23t-20.5 -0.5t-24.5 -1t-37 -1.5q-5 0 -5 9q0 8 5 8l60 2q15 2 15 15v889q0 13 -13 13h-62q-5 0 -5 8zM301 7q76 0 113.5 62t37.5 176v5q0 106 -39.5 162t-109.5 56q-31 0 -58 -12t-47 -32
t-31.5 -45.5t-11.5 -52.5v-174q0 -30 11 -56t30.5 -46t46.5 -31.5t58 -11.5z" />
    <glyph glyph-name="ydieresis" unicode="&#xff;" horiz-adv-x="517" 
d="M1 470q0 8 5 8q25 -1 40.5 -1.5t26.5 -1t21 -0.5h23h25t23 0.5t27 1t39 1.5q5 0 5 -8q0 -7 -5 -9l-73 -2q-13 0 -13 -9q0 -1 3 -10l147 -370l125 368q2 6 2.5 8.5t0.5 4.5q0 5 -3.5 6.5t-8.5 1.5l-79 2q-4 1 -4 9t4 8q20 -1 33.5 -1.5t24 -1t19.5 -0.5h21q18 0 33 0.5
t47 2.5q5 0 5 -8t-5 -9l-52 -2q-7 0 -11.5 -2t-6.5 -10l-199 -588q-17 -51 -41.5 -74t-66.5 -23q-40 0 -63 18.5t-23 49.5q0 19 9.5 28.5t24.5 9.5q14 0 23 -9.5t10 -32.5q0 -24 9 -34.5t27 -10.5q47 0 75 82l43 126l-188 458q-5 12 -17 12l-57 2q-5 2 -5 9zM324 639
q0 18 11 29t28 11q18 0 29 -11t11 -29t-11 -29.5t-29 -11.5q-17 0 -28 11.5t-11 29.5zM136 639q0 18 11 29t28 11q18 0 29 -11t11 -29t-11 -29.5t-29 -11.5q-17 0 -28 11.5t-11 29.5z" />
    <glyph glyph-name="Amacron" unicode="&#x100;" horiz-adv-x="643" 
d="M6 15l74 1q8 0 12 3.5t6 9.5l223 681q2 6 7 6h5q4 0 7 -7l218 -679q2 -8 6 -10t17 -3l55 -2q6 0 6 -8t-6 -8q-25 0 -41 0.5t-27.5 0.5h-20.5h-21h-22h-23.5t-33 -0.5t-52.5 -1.5q-5 0 -5 8t5 8l85 2q13 1 13 10q0 4 -2 9l-63 200q-2 5 -5 5h-235q-3 0 -5 -5l-66 -202
q-2 -6 -2 -8q0 -9 12 -9l81 -2q5 0 5 -8t-5 -8q-27 1 -43.5 1.5t-27.5 0.5h-18.5h-16.5h-14h-17.5t-25.5 -0.5t-39 -0.5q-5 0 -5 8t5 8zM195 256h220q5 0 5 5v2.5t-2 6.5l-111 349l-114 -352q-2 -5 -2 -7q0 -4 4 -4zM196 823q0 5 5 5h256q5 0 5 -5v-25q0 -5 -5 -5h-256
q-5 0 -5 5v25z" />
    <glyph glyph-name="amacron" unicode="&#x101;" horiz-adv-x="499" 
d="M38 129q0 35 9 59.5t26 40t42 24.5t56 14q59 9 96.5 18t66.5 25v55q0 52 -24 80t-83 28q-55 0 -78.5 -21.5t-23.5 -46.5q0 -8 1.5 -12.5t3.5 -8.5t3.5 -8t1.5 -11q0 -14 -9 -22t-23 -8q-33 0 -33 35q0 54 43.5 86.5t121.5 32.5q160 0 160 -140v-275q0 -34 10 -48t30 -14
q15 0 26.5 6t24.5 18q9 -2 9 -13q-17 -17 -36 -24.5t-44 -7.5q-38 0 -58.5 17t-21.5 55v46h-2q-10 -26 -23.5 -48t-33 -37.5t-45.5 -24.5t-61 -9q-63 0 -97.5 34.5t-34.5 104.5zM101 132q0 -33 7 -56t19 -37t28.5 -20t35.5 -6q39 0 66.5 18t44.5 46t25 62.5t8 67.5v82l-2 2
q-26 -13 -57.5 -20t-65.5 -12q-30 -6 -50.5 -14.5t-33.5 -22.5t-19 -36t-6 -54zM103 596q0 5 5 5h256q5 0 5 -5v-25q0 -5 -5 -5h-256q-5 0 -5 5v25z" />
    <glyph glyph-name="Abreve" unicode="&#x102;" horiz-adv-x="643" 
d="M1 7q0 8 5 8l74 1q8 0 12 3.5t6 9.5l223 681q2 6 7 6h5q4 0 7 -7l218 -679q2 -8 6 -10t17 -3l55 -2q6 0 6 -8t-6 -8q-25 0 -41 0.5t-27.5 0.5h-20.5h-21h-22h-23.5t-33 -0.5t-52.5 -1.5q-5 0 -5 8t5 8l85 2q13 1 13 10q0 4 -2 9l-63 200q-2 5 -5 5h-235q-3 0 -5 -5
l-66 -202q-2 -6 -2 -8q0 -9 12 -9l81 -2q5 0 5 -8t-5 -8q-27 1 -43.5 1.5t-27.5 0.5h-18.5h-16.5h-14h-17.5t-25.5 -0.5t-39 -0.5q-5 0 -5 8zM195 256h220q5 0 5 5v2.5t-2 6.5l-111 349l-114 -352q-2 -5 -2 -7q0 -4 4 -4zM191 914q0 4 8 4q6 0 7 -4q13 -51 39 -73.5
t84 -22.5t84 22.5t39 73.5q1 4 7 4q8 0 8 -4q-4 -73 -38 -107.5t-100 -34.5t-100 34.5t-38 107.5z" />
    <glyph glyph-name="abreve" unicode="&#x103;" horiz-adv-x="499" 
d="M38 129q0 35 9 59.5t26 40t42 24.5t56 14q59 9 96.5 18t66.5 25v55q0 52 -24 80t-83 28q-55 0 -78.5 -21.5t-23.5 -46.5q0 -8 1.5 -12.5t3.5 -8.5t3.5 -8t1.5 -11q0 -14 -9 -22t-23 -8q-33 0 -33 35q0 54 43.5 86.5t121.5 32.5q160 0 160 -140v-275q0 -34 10 -48t30 -14
q15 0 26.5 6t24.5 18q9 -2 9 -13q-17 -17 -36 -24.5t-44 -7.5q-38 0 -58.5 17t-21.5 55v46h-2q-10 -26 -23.5 -48t-33 -37.5t-45.5 -24.5t-61 -9q-63 0 -97.5 34.5t-34.5 104.5zM191 13q39 0 66.5 18t44.5 46t25 62.5t8 67.5v82l-2 2q-26 -13 -57.5 -20t-65.5 -12
q-30 -6 -50.5 -14.5t-33.5 -22.5t-19 -36t-6 -54q0 -33 7 -56t19 -37t28.5 -20t35.5 -6zM106 691q6 0 7 -4q13 -51 39 -73.5t84 -22.5t84 22.5t39 73.5q1 4 7 4q8 0 8 -4q-4 -73 -38 -107.5t-100 -34.5t-100 34.5t-38 107.5q0 4 8 4z" />
    <glyph glyph-name="Aogonek" unicode="&#x104;" horiz-adv-x="643" 
d="M6 15l74 1q8 0 12 3.5t6 9.5l223 681q2 6 7 6h5q4 0 7 -7l218 -679q2 -8 6 -10t17 -3l55 -2q6 0 6 -8t-6 -8q-20 0 -34 0.5t-24.5 0.5h-18.5h-16q-67 -26 -100.5 -62t-33.5 -78q0 -32 18 -49.5t49 -17.5q13 0 29 3.5t37 13.5q8 -2 8 -12q-23 -14 -48 -19.5t-48 -5.5
q-45 0 -73 21t-28 61q0 44 36.5 80t121.5 65h-18h-22t-31 -0.5t-45 -1.5q-5 0 -5 8t5 8l85 2q13 1 13 10q0 4 -2 9l-63 200q-2 5 -5 5h-235q-3 0 -5 -5l-66 -202q-2 -6 -2 -8q0 -9 12 -9l81 -2q5 0 5 -8t-5 -8q-27 1 -43.5 1.5t-27.5 0.5h-18.5h-16.5h-14h-17.5t-25.5 -0.5
t-39 -0.5q-5 0 -5 8t5 8zM191 260q0 -4 4 -4h220q5 0 5 5v2.5t-2 6.5l-111 349l-114 -352q-2 -5 -2 -7z" />
    <glyph glyph-name="aogonek" unicode="&#x105;" horiz-adv-x="499" 
d="M38 129q0 35 9 59.5t26 40t42 24.5t56 14q59 9 96.5 18t66.5 25v55q0 52 -24 80t-83 28q-55 0 -78.5 -21.5t-23.5 -46.5q0 -8 1.5 -12.5t3.5 -8.5t3.5 -8t1.5 -11q0 -14 -9 -22t-23 -8q-33 0 -33 35q0 54 43.5 86.5t121.5 32.5q160 0 160 -140v-275q0 -34 10 -48t30 -14
q15 0 26.5 6t24.5 18q9 -2 9 -13q-15 -15 -30 -22h-1q-2 -2 -4.5 -2t-5.5 -2q-60 -30 -91.5 -63t-31.5 -73q0 -32 18 -49.5t49 -17.5q13 0 29 3.5t37 13.5q8 -2 8 -12q-23 -14 -48 -19.5t-48 -5.5q-45 0 -73 21t-28 61t31 74t100 61q-34 2 -52 19.5t-19 52.5v46h-2
q-10 -26 -23.5 -48t-33 -37.5t-45.5 -24.5t-61 -9q-63 0 -97.5 34.5t-34.5 104.5zM101 132q0 -33 7 -56t19 -37t28.5 -20t35.5 -6q39 0 66.5 18t44.5 46t25 62.5t8 67.5v82l-2 2q-26 -13 -57.5 -20t-65.5 -12q-30 -6 -50.5 -14.5t-33.5 -22.5t-19 -36t-6 -54z" />
    <glyph glyph-name="Cacute" unicode="&#x106;" horiz-adv-x="705" 
d="M47 348q0 84 24.5 152.5t69.5 117t108 74.5t141 26q69 0 130.5 -16t107.5 -44q6 -4 6 -10v-161q0 -6 -8 -6t-9 7q-4 48 -11.5 84.5t-24.5 59.5q-28 37 -78.5 53.5t-111.5 16.5q-131 0 -200 -87t-69 -261v-2q0 -179 67.5 -265t200.5 -86q68 0 120 21.5t77 63.5
q8 12 13 30.5t8.5 40.5t6 45t3.5 45q0 6 8 6t8 -5l-1 -182q0 -5 -1 -6.5t-4 -3.5q-52 -38 -112.5 -54.5t-125.5 -16.5q-78 0 -141.5 25.5t-108.5 73t-69 114.5t-24 150zM443 952q3 7 6.5 8.5t9.5 1.5h41q11 0 11 -9q0 -4 -2 -7t-9 -12l-140 -168q-2 -3 -6 -3q-3 0 -6 2t-3 6
z" />
    <glyph glyph-name="cacute" unicode="&#x107;" horiz-adv-x="488" 
d="M30 233q0 57 15.5 103.5t45.5 80.5t72.5 52.5t96.5 18.5q45 0 80 -12t59 -31.5t36.5 -44t12.5 -49.5q0 -21 -10.5 -30t-25.5 -9q-14 0 -23 8t-9 24q0 14 4.5 22t2.5 22q-1 19 -11.5 34.5t-27.5 26t-39.5 16.5t-47.5 6q-86 0 -126.5 -57.5t-40.5 -171.5v-11
q0 -60 12.5 -102.5t35 -70t54 -40t68.5 -12.5q52 0 99 32t74 112q1 3 6 3q9 0 9 -6q-17 -79 -70.5 -119.5t-128.5 -40.5q-51 0 -92 17t-70.5 48.5t-45 77.5t-15.5 103zM303 724q3 7 6.5 8.5t9.5 1.5h41q11 0 11 -9q0 -4 -2 -7t-9 -12l-140 -168q-2 -3 -6 -3q-3 0 -6 2t-3 6z
" />
    <glyph glyph-name="Ccircumflex" unicode="&#x108;" horiz-adv-x="705" 
d="M397 940q5 0 6.5 -1.5t5.5 -6.5l117 -160q5 -7 5.5 -8t0.5 -3q0 -4 -5 -4h-7q-4 0 -10 5l-128 119q-6 6 -8 6t-7 -6l-97 -119q-5 -5 -9 -5h-5q-6 0 -6 4q0 2 0.5 3t5.5 6l122 163q6 7 12 7h7zM390 -15q-78 0 -141.5 25.5t-108.5 73t-69 114.5t-24 150q0 84 24.5 152.5
t69.5 117t108 74.5t141 26q69 0 130 -16.5t108 -43.5q6 -4 6 -10v-161q0 -6 -8 -6t-9 7q-4 48 -11.5 84.5t-24.5 59.5q-28 37 -78.5 53.5t-111.5 16.5q-131 0 -200 -87t-69 -261v-2q0 -179 67.5 -265t200.5 -86q68 0 120 21.5t77 63.5q8 12 13 30.5t8.5 40.5t6 45t3.5 45
q0 6 8 6t8 -5l-1 -182q0 -5 -1 -6.5t-4 -3.5q-52 -38 -112.5 -54.5t-125.5 -16.5z" />
    <glyph glyph-name="ccircumflex" unicode="&#x109;" horiz-adv-x="488" 
d="M257 712q5 0 6.5 -1.5t5.5 -6.5l117 -160q5 -7 5.5 -8t0.5 -3q0 -4 -5 -4h-7q-4 0 -10 5l-128 119q-6 6 -8 6t-7 -6l-97 -119q-5 -5 -9 -5h-5q-6 0 -6 4q0 2 0.5 3t5.5 6l122 163q6 7 12 7h7zM253 -13q-51 0 -92 17t-70.5 48.5t-45 77.5t-15.5 103t15.5 103.5t45.5 80.5
t72.5 52.5t96.5 18.5q45 0 80 -12t59 -31.5t36.5 -44t12.5 -49.5q0 -21 -10.5 -30t-25.5 -9q-14 0 -23 8t-9 24q0 14 4.5 22t2.5 22q-1 19 -11.5 34.5t-27.5 26t-39.5 16.5t-47.5 6q-86 0 -126.5 -57.5t-40.5 -171.5v-11q0 -60 12.5 -102.5t35 -70t54 -40t68.5 -12.5
q26 0 52.5 7t50 24t42 44.5t28.5 68.5q1 3 6 3q9 0 9 -6q-17 -79 -70.5 -119.5t-128.5 -40.5z" />
    <glyph glyph-name="Cdotaccent" unicode="&#x10a;" horiz-adv-x="705" 
d="M47 348q0 84 24.5 152.5t69.5 117t108 74.5t141 26q69 0 130.5 -16t107.5 -44q6 -4 6 -10v-161q0 -6 -8 -6t-9 7q-4 48 -11.5 84.5t-24.5 59.5q-28 37 -78.5 53.5t-111.5 16.5q-131 0 -200 -87t-69 -261v-2q0 -179 67.5 -265t200.5 -86q68 0 120 21.5t77 63.5
q8 12 13 30.5t8.5 40.5t6 45t3.5 45q0 6 8 6t8 -5l-1 -182q0 -5 -1 -6.5t-4 -3.5q-52 -38 -112.5 -54.5t-125.5 -16.5q-78 0 -141.5 25.5t-108.5 73t-69 114.5t-24 150zM349 828q0 18 11 29t28 11q18 0 29 -11t11 -29t-11 -29t-29 -11q-17 0 -28 11t-11 29z" />
    <glyph glyph-name="cdotaccent" unicode="&#x10b;" horiz-adv-x="488" 
d="M30 233q0 57 15.5 103.5t45.5 80.5t72.5 52.5t96.5 18.5q45 0 80 -12t59 -31.5t36.5 -44t12.5 -49.5q0 -21 -10.5 -30t-25.5 -9q-14 0 -23 8t-9 24q0 14 4.5 22t2.5 22q-1 19 -11.5 34.5t-27.5 26t-39.5 16.5t-47.5 6q-86 0 -126.5 -57.5t-40.5 -171.5v-11
q0 -60 12.5 -102.5t35 -70t54 -40t68.5 -12.5q52 0 99 32t74 112q1 3 6 3q9 0 9 -6q-17 -79 -70.5 -119.5t-128.5 -40.5q-51 0 -92 17t-70.5 48.5t-45 77.5t-15.5 103zM209 638q0 18 11 29t28 11q18 0 29 -11t11 -29t-11 -29.5t-29 -11.5q-17 0 -28 11.5t-11 29.5z" />
    <glyph glyph-name="Ccaron" unicode="&#x10c;" horiz-adv-x="705" 
d="M382 755q-5 0 -6.5 1t-5.5 6l-117 161q-5 6 -5.5 7.5t-0.5 3.5q0 3 5 3h7q3 0 4.5 -0.5t5.5 -4.5l128 -119q4 -4 5 -4.5t3 -0.5q1 0 2 0.5t5 5.5l97 118q2 4 4 4.5t4 0.5h6q5 0 5 -3q0 -2 -0.5 -3t-4.5 -7l-122 -162q-4 -5 -6 -6t-6 -1h-7zM390 -15q-78 0 -141.5 25.5
t-108.5 73t-69 114.5t-24 150q0 84 24.5 152.5t69.5 117t108 74.5t141 26q69 0 130 -16.5t108 -43.5q6 -4 6 -10v-161q0 -6 -8 -6t-9 7q-4 48 -11.5 84.5t-24.5 59.5q-28 37 -78.5 53.5t-111.5 16.5q-131 0 -200 -87t-69 -261v-2q0 -179 67.5 -265t200.5 -86q68 0 120 21.5
t77 63.5q8 12 13 30.5t8.5 40.5t6 45t3.5 45q0 6 8 6t8 -5l-1 -182q0 -5 -1 -6.5t-4 -3.5q-52 -38 -112.5 -54.5t-125.5 -16.5z" />
    <glyph glyph-name="ccaron" unicode="&#x10d;" horiz-adv-x="488" 
d="M242 527q-5 0 -6.5 1t-5.5 6l-117 161q-5 6 -5.5 7.5t-0.5 3.5q0 3 5 3h7q3 0 4.5 -0.5t5.5 -4.5l128 -119q4 -4 5 -4.5t3 -0.5q1 0 2 0.5t5 5.5l97 118q2 4 4 4.5t4 0.5h6q5 0 5 -3q0 -2 -0.5 -3t-4.5 -7l-122 -162q-4 -5 -6 -6t-6 -1h-7zM253 -13q-51 0 -92 17
t-70.5 48.5t-45 77.5t-15.5 103t15.5 103.5t45.5 80.5t72.5 52.5t96.5 18.5q45 0 80 -12t59 -31.5t36.5 -44t12.5 -49.5q0 -21 -10.5 -30t-25.5 -9q-14 0 -23 8t-9 24q0 14 4.5 22t2.5 22q-1 19 -11.5 34.5t-27.5 26t-39.5 16.5t-47.5 6q-86 0 -126.5 -57.5t-40.5 -171.5
v-11q0 -60 12.5 -102.5t35 -70t54 -40t68.5 -12.5q26 0 52.5 7t50 24t42 44.5t28.5 68.5q1 3 6 3q9 0 9 -6q-17 -79 -70.5 -119.5t-128.5 -40.5z" />
    <glyph glyph-name="Dcaron" unicode="&#x10e;" horiz-adv-x="781" 
d="M368 755q-5 0 -6.5 1t-5.5 6l-117 161q-5 6 -5.5 7.5t-0.5 3.5q0 3 5 3h7q3 0 4.5 -0.5t5.5 -4.5l128 -119q4 -4 5 -4.5t3 -0.5q1 0 2 0.5t5 5.5l97 118q2 4 4 4.5t4 0.5h6q5 0 5 -3q0 -2 -0.5 -3t-4.5 -7l-122 -162q-4 -5 -6 -6t-6 -1h-7zM39 -2q-5 0 -5 9q0 8 5 8l81 2
q6 0 10.5 3.5t4.5 10.5v640q0 14 -15 14l-81 2q-5 0 -5 8q0 9 5 9q28 -1 45 -1.5t30 -0.5h25h28h31.5h30t33 0.5t41.5 0.5q26 0 45.5 0.5t36 0.5h31.5h30q140 0 213.5 -87t73.5 -254q0 -181 -84 -273t-239 -92h-56t-68 1q-39 1 -64 1h-55h-29t-27 -0.5t-31 -1t-41 -0.5z
M397 14q135 0 200.5 81.5t65.5 256.5v8q0 328 -236 328l-114 -1q-27 0 -42.5 -0.5t-25 -0.5t-17 -0.5t-18.5 -0.5t-11 -10v-647q0 -11 11 -11q93 -3 187 -3z" />
    <glyph glyph-name="dcaron" unicode="&#x10f;" horiz-adv-x="675" 
d="M30 243q0 114 52.5 179t146.5 65q53 0 95.5 -23t68.5 -75h1q-2 23 -2 43.5v40.5v213q0 15 -14 15h-82q-5 0 -5 8t5 8q44 0 78.5 0.5t74.5 2.5q4 0 4 -4v-685q0 -14 15 -14l58 -3q5 0 5 -8t-5 -8q-21 1 -34 1.5t-22 0.5h-15h-12h-21t-26 -1q-3 0 -3 3v39t1 44h-1
q-19 -45 -58.5 -71t-99.5 -26q-97 0 -151 68t-54 187zM247 6q32 0 58.5 11.5t46 31.5t30.5 46.5t11 56.5v170q0 28 -11.5 54.5t-31.5 46.5t-47 32.5t-59 12.5q-72 0 -110 -55t-38 -163v-5q0 -116 38 -177.5t113 -61.5zM522 496q0 1 0.5 3t2.5 11l37 194q3 13 13 13h39
q11 0 11 -8q0 -2 -1 -5t-6 -14l-78 -189q-3 -8 -4.5 -9.5t-3.5 -1.5t-6 1.5t-4 4.5z" />
    <glyph glyph-name="Dcroat" unicode="&#x110;" horiz-adv-x="781" 
d="M39 -3q-5 0 -5 9q0 8 5 8l81 3q6 0 10.5 3.5t4.5 10.5v309q0 14 -15 14h-81q-5 0 -5 9q0 8 5 8h81q15 0 15 15v285q0 14 -15 14l-81 3q-5 0 -5 8q0 9 5 9q28 -1 45 -1.5t30 -1t25 -0.5h28h31.5h30t33 0.5t41.5 0.5q26 0 45.5 0.5t36 0.5h31.5h30q140 0 213.5 -87
t73.5 -254q0 -181 -84 -273t-239 -92h-56t-68 1q-39 1 -64 1h-55h-29t-27 -0.5t-31 -1t-41 -1.5zM397 14q135 0 200.5 81.5t65.5 256.5v8q0 328 -236 328l-114 -1q-27 0 -42.5 -0.5t-25 -0.5t-17 -0.5t-18.5 -0.5t-11 -10v-289q0 -15 15 -15h125q5 0 5 -8q0 -9 -5 -9h-125
q-15 0 -15 -14v-312q0 -11 11 -11q93 -3 187 -3z" />
    <glyph glyph-name="dcroat" unicode="&#x111;" horiz-adv-x="546" 
d="M30 243q0 114 52.5 179t146.5 65q53 0 95.5 -23t68.5 -75h1q-2 23 -2 43.5v40.5v95q0 15 -15 15h-113q-5 0 -5 8t5 8h113q15 0 15 14v73q0 15 -14 15h-82q-5 0 -5 8t5 8q44 0 78.5 0.5t74.5 2.5q4 0 4 -4v-103q0 -14 15 -14h58q5 0 5 -8t-5 -8h-58q-15 0 -15 -15v-537
q0 -14 15 -14l58 -3q5 0 5 -8t-5 -8q-21 1 -34 1.5t-22 0.5h-15h-12h-21t-26 -1q-3 0 -3 3v39t1 44h-1q-19 -45 -58.5 -71t-99.5 -26q-97 0 -151 68t-54 187zM247 6q32 0 58.5 11.5t46 31.5t30.5 46.5t11 56.5v170q0 28 -11.5 54.5t-31.5 46.5t-47 32.5t-59 12.5
q-72 0 -110 -55t-38 -163v-5q0 -116 38 -177.5t113 -61.5z" />
    <glyph glyph-name="Emacron" unicode="&#x112;" horiz-adv-x="688" 
d="M38 14l86 2q6 0 10.5 4t4.5 10v641q0 14 -15 14l-82 2q-4 0 -4 8t4 8q30 0 49 -0.5t32.5 -0.5h24h23.5h60h50.5t51.5 0.5t62.5 0.5t83 0.5t113.5 1.5q6 0 6 -6v-188q0 -4 -8 -4t-8 4q-1 59 -6.5 94t-23.5 53t-53 23t-95 5h-187q-5 0 -9.5 -3.5t-4.5 -11.5v-295q0 -6 6 -6
h72q48 0 77.5 2.5t45 14.5t20.5 38t5 74q0 5 8 5t8 -5q-1 -40 -1 -72.5v-64.5v-66.5t1 -72.5q0 -5 -8 -5t-8 5q0 48 -5.5 74.5t-21 39t-44.5 15t-77 2.5h-72q-6 0 -6 -6v-317q0 -8 4.5 -11.5t9.5 -3.5h198q67 0 107 5.5t61 25.5t27.5 59t7.5 106q0 5 8 5t8 -5l-1 -209
q0 -6 -5 -6q-66 1 -114 1.5t-84.5 0.5t-64 0.5t-53.5 0.5h-54h-64h-38h-32.5t-36.5 -0.5t-49 -1.5q-4 0 -4 8t4 8zM223 798v25q0 5 5 5h256q5 0 5 -5v-25q0 -5 -5 -5h-256q-5 0 -5 5z" />
    <glyph glyph-name="emacron" unicode="&#x113;" 
d="M256 490q48 0 87 -16t67 -44.5t43.5 -68t15.5 -87.5q0 -6 -6 -6h-360q-6 0 -6 -7v-36q0 -108 47.5 -163t126.5 -55q62 0 105.5 35t63.5 92q3 3 6 3q10 0 10 -7q-22 -66 -74 -104t-127 -38q-50 0 -91.5 17t-71 49t-46 78.5t-16.5 105.5q0 57 16 103.5t45.5 79.5t71.5 51
t93 18zM99 289q0 -5 6 -5h292q5 0 5 6v3q0 39 -10 72t-28.5 57t-46.5 37.5t-64 13.5q-37 0 -66 -15t-48.5 -40t-29.5 -58t-10 -68v-3zM114 596q0 5 5 5h256q5 0 5 -5v-25q0 -5 -5 -5h-256q-5 0 -5 5v25z" />
    <glyph glyph-name="Ebreve" unicode="&#x114;" horiz-adv-x="688" 
d="M34 6q0 8 4 8l86 2q6 0 10.5 4t4.5 10v641q0 14 -15 14l-82 2q-4 0 -4 8t4 8q30 0 49 -0.5t32.5 -0.5h24h23.5h60h50.5t51.5 0.5t62.5 0.5t83 0.5t113.5 1.5q6 0 6 -6v-188q0 -4 -8 -4t-8 4q-1 59 -6.5 94t-23.5 53t-53 23t-95 5h-187q-5 0 -9.5 -3.5t-4.5 -11.5v-295
q0 -6 6 -6h72q48 0 77.5 2.5t45 14.5t20.5 38t5 74q0 5 8 5t8 -5q-1 -40 -1 -72.5v-64.5v-66.5t1 -72.5q0 -5 -8 -5t-8 5q0 48 -5.5 74.5t-21 39t-44.5 15t-77 2.5h-72q-6 0 -6 -6v-317q0 -8 4.5 -11.5t9.5 -3.5h198q67 0 107 5.5t61 25.5t27.5 59t7.5 106q0 5 8 5t8 -5
l-1 -209q0 -6 -5 -6q-66 1 -114 1.5t-84.5 0.5t-64 0.5t-53.5 0.5h-54h-64h-38h-32.5t-36.5 -0.5t-49 -1.5q-4 0 -4 8zM226 918q6 0 7 -4q13 -51 39 -73.5t84 -22.5t84 22.5t39 73.5q1 4 7 4q8 0 8 -4q-4 -73 -38 -107.5t-100 -34.5t-100 34.5t-38 107.5q0 4 8 4z" />
    <glyph glyph-name="ebreve" unicode="&#x115;" 
d="M256 490q48 0 87 -16t67 -44.5t43.5 -68t15.5 -87.5q0 -6 -6 -6h-360q-6 0 -6 -7v-36q0 -108 47.5 -163t126.5 -55q62 0 105.5 35t63.5 92q3 3 6 3q10 0 10 -7q-22 -66 -74 -104t-127 -38q-50 0 -91.5 17t-71 49t-46 78.5t-16.5 105.5q0 57 16 103.5t45.5 79.5t71.5 51
t93 18zM99 292v-3q0 -5 6 -5h292q5 0 5 6v3q0 39 -10 72t-28.5 57t-46.5 37.5t-64 13.5q-37 0 -66 -15t-48.5 -40t-29.5 -58t-10 -68zM108 687q0 4 8 4q6 0 7 -4q13 -51 39 -73.5t84 -22.5t84 22.5t39 73.5q1 4 7 4q8 0 8 -4q-4 -73 -38 -107.5t-100 -34.5t-100 34.5
t-38 107.5z" />
    <glyph glyph-name="Edotaccent" unicode="&#x116;" horiz-adv-x="688" 
d="M34 6q0 8 4 8l86 2q6 0 10.5 4t4.5 10v641q0 14 -15 14l-82 2q-4 0 -4 8t4 8q30 0 49 -0.5t32.5 -0.5h24h23.5h60h50.5t51.5 0.5t62.5 0.5t83 0.5t113.5 1.5q6 0 6 -6v-188q0 -4 -8 -4t-8 4q-1 59 -6.5 94t-23.5 53t-53 23t-95 5h-187q-5 0 -9.5 -3.5t-4.5 -11.5v-295
q0 -6 6 -6h72q48 0 77.5 2.5t45 14.5t20.5 38t5 74q0 5 8 5t8 -5q-1 -40 -1 -72.5v-64.5v-66.5t1 -72.5q0 -5 -8 -5t-8 5q0 48 -5.5 74.5t-21 39t-44.5 15t-77 2.5h-72q-6 0 -6 -6v-317q0 -8 4.5 -11.5t9.5 -3.5h198q67 0 107 5.5t61 25.5t27.5 59t7.5 106q0 5 8 5t8 -5
l-1 -209q0 -6 -5 -6q-66 1 -114 1.5t-84.5 0.5t-64 0.5t-53.5 0.5h-54h-64h-38h-32.5t-36.5 -0.5t-49 -1.5q-4 0 -4 8zM356 868q18 0 29 -11t11 -29t-11 -29t-29 -11q-17 0 -28 11t-11 29t11 29t28 11z" />
    <glyph glyph-name="edotaccent" unicode="&#x117;" 
d="M256 490q48 0 87 -16t67 -44.5t43.5 -68t15.5 -87.5q0 -6 -6 -6h-360q-6 0 -6 -7v-36q0 -108 47.5 -163t126.5 -55q62 0 105.5 35t63.5 92q3 3 6 3q10 0 10 -7q-22 -66 -74 -104t-127 -38q-50 0 -91.5 17t-71 49t-46 78.5t-16.5 105.5q0 57 16 103.5t45.5 79.5t71.5 51
t93 18zM99 289q0 -5 6 -5h292q5 0 5 6v3q0 39 -10 72t-28.5 57t-46.5 37.5t-64 13.5q-37 0 -66 -15t-48.5 -40t-29.5 -58t-10 -68v-3zM208 639q0 18 11 29t28 11q18 0 29 -11t11 -29t-11 -29.5t-29 -11.5q-17 0 -28 11.5t-11 29.5z" />
    <glyph glyph-name="Eogonek" unicode="&#x118;" horiz-adv-x="688" 
d="M38 14l86 2q6 0 10.5 4t4.5 10v641q0 14 -15 14l-82 2q-4 0 -4 8t4 8q30 0 49 -0.5t32.5 -0.5h24h23.5h60h50.5t51.5 0.5t62.5 0.5t83 0.5t113.5 1.5q6 0 6 -6v-188q0 -4 -8 -4t-8 4q-1 59 -6.5 94t-23.5 53t-53 23t-95 5h-187q-5 0 -9.5 -3.5t-4.5 -11.5v-295q0 -6 6 -6
h72q48 0 77.5 2.5t45 14.5t20.5 38t5 74q0 5 8 5t8 -5q-1 -40 -1 -72.5v-64.5v-66.5t1 -72.5q0 -5 -8 -5t-8 5q0 48 -5.5 74.5t-21 39t-44.5 15t-77 2.5h-72q-6 0 -6 -6v-317q0 -8 4.5 -11.5t9.5 -3.5h198q67 0 107 5.5t61 25.5t27.5 59t7.5 106q0 5 8 5t8 -5l-1 -209
q0 -6 -5 -6q-26 0 -49.5 0.5t-44.5 0.5q-65 -26 -97 -61.5t-32 -76.5q0 -32 18 -49.5t49 -17.5q13 0 29 3.5t37 13.5q8 -2 8 -12q-23 -14 -48 -19.5t-48 -5.5q-45 0 -73 21t-28 61q0 43 36 79t117 64q-57 1 -96 1.5t-71 0.5h-64.5h-76.5h-38h-32.5t-36.5 -0.5t-49 -1.5
q-4 0 -4 8t4 8z" />
    <glyph glyph-name="eogonek" unicode="&#x119;" 
d="M30 238q0 57 16 103.5t45.5 79.5t71.5 51t93 18q48 0 87 -16t67 -44.5t43.5 -68t15.5 -87.5q0 -6 -6 -6h-360q-6 0 -6 -7v-36q0 -108 47.5 -163t126.5 -55q62 0 105.5 35t63.5 92q3 3 6 3q10 0 10 -7q-16 -48 -48.5 -82t-78.5 -49q-66 -26 -99 -61.5t-33 -77.5
q0 -32 18 -49.5t49 -17.5q13 0 29 3.5t37 13.5q8 -2 8 -12q-23 -14 -48 -19.5t-48 -5.5q-45 0 -73 21t-28 61q0 39 29.5 72.5t96.5 60.5h-12q-50 0 -91.5 17t-71 49t-46 78.5t-16.5 105.5zM99 289q0 -5 6 -5h292q5 0 5 6v3q0 39 -10 72t-28.5 57t-46.5 37.5t-64 13.5
q-37 0 -66 -15t-48.5 -40t-29.5 -58t-10 -68v-3z" />
    <glyph glyph-name="Ecaron" unicode="&#x11a;" horiz-adv-x="688" 
d="M350 755q-5 0 -6.5 1t-5.5 6l-117 161q-5 6 -5.5 7.5t-0.5 3.5q0 3 5 3h7q3 0 4.5 -0.5t5.5 -4.5l128 -119q4 -4 5 -4.5t3 -0.5q1 0 2 0.5t5 5.5l97 118q2 4 4 4.5t4 0.5h6q5 0 5 -3q0 -2 -0.5 -3t-4.5 -7l-122 -162q-4 -5 -6 -6t-6 -1h-7zM38 -2q-4 0 -4 8t4 8l86 2
q6 0 10.5 4t4.5 10v641q0 14 -15 14l-82 2q-4 0 -4 8t4 8q30 0 49 -0.5t32.5 -0.5h24h23.5h60h50.5t51.5 0.5t62.5 0.5t83 0.5t113.5 1.5q6 0 6 -6v-188q0 -4 -8 -4t-8 4q-1 59 -6.5 94t-23.5 53t-53 23t-95 5h-187q-5 0 -9.5 -3.5t-4.5 -11.5v-295q0 -6 6 -6h72
q48 0 77.5 2.5t45 14.5t20.5 38t5 74q0 5 8 5t8 -5q-1 -40 -1 -72.5v-64.5v-66.5t1 -72.5q0 -5 -8 -5t-8 5q0 48 -5.5 74.5t-21 39t-44.5 15t-77 2.5h-72q-6 0 -6 -6v-317q0 -8 4.5 -11.5t9.5 -3.5h198q67 0 107 5.5t61 25.5t27.5 59t7.5 106q0 5 8 5t8 -5l-1 -209
q0 -6 -5 -6q-66 1 -114 1.5t-84.5 0.5t-64 0.5t-53.5 0.5h-54h-64h-38h-32.5t-36.5 -0.5t-49 -1.5z" />
    <glyph glyph-name="ecaron" unicode="&#x11b;" 
d="M241 528q-5 0 -6.5 1t-5.5 6l-117 161q-5 6 -5.5 7.5t-0.5 3.5q0 3 5 3h7q3 0 4.5 -0.5t5.5 -4.5l128 -119q4 -4 5 -4.5t3 -0.5q1 0 2 0.5t5 5.5l97 118q2 4 4 4.5t4 0.5h6q5 0 5 -3q0 -2 -0.5 -3t-4.5 -7l-122 -162q-4 -5 -6 -6t-6 -1h-7zM255 -12q-50 0 -91.5 17
t-71 49t-46 78.5t-16.5 105.5q0 57 16 103.5t45.5 79.5t71.5 51t93 18q48 0 87 -16t67 -44.5t43.5 -68t15.5 -87.5q0 -6 -6 -6h-360q-6 0 -6 -7v-36q0 -108 47.5 -163t126.5 -55q62 0 105.5 35t63.5 92q3 3 6 3q10 0 10 -7q-22 -66 -74 -104t-127 -38zM397 284q5 0 5 6v3
q0 39 -10 72t-28.5 57t-46.5 37.5t-64 13.5q-37 0 -66 -15t-48.5 -40t-29.5 -58t-10 -68v-3q0 -5 6 -5h292z" />
    <glyph glyph-name="Gcircumflex" unicode="&#x11c;" horiz-adv-x="760" 
d="M395 940q5 0 6.5 -1.5t5.5 -6.5l117 -160q5 -7 5.5 -8t0.5 -3q0 -4 -5 -4h-7q-4 0 -10 5l-128 119q-6 6 -8 6t-7 -6l-97 -119q-5 -5 -9 -5h-5q-6 0 -6 4q0 2 0.5 3t5.5 6l122 163q6 7 12 7h7zM388 -14q-81 0 -144.5 25t-107 71.5t-66.5 113.5t-23 151q0 86 24 154.5
t69 116.5t109 74t144 26q71 0 126 -14.5t102 -35.5q5 -2 5.5 -4.5t0.5 -6.5v-172q0 -5 -8 -5q-9 0 -9 6q-1 49 -8.5 89t-30.5 66q-26 31 -73.5 45.5t-105.5 14.5q-134 0 -201.5 -86.5t-67.5 -266.5v-1q0 -169 66.5 -256.5t200.5 -87.5q39 0 74 8t60.5 22.5t40.5 35.5t15 47
v191q0 9 -4.5 12t-10.5 3l-86 2q-5 1 -5 9t5 8q29 -1 47 -1.5t31.5 -1t25.5 -0.5h28h28.5t24.5 0.5t29.5 1t43.5 1.5q5 0 5 -9q0 -7 -5 -8l-79 -2q-5 0 -9.5 -3t-4.5 -12v-228q0 -6 -5 -10q-63 -48 -124 -65.5t-127 -17.5z" />
    <glyph glyph-name="gcircumflex" unicode="&#x11d;" horiz-adv-x="528" 
d="M124 529q-6 0 -6 4q0 2 0.5 3t5.5 6l122 163q6 7 12 7h7q5 0 6.5 -1.5t5.5 -6.5l117 -160q5 -7 5.5 -8t0.5 -3q0 -4 -5 -4h-7q-4 0 -10 5l-128 119q-6 6 -8 6t-7 -6l-97 -119q-5 -5 -9 -5h-5zM435 464q-11 0 -21.5 -8.5t-24.5 -28.5q30 -41 30 -97q0 -36 -12 -65.5
t-34 -51t-53 -33t-69 -11.5q-77 0 -122 47q-38 -6 -59.5 -25t-21.5 -51q0 -37 28 -55t78 -18h17.5t16 0.5t19 1t25.5 1.5q20 2 34 2.5t24.5 1t18.5 0.5h16q80 0 120.5 -37.5t40.5 -105.5q0 -83 -63 -132t-175 -49q-51 0 -93 9.5t-72.5 28t-47.5 45.5t-17 61q0 19 6 37
t20 33.5t37 27t58 18.5v2q-64 9 -91 40.5t-27 71.5q0 41 24 68.5t72 37.5q-30 39 -30 95q0 36 12 66t34.5 51.5t53.5 33t69 11.5q79 0 122 -48q21 29 37 38t33 9q25 0 41 -15t16 -48q0 -29 -22 -29t-22 31q0 21 -6.5 30t-19.5 9zM364 328q0 76 -30.5 109.5t-79.5 33.5
q-50 0 -80.5 -33.5t-30.5 -109.5v-5q0 -73 30.5 -105t79.5 -32q50 0 80.5 32t30.5 105v5zM181 6q-114 -14 -114 -108q0 -63 49.5 -97.5t135.5 -34.5q47 0 84.5 10.5t64.5 29t41.5 45.5t14.5 60q0 48 -32 75t-100 27h-40.5t-33.5 -1t-32.5 -2.5t-37.5 -3.5z" />
    <glyph glyph-name="Gbreve" unicode="&#x11e;" horiz-adv-x="760" 
d="M47 347q0 86 24 154.5t69 116.5t109 74t144 26q71 0 126.5 -13.5t101.5 -36.5q5 -2 5.5 -4.5t0.5 -6.5v-172q0 -5 -8 -5q-9 0 -9 6q-1 49 -8.5 89t-30.5 66q-26 31 -73.5 45.5t-105.5 14.5q-134 0 -201.5 -86.5t-67.5 -266.5v-1q0 -169 66.5 -256.5t200.5 -87.5
q39 0 74 8t60.5 22.5t40.5 35.5t15 47v191q0 9 -4.5 12t-10.5 3l-86 2q-5 1 -5 9t5 8q29 -1 47 -1.5t31.5 -1t25.5 -0.5h28h28.5t24.5 0.5t29.5 1t43.5 1.5q5 0 5 -9q0 -7 -5 -8l-79 -2q-5 0 -9.5 -3t-4.5 -12v-228q0 -6 -5 -10q-63 -48 -124 -65.5t-127 -17.5
q-81 0 -144.5 25t-107 71.5t-66.5 113.5t-23 151zM248 914q0 4 8 4q6 0 7 -4q13 -51 39 -73.5t84 -22.5t84 22.5t39 73.5q1 4 7 4q8 0 8 -4q-4 -73 -38 -107.5t-100 -34.5t-100 34.5t-38 107.5z" />
    <glyph glyph-name="gbreve" unicode="&#x11f;" horiz-adv-x="528" 
d="M18 -106q0 19 6 37t20 33.5t37 27t58 18.5v2q-64 9 -91 40.5t-27 71.5q0 41 24 68.5t72 37.5q-30 39 -30 95q0 36 12 66t34.5 51.5t53.5 33t69 11.5q79 0 122 -48q21 29 37 38t33 9q25 0 41 -15t16 -48q0 -29 -22 -29t-22 31q0 21 -6.5 30t-19.5 9q-11 0 -21.5 -8.5
t-24.5 -28.5q30 -41 30 -97q0 -36 -12 -65.5t-34 -51t-53 -33t-69 -11.5q-77 0 -122 47q-38 -6 -59.5 -25t-21.5 -51q0 -37 28 -55t78 -18h17.5t16 0.5t19 1t25.5 1.5q20 1 34 2t24.5 1.5t18.5 0.5h16q80 0 120.5 -37.5t40.5 -105.5q0 -83 -63 -132t-175 -49q-51 0 -93 9.5
t-72.5 28t-47.5 45.5t-17 61zM252 -234q47 0 84.5 10.5t64.5 29t41.5 45.5t14.5 60q0 48 -32 75t-100 27h-40.5t-33.5 -1t-32.5 -2t-37.5 -4q-114 -15 -114 -108q0 -63 49.5 -97.5t135.5 -34.5zM143 323q0 -73 30.5 -105t79.5 -32q50 0 80.5 32t30.5 105v5q0 76 -30.5 109.5
t-79.5 33.5q-50 0 -80.5 -33.5t-30.5 -109.5v-5zM117 686q0 4 8 4q6 0 7 -4q13 -51 39 -73.5t84 -22.5t84 22.5t39 73.5q1 4 7 4q8 0 8 -4q-4 -73 -38 -107.5t-100 -34.5t-100 34.5t-38 107.5z" />
    <glyph glyph-name="Gdotaccent" unicode="&#x120;" horiz-adv-x="760" 
d="M47 347q0 86 24 154.5t69 116.5t109 74t144 26q71 0 126.5 -13.5t101.5 -36.5q5 -2 5.5 -4.5t0.5 -6.5v-172q0 -5 -8 -5q-9 0 -9 6q-1 49 -8.5 89t-30.5 66q-26 31 -73.5 45.5t-105.5 14.5q-134 0 -201.5 -86.5t-67.5 -266.5v-1q0 -169 66.5 -256.5t200.5 -87.5
q39 0 74 8t60.5 22.5t40.5 35.5t15 47v191q0 9 -4.5 12t-10.5 3l-86 2q-5 1 -5 9t5 8q29 -1 47 -1.5t31.5 -1t25.5 -0.5h28h28.5t24.5 0.5t29.5 1t43.5 1.5q5 0 5 -9q0 -7 -5 -8l-79 -2q-5 0 -9.5 -3t-4.5 -12v-228q0 -6 -5 -10q-63 -48 -124 -65.5t-127 -17.5
q-81 0 -144.5 25t-107 71.5t-66.5 113.5t-23 151zM347 828q0 18 11 29t28 11q18 0 29 -11t11 -29t-11 -29t-29 -11q-17 0 -28 11t-11 29z" />
    <glyph glyph-name="gdotaccent" unicode="&#x121;" horiz-adv-x="528" 
d="M18 -106q0 19 6 37t20 33.5t37 27t58 18.5v2q-64 9 -91 40.5t-27 71.5q0 41 24 68.5t72 37.5q-30 39 -30 95q0 36 12 66t34.5 51.5t53.5 33t69 11.5q79 0 122 -48q21 29 37 38t33 9q25 0 41 -15t16 -48q0 -29 -22 -29t-22 31q0 21 -6.5 30t-19.5 9q-11 0 -21.5 -8.5
t-24.5 -28.5q30 -41 30 -97q0 -36 -12 -65.5t-34 -51t-53 -33t-69 -11.5q-77 0 -122 47q-38 -6 -59.5 -25t-21.5 -51q0 -37 28 -55t78 -18h17.5t16 0.5t19 1t25.5 1.5q20 1 34 2t24.5 1.5t18.5 0.5h16q80 0 120.5 -37.5t40.5 -105.5q0 -83 -63 -132t-175 -49q-51 0 -93 9.5
t-72.5 28t-47.5 45.5t-17 61zM252 -234q47 0 84.5 10.5t64.5 29t41.5 45.5t14.5 60q0 48 -32 75t-100 27h-40.5t-33.5 -1t-32.5 -2t-37.5 -4q-114 -15 -114 -108q0 -63 49.5 -97.5t135.5 -34.5zM143 323q0 -73 30.5 -105t79.5 -32q50 0 80.5 32t30.5 105v5q0 76 -30.5 109.5
t-79.5 33.5q-50 0 -80.5 -33.5t-30.5 -109.5v-5zM217 638q0 18 11 29t28 11q18 0 29 -11t11 -29t-11 -29.5t-29 -11.5q-17 0 -28 11.5t-11 29.5z" />
    <glyph glyph-name="uni0122" unicode="&#x122;" horiz-adv-x="760" 
d="M47 347q0 86 24 154.5t69 116.5t109 74t144 26q71 0 126.5 -13.5t101.5 -36.5q5 -2 5.5 -4.5t0.5 -6.5v-172q0 -5 -8 -5q-9 0 -9 6q-1 49 -8.5 89t-30.5 66q-26 31 -73.5 45.5t-105.5 14.5q-134 0 -201.5 -86.5t-67.5 -266.5v-1q0 -169 66.5 -256.5t200.5 -87.5
q39 0 74 8t60.5 22.5t40.5 35.5t15 47v191q0 9 -4.5 12t-10.5 3l-86 2q-5 1 -5 9t5 8q29 -1 47 -1.5t31.5 -1t25.5 -0.5h28h28.5t24.5 0.5t29.5 1t43.5 1.5q5 0 5 -9q0 -7 -5 -8l-79 -2q-5 0 -9.5 -3t-4.5 -12v-228q0 -6 -5 -10q-63 -48 -124 -65.5t-127 -17.5
q-81 0 -144.5 25t-107 71.5t-66.5 113.5t-23 151zM317 -96q0 20 14 31.5t34 11.5q31 0 49.5 -24t18.5 -64q0 -29 -10 -52.5t-26 -40.5t-35.5 -26.5t-38.5 -9.5q-5 0 -5 8q0 4 1 5t8 3q39 9 60 38t21 59q0 16 -4.5 28.5t-10.5 19.5h-2q-2 -11 -11 -19t-24 -8
q-18 0 -28.5 11.5t-10.5 28.5z" />
    <glyph glyph-name="uni0123" unicode="&#x123;" horiz-adv-x="528" 
d="M18 -106q0 19 6 37t20 33.5t37 27t58 18.5v2q-64 9 -91 40.5t-27 71.5q0 41 24 68.5t72 37.5q-30 39 -30 95q0 36 12 66t34.5 51.5t53.5 33t69 11.5q79 0 122 -48q21 29 37 38t33 9q25 0 41 -15t16 -48q0 -29 -22 -29t-22 31q0 21 -6.5 30t-19.5 9q-11 0 -21.5 -8.5
t-24.5 -28.5q30 -41 30 -97q0 -36 -12 -65.5t-34 -51t-53 -33t-69 -11.5q-77 0 -122 47q-38 -6 -59.5 -25t-21.5 -51q0 -37 28 -55t78 -18h17.5t16 0.5t19 1t25.5 1.5q20 1 34 2t24.5 1.5t18.5 0.5h16q80 0 120.5 -37.5t40.5 -105.5q0 -83 -63 -132t-175 -49q-51 0 -93 9.5
t-72.5 28t-47.5 45.5t-17 61zM252 -234q47 0 84.5 10.5t64.5 29t41.5 45.5t14.5 60q0 48 -32 75t-100 27h-40.5t-33.5 -1t-32.5 -2t-37.5 -4q-114 -15 -114 -108q0 -63 49.5 -97.5t135.5 -34.5zM143 328v-5q0 -73 30.5 -105t79.5 -32q50 0 80.5 32t30.5 105v5
q0 76 -30.5 109.5t-79.5 33.5q-50 0 -80.5 -33.5t-30.5 -109.5zM189 638q0 29 9.5 52.5t25 40t35 26t40.5 10.5q5 0 5 -8q0 -3 -1 -4.5t-9 -3.5q-40 -8 -60 -36t-20 -60q0 -17 4.5 -29.5t10.5 -18.5h2q2 11 11 18.5t24 7.5q18 0 28.5 -11.5t10.5 -28.5q0 -20 -14 -31.5
t-34 -11.5q-31 0 -49.5 24.5t-18.5 63.5z" />
    <glyph glyph-name="Hcircumflex" unicode="&#x124;" horiz-adv-x="791" 
d="M404 940q5 0 6.5 -1.5t5.5 -6.5l117 -160q5 -7 5.5 -8t0.5 -3q0 -4 -5 -4h-7q-4 0 -10 5l-128 119q-6 6 -8 6t-7 -6l-97 -119q-5 -5 -9 -5h-5q-6 0 -6 4q0 2 0.5 3t5.5 6l122 163q6 7 12 7h7zM39 -1q-5 0 -5 8t5 8l83 1q14 1 14 14v645q0 12 -14 12h-83q-5 0 -5 8t5 8
q29 0 47.5 -0.5t32 -0.5h24.5h25h28.5h28.5t33.5 0.5t42.5 1.5q5 0 5 -8t-5 -8l-87 -1q-15 0 -15 -15v-303q0 -6 6 -6h379q6 0 6 6v305q0 13 -16 13l-86 1q-5 0 -5 8t5 8q30 -1 49.5 -1.5t33.5 -0.5h25.5h25.5h25.5h25t31.5 0.5t46 0.5q5 0 5 -8t-5 -8h-84q-13 0 -13 -14
v-643q0 -15 14 -15h86q4 0 4 -7q0 -9 -4 -9q-27 0 -45.5 0.5t-33 0.5h-26h-25.5h-24.5h-25t-33 -0.5t-49.5 -1.5q-5 0 -5 8q0 9 5 9l84 1q15 0 15 13v312q0 6 -6 6h-379q-6 0 -6 -6v-313q0 -12 14 -12l89 -1q4 0 4 -8q0 -9 -4 -9q-30 1 -49 1.5t-33.5 0.5h-26h-26.5h-24h-24
t-31.5 -0.5t-48.5 -0.5z" />
    <glyph glyph-name="hcircumflex" unicode="&#x125;" horiz-adv-x="572" 
d="M161 951q5 0 6.5 -1t5.5 -6l117 -161q5 -6 5.5 -7.5t0.5 -3.5q0 -3 -5 -3h-7q-3 0 -4.5 0.5t-5.5 4.5l-128 119q-4 4 -5 4.5t-3 0.5q-1 0 -2 -0.5t-5 -5.5l-97 -118q-2 -4 -4 -4.5t-4 -0.5h-6q-5 0 -5 3q0 2 0.5 3t4.5 7l122 162q4 5 6 6t6 1h7zM19 -2q-4 0 -4 8t4 8
l59 2q16 0 16 20v650q0 6 -4 10.5t-11 4.5h-60q-4 0 -4 8t4 8h34.5t30.5 0.5t31 1t35 1.5q4 0 4 -4v-249v-52.5t-1 -63.5l1 -1q32 77 80.5 107.5t105.5 30.5q71 0 105.5 -33t34.5 -105v-319q0 -15 15 -15l58 -2q5 0 5 -8t-5 -8q-23 1 -38 1.5t-26 0.5h-19.5h-18.5h-19h-20.5
t-26.5 -0.5t-39 -1.5q-5 0 -5 8t5 8l57 2q15 0 15 18v317q0 60 -23.5 87.5t-73.5 27.5q-39 0 -70 -18.5t-52 -47t-32.5 -63t-11.5 -65.5v-239q0 -17 15 -17l59 -2q4 0 4 -8t-4 -8q-24 1 -39.5 1.5t-26.5 0.5h-19h-18h-19h-20t-27 -0.5t-41 -1.5z" />
    <glyph glyph-name="Hbar" unicode="&#x126;" horiz-adv-x="796" 
d="M37 6q0 8 5 8l84 2q13 1 13 14v468q0 15 -15 15h-81q-5 0 -5 8t5 8h81q15 0 15 15v131q0 12 -13 12l-83 1q-5 0 -5 8t5 8q28 -1 46.5 -1.5t32 -0.5h25h24.5h28.5h29t34 0.5t42.5 1.5q5 0 5 -8t-5 -8l-87 -1q-15 0 -15 -15v-128q0 -15 15 -15h360q15 0 15 15v130
q0 13 -15 13l-87 1q-4 0 -4 8t4 8q30 -1 49.5 -1.5t34 -0.5h26h25.5h25.5h25t31.5 0.5t46 1.5q5 0 5 -8t-5 -8l-84 -1q-14 0 -14 -14v-129q0 -15 15 -15h81q6 0 6 -8t-6 -8h-81q-15 0 -15 -15v-468q0 -15 15 -15l85 -1q5 0 5 -7q0 -9 -5 -9q-27 1 -45 1.5t-32.5 0.5h-26
h-25.5h-24.5h-25.5t-33 -0.5t-49 -1.5q-6 0 -6 8q0 9 6 9l84 1q14 0 14 13v312q0 6 -6 6h-378q-6 0 -6 -6v-313q0 -12 13 -12l89 -1q5 0 5 -8q0 -9 -5 -9q-30 1 -49 1.5t-33 0.5h-25.5h-26.5h-24h-24.5t-32 -0.5t-48.5 -1.5q-5 0 -5 8zM203 498v-129q0 -6 6 -6h378q6 0 6 6
v129q0 15 -15 15h-360q-15 0 -15 -15z" />
    <glyph glyph-name="hbar" unicode="&#x127;" horiz-adv-x="572" 
d="M15 709q0 8 4 8h34.5t30.5 0.5t31 1t35 1.5q4 0 4 -4v-103q0 -14 16 -14h113q5 0 5 -8t-5 -8h-113q-16 0 -16 -15v-101v-52.5t-1 -63.5l1 -1q32 77 80.5 107.5t105.5 30.5q71 0 105.5 -33t34.5 -105v-319q0 -15 15 -15l58 -2q5 0 5 -8t-5 -8q-23 1 -38 1.5t-26 0.5h-19.5
h-18.5h-19h-20.5t-26.5 -0.5t-39 -1.5q-5 0 -5 8t5 8l57 2q15 0 15 18v317q0 60 -23.5 87.5t-73.5 27.5q-39 0 -70 -18.5t-52 -47t-32.5 -63t-11.5 -65.5v-239q0 -17 15 -17l59 -2q4 0 4 -8t-4 -8q-24 1 -39.5 1.5t-26.5 0.5h-19h-18h-19h-20t-27 -0.5t-41 -1.5q-4 0 -4 8
t4 8l59 2q16 0 16 20v532q0 15 -16 15h-58q-5 0 -5 8t5 8h58q16 0 16 14v73q0 6 -4 10.5t-11 4.5h-60q-4 0 -4 8z" />
    <glyph glyph-name="Itilde" unicode="&#x128;" horiz-adv-x="345" 
d="M34 7q0 8 5 8l87 1q5 0 10 2.5t5 12.5v641q0 9 -4 11.5t-10 2.5l-88 1q-5 1 -5 9t5 8q30 -1 49 -1.5t32.5 -0.5h25h26.5h29.5h27t32.5 0.5t45 1.5q5 0 5 -9q0 -8 -5 -8l-88 -1q-5 0 -9.5 -3t-4.5 -11v-643q0 -8 4 -10.5t10 -2.5l88 -1q5 -1 5 -8q0 -8 -5 -8
q-29 0 -47.5 0.5t-32 0.5h-25.5h-29h-28h-25.5t-32 -0.5t-47.5 -0.5q-5 0 -5 8zM1 776q0 60 25.5 93.5t67.5 33.5q31 0 53.5 -15.5t39.5 -32.5q18 -17 36 -29.5t43 -12.5q29 0 46 22t18 62q1 4 8 4q8 0 8 -4q0 -60 -26 -93.5t-68 -33.5q-31 0 -52.5 15.5t-40.5 32.5
q-17 16 -35 29t-43 13q-29 0 -46.5 -22t-18.5 -62q0 -5 -7 -5q-8 0 -8 5z" />
    <glyph glyph-name="itilde" unicode="&#x129;" horiz-adv-x="248" 
d="M16 467q0 8 5 8h35.5t30.5 0.5t30.5 1t34.5 1.5q5 0 5 -4v-443q0 -15 15 -15l57 -2q5 0 5 -8t-5 -8q-25 1 -40 1.5t-25.5 0.5h-18.5h-18h-18.5h-19.5t-26.5 -0.5t-41.5 -1.5q-4 0 -4 8t5 8l58 2q15 0 15 15v413q0 6 -4 10.5t-11 4.5h-59q-5 0 -5 8zM-52 549
q0 60 25.5 93.5t67.5 33.5q31 0 53.5 -15.5t39.5 -32.5q18 -17 36 -29.5t43 -12.5q29 0 46 22t18 62q1 4 8 4q8 0 8 -4q0 -60 -26 -93.5t-68 -33.5q-31 0 -52.5 15.5t-40.5 32.5q-17 16 -35 29t-43 13q-29 0 -46.5 -22t-18.5 -62q0 -5 -7 -5q-8 0 -8 5z" />
    <glyph glyph-name="Imacron" unicode="&#x12a;" horiz-adv-x="345" 
d="M39 15l87 1q5 0 10 2.5t5 12.5v641q0 9 -4 11.5t-10 2.5l-88 1q-5 1 -5 9t5 8q30 -1 49 -1.5t32.5 -0.5h25h26.5h29.5h27t32.5 0.5t45 1.5q5 0 5 -9q0 -8 -5 -8l-88 -1q-5 0 -9.5 -3t-4.5 -11v-643q0 -8 4 -10.5t10 -2.5l88 -1q5 -1 5 -8q0 -8 -5 -8q-29 0 -47.5 0.5
t-32 0.5h-25.5h-29h-28h-25.5t-32 -0.5t-47.5 -0.5q-5 0 -5 8t5 8zM40 823q0 5 5 5h256q5 0 5 -5v-25q0 -5 -5 -5h-256q-5 0 -5 5v25z" />
    <glyph glyph-name="imacron" unicode="&#x12b;" horiz-adv-x="248" 
d="M21 475h35.5t30.5 0.5t30.5 1t34.5 1.5q5 0 5 -4v-443q0 -15 15 -15l57 -2q5 0 5 -8t-5 -8q-25 1 -40 1.5t-25.5 0.5h-18.5h-18h-18.5h-19.5t-26.5 -0.5t-41.5 -1.5q-4 0 -4 8t5 8l58 2q15 0 15 15v413q0 6 -4 10.5t-11 4.5h-59q-5 0 -5 8t5 8zM-8 601h256q5 0 5 -5v-25
q0 -5 -5 -5h-256q-5 0 -5 5v25q0 5 5 5z" />
    <glyph glyph-name="Ibreve" unicode="&#x12c;" horiz-adv-x="345" 
d="M39 15l87 1q5 0 10 2.5t5 12.5v641q0 9 -4 11.5t-10 2.5l-88 1q-5 1 -5 9t5 8q30 -1 49 -1.5t32.5 -0.5h25h26.5h29.5h27t32.5 0.5t45 1.5q5 0 5 -9q0 -8 -5 -8l-88 -1q-5 0 -9.5 -3t-4.5 -11v-643q0 -8 4 -10.5t10 -2.5l88 -1q5 -1 5 -8q0 -8 -5 -8q-29 0 -47.5 0.5
t-32 0.5h-25.5h-29h-28h-25.5t-32 -0.5t-47.5 -0.5q-5 0 -5 8t5 8zM35 914q0 4 8 4q6 0 7 -4q13 -51 39 -73.5t84 -22.5t84 22.5t39 73.5q1 4 7 4q8 0 8 -4q-4 -73 -38 -107.5t-100 -34.5t-100 34.5t-38 107.5z" />
    <glyph glyph-name="ibreve" unicode="&#x12d;" horiz-adv-x="248" 
d="M16 467q0 8 5 8h35.5t30.5 0.5t30.5 1t34.5 1.5q5 0 5 -4v-443q0 -15 15 -15l57 -2q5 0 5 -8t-5 -8q-25 1 -40 1.5t-25.5 0.5h-18.5h-18h-18.5h-19.5t-26.5 -0.5t-41.5 -1.5q-4 0 -4 8t5 8l58 2q15 0 15 15v413q0 6 -4 10.5t-11 4.5h-59q-5 0 -5 8zM-18 687q0 4 8 4
q6 0 7 -4q13 -51 39 -73.5t84 -22.5t84 22.5t39 73.5q1 4 7 4q8 0 8 -4q-4 -73 -38 -107.5t-100 -34.5t-100 34.5t-38 107.5z" />
    <glyph glyph-name="Iogonek" unicode="&#x12e;" horiz-adv-x="345" 
d="M39 704q30 -1 49 -1.5t32.5 -0.5h25h26.5h29.5h27t32.5 0.5t45 1.5q5 0 5 -9q0 -8 -5 -8l-88 -1q-5 0 -9.5 -3t-4.5 -11v-643q0 -8 4 -10.5t10 -2.5l88 -1q5 -1 5 -8q0 -8 -5 -8q-30 1 -48.5 1h-32.5q-67 -26 -100.5 -62t-33.5 -78q0 -32 18 -49.5t49 -17.5q13 0 29 3.5
t37 13.5q8 -2 8 -12q-23 -14 -48 -19.5t-48 -5.5q-45 0 -73 21t-28 61q0 44 36.5 80t121.5 65h-21h-28h-25.5t-32 -0.5t-47.5 -0.5q-5 0 -5 8t5 8l87 1q5 0 10 2.5t5 12.5v641q0 9 -4 11.5t-10 2.5l-88 1q-5 1 -5 9t5 8z" />
    <glyph glyph-name="iogonek" unicode="&#x12f;" horiz-adv-x="248" 
d="M158 0h-31h-18.5h-19.5t-26.5 -0.5t-41.5 -1.5q-4 0 -4 8t5 8l58 2q15 0 15 15v413q0 6 -4 10.5t-11 4.5h-59q-5 0 -5 8t5 8h35.5t30.5 0.5t30.5 1t34.5 1.5q5 0 5 -4v-443q0 -15 15 -15l57 -2q5 0 5 -8t-5 -8q-13 1 -22.5 1h-17.5q-66 -26 -99 -61.5t-33 -77.5
q0 -32 18 -49.5t49 -17.5q13 0 29 3.5t37 13.5q8 -2 8 -12q-23 -14 -48 -19.5t-48 -5.5q-45 0 -73 21t-28 61q0 44 36.5 80t120.5 65zM81 639q0 18 11 29.5t29 11.5q17 0 28 -11.5t11 -29.5t-11 -29.5t-28 -11.5q-18 0 -29 11.5t-11 29.5z" />
    <glyph glyph-name="Idotaccent" unicode="&#x130;" horiz-adv-x="345" 
d="M34 7q0 8 5 8l87 1q5 0 10 2.5t5 12.5v641q0 9 -4 11.5t-10 2.5l-88 1q-5 1 -5 9t5 8q30 -1 49 -1.5t32.5 -0.5h25h26.5h29.5h27t32.5 0.5t45 1.5q5 0 5 -9q0 -8 -5 -8l-88 -1q-5 0 -9.5 -3t-4.5 -11v-643q0 -8 4 -10.5t10 -2.5l88 -1q5 -1 5 -8q0 -8 -5 -8
q-29 0 -47.5 0.5t-32 0.5h-25.5h-29h-28h-25.5t-32 -0.5t-47.5 -0.5q-5 0 -5 8zM173 868q18 0 29 -11t11 -29t-11 -29t-29 -11q-17 0 -28 11t-11 29t11 29t28 11z" />
    <glyph glyph-name="dotlessi" unicode="&#x131;" horiz-adv-x="248" 
d="M21 475h35.5t30.5 0.5t30.5 1t34.5 1.5q5 0 5 -4v-443q0 -15 15 -15l57 -2q5 0 5 -8t-5 -8q-25 1 -40 1.5t-25.5 0.5h-18.5h-18h-18.5h-19.5t-26.5 -0.5t-41.5 -1.5q-4 0 -4 8t5 8l58 2q15 0 15 15v413q0 6 -4 10.5t-11 4.5h-59q-5 0 -5 8t5 8z" />
    <glyph glyph-name="IJ" unicode="&#x132;" horiz-adv-x="782" 
d="M359 74q0 21 11.5 34t31.5 13q18 0 29.5 -12t11.5 -31q0 -16 -9.5 -27.5t-29.5 -15.5q28 -31 85 -31q45 0 64 20t19 59v588q0 9 -4 11.5t-9 2.5l-88 2q-5 1 -5 9q0 7 5 7q27 0 45 -0.5t32 -0.5h27h29h29h26t32 0.5t45 0.5q4 0 4 -7q0 -8 -4 -9l-85 -2q-6 0 -10.5 -2.5
t-4.5 -11.5v-571q0 -54 -35.5 -83t-107.5 -29q-63 0 -98.5 25t-35.5 61zM34 696q0 8 5 8q30 -1 49 -1.5t32.5 -0.5h25h26.5h29.5h27t32.5 0.5t45 1.5q5 0 5 -9q0 -8 -5 -8l-88 -1q-5 0 -9.5 -3t-4.5 -11v-643q0 -8 4 -10.5t10 -2.5l88 -1q5 -1 5 -8q0 -8 -5 -8
q-29 0 -47.5 0.5t-32 0.5h-25.5h-29h-28h-25.5t-32 -0.5t-47.5 -0.5q-5 0 -5 8t5 8l87 1q5 0 10 2.5t5 12.5v641q0 9 -4 11.5t-10 2.5l-88 1q-5 1 -5 9z" />
    <glyph glyph-name="ij" unicode="&#x133;" horiz-adv-x="489" 
d="M235 -221q30 9 50 20.5t32 28.5t17 41.5t5 61.5v248t-1 264q-2 15 -13 15h-87q-4 0 -4 8t4 8h78t77 2q6 0 6 -3v-554q0 -33 -8.5 -57t-28 -41.5t-50.5 -31t-76 -26.5q-2 0 -4.5 3.5t-2.5 7.5q0 3 6 5zM21 475h35.5t30.5 0.5t30.5 1t34.5 1.5q5 0 5 -4v-443q0 -15 15 -15
l57 -2q5 0 5 -8t-5 -8q-25 1 -40 1.5t-25.5 0.5h-18.5h-18h-18.5h-19.5t-26.5 -0.5t-41.5 -1.5q-4 0 -4 8t5 8l58 2q15 0 15 15v413q0 6 -4 10.5t-11 4.5h-59q-5 0 -5 8t5 8zM368 679q17 0 28 -11.5t11 -29.5t-11 -29.5t-28 -11.5q-18 0 -29 11.5t-11 29.5t11 29.5t29 11.5z
M121 680q17 0 28 -11.5t11 -29.5t-11 -29.5t-28 -11.5q-18 0 -29 11.5t-11 29.5t11 29.5t29 11.5z" />
    <glyph glyph-name="Jcircumflex" unicode="&#x134;" horiz-adv-x="443" 
d="M112 757q-6 0 -6 4q0 2 0.5 3t5.5 6l122 163q6 7 12 7h7q5 0 6.5 -1.5t5.5 -6.5l117 -160q5 -7 5.5 -8t0.5 -3q0 -4 -5 -4h-7q-4 0 -10 5l-128 119q-6 6 -8 6t-7 -6l-97 -119q-5 -5 -9 -5h-5zM398 703q4 0 4 -7q0 -8 -4 -9l-85 -2q-6 0 -10.5 -2.5t-4.5 -11.5v-571
q0 -54 -35.5 -83t-107.5 -29q-63 0 -98.5 25t-35.5 61q0 21 11.5 34t31.5 13q18 0 29.5 -12t11.5 -31q0 -16 -9.5 -27.5t-29.5 -15.5q28 -31 85 -31q45 0 64 20t19 59v588q0 9 -4 11.5t-9 2.5l-88 2q-5 1 -5 9q0 7 5 7q27 0 45 -0.5t32 -0.5h27h29h29h26t32 0.5t45 0.5z" />
    <glyph glyph-name="jcircumflex" unicode="&#x135;" horiz-adv-x="247" 
d="M134 712q5 0 6.5 -1.5t5.5 -6.5l117 -160q5 -7 5.5 -8t0.5 -3q0 -4 -5 -4h-7q-4 0 -10 5l-128 119q-6 6 -8 6t-7 -6l-97 -119q-5 -5 -9 -5h-5q-6 0 -6 4q0 2 0.5 3t5.5 6l122 163q6 7 12 7h7zM-6 -237q-2 0 -4.5 3.5t-2.5 7.5q0 3 6 5q29 12 49 23t32 27.5t17.5 40.5
t5.5 61v248t-1 264q-2 15 -13 15h-87q-4 0 -4 8t4 8h78t77 2q6 0 6 -3v-554q0 -33 -8.5 -57t-28 -41.5t-50.5 -31t-76 -26.5z" />
    <glyph glyph-name="uni0136" unicode="&#x136;" horiz-adv-x="686" 
d="M39 15l88 1q13 0 13 13v643q0 14 -13 14l-88 1q-5 0 -5 9q0 7 5 7q27 0 44.5 -0.5t31.5 -0.5h26.5h28.5h28h25.5t30.5 0.5t44 1.5q5 0 5 -7q0 -9 -5 -9l-81 -2q-13 0 -13 -14v-267q0 -6 6 -6h76l194 269q5 8 5 10q0 8 -11 8l-65 2q-5 0 -5 8t5 8q23 -1 37.5 -1.5t24 -0.5
h16h13.5h18h17.5t21.5 0.5t30 0.5q5 0 5 -8t-5 -8l-64 -1q-12 -1 -18 -10l-177 -241l252 -408q5 -6 8.5 -8t14.5 -3l76 -1q5 0 5 -8t-5 -8q-28 0 -46 0.5t-30.5 0.5h-23.5h-26h-24.5h-24t-33 -0.5t-51.5 -1.5q-5 0 -5 8q0 6 5 8l74 2q12 0 12 7q0 3 -4 10l-211 347
q-2 4 -7 4h-75q-5 0 -5 -6v-349q0 -13 13 -13l87 -2q5 0 5 -8t-5 -8q-29 1 -47 1.5t-32 0.5h-26h-29h-27h-24.5t-31.5 -0.5t-48 -0.5q-5 0 -5 8t5 8zM281 -92q0 20 14 31.5t34 11.5q31 0 49.5 -24t18.5 -64q0 -29 -10 -52.5t-26 -40.5t-35.5 -26.5t-38.5 -9.5q-5 0 -5 8
q0 4 1 5t8 3q39 9 60 38t21 59q0 16 -4.5 28.5t-10.5 19.5h-2q-2 -11 -11 -19t-24 -8q-18 0 -28.5 11.5t-10.5 28.5z" />
    <glyph glyph-name="uni0137" unicode="&#x137;" horiz-adv-x="504" 
d="M20 14l60 2q14 0 14 14v655q0 16 -16 16h-58q-5 0 -5 8t4 8q35 0 64.5 0.5t67.5 2.5q4 0 4 -4v-461q0 -4 5 -4h51l123 192q5 8 5 10q0 7 -10 7l-64 1q-4 1 -4 9t4 8q21 -1 34 -1.5t23 -1t17 -0.5h16h17t17 0.5t20.5 1t28.5 1.5q4 0 4 -9q0 -8 -5 -8l-58 -2q-7 0 -12 -2
t-10 -10l-107 -166l188 -252q6 -8 10.5 -10t12.5 -2l38 -3q5 0 5 -8t-5 -8q-19 1 -31.5 1.5t-22 0.5h-19h-21.5h-21.5h-20t-25.5 -0.5t-38 -1.5q-5 0 -5 8t5 8l56 2q5 0 8.5 1.5t3.5 6.5t-5 10l-144 196q-5 5 -9 5h-50q-5 0 -5 -5v-200q0 -14 15 -14l56 -2q5 0 5 -8t-5 -8
q-22 1 -36 1.5t-24.5 0.5h-19h-20.5h-21.5h-21t-26 -0.5t-37.5 -1.5q-5 0 -5 8t5 8zM263 -49q31 0 49.5 -24t18.5 -64q0 -29 -10 -52.5t-26 -40.5t-35.5 -26.5t-38.5 -9.5q-5 0 -5 8q0 4 1 5t8 3q39 9 60 38t21 59q0 16 -4.5 28.5t-10.5 19.5h-2q-2 -11 -11 -19t-24 -8
q-18 0 -28.5 11.5t-10.5 28.5q0 20 14 31.5t34 11.5z" />
    <glyph glyph-name="kgreenlandic" unicode="&#x138;" horiz-adv-x="506" 
d="M21 475q35 0 64.5 0.5t67.5 2.5q4 0 4 -4v-219q0 -4 5 -4h51l123 191q4 8 4 11q0 7 -9 7l-64 1q-5 1 -5 9t5 8q20 -1 33.5 -1.5t23 -1t17 -0.5h16.5h16.5t16.5 0.5t20.5 1t28.5 1.5q5 0 5 -9q0 -8 -5 -8l-58 -2q-7 0 -12 -2t-10 -10l-107 -166l188 -252q6 -8 10.5 -10
t12.5 -2l38 -3q5 0 5 -8t-5 -8q-19 1 -31.5 1.5t-22 0.5h-19h-21.5h-21.5h-20t-25.5 -0.5t-38 -1.5q-5 0 -5 8t5 8l56 2q5 0 8.5 1.5t3.5 6.5q0 3 -5 10l-144 196q-5 5 -9 5h-50q-5 0 -5 -5v-200q0 -14 15 -14l56 -2q4 0 4 -8t-4 -8q-22 1 -36 1.5t-24.5 0.5h-19h-20.5
h-21.5h-21t-26 -0.5t-37.5 -1.5q-5 0 -5 8t5 8l60 2q14 0 14 14v413q0 16 -16 16h-59q-4 0 -4 8t4 8z" />
    <glyph glyph-name="Lacute" unicode="&#x139;" horiz-adv-x="667" 
d="M34 7q0 8 5 8l89 2q14 0 14 13v641q0 9 -5 12t-10 3l-87 1q-5 2 -5 8q0 8 5 8q29 0 47.5 -0.5t32 -0.5h25h27.5h28h25.5t32 0.5t48.5 1.5q5 0 5 -8t-5 -8l-86 -2q-6 -1 -10.5 -3.5t-4.5 -11.5v-641q0 -14 13 -14h191q70 0 109 7t59 29.5t26.5 64t10.5 110.5q0 5 8 5t8 -5
v-222q0 -7 -7 -7q-73 0 -124.5 0.5t-89.5 1t-66.5 0.5h-54.5h-53h-63h-28h-25.5t-32 -0.5t-47.5 -0.5q-5 0 -5 8zM228 952q3 7 6.5 8.5t9.5 1.5h41q11 0 11 -9q0 -4 -2 -7t-9 -12l-140 -168q-2 -3 -6 -3q-3 0 -6 2t-3 6z" />
    <glyph glyph-name="lacute" unicode="&#x13a;" horiz-adv-x="248" 
d="M21 14l60 2q14 0 14 14v657q0 14 -14 14h-60q-5 0 -5 8t5 8h33t28.5 0.5t30.5 1t39 1.5q5 0 5 -4v-686q0 -14 14 -14l60 -2q5 0 5 -8t-5 -8q-22 1 -36.5 1.5t-25 0.5h-20.5h-23h-23h-21t-25 -0.5t-36 -1.5q-5 0 -5 8t5 8zM175 965q3 7 6.5 8.5t9.5 1.5h41q11 0 11 -9
q0 -4 -2 -7t-9 -12l-140 -168q-2 -3 -6 -3q-3 0 -6 2t-3 6z" />
    <glyph glyph-name="uni013B" unicode="&#x13b;" horiz-adv-x="667" 
d="M34 7q0 8 5 8l89 2q14 0 14 13v641q0 9 -5 12t-10 3l-87 1q-5 2 -5 8q0 8 5 8q29 0 47.5 -0.5t32 -0.5h25h27.5h28h25.5t32 0.5t48.5 1.5q5 0 5 -8t-5 -8l-86 -2q-6 -1 -10.5 -3.5t-4.5 -11.5v-641q0 -14 13 -14h191q70 0 109 7t59 29.5t26.5 64t10.5 110.5q0 5 8 5t8 -5
v-222q0 -7 -7 -7q-73 0 -124.5 0.5t-89.5 1t-66.5 0.5h-54.5h-53h-63h-28h-25.5t-32 -0.5t-47.5 -0.5q-5 0 -5 8zM367 -49q31 0 49.5 -24t18.5 -64q0 -29 -10 -52.5t-26 -40.5t-35.5 -26.5t-38.5 -9.5q-5 0 -5 8q0 4 1 5t8 3q39 9 60 38t21 59q0 16 -4.5 28.5t-10.5 19.5h-2
q-2 -11 -11 -19t-24 -8q-18 0 -28.5 11.5t-10.5 28.5q0 20 14 31.5t34 11.5z" />
    <glyph glyph-name="uni013C" unicode="&#x13c;" horiz-adv-x="248" 
d="M16 709q0 8 5 8h33t28.5 0.5t30.5 1t39 1.5q5 0 5 -4v-686q0 -14 14 -14l60 -2q5 0 5 -8t-5 -8q-22 1 -36.5 1.5t-25 0.5h-20.5h-23h-23h-21t-25 -0.5t-36 -1.5q-5 0 -5 8t5 8l60 2q14 0 14 14v657q0 14 -14 14h-60q-5 0 -5 8zM118 -49q31 0 49.5 -24t18.5 -64
q0 -29 -10 -52.5t-26 -40.5t-35.5 -26.5t-38.5 -9.5q-5 0 -5 8q0 4 1 5t8 3q39 9 60 38t21 59q0 16 -4.5 28.5t-10.5 19.5h-2q-2 -11 -11 -19t-24 -8q-18 0 -28.5 11.5t-10.5 28.5q0 20 14 31.5t34 11.5z" />
    <glyph glyph-name="Lcaron" unicode="&#x13d;" horiz-adv-x="667" 
d="M34 7q0 8 5 8l89 2q14 0 14 13v641q0 9 -5 12t-10 3l-87 1q-5 2 -5 8q0 8 5 8q29 0 47.5 -0.5t32 -0.5h25h27.5h28h25.5t32 0.5t48.5 1.5q5 0 5 -8t-5 -8l-86 -2q-6 -1 -10.5 -3.5t-4.5 -11.5v-641q0 -14 13 -14h191q70 0 109 7t59 29.5t26.5 64t10.5 110.5q0 5 8 5t8 -5
v-222q0 -7 -7 -7q-73 0 -124.5 0.5t-89.5 1t-66.5 0.5h-54.5h-53h-63h-28h-25.5t-32 -0.5t-47.5 -0.5q-5 0 -5 8zM480 480l2 15l37 194q3 13 14 13h38q11 0 11 -9q0 -2 -0.5 -5t-5.5 -14l-79 -188q-3 -8 -4.5 -9.5t-3.5 -1.5t-5.5 1t-3.5 4z" />
    <glyph glyph-name="lcaron" unicode="&#x13e;" horiz-adv-x="248" 
d="M16 709q0 8 5 8h33t28.5 0.5t30.5 1t39 1.5q5 0 5 -4v-686q0 -14 14 -14l60 -2q5 0 5 -8t-5 -8q-22 1 -36.5 1.5t-25 0.5h-20.5h-23h-23h-21t-25 -0.5t-36 -1.5q-5 0 -5 8t5 8l60 2q14 0 14 14v657q0 14 -14 14h-60q-5 0 -5 8zM224 510l38 194q3 13 13 13h39q11 0 11 -8
q0 -2 -1 -5t-6 -14l-78 -189q-4 -8 -5.5 -9.5t-3.5 -1.5t-5.5 1.5t-3.5 4.5z" />
    <glyph glyph-name="Ldot" unicode="&#x13f;" horiz-adv-x="667" 
d="M34 7q0 8 5 8l89 2q14 0 14 13v641q0 9 -5 12t-10 3l-87 1q-5 2 -5 8q0 8 5 8q29 0 47.5 -0.5t32 -0.5h25h27.5h28h25.5t32 0.5t48.5 1.5q5 0 5 -8t-5 -8l-86 -2q-6 -1 -10.5 -3.5t-4.5 -11.5v-641q0 -14 13 -14h191q70 0 109 7t59 29.5t26.5 64t10.5 110.5q0 5 8 5t8 -5
v-222q0 -7 -7 -7q-73 0 -124.5 0.5t-89.5 1t-66.5 0.5h-54.5h-53h-63h-28h-25.5t-32 -0.5t-47.5 -0.5q-5 0 -5 8zM403 330q0 21 13 34.5t35 13.5q21 0 34 -13.5t13 -34.5q0 -20 -13 -34t-34 -14q-22 0 -35 14t-13 34z" />
    <glyph glyph-name="ldot" unicode="&#x140;" horiz-adv-x="248" 
d="M16 709q0 8 5 8h33t28.5 0.5t30.5 1t39 1.5q5 0 5 -4v-686q0 -14 14 -14l60 -2q5 0 5 -8t-5 -8q-22 1 -36.5 1.5t-25 0.5h-20.5h-23h-23h-21t-25 -0.5t-36 -1.5q-5 0 -5 8t5 8l60 2q14 0 14 14v657q0 14 -14 14h-60q-5 0 -5 8zM247 348q0 21 13 34.5t34 13.5t34.5 -13.5
t13.5 -34.5t-13.5 -34.5t-34.5 -13.5t-34 13.5t-13 34.5z" />
    <glyph glyph-name="Lslash" unicode="&#x141;" horiz-adv-x="667" 
d="M39 15l89 2q14 0 14 13v309l-82 -41q-7 -4 -8.5 -4.5t-2.5 -0.5q-3 0 -5 5t-2 7q0 4 7 7l93 47v312q0 9 -5 12t-10 3l-87 1q-5 2 -5 8q0 8 5 8q29 0 47.5 -0.5t32 -0.5h25h27.5h28h25.5t32 0.5t48.5 1.5q5 0 5 -8t-5 -8l-86 -2q-6 -1 -10.5 -3.5t-4.5 -11.5v-280l118 59
l11 5q3 0 5 -5t2 -7q0 -3 -7 -7l-129 -65v-341q0 -14 13 -14h191q70 0 109 7t59 29.5t26.5 64t10.5 110.5q0 5 8 5t8 -5v-222q0 -7 -7 -7q-73 0 -124.5 0.5t-89.5 1t-66.5 0.5h-54.5h-53h-63h-28h-25.5t-32 -0.5t-47.5 -0.5q-5 0 -5 8t5 8z" />
    <glyph glyph-name="lslash" unicode="&#x142;" horiz-adv-x="251" 
d="M22 331l77 39v317q0 14 -14 14h-61q-5 0 -5 8t5 8h33t28.5 0.5t31 1t39.5 1.5q4 0 4 -4v-315l59 30q6 3 7.5 3.5t3.5 0.5q3 0 5 -4.5t2 -6.5q0 -3 -7 -7l-70 -36v-351q0 -14 14 -14l60 -2q5 0 5 -8t-5 -8q-22 1 -36 1.5t-25 0.5h-21h-23h-22.5h-20.5t-25.5 -0.5
t-36.5 -1.5q-5 0 -5 8t5 8l60 2q15 0 15 14v321l-66 -34q-7 -4 -8.5 -4h-2.5q-3 0 -5 5t-2 7q0 3 7 6z" />
    <glyph glyph-name="Nacute" unicode="&#x143;" horiz-adv-x="760" 
d="M39 703q17 0 28.5 -0.5t20 -0.5h15.5h15h15.5h16.5t20.5 0.5t27.5 0.5q3 0 5 -1t6 -6l413 -601h2v575q0 10 -4.5 12.5t-11.5 3.5l-80 2q-5 0 -5 8t5 8q24 -1 39.5 -1.5t26.5 -0.5h19.5h18.5h19h18.5t25.5 0.5t39 0.5q5 0 5 -7q0 -9 -5 -9l-79 -1q-6 -1 -10.5 -3.5
t-4.5 -12.5v-672q0 -9 -8 -9h-5q-6 0 -11 7l-461 670h-2v-635q0 -9 4 -12t11 -3l81 -2q5 0 5 -8t-5 -8q-25 1 -41 1.5t-27 0.5h-19h-17h-18h-18.5t-26 -0.5t-40.5 -0.5q-5 0 -5 8t5 8l80 1q7 0 11 2.5t4 11.5v640q0 10 -5 12.5t-10 2.5l-83 1q-5 0 -5 9q0 8 5 8zM445 952
q3 7 6.5 8.5t9.5 1.5h41q11 0 11 -9q0 -4 -2 -7t-9 -12l-140 -168q-2 -3 -6 -3q-3 0 -6 2t-3 6z" />
    <glyph glyph-name="nacute" unicode="&#x144;" horiz-adv-x="574" 
d="M21 14l59 2q15 0 15 20v408q0 6 -4 10.5t-10 4.5h-60q-4 0 -4 8t4 8h34.5t30.5 0.5t31 1t35 1.5q4 0 4 -4v-53t-1 -70l1 -1q32 77 80.5 107.5t105.5 30.5q70 0 105 -33t35 -105v-319q0 -15 15 -15l58 -2q5 0 5 -8t-5 -8q-23 1 -38 1.5t-26 0.5h-19.5h-18.5h-19h-20.5
t-26.5 -0.5t-39 -1.5q-5 0 -5 8t5 8l57 2q15 0 15 18v317q0 60 -23.5 87.5t-73.5 27.5q-39 0 -70 -18.5t-52 -47t-32.5 -63t-11.5 -65.5v-239q0 -17 15 -17l59 -2q4 0 4 -8t-4 -8q-24 1 -39.5 1.5t-26.5 0.5h-19h-18h-19h-20t-27 -0.5t-41 -1.5q-4 0 -4 8t4 8zM347 724
q3 7 6.5 8.5t9.5 1.5h41q11 0 11 -9q0 -4 -2 -7t-9 -12l-140 -168q-2 -3 -6 -3q-3 0 -6 2t-3 6z" />
    <glyph glyph-name="uni0145" unicode="&#x145;" horiz-adv-x="760" 
d="M39 703q17 0 28.5 -0.5t20 -0.5h15.5h15h15.5h16.5t20.5 0.5t27.5 0.5q3 0 5 -1t6 -6l413 -601h2v575q0 10 -4.5 12.5t-11.5 3.5l-80 2q-5 0 -5 8t5 8q24 -1 39.5 -1.5t26.5 -0.5h19.5h18.5h19h18.5t25.5 0.5t39 0.5q5 0 5 -7q0 -9 -5 -9l-79 -1q-6 -1 -10.5 -3.5
t-4.5 -12.5v-672q0 -9 -8 -9h-5q-6 0 -11 7l-461 670h-2v-635q0 -9 4 -12t11 -3l81 -2q5 0 5 -8t-5 -8q-25 1 -41 1.5t-27 0.5h-19h-17h-18h-18.5t-26 -0.5t-40.5 -0.5q-5 0 -5 8t5 8l80 1q7 0 11 2.5t4 11.5v640q0 10 -5 12.5t-10 2.5l-83 1q-5 0 -5 9q0 8 5 8zM393 -49
q31 0 49.5 -24t18.5 -64q0 -29 -10 -52.5t-26 -40.5t-35.5 -26.5t-38.5 -9.5q-5 0 -5 8q0 4 1 5t8 3q39 9 60 38t21 59q0 16 -4.5 28.5t-10.5 19.5h-2q-2 -11 -11 -19t-24 -8q-18 0 -28.5 11.5t-10.5 28.5q0 20 14 31.5t34 11.5z" />
    <glyph glyph-name="uni0146" unicode="&#x146;" horiz-adv-x="574" 
d="M17 467q0 8 4 8h34.5t30.5 0.5t31 1t35 1.5q4 0 4 -4v-53t-1 -70l1 -1q32 77 80.5 107.5t105.5 30.5q70 0 105 -33t35 -105v-319q0 -15 15 -15l58 -2q5 0 5 -8t-5 -8q-23 1 -38 1.5t-26 0.5h-19.5h-18.5h-19h-20.5t-26.5 -0.5t-39 -1.5q-5 0 -5 8t5 8l57 2q15 0 15 18
v317q0 60 -23.5 87.5t-73.5 27.5q-39 0 -70 -18.5t-52 -47t-32.5 -63t-11.5 -65.5v-239q0 -17 15 -17l59 -2q4 0 4 -8t-4 -8q-24 1 -39.5 1.5t-26.5 0.5h-19h-18h-19h-20t-27 -0.5t-41 -1.5q-4 0 -4 8t4 8l59 2q15 0 15 20v408q0 6 -4 10.5t-10 4.5h-60q-4 0 -4 8zM244 -92
q0 20 14 31.5t34 11.5q31 0 49.5 -24t18.5 -64q0 -29 -10 -52.5t-26 -40.5t-35.5 -26.5t-38.5 -9.5q-5 0 -5 8q0 4 1 5t8 3q39 9 60 38t21 59q0 16 -4.5 28.5t-10.5 19.5h-2q-2 -11 -11 -19t-24 -8q-18 0 -28.5 11.5t-10.5 28.5z" />
    <glyph glyph-name="Ncaron" unicode="&#x147;" horiz-adv-x="760" 
d="M384 755q-5 0 -6.5 1t-5.5 6l-117 161q-5 6 -5.5 7.5t-0.5 3.5q0 3 5 3h7q3 0 4.5 -0.5t5.5 -4.5l128 -119q4 -4 5 -4.5t3 -0.5q1 0 2 0.5t5 5.5l97 118q2 4 4 4.5t4 0.5h6q5 0 5 -3q0 -2 -0.5 -3t-4.5 -7l-122 -162q-4 -5 -6 -6t-6 -1h-7zM42 -1q-5 0 -5 8t5 8l80 1
q7 0 11 2.5t4 11.5v640q0 10 -5 12.5t-10 2.5l-83 1q-5 0 -5 9q0 8 5 8q17 0 28.5 -0.5t20 -0.5h15.5h15h15.5h16.5t20.5 0.5t27.5 0.5q3 0 5 -1t6 -6l413 -601h2v575q0 10 -4.5 12.5t-11.5 3.5l-80 2q-5 0 -5 8t5 8q24 -1 39.5 -1.5t26.5 -0.5h19.5h18.5h19h18.5t25.5 0.5
t39 0.5q5 0 5 -7q0 -9 -5 -9l-79 -1q-6 -1 -10.5 -3.5t-4.5 -12.5v-672q0 -9 -8 -9h-5q-6 0 -11 7l-461 670h-2v-635q0 -9 4 -12t11 -3l81 -2q5 0 5 -8t-5 -8q-25 1 -41 1.5t-27 0.5h-19h-17h-18h-18.5t-26 -0.5t-40.5 -0.5z" />
    <glyph glyph-name="ncaron" unicode="&#x148;" horiz-adv-x="574" 
d="M286 527q-5 0 -6.5 1t-5.5 6l-117 161q-5 6 -5.5 7.5t-0.5 3.5q0 3 5 3h7q3 0 4.5 -0.5t5.5 -4.5l128 -119q4 -4 5 -4.5t3 -0.5q1 0 2 0.5t5 5.5l97 118q2 4 4 4.5t4 0.5h6q5 0 5 -3q0 -2 -0.5 -3t-4.5 -7l-122 -162q-4 -5 -6 -6t-6 -1h-7zM21 -2q-4 0 -4 8t4 8l59 2
q15 0 15 20v408q0 6 -4 10.5t-10 4.5h-60q-4 0 -4 8t4 8h34.5t30.5 0.5t31 1t35 1.5q4 0 4 -4v-53t-1 -70l1 -1q32 77 80.5 107.5t105.5 30.5q70 0 105 -33t35 -105v-319q0 -15 15 -15l58 -2q5 0 5 -8t-5 -8q-23 1 -38 1.5t-26 0.5h-19.5h-18.5h-19h-20.5t-26.5 -0.5
t-39 -1.5q-5 0 -5 8t5 8l57 2q15 0 15 18v317q0 60 -23.5 87.5t-73.5 27.5q-39 0 -70 -18.5t-52 -47t-32.5 -63t-11.5 -65.5v-239q0 -17 15 -17l59 -2q4 0 4 -8t-4 -8q-24 1 -39.5 1.5t-26.5 0.5h-19h-18h-19h-20t-27 -0.5t-41 -1.5z" />
    <glyph glyph-name="napostrophe" unicode="&#x149;" horiz-adv-x="753" 
d="M195 467q0 8 5 8h34t30 0.5t31 1t36 1.5q4 0 4 -4v-53t-1 -70l1 -1q31 77 79.5 107.5t106.5 30.5q70 0 104.5 -33t34.5 -105v-319q0 -15 16 -15l58 -2q5 0 5 -8t-5 -8q-23 1 -38 1.5t-26 0.5h-19.5h-18.5h-19h-20.5t-26.5 -0.5t-39 -1.5q-5 0 -5 8t5 8l57 2q15 0 15 18
v317q0 60 -24 87.5t-73 27.5q-39 0 -70 -18.5t-52.5 -47t-33 -63t-11.5 -65.5v-239q0 -17 16 -17l58 -2q5 0 5 -8t-5 -8q-24 1 -39.5 1.5t-26 0.5h-19h-18.5h-18.5h-20t-27 -0.5t-40.5 -1.5q-5 0 -5 8t5 8l59 2q15 0 15 20v408q0 6 -4 10.5t-11 4.5h-59q-5 0 -5 8zM100 733
q34 0 54 -26.5t20 -68.5q0 -15 -4 -35t-15 -42t-32 -45t-54 -45q-9 0 -9 10q47 33 69 71t22 74q0 13 -4 27t-14 25h-3q-1 -18 -11.5 -27.5t-27.5 -9.5q-20 0 -31.5 12.5t-11.5 32.5q0 23 14.5 35t37.5 12z" />
    <glyph glyph-name="Eng" unicode="&#x14a;" horiz-adv-x="760" 
d="M39 704q17 -1 28.5 -1.5t20 -0.5h15.5h15h15.5h16.5t20.5 0.5t27.5 0.5q6 0 11 -6l413 -602h2v575q0 10 -4.5 12.5t-11.5 3.5l-80 2q-5 0 -5 8t5 8q24 -1 39.5 -1.5t26.5 -0.5h19.5h18.5h19h18.5t25.5 0.5t39 1.5q5 0 5 -7q0 -9 -5 -9l-79 -2q-6 -1 -10.5 -3.5
t-4.5 -12.5v-682q0 -82 -46 -129t-131 -47q-40 0 -72 10.5t-53.5 27t-33 38t-11.5 43.5q0 23 12 35.5t32 12.5q18 0 30 -11.5t12 -30.5q0 -17 -11.5 -29.5t-33.5 -14.5q15 -27 47 -46t83 -19q72 0 113.5 36.5t41.5 99.5q0 18 -6 32t-16 28l-442 642h-2v-635q0 -9 4 -12
t11 -3l81 -2q5 0 5 -8t-5 -8q-25 1 -41 1.5t-27 0.5h-19h-17h-18h-18.5t-26 -0.5t-40.5 -1.5q-5 0 -5 8t5 8l80 2q15 0 15 14v640q0 10 -5 12.5t-10 2.5l-83 3q-5 0 -5 8t5 8z" />
    <glyph glyph-name="eng" unicode="&#x14b;" horiz-adv-x="564" 
d="M17 467q0 8 4 8h34.5t30.5 0.5t31 1t35 1.5q4 0 4 -4v-53t-1 -70l1 -1q32 77 80.5 107.5t105.5 30.5q70 0 105 -33t35 -105v-431q0 -33 -9 -57t-28.5 -41.5t-51 -31t-76.5 -26.5q-2 0 -4.5 3.5t-2.5 7.5q0 3 6 5q29 12 49 23t32 27.5t17.5 40.5t5.5 61v420
q0 60 -23.5 87.5t-73.5 27.5q-39 0 -70 -18.5t-52 -47t-32.5 -63t-11.5 -65.5v-239q0 -17 15 -17l59 -2q4 0 4 -8t-4 -8q-24 1 -39.5 1.5t-26.5 0.5h-19h-18h-19h-20t-27 -0.5t-41 -1.5q-4 0 -4 8t4 8l59 2q15 0 15 20v408q0 6 -4 10.5t-10 4.5h-60q-4 0 -4 8z" />
    <glyph glyph-name="Omacron" unicode="&#x14c;" horiz-adv-x="741" 
d="M372 716q72 0 131.5 -25.5t102 -72.5t65.5 -113.5t23 -149.5t-23.5 -151t-66 -116.5t-102 -75t-131.5 -26.5q-73 0 -132.5 25.5t-102 73t-66 114.5t-23.5 150t23.5 150.5t66 115.5t102.5 74.5t133 26.5zM121 355q0 -175 64 -264t187 -89q121 0 184.5 87t63.5 258v2
q0 172 -64 261.5t-184 89.5q-123 0 -187 -86.5t-64 -257.5v-1zM239 823q0 5 5 5h256q5 0 5 -5v-25q0 -5 -5 -5h-256q-5 0 -5 5v25z" />
    <glyph glyph-name="omacron" unicode="&#x14d;" horiz-adv-x="506" 
d="M30 240q0 57 16 103t45.5 78.5t70.5 50t91 17.5t91 -17.5t70 -50t45.5 -78.5t16.5 -103q0 -58 -16.5 -104.5t-46 -79.5t-70.5 -51t-91 -18q-49 0 -90 18t-70.5 51t-45.5 79.5t-16 104.5zM96 252v-20q0 -46 5 -78t13 -54q17 -46 53.5 -71.5t86.5 -25.5q51 0 86 26.5
t52 71.5q8 23 13 54.5t5 79.5v19q0 40 -6 79t-22.5 70t-47 50t-80.5 19q-49 0 -80 -19.5t-48 -51t-23.5 -70.5t-6.5 -79zM121 596q0 5 5 5h256q5 0 5 -5v-25q0 -5 -5 -5h-256q-5 0 -5 5v25z" />
    <glyph glyph-name="Obreve" unicode="&#x14e;" horiz-adv-x="741" 
d="M47 349q0 83 23.5 150.5t66 115.5t102.5 74.5t133 26.5q72 0 131.5 -25.5t102 -72.5t65.5 -113.5t23 -149.5t-23.5 -151t-66 -116.5t-102 -75t-131.5 -26.5q-73 0 -132.5 25.5t-102 73t-66 114.5t-23.5 150zM121 356v-1q0 -175 64 -264t187 -89q121 0 184.5 87t63.5 258
v2q0 172 -64 261.5t-184 89.5q-123 0 -187 -86.5t-64 -257.5zM234 914q0 4 8 4q6 0 7 -4q13 -51 39 -73.5t84 -22.5t84 22.5t39 73.5q1 4 7 4q8 0 8 -4q-4 -73 -38 -107.5t-100 -34.5t-100 34.5t-38 107.5z" />
    <glyph glyph-name="obreve" unicode="&#x14f;" horiz-adv-x="506" 
d="M30 240q0 57 16 103t45.5 78.5t70.5 50t91 17.5t91 -17.5t70 -50t45.5 -78.5t16.5 -103q0 -58 -16.5 -104.5t-46 -79.5t-70.5 -51t-91 -18q-49 0 -90 18t-70.5 51t-45.5 79.5t-16 104.5zM96 232q0 -46 5 -78t13 -54q17 -46 53.5 -71.5t86.5 -25.5q51 0 86 26.5t52 71.5
q8 23 13 54.5t5 79.5v19q0 40 -6 79t-22.5 70t-47 50t-80.5 19q-49 0 -80 -19.5t-48 -51t-23.5 -70.5t-6.5 -79v-20zM116 687q0 4 8 4q6 0 7 -4q13 -51 39 -73.5t84 -22.5t84 22.5t39 73.5q1 4 7 4q8 0 8 -4q-4 -73 -38 -107.5t-100 -34.5t-100 34.5t-38 107.5z" />
    <glyph glyph-name="Ohungarumlaut" unicode="&#x150;" horiz-adv-x="741" 
d="M308 762q-3 0 -6.5 2t-3.5 5q0 2 0.5 4.5t5.5 17.5l52 159q2 8 5 10t10 2h41q11 0 11 -8q0 -3 -1 -6t-8 -15l-98 -163q-4 -6 -5 -7t-3 -1zM431 762q-2 0 -5.5 2.5t-3.5 5.5q0 2 1 4t6 10l91 168q4 7 7 8.5t10 1.5h40q11 0 11 -9q0 -4 -1.5 -7t-8.5 -12l-137 -164
q-5 -6 -6.5 -7t-3.5 -1zM371 -14q-73 0 -132.5 25.5t-102 73t-66 114.5t-23.5 150t23.5 150.5t66 115.5t102.5 74.5t133 26.5q72 0 131.5 -25.5t102 -72.5t65.5 -113.5t23 -149.5t-23.5 -151t-66 -116.5t-102 -75t-131.5 -26.5zM372 2q121 0 184.5 87t63.5 258v2
q0 172 -64 261.5t-184 89.5q-123 0 -187 -86.5t-64 -257.5v-1q0 -175 64 -264t187 -89z" />
    <glyph glyph-name="ohungarumlaut" unicode="&#x151;" horiz-adv-x="506" 
d="M190 535q-3 0 -6.5 2t-3.5 5q0 2 0.5 4.5t5.5 17.5l52 159q2 8 5 10t10 2h41q11 0 11 -8q0 -3 -1 -6t-8 -15l-98 -163q-4 -6 -5 -7t-3 -1zM313 535q-2 0 -5.5 2.5t-3.5 5.5q0 2 1 4t6 10l91 168q4 7 7 8.5t10 1.5h40q11 0 11 -9q0 -4 -1.5 -7t-8.5 -12l-137 -164
q-5 -6 -6.5 -7t-3.5 -1zM252 -13q-49 0 -90 18t-70.5 51t-45.5 79.5t-16 104.5q0 57 16 103t45.5 78.5t70.5 50t91 17.5t91 -17.5t70 -50t45.5 -78.5t16.5 -103q0 -58 -16.5 -104.5t-46 -79.5t-70.5 -51t-91 -18zM254 3q51 0 86 26.5t52 71.5q9 23 13.5 54.5t4.5 79.5v19
q0 40 -6 79t-22.5 70t-47 50t-80.5 19q-49 0 -79.5 -19.5t-48 -51t-24 -71t-6.5 -78.5v-20q0 -46 5 -78t13 -54q17 -46 53.5 -71.5t86.5 -25.5z" />
    <glyph glyph-name="OE" unicode="&#x152;" horiz-adv-x="1088" 
d="M47 349q0 84 23.5 151.5t67.5 115t107.5 73.5t142.5 26q29 0 55 -2t51 -5t45.5 -4.5t40.5 -1.5h56.5h48.5t50.5 0.5t61.5 0.5t82.5 0.5t113.5 1.5q6 0 6 -6v-188q0 -4 -9 -4q-8 0 -8 4q0 59 -5.5 94t-24 53t-53.5 23t-95 5h-186q-5 0 -10 -3.5t-5 -11.5v-295q0 -6 6 -6
h73q48 0 77 2.5t44.5 14.5t20.5 38t5 74q0 5 8 5q9 0 9 -5q-1 -40 -1 -72.5v-64.5v-66.5t1 -72.5q0 -5 -9 -5q-8 0 -8 5q0 48 -5 74.5t-20.5 39t-44.5 15t-77 2.5h-73q-6 0 -6 -6v-317q0 -8 5 -11.5t10 -3.5h198q66 0 106 5.5t61 26t28 59.5t8 105q0 5 7 5q9 0 9 -5l-2 -209
q0 -6 -5 -6q-66 1 -114 1.5t-83.5 0.5t-62.5 0.5t-51.5 0.5h-50.5h-60q-33 0 -59.5 -1.5t-58.5 -5.5q-28 -3 -52.5 -4.5t-51.5 -1.5q-78 0 -140.5 25.5t-106 72.5t-67 114t-23.5 150zM389 3q11 0 35.5 1.5t50.5 6t45.5 14t19.5 24.5v600q0 17 -19 27t-44 15t-50 6.5t-37 1.5
q-73 0 -124 -25t-83.5 -70.5t-47 -108.5t-14.5 -139v-1q0 -78 14.5 -142.5t46.5 -111t83 -72.5t124 -26z" />
    <glyph glyph-name="oe" unicode="&#x153;" horiz-adv-x="887" 
d="M30 240q0 56 16 102t45.5 78.5t71 50.5t92.5 18q68 0 117 -33.5t74 -91.5q24 59 74.5 92.5t122.5 33.5q48 0 87.5 -15.5t67 -44t43 -68.5t15.5 -88q0 -6 -5 -6h-365q-6 0 -6 -7v-37q0 -108 48 -162.5t129 -54.5q34 0 59.5 9t45.5 25.5t36 40t30 52.5q2 3 6 3q9 0 9 -7
q-21 -66 -73 -104t-129 -38q-71 0 -121 33t-74 93q-25 -60 -74 -93.5t-118 -33.5q-50 0 -91.5 18.5t-71 51.5t-45.5 79.5t-16 103.5zM114 100q18 -46 54.5 -71.5t87.5 -25.5q52 0 87.5 26.5t52.5 71.5q8 23 13 54.5t5 79.5v19q0 41 -6 80t-23 69.5t-48 49.5t-81 19t-81 -19
t-48.5 -50.5t-24 -70.5t-6.5 -80v-20q0 -46 5 -78t13 -54zM483 289q0 -4 5 -4h296q6 0 6 5v3q0 38 -10 71t-29 57t-47.5 38t-65.5 14t-66 -15t-49 -40t-30 -57.5t-10 -67.5v-4z" />
    <glyph glyph-name="Racute" unicode="&#x154;" horiz-adv-x="656" 
d="M34 7q0 8 5 8l89 2q13 0 13 13v642q0 14 -13 14l-87 1q-5 0 -5 9q0 7 5 7q27 0 46.5 -0.5t35.5 -0.5h29.5h28.5h159q92 0 142.5 -42.5t50.5 -120.5q0 -69 -39 -114t-120 -61v-2q92 -7 131.5 -41t46.5 -102l14 -140q4 -38 22.5 -54t60.5 -16q8 0 15.5 0.5t20.5 2.5
q5 0 5 -8q0 -10 -10 -10q-14 -1 -34.5 -1.5t-36.5 -0.5q-57 0 -82.5 21.5t-30.5 72.5l-11 131q-3 36 -13.5 61.5t-31 42t-52 24t-75.5 7.5h-103q-5 0 -5 -5v-316q0 -15 15 -15l89 -2q5 0 5 -8t-5 -8q-29 1 -49 1.5t-34.5 0.5h-26h-23.5h-26h-28.5t-35 -0.5t-47.5 -0.5
q-5 0 -5 8zM210 368h91q78 0 120.5 37.5t42.5 127.5v3q0 74 -38 112t-106 38h-105q-10 -1 -10 -11v-302q0 -5 5 -5zM373 952q3 7 6.5 8.5t9.5 1.5h41q11 0 11 -9q0 -4 -2 -7t-9 -12l-140 -168q-2 -3 -6 -3q-3 0 -6 2t-3 6z" />
    <glyph glyph-name="racute" unicode="&#x155;" horiz-adv-x="401" 
d="M21 475q33 0 62 0.5t71 2.5q3 0 3 -4v-56.5t-1 -57.5h1q12 41 27.5 65.5t32 38.5t34 18.5t34.5 4.5q45 0 70 -24.5t25 -66.5q0 -46 -32 -46q-14 0 -23 9.5t-9 28.5q0 10 2 19.5t2 17.5q0 17 -11.5 29t-35.5 12q-22 0 -40.5 -12t-32.5 -33.5t-24.5 -50.5t-17.5 -62v-272
q0 -20 15 -20l71 -2q5 0 5 -8q0 -9 -5 -9q-23 1 -38 1.5t-26 1t-22 0.5h-26h-29t-23 -0.5t-24 -1t-33 -1.5q-5 0 -5 9q0 8 5 8l59 2q15 0 15 20v408q0 6 -4 10.5t-11 4.5h-61q-4 0 -4 8t4 8zM167 543l98 181q3 7 6.5 8.5t9.5 1.5h41q11 0 11 -9q0 -4 -2 -7t-9 -12l-140 -168
q-2 -3 -6 -3q-3 0 -6 2t-3 6z" />
    <glyph glyph-name="uni0156" unicode="&#x156;" horiz-adv-x="656" 
d="M34 7q0 8 5 8l89 2q13 0 13 13v642q0 14 -13 14l-87 1q-5 0 -5 9q0 7 5 7q27 0 46.5 -0.5t35.5 -0.5h29.5h28.5h159q92 0 142.5 -42.5t50.5 -120.5q0 -69 -39 -114t-120 -61v-2q92 -7 131.5 -41t46.5 -102l14 -140q4 -38 22.5 -54t60.5 -16q8 0 15.5 0.5t20.5 2.5
q5 0 5 -8q0 -10 -10 -10q-14 -1 -34.5 -1.5t-36.5 -0.5q-57 0 -82.5 21.5t-30.5 72.5l-11 131q-3 36 -13.5 61.5t-31 42t-52 24t-75.5 7.5h-103q-5 0 -5 -5v-316q0 -15 15 -15l89 -2q5 0 5 -8t-5 -8q-29 1 -49 1.5t-34.5 0.5h-26h-23.5h-26h-28.5t-35 -0.5t-47.5 -0.5
q-5 0 -5 8zM210 368h91q78 0 120.5 37.5t42.5 127.5v3q0 74 -38 112t-106 38h-105q-10 -1 -10 -11v-302q0 -5 5 -5zM316 -92q0 20 14 31.5t34 11.5q31 0 49.5 -24t18.5 -64q0 -29 -10 -52.5t-26 -40.5t-35.5 -26.5t-38.5 -9.5q-5 0 -5 8q0 4 1 5t8 3q39 9 60 38t21 59
q0 16 -4.5 28.5t-10.5 19.5h-2q-2 -11 -11 -19t-24 -8q-18 0 -28.5 11.5t-10.5 28.5z" />
    <glyph glyph-name="uni0157" unicode="&#x157;" horiz-adv-x="401" 
d="M17 467q0 8 4 8q33 0 62 0.5t71 2.5q3 0 3 -4v-56.5t-1 -57.5h1q12 41 27.5 65.5t32 38.5t34 18.5t34.5 4.5q45 0 70 -24.5t25 -66.5q0 -46 -32 -46q-14 0 -23 9.5t-9 28.5q0 10 2 19.5t2 17.5q0 17 -11.5 29t-35.5 12q-22 0 -40.5 -12t-32.5 -33.5t-24.5 -50.5
t-17.5 -62v-272q0 -20 15 -20l71 -2q5 0 5 -8q0 -9 -5 -9q-23 1 -38 1.5t-26 1t-22 0.5h-26h-29t-23 -0.5t-24 -1t-33 -1.5q-5 0 -5 9q0 8 5 8l59 2q15 0 15 20v408q0 6 -4 10.5t-11 4.5h-61q-4 0 -4 8zM125 -49q31 0 49.5 -24t18.5 -64q0 -29 -10 -52.5t-26 -40.5
t-35.5 -26.5t-38.5 -9.5q-5 0 -5 8q0 4 1 5t8 3q39 9 60 38t21 59q0 16 -4.5 28.5t-10.5 19.5h-2q-2 -11 -11 -19t-24 -8q-18 0 -28.5 11.5t-10.5 28.5q0 20 14 31.5t34 11.5z" />
    <glyph glyph-name="Rcaron" unicode="&#x158;" horiz-adv-x="656" 
d="M312 755q-5 0 -6.5 1t-5.5 6l-117 161q-5 6 -5.5 7.5t-0.5 3.5q0 3 5 3h7q3 0 4.5 -0.5t5.5 -4.5l128 -119q4 -4 5 -4.5t3 -0.5q1 0 2 0.5t5 5.5l97 118q2 4 4 4.5t4 0.5h6q5 0 5 -3q0 -2 -0.5 -3t-4.5 -7l-122 -162q-4 -5 -6 -6t-6 -1h-7zM609 -8q-57 0 -82.5 21.5
t-30.5 72.5l-11 131q-3 36 -13.5 61.5t-31 42t-52 24t-75.5 7.5h-103q-5 0 -5 -5v-316q0 -15 15 -15l89 -2q5 0 5 -8t-5 -8q-29 1 -49 1.5t-34.5 0.5h-26h-23.5h-26h-28.5t-35 -0.5t-47.5 -0.5q-5 0 -5 8t5 8l89 2q13 0 13 13v642q0 14 -13 14l-87 1q-5 0 -5 9q0 7 5 7
q27 0 46.5 -0.5t35.5 -0.5h29.5h28.5h159q92 0 142.5 -42.5t50.5 -120.5q0 -69 -39 -114t-120 -61v-2q92 -7 131.5 -41t46.5 -102l14 -140q4 -38 22.5 -54t60.5 -16q8 0 15.5 0.5t20.5 2.5q5 0 5 -8q0 -9 -10 -10q-14 -2 -34.5 -2h-36.5zM301 368q78 0 120.5 37.5
t42.5 127.5v3q0 74 -38 112t-106 38h-105q-10 -1 -10 -11v-302q0 -5 5 -5h91z" />
    <glyph glyph-name="rcaron" unicode="&#x159;" horiz-adv-x="401" 
d="M204 527q-5 0 -6.5 1t-5.5 6l-117 161q-5 6 -5.5 7.5t-0.5 3.5q0 3 5 3h7q3 0 4.5 -0.5t5.5 -4.5l128 -119q4 -4 5 -4.5t3 -0.5q1 0 2 0.5t5 5.5l97 118q2 4 4 4.5t4 0.5h6q5 0 5 -3q0 -2 -0.5 -3t-4.5 -7l-122 -162q-4 -5 -6 -6t-6 -1h-7zM23 -3q-5 0 -5 9q0 8 5 8l59 2
q15 0 15 20v408q0 6 -4 10.5t-11 4.5h-61q-4 0 -4 8t4 8q33 0 62 0.5t71 2.5q3 0 3 -4v-56.5t-1 -57.5h1q12 41 27.5 65.5t32 38.5t34 18.5t34.5 4.5q45 0 70 -24.5t25 -66.5q0 -46 -32 -46q-14 0 -23 9.5t-9 28.5q0 10 2 19.5t2 17.5q0 17 -11.5 29t-35.5 12
q-22 0 -40.5 -12t-32.5 -33.5t-24.5 -50.5t-17.5 -62v-272q0 -20 15 -20l71 -2q5 0 5 -8q0 -9 -5 -9q-23 1 -38 1.5t-26 1t-22 0.5h-26h-29t-23 -0.5t-24 -1t-33 -1.5z" />
    <glyph glyph-name="Sacute" unicode="&#x15a;" horiz-adv-x="521" 
d="M49 256q7 0 8 -7q11 -57 19.5 -104t30.5 -76q26 -35 69.5 -50t89.5 -15q89 0 135.5 43t46.5 112q0 35 -12.5 61.5t-35.5 47.5t-57 39.5t-77 36.5q-38 16 -72.5 33.5t-60.5 40.5t-41 53t-15 71q0 36 12.5 67.5t37 55t62 37t87.5 13.5q37 0 78 -7.5t83 -25.5q10 -4 10 -13
l4 -148q0 -7 -8 -7q-9 0 -9 7q-4 39 -12.5 71.5t-26.5 56t-47.5 36.5t-73.5 13q-72 0 -112 -34.5t-40 -92.5q0 -33 12.5 -57t36 -43t55.5 -35t71 -32q41 -17 77 -36.5t62.5 -44t42 -57t15.5 -75.5q0 -44 -15 -81.5t-44.5 -64.5t-72.5 -42t-100 -15q-24 0 -50.5 3t-53.5 8.5
t-53 14t-49 19.5q-6 3 -8 5.5t-2 9.5l-6 201q0 7 9 7zM221 771l98 181q3 7 6.5 8.5t9.5 1.5h41q11 0 11 -9q0 -4 -2 -7t-9 -12l-140 -168q-2 -3 -6 -3q-3 0 -6 2t-3 6z" />
    <glyph glyph-name="sacute" unicode="&#x15b;" horiz-adv-x="398" 
d="M36 174q0 5 8 5t9 -6q2 -51 12 -84t27 -50t48.5 -28t66.5 -11q57 0 93 27t36 77q0 38 -22.5 60t-72.5 42l-58 21q-59 23 -90 54t-31 84q0 61 40 94.5t106 33.5q31 0 61 -7t61 -20q6 -4 6 -11v-108q0 -6 -8 -6q-7 0 -9 7q-3 31 -9.5 54.5t-19.5 40t-35 25t-56 8.5
q-47 0 -73.5 -22.5t-26.5 -62.5q0 -33 20.5 -55.5t70.5 -41.5l47 -18q69 -26 100.5 -58.5t31.5 -84.5q0 -69 -46 -109.5t-123 -40.5q-37 0 -81 7t-79 30q-5 3 -5 8zM162 544l98 181q3 7 6.5 8.5t9.5 1.5h41q11 0 11 -9q0 -4 -2 -7t-9 -12l-140 -168q-2 -3 -6 -3q-3 0 -6 2
t-3 6z" />
    <glyph glyph-name="Scircumflex" unicode="&#x15c;" horiz-adv-x="521" 
d="M273 940q5 0 6.5 -1.5t5.5 -6.5l117 -160q5 -7 5.5 -8t0.5 -3q0 -4 -5 -4h-7q-4 0 -10 5l-128 119q-6 6 -8 6t-7 -6l-97 -119q-5 -5 -9 -5h-5q-6 0 -6 4q0 2 0.5 3t5.5 6l122 163q6 7 12 7h7zM262 -12q-24 0 -50.5 3t-53.5 8.5t-53 14t-49 19.5q-6 3 -8 5.5t-2 9.5
l-6 201q0 7 9 7q7 0 8 -7q11 -57 19.5 -104t30.5 -76q27 -35 70 -50t89 -15q89 0 135.5 43t46.5 112q0 35 -12.5 61.5t-35.5 47.5t-57 39.5t-77 36.5q-38 16 -72.5 33.5t-60.5 40.5t-41 53t-15 71q0 36 12.5 67.5t37 55t62 37t87.5 13.5q37 0 77.5 -8t83.5 -25q10 -4 10 -13
l4 -148q0 -7 -8 -7t-9 7q-8 38 -14.5 70.5t-23.5 55.5q-40 51 -122 51q-72 0 -112 -34.5t-40 -92.5q0 -33 12.5 -57t36 -43t55.5 -35t71 -32q41 -17 77 -36.5t62.5 -44t42 -57t15.5 -75.5q0 -44 -15 -81.5t-44.5 -64.5t-72.5 -42t-100 -15z" />
    <glyph glyph-name="scircumflex" unicode="&#x15d;" horiz-adv-x="398" 
d="M214 713q5 0 6.5 -1.5t5.5 -6.5l117 -160q5 -7 5.5 -8t0.5 -3q0 -4 -5 -4h-7q-4 0 -10 5l-128 119q-6 6 -8 6t-7 -6l-97 -119q-5 -5 -9 -5h-5q-6 0 -6 4q0 2 0.5 3t5.5 6l122 163q6 7 12 7h7zM200 -17q-37 0 -79.5 10t-80.5 27q-5 2 -5 8l1 146q0 5 8 5t9 -6
q2 -51 12 -84t27 -50t48.5 -28t66.5 -11q57 0 93 27t36 77q0 38 -22.5 60t-72.5 42l-58 21q-59 23 -90 54t-31 84q0 61 40 94.5t106 33.5q31 0 61 -7t61 -20q6 -4 6 -11v-108q0 -6 -8 -6q-7 0 -9 7q-3 31 -9.5 54.5t-19.5 40t-35 25t-56 8.5q-47 0 -73.5 -22.5t-26.5 -62.5
q0 -33 20.5 -55.5t70.5 -41.5l47 -18q69 -26 100.5 -58.5t31.5 -84.5q0 -69 -46 -109.5t-123 -40.5z" />
    <glyph glyph-name="Scedilla" unicode="&#x15e;" horiz-adv-x="521" 
d="M49 256q7 0 8 -7q11 -57 19.5 -104t30.5 -76q26 -35 69.5 -50t89.5 -15q89 0 135.5 43t46.5 112q0 35 -12.5 61.5t-35.5 47.5t-57 39.5t-77 36.5q-38 16 -72.5 33.5t-60.5 40.5t-41 53t-15 71q0 36 12.5 67.5t37 55t62 37t87.5 13.5q37 0 78 -7.5t83 -25.5q10 -4 10 -13
l4 -148q0 -7 -8 -7q-9 0 -9 7q-4 39 -12.5 71.5t-26.5 56t-47.5 36.5t-73.5 13q-72 0 -112 -34.5t-40 -92.5q0 -33 12.5 -57t36 -43t55.5 -35t71 -32q41 -17 77 -36.5t62.5 -44t42 -57t15.5 -75.5t-14.5 -80t-42.5 -64t-70 -42.5t-96 -16.5v-61q30 -8 46 -32.5t16 -54.5
q0 -21 -8 -42t-23.5 -38t-39 -27.5t-55.5 -10.5q-5 0 -5 8t5 8q25 0 44 8t31.5 21t18.5 28t6 30q0 18 -8.5 32t-24.5 19h-2q-3 -14 -13.5 -23t-27.5 -9t-28 11.5t-11 28.5q0 18 13 32t42 14h8v58q-47 1 -101 12t-98 33q-6 3 -8 5.5t-2 9.5l-6 201q0 7 9 7z" />
    <glyph glyph-name="scedilla" unicode="&#x15f;" horiz-adv-x="398" 
d="M36 174q0 5 8 5t9 -6q2 -51 12 -84t27 -50t48.5 -28t66.5 -11q57 0 93 27t36 77q0 38 -22.5 60t-72.5 42l-58 21q-59 23 -90 54t-31 84q0 61 40 94.5t106 33.5q31 0 61 -7t61 -20q6 -4 6 -11v-108q0 -6 -8 -6q-7 0 -9 7q-3 31 -9.5 54.5t-19.5 40t-35 25t-56 8.5
q-47 0 -73.5 -22.5t-26.5 -62.5q0 -33 20.5 -55.5t70.5 -41.5l47 -18q69 -26 100.5 -58.5t31.5 -84.5q0 -67 -43.5 -107.5t-116.5 -42.5v-61q30 -8 46 -32.5t16 -54.5q0 -21 -8 -42t-23.5 -38t-39 -27.5t-55.5 -10.5q-5 0 -5 8t5 8q25 0 44 8t31.5 21t18.5 28t6 30
q0 18 -8.5 32t-24.5 19h-2q-3 -14 -13.5 -23t-27.5 -9t-28 11.5t-11 28.5q0 18 13 32t42 14h8v58q-36 1 -77.5 7.5t-75.5 29.5q-5 3 -5 8z" />
    <glyph glyph-name="Scaron" unicode="&#x160;" horiz-adv-x="521" 
d="M258 755q-5 0 -6.5 1t-5.5 6l-117 161q-5 6 -5.5 7.5t-0.5 3.5q0 3 5 3h7q3 0 4.5 -0.5t5.5 -4.5l128 -119q4 -4 5 -4.5t3 -0.5q1 0 2 0.5t5 5.5l97 118q2 4 4 4.5t4 0.5h6q5 0 5 -3q0 -2 -0.5 -3t-4.5 -7l-122 -162q-4 -5 -6 -6t-6 -1h-7zM262 -12q-24 0 -50.5 3
t-53.5 8.5t-53 14t-49 19.5q-6 3 -8 5.5t-2 9.5l-6 201q0 7 9 7q7 0 8 -7q11 -57 19.5 -104t30.5 -76q27 -35 70 -50t89 -15q89 0 135.5 43t46.5 112q0 35 -12.5 61.5t-35.5 47.5t-57 39.5t-77 36.5q-38 16 -72.5 33.5t-60.5 40.5t-41 53t-15 71q0 36 12.5 67.5t37 55t62 37
t87.5 13.5q37 0 77.5 -8t83.5 -25q10 -4 10 -13l4 -148q0 -7 -8 -7t-9 7q-8 38 -14.5 70.5t-23.5 55.5q-40 51 -122 51q-72 0 -112 -34.5t-40 -92.5q0 -33 12.5 -57t36 -43t55.5 -35t71 -32q41 -17 77 -36.5t62.5 -44t42 -57t15.5 -75.5q0 -44 -15 -81.5t-44.5 -64.5
t-72.5 -42t-100 -15z" />
    <glyph glyph-name="scaron" unicode="&#x161;" horiz-adv-x="398" 
d="M199 528q-5 0 -6.5 1t-5.5 6l-117 161q-5 6 -5.5 7.5t-0.5 3.5q0 3 5 3h7q3 0 4.5 -0.5t5.5 -4.5l128 -119q4 -4 5 -4.5t3 -0.5q1 0 2 0.5t5 5.5l97 118q2 4 4 4.5t4 0.5h6q5 0 5 -3q0 -2 -0.5 -3t-4.5 -7l-122 -162q-4 -5 -6 -6t-6 -1h-7zM200 -17q-37 0 -79.5 10
t-80.5 27q-5 2 -5 8l1 146q0 5 8 5t9 -6q2 -51 12 -84t27 -50t48.5 -28t66.5 -11q57 0 93 27t36 77q0 38 -22.5 60t-72.5 42l-58 21q-59 23 -90 54t-31 84q0 61 40 94.5t106 33.5q31 0 61 -7t61 -20q6 -4 6 -11v-108q0 -6 -8 -6q-7 0 -9 7q-3 31 -9.5 54.5t-19.5 40t-35 25
t-56 8.5q-47 0 -73.5 -22.5t-26.5 -62.5q0 -33 20.5 -55.5t70.5 -41.5l47 -18q69 -26 100.5 -58.5t31.5 -84.5q0 -69 -46 -109.5t-123 -40.5z" />
    <glyph glyph-name="uni0162" unicode="&#x162;" horiz-adv-x="619" 
d="M13 497v200q0 7 7 7q52 -1 90 -1.5t70 -0.5h63h68h67.5h62.5t70 0.5t90 1.5q6 0 6 -7v-198q0 -6 -8 -6t-8 6q-4 57 -10 93.5t-24 57.5t-52.5 28.5t-95.5 7.5h-52q-15 0 -15 -14v-641q0 -15 15 -15l89 -2q5 0 5 -8t-5 -8q-50 1 -76.5 1.5t-52.5 0.5v-61q30 -8 46 -32.5
t16 -54.5q0 -21 -8 -42t-23.5 -38t-39 -27.5t-55.5 -10.5q-5 0 -5 8t5 8q25 0 44 8t31.5 21t18.5 28t6 30q0 18 -8.5 32t-24.5 19h-2q-3 -14 -13.5 -23t-27.5 -9t-28 11.5t-11 28.5q0 18 13 32t42 14h8v58h-23.5t-26 -0.5t-33 -1t-45.5 -1.5q-5 0 -5 9q0 8 5 8l92 2
q14 0 14 13v643q0 14 -14 14h-51q-62 0 -97.5 -7.5t-53.5 -28.5t-24.5 -57.5t-9.5 -95.5q0 -5 -8 -5t-8 5z" />
    <glyph glyph-name="uni0163" unicode="&#x163;" horiz-adv-x="356" 
d="M17 467q0 8 4 8h88q6 0 6 6v101q0 3 3 3h56q3 0 3 -3v-101q0 -6 6 -6h115q5 0 5 -8t-5 -8h-116q-5 0 -5 -6v-379q0 -30 15 -48t48 -18q23 0 43.5 9t43.5 29q4 0 7.5 -3.5t3.5 -8.5q-27 -25 -56 -36t-62 -11h-5v-55q30 -8 46 -32.5t16 -54.5q0 -21 -8 -42t-23.5 -38
t-39 -27.5t-55.5 -10.5q-5 0 -5 8t5 8q25 0 44 8t31.5 21t18.5 28t6 30q0 18 -8.5 32t-24.5 19h-2q-3 -14 -13.5 -23t-27.5 -9t-28 11.5t-11 28.5q0 18 13 32t42 14h8v53q-84 9 -84 89v376q0 6 -6 6h-88q-4 0 -4 8z" />
    <glyph glyph-name="Tcaron" unicode="&#x164;" horiz-adv-x="619" 
d="M299 755q-5 0 -6.5 1t-5.5 6l-117 161q-5 6 -5.5 7.5t-0.5 3.5q0 3 5 3h7q3 0 4.5 -0.5t5.5 -4.5l128 -119q4 -4 5 -4.5t3 -0.5q1 0 2 0.5t5 5.5l97 118q2 4 4 4.5t4 0.5h6q5 0 5 -3q0 -2 -0.5 -3t-4.5 -7l-122 -162q-4 -5 -6 -6t-6 -1h-7zM173 -3q-5 0 -5 9q0 8 5 8
l92 2q14 0 14 13v643q0 14 -14 14h-51q-62 0 -97.5 -7.5t-53.5 -28.5t-24.5 -57.5t-9.5 -95.5q0 -5 -8 -5t-8 5v200q0 7 7 7q52 -1 90 -1.5t70 -0.5h63h68h67.5h62.5t70 0.5t90 1.5q6 0 6 -7v-198q0 -6 -8 -6t-8 6q-4 58 -10 94.5t-24 57t-52.5 28t-95.5 7.5h-52
q-15 0 -15 -14v-641q0 -15 15 -15l89 -2q5 0 5 -8t-5 -8q-27 1 -46 1.5t-34 0.5h-28h-27h-27t-27 -0.5t-34.5 -1t-49.5 -1.5z" />
    <glyph glyph-name="tcaron" unicode="&#x165;" horiz-adv-x="363" 
d="M21 475h88q6 0 6 6v101q0 3 3 3h56q3 0 3 -3v-101q0 -6 6 -6h115q5 0 5 -8t-5 -8h-116q-5 0 -5 -6v-379q0 -30 15 -48t48 -18q23 0 43.5 9t43.5 29q4 0 7.5 -3.5t3.5 -8.5q-27 -25 -56 -36t-62 -11q-105 0 -105 90v376q0 6 -6 6h-88q-4 0 -4 8t4 8zM222 544l38 195
q2 6 4 9.5t9 3.5h38q12 0 12 -9q0 -2 -1 -5t-6 -14l-78 -189q-4 -8 -5.5 -9.5t-3.5 -1.5t-5.5 1.5t-3.5 4.5z" />
    <glyph glyph-name="Tbar" unicode="&#x166;" horiz-adv-x="619" 
d="M13 697q0 7 7 7q52 -1 90 -1.5t70 -0.5h63h68h67.5h62.5t70 0.5t90 1.5q6 0 6 -7v-221q0 -5 -8 -5t-8 5q-2 37 -4 64.5t-6 48t-9.5 35t-13.5 25.5q-19 24 -55.5 30.5t-93.5 6.5h-52q-15 0 -15 -14v-286q0 -9 3.5 -12t12.5 -3h116q5 0 5 -8t-5 -8h-116q-16 0 -16 -15v-309
q0 -15 15 -15l89 -2q5 0 5 -8t-5 -8q-27 1 -46 1.5t-34 0.5h-28h-27h-27t-27 -0.5t-34.5 -1t-49.5 -1.5q-5 0 -5 9q0 8 5 8l92 2q14 0 14 13v311q0 15 -16 15h-116q-5 0 -5 8t5 8h116q9 0 12.5 3t3.5 12v286q0 14 -14 14h-51q-57 0 -93 -6t-56 -28q-9 -10 -15.5 -24.5
t-10 -35.5t-6 -50t-4.5 -68q0 -5 -8 -5t-8 5v223z" />
    <glyph glyph-name="tbar" unicode="&#x167;" horiz-adv-x="357" 
d="M17 467q0 8 4 8h89q6 0 6 6v101q0 3 3 3h56q3 0 3 -3v-101q0 -6 5 -6h116q5 0 5 -8t-5 -8h-116q-5 0 -5 -6v-148q0 -6 5 -6h116q5 0 5 -8q0 -9 -5 -9h-116q-5 0 -5 -6v-202q0 -30 15 -48t48 -18q23 0 43.5 9t43.5 29q4 0 7.5 -3.5t3.5 -8.5q-27 -25 -56 -36t-62 -11
q-105 0 -105 90v199q0 6 -6 6h-89q-4 0 -4 9q0 8 4 8h89q6 0 6 6v148q0 6 -6 6h-89q-4 0 -4 8z" />
    <glyph glyph-name="Utilde" unicode="&#x168;" horiz-adv-x="785" 
d="M43 703q32 0 51.5 -0.5t33.5 -0.5h26h28h29h26.5t35 0.5t53.5 1.5q5 0 5 -8t-5 -8l-101 -2q-7 0 -11 -3t-4 -12v-506q0 -42 11.5 -72t36 -48.5t64 -27t95.5 -8.5q108 0 161.5 39.5t53.5 133.5v489q0 9 -5 12t-11 3l-80 2q-6 0 -6 8t6 8q24 -1 39 -1.5t26 -0.5h20h20h19.5
h19t25.5 0.5t38 0.5q5 0 5 -8t-5 -8l-80 -1q-6 0 -10.5 -3t-4.5 -12v-488q0 -102 -58.5 -148t-186.5 -46q-133 0 -195 41t-62 129v512q0 9 -4 12t-11 3l-88 1q-5 0 -5 8t5 8zM242 776q0 60 25.5 93.5t67.5 33.5q31 0 53.5 -15.5t39.5 -32.5q18 -17 36 -29.5t43 -12.5
q29 0 46 22t18 62q1 4 8 4q8 0 8 -4q0 -60 -26 -93.5t-68 -33.5q-31 0 -52.5 15.5t-40.5 32.5q-17 16 -35 29t-43 13q-29 0 -46.5 -22t-18.5 -62q0 -5 -7 -5q-8 0 -8 5z" />
    <glyph glyph-name="utilde" unicode="&#x169;" horiz-adv-x="562" 
d="M17 475q32 0 62.5 0.5t68.5 2.5q4 0 4 -4v-367q0 -50 23 -74.5t74 -24.5q26 0 51.5 11t47 34t38 58t23.5 84v247q0 17 -16 17h-62q-4 0 -4 8t4 8q35 0 67.5 0.5t68.5 2.5q4 0 4 -4v-441q0 -17 15 -17h57q5 0 5 -7q0 -9 -5 -9h-31.5t-27.5 -0.5t-30.5 -1t-40.5 -1.5
q-4 0 -4 4v61t2 65l-1 1q-27 -76 -75 -108t-107 -32q-137 0 -137 120v336q0 6 -4 10.5t-11 4.5h-59q-5 0 -5 8t5 8zM101 549q0 60 25.5 93.5t67.5 33.5q31 0 53.5 -15.5t39.5 -32.5q18 -17 36 -29.5t43 -12.5q29 0 46 22t18 62q1 4 8 4q8 0 8 -4q0 -60 -26 -93.5t-68 -33.5
q-31 0 -52.5 15.5t-40.5 32.5q-17 16 -35 29t-43 13q-29 0 -46.5 -22t-18.5 -62q0 -5 -7 -5q-8 0 -8 5z" />
    <glyph glyph-name="Umacron" unicode="&#x16a;" horiz-adv-x="785" 
d="M43 703q32 0 51.5 -0.5t33.5 -0.5h26h28h29h26.5t35 0.5t53.5 1.5q5 0 5 -8t-5 -8l-101 -2q-7 0 -11 -3t-4 -12v-506q0 -42 11.5 -72t36 -48.5t64 -27t95.5 -8.5q108 0 161.5 39.5t53.5 133.5v489q0 9 -5 12t-11 3l-80 2q-6 0 -6 8t6 8q24 -1 39 -1.5t26 -0.5h20h20h19.5
h19t25.5 0.5t38 0.5q5 0 5 -8t-5 -8l-80 -1q-6 0 -10.5 -3t-4.5 -12v-488q0 -102 -58.5 -148t-186.5 -46q-133 0 -195 41t-62 129v512q0 9 -4 12t-11 3l-88 1q-5 0 -5 8t5 8zM281 823q0 5 5 5h256q5 0 5 -5v-25q0 -5 -5 -5h-256q-5 0 -5 5v25z" />
    <glyph glyph-name="umacron" unicode="&#x16b;" horiz-adv-x="562" 
d="M17 475q32 0 62.5 0.5t68.5 2.5q4 0 4 -4v-367q0 -50 23 -74.5t74 -24.5q26 0 51.5 11t47 34t38 58t23.5 84v247q0 17 -16 17h-62q-4 0 -4 8t4 8q35 0 67.5 0.5t68.5 2.5q4 0 4 -4v-441q0 -17 15 -17h57q5 0 5 -7q0 -9 -5 -9h-31.5t-27.5 -0.5t-30.5 -1t-40.5 -1.5
q-4 0 -4 4v61t2 65l-1 1q-27 -76 -75 -108t-107 -32q-137 0 -137 120v336q0 6 -4 10.5t-11 4.5h-59q-5 0 -5 8t5 8zM140 571v25q0 5 5 5h256q5 0 5 -5v-25q0 -5 -5 -5h-256q-5 0 -5 5z" />
    <glyph glyph-name="Ubreve" unicode="&#x16c;" horiz-adv-x="785" 
d="M43 703q32 0 51.5 -0.5t33.5 -0.5h26h28h29h26.5t35 0.5t53.5 1.5q5 0 5 -8t-5 -8l-101 -2q-7 0 -11 -3t-4 -12v-506q0 -42 11.5 -72t36 -48.5t64 -27t95.5 -8.5q108 0 161.5 39.5t53.5 133.5v489q0 9 -5 12t-11 3l-80 2q-6 0 -6 8t6 8q24 -1 39 -1.5t26 -0.5h20h20h19.5
h19t25.5 0.5t38 0.5q5 0 5 -8t-5 -8l-80 -1q-6 0 -10.5 -3t-4.5 -12v-488q0 -102 -58.5 -148t-186.5 -46q-133 0 -195 41t-62 129v512q0 9 -4 12t-11 3l-88 1q-5 0 -5 8t5 8zM275 914q0 4 8 4q6 0 7 -4q13 -51 39 -73.5t84 -22.5t84 22.5t39 73.5q1 4 7 4q8 0 8 -4
q-4 -73 -38 -107.5t-100 -34.5t-100 34.5t-38 107.5z" />
    <glyph glyph-name="ubreve" unicode="&#x16d;" horiz-adv-x="562" 
d="M17 475q32 0 62.5 0.5t68.5 2.5q4 0 4 -4v-367q0 -50 23 -74.5t74 -24.5q26 0 51.5 11t47 34t38 58t23.5 84v247q0 17 -16 17h-62q-4 0 -4 8t4 8q35 0 67.5 0.5t68.5 2.5q4 0 4 -4v-441q0 -17 15 -17h57q5 0 5 -7q0 -9 -5 -9h-31.5t-27.5 -0.5t-30.5 -1t-40.5 -1.5
q-4 0 -4 4v61t2 65l-1 1q-27 -76 -75 -108t-107 -32q-137 0 -137 120v336q0 6 -4 10.5t-11 4.5h-59q-5 0 -5 8t5 8zM135 687q0 4 8 4q6 0 7 -4q13 -51 39 -73.5t84 -22.5t84 22.5t39 73.5q1 4 7 4q8 0 8 -4q-4 -73 -38 -107.5t-100 -34.5t-100 34.5t-38 107.5z" />
    <glyph glyph-name="Uring" unicode="&#x16e;" horiz-adv-x="785" 
d="M43 703q32 0 51.5 -0.5t33.5 -0.5h26h28h29h26.5t35 0.5t53.5 1.5q5 0 5 -8t-5 -8l-101 -2q-7 0 -11 -3t-4 -12v-506q0 -42 11.5 -72t36 -48.5t64 -27t95.5 -8.5q108 0 161.5 39.5t53.5 133.5v489q0 9 -5 12t-11 3l-80 2q-6 0 -6 8t6 8q24 -1 39 -1.5t26 -0.5h20h20h19.5
h19t25.5 0.5t38 0.5q5 0 5 -8t-5 -8l-80 -1q-6 0 -10.5 -3t-4.5 -12v-488q0 -102 -58.5 -148t-186.5 -46q-133 0 -195 41t-62 129v512q0 9 -4 12t-11 3l-88 1q-5 0 -5 8t5 8zM316 844q0 43 27 69.5t71 26.5q45 0 71.5 -26.5t26.5 -69.5q0 -45 -26.5 -72t-71.5 -27
q-44 0 -71 27t-27 72zM341 843q0 -34 20 -55t53 -21t53 21t20 55t-20 54t-53 20t-53 -20t-20 -54z" />
    <glyph glyph-name="uring" unicode="&#x16f;" horiz-adv-x="562" 
d="M12 467q0 8 5 8q32 0 62.5 0.5t68.5 2.5q4 0 4 -4v-367q0 -50 23 -74.5t74 -24.5q26 0 51.5 11t47 34t38 58t23.5 84v247q0 17 -16 17h-62q-4 0 -4 8t4 8q35 0 67.5 0.5t68.5 2.5q4 0 4 -4v-441q0 -17 15 -17h57q5 0 5 -7q0 -9 -5 -9h-31.5t-27.5 -0.5t-30.5 -1
t-40.5 -1.5q-4 0 -4 4v61t2 65l-1 1q-27 -76 -75 -108t-107 -32q-137 0 -137 120v336q0 6 -4 10.5t-11 4.5h-59q-5 0 -5 8zM175 617q0 43 27 69.5t71 26.5q45 0 71.5 -26.5t26.5 -69.5q0 -45 -26.5 -72t-71.5 -27q-44 0 -71 27t-27 72zM200 616q0 -34 20 -55t53 -21t53 21
t20 55t-20 54t-53 20t-53 -20t-20 -54z" />
    <glyph glyph-name="Uhungarumlaut" unicode="&#x170;" horiz-adv-x="785" 
d="M350 762q-3 0 -6.5 2t-3.5 5q0 2 0.5 4.5t5.5 17.5l52 159q2 8 5 10t10 2h41q11 0 11 -8q0 -3 -1 -6t-8 -15l-98 -163q-4 -6 -5 -7t-3 -1zM473 762q-2 0 -5.5 2.5t-3.5 5.5q0 2 1 4t6 10l91 168q4 7 7 8.5t10 1.5h40q11 0 11 -9q0 -4 -1.5 -7t-8.5 -12l-137 -164
q-5 -6 -6.5 -7t-3.5 -1zM403 -11q-133 0 -195 41t-62 129v512q0 9 -4 12t-11 3l-88 1q-5 0 -5 8t5 8q32 0 51.5 -0.5t33.5 -0.5h26h28h29h26.5t35 0.5t53.5 1.5q5 0 5 -8t-5 -8l-101 -2q-7 0 -11 -3t-4 -12v-506q0 -42 11.5 -72t36 -48.5t64 -27t95.5 -8.5q108 0 161.5 39.5
t53.5 133.5v489q0 9 -5 12t-11 3l-80 2q-6 0 -6 8t6 8q24 -1 39 -1.5t26 -0.5h20h20h19.5h19t25.5 0.5t38 0.5q5 0 5 -8t-5 -8l-80 -1q-6 0 -10.5 -3t-4.5 -12v-488q0 -102 -58.5 -148t-186.5 -46z" />
    <glyph glyph-name="uhungarumlaut" unicode="&#x171;" horiz-adv-x="562" 
d="M209 535q-3 0 -6.5 2t-3.5 5q0 2 0.5 4.5t5.5 17.5l52 159q2 8 5 10t10 2h41q11 0 11 -8q0 -3 -1 -6t-8 -15l-98 -163q-4 -6 -5 -7t-3 -1zM332 535q-2 0 -5.5 2.5t-3.5 5.5q0 2 1 4t6 10l91 168q4 7 7 8.5t10 1.5h40q11 0 11 -9q0 -4 -1.5 -7t-8.5 -12l-137 -164
q-5 -6 -6.5 -7t-3.5 -1zM228 -12q-137 0 -137 120v336q0 6 -4 10.5t-11 4.5h-59q-5 0 -5 8t5 8q32 0 62.5 0.5t68.5 2.5q4 0 4 -4v-367q0 -50 23 -74.5t74 -24.5q26 0 51.5 11t47 34t38 58t23.5 84v247q0 17 -16 17h-62q-4 0 -4 8t4 8q35 0 67.5 0.5t68.5 2.5q4 0 4 -4v-441
q0 -17 15 -17h57q5 0 5 -7q0 -9 -5 -9h-31.5t-27.5 -0.5t-30.5 -1t-40.5 -1.5q-4 0 -4 4v61t2 65l-1 1q-27 -76 -75 -108t-107 -32z" />
    <glyph glyph-name="Uogonek" unicode="&#x172;" horiz-adv-x="785" 
d="M38 695q0 8 5 8q32 0 51.5 -0.5t33.5 -0.5h26h28h29h26.5t35 0.5t53.5 1.5q5 0 5 -8t-5 -8l-101 -2q-7 0 -11 -3t-4 -12v-506q0 -42 11.5 -72t36 -48.5t64 -27t95.5 -8.5q108 0 161.5 39.5t53.5 133.5v489q0 9 -5 12t-11 3l-80 2q-6 0 -6 8t6 8q24 -1 39 -1.5t26 -0.5h20
h20h19.5h19t25.5 0.5t38 0.5q5 0 5 -8t-5 -8l-80 -1q-6 0 -10.5 -3t-4.5 -12v-488q0 -85 -40 -130.5t-126 -58.5q-60 -26 -90 -60.5t-30 -73.5q0 -32 18 -49.5t49 -17.5q13 0 29 3.5t37 13.5q8 -2 8 -12q-23 -14 -48 -19.5t-48 -5.5q-45 0 -73 21t-28 61t30.5 73.5
t99.5 61.5q-8 -1 -16.5 -1h-16.5q-133 0 -195 41t-62 129v512q0 9 -4 12t-11 3l-88 1q-5 0 -5 8z" />
    <glyph glyph-name="uogonek" unicode="&#x173;" horiz-adv-x="562" 
d="M12 467q0 8 5 8q32 0 62.5 0.5t68.5 2.5q4 0 4 -4v-367q0 -50 23 -74.5t74 -24.5q26 0 51.5 11t47 34t38 58t23.5 84v247q0 17 -16 17h-62q-4 0 -4 8t4 8q35 0 67.5 0.5t68.5 2.5q4 0 4 -4v-441q0 -17 15 -17h57q5 0 5 -7q0 -9 -5 -9h-24q-67 -26 -100.5 -62t-33.5 -78
q0 -32 18 -49.5t49 -17.5q13 0 29 3.5t37 13.5q8 -2 8 -12q-23 -14 -48 -19.5t-48 -5.5q-45 0 -73 21t-28 61q0 44 36.5 80t120.5 65q-15 -1 -32 -1t-41 -2q-4 0 -4 4v61t2 65l-1 1q-27 -76 -75 -108t-107 -32q-137 0 -137 120v336q0 6 -4 10.5t-11 4.5h-59q-5 0 -5 8z" />
    <glyph glyph-name="Wcircumflex" unicode="&#x174;" horiz-adv-x="1084" 
d="M433 757q-6 0 -6 4q0 2 0.5 3t5.5 6l122 163q6 7 12 7h7q5 0 6.5 -1.5t5.5 -6.5l117 -160q5 -7 5.5 -8t0.5 -3q0 -4 -5 -4h-7q-4 0 -10 5l-128 119q-6 6 -8 6t-7 -6l-97 -119q-5 -5 -9 -5h-5zM1078 703q5 0 5 -8t-5 -8l-71 -1q-14 0 -17 -12l-210 -679q-2 -7 -8 -7h-6
q-5 0 -7 7l-219 654l-199 -655q-1 -6 -7 -6h-5q-6 0 -8 7l-232 679q-3 7 -6.5 9t-11.5 3l-65 1q-5 0 -5 8t5 8q25 0 40.5 -0.5t27 -0.5h22h23.5h24.5h24.5t34 0.5t53 1.5q6 0 6 -8t-6 -8l-87 -2q-13 0 -13 -7q0 -2 0.5 -3.5t2.5 -6.5l194 -582l177 582q2 5 2 6.5v3.5
q0 7 -12 7l-81 2q-5 0 -5 9q0 7 5 7q28 -1 45.5 -1.5t30 -0.5h23.5h26h26h23t28 0.5t41 1.5q5 0 5 -8t-5 -8l-78 -2q-3 0 -6.5 -0.5t-3.5 -5.5q0 -2 0.5 -3.5t1.5 -5.5l197 -585l179 581q2 7 2 8.5v2.5q0 8 -11 8l-80 2q-5 0 -5 8t5 8q25 -1 40.5 -1.5t26.5 -0.5h19.5h18.5
h19h18t22.5 0.5t31.5 0.5z" />
    <glyph glyph-name="wcircumflex" unicode="&#x175;" horiz-adv-x="784" 
d="M288 529q-6 0 -6 4q0 2 0.5 3t5.5 6l122 163q6 7 12 7h7q5 0 6.5 -1.5t5.5 -6.5l117 -160q5 -7 5.5 -8t0.5 -3q0 -4 -5 -4h-7q-4 0 -10 5l-128 119q-6 6 -8 6t-7 -6l-97 -119q-5 -5 -9 -5h-5zM778 478q4 0 4 -8q0 -9 -4 -9l-46 -2q-12 0 -16 -11l-148 -457q-1 -5 -6 -5
h-6q-6 0 -7 6l-152 438l-147 -438q-2 -6 -7 -6h-6q-4 0 -8 6l-160 455q-3 8 -6.5 10t-11.5 2l-45 2q-5 2 -5 9q0 8 5 8q16 -1 28 -1.5t23 -1t22 -0.5h24h25t21.5 0.5t27 1t40.5 1.5q5 0 5 -8q0 -9 -5 -9l-73 -2q-12 0 -12 -8q0 -4 2 -9l126 -370l125 370q2 5 2 6.5v3.5
q0 7 -11 7l-81 2q-5 1 -5 9t5 8q24 -1 40 -1.5t28.5 -1t24 -0.5h26.5h27.5t24.5 0.5t30 1t44 1.5q5 0 5 -8q0 -7 -5 -9l-75 -2q-12 0 -12 -9q0 -2 0.5 -3.5l1.5 -4.5l124 -370l118 370q2 5 2 9q0 8 -11 8l-78 2q-4 0 -4 9q0 8 4 8q20 -1 33 -1.5t22.5 -1t18 -0.5h20.5
q17 0 31.5 0.5t42.5 2.5z" />
    <glyph glyph-name="Ycircumflex" unicode="&#x176;" horiz-adv-x="600" 
d="M332 940q5 0 6.5 -1.5t5.5 -6.5l117 -160q5 -7 5.5 -8t0.5 -3q0 -4 -5 -4h-7q-4 0 -10 5l-128 119q-6 6 -8 6t-7 -6l-97 -119q-5 -5 -9 -5h-5q-6 0 -6 4q0 2 0.5 3t5.5 6l122 163q6 7 12 7h7zM169 -3q-5 0 -5 8q0 9 5 9l91 2q6 1 9.5 3.5t3.5 10.5v323q0 8 -1 13t-6 13
l-175 296q-5 7 -8 9t-11 2l-66 1q-5 0 -5 8q0 9 5 9q23 -1 38.5 -1.5t28 -0.5h23.5h24h25h25t33.5 0.5t50.5 1.5q5 0 5 -7q0 -9 -5 -9l-74 -2q-15 0 -15 -9q0 -2 4 -10l158 -272l153 274q4 8 4 10q0 7 -12 7l-76 2q-5 0 -5 9q0 7 5 7q25 -1 40.5 -1.5t26 -0.5h19h18.5h21
h18.5t22.5 0.5t32 0.5q5 0 5 -8t-5 -8l-73 -1q-8 0 -11.5 -3t-7.5 -9l-167 -296v-348q0 -8 4 -10.5t10 -3.5l90 -2q5 0 5 -8q0 -9 -5 -9q-30 1 -48.5 1.5t-32 1t-25.5 0.5h-29h-28t-25.5 -0.5t-32.5 -1t-49 -1.5z" />
    <glyph glyph-name="ycircumflex" unicode="&#x177;" horiz-adv-x="517" 
d="M137 530q-6 0 -6 4q0 2 0.5 3t5.5 6l122 163q6 7 12 7h7q5 0 6.5 -1.5t5.5 -6.5l117 -160q5 -7 5.5 -8t0.5 -3q0 -4 -5 -4h-7q-4 0 -10 5l-128 119q-6 6 -8 6t-7 -6l-97 -119q-5 -5 -9 -5h-5zM510 478q5 0 5 -8t-5 -9l-52 -2q-7 0 -11.5 -2t-6.5 -10l-199 -588
q-17 -51 -41.5 -74t-66.5 -23q-40 0 -63 18.5t-23 49.5q0 19 9.5 28.5t24.5 9.5q14 0 23 -9.5t10 -32.5q0 -24 9 -34.5t27 -10.5q47 0 75 82l43 126l-188 458q-5 12 -17 12l-57 2q-5 2 -5 9q0 8 5 8q25 -1 40.5 -1.5t26.5 -1t21 -0.5h23h25t23 0.5t27 1t39 1.5q5 0 5 -8
q0 -7 -5 -9l-73 -2q-13 0 -13 -9q0 -1 3 -10l147 -370l125 368q2 6 2.5 8.5t0.5 4.5q0 5 -3.5 6.5t-8.5 1.5l-79 2q-4 1 -4 9t4 8q20 -1 33.5 -1.5t24 -1t19.5 -0.5h21q18 0 33 0.5t47 2.5z" />
    <glyph glyph-name="Ydieresis" unicode="&#x178;" horiz-adv-x="600" 
d="M6 704q23 -1 38.5 -1.5t28 -0.5h23.5h24h25h25t33.5 0.5t50.5 1.5q5 0 5 -7q0 -9 -5 -9l-74 -2q-15 0 -15 -9q0 -2 4 -10l158 -272l153 274q4 8 4 10q0 7 -12 7l-76 2q-5 0 -5 9q0 7 5 7q25 -1 40.5 -1.5t26 -0.5h19h18.5h21h18.5t22.5 0.5t32 0.5q5 0 5 -8t-5 -8l-73 -1
q-8 0 -11.5 -3t-7.5 -9l-167 -296v-348q0 -8 4 -10.5t10 -3.5l90 -2q5 0 5 -8q0 -9 -5 -9q-30 1 -48.5 1.5t-32 1t-25.5 0.5h-29h-28t-25.5 -0.5t-32.5 -1t-49 -1.5q-5 0 -5 8q0 9 5 9l91 2q6 1 9.5 3.5t3.5 10.5v323q0 8 -1 13t-6 13l-175 296q-5 7 -8 9t-11 2l-66 1
q-5 0 -5 8q0 9 5 9zM378 819q0 18 11 29t28 11q18 0 29 -11t11 -29t-11 -29.5t-29 -11.5q-17 0 -28 11.5t-11 29.5zM190 819q0 18 11 29t28 11q18 0 29 -11t11 -29t-11 -29.5t-29 -11.5q-17 0 -28 11.5t-11 29.5z" />
    <glyph glyph-name="Zacute" unicode="&#x179;" horiz-adv-x="652" 
d="M38 7l440 678q-52 1 -108 1h-116t-92 -7.5t-51 -29.5q-9 -10 -15 -27.5t-9.5 -40t-5.5 -48t-2 -51.5q0 -5 -9 -5q-8 0 -8 5l1 215q0 7 6 7q68 -1 124 -1.5t119 -0.5q60 0 116 0.5t123 1.5q6 -2 6 -10l-439 -676q61 -2 125.5 -2h130.5q72 0 111 8.5t61 31.5
q21 23 33.5 74.5t17.5 115.5q0 5 8 5q9 0 9 -5l-13 -242q0 -6 -6 -6q-38 1 -72 1.5t-67 0.5h-67.5h-73.5h-136t-136 -2q-5 3 -5 9zM369 952q3 7 6.5 8.5t9.5 1.5h41q11 0 11 -9q0 -4 -2 -7t-9 -12l-140 -168q-2 -3 -6 -3q-3 0 -6 2t-3 6z" />
    <glyph glyph-name="zacute" unicode="&#x17a;" horiz-adv-x="452" 
d="M336 457q-32 1 -64 1h-52q-52 0 -82.5 -3t-48 -16.5t-25 -42t-12.5 -80.5q-1 -5 -8 -5q-9 0 -9 5l7 154q0 6 5 6q42 0 67.5 -0.5t44 -0.5h35h40.5h84t90 1q4 -1 4 -7l-315 -452q25 0 44.5 -0.5t36.5 -0.5h31.5h29.5q55 0 87.5 4.5t50.5 20.5t25 47.5t12 85.5q1 4 9 4
t8 -5l-7 -169q0 -6 -7 -6q-46 1 -73 1.5t-46.5 0.5h-36.5h-42h-44.5h-39.5t-45.5 -0.5t-63.5 -1.5q-6 2 -6 9zM276 724q3 7 6.5 8.5t9.5 1.5h41q11 0 11 -9q0 -4 -2 -7t-9 -12l-140 -168q-2 -3 -6 -3q-3 0 -6 2t-3 6z" />
    <glyph glyph-name="Zdotaccent" unicode="&#x17b;" horiz-adv-x="652" 
d="M478 685q-52 1 -108 1h-116t-92 -7.5t-51 -29.5q-9 -10 -15 -27.5t-9.5 -40t-5.5 -48t-2 -51.5q0 -5 -9 -5q-8 0 -8 5l1 215q0 7 6 7q68 -1 124 -1.5t119 -0.5q60 0 116 0.5t123 1.5q6 -2 6 -10l-439 -676q61 -2 125.5 -2h130.5q72 0 111 8.5t61 31.5q21 23 33.5 74.5
t17.5 115.5q0 5 8 5q9 0 9 -5l-13 -242q0 -6 -6 -6q-38 1 -72 1.5t-67 0.5h-67.5h-73.5h-136t-136 -2q-5 3 -5 9zM275 828q0 18 11 29t28 11q18 0 29 -11t11 -29t-11 -29t-29 -11q-17 0 -28 11t-11 29z" />
    <glyph glyph-name="zdotaccent" unicode="&#x17c;" horiz-adv-x="452" 
d="M336 457q-32 1 -64 1h-52q-52 0 -82.5 -3t-48 -16.5t-25 -42t-12.5 -80.5q-1 -5 -8 -5q-9 0 -9 5l7 154q0 6 5 6q42 0 67.5 -0.5t44 -0.5h35h40.5h84t90 1q4 -1 4 -7l-315 -452q25 0 44.5 -0.5t36.5 -0.5h31.5h29.5q55 0 87.5 4.5t50.5 20.5t25 47.5t12 85.5q1 4 9 4
t8 -5l-7 -169q0 -6 -7 -6q-46 1 -73 1.5t-46.5 0.5h-36.5h-42h-44.5h-39.5t-45.5 -0.5t-63.5 -1.5q-6 2 -6 9zM182 638q0 18 11 29t28 11q18 0 29 -11t11 -29t-11 -29.5t-29 -11.5q-17 0 -28 11.5t-11 29.5z" />
    <glyph glyph-name="Zcaron" unicode="&#x17d;" horiz-adv-x="652" 
d="M308 755q-5 0 -6.5 1t-5.5 6l-117 161q-5 6 -5.5 7.5t-0.5 3.5q0 3 5 3h7q3 0 4.5 -0.5t5.5 -4.5l128 -119q4 -4 5 -4.5t3 -0.5q1 0 2 0.5t5 5.5l97 118q2 4 4 4.5t4 0.5h6q5 0 5 -3q0 -2 -0.5 -3t-4.5 -7l-122 -162q-4 -5 -6 -6t-6 -1h-7zM43 -2q-5 3 -5 9l440 678
q-52 1 -108 1h-116t-92 -7.5t-51 -29.5q-9 -10 -15 -27.5t-9.5 -40t-5.5 -48t-2 -51.5q0 -5 -9 -5q-8 0 -8 5l1 215q0 7 6 7q68 -1 124 -1.5t119 -0.5q60 0 116 0.5t123 1.5q6 -2 6 -10l-439 -676q61 -2 125.5 -2h130.5q72 0 111.5 8.5t60.5 31.5t33.5 74.5t17.5 115.5
q0 5 8 5q9 0 9 -5l-13 -242q0 -6 -6 -6q-38 1 -72 1.5t-67 0.5h-67.5h-73.5h-136t-136 -2z" />
    <glyph glyph-name="zcaron" unicode="&#x17e;" horiz-adv-x="452" 
d="M215 527q-5 0 -6.5 1t-5.5 6l-117 161q-5 6 -5.5 7.5t-0.5 3.5q0 3 5 3h7q3 0 4.5 -0.5t5.5 -4.5l128 -119q4 -4 5 -4.5t3 -0.5q1 0 2 0.5t5 5.5l97 118q2 4 4 4.5t4 0.5h6q5 0 5 -3q0 -2 -0.5 -3t-4.5 -7l-122 -162q-4 -5 -6 -6t-6 -1h-7zM26 -2q-6 2 -6 9l316 450
q-32 1 -64 1h-52q-52 0 -82.5 -3t-48 -16.5t-25 -42.5t-12.5 -80q-1 -5 -8 -5q-9 0 -9 5l7 154q0 6 5 6q42 0 67.5 -0.5t44 -0.5h35h40.5h84t90 1q4 -1 4 -7l-315 -452q25 0 44.5 -0.5t36.5 -0.5h31.5h29.5q55 0 87.5 4.5t50.5 20.5t25 47.5t12 85.5q1 4 9 4t8 -5l-7 -169
q0 -6 -7 -6q-46 1 -73 1.5t-46.5 0.5h-36.5h-42h-44.5h-39.5t-45.5 -0.5t-63.5 -1.5z" />
    <glyph glyph-name="longs" unicode="&#x17f;" horiz-adv-x="309" 
d="M17 6q0 8 5 8l61 2q14 0 14 14v565q0 70 35.5 100t105.5 30q63 0 97 -25.5t34 -70.5q0 -44 -34 -44q-15 0 -24.5 8.5t-9.5 25.5q0 11 2.5 19.5t2.5 19.5q0 24 -18 37.5t-51 13.5q-42 0 -60.5 -21t-18.5 -72v-586q0 -14 14 -14l75 -2q5 0 5 -8t-5 -8q-28 1 -45.5 1.5
t-29.5 0.5h-21h-21h-20.5t-20 -0.5t-27 -1t-40.5 -1.5q-5 0 -5 9z" />
    <glyph glyph-name="uni018F" unicode="&#x18f;" horiz-adv-x="716" 
d="M355 -13q-70 0 -126.5 23t-96.5 64t-61.5 98.5t-23.5 127.5q0 8 9 8h530q9 0 9 11v64q0 149 -67.5 231t-191.5 82q-45 0 -85 -12.5t-74 -36.5t-59 -58t-40 -76q-2 -8 -4 -9.5t-4 -1.5q-10 0 -10 7q0 2 0.5 3t2.5 9q35 92 109 143t176 51q74 0 133.5 -25t101 -71.5
t64 -113.5t22.5 -150q0 -84 -22 -152t-63 -116t-99 -74t-130 -26zM355 3q45 0 80 12.5t61 34.5q24 20 42 47t30 57.5t18 61.5t6 58v11q0 7 -8 7h-450q-8 0 -8 -8v-9q0 -131 61 -201.5t168 -70.5z" />
    <glyph glyph-name="florin" unicode="&#x192;" horiz-adv-x="443" 
d="M-78 -68q0 20 10.5 30t24.5 10q16 0 25 -9.5t9 -25.5q0 -15 -9.5 -24.5t-25.5 -12.5q17 -26 55 -26q32 0 52 27t30 96l50 349h-118q-6 0 -6 8t6 8h120l8 58q11 81 26.5 138t36 92.5t46 52t57.5 16.5q47 0 68.5 -23.5t21.5 -50.5q0 -20 -11 -30t-25 -10q-15 0 -24 9.5
t-9 25.5q0 15 9.5 24.5t25.5 12.5q-17 26 -55 26q-32 0 -52 -27t-30 -96l-31 -218h119q5 0 5 -7q0 -9 -5 -9h-121l-27 -190q-12 -81 -27 -137.5t-35.5 -92t-46 -52t-57.5 -16.5q-47 0 -68.5 23.5t-21.5 50.5z" />
    <glyph glyph-name="Aringacute" unicode="&#x1fa;" horiz-adv-x="643" 
d="M1 7q0 8 5 8l74 1q8 0 12 3.5t6 9.5l223 681q2 6 7 6h5q4 0 7 -7l218 -679q2 -8 6 -10t17 -3l55 -2q6 0 6 -8t-6 -8q-25 0 -41 0.5t-27.5 0.5h-20.5h-21h-22h-23.5t-33 -0.5t-52.5 -1.5q-5 0 -5 8t5 8l85 2q13 1 13 10q0 4 -2 9l-63 200q-2 5 -5 5h-235q-3 0 -5 -5
l-66 -202q-2 -6 -2 -8q0 -9 12 -9l81 -2q5 0 5 -8t-5 -8q-27 1 -43.5 1.5t-27.5 0.5h-18.5h-16.5h-14h-17.5t-25.5 -0.5t-39 -0.5q-5 0 -5 8zM195 256h220q5 0 5 5v2.5t-2 6.5l-111 349l-114 -352q-2 -5 -2 -7q0 -4 4 -4zM329 940q45 0 71.5 -26.5t26.5 -69.5
q0 -45 -26.5 -72t-71.5 -27q-44 0 -71 27t-27 72q0 43 27 69.5t71 26.5zM256 843q0 -34 20 -55t53 -21t53 21t20 55t-20 54t-53 20t-53 -20t-20 -54zM385 1156q3 7 6.5 8.5t9.5 1.5h41q11 0 11 -9q0 -4 -2 -7t-9 -12l-140 -168q-2 -3 -6 -3q-3 0 -6 2t-3 6z" />
    <glyph glyph-name="aringacute" unicode="&#x1fb;" horiz-adv-x="499" 
d="M171 267q59 9 96.5 18t66.5 25v55q0 52 -24 80t-83 28q-55 0 -78.5 -21.5t-23.5 -46.5q0 -8 1.5 -12.5t3.5 -8.5t3.5 -8t1.5 -11q0 -14 -9 -22t-23 -8q-33 0 -33 35q0 54 43.5 86.5t121.5 32.5q160 0 160 -140v-275q0 -34 10 -48t30 -14q15 0 26.5 6t24.5 18q9 -2 9 -13
q-17 -17 -36 -24.5t-44 -7.5q-38 0 -58.5 17t-21.5 55v46h-2q-10 -26 -23.5 -48t-33 -37.5t-45.5 -24.5t-61 -9q-63 0 -97.5 34.5t-34.5 104.5q0 35 9 59.5t26 40.5t42 25t56 13zM101 132q0 -33 7 -56t19 -37t28.5 -20t35.5 -6q39 0 66.5 18t44.5 46t25 62.5t8 67.5v82l-2 2
q-26 -13 -57.5 -20t-65.5 -12q-30 -6 -50.5 -14.5t-33.5 -22.5t-19 -36t-6 -54zM138 617q0 43 27 69.5t71 26.5q45 0 71.5 -26.5t26.5 -69.5q0 -45 -26.5 -72t-71.5 -27q-44 0 -71 27t-27 72zM236 540q33 0 53 21t20 55t-20 54t-53 20t-53 -20t-20 -54t20 -55t53 -21z
M291 930q3 7 6.5 8.5t9.5 1.5h41q11 0 11 -9q0 -4 -2 -7t-9 -12l-140 -168q-2 -3 -6 -3q-3 0 -6 2t-3 6z" />
    <glyph glyph-name="AEacute" unicode="&#x1fc;" horiz-adv-x="1044" 
d="M1 6q0 7 5 7l78 2q8 0 11.5 3.5t7.5 9.5l385 635q4 7 4 12t-2 7.5t-10 2.5l-81 3q-4 0 -4 8t4 8q30 -1 49 -1.5t32.5 -0.5h24h23.5h60h50.5t51.5 0.5t62.5 0.5t83 0.5t113.5 1.5q6 0 6 -6v-188q0 -4 -8 -4t-8 4q-1 59 -6.5 94t-23.5 53t-53 23t-95 5h-187q-5 0 -9.5 -3.5
t-4.5 -11.5v-295q0 -6 6 -6h72q48 0 77.5 2.5t45 14.5t20.5 38t5 74q0 5 8 5t8 -5q-1 -40 -1 -72.5v-64.5v-66.5t1 -72.5q0 -5 -8 -5t-8 5q0 48 -5.5 74.5t-21 39t-44.5 15t-77 2.5h-72q-6 0 -6 -6v-317q0 -8 4.5 -11.5t9.5 -3.5h198q67 0 107 5.5t61 25.5t27.5 59t7.5 106
q0 5 8 5t8 -5l-1 -209q0 -6 -6 -6q-99 1 -159 1.5t-102.5 1t-80 0.5h-91.5h-38t-32.5 -0.5t-36.5 -1t-49 -1.5q-4 0 -4 8t4 8l87 3q5 0 9.5 4t4.5 10v253q0 9 -9 9h-201q-4 0 -7 -6l-152 -250q-4 -7 -4 -12q0 -9 15 -9l80 -1q6 0 6 -8t-6 -8q-28 1 -45.5 1.5t-29 0.5h-19.5
h-16q-17 0 -37.5 -0.5t-64.5 -2.5q-5 0 -5 9zM300 308h187q9 0 9 9v324l-2 1l-196 -323l-2.5 -5t-0.5 -2q0 -4 5 -4zM640 952q3 7 6.5 8.5t9.5 1.5h41q11 0 11 -9q0 -4 -2 -7t-9 -12l-140 -168q-2 -3 -6 -3q-3 0 -6 2t-3 6z" />
    <glyph glyph-name="aeacute" unicode="&#x1fd;" horiz-adv-x="808" 
d="M181 267q17 2 37.5 5t41 7.5t40 11.5t33.5 16v59q0 51 -24 78.5t-81 27.5q-54 0 -77 -21t-23 -47q0 -7 1.5 -12t3 -9.5l3 -9t1.5 -11.5q0 -30 -34 -30q-33 0 -33 36q0 55 42.5 87.5t121.5 32.5q124 0 147 -92q29 45 75.5 69.5t107.5 24.5q48 0 87.5 -15.5t67 -44
t43 -68.5t16.5 -88q0 -6 -6 -6h-364q-6 0 -6 -7v-36q0 -108 47.5 -163t128.5 -55q35 0 60.5 9t45.5 25.5t35.5 40t29.5 52.5q2 3 6 3q10 0 10 -7q-22 -66 -74 -104t-128 -38q-82 0 -139 42.5t-78 120.5h-1q-12 -78 -54.5 -119t-115.5 -41q-66 0 -101.5 33.5t-35.5 101.5
q0 38 9.5 63.5t28 41t45 24t60.5 12.5zM193 14q68 0 104.5 51t36.5 139v81l-2 2q-24 -13 -57 -20t-66 -12q-55 -10 -80.5 -37t-25.5 -86q0 -66 25.5 -92t64.5 -26zM404 293v-4q0 -4 6 -4h295q6 0 6 5v3q0 38 -9.5 71t-29 57t-47.5 38t-66 14q-37 0 -66 -15t-49 -40
t-30 -57.5t-10 -67.5zM456 725q3 7 6.5 8.5t9.5 1.5h41q11 0 11 -9q0 -4 -2 -7t-9 -12l-140 -168q-2 -3 -6 -3q-3 0 -6 2t-3 6z" />
    <glyph glyph-name="Oslashacute" unicode="&#x1fe;" horiz-adv-x="749" 
d="M47 349q0 83 23.5 150.5t66 115.5t102.5 74.5t133 26.5q72 0 131.5 -25t101.5 -73l72 80q3 3 4 3.5t3 0.5h14q4 0 4 -2t-1 -3.5t-7 -7.5l-77 -85q37 -47 57 -109.5t20 -139.5q0 -83 -23.5 -151t-66 -116.5t-102 -75t-131.5 -26.5q-69 0 -126.5 23t-100.5 67l-64 -72
q-4 -4 -7 -4h-15q-3 0 -3 2t1 3.5t6 7.5l69 77q-40 48 -62 113t-22 146zM164 127l409 455q-64 118 -201 118q-123 0 -187 -86.5t-64 -257.5v-1q0 -140 43 -228zM372 2q121 0 184.5 87t63.5 258v2q0 130 -38 215l-408 -455q63 -107 198 -107zM329 771l98 181q3 7 6.5 8.5
t9.5 1.5h41q11 0 11 -9q0 -4 -2 -7t-9 -12l-140 -168q-2 -3 -6 -3q-3 0 -6 2t-3 6z" />
    <glyph glyph-name="oslashacute" unicode="&#x1ff;" horiz-adv-x="507" 
d="M253 489q96 0 156 -62l38 44q4 3 5 3.5t3 0.5h14q3 0 3 -2t-1 -3t-7 -8l-43 -49q26 -32 40.5 -75.5t14.5 -97.5q0 -58 -16.5 -104.5t-46 -79.5t-70.5 -51t-91 -18q-94 0 -152 60l-37 -42q-3 -4 -4 -4.5t-3 -0.5h-14q-4 0 -4 2t1 3.5t7 7.5l42 47q-28 33 -43 78.5
t-15 101.5q0 57 16 103t45.5 78.5t70.5 50t91 17.5zM96 252v-20q0 -46 3.5 -78.5t14.5 -53.5l3 -6l267 305q-21 38 -54.5 55.5t-75.5 17.5q-49 0 -80 -19.5t-48 -51t-23.5 -70.5t-6.5 -79zM254 3q51 0 86 26.5t52 71.5q8 23 13 54.5t5 79.5v19q0 42 -4.5 72.5t-12.5 53.5v1
l-268 -305q20 -35 53 -54t76 -19zM309 725q3 7 6.5 8.5t9.5 1.5h41q11 0 11 -9q0 -4 -2 -7t-9 -12l-140 -168q-2 -3 -6 -3q-3 0 -6 2t-3 6z" />
    <glyph glyph-name="uni0218" unicode="&#x218;" horiz-adv-x="521" 
d="M40 249q0 7 9 7q7 0 8 -7q11 -57 19.5 -104t30.5 -76q26 -35 69.5 -50t89.5 -15q89 0 135.5 43t46.5 112q0 35 -12.5 61.5t-35.5 47.5t-57 39.5t-77 36.5q-38 16 -72.5 33.5t-60.5 40.5t-41 53t-15 71q0 36 12.5 67.5t37 55t62 37t87.5 13.5q37 0 78 -7.5t83 -25.5
q10 -4 10 -13l4 -148q0 -7 -8 -7q-9 0 -9 7q-4 39 -12.5 71.5t-26.5 56t-47.5 36.5t-73.5 13q-72 0 -112 -34.5t-40 -92.5q0 -33 12.5 -57t36 -43t55.5 -35t71 -32q41 -17 77 -36.5t62.5 -44t42 -57t15.5 -75.5q0 -44 -15 -81.5t-44.5 -64.5t-72.5 -42t-100 -15
q-24 0 -50.5 3t-53.5 8.5t-53 14t-49 19.5q-6 3 -8 5.5t-2 9.5zM256 -61q31 0 49.5 -24t18.5 -64q0 -29 -10 -52.5t-26 -40.5t-35.5 -26.5t-38.5 -9.5q-5 0 -5 8q0 4 1 5t8 3q39 9 60 38t21 59q0 16 -4.5 28.5t-10.5 19.5h-2q-2 -11 -11 -19t-24 -8q-18 0 -28.5 11.5
t-10.5 28.5q0 20 14 31.5t34 11.5z" />
    <glyph glyph-name="uni0219" unicode="&#x219;" horiz-adv-x="398" 
d="M36 174q0 5 8 5t9 -6q2 -51 12 -84t27 -50t48.5 -28t66.5 -11q57 0 93 27t36 77q0 38 -22.5 60t-72.5 42l-58 21q-59 23 -90 54t-31 84q0 61 40 94.5t106 33.5q31 0 61 -7t61 -20q6 -4 6 -11v-108q0 -6 -8 -6q-7 0 -9 7q-3 31 -9.5 54.5t-19.5 40t-35 25t-56 8.5
q-47 0 -73.5 -22.5t-26.5 -62.5q0 -33 20.5 -55.5t70.5 -41.5l47 -18q69 -26 100.5 -58.5t31.5 -84.5q0 -69 -46 -109.5t-123 -40.5q-37 0 -81 7t-79 30q-5 3 -5 8zM194 -66q31 0 49.5 -24t18.5 -64q0 -29 -10 -52.5t-26 -40.5t-35.5 -26.5t-38.5 -9.5q-5 0 -5 8q0 4 1 5
t8 3q39 9 60 38t21 59q0 16 -4.5 28.5t-10.5 19.5h-2q-2 -11 -11 -19t-24 -8q-18 0 -28.5 11.5t-10.5 28.5q0 20 14 31.5t34 11.5z" />
    <glyph glyph-name="uni021A" unicode="&#x21a;" horiz-adv-x="619" 
d="M13 497v200q0 7 7 7q52 -1 90 -1.5t70 -0.5h63h68h67.5h62.5t70 0.5t90 1.5q6 0 6 -7v-198q0 -6 -8 -6t-8 6q-4 57 -10 93.5t-24 57.5t-52.5 28.5t-95.5 7.5h-52q-15 0 -15 -14v-641q0 -15 15 -15l89 -2q5 0 5 -8t-5 -8q-27 1 -46 1.5t-34 0.5h-28h-27h-27t-27 -0.5
t-34.5 -1t-49.5 -1.5q-5 0 -5 9q0 8 5 8l92 2q14 0 14 13v643q0 14 -14 14h-51q-62 0 -97.5 -7.5t-53.5 -28.5t-24.5 -57.5t-9.5 -95.5q0 -5 -8 -5t-8 5zM254 -92q0 20 14 31.5t34 11.5q31 0 49.5 -24t18.5 -64q0 -29 -10 -52.5t-26 -40.5t-35.5 -26.5t-38.5 -9.5q-5 0 -5 8
q0 4 1 5t8 3q39 9 60 38t21 59q0 16 -4.5 28.5t-10.5 19.5h-2q-2 -11 -11 -19t-24 -8q-18 0 -28.5 11.5t-10.5 28.5z" />
    <glyph glyph-name="uni021B" unicode="&#x21b;" horiz-adv-x="356" 
d="M21 475h88q6 0 6 6v101q0 3 3 3h56q3 0 3 -3v-101q0 -6 6 -6h115q5 0 5 -8t-5 -8h-116q-5 0 -5 -6v-379q0 -30 15 -48t48 -18q23 0 43.5 9t43.5 29q4 0 7.5 -3.5t3.5 -8.5q-27 -25 -56 -36t-62 -11q-105 0 -105 90v376q0 6 -6 6h-88q-4 0 -4 8t4 8zM153 -99q0 20 14 31.5
t34 11.5q31 0 49.5 -24t18.5 -64q0 -29 -10 -52.5t-26 -40.5t-35.5 -26.5t-38.5 -9.5q-5 0 -5 8q0 4 1 5t8 3q39 9 60 38t21 59q0 16 -4.5 28.5t-10.5 19.5h-2q-2 -11 -11 -19t-24 -8q-18 0 -28.5 11.5t-10.5 28.5z" />
    <glyph glyph-name="uni0237" unicode="&#x237;" horiz-adv-x="247" 
d="M-13 -226q0 3 6 5q29 12 49 23t32 27.5t17.5 40.5t5.5 61v248t-1 264q-2 15 -13 15h-87q-4 0 -4 8t4 8h78t77 2q6 0 6 -3v-554q0 -33 -8.5 -57t-28 -41.5t-50.5 -31t-76 -26.5q-2 0 -4.5 3.5t-2.5 7.5z" />
    <glyph glyph-name="uni0259" unicode="&#x259;" 
d="M37 207h360q6 0 6 7v36q0 108 -47.5 163t-126.5 55q-62 0 -105.5 -35t-63.5 -92q-3 -3 -6 -3q-10 0 -10 7q22 66 74 104t127 38q50 0 91.5 -17t71 -49t46 -78.5t16.5 -105.5q0 -57 -16 -103.5t-45.5 -79.5t-71.5 -51t-93 -18q-48 0 -87 16t-67 44.5t-43.5 68t-15.5 87.5
q0 6 6 6zM98 182q0 -39 10 -72t28.5 -57t46.5 -37.5t64 -13.5q38 0 66.5 15t48 40t29.5 58t10 68v3q0 5 -6 5h-292q-5 0 -5 -6v-3z" />
    <glyph glyph-name="circumflex" unicode="&#x2c6;" 
d="M259 713q5 0 6.5 -1.5t5.5 -6.5l117 -160q5 -7 5.5 -8t0.5 -3q0 -4 -5 -4h-7q-4 0 -10 5l-128 119q-6 6 -8 6t-7 -6l-97 -119q-5 -5 -9 -5h-5q-6 0 -6 4q0 2 0.5 3t5.5 6l122 163q6 7 12 7h7z" />
    <glyph glyph-name="caron" unicode="&#x2c7;" 
d="M244 528q-5 0 -6.5 1t-5.5 6l-117 161q-5 6 -5.5 7.5t-0.5 3.5q0 3 5 3h7q3 0 4.5 -0.5t5.5 -4.5l128 -119q4 -4 5 -4.5t3 -0.5q1 0 2 0.5t5 5.5l97 118q2 4 4 4.5t4 0.5h6q5 0 5 -3q0 -2 -0.5 -3t-4.5 -7l-122 -162q-4 -5 -6 -6t-6 -1h-7z" />
    <glyph glyph-name="uni02C9" unicode="&#x2c9;" 
d="M122 601h256q5 0 5 -5v-25q0 -5 -5 -5h-256q-5 0 -5 5v25q0 5 5 5z" />
    <glyph glyph-name="breve" unicode="&#x2d8;" 
d="M250 545q-66 0 -100 34.5t-38 107.5q0 4 8 4q6 0 7 -4q13 -51 39 -73.5t84 -22.5t86.5 22t36.5 74q1 4 7 4q8 0 8 -4q-4 -73 -38 -107.5t-100 -34.5z" />
    <glyph glyph-name="dotaccent" unicode="&#x2d9;" 
d="M211 639q0 18 11 29t28 11q18 0 29 -11t11 -29t-11 -29.5t-29 -11.5q-17 0 -28 11.5t-11 29.5z" />
    <glyph glyph-name="ring" unicode="&#x2da;" 
d="M152 617q0 43 27 69.5t71 26.5q45 0 71.5 -26.5t26.5 -69.5q0 -45 -26.5 -72t-71.5 -27q-44 0 -71 27t-27 72zM177 616q0 -34 20 -55t53 -21t53 21t20 55t-20 54t-53 20t-53 -20t-20 -54z" />
    <glyph glyph-name="ogonek" unicode="&#x2db;" 
d="M60 -145q0 47 43.5 86t142.5 68l4 -9q-67 -26 -100.5 -62t-33.5 -78q0 -32 18 -49.5t49 -17.5q13 0 29 3.5t37 13.5q8 -2 8 -12q-23 -14 -48 -19.5t-48 -5.5q-45 0 -73 21t-28 61z" />
    <glyph glyph-name="tilde" unicode="&#x2dc;" 
d="M78 549q0 60 25.5 93.5t67.5 33.5q31 0 53.5 -15.5t39.5 -32.5q18 -17 36 -29.5t43 -12.5q29 0 46 22t18 62q1 4 8 4q8 0 8 -4q0 -60 -26 -93.5t-68 -33.5q-31 0 -52.5 15.5t-40.5 32.5q-17 16 -35 29t-43 13q-29 0 -46.5 -22t-18.5 -62q0 -5 -7 -5q-8 0 -8 5z" />
    <glyph glyph-name="hungarumlaut" unicode="&#x2dd;" 
d="M186 535q-3 0 -6.5 2t-3.5 5q0 2 0.5 4.5t5.5 17.5l52 159q2 8 5 10t10 2h41q11 0 11 -8q0 -3 -1 -6t-8 -15l-98 -163q-4 -6 -5 -7t-3 -1zM309 535q-2 0 -5.5 2.5t-3.5 5.5q0 2 1 4t6 10l91 168q4 7 7 8.5t10 1.5h40q11 0 11 -9q0 -4 -1.5 -7t-8.5 -12l-137 -164
q-5 -6 -6.5 -7t-3.5 -1z" />
    <glyph glyph-name="gravecomb" unicode="&#x300;" horiz-adv-x="0" 
d="M-121 735h40q6 0 9.5 -1.5t7.5 -8.5l98 -181q0 -4 -3.5 -6t-6.5 -2t-6 3l-140 168q-7 9 -8.5 12t-1.5 7q0 9 11 9z" />
    </font>
</defs>
</svg>
